%TF.GenerationSoftware,KiCad,Pcbnew,(5.1.6)-1*%
%TF.CreationDate,2020-08-12T13:20:56+08:00*%
%TF.ProjectId,sl_v2,736c5f76-322e-46b6-9963-61645f706362,rev?*%
%TF.SameCoordinates,Original*%
%TF.FileFunction,Copper,L4,Bot*%
%TF.FilePolarity,Positive*%
%FSLAX46Y46*%
G04 Gerber Fmt 4.6, Leading zero omitted, Abs format (unit mm)*
G04 Created by KiCad (PCBNEW (5.1.6)-1) date 2020-08-12 13:20:56*
%MOMM*%
%LPD*%
G01*
G04 APERTURE LIST*
%TA.AperFunction,SMDPad,CuDef*%
%ADD10R,4.000000X1.400000*%
%TD*%
%TA.AperFunction,ComponentPad*%
%ADD11O,1.600000X1.000000*%
%TD*%
%TA.AperFunction,ComponentPad*%
%ADD12O,2.100000X1.000000*%
%TD*%
%TA.AperFunction,ViaPad*%
%ADD13C,0.800000*%
%TD*%
%TA.AperFunction,ViaPad*%
%ADD14C,0.600000*%
%TD*%
%TA.AperFunction,Conductor*%
%ADD15C,0.350000*%
%TD*%
%TA.AperFunction,Conductor*%
%ADD16C,0.250000*%
%TD*%
%TA.AperFunction,Conductor*%
%ADD17C,0.254000*%
%TD*%
G04 APERTURE END LIST*
D10*
%TO.P,J2,9*%
%TO.N,/C0*%
X127889000Y-89154000D03*
%TO.P,J2,10*%
%TO.N,/C1*%
X127889000Y-91694000D03*
%TO.P,J2,11*%
%TO.N,/C2*%
X127889000Y-94234000D03*
%TO.P,J2,12*%
%TO.N,/C3*%
X127889000Y-96774000D03*
%TO.P,J2,13*%
%TO.N,/7.5M_CLK*%
X127889000Y-99314000D03*
%TO.P,J2,14*%
%TO.N,/3.3V_OUT*%
X127889000Y-101854000D03*
%TO.P,J2,15*%
%TO.N,/5V_OUT*%
X127889000Y-104394000D03*
%TO.P,J2,16*%
%TO.N,GND*%
X127889000Y-106934000D03*
%TD*%
D11*
%TO.P,J1,S1*%
%TO.N,GND*%
X188883000Y-93724000D03*
X188883000Y-102364000D03*
D12*
X184703000Y-102364000D03*
X184703000Y-93724000D03*
%TD*%
D13*
%TO.N,/+3.3V_FTOUT*%
X141732000Y-92456000D03*
X140462000Y-87630000D03*
X155448000Y-100330000D03*
X153543000Y-99695000D03*
X162687000Y-99822000D03*
X176784000Y-99060000D03*
X174498000Y-94615000D03*
X180213000Y-103886000D03*
X169291000Y-103759000D03*
D14*
%TO.N,GND*%
X146735800Y-87553800D03*
X143408400Y-92770800D03*
X137769600Y-92481400D03*
X159004000Y-100380800D03*
X156489400Y-102616000D03*
X155321000Y-104063800D03*
X163982400Y-102539800D03*
X145415000Y-104698800D03*
X145440400Y-106603800D03*
X144043400Y-104902000D03*
X135940800Y-104876600D03*
X134797800Y-106273600D03*
X127914400Y-108483400D03*
X170078400Y-95402400D03*
X166979600Y-98552000D03*
X166979600Y-98552000D03*
X166674800Y-100050600D03*
X162687000Y-94615000D03*
X174371000Y-93370400D03*
X174421800Y-95656400D03*
X174066200Y-97967800D03*
X176707800Y-97942400D03*
X177850800Y-99466400D03*
X177698400Y-95656400D03*
X182422800Y-94742000D03*
X182170000Y-101294000D03*
X178790600Y-101930200D03*
X180213000Y-105079800D03*
X178181000Y-107518200D03*
X162991800Y-105867200D03*
X160426400Y-105765600D03*
D13*
X170891200Y-101981000D03*
%TO.N,/+3.3V_VCCIO*%
X160782000Y-92202000D03*
X166624000Y-95123000D03*
X165481000Y-99949000D03*
%TO.N,/+3.3V_ROM*%
X166141400Y-106070400D03*
X166116000Y-107772200D03*
X174625000Y-103886000D03*
X170230800Y-109143800D03*
%TO.N,Net-(C16-Pad1)*%
X151688800Y-103505000D03*
X155346400Y-106476800D03*
D14*
%TO.N,/7.5M_CLK*%
X158521400Y-97790000D03*
%TO.N,/C3*%
X157696201Y-95240000D03*
%TO.N,/C2*%
X158470600Y-94615000D03*
%TO.N,/C1*%
X158496000Y-93726000D03*
%TO.N,/C0*%
X157937200Y-92684600D03*
%TO.N,/5V_OUT_EN*%
X152500384Y-98677784D03*
X155397200Y-105232200D03*
%TO.N,/I2C_CONNECT*%
X151587200Y-92684600D03*
X151587200Y-88036400D03*
D13*
X161569400Y-96088200D03*
%TD*%
D15*
%TO.N,GND*%
X127889000Y-106934000D02*
X127889000Y-108458000D01*
X127889000Y-108458000D02*
X127914400Y-108483400D01*
D16*
%TO.N,Net-(C16-Pad1)*%
X151688800Y-103505000D02*
X154660600Y-106476800D01*
X154660600Y-106476800D02*
X155346400Y-106476800D01*
%TO.N,/7.5M_CLK*%
X158521400Y-97790000D02*
X141935200Y-97790000D01*
X140411200Y-99314000D02*
X127889000Y-99314000D01*
X141935200Y-97790000D02*
X140411200Y-99314000D01*
%TO.N,/C3*%
X157696201Y-95240000D02*
X134299800Y-95240000D01*
X132765800Y-96774000D02*
X127889000Y-96774000D01*
X134299800Y-95240000D02*
X132765800Y-96774000D01*
%TO.N,/C2*%
X158470600Y-94615000D02*
X131699000Y-94615000D01*
X131318000Y-94234000D02*
X127889000Y-94234000D01*
X131699000Y-94615000D02*
X131318000Y-94234000D01*
%TO.N,/C1*%
X130759200Y-91694000D02*
X127889000Y-91694000D01*
X133019800Y-93954600D02*
X130759200Y-91694000D01*
X158496000Y-93726000D02*
X158267400Y-93954600D01*
X158267400Y-93954600D02*
X133019800Y-93954600D01*
%TO.N,/C0*%
X130139000Y-89154000D02*
X127889000Y-89154000D01*
X157251400Y-93395800D02*
X134380800Y-93395800D01*
X157937200Y-92684600D02*
X157251400Y-93395800D01*
X134380800Y-93395800D02*
X130139000Y-89154000D01*
%TO.N,/5V_OUT_EN*%
X152500384Y-98677784D02*
X152500384Y-102462384D01*
X152500384Y-102462384D02*
X155270200Y-105232200D01*
X155270200Y-105232200D02*
X155397200Y-105232200D01*
%TO.N,/I2C_CONNECT*%
X151587200Y-92684600D02*
X151587200Y-88036400D01*
X161569400Y-96088200D02*
X161569400Y-95199200D01*
X154406600Y-88036400D02*
X151587200Y-88036400D01*
X161569400Y-95199200D02*
X154406600Y-88036400D01*
%TD*%
D17*
%TO.N,GND*%
G36*
X190908000Y-110009000D02*
G01*
X170798887Y-110009000D01*
X170890574Y-109947737D01*
X171034737Y-109803574D01*
X171148005Y-109634056D01*
X171226026Y-109445698D01*
X171265800Y-109245739D01*
X171265800Y-109041861D01*
X171226026Y-108841902D01*
X171148005Y-108653544D01*
X171034737Y-108484026D01*
X170890574Y-108339863D01*
X170721056Y-108226595D01*
X170532698Y-108148574D01*
X170332739Y-108108800D01*
X170128861Y-108108800D01*
X169928902Y-108148574D01*
X169740544Y-108226595D01*
X169571026Y-108339863D01*
X169426863Y-108484026D01*
X169313595Y-108653544D01*
X169235574Y-108841902D01*
X169195800Y-109041861D01*
X169195800Y-109245739D01*
X169235574Y-109445698D01*
X169313595Y-109634056D01*
X169426863Y-109803574D01*
X169571026Y-109947737D01*
X169662713Y-110009000D01*
X126338000Y-110009000D01*
X126338000Y-108271267D01*
X127603250Y-108269000D01*
X127762000Y-108110250D01*
X127762000Y-107061000D01*
X128016000Y-107061000D01*
X128016000Y-108110250D01*
X128174750Y-108269000D01*
X129889000Y-108272072D01*
X130013482Y-108259812D01*
X130133180Y-108223502D01*
X130243494Y-108164537D01*
X130340185Y-108085185D01*
X130419537Y-107988494D01*
X130478502Y-107878180D01*
X130514812Y-107758482D01*
X130523500Y-107670261D01*
X165081000Y-107670261D01*
X165081000Y-107874139D01*
X165120774Y-108074098D01*
X165198795Y-108262456D01*
X165312063Y-108431974D01*
X165456226Y-108576137D01*
X165625744Y-108689405D01*
X165814102Y-108767426D01*
X166014061Y-108807200D01*
X166217939Y-108807200D01*
X166417898Y-108767426D01*
X166606256Y-108689405D01*
X166775774Y-108576137D01*
X166919937Y-108431974D01*
X167033205Y-108262456D01*
X167111226Y-108074098D01*
X167151000Y-107874139D01*
X167151000Y-107670261D01*
X167111226Y-107470302D01*
X167033205Y-107281944D01*
X166919937Y-107112426D01*
X166775774Y-106968263D01*
X166718189Y-106929786D01*
X166801174Y-106874337D01*
X166945337Y-106730174D01*
X167058605Y-106560656D01*
X167136626Y-106372298D01*
X167176400Y-106172339D01*
X167176400Y-105968461D01*
X167136626Y-105768502D01*
X167058605Y-105580144D01*
X166945337Y-105410626D01*
X166801174Y-105266463D01*
X166631656Y-105153195D01*
X166443298Y-105075174D01*
X166243339Y-105035400D01*
X166039461Y-105035400D01*
X165839502Y-105075174D01*
X165651144Y-105153195D01*
X165481626Y-105266463D01*
X165337463Y-105410626D01*
X165224195Y-105580144D01*
X165146174Y-105768502D01*
X165106400Y-105968461D01*
X165106400Y-106172339D01*
X165146174Y-106372298D01*
X165224195Y-106560656D01*
X165337463Y-106730174D01*
X165481626Y-106874337D01*
X165539211Y-106912814D01*
X165456226Y-106968263D01*
X165312063Y-107112426D01*
X165198795Y-107281944D01*
X165120774Y-107470302D01*
X165081000Y-107670261D01*
X130523500Y-107670261D01*
X130527072Y-107634000D01*
X130524000Y-107219750D01*
X130365250Y-107061000D01*
X128016000Y-107061000D01*
X127762000Y-107061000D01*
X127742000Y-107061000D01*
X127742000Y-106807000D01*
X127762000Y-106807000D01*
X127762000Y-106787000D01*
X128016000Y-106787000D01*
X128016000Y-106807000D01*
X130365250Y-106807000D01*
X130524000Y-106648250D01*
X130527072Y-106234000D01*
X130514812Y-106109518D01*
X130478502Y-105989820D01*
X130419537Y-105879506D01*
X130340185Y-105782815D01*
X130243494Y-105703463D01*
X130169665Y-105664000D01*
X130243494Y-105624537D01*
X130340185Y-105545185D01*
X130419537Y-105448494D01*
X130478502Y-105338180D01*
X130514812Y-105218482D01*
X130527072Y-105094000D01*
X130527072Y-103694000D01*
X130514812Y-103569518D01*
X130478502Y-103449820D01*
X130419537Y-103339506D01*
X130340185Y-103242815D01*
X130243494Y-103163463D01*
X130169665Y-103124000D01*
X130243494Y-103084537D01*
X130340185Y-103005185D01*
X130419537Y-102908494D01*
X130478502Y-102798180D01*
X130514812Y-102678482D01*
X130527072Y-102554000D01*
X130527072Y-101154000D01*
X130514812Y-101029518D01*
X130478502Y-100909820D01*
X130419537Y-100799506D01*
X130340185Y-100702815D01*
X130243494Y-100623463D01*
X130169665Y-100584000D01*
X130243494Y-100544537D01*
X130340185Y-100465185D01*
X130419537Y-100368494D01*
X130478502Y-100258180D01*
X130514812Y-100138482D01*
X130521163Y-100074000D01*
X140373878Y-100074000D01*
X140411200Y-100077676D01*
X140448522Y-100074000D01*
X140448533Y-100074000D01*
X140560186Y-100063003D01*
X140703447Y-100019546D01*
X140835476Y-99948974D01*
X140951201Y-99854001D01*
X140975003Y-99824998D01*
X142250003Y-98550000D01*
X151572484Y-98550000D01*
X151565384Y-98585695D01*
X151565384Y-98769873D01*
X151601316Y-98950513D01*
X151671798Y-99120673D01*
X151740384Y-99223320D01*
X151740385Y-102425052D01*
X151736708Y-102462384D01*
X151737458Y-102470000D01*
X151586861Y-102470000D01*
X151386902Y-102509774D01*
X151198544Y-102587795D01*
X151029026Y-102701063D01*
X150884863Y-102845226D01*
X150771595Y-103014744D01*
X150693574Y-103203102D01*
X150653800Y-103403061D01*
X150653800Y-103606939D01*
X150693574Y-103806898D01*
X150771595Y-103995256D01*
X150884863Y-104164774D01*
X151029026Y-104308937D01*
X151198544Y-104422205D01*
X151386902Y-104500226D01*
X151586861Y-104540000D01*
X151648999Y-104540000D01*
X154096801Y-106987803D01*
X154120599Y-107016801D01*
X154236324Y-107111774D01*
X154368353Y-107182346D01*
X154511614Y-107225803D01*
X154623267Y-107236800D01*
X154623277Y-107236800D01*
X154644810Y-107238921D01*
X154686626Y-107280737D01*
X154856144Y-107394005D01*
X155044502Y-107472026D01*
X155244461Y-107511800D01*
X155448339Y-107511800D01*
X155648298Y-107472026D01*
X155836656Y-107394005D01*
X156006174Y-107280737D01*
X156150337Y-107136574D01*
X156263605Y-106967056D01*
X156341626Y-106778698D01*
X156381400Y-106578739D01*
X156381400Y-106374861D01*
X156341626Y-106174902D01*
X156263605Y-105986544D01*
X156150337Y-105817026D01*
X156138713Y-105805402D01*
X156225786Y-105675089D01*
X156296268Y-105504929D01*
X156332200Y-105324289D01*
X156332200Y-105140111D01*
X156296268Y-104959471D01*
X156225786Y-104789311D01*
X156123462Y-104636172D01*
X155993228Y-104505938D01*
X155840089Y-104403614D01*
X155669929Y-104333132D01*
X155489289Y-104297200D01*
X155410002Y-104297200D01*
X154769863Y-103657061D01*
X168256000Y-103657061D01*
X168256000Y-103860939D01*
X168295774Y-104060898D01*
X168373795Y-104249256D01*
X168487063Y-104418774D01*
X168631226Y-104562937D01*
X168800744Y-104676205D01*
X168989102Y-104754226D01*
X169189061Y-104794000D01*
X169392939Y-104794000D01*
X169592898Y-104754226D01*
X169781256Y-104676205D01*
X169950774Y-104562937D01*
X170094937Y-104418774D01*
X170208205Y-104249256D01*
X170286226Y-104060898D01*
X170326000Y-103860939D01*
X170326000Y-103784061D01*
X173590000Y-103784061D01*
X173590000Y-103987939D01*
X173629774Y-104187898D01*
X173707795Y-104376256D01*
X173821063Y-104545774D01*
X173965226Y-104689937D01*
X174134744Y-104803205D01*
X174323102Y-104881226D01*
X174523061Y-104921000D01*
X174726939Y-104921000D01*
X174926898Y-104881226D01*
X175115256Y-104803205D01*
X175284774Y-104689937D01*
X175428937Y-104545774D01*
X175542205Y-104376256D01*
X175620226Y-104187898D01*
X175660000Y-103987939D01*
X175660000Y-103784061D01*
X179178000Y-103784061D01*
X179178000Y-103987939D01*
X179217774Y-104187898D01*
X179295795Y-104376256D01*
X179409063Y-104545774D01*
X179553226Y-104689937D01*
X179722744Y-104803205D01*
X179911102Y-104881226D01*
X180111061Y-104921000D01*
X180314939Y-104921000D01*
X180514898Y-104881226D01*
X180703256Y-104803205D01*
X180872774Y-104689937D01*
X181016937Y-104545774D01*
X181130205Y-104376256D01*
X181208226Y-104187898D01*
X181248000Y-103987939D01*
X181248000Y-103784061D01*
X181208226Y-103584102D01*
X181130205Y-103395744D01*
X181016937Y-103226226D01*
X180872774Y-103082063D01*
X180703256Y-102968795D01*
X180514898Y-102890774D01*
X180314939Y-102851000D01*
X180111061Y-102851000D01*
X179911102Y-102890774D01*
X179722744Y-102968795D01*
X179553226Y-103082063D01*
X179409063Y-103226226D01*
X179295795Y-103395744D01*
X179217774Y-103584102D01*
X179178000Y-103784061D01*
X175660000Y-103784061D01*
X175620226Y-103584102D01*
X175542205Y-103395744D01*
X175428937Y-103226226D01*
X175284774Y-103082063D01*
X175115256Y-102968795D01*
X174926898Y-102890774D01*
X174726939Y-102851000D01*
X174523061Y-102851000D01*
X174323102Y-102890774D01*
X174134744Y-102968795D01*
X173965226Y-103082063D01*
X173821063Y-103226226D01*
X173707795Y-103395744D01*
X173629774Y-103584102D01*
X173590000Y-103784061D01*
X170326000Y-103784061D01*
X170326000Y-103657061D01*
X170286226Y-103457102D01*
X170208205Y-103268744D01*
X170094937Y-103099226D01*
X169950774Y-102955063D01*
X169781256Y-102841795D01*
X169592898Y-102763774D01*
X169392939Y-102724000D01*
X169189061Y-102724000D01*
X168989102Y-102763774D01*
X168800744Y-102841795D01*
X168631226Y-102955063D01*
X168487063Y-103099226D01*
X168373795Y-103268744D01*
X168295774Y-103457102D01*
X168256000Y-103657061D01*
X154769863Y-103657061D01*
X153778676Y-102665874D01*
X183058881Y-102665874D01*
X183138724Y-102888976D01*
X183260631Y-103076764D01*
X183416831Y-103237161D01*
X183601322Y-103364003D01*
X183807013Y-103452415D01*
X184026000Y-103499000D01*
X184576000Y-103499000D01*
X184576000Y-102491000D01*
X184830000Y-102491000D01*
X184830000Y-103499000D01*
X185380000Y-103499000D01*
X185598987Y-103452415D01*
X185804678Y-103364003D01*
X185989169Y-103237161D01*
X186145369Y-103076764D01*
X186267276Y-102888976D01*
X186347119Y-102665874D01*
X187488881Y-102665874D01*
X187568724Y-102888976D01*
X187690631Y-103076764D01*
X187846831Y-103237161D01*
X188031322Y-103364003D01*
X188237013Y-103452415D01*
X188456000Y-103499000D01*
X188756000Y-103499000D01*
X188756000Y-102491000D01*
X189010000Y-102491000D01*
X189010000Y-103499000D01*
X189310000Y-103499000D01*
X189528987Y-103452415D01*
X189734678Y-103364003D01*
X189919169Y-103237161D01*
X190075369Y-103076764D01*
X190197276Y-102888976D01*
X190277119Y-102665874D01*
X190150954Y-102491000D01*
X189010000Y-102491000D01*
X188756000Y-102491000D01*
X187615046Y-102491000D01*
X187488881Y-102665874D01*
X186347119Y-102665874D01*
X186220954Y-102491000D01*
X184830000Y-102491000D01*
X184576000Y-102491000D01*
X183185046Y-102491000D01*
X183058881Y-102665874D01*
X153778676Y-102665874D01*
X153260384Y-102147583D01*
X153260384Y-102062126D01*
X183058881Y-102062126D01*
X183185046Y-102237000D01*
X184576000Y-102237000D01*
X184576000Y-102217000D01*
X184830000Y-102217000D01*
X184830000Y-102237000D01*
X186220954Y-102237000D01*
X186347119Y-102062126D01*
X187488881Y-102062126D01*
X187615046Y-102237000D01*
X188756000Y-102237000D01*
X188756000Y-101229000D01*
X189010000Y-101229000D01*
X189010000Y-102237000D01*
X190150954Y-102237000D01*
X190277119Y-102062126D01*
X190197276Y-101839024D01*
X190075369Y-101651236D01*
X189919169Y-101490839D01*
X189734678Y-101363997D01*
X189528987Y-101275585D01*
X189310000Y-101229000D01*
X189010000Y-101229000D01*
X188756000Y-101229000D01*
X188456000Y-101229000D01*
X188237013Y-101275585D01*
X188031322Y-101363997D01*
X187846831Y-101490839D01*
X187690631Y-101651236D01*
X187568724Y-101839024D01*
X187488881Y-102062126D01*
X186347119Y-102062126D01*
X186267276Y-101839024D01*
X186145369Y-101651236D01*
X186004794Y-101506884D01*
X186083741Y-101388731D01*
X186156108Y-101214022D01*
X186193000Y-101028552D01*
X186193000Y-100839448D01*
X186156108Y-100653978D01*
X186083741Y-100479269D01*
X185978681Y-100322036D01*
X185844964Y-100188319D01*
X185687731Y-100083259D01*
X185513022Y-100010892D01*
X185327552Y-99974000D01*
X185138448Y-99974000D01*
X184952978Y-100010892D01*
X184778269Y-100083259D01*
X184621036Y-100188319D01*
X184487319Y-100322036D01*
X184382259Y-100479269D01*
X184309892Y-100653978D01*
X184273000Y-100839448D01*
X184273000Y-101028552D01*
X184309892Y-101214022D01*
X184316096Y-101229000D01*
X184026000Y-101229000D01*
X183807013Y-101275585D01*
X183601322Y-101363997D01*
X183416831Y-101490839D01*
X183260631Y-101651236D01*
X183138724Y-101839024D01*
X183058881Y-102062126D01*
X153260384Y-102062126D01*
X153260384Y-100694061D01*
X153441061Y-100730000D01*
X153644939Y-100730000D01*
X153844898Y-100690226D01*
X154033256Y-100612205D01*
X154202774Y-100498937D01*
X154346937Y-100354774D01*
X154413000Y-100255903D01*
X154413000Y-100431939D01*
X154452774Y-100631898D01*
X154530795Y-100820256D01*
X154644063Y-100989774D01*
X154788226Y-101133937D01*
X154957744Y-101247205D01*
X155146102Y-101325226D01*
X155346061Y-101365000D01*
X155549939Y-101365000D01*
X155749898Y-101325226D01*
X155938256Y-101247205D01*
X156107774Y-101133937D01*
X156251937Y-100989774D01*
X156365205Y-100820256D01*
X156443226Y-100631898D01*
X156483000Y-100431939D01*
X156483000Y-100228061D01*
X156443226Y-100028102D01*
X156365205Y-99839744D01*
X156285236Y-99720061D01*
X161652000Y-99720061D01*
X161652000Y-99923939D01*
X161691774Y-100123898D01*
X161769795Y-100312256D01*
X161883063Y-100481774D01*
X162027226Y-100625937D01*
X162196744Y-100739205D01*
X162385102Y-100817226D01*
X162585061Y-100857000D01*
X162788939Y-100857000D01*
X162988898Y-100817226D01*
X163177256Y-100739205D01*
X163346774Y-100625937D01*
X163490937Y-100481774D01*
X163604205Y-100312256D01*
X163682226Y-100123898D01*
X163722000Y-99923939D01*
X163722000Y-99847061D01*
X164446000Y-99847061D01*
X164446000Y-100050939D01*
X164485774Y-100250898D01*
X164563795Y-100439256D01*
X164677063Y-100608774D01*
X164821226Y-100752937D01*
X164990744Y-100866205D01*
X165179102Y-100944226D01*
X165379061Y-100984000D01*
X165582939Y-100984000D01*
X165782898Y-100944226D01*
X165971256Y-100866205D01*
X166140774Y-100752937D01*
X166284937Y-100608774D01*
X166398205Y-100439256D01*
X166476226Y-100250898D01*
X166516000Y-100050939D01*
X166516000Y-99847061D01*
X166476226Y-99647102D01*
X166398205Y-99458744D01*
X166284937Y-99289226D01*
X166140774Y-99145063D01*
X165971256Y-99031795D01*
X165793248Y-98958061D01*
X175749000Y-98958061D01*
X175749000Y-99161939D01*
X175788774Y-99361898D01*
X175866795Y-99550256D01*
X175980063Y-99719774D01*
X176124226Y-99863937D01*
X176293744Y-99977205D01*
X176482102Y-100055226D01*
X176682061Y-100095000D01*
X176885939Y-100095000D01*
X177085898Y-100055226D01*
X177274256Y-99977205D01*
X177443774Y-99863937D01*
X177587937Y-99719774D01*
X177701205Y-99550256D01*
X177779226Y-99361898D01*
X177819000Y-99161939D01*
X177819000Y-98958061D01*
X177779226Y-98758102D01*
X177701205Y-98569744D01*
X177587937Y-98400226D01*
X177443774Y-98256063D01*
X177274256Y-98142795D01*
X177085898Y-98064774D01*
X176885939Y-98025000D01*
X176682061Y-98025000D01*
X176482102Y-98064774D01*
X176293744Y-98142795D01*
X176124226Y-98256063D01*
X175980063Y-98400226D01*
X175866795Y-98569744D01*
X175788774Y-98758102D01*
X175749000Y-98958061D01*
X165793248Y-98958061D01*
X165782898Y-98953774D01*
X165582939Y-98914000D01*
X165379061Y-98914000D01*
X165179102Y-98953774D01*
X164990744Y-99031795D01*
X164821226Y-99145063D01*
X164677063Y-99289226D01*
X164563795Y-99458744D01*
X164485774Y-99647102D01*
X164446000Y-99847061D01*
X163722000Y-99847061D01*
X163722000Y-99720061D01*
X163682226Y-99520102D01*
X163604205Y-99331744D01*
X163490937Y-99162226D01*
X163346774Y-99018063D01*
X163177256Y-98904795D01*
X162988898Y-98826774D01*
X162788939Y-98787000D01*
X162585061Y-98787000D01*
X162385102Y-98826774D01*
X162196744Y-98904795D01*
X162027226Y-99018063D01*
X161883063Y-99162226D01*
X161769795Y-99331744D01*
X161691774Y-99520102D01*
X161652000Y-99720061D01*
X156285236Y-99720061D01*
X156251937Y-99670226D01*
X156107774Y-99526063D01*
X155938256Y-99412795D01*
X155749898Y-99334774D01*
X155549939Y-99295000D01*
X155346061Y-99295000D01*
X155146102Y-99334774D01*
X154957744Y-99412795D01*
X154788226Y-99526063D01*
X154644063Y-99670226D01*
X154578000Y-99769097D01*
X154578000Y-99593061D01*
X154538226Y-99393102D01*
X154460205Y-99204744D01*
X154346937Y-99035226D01*
X154202774Y-98891063D01*
X154033256Y-98777795D01*
X153844898Y-98699774D01*
X153644939Y-98660000D01*
X153441061Y-98660000D01*
X153435384Y-98661129D01*
X153435384Y-98585695D01*
X153428284Y-98550000D01*
X157975865Y-98550000D01*
X158078511Y-98618586D01*
X158248671Y-98689068D01*
X158429311Y-98725000D01*
X158613489Y-98725000D01*
X158794129Y-98689068D01*
X158964289Y-98618586D01*
X159117428Y-98516262D01*
X159247662Y-98386028D01*
X159349986Y-98232889D01*
X159420468Y-98062729D01*
X159456400Y-97882089D01*
X159456400Y-97697911D01*
X159420468Y-97517271D01*
X159349986Y-97347111D01*
X159247662Y-97193972D01*
X159117428Y-97063738D01*
X158964289Y-96961414D01*
X158794129Y-96890932D01*
X158613489Y-96855000D01*
X158429311Y-96855000D01*
X158248671Y-96890932D01*
X158078511Y-96961414D01*
X157975865Y-97030000D01*
X141972522Y-97030000D01*
X141935199Y-97026324D01*
X141897876Y-97030000D01*
X141897867Y-97030000D01*
X141786214Y-97040997D01*
X141642953Y-97084454D01*
X141510924Y-97155026D01*
X141510922Y-97155027D01*
X141510923Y-97155027D01*
X141424196Y-97226201D01*
X141424192Y-97226205D01*
X141395199Y-97249999D01*
X141371405Y-97278992D01*
X140096399Y-98554000D01*
X130521163Y-98554000D01*
X130514812Y-98489518D01*
X130478502Y-98369820D01*
X130419537Y-98259506D01*
X130340185Y-98162815D01*
X130243494Y-98083463D01*
X130169665Y-98044000D01*
X130243494Y-98004537D01*
X130340185Y-97925185D01*
X130419537Y-97828494D01*
X130478502Y-97718180D01*
X130514812Y-97598482D01*
X130521163Y-97534000D01*
X132728478Y-97534000D01*
X132765800Y-97537676D01*
X132803122Y-97534000D01*
X132803133Y-97534000D01*
X132914786Y-97523003D01*
X133058047Y-97479546D01*
X133190076Y-97408974D01*
X133305801Y-97314001D01*
X133329604Y-97284997D01*
X134614602Y-96000000D01*
X157150666Y-96000000D01*
X157253312Y-96068586D01*
X157423472Y-96139068D01*
X157604112Y-96175000D01*
X157788290Y-96175000D01*
X157968930Y-96139068D01*
X158139090Y-96068586D01*
X158292229Y-95966262D01*
X158422463Y-95836028D01*
X158524787Y-95682889D01*
X158581370Y-95546284D01*
X158743329Y-95514068D01*
X158913489Y-95443586D01*
X159066628Y-95341262D01*
X159196862Y-95211028D01*
X159299186Y-95057889D01*
X159369668Y-94887729D01*
X159405600Y-94707089D01*
X159405600Y-94522911D01*
X159369668Y-94342271D01*
X159308082Y-94193589D01*
X159324586Y-94168889D01*
X159365503Y-94070105D01*
X160748785Y-95453387D01*
X160652195Y-95597944D01*
X160574174Y-95786302D01*
X160534400Y-95986261D01*
X160534400Y-96190139D01*
X160574174Y-96390098D01*
X160652195Y-96578456D01*
X160765463Y-96747974D01*
X160909626Y-96892137D01*
X161079144Y-97005405D01*
X161267502Y-97083426D01*
X161467461Y-97123200D01*
X161671339Y-97123200D01*
X161871298Y-97083426D01*
X162059656Y-97005405D01*
X162229174Y-96892137D01*
X162373337Y-96747974D01*
X162486605Y-96578456D01*
X162564626Y-96390098D01*
X162604400Y-96190139D01*
X162604400Y-95986261D01*
X162564626Y-95786302D01*
X162486605Y-95597944D01*
X162373337Y-95428426D01*
X162329400Y-95384489D01*
X162329400Y-95236523D01*
X162333076Y-95199200D01*
X162329400Y-95161877D01*
X162329400Y-95161867D01*
X162318403Y-95050214D01*
X162309560Y-95021061D01*
X165589000Y-95021061D01*
X165589000Y-95224939D01*
X165628774Y-95424898D01*
X165706795Y-95613256D01*
X165820063Y-95782774D01*
X165964226Y-95926937D01*
X166133744Y-96040205D01*
X166322102Y-96118226D01*
X166522061Y-96158000D01*
X166725939Y-96158000D01*
X166925898Y-96118226D01*
X167114256Y-96040205D01*
X167283774Y-95926937D01*
X167427937Y-95782774D01*
X167541205Y-95613256D01*
X167619226Y-95424898D01*
X167659000Y-95224939D01*
X167659000Y-95021061D01*
X167619226Y-94821102D01*
X167541205Y-94632744D01*
X167461236Y-94513061D01*
X173463000Y-94513061D01*
X173463000Y-94716939D01*
X173502774Y-94916898D01*
X173580795Y-95105256D01*
X173694063Y-95274774D01*
X173838226Y-95418937D01*
X174007744Y-95532205D01*
X174196102Y-95610226D01*
X174396061Y-95650000D01*
X174599939Y-95650000D01*
X174799898Y-95610226D01*
X174988256Y-95532205D01*
X175157774Y-95418937D01*
X175301937Y-95274774D01*
X175415205Y-95105256D01*
X175493226Y-94916898D01*
X175533000Y-94716939D01*
X175533000Y-94513061D01*
X175493226Y-94313102D01*
X175415205Y-94124744D01*
X175349143Y-94025874D01*
X183058881Y-94025874D01*
X183138724Y-94248976D01*
X183260631Y-94436764D01*
X183416831Y-94597161D01*
X183601322Y-94724003D01*
X183807013Y-94812415D01*
X184026000Y-94859000D01*
X184316096Y-94859000D01*
X184309892Y-94873978D01*
X184273000Y-95059448D01*
X184273000Y-95248552D01*
X184309892Y-95434022D01*
X184382259Y-95608731D01*
X184487319Y-95765964D01*
X184621036Y-95899681D01*
X184778269Y-96004741D01*
X184952978Y-96077108D01*
X185138448Y-96114000D01*
X185327552Y-96114000D01*
X185513022Y-96077108D01*
X185687731Y-96004741D01*
X185844964Y-95899681D01*
X185978681Y-95765964D01*
X186083741Y-95608731D01*
X186156108Y-95434022D01*
X186193000Y-95248552D01*
X186193000Y-95059448D01*
X186156108Y-94873978D01*
X186083741Y-94699269D01*
X186004794Y-94581116D01*
X186145369Y-94436764D01*
X186267276Y-94248976D01*
X186347119Y-94025874D01*
X187488881Y-94025874D01*
X187568724Y-94248976D01*
X187690631Y-94436764D01*
X187846831Y-94597161D01*
X188031322Y-94724003D01*
X188237013Y-94812415D01*
X188456000Y-94859000D01*
X188756000Y-94859000D01*
X188756000Y-93851000D01*
X189010000Y-93851000D01*
X189010000Y-94859000D01*
X189310000Y-94859000D01*
X189528987Y-94812415D01*
X189734678Y-94724003D01*
X189919169Y-94597161D01*
X190075369Y-94436764D01*
X190197276Y-94248976D01*
X190277119Y-94025874D01*
X190150954Y-93851000D01*
X189010000Y-93851000D01*
X188756000Y-93851000D01*
X187615046Y-93851000D01*
X187488881Y-94025874D01*
X186347119Y-94025874D01*
X186220954Y-93851000D01*
X184830000Y-93851000D01*
X184830000Y-93871000D01*
X184576000Y-93871000D01*
X184576000Y-93851000D01*
X183185046Y-93851000D01*
X183058881Y-94025874D01*
X175349143Y-94025874D01*
X175301937Y-93955226D01*
X175157774Y-93811063D01*
X174988256Y-93697795D01*
X174799898Y-93619774D01*
X174599939Y-93580000D01*
X174396061Y-93580000D01*
X174196102Y-93619774D01*
X174007744Y-93697795D01*
X173838226Y-93811063D01*
X173694063Y-93955226D01*
X173580795Y-94124744D01*
X173502774Y-94313102D01*
X173463000Y-94513061D01*
X167461236Y-94513061D01*
X167427937Y-94463226D01*
X167283774Y-94319063D01*
X167114256Y-94205795D01*
X166925898Y-94127774D01*
X166725939Y-94088000D01*
X166522061Y-94088000D01*
X166322102Y-94127774D01*
X166133744Y-94205795D01*
X165964226Y-94319063D01*
X165820063Y-94463226D01*
X165706795Y-94632744D01*
X165628774Y-94821102D01*
X165589000Y-95021061D01*
X162309560Y-95021061D01*
X162274946Y-94906953D01*
X162229057Y-94821102D01*
X162204374Y-94774923D01*
X162133199Y-94688197D01*
X162109401Y-94659199D01*
X162080403Y-94635401D01*
X160867128Y-93422126D01*
X183058881Y-93422126D01*
X183185046Y-93597000D01*
X184576000Y-93597000D01*
X184576000Y-92589000D01*
X184830000Y-92589000D01*
X184830000Y-93597000D01*
X186220954Y-93597000D01*
X186347119Y-93422126D01*
X187488881Y-93422126D01*
X187615046Y-93597000D01*
X188756000Y-93597000D01*
X188756000Y-92589000D01*
X189010000Y-92589000D01*
X189010000Y-93597000D01*
X190150954Y-93597000D01*
X190277119Y-93422126D01*
X190197276Y-93199024D01*
X190075369Y-93011236D01*
X189919169Y-92850839D01*
X189734678Y-92723997D01*
X189528987Y-92635585D01*
X189310000Y-92589000D01*
X189010000Y-92589000D01*
X188756000Y-92589000D01*
X188456000Y-92589000D01*
X188237013Y-92635585D01*
X188031322Y-92723997D01*
X187846831Y-92850839D01*
X187690631Y-93011236D01*
X187568724Y-93199024D01*
X187488881Y-93422126D01*
X186347119Y-93422126D01*
X186267276Y-93199024D01*
X186145369Y-93011236D01*
X185989169Y-92850839D01*
X185804678Y-92723997D01*
X185598987Y-92635585D01*
X185380000Y-92589000D01*
X184830000Y-92589000D01*
X184576000Y-92589000D01*
X184026000Y-92589000D01*
X183807013Y-92635585D01*
X183601322Y-92723997D01*
X183416831Y-92850839D01*
X183260631Y-93011236D01*
X183138724Y-93199024D01*
X183058881Y-93422126D01*
X160867128Y-93422126D01*
X160682002Y-93237000D01*
X160883939Y-93237000D01*
X161083898Y-93197226D01*
X161272256Y-93119205D01*
X161441774Y-93005937D01*
X161585937Y-92861774D01*
X161699205Y-92692256D01*
X161777226Y-92503898D01*
X161817000Y-92303939D01*
X161817000Y-92100061D01*
X161777226Y-91900102D01*
X161699205Y-91711744D01*
X161585937Y-91542226D01*
X161441774Y-91398063D01*
X161272256Y-91284795D01*
X161083898Y-91206774D01*
X160883939Y-91167000D01*
X160680061Y-91167000D01*
X160480102Y-91206774D01*
X160291744Y-91284795D01*
X160122226Y-91398063D01*
X159978063Y-91542226D01*
X159864795Y-91711744D01*
X159786774Y-91900102D01*
X159747000Y-92100061D01*
X159747000Y-92301998D01*
X154970404Y-87525403D01*
X154946601Y-87496399D01*
X154830876Y-87401426D01*
X154698847Y-87330854D01*
X154555586Y-87287397D01*
X154443933Y-87276400D01*
X154443922Y-87276400D01*
X154406600Y-87272724D01*
X154369278Y-87276400D01*
X152132735Y-87276400D01*
X152030089Y-87207814D01*
X151859929Y-87137332D01*
X151679289Y-87101400D01*
X151495111Y-87101400D01*
X151314471Y-87137332D01*
X151144311Y-87207814D01*
X150991172Y-87310138D01*
X150860938Y-87440372D01*
X150758614Y-87593511D01*
X150688132Y-87763671D01*
X150652200Y-87944311D01*
X150652200Y-88128489D01*
X150688132Y-88309129D01*
X150758614Y-88479289D01*
X150827201Y-88581937D01*
X150827200Y-92139064D01*
X150758614Y-92241711D01*
X150688132Y-92411871D01*
X150652200Y-92592511D01*
X150652200Y-92635800D01*
X142751513Y-92635800D01*
X142767000Y-92557939D01*
X142767000Y-92354061D01*
X142727226Y-92154102D01*
X142649205Y-91965744D01*
X142535937Y-91796226D01*
X142391774Y-91652063D01*
X142222256Y-91538795D01*
X142033898Y-91460774D01*
X141833939Y-91421000D01*
X141630061Y-91421000D01*
X141430102Y-91460774D01*
X141241744Y-91538795D01*
X141072226Y-91652063D01*
X140928063Y-91796226D01*
X140814795Y-91965744D01*
X140736774Y-92154102D01*
X140697000Y-92354061D01*
X140697000Y-92557939D01*
X140712487Y-92635800D01*
X134695602Y-92635800D01*
X130702804Y-88643003D01*
X130679001Y-88613999D01*
X130563276Y-88519026D01*
X130527072Y-88499674D01*
X130527072Y-88454000D01*
X130514812Y-88329518D01*
X130478502Y-88209820D01*
X130419537Y-88099506D01*
X130340185Y-88002815D01*
X130243494Y-87923463D01*
X130133180Y-87864498D01*
X130013482Y-87828188D01*
X129889000Y-87815928D01*
X126338000Y-87815928D01*
X126338000Y-87528061D01*
X139427000Y-87528061D01*
X139427000Y-87731939D01*
X139466774Y-87931898D01*
X139544795Y-88120256D01*
X139658063Y-88289774D01*
X139802226Y-88433937D01*
X139971744Y-88547205D01*
X140160102Y-88625226D01*
X140360061Y-88665000D01*
X140563939Y-88665000D01*
X140763898Y-88625226D01*
X140952256Y-88547205D01*
X141121774Y-88433937D01*
X141265937Y-88289774D01*
X141379205Y-88120256D01*
X141457226Y-87931898D01*
X141497000Y-87731939D01*
X141497000Y-87528061D01*
X141457226Y-87328102D01*
X141379205Y-87139744D01*
X141265937Y-86970226D01*
X141121774Y-86826063D01*
X140952256Y-86712795D01*
X140763898Y-86634774D01*
X140563939Y-86595000D01*
X140360061Y-86595000D01*
X140160102Y-86634774D01*
X139971744Y-86712795D01*
X139802226Y-86826063D01*
X139658063Y-86970226D01*
X139544795Y-87139744D01*
X139466774Y-87328102D01*
X139427000Y-87528061D01*
X126338000Y-87528061D01*
X126338000Y-86079000D01*
X190908001Y-86079000D01*
X190908000Y-110009000D01*
G37*
X190908000Y-110009000D02*
X170798887Y-110009000D01*
X170890574Y-109947737D01*
X171034737Y-109803574D01*
X171148005Y-109634056D01*
X171226026Y-109445698D01*
X171265800Y-109245739D01*
X171265800Y-109041861D01*
X171226026Y-108841902D01*
X171148005Y-108653544D01*
X171034737Y-108484026D01*
X170890574Y-108339863D01*
X170721056Y-108226595D01*
X170532698Y-108148574D01*
X170332739Y-108108800D01*
X170128861Y-108108800D01*
X169928902Y-108148574D01*
X169740544Y-108226595D01*
X169571026Y-108339863D01*
X169426863Y-108484026D01*
X169313595Y-108653544D01*
X169235574Y-108841902D01*
X169195800Y-109041861D01*
X169195800Y-109245739D01*
X169235574Y-109445698D01*
X169313595Y-109634056D01*
X169426863Y-109803574D01*
X169571026Y-109947737D01*
X169662713Y-110009000D01*
X126338000Y-110009000D01*
X126338000Y-108271267D01*
X127603250Y-108269000D01*
X127762000Y-108110250D01*
X127762000Y-107061000D01*
X128016000Y-107061000D01*
X128016000Y-108110250D01*
X128174750Y-108269000D01*
X129889000Y-108272072D01*
X130013482Y-108259812D01*
X130133180Y-108223502D01*
X130243494Y-108164537D01*
X130340185Y-108085185D01*
X130419537Y-107988494D01*
X130478502Y-107878180D01*
X130514812Y-107758482D01*
X130523500Y-107670261D01*
X165081000Y-107670261D01*
X165081000Y-107874139D01*
X165120774Y-108074098D01*
X165198795Y-108262456D01*
X165312063Y-108431974D01*
X165456226Y-108576137D01*
X165625744Y-108689405D01*
X165814102Y-108767426D01*
X166014061Y-108807200D01*
X166217939Y-108807200D01*
X166417898Y-108767426D01*
X166606256Y-108689405D01*
X166775774Y-108576137D01*
X166919937Y-108431974D01*
X167033205Y-108262456D01*
X167111226Y-108074098D01*
X167151000Y-107874139D01*
X167151000Y-107670261D01*
X167111226Y-107470302D01*
X167033205Y-107281944D01*
X166919937Y-107112426D01*
X166775774Y-106968263D01*
X166718189Y-106929786D01*
X166801174Y-106874337D01*
X166945337Y-106730174D01*
X167058605Y-106560656D01*
X167136626Y-106372298D01*
X167176400Y-106172339D01*
X167176400Y-105968461D01*
X167136626Y-105768502D01*
X167058605Y-105580144D01*
X166945337Y-105410626D01*
X166801174Y-105266463D01*
X166631656Y-105153195D01*
X166443298Y-105075174D01*
X166243339Y-105035400D01*
X166039461Y-105035400D01*
X165839502Y-105075174D01*
X165651144Y-105153195D01*
X165481626Y-105266463D01*
X165337463Y-105410626D01*
X165224195Y-105580144D01*
X165146174Y-105768502D01*
X165106400Y-105968461D01*
X165106400Y-106172339D01*
X165146174Y-106372298D01*
X165224195Y-106560656D01*
X165337463Y-106730174D01*
X165481626Y-106874337D01*
X165539211Y-106912814D01*
X165456226Y-106968263D01*
X165312063Y-107112426D01*
X165198795Y-107281944D01*
X165120774Y-107470302D01*
X165081000Y-107670261D01*
X130523500Y-107670261D01*
X130527072Y-107634000D01*
X130524000Y-107219750D01*
X130365250Y-107061000D01*
X128016000Y-107061000D01*
X127762000Y-107061000D01*
X127742000Y-107061000D01*
X127742000Y-106807000D01*
X127762000Y-106807000D01*
X127762000Y-106787000D01*
X128016000Y-106787000D01*
X128016000Y-106807000D01*
X130365250Y-106807000D01*
X130524000Y-106648250D01*
X130527072Y-106234000D01*
X130514812Y-106109518D01*
X130478502Y-105989820D01*
X130419537Y-105879506D01*
X130340185Y-105782815D01*
X130243494Y-105703463D01*
X130169665Y-105664000D01*
X130243494Y-105624537D01*
X130340185Y-105545185D01*
X130419537Y-105448494D01*
X130478502Y-105338180D01*
X130514812Y-105218482D01*
X130527072Y-105094000D01*
X130527072Y-103694000D01*
X130514812Y-103569518D01*
X130478502Y-103449820D01*
X130419537Y-103339506D01*
X130340185Y-103242815D01*
X130243494Y-103163463D01*
X130169665Y-103124000D01*
X130243494Y-103084537D01*
X130340185Y-103005185D01*
X130419537Y-102908494D01*
X130478502Y-102798180D01*
X130514812Y-102678482D01*
X130527072Y-102554000D01*
X130527072Y-101154000D01*
X130514812Y-101029518D01*
X130478502Y-100909820D01*
X130419537Y-100799506D01*
X130340185Y-100702815D01*
X130243494Y-100623463D01*
X130169665Y-100584000D01*
X130243494Y-100544537D01*
X130340185Y-100465185D01*
X130419537Y-100368494D01*
X130478502Y-100258180D01*
X130514812Y-100138482D01*
X130521163Y-100074000D01*
X140373878Y-100074000D01*
X140411200Y-100077676D01*
X140448522Y-100074000D01*
X140448533Y-100074000D01*
X140560186Y-100063003D01*
X140703447Y-100019546D01*
X140835476Y-99948974D01*
X140951201Y-99854001D01*
X140975003Y-99824998D01*
X142250003Y-98550000D01*
X151572484Y-98550000D01*
X151565384Y-98585695D01*
X151565384Y-98769873D01*
X151601316Y-98950513D01*
X151671798Y-99120673D01*
X151740384Y-99223320D01*
X151740385Y-102425052D01*
X151736708Y-102462384D01*
X151737458Y-102470000D01*
X151586861Y-102470000D01*
X151386902Y-102509774D01*
X151198544Y-102587795D01*
X151029026Y-102701063D01*
X150884863Y-102845226D01*
X150771595Y-103014744D01*
X150693574Y-103203102D01*
X150653800Y-103403061D01*
X150653800Y-103606939D01*
X150693574Y-103806898D01*
X150771595Y-103995256D01*
X150884863Y-104164774D01*
X151029026Y-104308937D01*
X151198544Y-104422205D01*
X151386902Y-104500226D01*
X151586861Y-104540000D01*
X151648999Y-104540000D01*
X154096801Y-106987803D01*
X154120599Y-107016801D01*
X154236324Y-107111774D01*
X154368353Y-107182346D01*
X154511614Y-107225803D01*
X154623267Y-107236800D01*
X154623277Y-107236800D01*
X154644810Y-107238921D01*
X154686626Y-107280737D01*
X154856144Y-107394005D01*
X155044502Y-107472026D01*
X155244461Y-107511800D01*
X155448339Y-107511800D01*
X155648298Y-107472026D01*
X155836656Y-107394005D01*
X156006174Y-107280737D01*
X156150337Y-107136574D01*
X156263605Y-106967056D01*
X156341626Y-106778698D01*
X156381400Y-106578739D01*
X156381400Y-106374861D01*
X156341626Y-106174902D01*
X156263605Y-105986544D01*
X156150337Y-105817026D01*
X156138713Y-105805402D01*
X156225786Y-105675089D01*
X156296268Y-105504929D01*
X156332200Y-105324289D01*
X156332200Y-105140111D01*
X156296268Y-104959471D01*
X156225786Y-104789311D01*
X156123462Y-104636172D01*
X155993228Y-104505938D01*
X155840089Y-104403614D01*
X155669929Y-104333132D01*
X155489289Y-104297200D01*
X155410002Y-104297200D01*
X154769863Y-103657061D01*
X168256000Y-103657061D01*
X168256000Y-103860939D01*
X168295774Y-104060898D01*
X168373795Y-104249256D01*
X168487063Y-104418774D01*
X168631226Y-104562937D01*
X168800744Y-104676205D01*
X168989102Y-104754226D01*
X169189061Y-104794000D01*
X169392939Y-104794000D01*
X169592898Y-104754226D01*
X169781256Y-104676205D01*
X169950774Y-104562937D01*
X170094937Y-104418774D01*
X170208205Y-104249256D01*
X170286226Y-104060898D01*
X170326000Y-103860939D01*
X170326000Y-103784061D01*
X173590000Y-103784061D01*
X173590000Y-103987939D01*
X173629774Y-104187898D01*
X173707795Y-104376256D01*
X173821063Y-104545774D01*
X173965226Y-104689937D01*
X174134744Y-104803205D01*
X174323102Y-104881226D01*
X174523061Y-104921000D01*
X174726939Y-104921000D01*
X174926898Y-104881226D01*
X175115256Y-104803205D01*
X175284774Y-104689937D01*
X175428937Y-104545774D01*
X175542205Y-104376256D01*
X175620226Y-104187898D01*
X175660000Y-103987939D01*
X175660000Y-103784061D01*
X179178000Y-103784061D01*
X179178000Y-103987939D01*
X179217774Y-104187898D01*
X179295795Y-104376256D01*
X179409063Y-104545774D01*
X179553226Y-104689937D01*
X179722744Y-104803205D01*
X179911102Y-104881226D01*
X180111061Y-104921000D01*
X180314939Y-104921000D01*
X180514898Y-104881226D01*
X180703256Y-104803205D01*
X180872774Y-104689937D01*
X181016937Y-104545774D01*
X181130205Y-104376256D01*
X181208226Y-104187898D01*
X181248000Y-103987939D01*
X181248000Y-103784061D01*
X181208226Y-103584102D01*
X181130205Y-103395744D01*
X181016937Y-103226226D01*
X180872774Y-103082063D01*
X180703256Y-102968795D01*
X180514898Y-102890774D01*
X180314939Y-102851000D01*
X180111061Y-102851000D01*
X179911102Y-102890774D01*
X179722744Y-102968795D01*
X179553226Y-103082063D01*
X179409063Y-103226226D01*
X179295795Y-103395744D01*
X179217774Y-103584102D01*
X179178000Y-103784061D01*
X175660000Y-103784061D01*
X175620226Y-103584102D01*
X175542205Y-103395744D01*
X175428937Y-103226226D01*
X175284774Y-103082063D01*
X175115256Y-102968795D01*
X174926898Y-102890774D01*
X174726939Y-102851000D01*
X174523061Y-102851000D01*
X174323102Y-102890774D01*
X174134744Y-102968795D01*
X173965226Y-103082063D01*
X173821063Y-103226226D01*
X173707795Y-103395744D01*
X173629774Y-103584102D01*
X173590000Y-103784061D01*
X170326000Y-103784061D01*
X170326000Y-103657061D01*
X170286226Y-103457102D01*
X170208205Y-103268744D01*
X170094937Y-103099226D01*
X169950774Y-102955063D01*
X169781256Y-102841795D01*
X169592898Y-102763774D01*
X169392939Y-102724000D01*
X169189061Y-102724000D01*
X168989102Y-102763774D01*
X168800744Y-102841795D01*
X168631226Y-102955063D01*
X168487063Y-103099226D01*
X168373795Y-103268744D01*
X168295774Y-103457102D01*
X168256000Y-103657061D01*
X154769863Y-103657061D01*
X153778676Y-102665874D01*
X183058881Y-102665874D01*
X183138724Y-102888976D01*
X183260631Y-103076764D01*
X183416831Y-103237161D01*
X183601322Y-103364003D01*
X183807013Y-103452415D01*
X184026000Y-103499000D01*
X184576000Y-103499000D01*
X184576000Y-102491000D01*
X184830000Y-102491000D01*
X184830000Y-103499000D01*
X185380000Y-103499000D01*
X185598987Y-103452415D01*
X185804678Y-103364003D01*
X185989169Y-103237161D01*
X186145369Y-103076764D01*
X186267276Y-102888976D01*
X186347119Y-102665874D01*
X187488881Y-102665874D01*
X187568724Y-102888976D01*
X187690631Y-103076764D01*
X187846831Y-103237161D01*
X188031322Y-103364003D01*
X188237013Y-103452415D01*
X188456000Y-103499000D01*
X188756000Y-103499000D01*
X188756000Y-102491000D01*
X189010000Y-102491000D01*
X189010000Y-103499000D01*
X189310000Y-103499000D01*
X189528987Y-103452415D01*
X189734678Y-103364003D01*
X189919169Y-103237161D01*
X190075369Y-103076764D01*
X190197276Y-102888976D01*
X190277119Y-102665874D01*
X190150954Y-102491000D01*
X189010000Y-102491000D01*
X188756000Y-102491000D01*
X187615046Y-102491000D01*
X187488881Y-102665874D01*
X186347119Y-102665874D01*
X186220954Y-102491000D01*
X184830000Y-102491000D01*
X184576000Y-102491000D01*
X183185046Y-102491000D01*
X183058881Y-102665874D01*
X153778676Y-102665874D01*
X153260384Y-102147583D01*
X153260384Y-102062126D01*
X183058881Y-102062126D01*
X183185046Y-102237000D01*
X184576000Y-102237000D01*
X184576000Y-102217000D01*
X184830000Y-102217000D01*
X184830000Y-102237000D01*
X186220954Y-102237000D01*
X186347119Y-102062126D01*
X187488881Y-102062126D01*
X187615046Y-102237000D01*
X188756000Y-102237000D01*
X188756000Y-101229000D01*
X189010000Y-101229000D01*
X189010000Y-102237000D01*
X190150954Y-102237000D01*
X190277119Y-102062126D01*
X190197276Y-101839024D01*
X190075369Y-101651236D01*
X189919169Y-101490839D01*
X189734678Y-101363997D01*
X189528987Y-101275585D01*
X189310000Y-101229000D01*
X189010000Y-101229000D01*
X188756000Y-101229000D01*
X188456000Y-101229000D01*
X188237013Y-101275585D01*
X188031322Y-101363997D01*
X187846831Y-101490839D01*
X187690631Y-101651236D01*
X187568724Y-101839024D01*
X187488881Y-102062126D01*
X186347119Y-102062126D01*
X186267276Y-101839024D01*
X186145369Y-101651236D01*
X186004794Y-101506884D01*
X186083741Y-101388731D01*
X186156108Y-101214022D01*
X186193000Y-101028552D01*
X186193000Y-100839448D01*
X186156108Y-100653978D01*
X186083741Y-100479269D01*
X185978681Y-100322036D01*
X185844964Y-100188319D01*
X185687731Y-100083259D01*
X185513022Y-100010892D01*
X185327552Y-99974000D01*
X185138448Y-99974000D01*
X184952978Y-100010892D01*
X184778269Y-100083259D01*
X184621036Y-100188319D01*
X184487319Y-100322036D01*
X184382259Y-100479269D01*
X184309892Y-100653978D01*
X184273000Y-100839448D01*
X184273000Y-101028552D01*
X184309892Y-101214022D01*
X184316096Y-101229000D01*
X184026000Y-101229000D01*
X183807013Y-101275585D01*
X183601322Y-101363997D01*
X183416831Y-101490839D01*
X183260631Y-101651236D01*
X183138724Y-101839024D01*
X183058881Y-102062126D01*
X153260384Y-102062126D01*
X153260384Y-100694061D01*
X153441061Y-100730000D01*
X153644939Y-100730000D01*
X153844898Y-100690226D01*
X154033256Y-100612205D01*
X154202774Y-100498937D01*
X154346937Y-100354774D01*
X154413000Y-100255903D01*
X154413000Y-100431939D01*
X154452774Y-100631898D01*
X154530795Y-100820256D01*
X154644063Y-100989774D01*
X154788226Y-101133937D01*
X154957744Y-101247205D01*
X155146102Y-101325226D01*
X155346061Y-101365000D01*
X155549939Y-101365000D01*
X155749898Y-101325226D01*
X155938256Y-101247205D01*
X156107774Y-101133937D01*
X156251937Y-100989774D01*
X156365205Y-100820256D01*
X156443226Y-100631898D01*
X156483000Y-100431939D01*
X156483000Y-100228061D01*
X156443226Y-100028102D01*
X156365205Y-99839744D01*
X156285236Y-99720061D01*
X161652000Y-99720061D01*
X161652000Y-99923939D01*
X161691774Y-100123898D01*
X161769795Y-100312256D01*
X161883063Y-100481774D01*
X162027226Y-100625937D01*
X162196744Y-100739205D01*
X162385102Y-100817226D01*
X162585061Y-100857000D01*
X162788939Y-100857000D01*
X162988898Y-100817226D01*
X163177256Y-100739205D01*
X163346774Y-100625937D01*
X163490937Y-100481774D01*
X163604205Y-100312256D01*
X163682226Y-100123898D01*
X163722000Y-99923939D01*
X163722000Y-99847061D01*
X164446000Y-99847061D01*
X164446000Y-100050939D01*
X164485774Y-100250898D01*
X164563795Y-100439256D01*
X164677063Y-100608774D01*
X164821226Y-100752937D01*
X164990744Y-100866205D01*
X165179102Y-100944226D01*
X165379061Y-100984000D01*
X165582939Y-100984000D01*
X165782898Y-100944226D01*
X165971256Y-100866205D01*
X166140774Y-100752937D01*
X166284937Y-100608774D01*
X166398205Y-100439256D01*
X166476226Y-100250898D01*
X166516000Y-100050939D01*
X166516000Y-99847061D01*
X166476226Y-99647102D01*
X166398205Y-99458744D01*
X166284937Y-99289226D01*
X166140774Y-99145063D01*
X165971256Y-99031795D01*
X165793248Y-98958061D01*
X175749000Y-98958061D01*
X175749000Y-99161939D01*
X175788774Y-99361898D01*
X175866795Y-99550256D01*
X175980063Y-99719774D01*
X176124226Y-99863937D01*
X176293744Y-99977205D01*
X176482102Y-100055226D01*
X176682061Y-100095000D01*
X176885939Y-100095000D01*
X177085898Y-100055226D01*
X177274256Y-99977205D01*
X177443774Y-99863937D01*
X177587937Y-99719774D01*
X177701205Y-99550256D01*
X177779226Y-99361898D01*
X177819000Y-99161939D01*
X177819000Y-98958061D01*
X177779226Y-98758102D01*
X177701205Y-98569744D01*
X177587937Y-98400226D01*
X177443774Y-98256063D01*
X177274256Y-98142795D01*
X177085898Y-98064774D01*
X176885939Y-98025000D01*
X176682061Y-98025000D01*
X176482102Y-98064774D01*
X176293744Y-98142795D01*
X176124226Y-98256063D01*
X175980063Y-98400226D01*
X175866795Y-98569744D01*
X175788774Y-98758102D01*
X175749000Y-98958061D01*
X165793248Y-98958061D01*
X165782898Y-98953774D01*
X165582939Y-98914000D01*
X165379061Y-98914000D01*
X165179102Y-98953774D01*
X164990744Y-99031795D01*
X164821226Y-99145063D01*
X164677063Y-99289226D01*
X164563795Y-99458744D01*
X164485774Y-99647102D01*
X164446000Y-99847061D01*
X163722000Y-99847061D01*
X163722000Y-99720061D01*
X163682226Y-99520102D01*
X163604205Y-99331744D01*
X163490937Y-99162226D01*
X163346774Y-99018063D01*
X163177256Y-98904795D01*
X162988898Y-98826774D01*
X162788939Y-98787000D01*
X162585061Y-98787000D01*
X162385102Y-98826774D01*
X162196744Y-98904795D01*
X162027226Y-99018063D01*
X161883063Y-99162226D01*
X161769795Y-99331744D01*
X161691774Y-99520102D01*
X161652000Y-99720061D01*
X156285236Y-99720061D01*
X156251937Y-99670226D01*
X156107774Y-99526063D01*
X155938256Y-99412795D01*
X155749898Y-99334774D01*
X155549939Y-99295000D01*
X155346061Y-99295000D01*
X155146102Y-99334774D01*
X154957744Y-99412795D01*
X154788226Y-99526063D01*
X154644063Y-99670226D01*
X154578000Y-99769097D01*
X154578000Y-99593061D01*
X154538226Y-99393102D01*
X154460205Y-99204744D01*
X154346937Y-99035226D01*
X154202774Y-98891063D01*
X154033256Y-98777795D01*
X153844898Y-98699774D01*
X153644939Y-98660000D01*
X153441061Y-98660000D01*
X153435384Y-98661129D01*
X153435384Y-98585695D01*
X153428284Y-98550000D01*
X157975865Y-98550000D01*
X158078511Y-98618586D01*
X158248671Y-98689068D01*
X158429311Y-98725000D01*
X158613489Y-98725000D01*
X158794129Y-98689068D01*
X158964289Y-98618586D01*
X159117428Y-98516262D01*
X159247662Y-98386028D01*
X159349986Y-98232889D01*
X159420468Y-98062729D01*
X159456400Y-97882089D01*
X159456400Y-97697911D01*
X159420468Y-97517271D01*
X159349986Y-97347111D01*
X159247662Y-97193972D01*
X159117428Y-97063738D01*
X158964289Y-96961414D01*
X158794129Y-96890932D01*
X158613489Y-96855000D01*
X158429311Y-96855000D01*
X158248671Y-96890932D01*
X158078511Y-96961414D01*
X157975865Y-97030000D01*
X141972522Y-97030000D01*
X141935199Y-97026324D01*
X141897876Y-97030000D01*
X141897867Y-97030000D01*
X141786214Y-97040997D01*
X141642953Y-97084454D01*
X141510924Y-97155026D01*
X141510922Y-97155027D01*
X141510923Y-97155027D01*
X141424196Y-97226201D01*
X141424192Y-97226205D01*
X141395199Y-97249999D01*
X141371405Y-97278992D01*
X140096399Y-98554000D01*
X130521163Y-98554000D01*
X130514812Y-98489518D01*
X130478502Y-98369820D01*
X130419537Y-98259506D01*
X130340185Y-98162815D01*
X130243494Y-98083463D01*
X130169665Y-98044000D01*
X130243494Y-98004537D01*
X130340185Y-97925185D01*
X130419537Y-97828494D01*
X130478502Y-97718180D01*
X130514812Y-97598482D01*
X130521163Y-97534000D01*
X132728478Y-97534000D01*
X132765800Y-97537676D01*
X132803122Y-97534000D01*
X132803133Y-97534000D01*
X132914786Y-97523003D01*
X133058047Y-97479546D01*
X133190076Y-97408974D01*
X133305801Y-97314001D01*
X133329604Y-97284997D01*
X134614602Y-96000000D01*
X157150666Y-96000000D01*
X157253312Y-96068586D01*
X157423472Y-96139068D01*
X157604112Y-96175000D01*
X157788290Y-96175000D01*
X157968930Y-96139068D01*
X158139090Y-96068586D01*
X158292229Y-95966262D01*
X158422463Y-95836028D01*
X158524787Y-95682889D01*
X158581370Y-95546284D01*
X158743329Y-95514068D01*
X158913489Y-95443586D01*
X159066628Y-95341262D01*
X159196862Y-95211028D01*
X159299186Y-95057889D01*
X159369668Y-94887729D01*
X159405600Y-94707089D01*
X159405600Y-94522911D01*
X159369668Y-94342271D01*
X159308082Y-94193589D01*
X159324586Y-94168889D01*
X159365503Y-94070105D01*
X160748785Y-95453387D01*
X160652195Y-95597944D01*
X160574174Y-95786302D01*
X160534400Y-95986261D01*
X160534400Y-96190139D01*
X160574174Y-96390098D01*
X160652195Y-96578456D01*
X160765463Y-96747974D01*
X160909626Y-96892137D01*
X161079144Y-97005405D01*
X161267502Y-97083426D01*
X161467461Y-97123200D01*
X161671339Y-97123200D01*
X161871298Y-97083426D01*
X162059656Y-97005405D01*
X162229174Y-96892137D01*
X162373337Y-96747974D01*
X162486605Y-96578456D01*
X162564626Y-96390098D01*
X162604400Y-96190139D01*
X162604400Y-95986261D01*
X162564626Y-95786302D01*
X162486605Y-95597944D01*
X162373337Y-95428426D01*
X162329400Y-95384489D01*
X162329400Y-95236523D01*
X162333076Y-95199200D01*
X162329400Y-95161877D01*
X162329400Y-95161867D01*
X162318403Y-95050214D01*
X162309560Y-95021061D01*
X165589000Y-95021061D01*
X165589000Y-95224939D01*
X165628774Y-95424898D01*
X165706795Y-95613256D01*
X165820063Y-95782774D01*
X165964226Y-95926937D01*
X166133744Y-96040205D01*
X166322102Y-96118226D01*
X166522061Y-96158000D01*
X166725939Y-96158000D01*
X166925898Y-96118226D01*
X167114256Y-96040205D01*
X167283774Y-95926937D01*
X167427937Y-95782774D01*
X167541205Y-95613256D01*
X167619226Y-95424898D01*
X167659000Y-95224939D01*
X167659000Y-95021061D01*
X167619226Y-94821102D01*
X167541205Y-94632744D01*
X167461236Y-94513061D01*
X173463000Y-94513061D01*
X173463000Y-94716939D01*
X173502774Y-94916898D01*
X173580795Y-95105256D01*
X173694063Y-95274774D01*
X173838226Y-95418937D01*
X174007744Y-95532205D01*
X174196102Y-95610226D01*
X174396061Y-95650000D01*
X174599939Y-95650000D01*
X174799898Y-95610226D01*
X174988256Y-95532205D01*
X175157774Y-95418937D01*
X175301937Y-95274774D01*
X175415205Y-95105256D01*
X175493226Y-94916898D01*
X175533000Y-94716939D01*
X175533000Y-94513061D01*
X175493226Y-94313102D01*
X175415205Y-94124744D01*
X175349143Y-94025874D01*
X183058881Y-94025874D01*
X183138724Y-94248976D01*
X183260631Y-94436764D01*
X183416831Y-94597161D01*
X183601322Y-94724003D01*
X183807013Y-94812415D01*
X184026000Y-94859000D01*
X184316096Y-94859000D01*
X184309892Y-94873978D01*
X184273000Y-95059448D01*
X184273000Y-95248552D01*
X184309892Y-95434022D01*
X184382259Y-95608731D01*
X184487319Y-95765964D01*
X184621036Y-95899681D01*
X184778269Y-96004741D01*
X184952978Y-96077108D01*
X185138448Y-96114000D01*
X185327552Y-96114000D01*
X185513022Y-96077108D01*
X185687731Y-96004741D01*
X185844964Y-95899681D01*
X185978681Y-95765964D01*
X186083741Y-95608731D01*
X186156108Y-95434022D01*
X186193000Y-95248552D01*
X186193000Y-95059448D01*
X186156108Y-94873978D01*
X186083741Y-94699269D01*
X186004794Y-94581116D01*
X186145369Y-94436764D01*
X186267276Y-94248976D01*
X186347119Y-94025874D01*
X187488881Y-94025874D01*
X187568724Y-94248976D01*
X187690631Y-94436764D01*
X187846831Y-94597161D01*
X188031322Y-94724003D01*
X188237013Y-94812415D01*
X188456000Y-94859000D01*
X188756000Y-94859000D01*
X188756000Y-93851000D01*
X189010000Y-93851000D01*
X189010000Y-94859000D01*
X189310000Y-94859000D01*
X189528987Y-94812415D01*
X189734678Y-94724003D01*
X189919169Y-94597161D01*
X190075369Y-94436764D01*
X190197276Y-94248976D01*
X190277119Y-94025874D01*
X190150954Y-93851000D01*
X189010000Y-93851000D01*
X188756000Y-93851000D01*
X187615046Y-93851000D01*
X187488881Y-94025874D01*
X186347119Y-94025874D01*
X186220954Y-93851000D01*
X184830000Y-93851000D01*
X184830000Y-93871000D01*
X184576000Y-93871000D01*
X184576000Y-93851000D01*
X183185046Y-93851000D01*
X183058881Y-94025874D01*
X175349143Y-94025874D01*
X175301937Y-93955226D01*
X175157774Y-93811063D01*
X174988256Y-93697795D01*
X174799898Y-93619774D01*
X174599939Y-93580000D01*
X174396061Y-93580000D01*
X174196102Y-93619774D01*
X174007744Y-93697795D01*
X173838226Y-93811063D01*
X173694063Y-93955226D01*
X173580795Y-94124744D01*
X173502774Y-94313102D01*
X173463000Y-94513061D01*
X167461236Y-94513061D01*
X167427937Y-94463226D01*
X167283774Y-94319063D01*
X167114256Y-94205795D01*
X166925898Y-94127774D01*
X166725939Y-94088000D01*
X166522061Y-94088000D01*
X166322102Y-94127774D01*
X166133744Y-94205795D01*
X165964226Y-94319063D01*
X165820063Y-94463226D01*
X165706795Y-94632744D01*
X165628774Y-94821102D01*
X165589000Y-95021061D01*
X162309560Y-95021061D01*
X162274946Y-94906953D01*
X162229057Y-94821102D01*
X162204374Y-94774923D01*
X162133199Y-94688197D01*
X162109401Y-94659199D01*
X162080403Y-94635401D01*
X160867128Y-93422126D01*
X183058881Y-93422126D01*
X183185046Y-93597000D01*
X184576000Y-93597000D01*
X184576000Y-92589000D01*
X184830000Y-92589000D01*
X184830000Y-93597000D01*
X186220954Y-93597000D01*
X186347119Y-93422126D01*
X187488881Y-93422126D01*
X187615046Y-93597000D01*
X188756000Y-93597000D01*
X188756000Y-92589000D01*
X189010000Y-92589000D01*
X189010000Y-93597000D01*
X190150954Y-93597000D01*
X190277119Y-93422126D01*
X190197276Y-93199024D01*
X190075369Y-93011236D01*
X189919169Y-92850839D01*
X189734678Y-92723997D01*
X189528987Y-92635585D01*
X189310000Y-92589000D01*
X189010000Y-92589000D01*
X188756000Y-92589000D01*
X188456000Y-92589000D01*
X188237013Y-92635585D01*
X188031322Y-92723997D01*
X187846831Y-92850839D01*
X187690631Y-93011236D01*
X187568724Y-93199024D01*
X187488881Y-93422126D01*
X186347119Y-93422126D01*
X186267276Y-93199024D01*
X186145369Y-93011236D01*
X185989169Y-92850839D01*
X185804678Y-92723997D01*
X185598987Y-92635585D01*
X185380000Y-92589000D01*
X184830000Y-92589000D01*
X184576000Y-92589000D01*
X184026000Y-92589000D01*
X183807013Y-92635585D01*
X183601322Y-92723997D01*
X183416831Y-92850839D01*
X183260631Y-93011236D01*
X183138724Y-93199024D01*
X183058881Y-93422126D01*
X160867128Y-93422126D01*
X160682002Y-93237000D01*
X160883939Y-93237000D01*
X161083898Y-93197226D01*
X161272256Y-93119205D01*
X161441774Y-93005937D01*
X161585937Y-92861774D01*
X161699205Y-92692256D01*
X161777226Y-92503898D01*
X161817000Y-92303939D01*
X161817000Y-92100061D01*
X161777226Y-91900102D01*
X161699205Y-91711744D01*
X161585937Y-91542226D01*
X161441774Y-91398063D01*
X161272256Y-91284795D01*
X161083898Y-91206774D01*
X160883939Y-91167000D01*
X160680061Y-91167000D01*
X160480102Y-91206774D01*
X160291744Y-91284795D01*
X160122226Y-91398063D01*
X159978063Y-91542226D01*
X159864795Y-91711744D01*
X159786774Y-91900102D01*
X159747000Y-92100061D01*
X159747000Y-92301998D01*
X154970404Y-87525403D01*
X154946601Y-87496399D01*
X154830876Y-87401426D01*
X154698847Y-87330854D01*
X154555586Y-87287397D01*
X154443933Y-87276400D01*
X154443922Y-87276400D01*
X154406600Y-87272724D01*
X154369278Y-87276400D01*
X152132735Y-87276400D01*
X152030089Y-87207814D01*
X151859929Y-87137332D01*
X151679289Y-87101400D01*
X151495111Y-87101400D01*
X151314471Y-87137332D01*
X151144311Y-87207814D01*
X150991172Y-87310138D01*
X150860938Y-87440372D01*
X150758614Y-87593511D01*
X150688132Y-87763671D01*
X150652200Y-87944311D01*
X150652200Y-88128489D01*
X150688132Y-88309129D01*
X150758614Y-88479289D01*
X150827201Y-88581937D01*
X150827200Y-92139064D01*
X150758614Y-92241711D01*
X150688132Y-92411871D01*
X150652200Y-92592511D01*
X150652200Y-92635800D01*
X142751513Y-92635800D01*
X142767000Y-92557939D01*
X142767000Y-92354061D01*
X142727226Y-92154102D01*
X142649205Y-91965744D01*
X142535937Y-91796226D01*
X142391774Y-91652063D01*
X142222256Y-91538795D01*
X142033898Y-91460774D01*
X141833939Y-91421000D01*
X141630061Y-91421000D01*
X141430102Y-91460774D01*
X141241744Y-91538795D01*
X141072226Y-91652063D01*
X140928063Y-91796226D01*
X140814795Y-91965744D01*
X140736774Y-92154102D01*
X140697000Y-92354061D01*
X140697000Y-92557939D01*
X140712487Y-92635800D01*
X134695602Y-92635800D01*
X130702804Y-88643003D01*
X130679001Y-88613999D01*
X130563276Y-88519026D01*
X130527072Y-88499674D01*
X130527072Y-88454000D01*
X130514812Y-88329518D01*
X130478502Y-88209820D01*
X130419537Y-88099506D01*
X130340185Y-88002815D01*
X130243494Y-87923463D01*
X130133180Y-87864498D01*
X130013482Y-87828188D01*
X129889000Y-87815928D01*
X126338000Y-87815928D01*
X126338000Y-87528061D01*
X139427000Y-87528061D01*
X139427000Y-87731939D01*
X139466774Y-87931898D01*
X139544795Y-88120256D01*
X139658063Y-88289774D01*
X139802226Y-88433937D01*
X139971744Y-88547205D01*
X140160102Y-88625226D01*
X140360061Y-88665000D01*
X140563939Y-88665000D01*
X140763898Y-88625226D01*
X140952256Y-88547205D01*
X141121774Y-88433937D01*
X141265937Y-88289774D01*
X141379205Y-88120256D01*
X141457226Y-87931898D01*
X141497000Y-87731939D01*
X141497000Y-87528061D01*
X141457226Y-87328102D01*
X141379205Y-87139744D01*
X141265937Y-86970226D01*
X141121774Y-86826063D01*
X140952256Y-86712795D01*
X140763898Y-86634774D01*
X140563939Y-86595000D01*
X140360061Y-86595000D01*
X140160102Y-86634774D01*
X139971744Y-86712795D01*
X139802226Y-86826063D01*
X139658063Y-86970226D01*
X139544795Y-87139744D01*
X139466774Y-87328102D01*
X139427000Y-87528061D01*
X126338000Y-87528061D01*
X126338000Y-86079000D01*
X190908001Y-86079000D01*
X190908000Y-110009000D01*
%TD*%
M02*
