M48
; DRILL file {KiCad (5.1.6)-1} date 08/19/20 15:06:28
; FORMAT={-:-/ absolute / inch / decimal}
; #@! TF.CreationDate,2020-08-19T15:06:28+08:00
; #@! TF.GenerationSoftware,Kicad,Pcbnew,(5.1.6)-1
; #@! TF.FileFunction,Plated,1,4,PTH
FMAT,2
INCH
T1C0.0118
T2C0.0157
T3C0.0236
%
G90
G05
T1
X5.036Y-4.271
X5.307Y-4.184
X5.352Y-4.129
X5.424Y-3.641
X5.646Y-3.6524
X5.671Y-4.13
X5.725Y-4.122
X5.726Y-4.197
X5.777Y-3.447
X5.968Y-3.466
X5.968Y-3.649
X6.004Y-3.885
X6.115Y-4.097
X6.118Y-4.143
X6.161Y-4.04
X6.2085Y-3.7496
X6.218Y-3.649
X6.239Y-3.725
X6.24Y-3.69
X6.241Y-3.85
X6.26Y-3.952
X6.316Y-4.164
X6.405Y-3.725
X6.417Y-4.168
X6.456Y-4.037
X6.562Y-3.939
X6.574Y-3.88
X6.574Y-3.88
X6.696Y-3.756
X6.853Y-3.857
X6.865Y-3.676
X6.867Y-3.766
X6.957Y-3.856
X6.996Y-3.766
X7.002Y-3.916
X7.015Y-4.233
X7.039Y-4.013
X7.095Y-4.137
X7.172Y-3.988
X7.182Y-3.73
T2
X5.146Y-4.26
X5.147Y-3.9815
X5.53Y-3.45
X5.58Y-3.64
X5.829Y-4.175
X5.972Y-4.075
X6.045Y-3.925
X6.116Y-4.192
X6.12Y-3.95
X6.33Y-3.63
X6.361Y-3.783
X6.405Y-3.93
X6.515Y-3.935
X6.54Y-4.243
X6.541Y-4.176
X6.56Y-3.745
X6.665Y-4.085
X6.702Y-4.297
X6.728Y-4.015
X6.87Y-3.725
X6.875Y-4.09
X6.96Y-3.9
X7.095Y-4.09
T3
G00X7.2501Y-3.6899
M15
G01X7.2934Y-3.6899
M16
G05
G00X7.2501Y-4.0301
M15
G01X7.2934Y-4.0301
M16
G05
G00X7.4245Y-3.6899
M15
G01X7.4481Y-3.6899
M16
G05
G00X7.4245Y-4.0301
M15
G01X7.4481Y-4.0301
M16
G05
T0
M30
