%TF.GenerationSoftware,KiCad,Pcbnew,(5.1.6)-1*%
%TF.CreationDate,2020-08-19T15:06:30+08:00*%
%TF.ProjectId,sl_v2,736c5f76-322e-46b6-9963-61645f706362,rev?*%
%TF.SameCoordinates,Original*%
%TF.FileFunction,Paste,Top*%
%TF.FilePolarity,Positive*%
%FSLAX46Y46*%
G04 Gerber Fmt 4.6, Leading zero omitted, Abs format (unit mm)*
G04 Created by KiCad (PCBNEW (5.1.6)-1) date 2020-08-19 15:06:30*
%MOMM*%
%LPD*%
G01*
G04 APERTURE LIST*
%ADD10R,4.000000X1.400000*%
%ADD11R,0.650000X0.400000*%
%ADD12R,1.450000X0.300000*%
%ADD13R,1.450000X0.600000*%
%ADD14R,0.900000X0.800000*%
%ADD15R,1.220000X0.650000*%
%ADD16R,1.060000X0.650000*%
%ADD17R,1.000000X0.900000*%
G04 APERTURE END LIST*
D10*
%TO.C,J2*%
X127889000Y-89154000D03*
X127889000Y-91694000D03*
X127889000Y-94234000D03*
X127889000Y-96774000D03*
X127889000Y-99314000D03*
X127889000Y-101854000D03*
X127889000Y-104394000D03*
X127889000Y-106934000D03*
%TD*%
%TO.C,C2*%
G36*
G01*
X143126750Y-105709100D02*
X143639250Y-105709100D01*
G75*
G02*
X143858000Y-105927850I0J-218750D01*
G01*
X143858000Y-106365350D01*
G75*
G02*
X143639250Y-106584100I-218750J0D01*
G01*
X143126750Y-106584100D01*
G75*
G02*
X142908000Y-106365350I0J218750D01*
G01*
X142908000Y-105927850D01*
G75*
G02*
X143126750Y-105709100I218750J0D01*
G01*
G37*
G36*
G01*
X143126750Y-107284100D02*
X143639250Y-107284100D01*
G75*
G02*
X143858000Y-107502850I0J-218750D01*
G01*
X143858000Y-107940350D01*
G75*
G02*
X143639250Y-108159100I-218750J0D01*
G01*
X143126750Y-108159100D01*
G75*
G02*
X142908000Y-107940350I0J218750D01*
G01*
X142908000Y-107502850D01*
G75*
G02*
X143126750Y-107284100I218750J0D01*
G01*
G37*
%TD*%
%TO.C,R15*%
G36*
G01*
X174003200Y-108945900D02*
X174003200Y-109290900D01*
G75*
G02*
X173855700Y-109438400I-147500J0D01*
G01*
X173560700Y-109438400D01*
G75*
G02*
X173413200Y-109290900I0J147500D01*
G01*
X173413200Y-108945900D01*
G75*
G02*
X173560700Y-108798400I147500J0D01*
G01*
X173855700Y-108798400D01*
G75*
G02*
X174003200Y-108945900I0J-147500D01*
G01*
G37*
G36*
G01*
X174973200Y-108945900D02*
X174973200Y-109290900D01*
G75*
G02*
X174825700Y-109438400I-147500J0D01*
G01*
X174530700Y-109438400D01*
G75*
G02*
X174383200Y-109290900I0J147500D01*
G01*
X174383200Y-108945900D01*
G75*
G02*
X174530700Y-108798400I147500J0D01*
G01*
X174825700Y-108798400D01*
G75*
G02*
X174973200Y-108945900I0J-147500D01*
G01*
G37*
%TD*%
%TO.C,R22*%
G36*
G01*
X168473200Y-106177300D02*
X168473200Y-106522300D01*
G75*
G02*
X168325700Y-106669800I-147500J0D01*
G01*
X168030700Y-106669800D01*
G75*
G02*
X167883200Y-106522300I0J147500D01*
G01*
X167883200Y-106177300D01*
G75*
G02*
X168030700Y-106029800I147500J0D01*
G01*
X168325700Y-106029800D01*
G75*
G02*
X168473200Y-106177300I0J-147500D01*
G01*
G37*
G36*
G01*
X167503200Y-106177300D02*
X167503200Y-106522300D01*
G75*
G02*
X167355700Y-106669800I-147500J0D01*
G01*
X167060700Y-106669800D01*
G75*
G02*
X166913200Y-106522300I0J147500D01*
G01*
X166913200Y-106177300D01*
G75*
G02*
X167060700Y-106029800I147500J0D01*
G01*
X167355700Y-106029800D01*
G75*
G02*
X167503200Y-106177300I0J-147500D01*
G01*
G37*
%TD*%
%TO.C,C10*%
G36*
G01*
X160736500Y-103588600D02*
X161081500Y-103588600D01*
G75*
G02*
X161229000Y-103736100I0J-147500D01*
G01*
X161229000Y-104031100D01*
G75*
G02*
X161081500Y-104178600I-147500J0D01*
G01*
X160736500Y-104178600D01*
G75*
G02*
X160589000Y-104031100I0J147500D01*
G01*
X160589000Y-103736100D01*
G75*
G02*
X160736500Y-103588600I147500J0D01*
G01*
G37*
G36*
G01*
X160736500Y-104558600D02*
X161081500Y-104558600D01*
G75*
G02*
X161229000Y-104706100I0J-147500D01*
G01*
X161229000Y-105001100D01*
G75*
G02*
X161081500Y-105148600I-147500J0D01*
G01*
X160736500Y-105148600D01*
G75*
G02*
X160589000Y-105001100I0J147500D01*
G01*
X160589000Y-104706100D01*
G75*
G02*
X160736500Y-104558600I147500J0D01*
G01*
G37*
%TD*%
D11*
%TO.C,U4*%
X136794200Y-93177600D03*
X136794200Y-94477600D03*
X136794200Y-93827600D03*
X138694200Y-94477600D03*
X138694200Y-93177600D03*
%TD*%
%TO.C,L3*%
G36*
G01*
X140498200Y-93020100D02*
X140498200Y-93365100D01*
G75*
G02*
X140350700Y-93512600I-147500J0D01*
G01*
X140055700Y-93512600D01*
G75*
G02*
X139908200Y-93365100I0J147500D01*
G01*
X139908200Y-93020100D01*
G75*
G02*
X140055700Y-92872600I147500J0D01*
G01*
X140350700Y-92872600D01*
G75*
G02*
X140498200Y-93020100I0J-147500D01*
G01*
G37*
G36*
G01*
X141468200Y-93020100D02*
X141468200Y-93365100D01*
G75*
G02*
X141320700Y-93512600I-147500J0D01*
G01*
X141025700Y-93512600D01*
G75*
G02*
X140878200Y-93365100I0J147500D01*
G01*
X140878200Y-93020100D01*
G75*
G02*
X141025700Y-92872600I147500J0D01*
G01*
X141320700Y-92872600D01*
G75*
G02*
X141468200Y-93020100I0J-147500D01*
G01*
G37*
%TD*%
%TO.C,C15*%
G36*
G01*
X140878200Y-94635100D02*
X140878200Y-94290100D01*
G75*
G02*
X141025700Y-94142600I147500J0D01*
G01*
X141320700Y-94142600D01*
G75*
G02*
X141468200Y-94290100I0J-147500D01*
G01*
X141468200Y-94635100D01*
G75*
G02*
X141320700Y-94782600I-147500J0D01*
G01*
X141025700Y-94782600D01*
G75*
G02*
X140878200Y-94635100I0J147500D01*
G01*
G37*
G36*
G01*
X139908200Y-94635100D02*
X139908200Y-94290100D01*
G75*
G02*
X140055700Y-94142600I147500J0D01*
G01*
X140350700Y-94142600D01*
G75*
G02*
X140498200Y-94290100I0J-147500D01*
G01*
X140498200Y-94635100D01*
G75*
G02*
X140350700Y-94782600I-147500J0D01*
G01*
X140055700Y-94782600D01*
G75*
G02*
X139908200Y-94635100I0J147500D01*
G01*
G37*
%TD*%
%TO.C,C1*%
G36*
G01*
X144215900Y-88641000D02*
X143870900Y-88641000D01*
G75*
G02*
X143723400Y-88493500I0J147500D01*
G01*
X143723400Y-88198500D01*
G75*
G02*
X143870900Y-88051000I147500J0D01*
G01*
X144215900Y-88051000D01*
G75*
G02*
X144363400Y-88198500I0J-147500D01*
G01*
X144363400Y-88493500D01*
G75*
G02*
X144215900Y-88641000I-147500J0D01*
G01*
G37*
G36*
G01*
X144215900Y-87671000D02*
X143870900Y-87671000D01*
G75*
G02*
X143723400Y-87523500I0J147500D01*
G01*
X143723400Y-87228500D01*
G75*
G02*
X143870900Y-87081000I147500J0D01*
G01*
X144215900Y-87081000D01*
G75*
G02*
X144363400Y-87228500I0J-147500D01*
G01*
X144363400Y-87523500D01*
G75*
G02*
X144215900Y-87671000I-147500J0D01*
G01*
G37*
%TD*%
%TO.C,C3*%
G36*
G01*
X162524800Y-91242100D02*
X162524800Y-91587100D01*
G75*
G02*
X162377300Y-91734600I-147500J0D01*
G01*
X162082300Y-91734600D01*
G75*
G02*
X161934800Y-91587100I0J147500D01*
G01*
X161934800Y-91242100D01*
G75*
G02*
X162082300Y-91094600I147500J0D01*
G01*
X162377300Y-91094600D01*
G75*
G02*
X162524800Y-91242100I0J-147500D01*
G01*
G37*
G36*
G01*
X161554800Y-91242100D02*
X161554800Y-91587100D01*
G75*
G02*
X161407300Y-91734600I-147500J0D01*
G01*
X161112300Y-91734600D01*
G75*
G02*
X160964800Y-91587100I0J147500D01*
G01*
X160964800Y-91242100D01*
G75*
G02*
X161112300Y-91094600I147500J0D01*
G01*
X161407300Y-91094600D01*
G75*
G02*
X161554800Y-91242100I0J-147500D01*
G01*
G37*
%TD*%
%TO.C,C4*%
G36*
G01*
X137120000Y-103459500D02*
X137120000Y-103804500D01*
G75*
G02*
X136972500Y-103952000I-147500J0D01*
G01*
X136677500Y-103952000D01*
G75*
G02*
X136530000Y-103804500I0J147500D01*
G01*
X136530000Y-103459500D01*
G75*
G02*
X136677500Y-103312000I147500J0D01*
G01*
X136972500Y-103312000D01*
G75*
G02*
X137120000Y-103459500I0J-147500D01*
G01*
G37*
G36*
G01*
X138090000Y-103459500D02*
X138090000Y-103804500D01*
G75*
G02*
X137942500Y-103952000I-147500J0D01*
G01*
X137647500Y-103952000D01*
G75*
G02*
X137500000Y-103804500I0J147500D01*
G01*
X137500000Y-103459500D01*
G75*
G02*
X137647500Y-103312000I147500J0D01*
G01*
X137942500Y-103312000D01*
G75*
G02*
X138090000Y-103459500I0J-147500D01*
G01*
G37*
%TD*%
%TO.C,C5*%
G36*
G01*
X137978500Y-106042750D02*
X137978500Y-106555250D01*
G75*
G02*
X137759750Y-106774000I-218750J0D01*
G01*
X137322250Y-106774000D01*
G75*
G02*
X137103500Y-106555250I0J218750D01*
G01*
X137103500Y-106042750D01*
G75*
G02*
X137322250Y-105824000I218750J0D01*
G01*
X137759750Y-105824000D01*
G75*
G02*
X137978500Y-106042750I0J-218750D01*
G01*
G37*
G36*
G01*
X136403500Y-106042750D02*
X136403500Y-106555250D01*
G75*
G02*
X136184750Y-106774000I-218750J0D01*
G01*
X135747250Y-106774000D01*
G75*
G02*
X135528500Y-106555250I0J218750D01*
G01*
X135528500Y-106042750D01*
G75*
G02*
X135747250Y-105824000I218750J0D01*
G01*
X136184750Y-105824000D01*
G75*
G02*
X136403500Y-106042750I0J-218750D01*
G01*
G37*
%TD*%
%TO.C,C6*%
G36*
G01*
X138090000Y-104729500D02*
X138090000Y-105074500D01*
G75*
G02*
X137942500Y-105222000I-147500J0D01*
G01*
X137647500Y-105222000D01*
G75*
G02*
X137500000Y-105074500I0J147500D01*
G01*
X137500000Y-104729500D01*
G75*
G02*
X137647500Y-104582000I147500J0D01*
G01*
X137942500Y-104582000D01*
G75*
G02*
X138090000Y-104729500I0J-147500D01*
G01*
G37*
G36*
G01*
X137120000Y-104729500D02*
X137120000Y-105074500D01*
G75*
G02*
X136972500Y-105222000I-147500J0D01*
G01*
X136677500Y-105222000D01*
G75*
G02*
X136530000Y-105074500I0J147500D01*
G01*
X136530000Y-104729500D01*
G75*
G02*
X136677500Y-104582000I147500J0D01*
G01*
X136972500Y-104582000D01*
G75*
G02*
X137120000Y-104729500I0J-147500D01*
G01*
G37*
%TD*%
%TO.C,C7*%
G36*
G01*
X176194800Y-97795300D02*
X176194800Y-98140300D01*
G75*
G02*
X176047300Y-98287800I-147500J0D01*
G01*
X175752300Y-98287800D01*
G75*
G02*
X175604800Y-98140300I0J147500D01*
G01*
X175604800Y-97795300D01*
G75*
G02*
X175752300Y-97647800I147500J0D01*
G01*
X176047300Y-97647800D01*
G75*
G02*
X176194800Y-97795300I0J-147500D01*
G01*
G37*
G36*
G01*
X175224800Y-97795300D02*
X175224800Y-98140300D01*
G75*
G02*
X175077300Y-98287800I-147500J0D01*
G01*
X174782300Y-98287800D01*
G75*
G02*
X174634800Y-98140300I0J147500D01*
G01*
X174634800Y-97795300D01*
G75*
G02*
X174782300Y-97647800I147500J0D01*
G01*
X175077300Y-97647800D01*
G75*
G02*
X175224800Y-97795300I0J-147500D01*
G01*
G37*
%TD*%
%TO.C,C8*%
G36*
G01*
X171482800Y-102458300D02*
X171482800Y-102113300D01*
G75*
G02*
X171630300Y-101965800I147500J0D01*
G01*
X171925300Y-101965800D01*
G75*
G02*
X172072800Y-102113300I0J-147500D01*
G01*
X172072800Y-102458300D01*
G75*
G02*
X171925300Y-102605800I-147500J0D01*
G01*
X171630300Y-102605800D01*
G75*
G02*
X171482800Y-102458300I0J147500D01*
G01*
G37*
G36*
G01*
X172452800Y-102458300D02*
X172452800Y-102113300D01*
G75*
G02*
X172600300Y-101965800I147500J0D01*
G01*
X172895300Y-101965800D01*
G75*
G02*
X173042800Y-102113300I0J-147500D01*
G01*
X173042800Y-102458300D01*
G75*
G02*
X172895300Y-102605800I-147500J0D01*
G01*
X172600300Y-102605800D01*
G75*
G02*
X172452800Y-102458300I0J147500D01*
G01*
G37*
%TD*%
%TO.C,C9*%
G36*
G01*
X178074100Y-101183800D02*
X177729100Y-101183800D01*
G75*
G02*
X177581600Y-101036300I0J147500D01*
G01*
X177581600Y-100741300D01*
G75*
G02*
X177729100Y-100593800I147500J0D01*
G01*
X178074100Y-100593800D01*
G75*
G02*
X178221600Y-100741300I0J-147500D01*
G01*
X178221600Y-101036300D01*
G75*
G02*
X178074100Y-101183800I-147500J0D01*
G01*
G37*
G36*
G01*
X178074100Y-102153800D02*
X177729100Y-102153800D01*
G75*
G02*
X177581600Y-102006300I0J147500D01*
G01*
X177581600Y-101711300D01*
G75*
G02*
X177729100Y-101563800I147500J0D01*
G01*
X178074100Y-101563800D01*
G75*
G02*
X178221600Y-101711300I0J-147500D01*
G01*
X178221600Y-102006300D01*
G75*
G02*
X178074100Y-102153800I-147500J0D01*
G01*
G37*
%TD*%
%TO.C,C11*%
G36*
G01*
X159618900Y-103591000D02*
X159963900Y-103591000D01*
G75*
G02*
X160111400Y-103738500I0J-147500D01*
G01*
X160111400Y-104033500D01*
G75*
G02*
X159963900Y-104181000I-147500J0D01*
G01*
X159618900Y-104181000D01*
G75*
G02*
X159471400Y-104033500I0J147500D01*
G01*
X159471400Y-103738500D01*
G75*
G02*
X159618900Y-103591000I147500J0D01*
G01*
G37*
G36*
G01*
X159618900Y-104561000D02*
X159963900Y-104561000D01*
G75*
G02*
X160111400Y-104708500I0J-147500D01*
G01*
X160111400Y-105003500D01*
G75*
G02*
X159963900Y-105151000I-147500J0D01*
G01*
X159618900Y-105151000D01*
G75*
G02*
X159471400Y-105003500I0J147500D01*
G01*
X159471400Y-104708500D01*
G75*
G02*
X159618900Y-104561000I147500J0D01*
G01*
G37*
%TD*%
%TO.C,C12*%
G36*
G01*
X157187400Y-101963000D02*
X157187400Y-101618000D01*
G75*
G02*
X157334900Y-101470500I147500J0D01*
G01*
X157629900Y-101470500D01*
G75*
G02*
X157777400Y-101618000I0J-147500D01*
G01*
X157777400Y-101963000D01*
G75*
G02*
X157629900Y-102110500I-147500J0D01*
G01*
X157334900Y-102110500D01*
G75*
G02*
X157187400Y-101963000I0J147500D01*
G01*
G37*
G36*
G01*
X156217400Y-101963000D02*
X156217400Y-101618000D01*
G75*
G02*
X156364900Y-101470500I147500J0D01*
G01*
X156659900Y-101470500D01*
G75*
G02*
X156807400Y-101618000I0J-147500D01*
G01*
X156807400Y-101963000D01*
G75*
G02*
X156659900Y-102110500I-147500J0D01*
G01*
X156364900Y-102110500D01*
G75*
G02*
X156217400Y-101963000I0J147500D01*
G01*
G37*
%TD*%
%TO.C,C13*%
G36*
G01*
X163113500Y-105125600D02*
X162768500Y-105125600D01*
G75*
G02*
X162621000Y-104978100I0J147500D01*
G01*
X162621000Y-104683100D01*
G75*
G02*
X162768500Y-104535600I147500J0D01*
G01*
X163113500Y-104535600D01*
G75*
G02*
X163261000Y-104683100I0J-147500D01*
G01*
X163261000Y-104978100D01*
G75*
G02*
X163113500Y-105125600I-147500J0D01*
G01*
G37*
G36*
G01*
X163113500Y-104155600D02*
X162768500Y-104155600D01*
G75*
G02*
X162621000Y-104008100I0J147500D01*
G01*
X162621000Y-103713100D01*
G75*
G02*
X162768500Y-103565600I147500J0D01*
G01*
X163113500Y-103565600D01*
G75*
G02*
X163261000Y-103713100I0J-147500D01*
G01*
X163261000Y-104008100D01*
G75*
G02*
X163113500Y-104155600I-147500J0D01*
G01*
G37*
%TD*%
%TO.C,C14*%
G36*
G01*
X178577600Y-104881900D02*
X178577600Y-105226900D01*
G75*
G02*
X178430100Y-105374400I-147500J0D01*
G01*
X178135100Y-105374400D01*
G75*
G02*
X177987600Y-105226900I0J147500D01*
G01*
X177987600Y-104881900D01*
G75*
G02*
X178135100Y-104734400I147500J0D01*
G01*
X178430100Y-104734400D01*
G75*
G02*
X178577600Y-104881900I0J-147500D01*
G01*
G37*
G36*
G01*
X179547600Y-104881900D02*
X179547600Y-105226900D01*
G75*
G02*
X179400100Y-105374400I-147500J0D01*
G01*
X179105100Y-105374400D01*
G75*
G02*
X178957600Y-105226900I0J147500D01*
G01*
X178957600Y-104881900D01*
G75*
G02*
X179105100Y-104734400I147500J0D01*
G01*
X179400100Y-104734400D01*
G75*
G02*
X179547600Y-104881900I0J-147500D01*
G01*
G37*
%TD*%
%TO.C,C16*%
G36*
G01*
X154676200Y-106304300D02*
X154676200Y-106649300D01*
G75*
G02*
X154528700Y-106796800I-147500J0D01*
G01*
X154233700Y-106796800D01*
G75*
G02*
X154086200Y-106649300I0J147500D01*
G01*
X154086200Y-106304300D01*
G75*
G02*
X154233700Y-106156800I147500J0D01*
G01*
X154528700Y-106156800D01*
G75*
G02*
X154676200Y-106304300I0J-147500D01*
G01*
G37*
G36*
G01*
X153706200Y-106304300D02*
X153706200Y-106649300D01*
G75*
G02*
X153558700Y-106796800I-147500J0D01*
G01*
X153263700Y-106796800D01*
G75*
G02*
X153116200Y-106649300I0J147500D01*
G01*
X153116200Y-106304300D01*
G75*
G02*
X153263700Y-106156800I147500J0D01*
G01*
X153558700Y-106156800D01*
G75*
G02*
X153706200Y-106304300I0J-147500D01*
G01*
G37*
%TD*%
%TO.C,C17*%
G36*
G01*
X147075800Y-106750900D02*
X147075800Y-106405900D01*
G75*
G02*
X147223300Y-106258400I147500J0D01*
G01*
X147518300Y-106258400D01*
G75*
G02*
X147665800Y-106405900I0J-147500D01*
G01*
X147665800Y-106750900D01*
G75*
G02*
X147518300Y-106898400I-147500J0D01*
G01*
X147223300Y-106898400D01*
G75*
G02*
X147075800Y-106750900I0J147500D01*
G01*
G37*
G36*
G01*
X146105800Y-106750900D02*
X146105800Y-106405900D01*
G75*
G02*
X146253300Y-106258400I147500J0D01*
G01*
X146548300Y-106258400D01*
G75*
G02*
X146695800Y-106405900I0J-147500D01*
G01*
X146695800Y-106750900D01*
G75*
G02*
X146548300Y-106898400I-147500J0D01*
G01*
X146253300Y-106898400D01*
G75*
G02*
X146105800Y-106750900I0J147500D01*
G01*
G37*
%TD*%
%TO.C,C18*%
G36*
G01*
X172837200Y-95483900D02*
X172837200Y-95828900D01*
G75*
G02*
X172689700Y-95976400I-147500J0D01*
G01*
X172394700Y-95976400D01*
G75*
G02*
X172247200Y-95828900I0J147500D01*
G01*
X172247200Y-95483900D01*
G75*
G02*
X172394700Y-95336400I147500J0D01*
G01*
X172689700Y-95336400D01*
G75*
G02*
X172837200Y-95483900I0J-147500D01*
G01*
G37*
G36*
G01*
X173807200Y-95483900D02*
X173807200Y-95828900D01*
G75*
G02*
X173659700Y-95976400I-147500J0D01*
G01*
X173364700Y-95976400D01*
G75*
G02*
X173217200Y-95828900I0J147500D01*
G01*
X173217200Y-95483900D01*
G75*
G02*
X173364700Y-95336400I147500J0D01*
G01*
X173659700Y-95336400D01*
G75*
G02*
X173807200Y-95483900I0J-147500D01*
G01*
G37*
%TD*%
%TO.C,D1*%
G36*
G01*
X157790700Y-98371950D02*
X157790700Y-98884450D01*
G75*
G02*
X157571950Y-99103200I-218750J0D01*
G01*
X157134450Y-99103200D01*
G75*
G02*
X156915700Y-98884450I0J218750D01*
G01*
X156915700Y-98371950D01*
G75*
G02*
X157134450Y-98153200I218750J0D01*
G01*
X157571950Y-98153200D01*
G75*
G02*
X157790700Y-98371950I0J-218750D01*
G01*
G37*
G36*
G01*
X156215700Y-98371950D02*
X156215700Y-98884450D01*
G75*
G02*
X155996950Y-99103200I-218750J0D01*
G01*
X155559450Y-99103200D01*
G75*
G02*
X155340700Y-98884450I0J218750D01*
G01*
X155340700Y-98371950D01*
G75*
G02*
X155559450Y-98153200I218750J0D01*
G01*
X155996950Y-98153200D01*
G75*
G02*
X156215700Y-98371950I0J-218750D01*
G01*
G37*
%TD*%
%TO.C,F1*%
G36*
G01*
X186319000Y-104658000D02*
X187569000Y-104658000D01*
G75*
G02*
X187819000Y-104908000I0J-250000D01*
G01*
X187819000Y-105658000D01*
G75*
G02*
X187569000Y-105908000I-250000J0D01*
G01*
X186319000Y-105908000D01*
G75*
G02*
X186069000Y-105658000I0J250000D01*
G01*
X186069000Y-104908000D01*
G75*
G02*
X186319000Y-104658000I250000J0D01*
G01*
G37*
G36*
G01*
X186319000Y-107458000D02*
X187569000Y-107458000D01*
G75*
G02*
X187819000Y-107708000I0J-250000D01*
G01*
X187819000Y-108458000D01*
G75*
G02*
X187569000Y-108708000I-250000J0D01*
G01*
X186319000Y-108708000D01*
G75*
G02*
X186069000Y-108458000I0J250000D01*
G01*
X186069000Y-107708000D01*
G75*
G02*
X186319000Y-107458000I250000J0D01*
G01*
G37*
%TD*%
D12*
%TO.C,J1*%
X183788000Y-98294000D03*
X183788000Y-96294000D03*
X183788000Y-96794000D03*
X183788000Y-97294000D03*
X183788000Y-97794000D03*
X183788000Y-98794000D03*
X183788000Y-99294000D03*
X183788000Y-99794000D03*
D13*
X183788000Y-94794000D03*
X183788000Y-95594000D03*
X183788000Y-100494000D03*
X183788000Y-101294000D03*
X183788000Y-101294000D03*
X183788000Y-100494000D03*
X183788000Y-95594000D03*
X183788000Y-94794000D03*
%TD*%
%TO.C,L1*%
G36*
G01*
X168473200Y-104729500D02*
X168473200Y-105074500D01*
G75*
G02*
X168325700Y-105222000I-147500J0D01*
G01*
X168030700Y-105222000D01*
G75*
G02*
X167883200Y-105074500I0J147500D01*
G01*
X167883200Y-104729500D01*
G75*
G02*
X168030700Y-104582000I147500J0D01*
G01*
X168325700Y-104582000D01*
G75*
G02*
X168473200Y-104729500I0J-147500D01*
G01*
G37*
G36*
G01*
X167503200Y-104729500D02*
X167503200Y-105074500D01*
G75*
G02*
X167355700Y-105222000I-147500J0D01*
G01*
X167060700Y-105222000D01*
G75*
G02*
X166913200Y-105074500I0J147500D01*
G01*
X166913200Y-104729500D01*
G75*
G02*
X167060700Y-104582000I147500J0D01*
G01*
X167355700Y-104582000D01*
G75*
G02*
X167503200Y-104729500I0J-147500D01*
G01*
G37*
%TD*%
%TO.C,L2*%
G36*
G01*
X176194800Y-98938300D02*
X176194800Y-99283300D01*
G75*
G02*
X176047300Y-99430800I-147500J0D01*
G01*
X175752300Y-99430800D01*
G75*
G02*
X175604800Y-99283300I0J147500D01*
G01*
X175604800Y-98938300D01*
G75*
G02*
X175752300Y-98790800I147500J0D01*
G01*
X176047300Y-98790800D01*
G75*
G02*
X176194800Y-98938300I0J-147500D01*
G01*
G37*
G36*
G01*
X175224800Y-98938300D02*
X175224800Y-99283300D01*
G75*
G02*
X175077300Y-99430800I-147500J0D01*
G01*
X174782300Y-99430800D01*
G75*
G02*
X174634800Y-99283300I0J147500D01*
G01*
X174634800Y-98938300D01*
G75*
G02*
X174782300Y-98790800I147500J0D01*
G01*
X175077300Y-98790800D01*
G75*
G02*
X175224800Y-98938300I0J-147500D01*
G01*
G37*
%TD*%
%TO.C,L4*%
G36*
G01*
X172811800Y-94340900D02*
X172811800Y-94685900D01*
G75*
G02*
X172664300Y-94833400I-147500J0D01*
G01*
X172369300Y-94833400D01*
G75*
G02*
X172221800Y-94685900I0J147500D01*
G01*
X172221800Y-94340900D01*
G75*
G02*
X172369300Y-94193400I147500J0D01*
G01*
X172664300Y-94193400D01*
G75*
G02*
X172811800Y-94340900I0J-147500D01*
G01*
G37*
G36*
G01*
X173781800Y-94340900D02*
X173781800Y-94685900D01*
G75*
G02*
X173634300Y-94833400I-147500J0D01*
G01*
X173339300Y-94833400D01*
G75*
G02*
X173191800Y-94685900I0J147500D01*
G01*
X173191800Y-94340900D01*
G75*
G02*
X173339300Y-94193400I147500J0D01*
G01*
X173634300Y-94193400D01*
G75*
G02*
X173781800Y-94340900I0J-147500D01*
G01*
G37*
%TD*%
D14*
%TO.C,Q1*%
X141452600Y-89611200D03*
X141452600Y-87711200D03*
X139452600Y-88661200D03*
%TD*%
D15*
%TO.C,Q2*%
X149096100Y-104675900D03*
X149096100Y-105625900D03*
X149096100Y-106575900D03*
X151716100Y-106575900D03*
X151716100Y-105625900D03*
X151716100Y-104675900D03*
%TD*%
%TO.C,R1*%
G36*
G01*
X142702500Y-88101800D02*
X143047500Y-88101800D01*
G75*
G02*
X143195000Y-88249300I0J-147500D01*
G01*
X143195000Y-88544300D01*
G75*
G02*
X143047500Y-88691800I-147500J0D01*
G01*
X142702500Y-88691800D01*
G75*
G02*
X142555000Y-88544300I0J147500D01*
G01*
X142555000Y-88249300D01*
G75*
G02*
X142702500Y-88101800I147500J0D01*
G01*
G37*
G36*
G01*
X142702500Y-87131800D02*
X143047500Y-87131800D01*
G75*
G02*
X143195000Y-87279300I0J-147500D01*
G01*
X143195000Y-87574300D01*
G75*
G02*
X143047500Y-87721800I-147500J0D01*
G01*
X142702500Y-87721800D01*
G75*
G02*
X142555000Y-87574300I0J147500D01*
G01*
X142555000Y-87279300D01*
G75*
G02*
X142702500Y-87131800I147500J0D01*
G01*
G37*
%TD*%
%TO.C,R2*%
G36*
G01*
X143083500Y-103591000D02*
X143428500Y-103591000D01*
G75*
G02*
X143576000Y-103738500I0J-147500D01*
G01*
X143576000Y-104033500D01*
G75*
G02*
X143428500Y-104181000I-147500J0D01*
G01*
X143083500Y-104181000D01*
G75*
G02*
X142936000Y-104033500I0J147500D01*
G01*
X142936000Y-103738500D01*
G75*
G02*
X143083500Y-103591000I147500J0D01*
G01*
G37*
G36*
G01*
X143083500Y-104561000D02*
X143428500Y-104561000D01*
G75*
G02*
X143576000Y-104708500I0J-147500D01*
G01*
X143576000Y-105003500D01*
G75*
G02*
X143428500Y-105151000I-147500J0D01*
G01*
X143083500Y-105151000D01*
G75*
G02*
X142936000Y-105003500I0J147500D01*
G01*
X142936000Y-104708500D01*
G75*
G02*
X143083500Y-104561000I147500J0D01*
G01*
G37*
%TD*%
%TO.C,R3*%
G36*
G01*
X144160600Y-89387900D02*
X144160600Y-89732900D01*
G75*
G02*
X144013100Y-89880400I-147500J0D01*
G01*
X143718100Y-89880400D01*
G75*
G02*
X143570600Y-89732900I0J147500D01*
G01*
X143570600Y-89387900D01*
G75*
G02*
X143718100Y-89240400I147500J0D01*
G01*
X144013100Y-89240400D01*
G75*
G02*
X144160600Y-89387900I0J-147500D01*
G01*
G37*
G36*
G01*
X143190600Y-89387900D02*
X143190600Y-89732900D01*
G75*
G02*
X143043100Y-89880400I-147500J0D01*
G01*
X142748100Y-89880400D01*
G75*
G02*
X142600600Y-89732900I0J147500D01*
G01*
X142600600Y-89387900D01*
G75*
G02*
X142748100Y-89240400I147500J0D01*
G01*
X143043100Y-89240400D01*
G75*
G02*
X143190600Y-89387900I0J-147500D01*
G01*
G37*
%TD*%
%TO.C,R4*%
G36*
G01*
X136380000Y-87548500D02*
X136380000Y-87203500D01*
G75*
G02*
X136527500Y-87056000I147500J0D01*
G01*
X136822500Y-87056000D01*
G75*
G02*
X136970000Y-87203500I0J-147500D01*
G01*
X136970000Y-87548500D01*
G75*
G02*
X136822500Y-87696000I-147500J0D01*
G01*
X136527500Y-87696000D01*
G75*
G02*
X136380000Y-87548500I0J147500D01*
G01*
G37*
G36*
G01*
X137350000Y-87548500D02*
X137350000Y-87203500D01*
G75*
G02*
X137497500Y-87056000I147500J0D01*
G01*
X137792500Y-87056000D01*
G75*
G02*
X137940000Y-87203500I0J-147500D01*
G01*
X137940000Y-87548500D01*
G75*
G02*
X137792500Y-87696000I-147500J0D01*
G01*
X137497500Y-87696000D01*
G75*
G02*
X137350000Y-87548500I0J147500D01*
G01*
G37*
%TD*%
%TO.C,R5*%
G36*
G01*
X137373000Y-90088500D02*
X137373000Y-89743500D01*
G75*
G02*
X137520500Y-89596000I147500J0D01*
G01*
X137815500Y-89596000D01*
G75*
G02*
X137963000Y-89743500I0J-147500D01*
G01*
X137963000Y-90088500D01*
G75*
G02*
X137815500Y-90236000I-147500J0D01*
G01*
X137520500Y-90236000D01*
G75*
G02*
X137373000Y-90088500I0J147500D01*
G01*
G37*
G36*
G01*
X136403000Y-90088500D02*
X136403000Y-89743500D01*
G75*
G02*
X136550500Y-89596000I147500J0D01*
G01*
X136845500Y-89596000D01*
G75*
G02*
X136993000Y-89743500I0J-147500D01*
G01*
X136993000Y-90088500D01*
G75*
G02*
X136845500Y-90236000I-147500J0D01*
G01*
X136550500Y-90236000D01*
G75*
G02*
X136403000Y-90088500I0J147500D01*
G01*
G37*
%TD*%
%TO.C,R6*%
G36*
G01*
X178417000Y-99613500D02*
X178417000Y-99268500D01*
G75*
G02*
X178564500Y-99121000I147500J0D01*
G01*
X178859500Y-99121000D01*
G75*
G02*
X179007000Y-99268500I0J-147500D01*
G01*
X179007000Y-99613500D01*
G75*
G02*
X178859500Y-99761000I-147500J0D01*
G01*
X178564500Y-99761000D01*
G75*
G02*
X178417000Y-99613500I0J147500D01*
G01*
G37*
G36*
G01*
X179387000Y-99613500D02*
X179387000Y-99268500D01*
G75*
G02*
X179534500Y-99121000I147500J0D01*
G01*
X179829500Y-99121000D01*
G75*
G02*
X179977000Y-99268500I0J-147500D01*
G01*
X179977000Y-99613500D01*
G75*
G02*
X179829500Y-99761000I-147500J0D01*
G01*
X179534500Y-99761000D01*
G75*
G02*
X179387000Y-99613500I0J147500D01*
G01*
G37*
%TD*%
%TO.C,R7*%
G36*
G01*
X179387000Y-95803500D02*
X179387000Y-95458500D01*
G75*
G02*
X179534500Y-95311000I147500J0D01*
G01*
X179829500Y-95311000D01*
G75*
G02*
X179977000Y-95458500I0J-147500D01*
G01*
X179977000Y-95803500D01*
G75*
G02*
X179829500Y-95951000I-147500J0D01*
G01*
X179534500Y-95951000D01*
G75*
G02*
X179387000Y-95803500I0J147500D01*
G01*
G37*
G36*
G01*
X178417000Y-95803500D02*
X178417000Y-95458500D01*
G75*
G02*
X178564500Y-95311000I147500J0D01*
G01*
X178859500Y-95311000D01*
G75*
G02*
X179007000Y-95458500I0J-147500D01*
G01*
X179007000Y-95803500D01*
G75*
G02*
X178859500Y-95951000I-147500J0D01*
G01*
X178564500Y-95951000D01*
G75*
G02*
X178417000Y-95803500I0J147500D01*
G01*
G37*
%TD*%
%TO.C,R8*%
G36*
G01*
X178417000Y-98343500D02*
X178417000Y-97998500D01*
G75*
G02*
X178564500Y-97851000I147500J0D01*
G01*
X178859500Y-97851000D01*
G75*
G02*
X179007000Y-97998500I0J-147500D01*
G01*
X179007000Y-98343500D01*
G75*
G02*
X178859500Y-98491000I-147500J0D01*
G01*
X178564500Y-98491000D01*
G75*
G02*
X178417000Y-98343500I0J147500D01*
G01*
G37*
G36*
G01*
X179387000Y-98343500D02*
X179387000Y-97998500D01*
G75*
G02*
X179534500Y-97851000I147500J0D01*
G01*
X179829500Y-97851000D01*
G75*
G02*
X179977000Y-97998500I0J-147500D01*
G01*
X179977000Y-98343500D01*
G75*
G02*
X179829500Y-98491000I-147500J0D01*
G01*
X179534500Y-98491000D01*
G75*
G02*
X179387000Y-98343500I0J147500D01*
G01*
G37*
%TD*%
%TO.C,R9*%
G36*
G01*
X179387000Y-97073500D02*
X179387000Y-96728500D01*
G75*
G02*
X179534500Y-96581000I147500J0D01*
G01*
X179829500Y-96581000D01*
G75*
G02*
X179977000Y-96728500I0J-147500D01*
G01*
X179977000Y-97073500D01*
G75*
G02*
X179829500Y-97221000I-147500J0D01*
G01*
X179534500Y-97221000D01*
G75*
G02*
X179387000Y-97073500I0J147500D01*
G01*
G37*
G36*
G01*
X178417000Y-97073500D02*
X178417000Y-96728500D01*
G75*
G02*
X178564500Y-96581000I147500J0D01*
G01*
X178859500Y-96581000D01*
G75*
G02*
X179007000Y-96728500I0J-147500D01*
G01*
X179007000Y-97073500D01*
G75*
G02*
X178859500Y-97221000I-147500J0D01*
G01*
X178564500Y-97221000D01*
G75*
G02*
X178417000Y-97073500I0J147500D01*
G01*
G37*
%TD*%
%TO.C,R10*%
G36*
G01*
X137500000Y-107868500D02*
X137500000Y-107523500D01*
G75*
G02*
X137647500Y-107376000I147500J0D01*
G01*
X137942500Y-107376000D01*
G75*
G02*
X138090000Y-107523500I0J-147500D01*
G01*
X138090000Y-107868500D01*
G75*
G02*
X137942500Y-108016000I-147500J0D01*
G01*
X137647500Y-108016000D01*
G75*
G02*
X137500000Y-107868500I0J147500D01*
G01*
G37*
G36*
G01*
X136530000Y-107868500D02*
X136530000Y-107523500D01*
G75*
G02*
X136677500Y-107376000I147500J0D01*
G01*
X136972500Y-107376000D01*
G75*
G02*
X137120000Y-107523500I0J-147500D01*
G01*
X137120000Y-107868500D01*
G75*
G02*
X136972500Y-108016000I-147500J0D01*
G01*
X136677500Y-108016000D01*
G75*
G02*
X136530000Y-107868500I0J147500D01*
G01*
G37*
%TD*%
%TO.C,R11*%
G36*
G01*
X178952800Y-104083900D02*
X178952800Y-103738900D01*
G75*
G02*
X179100300Y-103591400I147500J0D01*
G01*
X179395300Y-103591400D01*
G75*
G02*
X179542800Y-103738900I0J-147500D01*
G01*
X179542800Y-104083900D01*
G75*
G02*
X179395300Y-104231400I-147500J0D01*
G01*
X179100300Y-104231400D01*
G75*
G02*
X178952800Y-104083900I0J147500D01*
G01*
G37*
G36*
G01*
X177982800Y-104083900D02*
X177982800Y-103738900D01*
G75*
G02*
X178130300Y-103591400I147500J0D01*
G01*
X178425300Y-103591400D01*
G75*
G02*
X178572800Y-103738900I0J-147500D01*
G01*
X178572800Y-104083900D01*
G75*
G02*
X178425300Y-104231400I-147500J0D01*
G01*
X178130300Y-104231400D01*
G75*
G02*
X177982800Y-104083900I0J147500D01*
G01*
G37*
%TD*%
%TO.C,R12*%
G36*
G01*
X156794700Y-100119400D02*
X156794700Y-100464400D01*
G75*
G02*
X156647200Y-100611900I-147500J0D01*
G01*
X156352200Y-100611900D01*
G75*
G02*
X156204700Y-100464400I0J147500D01*
G01*
X156204700Y-100119400D01*
G75*
G02*
X156352200Y-99971900I147500J0D01*
G01*
X156647200Y-99971900D01*
G75*
G02*
X156794700Y-100119400I0J-147500D01*
G01*
G37*
G36*
G01*
X157764700Y-100119400D02*
X157764700Y-100464400D01*
G75*
G02*
X157617200Y-100611900I-147500J0D01*
G01*
X157322200Y-100611900D01*
G75*
G02*
X157174700Y-100464400I0J147500D01*
G01*
X157174700Y-100119400D01*
G75*
G02*
X157322200Y-99971900I147500J0D01*
G01*
X157617200Y-99971900D01*
G75*
G02*
X157764700Y-100119400I0J-147500D01*
G01*
G37*
%TD*%
%TO.C,R13*%
G36*
G01*
X173187000Y-98165700D02*
X173187000Y-97820700D01*
G75*
G02*
X173334500Y-97673200I147500J0D01*
G01*
X173629500Y-97673200D01*
G75*
G02*
X173777000Y-97820700I0J-147500D01*
G01*
X173777000Y-98165700D01*
G75*
G02*
X173629500Y-98313200I-147500J0D01*
G01*
X173334500Y-98313200D01*
G75*
G02*
X173187000Y-98165700I0J147500D01*
G01*
G37*
G36*
G01*
X172217000Y-98165700D02*
X172217000Y-97820700D01*
G75*
G02*
X172364500Y-97673200I147500J0D01*
G01*
X172659500Y-97673200D01*
G75*
G02*
X172807000Y-97820700I0J-147500D01*
G01*
X172807000Y-98165700D01*
G75*
G02*
X172659500Y-98313200I-147500J0D01*
G01*
X172364500Y-98313200D01*
G75*
G02*
X172217000Y-98165700I0J147500D01*
G01*
G37*
%TD*%
%TO.C,R14*%
G36*
G01*
X172318900Y-99882600D02*
X172663900Y-99882600D01*
G75*
G02*
X172811400Y-100030100I0J-147500D01*
G01*
X172811400Y-100325100D01*
G75*
G02*
X172663900Y-100472600I-147500J0D01*
G01*
X172318900Y-100472600D01*
G75*
G02*
X172171400Y-100325100I0J147500D01*
G01*
X172171400Y-100030100D01*
G75*
G02*
X172318900Y-99882600I147500J0D01*
G01*
G37*
G36*
G01*
X172318900Y-100852600D02*
X172663900Y-100852600D01*
G75*
G02*
X172811400Y-101000100I0J-147500D01*
G01*
X172811400Y-101295100D01*
G75*
G02*
X172663900Y-101442600I-147500J0D01*
G01*
X172318900Y-101442600D01*
G75*
G02*
X172171400Y-101295100I0J147500D01*
G01*
X172171400Y-101000100D01*
G75*
G02*
X172318900Y-100852600I147500J0D01*
G01*
G37*
%TD*%
%TO.C,R16*%
G36*
G01*
X171251800Y-109290900D02*
X171251800Y-108945900D01*
G75*
G02*
X171399300Y-108798400I147500J0D01*
G01*
X171694300Y-108798400D01*
G75*
G02*
X171841800Y-108945900I0J-147500D01*
G01*
X171841800Y-109290900D01*
G75*
G02*
X171694300Y-109438400I-147500J0D01*
G01*
X171399300Y-109438400D01*
G75*
G02*
X171251800Y-109290900I0J147500D01*
G01*
G37*
G36*
G01*
X172221800Y-109290900D02*
X172221800Y-108945900D01*
G75*
G02*
X172369300Y-108798400I147500J0D01*
G01*
X172664300Y-108798400D01*
G75*
G02*
X172811800Y-108945900I0J-147500D01*
G01*
X172811800Y-109290900D01*
G75*
G02*
X172664300Y-109438400I-147500J0D01*
G01*
X172369300Y-109438400D01*
G75*
G02*
X172221800Y-109290900I0J147500D01*
G01*
G37*
%TD*%
%TO.C,R17*%
G36*
G01*
X154098900Y-105417400D02*
X154098900Y-105072400D01*
G75*
G02*
X154246400Y-104924900I147500J0D01*
G01*
X154541400Y-104924900D01*
G75*
G02*
X154688900Y-105072400I0J-147500D01*
G01*
X154688900Y-105417400D01*
G75*
G02*
X154541400Y-105564900I-147500J0D01*
G01*
X154246400Y-105564900D01*
G75*
G02*
X154098900Y-105417400I0J147500D01*
G01*
G37*
G36*
G01*
X153128900Y-105417400D02*
X153128900Y-105072400D01*
G75*
G02*
X153276400Y-104924900I147500J0D01*
G01*
X153571400Y-104924900D01*
G75*
G02*
X153718900Y-105072400I0J-147500D01*
G01*
X153718900Y-105417400D01*
G75*
G02*
X153571400Y-105564900I-147500J0D01*
G01*
X153276400Y-105564900D01*
G75*
G02*
X153128900Y-105417400I0J147500D01*
G01*
G37*
%TD*%
%TO.C,R18*%
G36*
G01*
X154665900Y-107447300D02*
X154665900Y-107792300D01*
G75*
G02*
X154518400Y-107939800I-147500J0D01*
G01*
X154223400Y-107939800D01*
G75*
G02*
X154075900Y-107792300I0J147500D01*
G01*
X154075900Y-107447300D01*
G75*
G02*
X154223400Y-107299800I147500J0D01*
G01*
X154518400Y-107299800D01*
G75*
G02*
X154665900Y-107447300I0J-147500D01*
G01*
G37*
G36*
G01*
X153695900Y-107447300D02*
X153695900Y-107792300D01*
G75*
G02*
X153548400Y-107939800I-147500J0D01*
G01*
X153253400Y-107939800D01*
G75*
G02*
X153105900Y-107792300I0J147500D01*
G01*
X153105900Y-107447300D01*
G75*
G02*
X153253400Y-107299800I147500J0D01*
G01*
X153548400Y-107299800D01*
G75*
G02*
X153695900Y-107447300I0J-147500D01*
G01*
G37*
%TD*%
%TO.C,R19*%
G36*
G01*
X154678600Y-103916700D02*
X154678600Y-104261700D01*
G75*
G02*
X154531100Y-104409200I-147500J0D01*
G01*
X154236100Y-104409200D01*
G75*
G02*
X154088600Y-104261700I0J147500D01*
G01*
X154088600Y-103916700D01*
G75*
G02*
X154236100Y-103769200I147500J0D01*
G01*
X154531100Y-103769200D01*
G75*
G02*
X154678600Y-103916700I0J-147500D01*
G01*
G37*
G36*
G01*
X153708600Y-103916700D02*
X153708600Y-104261700D01*
G75*
G02*
X153561100Y-104409200I-147500J0D01*
G01*
X153266100Y-104409200D01*
G75*
G02*
X153118600Y-104261700I0J147500D01*
G01*
X153118600Y-103916700D01*
G75*
G02*
X153266100Y-103769200I147500J0D01*
G01*
X153561100Y-103769200D01*
G75*
G02*
X153708600Y-103916700I0J-147500D01*
G01*
G37*
%TD*%
%TO.C,R20*%
G36*
G01*
X153243200Y-98800700D02*
X153243200Y-98455700D01*
G75*
G02*
X153390700Y-98308200I147500J0D01*
G01*
X153685700Y-98308200D01*
G75*
G02*
X153833200Y-98455700I0J-147500D01*
G01*
X153833200Y-98800700D01*
G75*
G02*
X153685700Y-98948200I-147500J0D01*
G01*
X153390700Y-98948200D01*
G75*
G02*
X153243200Y-98800700I0J147500D01*
G01*
G37*
G36*
G01*
X154213200Y-98800700D02*
X154213200Y-98455700D01*
G75*
G02*
X154360700Y-98308200I147500J0D01*
G01*
X154655700Y-98308200D01*
G75*
G02*
X154803200Y-98455700I0J-147500D01*
G01*
X154803200Y-98800700D01*
G75*
G02*
X154655700Y-98948200I-147500J0D01*
G01*
X154360700Y-98948200D01*
G75*
G02*
X154213200Y-98800700I0J147500D01*
G01*
G37*
%TD*%
%TO.C,R21*%
G36*
G01*
X147075800Y-104858600D02*
X147075800Y-104513600D01*
G75*
G02*
X147223300Y-104366100I147500J0D01*
G01*
X147518300Y-104366100D01*
G75*
G02*
X147665800Y-104513600I0J-147500D01*
G01*
X147665800Y-104858600D01*
G75*
G02*
X147518300Y-105006100I-147500J0D01*
G01*
X147223300Y-105006100D01*
G75*
G02*
X147075800Y-104858600I0J147500D01*
G01*
G37*
G36*
G01*
X146105800Y-104858600D02*
X146105800Y-104513600D01*
G75*
G02*
X146253300Y-104366100I147500J0D01*
G01*
X146548300Y-104366100D01*
G75*
G02*
X146695800Y-104513600I0J-147500D01*
G01*
X146695800Y-104858600D01*
G75*
G02*
X146548300Y-105006100I-147500J0D01*
G01*
X146253300Y-105006100D01*
G75*
G02*
X146105800Y-104858600I0J147500D01*
G01*
G37*
%TD*%
%TO.C,R23*%
G36*
G01*
X166908400Y-107944700D02*
X166908400Y-107599700D01*
G75*
G02*
X167055900Y-107452200I147500J0D01*
G01*
X167350900Y-107452200D01*
G75*
G02*
X167498400Y-107599700I0J-147500D01*
G01*
X167498400Y-107944700D01*
G75*
G02*
X167350900Y-108092200I-147500J0D01*
G01*
X167055900Y-108092200D01*
G75*
G02*
X166908400Y-107944700I0J147500D01*
G01*
G37*
G36*
G01*
X167878400Y-107944700D02*
X167878400Y-107599700D01*
G75*
G02*
X168025900Y-107452200I147500J0D01*
G01*
X168320900Y-107452200D01*
G75*
G02*
X168468400Y-107599700I0J-147500D01*
G01*
X168468400Y-107944700D01*
G75*
G02*
X168320900Y-108092200I-147500J0D01*
G01*
X168025900Y-108092200D01*
G75*
G02*
X167878400Y-107944700I0J147500D01*
G01*
G37*
%TD*%
D16*
%TO.C,U1*%
X141612800Y-106372700D03*
X141612800Y-105422700D03*
X141612800Y-104472700D03*
X139412800Y-104472700D03*
X139412800Y-106372700D03*
%TD*%
%TO.C,U2*%
G36*
G01*
X170297200Y-104010600D02*
X170297200Y-103710600D01*
G75*
G02*
X170447200Y-103560600I150000J0D01*
G01*
X172097200Y-103560600D01*
G75*
G02*
X172247200Y-103710600I0J-150000D01*
G01*
X172247200Y-104010600D01*
G75*
G02*
X172097200Y-104160600I-150000J0D01*
G01*
X170447200Y-104160600D01*
G75*
G02*
X170297200Y-104010600I0J150000D01*
G01*
G37*
G36*
G01*
X170297200Y-105280600D02*
X170297200Y-104980600D01*
G75*
G02*
X170447200Y-104830600I150000J0D01*
G01*
X172097200Y-104830600D01*
G75*
G02*
X172247200Y-104980600I0J-150000D01*
G01*
X172247200Y-105280600D01*
G75*
G02*
X172097200Y-105430600I-150000J0D01*
G01*
X170447200Y-105430600D01*
G75*
G02*
X170297200Y-105280600I0J150000D01*
G01*
G37*
G36*
G01*
X170297200Y-106550600D02*
X170297200Y-106250600D01*
G75*
G02*
X170447200Y-106100600I150000J0D01*
G01*
X172097200Y-106100600D01*
G75*
G02*
X172247200Y-106250600I0J-150000D01*
G01*
X172247200Y-106550600D01*
G75*
G02*
X172097200Y-106700600I-150000J0D01*
G01*
X170447200Y-106700600D01*
G75*
G02*
X170297200Y-106550600I0J150000D01*
G01*
G37*
G36*
G01*
X170297200Y-107820600D02*
X170297200Y-107520600D01*
G75*
G02*
X170447200Y-107370600I150000J0D01*
G01*
X172097200Y-107370600D01*
G75*
G02*
X172247200Y-107520600I0J-150000D01*
G01*
X172247200Y-107820600D01*
G75*
G02*
X172097200Y-107970600I-150000J0D01*
G01*
X170447200Y-107970600D01*
G75*
G02*
X170297200Y-107820600I0J150000D01*
G01*
G37*
G36*
G01*
X175247200Y-107820600D02*
X175247200Y-107520600D01*
G75*
G02*
X175397200Y-107370600I150000J0D01*
G01*
X177047200Y-107370600D01*
G75*
G02*
X177197200Y-107520600I0J-150000D01*
G01*
X177197200Y-107820600D01*
G75*
G02*
X177047200Y-107970600I-150000J0D01*
G01*
X175397200Y-107970600D01*
G75*
G02*
X175247200Y-107820600I0J150000D01*
G01*
G37*
G36*
G01*
X175247200Y-106550600D02*
X175247200Y-106250600D01*
G75*
G02*
X175397200Y-106100600I150000J0D01*
G01*
X177047200Y-106100600D01*
G75*
G02*
X177197200Y-106250600I0J-150000D01*
G01*
X177197200Y-106550600D01*
G75*
G02*
X177047200Y-106700600I-150000J0D01*
G01*
X175397200Y-106700600D01*
G75*
G02*
X175247200Y-106550600I0J150000D01*
G01*
G37*
G36*
G01*
X175247200Y-105280600D02*
X175247200Y-104980600D01*
G75*
G02*
X175397200Y-104830600I150000J0D01*
G01*
X177047200Y-104830600D01*
G75*
G02*
X177197200Y-104980600I0J-150000D01*
G01*
X177197200Y-105280600D01*
G75*
G02*
X177047200Y-105430600I-150000J0D01*
G01*
X175397200Y-105430600D01*
G75*
G02*
X175247200Y-105280600I0J150000D01*
G01*
G37*
G36*
G01*
X175247200Y-104010600D02*
X175247200Y-103710600D01*
G75*
G02*
X175397200Y-103560600I150000J0D01*
G01*
X177047200Y-103560600D01*
G75*
G02*
X177197200Y-103710600I0J-150000D01*
G01*
X177197200Y-104010600D01*
G75*
G02*
X177047200Y-104160600I-150000J0D01*
G01*
X175397200Y-104160600D01*
G75*
G02*
X175247200Y-104010600I0J150000D01*
G01*
G37*
%TD*%
%TO.C,U3*%
G36*
G01*
X169318200Y-100004700D02*
X169318200Y-100154700D01*
G75*
G02*
X169243200Y-100229700I-75000J0D01*
G01*
X167918200Y-100229700D01*
G75*
G02*
X167843200Y-100154700I0J75000D01*
G01*
X167843200Y-100004700D01*
G75*
G02*
X167918200Y-99929700I75000J0D01*
G01*
X169243200Y-99929700D01*
G75*
G02*
X169318200Y-100004700I0J-75000D01*
G01*
G37*
G36*
G01*
X169318200Y-99504700D02*
X169318200Y-99654700D01*
G75*
G02*
X169243200Y-99729700I-75000J0D01*
G01*
X167918200Y-99729700D01*
G75*
G02*
X167843200Y-99654700I0J75000D01*
G01*
X167843200Y-99504700D01*
G75*
G02*
X167918200Y-99429700I75000J0D01*
G01*
X169243200Y-99429700D01*
G75*
G02*
X169318200Y-99504700I0J-75000D01*
G01*
G37*
G36*
G01*
X169318200Y-99004700D02*
X169318200Y-99154700D01*
G75*
G02*
X169243200Y-99229700I-75000J0D01*
G01*
X167918200Y-99229700D01*
G75*
G02*
X167843200Y-99154700I0J75000D01*
G01*
X167843200Y-99004700D01*
G75*
G02*
X167918200Y-98929700I75000J0D01*
G01*
X169243200Y-98929700D01*
G75*
G02*
X169318200Y-99004700I0J-75000D01*
G01*
G37*
G36*
G01*
X169318200Y-98504700D02*
X169318200Y-98654700D01*
G75*
G02*
X169243200Y-98729700I-75000J0D01*
G01*
X167918200Y-98729700D01*
G75*
G02*
X167843200Y-98654700I0J75000D01*
G01*
X167843200Y-98504700D01*
G75*
G02*
X167918200Y-98429700I75000J0D01*
G01*
X169243200Y-98429700D01*
G75*
G02*
X169318200Y-98504700I0J-75000D01*
G01*
G37*
G36*
G01*
X169318200Y-98004700D02*
X169318200Y-98154700D01*
G75*
G02*
X169243200Y-98229700I-75000J0D01*
G01*
X167918200Y-98229700D01*
G75*
G02*
X167843200Y-98154700I0J75000D01*
G01*
X167843200Y-98004700D01*
G75*
G02*
X167918200Y-97929700I75000J0D01*
G01*
X169243200Y-97929700D01*
G75*
G02*
X169318200Y-98004700I0J-75000D01*
G01*
G37*
G36*
G01*
X169318200Y-97504700D02*
X169318200Y-97654700D01*
G75*
G02*
X169243200Y-97729700I-75000J0D01*
G01*
X167918200Y-97729700D01*
G75*
G02*
X167843200Y-97654700I0J75000D01*
G01*
X167843200Y-97504700D01*
G75*
G02*
X167918200Y-97429700I75000J0D01*
G01*
X169243200Y-97429700D01*
G75*
G02*
X169318200Y-97504700I0J-75000D01*
G01*
G37*
G36*
G01*
X169318200Y-97004700D02*
X169318200Y-97154700D01*
G75*
G02*
X169243200Y-97229700I-75000J0D01*
G01*
X167918200Y-97229700D01*
G75*
G02*
X167843200Y-97154700I0J75000D01*
G01*
X167843200Y-97004700D01*
G75*
G02*
X167918200Y-96929700I75000J0D01*
G01*
X169243200Y-96929700D01*
G75*
G02*
X169318200Y-97004700I0J-75000D01*
G01*
G37*
G36*
G01*
X169318200Y-96504700D02*
X169318200Y-96654700D01*
G75*
G02*
X169243200Y-96729700I-75000J0D01*
G01*
X167918200Y-96729700D01*
G75*
G02*
X167843200Y-96654700I0J75000D01*
G01*
X167843200Y-96504700D01*
G75*
G02*
X167918200Y-96429700I75000J0D01*
G01*
X169243200Y-96429700D01*
G75*
G02*
X169318200Y-96504700I0J-75000D01*
G01*
G37*
G36*
G01*
X169318200Y-96004700D02*
X169318200Y-96154700D01*
G75*
G02*
X169243200Y-96229700I-75000J0D01*
G01*
X167918200Y-96229700D01*
G75*
G02*
X167843200Y-96154700I0J75000D01*
G01*
X167843200Y-96004700D01*
G75*
G02*
X167918200Y-95929700I75000J0D01*
G01*
X169243200Y-95929700D01*
G75*
G02*
X169318200Y-96004700I0J-75000D01*
G01*
G37*
G36*
G01*
X169318200Y-95504700D02*
X169318200Y-95654700D01*
G75*
G02*
X169243200Y-95729700I-75000J0D01*
G01*
X167918200Y-95729700D01*
G75*
G02*
X167843200Y-95654700I0J75000D01*
G01*
X167843200Y-95504700D01*
G75*
G02*
X167918200Y-95429700I75000J0D01*
G01*
X169243200Y-95429700D01*
G75*
G02*
X169318200Y-95504700I0J-75000D01*
G01*
G37*
G36*
G01*
X169318200Y-95004700D02*
X169318200Y-95154700D01*
G75*
G02*
X169243200Y-95229700I-75000J0D01*
G01*
X167918200Y-95229700D01*
G75*
G02*
X167843200Y-95154700I0J75000D01*
G01*
X167843200Y-95004700D01*
G75*
G02*
X167918200Y-94929700I75000J0D01*
G01*
X169243200Y-94929700D01*
G75*
G02*
X169318200Y-95004700I0J-75000D01*
G01*
G37*
G36*
G01*
X169318200Y-94504700D02*
X169318200Y-94654700D01*
G75*
G02*
X169243200Y-94729700I-75000J0D01*
G01*
X167918200Y-94729700D01*
G75*
G02*
X167843200Y-94654700I0J75000D01*
G01*
X167843200Y-94504700D01*
G75*
G02*
X167918200Y-94429700I75000J0D01*
G01*
X169243200Y-94429700D01*
G75*
G02*
X169318200Y-94504700I0J-75000D01*
G01*
G37*
G36*
G01*
X167318200Y-92504700D02*
X167318200Y-93829700D01*
G75*
G02*
X167243200Y-93904700I-75000J0D01*
G01*
X167093200Y-93904700D01*
G75*
G02*
X167018200Y-93829700I0J75000D01*
G01*
X167018200Y-92504700D01*
G75*
G02*
X167093200Y-92429700I75000J0D01*
G01*
X167243200Y-92429700D01*
G75*
G02*
X167318200Y-92504700I0J-75000D01*
G01*
G37*
G36*
G01*
X166818200Y-92504700D02*
X166818200Y-93829700D01*
G75*
G02*
X166743200Y-93904700I-75000J0D01*
G01*
X166593200Y-93904700D01*
G75*
G02*
X166518200Y-93829700I0J75000D01*
G01*
X166518200Y-92504700D01*
G75*
G02*
X166593200Y-92429700I75000J0D01*
G01*
X166743200Y-92429700D01*
G75*
G02*
X166818200Y-92504700I0J-75000D01*
G01*
G37*
G36*
G01*
X166318200Y-92504700D02*
X166318200Y-93829700D01*
G75*
G02*
X166243200Y-93904700I-75000J0D01*
G01*
X166093200Y-93904700D01*
G75*
G02*
X166018200Y-93829700I0J75000D01*
G01*
X166018200Y-92504700D01*
G75*
G02*
X166093200Y-92429700I75000J0D01*
G01*
X166243200Y-92429700D01*
G75*
G02*
X166318200Y-92504700I0J-75000D01*
G01*
G37*
G36*
G01*
X165818200Y-92504700D02*
X165818200Y-93829700D01*
G75*
G02*
X165743200Y-93904700I-75000J0D01*
G01*
X165593200Y-93904700D01*
G75*
G02*
X165518200Y-93829700I0J75000D01*
G01*
X165518200Y-92504700D01*
G75*
G02*
X165593200Y-92429700I75000J0D01*
G01*
X165743200Y-92429700D01*
G75*
G02*
X165818200Y-92504700I0J-75000D01*
G01*
G37*
G36*
G01*
X165318200Y-92504700D02*
X165318200Y-93829700D01*
G75*
G02*
X165243200Y-93904700I-75000J0D01*
G01*
X165093200Y-93904700D01*
G75*
G02*
X165018200Y-93829700I0J75000D01*
G01*
X165018200Y-92504700D01*
G75*
G02*
X165093200Y-92429700I75000J0D01*
G01*
X165243200Y-92429700D01*
G75*
G02*
X165318200Y-92504700I0J-75000D01*
G01*
G37*
G36*
G01*
X164818200Y-92504700D02*
X164818200Y-93829700D01*
G75*
G02*
X164743200Y-93904700I-75000J0D01*
G01*
X164593200Y-93904700D01*
G75*
G02*
X164518200Y-93829700I0J75000D01*
G01*
X164518200Y-92504700D01*
G75*
G02*
X164593200Y-92429700I75000J0D01*
G01*
X164743200Y-92429700D01*
G75*
G02*
X164818200Y-92504700I0J-75000D01*
G01*
G37*
G36*
G01*
X164318200Y-92504700D02*
X164318200Y-93829700D01*
G75*
G02*
X164243200Y-93904700I-75000J0D01*
G01*
X164093200Y-93904700D01*
G75*
G02*
X164018200Y-93829700I0J75000D01*
G01*
X164018200Y-92504700D01*
G75*
G02*
X164093200Y-92429700I75000J0D01*
G01*
X164243200Y-92429700D01*
G75*
G02*
X164318200Y-92504700I0J-75000D01*
G01*
G37*
G36*
G01*
X163818200Y-92504700D02*
X163818200Y-93829700D01*
G75*
G02*
X163743200Y-93904700I-75000J0D01*
G01*
X163593200Y-93904700D01*
G75*
G02*
X163518200Y-93829700I0J75000D01*
G01*
X163518200Y-92504700D01*
G75*
G02*
X163593200Y-92429700I75000J0D01*
G01*
X163743200Y-92429700D01*
G75*
G02*
X163818200Y-92504700I0J-75000D01*
G01*
G37*
G36*
G01*
X163318200Y-92504700D02*
X163318200Y-93829700D01*
G75*
G02*
X163243200Y-93904700I-75000J0D01*
G01*
X163093200Y-93904700D01*
G75*
G02*
X163018200Y-93829700I0J75000D01*
G01*
X163018200Y-92504700D01*
G75*
G02*
X163093200Y-92429700I75000J0D01*
G01*
X163243200Y-92429700D01*
G75*
G02*
X163318200Y-92504700I0J-75000D01*
G01*
G37*
G36*
G01*
X162818200Y-92504700D02*
X162818200Y-93829700D01*
G75*
G02*
X162743200Y-93904700I-75000J0D01*
G01*
X162593200Y-93904700D01*
G75*
G02*
X162518200Y-93829700I0J75000D01*
G01*
X162518200Y-92504700D01*
G75*
G02*
X162593200Y-92429700I75000J0D01*
G01*
X162743200Y-92429700D01*
G75*
G02*
X162818200Y-92504700I0J-75000D01*
G01*
G37*
G36*
G01*
X162318200Y-92504700D02*
X162318200Y-93829700D01*
G75*
G02*
X162243200Y-93904700I-75000J0D01*
G01*
X162093200Y-93904700D01*
G75*
G02*
X162018200Y-93829700I0J75000D01*
G01*
X162018200Y-92504700D01*
G75*
G02*
X162093200Y-92429700I75000J0D01*
G01*
X162243200Y-92429700D01*
G75*
G02*
X162318200Y-92504700I0J-75000D01*
G01*
G37*
G36*
G01*
X161818200Y-92504700D02*
X161818200Y-93829700D01*
G75*
G02*
X161743200Y-93904700I-75000J0D01*
G01*
X161593200Y-93904700D01*
G75*
G02*
X161518200Y-93829700I0J75000D01*
G01*
X161518200Y-92504700D01*
G75*
G02*
X161593200Y-92429700I75000J0D01*
G01*
X161743200Y-92429700D01*
G75*
G02*
X161818200Y-92504700I0J-75000D01*
G01*
G37*
G36*
G01*
X160993200Y-94504700D02*
X160993200Y-94654700D01*
G75*
G02*
X160918200Y-94729700I-75000J0D01*
G01*
X159593200Y-94729700D01*
G75*
G02*
X159518200Y-94654700I0J75000D01*
G01*
X159518200Y-94504700D01*
G75*
G02*
X159593200Y-94429700I75000J0D01*
G01*
X160918200Y-94429700D01*
G75*
G02*
X160993200Y-94504700I0J-75000D01*
G01*
G37*
G36*
G01*
X160993200Y-95004700D02*
X160993200Y-95154700D01*
G75*
G02*
X160918200Y-95229700I-75000J0D01*
G01*
X159593200Y-95229700D01*
G75*
G02*
X159518200Y-95154700I0J75000D01*
G01*
X159518200Y-95004700D01*
G75*
G02*
X159593200Y-94929700I75000J0D01*
G01*
X160918200Y-94929700D01*
G75*
G02*
X160993200Y-95004700I0J-75000D01*
G01*
G37*
G36*
G01*
X160993200Y-95504700D02*
X160993200Y-95654700D01*
G75*
G02*
X160918200Y-95729700I-75000J0D01*
G01*
X159593200Y-95729700D01*
G75*
G02*
X159518200Y-95654700I0J75000D01*
G01*
X159518200Y-95504700D01*
G75*
G02*
X159593200Y-95429700I75000J0D01*
G01*
X160918200Y-95429700D01*
G75*
G02*
X160993200Y-95504700I0J-75000D01*
G01*
G37*
G36*
G01*
X160993200Y-96004700D02*
X160993200Y-96154700D01*
G75*
G02*
X160918200Y-96229700I-75000J0D01*
G01*
X159593200Y-96229700D01*
G75*
G02*
X159518200Y-96154700I0J75000D01*
G01*
X159518200Y-96004700D01*
G75*
G02*
X159593200Y-95929700I75000J0D01*
G01*
X160918200Y-95929700D01*
G75*
G02*
X160993200Y-96004700I0J-75000D01*
G01*
G37*
G36*
G01*
X160993200Y-96504700D02*
X160993200Y-96654700D01*
G75*
G02*
X160918200Y-96729700I-75000J0D01*
G01*
X159593200Y-96729700D01*
G75*
G02*
X159518200Y-96654700I0J75000D01*
G01*
X159518200Y-96504700D01*
G75*
G02*
X159593200Y-96429700I75000J0D01*
G01*
X160918200Y-96429700D01*
G75*
G02*
X160993200Y-96504700I0J-75000D01*
G01*
G37*
G36*
G01*
X160993200Y-97004700D02*
X160993200Y-97154700D01*
G75*
G02*
X160918200Y-97229700I-75000J0D01*
G01*
X159593200Y-97229700D01*
G75*
G02*
X159518200Y-97154700I0J75000D01*
G01*
X159518200Y-97004700D01*
G75*
G02*
X159593200Y-96929700I75000J0D01*
G01*
X160918200Y-96929700D01*
G75*
G02*
X160993200Y-97004700I0J-75000D01*
G01*
G37*
G36*
G01*
X160993200Y-97504700D02*
X160993200Y-97654700D01*
G75*
G02*
X160918200Y-97729700I-75000J0D01*
G01*
X159593200Y-97729700D01*
G75*
G02*
X159518200Y-97654700I0J75000D01*
G01*
X159518200Y-97504700D01*
G75*
G02*
X159593200Y-97429700I75000J0D01*
G01*
X160918200Y-97429700D01*
G75*
G02*
X160993200Y-97504700I0J-75000D01*
G01*
G37*
G36*
G01*
X160993200Y-98004700D02*
X160993200Y-98154700D01*
G75*
G02*
X160918200Y-98229700I-75000J0D01*
G01*
X159593200Y-98229700D01*
G75*
G02*
X159518200Y-98154700I0J75000D01*
G01*
X159518200Y-98004700D01*
G75*
G02*
X159593200Y-97929700I75000J0D01*
G01*
X160918200Y-97929700D01*
G75*
G02*
X160993200Y-98004700I0J-75000D01*
G01*
G37*
G36*
G01*
X160993200Y-98504700D02*
X160993200Y-98654700D01*
G75*
G02*
X160918200Y-98729700I-75000J0D01*
G01*
X159593200Y-98729700D01*
G75*
G02*
X159518200Y-98654700I0J75000D01*
G01*
X159518200Y-98504700D01*
G75*
G02*
X159593200Y-98429700I75000J0D01*
G01*
X160918200Y-98429700D01*
G75*
G02*
X160993200Y-98504700I0J-75000D01*
G01*
G37*
G36*
G01*
X160993200Y-99004700D02*
X160993200Y-99154700D01*
G75*
G02*
X160918200Y-99229700I-75000J0D01*
G01*
X159593200Y-99229700D01*
G75*
G02*
X159518200Y-99154700I0J75000D01*
G01*
X159518200Y-99004700D01*
G75*
G02*
X159593200Y-98929700I75000J0D01*
G01*
X160918200Y-98929700D01*
G75*
G02*
X160993200Y-99004700I0J-75000D01*
G01*
G37*
G36*
G01*
X160993200Y-99504700D02*
X160993200Y-99654700D01*
G75*
G02*
X160918200Y-99729700I-75000J0D01*
G01*
X159593200Y-99729700D01*
G75*
G02*
X159518200Y-99654700I0J75000D01*
G01*
X159518200Y-99504700D01*
G75*
G02*
X159593200Y-99429700I75000J0D01*
G01*
X160918200Y-99429700D01*
G75*
G02*
X160993200Y-99504700I0J-75000D01*
G01*
G37*
G36*
G01*
X160993200Y-100004700D02*
X160993200Y-100154700D01*
G75*
G02*
X160918200Y-100229700I-75000J0D01*
G01*
X159593200Y-100229700D01*
G75*
G02*
X159518200Y-100154700I0J75000D01*
G01*
X159518200Y-100004700D01*
G75*
G02*
X159593200Y-99929700I75000J0D01*
G01*
X160918200Y-99929700D01*
G75*
G02*
X160993200Y-100004700I0J-75000D01*
G01*
G37*
G36*
G01*
X161818200Y-100829700D02*
X161818200Y-102154700D01*
G75*
G02*
X161743200Y-102229700I-75000J0D01*
G01*
X161593200Y-102229700D01*
G75*
G02*
X161518200Y-102154700I0J75000D01*
G01*
X161518200Y-100829700D01*
G75*
G02*
X161593200Y-100754700I75000J0D01*
G01*
X161743200Y-100754700D01*
G75*
G02*
X161818200Y-100829700I0J-75000D01*
G01*
G37*
G36*
G01*
X162318200Y-100829700D02*
X162318200Y-102154700D01*
G75*
G02*
X162243200Y-102229700I-75000J0D01*
G01*
X162093200Y-102229700D01*
G75*
G02*
X162018200Y-102154700I0J75000D01*
G01*
X162018200Y-100829700D01*
G75*
G02*
X162093200Y-100754700I75000J0D01*
G01*
X162243200Y-100754700D01*
G75*
G02*
X162318200Y-100829700I0J-75000D01*
G01*
G37*
G36*
G01*
X162818200Y-100829700D02*
X162818200Y-102154700D01*
G75*
G02*
X162743200Y-102229700I-75000J0D01*
G01*
X162593200Y-102229700D01*
G75*
G02*
X162518200Y-102154700I0J75000D01*
G01*
X162518200Y-100829700D01*
G75*
G02*
X162593200Y-100754700I75000J0D01*
G01*
X162743200Y-100754700D01*
G75*
G02*
X162818200Y-100829700I0J-75000D01*
G01*
G37*
G36*
G01*
X163318200Y-100829700D02*
X163318200Y-102154700D01*
G75*
G02*
X163243200Y-102229700I-75000J0D01*
G01*
X163093200Y-102229700D01*
G75*
G02*
X163018200Y-102154700I0J75000D01*
G01*
X163018200Y-100829700D01*
G75*
G02*
X163093200Y-100754700I75000J0D01*
G01*
X163243200Y-100754700D01*
G75*
G02*
X163318200Y-100829700I0J-75000D01*
G01*
G37*
G36*
G01*
X163818200Y-100829700D02*
X163818200Y-102154700D01*
G75*
G02*
X163743200Y-102229700I-75000J0D01*
G01*
X163593200Y-102229700D01*
G75*
G02*
X163518200Y-102154700I0J75000D01*
G01*
X163518200Y-100829700D01*
G75*
G02*
X163593200Y-100754700I75000J0D01*
G01*
X163743200Y-100754700D01*
G75*
G02*
X163818200Y-100829700I0J-75000D01*
G01*
G37*
G36*
G01*
X164318200Y-100829700D02*
X164318200Y-102154700D01*
G75*
G02*
X164243200Y-102229700I-75000J0D01*
G01*
X164093200Y-102229700D01*
G75*
G02*
X164018200Y-102154700I0J75000D01*
G01*
X164018200Y-100829700D01*
G75*
G02*
X164093200Y-100754700I75000J0D01*
G01*
X164243200Y-100754700D01*
G75*
G02*
X164318200Y-100829700I0J-75000D01*
G01*
G37*
G36*
G01*
X164818200Y-100829700D02*
X164818200Y-102154700D01*
G75*
G02*
X164743200Y-102229700I-75000J0D01*
G01*
X164593200Y-102229700D01*
G75*
G02*
X164518200Y-102154700I0J75000D01*
G01*
X164518200Y-100829700D01*
G75*
G02*
X164593200Y-100754700I75000J0D01*
G01*
X164743200Y-100754700D01*
G75*
G02*
X164818200Y-100829700I0J-75000D01*
G01*
G37*
G36*
G01*
X165318200Y-100829700D02*
X165318200Y-102154700D01*
G75*
G02*
X165243200Y-102229700I-75000J0D01*
G01*
X165093200Y-102229700D01*
G75*
G02*
X165018200Y-102154700I0J75000D01*
G01*
X165018200Y-100829700D01*
G75*
G02*
X165093200Y-100754700I75000J0D01*
G01*
X165243200Y-100754700D01*
G75*
G02*
X165318200Y-100829700I0J-75000D01*
G01*
G37*
G36*
G01*
X165818200Y-100829700D02*
X165818200Y-102154700D01*
G75*
G02*
X165743200Y-102229700I-75000J0D01*
G01*
X165593200Y-102229700D01*
G75*
G02*
X165518200Y-102154700I0J75000D01*
G01*
X165518200Y-100829700D01*
G75*
G02*
X165593200Y-100754700I75000J0D01*
G01*
X165743200Y-100754700D01*
G75*
G02*
X165818200Y-100829700I0J-75000D01*
G01*
G37*
G36*
G01*
X166318200Y-100829700D02*
X166318200Y-102154700D01*
G75*
G02*
X166243200Y-102229700I-75000J0D01*
G01*
X166093200Y-102229700D01*
G75*
G02*
X166018200Y-102154700I0J75000D01*
G01*
X166018200Y-100829700D01*
G75*
G02*
X166093200Y-100754700I75000J0D01*
G01*
X166243200Y-100754700D01*
G75*
G02*
X166318200Y-100829700I0J-75000D01*
G01*
G37*
G36*
G01*
X166818200Y-100829700D02*
X166818200Y-102154700D01*
G75*
G02*
X166743200Y-102229700I-75000J0D01*
G01*
X166593200Y-102229700D01*
G75*
G02*
X166518200Y-102154700I0J75000D01*
G01*
X166518200Y-100829700D01*
G75*
G02*
X166593200Y-100754700I75000J0D01*
G01*
X166743200Y-100754700D01*
G75*
G02*
X166818200Y-100829700I0J-75000D01*
G01*
G37*
G36*
G01*
X167318200Y-100829700D02*
X167318200Y-102154700D01*
G75*
G02*
X167243200Y-102229700I-75000J0D01*
G01*
X167093200Y-102229700D01*
G75*
G02*
X167018200Y-102154700I0J75000D01*
G01*
X167018200Y-100829700D01*
G75*
G02*
X167093200Y-100754700I75000J0D01*
G01*
X167243200Y-100754700D01*
G75*
G02*
X167318200Y-100829700I0J-75000D01*
G01*
G37*
%TD*%
D17*
%TO.C,Y1*%
X174227600Y-102083200D03*
X176377600Y-102083200D03*
X176377600Y-100533200D03*
X174227600Y-100533200D03*
%TD*%
D14*
%TO.C,Q3*%
X147796000Y-89657000D03*
X147796000Y-87757000D03*
X145796000Y-88707000D03*
%TD*%
%TO.C,R24*%
G36*
G01*
X150195500Y-87843000D02*
X150540500Y-87843000D01*
G75*
G02*
X150688000Y-87990500I0J-147500D01*
G01*
X150688000Y-88285500D01*
G75*
G02*
X150540500Y-88433000I-147500J0D01*
G01*
X150195500Y-88433000D01*
G75*
G02*
X150048000Y-88285500I0J147500D01*
G01*
X150048000Y-87990500D01*
G75*
G02*
X150195500Y-87843000I147500J0D01*
G01*
G37*
G36*
G01*
X150195500Y-88813000D02*
X150540500Y-88813000D01*
G75*
G02*
X150688000Y-88960500I0J-147500D01*
G01*
X150688000Y-89255500D01*
G75*
G02*
X150540500Y-89403000I-147500J0D01*
G01*
X150195500Y-89403000D01*
G75*
G02*
X150048000Y-89255500I0J147500D01*
G01*
X150048000Y-88960500D01*
G75*
G02*
X150195500Y-88813000I147500J0D01*
G01*
G37*
%TD*%
%TO.C,R25*%
G36*
G01*
X149397500Y-88433000D02*
X149052500Y-88433000D01*
G75*
G02*
X148905000Y-88285500I0J147500D01*
G01*
X148905000Y-87990500D01*
G75*
G02*
X149052500Y-87843000I147500J0D01*
G01*
X149397500Y-87843000D01*
G75*
G02*
X149545000Y-87990500I0J-147500D01*
G01*
X149545000Y-88285500D01*
G75*
G02*
X149397500Y-88433000I-147500J0D01*
G01*
G37*
G36*
G01*
X149397500Y-89403000D02*
X149052500Y-89403000D01*
G75*
G02*
X148905000Y-89255500I0J147500D01*
G01*
X148905000Y-88960500D01*
G75*
G02*
X149052500Y-88813000I147500J0D01*
G01*
X149397500Y-88813000D01*
G75*
G02*
X149545000Y-88960500I0J-147500D01*
G01*
X149545000Y-89255500D01*
G75*
G02*
X149397500Y-89403000I-147500J0D01*
G01*
G37*
%TD*%
%TO.C,C19*%
G36*
G01*
X173779400Y-93197900D02*
X173779400Y-93542900D01*
G75*
G02*
X173631900Y-93690400I-147500J0D01*
G01*
X173336900Y-93690400D01*
G75*
G02*
X173189400Y-93542900I0J147500D01*
G01*
X173189400Y-93197900D01*
G75*
G02*
X173336900Y-93050400I147500J0D01*
G01*
X173631900Y-93050400D01*
G75*
G02*
X173779400Y-93197900I0J-147500D01*
G01*
G37*
G36*
G01*
X172809400Y-93197900D02*
X172809400Y-93542900D01*
G75*
G02*
X172661900Y-93690400I-147500J0D01*
G01*
X172366900Y-93690400D01*
G75*
G02*
X172219400Y-93542900I0J147500D01*
G01*
X172219400Y-93197900D01*
G75*
G02*
X172366900Y-93050400I147500J0D01*
G01*
X172661900Y-93050400D01*
G75*
G02*
X172809400Y-93197900I0J-147500D01*
G01*
G37*
%TD*%
%TO.C,C20*%
G36*
G01*
X168468400Y-103662700D02*
X168468400Y-104007700D01*
G75*
G02*
X168320900Y-104155200I-147500J0D01*
G01*
X168025900Y-104155200D01*
G75*
G02*
X167878400Y-104007700I0J147500D01*
G01*
X167878400Y-103662700D01*
G75*
G02*
X168025900Y-103515200I147500J0D01*
G01*
X168320900Y-103515200D01*
G75*
G02*
X168468400Y-103662700I0J-147500D01*
G01*
G37*
G36*
G01*
X167498400Y-103662700D02*
X167498400Y-104007700D01*
G75*
G02*
X167350900Y-104155200I-147500J0D01*
G01*
X167055900Y-104155200D01*
G75*
G02*
X166908400Y-104007700I0J147500D01*
G01*
X166908400Y-103662700D01*
G75*
G02*
X167055900Y-103515200I147500J0D01*
G01*
X167350900Y-103515200D01*
G75*
G02*
X167498400Y-103662700I0J-147500D01*
G01*
G37*
%TD*%
M02*
