%TF.GenerationSoftware,KiCad,Pcbnew,(5.1.6)-1*%
%TF.CreationDate,2020-08-19T15:06:30+08:00*%
%TF.ProjectId,sl_v2,736c5f76-322e-46b6-9963-61645f706362,rev?*%
%TF.SameCoordinates,Original*%
%TF.FileFunction,Legend,Top*%
%TF.FilePolarity,Positive*%
%FSLAX46Y46*%
G04 Gerber Fmt 4.6, Leading zero omitted, Abs format (unit mm)*
G04 Created by KiCad (PCBNEW (5.1.6)-1) date 2020-08-19 15:06:30*
%MOMM*%
%LPD*%
G01*
G04 APERTURE LIST*
%ADD10C,0.150000*%
%ADD11C,0.120000*%
G04 APERTURE END LIST*
D10*
X130833904Y-107487980D02*
X130833904Y-106487980D01*
X131072000Y-106487980D01*
X131214857Y-106535600D01*
X131310095Y-106630838D01*
X131357714Y-106726076D01*
X131405333Y-106916552D01*
X131405333Y-107059409D01*
X131357714Y-107249885D01*
X131310095Y-107345123D01*
X131214857Y-107440361D01*
X131072000Y-107487980D01*
X130833904Y-107487980D01*
X131738666Y-106487980D02*
X132405333Y-106487980D01*
X131976761Y-107487980D01*
X130833904Y-104897180D02*
X130833904Y-103897180D01*
X131072000Y-103897180D01*
X131214857Y-103944800D01*
X131310095Y-104040038D01*
X131357714Y-104135276D01*
X131405333Y-104325752D01*
X131405333Y-104468609D01*
X131357714Y-104659085D01*
X131310095Y-104754323D01*
X131214857Y-104849561D01*
X131072000Y-104897180D01*
X130833904Y-104897180D01*
X132262476Y-103897180D02*
X132072000Y-103897180D01*
X131976761Y-103944800D01*
X131929142Y-103992419D01*
X131833904Y-104135276D01*
X131786285Y-104325752D01*
X131786285Y-104706704D01*
X131833904Y-104801942D01*
X131881523Y-104849561D01*
X131976761Y-104897180D01*
X132167238Y-104897180D01*
X132262476Y-104849561D01*
X132310095Y-104801942D01*
X132357714Y-104706704D01*
X132357714Y-104468609D01*
X132310095Y-104373371D01*
X132262476Y-104325752D01*
X132167238Y-104278133D01*
X131976761Y-104278133D01*
X131881523Y-104325752D01*
X131833904Y-104373371D01*
X131786285Y-104468609D01*
X130859304Y-102407980D02*
X130859304Y-101407980D01*
X131097400Y-101407980D01*
X131240257Y-101455600D01*
X131335495Y-101550838D01*
X131383114Y-101646076D01*
X131430733Y-101836552D01*
X131430733Y-101979409D01*
X131383114Y-102169885D01*
X131335495Y-102265123D01*
X131240257Y-102360361D01*
X131097400Y-102407980D01*
X130859304Y-102407980D01*
X132335495Y-101407980D02*
X131859304Y-101407980D01*
X131811685Y-101884171D01*
X131859304Y-101836552D01*
X131954542Y-101788933D01*
X132192638Y-101788933D01*
X132287876Y-101836552D01*
X132335495Y-101884171D01*
X132383114Y-101979409D01*
X132383114Y-102217504D01*
X132335495Y-102312742D01*
X132287876Y-102360361D01*
X132192638Y-102407980D01*
X131954542Y-102407980D01*
X131859304Y-102360361D01*
X131811685Y-102312742D01*
X130833904Y-99842580D02*
X130833904Y-98842580D01*
X131072000Y-98842580D01*
X131214857Y-98890200D01*
X131310095Y-98985438D01*
X131357714Y-99080676D01*
X131405333Y-99271152D01*
X131405333Y-99414009D01*
X131357714Y-99604485D01*
X131310095Y-99699723D01*
X131214857Y-99794961D01*
X131072000Y-99842580D01*
X130833904Y-99842580D01*
X132262476Y-99175914D02*
X132262476Y-99842580D01*
X132024380Y-98794961D02*
X131786285Y-99509247D01*
X132405333Y-99509247D01*
X130833904Y-97404180D02*
X130833904Y-96404180D01*
X131072000Y-96404180D01*
X131214857Y-96451800D01*
X131310095Y-96547038D01*
X131357714Y-96642276D01*
X131405333Y-96832752D01*
X131405333Y-96975609D01*
X131357714Y-97166085D01*
X131310095Y-97261323D01*
X131214857Y-97356561D01*
X131072000Y-97404180D01*
X130833904Y-97404180D01*
X131738666Y-96404180D02*
X132357714Y-96404180D01*
X132024380Y-96785133D01*
X132167238Y-96785133D01*
X132262476Y-96832752D01*
X132310095Y-96880371D01*
X132357714Y-96975609D01*
X132357714Y-97213704D01*
X132310095Y-97308942D01*
X132262476Y-97356561D01*
X132167238Y-97404180D01*
X131881523Y-97404180D01*
X131786285Y-97356561D01*
X131738666Y-97308942D01*
X130833904Y-94889580D02*
X130833904Y-93889580D01*
X131072000Y-93889580D01*
X131214857Y-93937200D01*
X131310095Y-94032438D01*
X131357714Y-94127676D01*
X131405333Y-94318152D01*
X131405333Y-94461009D01*
X131357714Y-94651485D01*
X131310095Y-94746723D01*
X131214857Y-94841961D01*
X131072000Y-94889580D01*
X130833904Y-94889580D01*
X131786285Y-93984819D02*
X131833904Y-93937200D01*
X131929142Y-93889580D01*
X132167238Y-93889580D01*
X132262476Y-93937200D01*
X132310095Y-93984819D01*
X132357714Y-94080057D01*
X132357714Y-94175295D01*
X132310095Y-94318152D01*
X131738666Y-94889580D01*
X132357714Y-94889580D01*
X130859304Y-92273380D02*
X130859304Y-91273380D01*
X131097400Y-91273380D01*
X131240257Y-91321000D01*
X131335495Y-91416238D01*
X131383114Y-91511476D01*
X131430733Y-91701952D01*
X131430733Y-91844809D01*
X131383114Y-92035285D01*
X131335495Y-92130523D01*
X131240257Y-92225761D01*
X131097400Y-92273380D01*
X130859304Y-92273380D01*
X132383114Y-92273380D02*
X131811685Y-92273380D01*
X132097400Y-92273380D02*
X132097400Y-91273380D01*
X132002161Y-91416238D01*
X131906923Y-91511476D01*
X131811685Y-91559095D01*
X130783104Y-89758780D02*
X130783104Y-88758780D01*
X131021200Y-88758780D01*
X131164057Y-88806400D01*
X131259295Y-88901638D01*
X131306914Y-88996876D01*
X131354533Y-89187352D01*
X131354533Y-89330209D01*
X131306914Y-89520685D01*
X131259295Y-89615923D01*
X131164057Y-89711161D01*
X131021200Y-89758780D01*
X130783104Y-89758780D01*
X131973580Y-88758780D02*
X132068819Y-88758780D01*
X132164057Y-88806400D01*
X132211676Y-88854019D01*
X132259295Y-88949257D01*
X132306914Y-89139733D01*
X132306914Y-89377828D01*
X132259295Y-89568304D01*
X132211676Y-89663542D01*
X132164057Y-89711161D01*
X132068819Y-89758780D01*
X131973580Y-89758780D01*
X131878342Y-89711161D01*
X131830723Y-89663542D01*
X131783104Y-89568304D01*
X131735485Y-89377828D01*
X131735485Y-89139733D01*
X131783104Y-88949257D01*
X131830723Y-88854019D01*
X131878342Y-88806400D01*
X131973580Y-88758780D01*
D11*
%TO.C,J2*%
X125349000Y-87884000D02*
X125349000Y-108204000D01*
X125349000Y-108204000D02*
X130429000Y-108204000D01*
X130429000Y-108204000D02*
X130429000Y-87884000D01*
X130429000Y-87884000D02*
X125349000Y-87884000D01*
%TO.C,C2*%
X142873000Y-106771321D02*
X142873000Y-107096879D01*
X143893000Y-106771321D02*
X143893000Y-107096879D01*
%TO.C,U4*%
X137044200Y-94987600D02*
X138444200Y-94987600D01*
X138444200Y-92667600D02*
X136544200Y-92667600D01*
%TO.C,C5*%
X136916279Y-105789000D02*
X136590721Y-105789000D01*
X136916279Y-106809000D02*
X136590721Y-106809000D01*
%TO.C,D1*%
X158050700Y-97893200D02*
X155765700Y-97893200D01*
X158050700Y-99363200D02*
X158050700Y-97893200D01*
X155765700Y-99363200D02*
X158050700Y-99363200D01*
%TO.C,F1*%
X186034000Y-106080936D02*
X186034000Y-107285064D01*
X187854000Y-106080936D02*
X187854000Y-107285064D01*
%TO.C,J1*%
X191733000Y-102744000D02*
X191733000Y-93344000D01*
X185933000Y-93344000D02*
X187933000Y-93344000D01*
X189833000Y-93344000D02*
X191733000Y-93344000D01*
X185933000Y-102744000D02*
X187933000Y-102744000D01*
X189833000Y-102744000D02*
X191733000Y-102744000D01*
%TO.C,Q1*%
X139692600Y-87081200D02*
X141152600Y-87081200D01*
X139692600Y-90241200D02*
X141852600Y-90241200D01*
X139692600Y-90241200D02*
X139692600Y-89311200D01*
X139692600Y-87081200D02*
X139692600Y-88011200D01*
%TO.C,Q2*%
X151286100Y-104115900D02*
X148856100Y-104115900D01*
X149526100Y-107185900D02*
X151286100Y-107185900D01*
%TO.C,U1*%
X139612800Y-107032700D02*
X142062800Y-107032700D01*
X141412800Y-103812700D02*
X139612800Y-103812700D01*
%TO.C,U2*%
X173747200Y-103205600D02*
X170297200Y-103205600D01*
X173747200Y-103205600D02*
X175697200Y-103205600D01*
X173747200Y-108325600D02*
X171797200Y-108325600D01*
X173747200Y-108325600D02*
X175697200Y-108325600D01*
%TO.C,U3*%
X168028200Y-100489700D02*
X169318200Y-100489700D01*
X168028200Y-100939700D02*
X168028200Y-100489700D01*
X167578200Y-100939700D02*
X168028200Y-100939700D01*
X160808200Y-100939700D02*
X160808200Y-100489700D01*
X161258200Y-100939700D02*
X160808200Y-100939700D01*
X168028200Y-93719700D02*
X168028200Y-94169700D01*
X167578200Y-93719700D02*
X168028200Y-93719700D01*
X160808200Y-93719700D02*
X160808200Y-94169700D01*
X161258200Y-93719700D02*
X160808200Y-93719700D01*
%TO.C,Q3*%
X146036000Y-87127000D02*
X146036000Y-88057000D01*
X146036000Y-90287000D02*
X146036000Y-89357000D01*
X146036000Y-90287000D02*
X148196000Y-90287000D01*
X146036000Y-87127000D02*
X147496000Y-87127000D01*
%TO.C,J2*%
D10*
X127428666Y-108469180D02*
X127428666Y-109183466D01*
X127381047Y-109326323D01*
X127285809Y-109421561D01*
X127142952Y-109469180D01*
X127047714Y-109469180D01*
X127857238Y-108564419D02*
X127904857Y-108516800D01*
X128000095Y-108469180D01*
X128238190Y-108469180D01*
X128333428Y-108516800D01*
X128381047Y-108564419D01*
X128428666Y-108659657D01*
X128428666Y-108754895D01*
X128381047Y-108897752D01*
X127809619Y-109469180D01*
X128428666Y-109469180D01*
%TO.C,C2*%
X145170142Y-107100766D02*
X145217761Y-107148385D01*
X145265380Y-107291242D01*
X145265380Y-107386480D01*
X145217761Y-107529338D01*
X145122523Y-107624576D01*
X145027285Y-107672195D01*
X144836809Y-107719814D01*
X144693952Y-107719814D01*
X144503476Y-107672195D01*
X144408238Y-107624576D01*
X144313000Y-107529338D01*
X144265380Y-107386480D01*
X144265380Y-107291242D01*
X144313000Y-107148385D01*
X144360619Y-107100766D01*
X144360619Y-106719814D02*
X144313000Y-106672195D01*
X144265380Y-106576957D01*
X144265380Y-106338861D01*
X144313000Y-106243623D01*
X144360619Y-106196004D01*
X144455857Y-106148385D01*
X144551095Y-106148385D01*
X144693952Y-106196004D01*
X145265380Y-106767433D01*
X145265380Y-106148385D01*
%TO.C,R15*%
X175988742Y-109596180D02*
X175655409Y-109119990D01*
X175417314Y-109596180D02*
X175417314Y-108596180D01*
X175798266Y-108596180D01*
X175893504Y-108643800D01*
X175941123Y-108691419D01*
X175988742Y-108786657D01*
X175988742Y-108929514D01*
X175941123Y-109024752D01*
X175893504Y-109072371D01*
X175798266Y-109119990D01*
X175417314Y-109119990D01*
X176941123Y-109596180D02*
X176369695Y-109596180D01*
X176655409Y-109596180D02*
X176655409Y-108596180D01*
X176560171Y-108739038D01*
X176464933Y-108834276D01*
X176369695Y-108881895D01*
X177845885Y-108596180D02*
X177369695Y-108596180D01*
X177322076Y-109072371D01*
X177369695Y-109024752D01*
X177464933Y-108977133D01*
X177703028Y-108977133D01*
X177798266Y-109024752D01*
X177845885Y-109072371D01*
X177893504Y-109167609D01*
X177893504Y-109405704D01*
X177845885Y-109500942D01*
X177798266Y-109548561D01*
X177703028Y-109596180D01*
X177464933Y-109596180D01*
X177369695Y-109548561D01*
X177322076Y-109500942D01*
%TO.C,R22*%
X164685742Y-106852980D02*
X164352409Y-106376790D01*
X164114314Y-106852980D02*
X164114314Y-105852980D01*
X164495266Y-105852980D01*
X164590504Y-105900600D01*
X164638123Y-105948219D01*
X164685742Y-106043457D01*
X164685742Y-106186314D01*
X164638123Y-106281552D01*
X164590504Y-106329171D01*
X164495266Y-106376790D01*
X164114314Y-106376790D01*
X165066695Y-105948219D02*
X165114314Y-105900600D01*
X165209552Y-105852980D01*
X165447647Y-105852980D01*
X165542885Y-105900600D01*
X165590504Y-105948219D01*
X165638123Y-106043457D01*
X165638123Y-106138695D01*
X165590504Y-106281552D01*
X165019076Y-106852980D01*
X165638123Y-106852980D01*
X166019076Y-105948219D02*
X166066695Y-105900600D01*
X166161933Y-105852980D01*
X166400028Y-105852980D01*
X166495266Y-105900600D01*
X166542885Y-105948219D01*
X166590504Y-106043457D01*
X166590504Y-106138695D01*
X166542885Y-106281552D01*
X165971457Y-106852980D01*
X166590504Y-106852980D01*
%TO.C,C10*%
X161393142Y-107424457D02*
X161440761Y-107472076D01*
X161488380Y-107614933D01*
X161488380Y-107710171D01*
X161440761Y-107853028D01*
X161345523Y-107948266D01*
X161250285Y-107995885D01*
X161059809Y-108043504D01*
X160916952Y-108043504D01*
X160726476Y-107995885D01*
X160631238Y-107948266D01*
X160536000Y-107853028D01*
X160488380Y-107710171D01*
X160488380Y-107614933D01*
X160536000Y-107472076D01*
X160583619Y-107424457D01*
X161488380Y-106472076D02*
X161488380Y-107043504D01*
X161488380Y-106757790D02*
X160488380Y-106757790D01*
X160631238Y-106853028D01*
X160726476Y-106948266D01*
X160774095Y-107043504D01*
X160488380Y-105853028D02*
X160488380Y-105757790D01*
X160536000Y-105662552D01*
X160583619Y-105614933D01*
X160678857Y-105567314D01*
X160869333Y-105519695D01*
X161107428Y-105519695D01*
X161297904Y-105567314D01*
X161393142Y-105614933D01*
X161440761Y-105662552D01*
X161488380Y-105757790D01*
X161488380Y-105853028D01*
X161440761Y-105948266D01*
X161393142Y-105995885D01*
X161297904Y-106043504D01*
X161107428Y-106091123D01*
X160869333Y-106091123D01*
X160678857Y-106043504D01*
X160583619Y-105995885D01*
X160536000Y-105948266D01*
X160488380Y-105853028D01*
%TO.C,U4*%
X136982295Y-91279980D02*
X136982295Y-92089504D01*
X137029914Y-92184742D01*
X137077533Y-92232361D01*
X137172771Y-92279980D01*
X137363247Y-92279980D01*
X137458485Y-92232361D01*
X137506104Y-92184742D01*
X137553723Y-92089504D01*
X137553723Y-91279980D01*
X138458485Y-91613314D02*
X138458485Y-92279980D01*
X138220390Y-91232361D02*
X137982295Y-91946647D01*
X138601342Y-91946647D01*
%TO.C,L3*%
X142403533Y-93644980D02*
X141927342Y-93644980D01*
X141927342Y-92644980D01*
X142641628Y-92644980D02*
X143260676Y-92644980D01*
X142927342Y-93025933D01*
X143070200Y-93025933D01*
X143165438Y-93073552D01*
X143213057Y-93121171D01*
X143260676Y-93216409D01*
X143260676Y-93454504D01*
X143213057Y-93549742D01*
X143165438Y-93597361D01*
X143070200Y-93644980D01*
X142784485Y-93644980D01*
X142689247Y-93597361D01*
X142641628Y-93549742D01*
%TO.C,C15*%
X142435342Y-95073742D02*
X142387723Y-95121361D01*
X142244866Y-95168980D01*
X142149628Y-95168980D01*
X142006771Y-95121361D01*
X141911533Y-95026123D01*
X141863914Y-94930885D01*
X141816295Y-94740409D01*
X141816295Y-94597552D01*
X141863914Y-94407076D01*
X141911533Y-94311838D01*
X142006771Y-94216600D01*
X142149628Y-94168980D01*
X142244866Y-94168980D01*
X142387723Y-94216600D01*
X142435342Y-94264219D01*
X143387723Y-95168980D02*
X142816295Y-95168980D01*
X143102009Y-95168980D02*
X143102009Y-94168980D01*
X143006771Y-94311838D01*
X142911533Y-94407076D01*
X142816295Y-94454695D01*
X144292485Y-94168980D02*
X143816295Y-94168980D01*
X143768676Y-94645171D01*
X143816295Y-94597552D01*
X143911533Y-94549933D01*
X144149628Y-94549933D01*
X144244866Y-94597552D01*
X144292485Y-94645171D01*
X144340104Y-94740409D01*
X144340104Y-94978504D01*
X144292485Y-95073742D01*
X144244866Y-95121361D01*
X144149628Y-95168980D01*
X143911533Y-95168980D01*
X143816295Y-95121361D01*
X143768676Y-95073742D01*
%TO.C,C1*%
X143282942Y-86272666D02*
X143330561Y-86320285D01*
X143378180Y-86463142D01*
X143378180Y-86558380D01*
X143330561Y-86701238D01*
X143235323Y-86796476D01*
X143140085Y-86844095D01*
X142949609Y-86891714D01*
X142806752Y-86891714D01*
X142616276Y-86844095D01*
X142521038Y-86796476D01*
X142425800Y-86701238D01*
X142378180Y-86558380D01*
X142378180Y-86463142D01*
X142425800Y-86320285D01*
X142473419Y-86272666D01*
X143378180Y-85320285D02*
X143378180Y-85891714D01*
X143378180Y-85606000D02*
X142378180Y-85606000D01*
X142521038Y-85701238D01*
X142616276Y-85796476D01*
X142663895Y-85891714D01*
%TO.C,C3*%
X161453533Y-90628742D02*
X161405914Y-90676361D01*
X161263057Y-90723980D01*
X161167819Y-90723980D01*
X161024961Y-90676361D01*
X160929723Y-90581123D01*
X160882104Y-90485885D01*
X160834485Y-90295409D01*
X160834485Y-90152552D01*
X160882104Y-89962076D01*
X160929723Y-89866838D01*
X161024961Y-89771600D01*
X161167819Y-89723980D01*
X161263057Y-89723980D01*
X161405914Y-89771600D01*
X161453533Y-89819219D01*
X161786866Y-89723980D02*
X162405914Y-89723980D01*
X162072580Y-90104933D01*
X162215438Y-90104933D01*
X162310676Y-90152552D01*
X162358295Y-90200171D01*
X162405914Y-90295409D01*
X162405914Y-90533504D01*
X162358295Y-90628742D01*
X162310676Y-90676361D01*
X162215438Y-90723980D01*
X161929723Y-90723980D01*
X161834485Y-90676361D01*
X161786866Y-90628742D01*
%TO.C,C4*%
X135037533Y-104090742D02*
X134989914Y-104138361D01*
X134847057Y-104185980D01*
X134751819Y-104185980D01*
X134608961Y-104138361D01*
X134513723Y-104043123D01*
X134466104Y-103947885D01*
X134418485Y-103757409D01*
X134418485Y-103614552D01*
X134466104Y-103424076D01*
X134513723Y-103328838D01*
X134608961Y-103233600D01*
X134751819Y-103185980D01*
X134847057Y-103185980D01*
X134989914Y-103233600D01*
X135037533Y-103281219D01*
X135894676Y-103519314D02*
X135894676Y-104185980D01*
X135656580Y-103138361D02*
X135418485Y-103852647D01*
X136037533Y-103852647D01*
%TO.C,C5*%
X133996133Y-106783142D02*
X133948514Y-106830761D01*
X133805657Y-106878380D01*
X133710419Y-106878380D01*
X133567561Y-106830761D01*
X133472323Y-106735523D01*
X133424704Y-106640285D01*
X133377085Y-106449809D01*
X133377085Y-106306952D01*
X133424704Y-106116476D01*
X133472323Y-106021238D01*
X133567561Y-105926000D01*
X133710419Y-105878380D01*
X133805657Y-105878380D01*
X133948514Y-105926000D01*
X133996133Y-105973619D01*
X134900895Y-105878380D02*
X134424704Y-105878380D01*
X134377085Y-106354571D01*
X134424704Y-106306952D01*
X134519942Y-106259333D01*
X134758038Y-106259333D01*
X134853276Y-106306952D01*
X134900895Y-106354571D01*
X134948514Y-106449809D01*
X134948514Y-106687904D01*
X134900895Y-106783142D01*
X134853276Y-106830761D01*
X134758038Y-106878380D01*
X134519942Y-106878380D01*
X134424704Y-106830761D01*
X134377085Y-106783142D01*
%TO.C,C6*%
X135012133Y-105335342D02*
X134964514Y-105382961D01*
X134821657Y-105430580D01*
X134726419Y-105430580D01*
X134583561Y-105382961D01*
X134488323Y-105287723D01*
X134440704Y-105192485D01*
X134393085Y-105002009D01*
X134393085Y-104859152D01*
X134440704Y-104668676D01*
X134488323Y-104573438D01*
X134583561Y-104478200D01*
X134726419Y-104430580D01*
X134821657Y-104430580D01*
X134964514Y-104478200D01*
X135012133Y-104525819D01*
X135869276Y-104430580D02*
X135678800Y-104430580D01*
X135583561Y-104478200D01*
X135535942Y-104525819D01*
X135440704Y-104668676D01*
X135393085Y-104859152D01*
X135393085Y-105240104D01*
X135440704Y-105335342D01*
X135488323Y-105382961D01*
X135583561Y-105430580D01*
X135774038Y-105430580D01*
X135869276Y-105382961D01*
X135916895Y-105335342D01*
X135964514Y-105240104D01*
X135964514Y-105002009D01*
X135916895Y-104906771D01*
X135869276Y-104859152D01*
X135774038Y-104811533D01*
X135583561Y-104811533D01*
X135488323Y-104859152D01*
X135440704Y-104906771D01*
X135393085Y-105002009D01*
%TO.C,C7*%
X177099933Y-98350342D02*
X177052314Y-98397961D01*
X176909457Y-98445580D01*
X176814219Y-98445580D01*
X176671361Y-98397961D01*
X176576123Y-98302723D01*
X176528504Y-98207485D01*
X176480885Y-98017009D01*
X176480885Y-97874152D01*
X176528504Y-97683676D01*
X176576123Y-97588438D01*
X176671361Y-97493200D01*
X176814219Y-97445580D01*
X176909457Y-97445580D01*
X177052314Y-97493200D01*
X177099933Y-97540819D01*
X177433266Y-97445580D02*
X178099933Y-97445580D01*
X177671361Y-98445580D01*
%TO.C,C8*%
X170216533Y-102795342D02*
X170168914Y-102842961D01*
X170026057Y-102890580D01*
X169930819Y-102890580D01*
X169787961Y-102842961D01*
X169692723Y-102747723D01*
X169645104Y-102652485D01*
X169597485Y-102462009D01*
X169597485Y-102319152D01*
X169645104Y-102128676D01*
X169692723Y-102033438D01*
X169787961Y-101938200D01*
X169930819Y-101890580D01*
X170026057Y-101890580D01*
X170168914Y-101938200D01*
X170216533Y-101985819D01*
X170787961Y-102319152D02*
X170692723Y-102271533D01*
X170645104Y-102223914D01*
X170597485Y-102128676D01*
X170597485Y-102081057D01*
X170645104Y-101985819D01*
X170692723Y-101938200D01*
X170787961Y-101890580D01*
X170978438Y-101890580D01*
X171073676Y-101938200D01*
X171121295Y-101985819D01*
X171168914Y-102081057D01*
X171168914Y-102128676D01*
X171121295Y-102223914D01*
X171073676Y-102271533D01*
X170978438Y-102319152D01*
X170787961Y-102319152D01*
X170692723Y-102366771D01*
X170645104Y-102414390D01*
X170597485Y-102509628D01*
X170597485Y-102700104D01*
X170645104Y-102795342D01*
X170692723Y-102842961D01*
X170787961Y-102890580D01*
X170978438Y-102890580D01*
X171073676Y-102842961D01*
X171121295Y-102795342D01*
X171168914Y-102700104D01*
X171168914Y-102509628D01*
X171121295Y-102414390D01*
X171073676Y-102366771D01*
X170978438Y-102319152D01*
%TO.C,C9*%
X179452542Y-101563466D02*
X179500161Y-101611085D01*
X179547780Y-101753942D01*
X179547780Y-101849180D01*
X179500161Y-101992038D01*
X179404923Y-102087276D01*
X179309685Y-102134895D01*
X179119209Y-102182514D01*
X178976352Y-102182514D01*
X178785876Y-102134895D01*
X178690638Y-102087276D01*
X178595400Y-101992038D01*
X178547780Y-101849180D01*
X178547780Y-101753942D01*
X178595400Y-101611085D01*
X178643019Y-101563466D01*
X179547780Y-101087276D02*
X179547780Y-100896800D01*
X179500161Y-100801561D01*
X179452542Y-100753942D01*
X179309685Y-100658704D01*
X179119209Y-100611085D01*
X178738257Y-100611085D01*
X178643019Y-100658704D01*
X178595400Y-100706323D01*
X178547780Y-100801561D01*
X178547780Y-100992038D01*
X178595400Y-101087276D01*
X178643019Y-101134895D01*
X178738257Y-101182514D01*
X178976352Y-101182514D01*
X179071590Y-101134895D01*
X179119209Y-101087276D01*
X179166828Y-100992038D01*
X179166828Y-100801561D01*
X179119209Y-100706323D01*
X179071590Y-100658704D01*
X178976352Y-100611085D01*
%TO.C,C11*%
X160046942Y-107399057D02*
X160094561Y-107446676D01*
X160142180Y-107589533D01*
X160142180Y-107684771D01*
X160094561Y-107827628D01*
X159999323Y-107922866D01*
X159904085Y-107970485D01*
X159713609Y-108018104D01*
X159570752Y-108018104D01*
X159380276Y-107970485D01*
X159285038Y-107922866D01*
X159189800Y-107827628D01*
X159142180Y-107684771D01*
X159142180Y-107589533D01*
X159189800Y-107446676D01*
X159237419Y-107399057D01*
X160142180Y-106446676D02*
X160142180Y-107018104D01*
X160142180Y-106732390D02*
X159142180Y-106732390D01*
X159285038Y-106827628D01*
X159380276Y-106922866D01*
X159427895Y-107018104D01*
X160142180Y-105494295D02*
X160142180Y-106065723D01*
X160142180Y-105780009D02*
X159142180Y-105780009D01*
X159285038Y-105875247D01*
X159380276Y-105970485D01*
X159427895Y-106065723D01*
%TO.C,C12*%
X153992342Y-102058742D02*
X153944723Y-102106361D01*
X153801866Y-102153980D01*
X153706628Y-102153980D01*
X153563771Y-102106361D01*
X153468533Y-102011123D01*
X153420914Y-101915885D01*
X153373295Y-101725409D01*
X153373295Y-101582552D01*
X153420914Y-101392076D01*
X153468533Y-101296838D01*
X153563771Y-101201600D01*
X153706628Y-101153980D01*
X153801866Y-101153980D01*
X153944723Y-101201600D01*
X153992342Y-101249219D01*
X154944723Y-102153980D02*
X154373295Y-102153980D01*
X154659009Y-102153980D02*
X154659009Y-101153980D01*
X154563771Y-101296838D01*
X154468533Y-101392076D01*
X154373295Y-101439695D01*
X155325676Y-101249219D02*
X155373295Y-101201600D01*
X155468533Y-101153980D01*
X155706628Y-101153980D01*
X155801866Y-101201600D01*
X155849485Y-101249219D01*
X155897104Y-101344457D01*
X155897104Y-101439695D01*
X155849485Y-101582552D01*
X155278057Y-102153980D01*
X155897104Y-102153980D01*
%TO.C,C13*%
X163425142Y-107348257D02*
X163472761Y-107395876D01*
X163520380Y-107538733D01*
X163520380Y-107633971D01*
X163472761Y-107776828D01*
X163377523Y-107872066D01*
X163282285Y-107919685D01*
X163091809Y-107967304D01*
X162948952Y-107967304D01*
X162758476Y-107919685D01*
X162663238Y-107872066D01*
X162568000Y-107776828D01*
X162520380Y-107633971D01*
X162520380Y-107538733D01*
X162568000Y-107395876D01*
X162615619Y-107348257D01*
X163520380Y-106395876D02*
X163520380Y-106967304D01*
X163520380Y-106681590D02*
X162520380Y-106681590D01*
X162663238Y-106776828D01*
X162758476Y-106872066D01*
X162806095Y-106967304D01*
X162520380Y-106062542D02*
X162520380Y-105443495D01*
X162901333Y-105776828D01*
X162901333Y-105633971D01*
X162948952Y-105538733D01*
X162996571Y-105491114D01*
X163091809Y-105443495D01*
X163329904Y-105443495D01*
X163425142Y-105491114D01*
X163472761Y-105538733D01*
X163520380Y-105633971D01*
X163520380Y-105919685D01*
X163472761Y-106014923D01*
X163425142Y-106062542D01*
%TO.C,C14*%
X180433742Y-105513142D02*
X180386123Y-105560761D01*
X180243266Y-105608380D01*
X180148028Y-105608380D01*
X180005171Y-105560761D01*
X179909933Y-105465523D01*
X179862314Y-105370285D01*
X179814695Y-105179809D01*
X179814695Y-105036952D01*
X179862314Y-104846476D01*
X179909933Y-104751238D01*
X180005171Y-104656000D01*
X180148028Y-104608380D01*
X180243266Y-104608380D01*
X180386123Y-104656000D01*
X180433742Y-104703619D01*
X181386123Y-105608380D02*
X180814695Y-105608380D01*
X181100409Y-105608380D02*
X181100409Y-104608380D01*
X181005171Y-104751238D01*
X180909933Y-104846476D01*
X180814695Y-104894095D01*
X182243266Y-104941714D02*
X182243266Y-105608380D01*
X182005171Y-104560761D02*
X181767076Y-105275047D01*
X182386123Y-105275047D01*
%TO.C,C16*%
X155694142Y-106960942D02*
X155646523Y-107008561D01*
X155503666Y-107056180D01*
X155408428Y-107056180D01*
X155265571Y-107008561D01*
X155170333Y-106913323D01*
X155122714Y-106818085D01*
X155075095Y-106627609D01*
X155075095Y-106484752D01*
X155122714Y-106294276D01*
X155170333Y-106199038D01*
X155265571Y-106103800D01*
X155408428Y-106056180D01*
X155503666Y-106056180D01*
X155646523Y-106103800D01*
X155694142Y-106151419D01*
X156646523Y-107056180D02*
X156075095Y-107056180D01*
X156360809Y-107056180D02*
X156360809Y-106056180D01*
X156265571Y-106199038D01*
X156170333Y-106294276D01*
X156075095Y-106341895D01*
X157503666Y-106056180D02*
X157313190Y-106056180D01*
X157217952Y-106103800D01*
X157170333Y-106151419D01*
X157075095Y-106294276D01*
X157027476Y-106484752D01*
X157027476Y-106865704D01*
X157075095Y-106960942D01*
X157122714Y-107008561D01*
X157217952Y-107056180D01*
X157408428Y-107056180D01*
X157503666Y-107008561D01*
X157551285Y-106960942D01*
X157598904Y-106865704D01*
X157598904Y-106627609D01*
X157551285Y-106532371D01*
X157503666Y-106484752D01*
X157408428Y-106437133D01*
X157217952Y-106437133D01*
X157122714Y-106484752D01*
X157075095Y-106532371D01*
X157027476Y-106627609D01*
%TO.C,C17*%
X146118342Y-108256342D02*
X146070723Y-108303961D01*
X145927866Y-108351580D01*
X145832628Y-108351580D01*
X145689771Y-108303961D01*
X145594533Y-108208723D01*
X145546914Y-108113485D01*
X145499295Y-107923009D01*
X145499295Y-107780152D01*
X145546914Y-107589676D01*
X145594533Y-107494438D01*
X145689771Y-107399200D01*
X145832628Y-107351580D01*
X145927866Y-107351580D01*
X146070723Y-107399200D01*
X146118342Y-107446819D01*
X147070723Y-108351580D02*
X146499295Y-108351580D01*
X146785009Y-108351580D02*
X146785009Y-107351580D01*
X146689771Y-107494438D01*
X146594533Y-107589676D01*
X146499295Y-107637295D01*
X147404057Y-107351580D02*
X148070723Y-107351580D01*
X147642152Y-108351580D01*
%TO.C,C18*%
X174769542Y-96318342D02*
X174721923Y-96365961D01*
X174579066Y-96413580D01*
X174483828Y-96413580D01*
X174340971Y-96365961D01*
X174245733Y-96270723D01*
X174198114Y-96175485D01*
X174150495Y-95985009D01*
X174150495Y-95842152D01*
X174198114Y-95651676D01*
X174245733Y-95556438D01*
X174340971Y-95461200D01*
X174483828Y-95413580D01*
X174579066Y-95413580D01*
X174721923Y-95461200D01*
X174769542Y-95508819D01*
X175721923Y-96413580D02*
X175150495Y-96413580D01*
X175436209Y-96413580D02*
X175436209Y-95413580D01*
X175340971Y-95556438D01*
X175245733Y-95651676D01*
X175150495Y-95699295D01*
X176293352Y-95842152D02*
X176198114Y-95794533D01*
X176150495Y-95746914D01*
X176102876Y-95651676D01*
X176102876Y-95604057D01*
X176150495Y-95508819D01*
X176198114Y-95461200D01*
X176293352Y-95413580D01*
X176483828Y-95413580D01*
X176579066Y-95461200D01*
X176626685Y-95508819D01*
X176674304Y-95604057D01*
X176674304Y-95651676D01*
X176626685Y-95746914D01*
X176579066Y-95794533D01*
X176483828Y-95842152D01*
X176293352Y-95842152D01*
X176198114Y-95889771D01*
X176150495Y-95937390D01*
X176102876Y-96032628D01*
X176102876Y-96223104D01*
X176150495Y-96318342D01*
X176198114Y-96365961D01*
X176293352Y-96413580D01*
X176483828Y-96413580D01*
X176579066Y-96365961D01*
X176626685Y-96318342D01*
X176674304Y-96223104D01*
X176674304Y-96032628D01*
X176626685Y-95937390D01*
X176579066Y-95889771D01*
X176483828Y-95842152D01*
%TO.C,D1*%
X156081504Y-97607380D02*
X156081504Y-96607380D01*
X156319600Y-96607380D01*
X156462457Y-96655000D01*
X156557695Y-96750238D01*
X156605314Y-96845476D01*
X156652933Y-97035952D01*
X156652933Y-97178809D01*
X156605314Y-97369285D01*
X156557695Y-97464523D01*
X156462457Y-97559761D01*
X156319600Y-97607380D01*
X156081504Y-97607380D01*
X157605314Y-97607380D02*
X157033885Y-97607380D01*
X157319600Y-97607380D02*
X157319600Y-96607380D01*
X157224361Y-96750238D01*
X157129123Y-96845476D01*
X157033885Y-96893095D01*
%TO.C,F1*%
X188692571Y-107016333D02*
X188692571Y-107349666D01*
X189216380Y-107349666D02*
X188216380Y-107349666D01*
X188216380Y-106873476D01*
X189216380Y-105968714D02*
X189216380Y-106540142D01*
X189216380Y-106254428D02*
X188216380Y-106254428D01*
X188359238Y-106349666D01*
X188454476Y-106444904D01*
X188502095Y-106540142D01*
%TO.C,J1*%
X181036980Y-102009533D02*
X181751266Y-102009533D01*
X181894123Y-102057152D01*
X181989361Y-102152390D01*
X182036980Y-102295247D01*
X182036980Y-102390485D01*
X182036980Y-101009533D02*
X182036980Y-101580961D01*
X182036980Y-101295247D02*
X181036980Y-101295247D01*
X181179838Y-101390485D01*
X181275076Y-101485723D01*
X181322695Y-101580961D01*
%TO.C,L1*%
X165669933Y-105405180D02*
X165193742Y-105405180D01*
X165193742Y-104405180D01*
X166527076Y-105405180D02*
X165955647Y-105405180D01*
X166241361Y-105405180D02*
X166241361Y-104405180D01*
X166146123Y-104548038D01*
X166050885Y-104643276D01*
X165955647Y-104690895D01*
%TO.C,L2*%
X177074533Y-99588580D02*
X176598342Y-99588580D01*
X176598342Y-98588580D01*
X177360247Y-98683819D02*
X177407866Y-98636200D01*
X177503104Y-98588580D01*
X177741200Y-98588580D01*
X177836438Y-98636200D01*
X177884057Y-98683819D01*
X177931676Y-98779057D01*
X177931676Y-98874295D01*
X177884057Y-99017152D01*
X177312628Y-99588580D01*
X177931676Y-99588580D01*
%TO.C,L4*%
X174788533Y-95118180D02*
X174312342Y-95118180D01*
X174312342Y-94118180D01*
X175550438Y-94451514D02*
X175550438Y-95118180D01*
X175312342Y-94070561D02*
X175074247Y-94784847D01*
X175693295Y-94784847D01*
%TO.C,Q1*%
X140357361Y-91708819D02*
X140262123Y-91661200D01*
X140166885Y-91565961D01*
X140024028Y-91423104D01*
X139928790Y-91375485D01*
X139833552Y-91375485D01*
X139881171Y-91613580D02*
X139785933Y-91565961D01*
X139690695Y-91470723D01*
X139643076Y-91280247D01*
X139643076Y-90946914D01*
X139690695Y-90756438D01*
X139785933Y-90661200D01*
X139881171Y-90613580D01*
X140071647Y-90613580D01*
X140166885Y-90661200D01*
X140262123Y-90756438D01*
X140309742Y-90946914D01*
X140309742Y-91280247D01*
X140262123Y-91470723D01*
X140166885Y-91565961D01*
X140071647Y-91613580D01*
X139881171Y-91613580D01*
X141262123Y-91613580D02*
X140690695Y-91613580D01*
X140976409Y-91613580D02*
X140976409Y-90613580D01*
X140881171Y-90756438D01*
X140785933Y-90851676D01*
X140690695Y-90899295D01*
%TO.C,Q2*%
X150310861Y-103723519D02*
X150215623Y-103675900D01*
X150120385Y-103580661D01*
X149977528Y-103437804D01*
X149882290Y-103390185D01*
X149787052Y-103390185D01*
X149834671Y-103628280D02*
X149739433Y-103580661D01*
X149644195Y-103485423D01*
X149596576Y-103294947D01*
X149596576Y-102961614D01*
X149644195Y-102771138D01*
X149739433Y-102675900D01*
X149834671Y-102628280D01*
X150025147Y-102628280D01*
X150120385Y-102675900D01*
X150215623Y-102771138D01*
X150263242Y-102961614D01*
X150263242Y-103294947D01*
X150215623Y-103485423D01*
X150120385Y-103580661D01*
X150025147Y-103628280D01*
X149834671Y-103628280D01*
X150644195Y-102723519D02*
X150691814Y-102675900D01*
X150787052Y-102628280D01*
X151025147Y-102628280D01*
X151120385Y-102675900D01*
X151168004Y-102723519D01*
X151215623Y-102818757D01*
X151215623Y-102913995D01*
X151168004Y-103056852D01*
X150596576Y-103628280D01*
X151215623Y-103628280D01*
%TO.C,R1*%
X144546580Y-86247266D02*
X144070390Y-86580600D01*
X144546580Y-86818695D02*
X143546580Y-86818695D01*
X143546580Y-86437742D01*
X143594200Y-86342504D01*
X143641819Y-86294885D01*
X143737057Y-86247266D01*
X143879914Y-86247266D01*
X143975152Y-86294885D01*
X144022771Y-86342504D01*
X144070390Y-86437742D01*
X144070390Y-86818695D01*
X144546580Y-85294885D02*
X144546580Y-85866314D01*
X144546580Y-85580600D02*
X143546580Y-85580600D01*
X143689438Y-85675838D01*
X143784676Y-85771076D01*
X143832295Y-85866314D01*
%TO.C,R2*%
X144878380Y-104537666D02*
X144402190Y-104871000D01*
X144878380Y-105109095D02*
X143878380Y-105109095D01*
X143878380Y-104728142D01*
X143926000Y-104632904D01*
X143973619Y-104585285D01*
X144068857Y-104537666D01*
X144211714Y-104537666D01*
X144306952Y-104585285D01*
X144354571Y-104632904D01*
X144402190Y-104728142D01*
X144402190Y-105109095D01*
X143973619Y-104156714D02*
X143926000Y-104109095D01*
X143878380Y-104013857D01*
X143878380Y-103775761D01*
X143926000Y-103680523D01*
X143973619Y-103632904D01*
X144068857Y-103585285D01*
X144164095Y-103585285D01*
X144306952Y-103632904D01*
X144878380Y-104204333D01*
X144878380Y-103585285D01*
%TO.C,R3*%
X143213933Y-91182780D02*
X142880600Y-90706590D01*
X142642504Y-91182780D02*
X142642504Y-90182780D01*
X143023457Y-90182780D01*
X143118695Y-90230400D01*
X143166314Y-90278019D01*
X143213933Y-90373257D01*
X143213933Y-90516114D01*
X143166314Y-90611352D01*
X143118695Y-90658971D01*
X143023457Y-90706590D01*
X142642504Y-90706590D01*
X143547266Y-90182780D02*
X144166314Y-90182780D01*
X143832980Y-90563733D01*
X143975838Y-90563733D01*
X144071076Y-90611352D01*
X144118695Y-90658971D01*
X144166314Y-90754209D01*
X144166314Y-90992304D01*
X144118695Y-91087542D01*
X144071076Y-91135161D01*
X143975838Y-91182780D01*
X143690123Y-91182780D01*
X143594885Y-91135161D01*
X143547266Y-91087542D01*
%TO.C,R4*%
X134834333Y-87701380D02*
X134501000Y-87225190D01*
X134262904Y-87701380D02*
X134262904Y-86701380D01*
X134643857Y-86701380D01*
X134739095Y-86749000D01*
X134786714Y-86796619D01*
X134834333Y-86891857D01*
X134834333Y-87034714D01*
X134786714Y-87129952D01*
X134739095Y-87177571D01*
X134643857Y-87225190D01*
X134262904Y-87225190D01*
X135691476Y-87034714D02*
X135691476Y-87701380D01*
X135453380Y-86653761D02*
X135215285Y-87368047D01*
X135834333Y-87368047D01*
%TO.C,R5*%
X134580333Y-90368380D02*
X134247000Y-89892190D01*
X134008904Y-90368380D02*
X134008904Y-89368380D01*
X134389857Y-89368380D01*
X134485095Y-89416000D01*
X134532714Y-89463619D01*
X134580333Y-89558857D01*
X134580333Y-89701714D01*
X134532714Y-89796952D01*
X134485095Y-89844571D01*
X134389857Y-89892190D01*
X134008904Y-89892190D01*
X135485095Y-89368380D02*
X135008904Y-89368380D01*
X134961285Y-89844571D01*
X135008904Y-89796952D01*
X135104142Y-89749333D01*
X135342238Y-89749333D01*
X135437476Y-89796952D01*
X135485095Y-89844571D01*
X135532714Y-89939809D01*
X135532714Y-90177904D01*
X135485095Y-90273142D01*
X135437476Y-90320761D01*
X135342238Y-90368380D01*
X135104142Y-90368380D01*
X135008904Y-90320761D01*
X134961285Y-90273142D01*
%TO.C,R6*%
X180859133Y-100071180D02*
X180525800Y-99594990D01*
X180287704Y-100071180D02*
X180287704Y-99071180D01*
X180668657Y-99071180D01*
X180763895Y-99118800D01*
X180811514Y-99166419D01*
X180859133Y-99261657D01*
X180859133Y-99404514D01*
X180811514Y-99499752D01*
X180763895Y-99547371D01*
X180668657Y-99594990D01*
X180287704Y-99594990D01*
X181716276Y-99071180D02*
X181525800Y-99071180D01*
X181430561Y-99118800D01*
X181382942Y-99166419D01*
X181287704Y-99309276D01*
X181240085Y-99499752D01*
X181240085Y-99880704D01*
X181287704Y-99975942D01*
X181335323Y-100023561D01*
X181430561Y-100071180D01*
X181621038Y-100071180D01*
X181716276Y-100023561D01*
X181763895Y-99975942D01*
X181811514Y-99880704D01*
X181811514Y-99642609D01*
X181763895Y-99547371D01*
X181716276Y-99499752D01*
X181621038Y-99452133D01*
X181430561Y-99452133D01*
X181335323Y-99499752D01*
X181287704Y-99547371D01*
X181240085Y-99642609D01*
%TO.C,R7*%
X180884533Y-96184980D02*
X180551200Y-95708790D01*
X180313104Y-96184980D02*
X180313104Y-95184980D01*
X180694057Y-95184980D01*
X180789295Y-95232600D01*
X180836914Y-95280219D01*
X180884533Y-95375457D01*
X180884533Y-95518314D01*
X180836914Y-95613552D01*
X180789295Y-95661171D01*
X180694057Y-95708790D01*
X180313104Y-95708790D01*
X181217866Y-95184980D02*
X181884533Y-95184980D01*
X181455961Y-96184980D01*
%TO.C,R8*%
X180884533Y-98750380D02*
X180551200Y-98274190D01*
X180313104Y-98750380D02*
X180313104Y-97750380D01*
X180694057Y-97750380D01*
X180789295Y-97798000D01*
X180836914Y-97845619D01*
X180884533Y-97940857D01*
X180884533Y-98083714D01*
X180836914Y-98178952D01*
X180789295Y-98226571D01*
X180694057Y-98274190D01*
X180313104Y-98274190D01*
X181455961Y-98178952D02*
X181360723Y-98131333D01*
X181313104Y-98083714D01*
X181265485Y-97988476D01*
X181265485Y-97940857D01*
X181313104Y-97845619D01*
X181360723Y-97798000D01*
X181455961Y-97750380D01*
X181646438Y-97750380D01*
X181741676Y-97798000D01*
X181789295Y-97845619D01*
X181836914Y-97940857D01*
X181836914Y-97988476D01*
X181789295Y-98083714D01*
X181741676Y-98131333D01*
X181646438Y-98178952D01*
X181455961Y-98178952D01*
X181360723Y-98226571D01*
X181313104Y-98274190D01*
X181265485Y-98369428D01*
X181265485Y-98559904D01*
X181313104Y-98655142D01*
X181360723Y-98702761D01*
X181455961Y-98750380D01*
X181646438Y-98750380D01*
X181741676Y-98702761D01*
X181789295Y-98655142D01*
X181836914Y-98559904D01*
X181836914Y-98369428D01*
X181789295Y-98274190D01*
X181741676Y-98226571D01*
X181646438Y-98178952D01*
%TO.C,R9*%
X180884533Y-97454980D02*
X180551200Y-96978790D01*
X180313104Y-97454980D02*
X180313104Y-96454980D01*
X180694057Y-96454980D01*
X180789295Y-96502600D01*
X180836914Y-96550219D01*
X180884533Y-96645457D01*
X180884533Y-96788314D01*
X180836914Y-96883552D01*
X180789295Y-96931171D01*
X180694057Y-96978790D01*
X180313104Y-96978790D01*
X181360723Y-97454980D02*
X181551200Y-97454980D01*
X181646438Y-97407361D01*
X181694057Y-97359742D01*
X181789295Y-97216885D01*
X181836914Y-97026409D01*
X181836914Y-96645457D01*
X181789295Y-96550219D01*
X181741676Y-96502600D01*
X181646438Y-96454980D01*
X181455961Y-96454980D01*
X181360723Y-96502600D01*
X181313104Y-96550219D01*
X181265485Y-96645457D01*
X181265485Y-96883552D01*
X181313104Y-96978790D01*
X181360723Y-97026409D01*
X181455961Y-97074028D01*
X181646438Y-97074028D01*
X181741676Y-97026409D01*
X181789295Y-96978790D01*
X181836914Y-96883552D01*
%TO.C,R10*%
X134205742Y-108351580D02*
X133872409Y-107875390D01*
X133634314Y-108351580D02*
X133634314Y-107351580D01*
X134015266Y-107351580D01*
X134110504Y-107399200D01*
X134158123Y-107446819D01*
X134205742Y-107542057D01*
X134205742Y-107684914D01*
X134158123Y-107780152D01*
X134110504Y-107827771D01*
X134015266Y-107875390D01*
X133634314Y-107875390D01*
X135158123Y-108351580D02*
X134586695Y-108351580D01*
X134872409Y-108351580D02*
X134872409Y-107351580D01*
X134777171Y-107494438D01*
X134681933Y-107589676D01*
X134586695Y-107637295D01*
X135777171Y-107351580D02*
X135872409Y-107351580D01*
X135967647Y-107399200D01*
X136015266Y-107446819D01*
X136062885Y-107542057D01*
X136110504Y-107732533D01*
X136110504Y-107970628D01*
X136062885Y-108161104D01*
X136015266Y-108256342D01*
X135967647Y-108303961D01*
X135872409Y-108351580D01*
X135777171Y-108351580D01*
X135681933Y-108303961D01*
X135634314Y-108256342D01*
X135586695Y-108161104D01*
X135539076Y-107970628D01*
X135539076Y-107732533D01*
X135586695Y-107542057D01*
X135634314Y-107446819D01*
X135681933Y-107399200D01*
X135777171Y-107351580D01*
%TO.C,R11*%
X180484542Y-104236780D02*
X180151209Y-103760590D01*
X179913114Y-104236780D02*
X179913114Y-103236780D01*
X180294066Y-103236780D01*
X180389304Y-103284400D01*
X180436923Y-103332019D01*
X180484542Y-103427257D01*
X180484542Y-103570114D01*
X180436923Y-103665352D01*
X180389304Y-103712971D01*
X180294066Y-103760590D01*
X179913114Y-103760590D01*
X181436923Y-104236780D02*
X180865495Y-104236780D01*
X181151209Y-104236780D02*
X181151209Y-103236780D01*
X181055971Y-103379638D01*
X180960733Y-103474876D01*
X180865495Y-103522495D01*
X182389304Y-104236780D02*
X181817876Y-104236780D01*
X182103590Y-104236780D02*
X182103590Y-103236780D01*
X182008352Y-103379638D01*
X181913114Y-103474876D01*
X181817876Y-103522495D01*
%TO.C,R12*%
X153941542Y-100655380D02*
X153608209Y-100179190D01*
X153370114Y-100655380D02*
X153370114Y-99655380D01*
X153751066Y-99655380D01*
X153846304Y-99703000D01*
X153893923Y-99750619D01*
X153941542Y-99845857D01*
X153941542Y-99988714D01*
X153893923Y-100083952D01*
X153846304Y-100131571D01*
X153751066Y-100179190D01*
X153370114Y-100179190D01*
X154893923Y-100655380D02*
X154322495Y-100655380D01*
X154608209Y-100655380D02*
X154608209Y-99655380D01*
X154512971Y-99798238D01*
X154417733Y-99893476D01*
X154322495Y-99941095D01*
X155274876Y-99750619D02*
X155322495Y-99703000D01*
X155417733Y-99655380D01*
X155655828Y-99655380D01*
X155751066Y-99703000D01*
X155798685Y-99750619D01*
X155846304Y-99845857D01*
X155846304Y-99941095D01*
X155798685Y-100083952D01*
X155227257Y-100655380D01*
X155846304Y-100655380D01*
%TO.C,R13*%
X170121342Y-98521780D02*
X169788009Y-98045590D01*
X169549914Y-98521780D02*
X169549914Y-97521780D01*
X169930866Y-97521780D01*
X170026104Y-97569400D01*
X170073723Y-97617019D01*
X170121342Y-97712257D01*
X170121342Y-97855114D01*
X170073723Y-97950352D01*
X170026104Y-97997971D01*
X169930866Y-98045590D01*
X169549914Y-98045590D01*
X171073723Y-98521780D02*
X170502295Y-98521780D01*
X170788009Y-98521780D02*
X170788009Y-97521780D01*
X170692771Y-97664638D01*
X170597533Y-97759876D01*
X170502295Y-97807495D01*
X171407057Y-97521780D02*
X172026104Y-97521780D01*
X171692771Y-97902733D01*
X171835628Y-97902733D01*
X171930866Y-97950352D01*
X171978485Y-97997971D01*
X172026104Y-98093209D01*
X172026104Y-98331304D01*
X171978485Y-98426542D01*
X171930866Y-98474161D01*
X171835628Y-98521780D01*
X171549914Y-98521780D01*
X171454676Y-98474161D01*
X171407057Y-98426542D01*
%TO.C,R14*%
X171749980Y-100922057D02*
X171273790Y-101255390D01*
X171749980Y-101493485D02*
X170749980Y-101493485D01*
X170749980Y-101112533D01*
X170797600Y-101017295D01*
X170845219Y-100969676D01*
X170940457Y-100922057D01*
X171083314Y-100922057D01*
X171178552Y-100969676D01*
X171226171Y-101017295D01*
X171273790Y-101112533D01*
X171273790Y-101493485D01*
X171749980Y-99969676D02*
X171749980Y-100541104D01*
X171749980Y-100255390D02*
X170749980Y-100255390D01*
X170892838Y-100350628D01*
X170988076Y-100445866D01*
X171035695Y-100541104D01*
X171083314Y-99112533D02*
X171749980Y-99112533D01*
X170702361Y-99350628D02*
X171416647Y-99588723D01*
X171416647Y-98969676D01*
%TO.C,R16*%
X169003742Y-109646980D02*
X168670409Y-109170790D01*
X168432314Y-109646980D02*
X168432314Y-108646980D01*
X168813266Y-108646980D01*
X168908504Y-108694600D01*
X168956123Y-108742219D01*
X169003742Y-108837457D01*
X169003742Y-108980314D01*
X168956123Y-109075552D01*
X168908504Y-109123171D01*
X168813266Y-109170790D01*
X168432314Y-109170790D01*
X169956123Y-109646980D02*
X169384695Y-109646980D01*
X169670409Y-109646980D02*
X169670409Y-108646980D01*
X169575171Y-108789838D01*
X169479933Y-108885076D01*
X169384695Y-108932695D01*
X170813266Y-108646980D02*
X170622790Y-108646980D01*
X170527552Y-108694600D01*
X170479933Y-108742219D01*
X170384695Y-108885076D01*
X170337076Y-109075552D01*
X170337076Y-109456504D01*
X170384695Y-109551742D01*
X170432314Y-109599361D01*
X170527552Y-109646980D01*
X170718028Y-109646980D01*
X170813266Y-109599361D01*
X170860885Y-109551742D01*
X170908504Y-109456504D01*
X170908504Y-109218409D01*
X170860885Y-109123171D01*
X170813266Y-109075552D01*
X170718028Y-109027933D01*
X170527552Y-109027933D01*
X170432314Y-109075552D01*
X170384695Y-109123171D01*
X170337076Y-109218409D01*
%TO.C,R17*%
X155770342Y-105836980D02*
X155437009Y-105360790D01*
X155198914Y-105836980D02*
X155198914Y-104836980D01*
X155579866Y-104836980D01*
X155675104Y-104884600D01*
X155722723Y-104932219D01*
X155770342Y-105027457D01*
X155770342Y-105170314D01*
X155722723Y-105265552D01*
X155675104Y-105313171D01*
X155579866Y-105360790D01*
X155198914Y-105360790D01*
X156722723Y-105836980D02*
X156151295Y-105836980D01*
X156437009Y-105836980D02*
X156437009Y-104836980D01*
X156341771Y-104979838D01*
X156246533Y-105075076D01*
X156151295Y-105122695D01*
X157056057Y-104836980D02*
X157722723Y-104836980D01*
X157294152Y-105836980D01*
%TO.C,R18*%
X155719542Y-108351580D02*
X155386209Y-107875390D01*
X155148114Y-108351580D02*
X155148114Y-107351580D01*
X155529066Y-107351580D01*
X155624304Y-107399200D01*
X155671923Y-107446819D01*
X155719542Y-107542057D01*
X155719542Y-107684914D01*
X155671923Y-107780152D01*
X155624304Y-107827771D01*
X155529066Y-107875390D01*
X155148114Y-107875390D01*
X156671923Y-108351580D02*
X156100495Y-108351580D01*
X156386209Y-108351580D02*
X156386209Y-107351580D01*
X156290971Y-107494438D01*
X156195733Y-107589676D01*
X156100495Y-107637295D01*
X157243352Y-107780152D02*
X157148114Y-107732533D01*
X157100495Y-107684914D01*
X157052876Y-107589676D01*
X157052876Y-107542057D01*
X157100495Y-107446819D01*
X157148114Y-107399200D01*
X157243352Y-107351580D01*
X157433828Y-107351580D01*
X157529066Y-107399200D01*
X157576685Y-107446819D01*
X157624304Y-107542057D01*
X157624304Y-107589676D01*
X157576685Y-107684914D01*
X157529066Y-107732533D01*
X157433828Y-107780152D01*
X157243352Y-107780152D01*
X157148114Y-107827771D01*
X157100495Y-107875390D01*
X157052876Y-107970628D01*
X157052876Y-108161104D01*
X157100495Y-108256342D01*
X157148114Y-108303961D01*
X157243352Y-108351580D01*
X157433828Y-108351580D01*
X157529066Y-108303961D01*
X157576685Y-108256342D01*
X157624304Y-108161104D01*
X157624304Y-107970628D01*
X157576685Y-107875390D01*
X157529066Y-107827771D01*
X157433828Y-107780152D01*
%TO.C,R19*%
X155770342Y-104541580D02*
X155437009Y-104065390D01*
X155198914Y-104541580D02*
X155198914Y-103541580D01*
X155579866Y-103541580D01*
X155675104Y-103589200D01*
X155722723Y-103636819D01*
X155770342Y-103732057D01*
X155770342Y-103874914D01*
X155722723Y-103970152D01*
X155675104Y-104017771D01*
X155579866Y-104065390D01*
X155198914Y-104065390D01*
X156722723Y-104541580D02*
X156151295Y-104541580D01*
X156437009Y-104541580D02*
X156437009Y-103541580D01*
X156341771Y-103684438D01*
X156246533Y-103779676D01*
X156151295Y-103827295D01*
X157198914Y-104541580D02*
X157389390Y-104541580D01*
X157484628Y-104493961D01*
X157532247Y-104446342D01*
X157627485Y-104303485D01*
X157675104Y-104113009D01*
X157675104Y-103732057D01*
X157627485Y-103636819D01*
X157579866Y-103589200D01*
X157484628Y-103541580D01*
X157294152Y-103541580D01*
X157198914Y-103589200D01*
X157151295Y-103636819D01*
X157103676Y-103732057D01*
X157103676Y-103970152D01*
X157151295Y-104065390D01*
X157198914Y-104113009D01*
X157294152Y-104160628D01*
X157484628Y-104160628D01*
X157579866Y-104113009D01*
X157627485Y-104065390D01*
X157675104Y-103970152D01*
%TO.C,R20*%
X153077942Y-97910580D02*
X152744609Y-97434390D01*
X152506514Y-97910580D02*
X152506514Y-96910580D01*
X152887466Y-96910580D01*
X152982704Y-96958200D01*
X153030323Y-97005819D01*
X153077942Y-97101057D01*
X153077942Y-97243914D01*
X153030323Y-97339152D01*
X152982704Y-97386771D01*
X152887466Y-97434390D01*
X152506514Y-97434390D01*
X153458895Y-97005819D02*
X153506514Y-96958200D01*
X153601752Y-96910580D01*
X153839847Y-96910580D01*
X153935085Y-96958200D01*
X153982704Y-97005819D01*
X154030323Y-97101057D01*
X154030323Y-97196295D01*
X153982704Y-97339152D01*
X153411276Y-97910580D01*
X154030323Y-97910580D01*
X154649371Y-96910580D02*
X154744609Y-96910580D01*
X154839847Y-96958200D01*
X154887466Y-97005819D01*
X154935085Y-97101057D01*
X154982704Y-97291533D01*
X154982704Y-97529628D01*
X154935085Y-97720104D01*
X154887466Y-97815342D01*
X154839847Y-97862961D01*
X154744609Y-97910580D01*
X154649371Y-97910580D01*
X154554133Y-97862961D01*
X154506514Y-97815342D01*
X154458895Y-97720104D01*
X154411276Y-97529628D01*
X154411276Y-97291533D01*
X154458895Y-97101057D01*
X154506514Y-97005819D01*
X154554133Y-96958200D01*
X154649371Y-96910580D01*
%TO.C,R21*%
X146242942Y-103968480D02*
X145909609Y-103492290D01*
X145671514Y-103968480D02*
X145671514Y-102968480D01*
X146052466Y-102968480D01*
X146147704Y-103016100D01*
X146195323Y-103063719D01*
X146242942Y-103158957D01*
X146242942Y-103301814D01*
X146195323Y-103397052D01*
X146147704Y-103444671D01*
X146052466Y-103492290D01*
X145671514Y-103492290D01*
X146623895Y-103063719D02*
X146671514Y-103016100D01*
X146766752Y-102968480D01*
X147004847Y-102968480D01*
X147100085Y-103016100D01*
X147147704Y-103063719D01*
X147195323Y-103158957D01*
X147195323Y-103254195D01*
X147147704Y-103397052D01*
X146576276Y-103968480D01*
X147195323Y-103968480D01*
X148147704Y-103968480D02*
X147576276Y-103968480D01*
X147861990Y-103968480D02*
X147861990Y-102968480D01*
X147766752Y-103111338D01*
X147671514Y-103206576D01*
X147576276Y-103254195D01*
%TO.C,R23*%
X164761942Y-108300780D02*
X164428609Y-107824590D01*
X164190514Y-108300780D02*
X164190514Y-107300780D01*
X164571466Y-107300780D01*
X164666704Y-107348400D01*
X164714323Y-107396019D01*
X164761942Y-107491257D01*
X164761942Y-107634114D01*
X164714323Y-107729352D01*
X164666704Y-107776971D01*
X164571466Y-107824590D01*
X164190514Y-107824590D01*
X165142895Y-107396019D02*
X165190514Y-107348400D01*
X165285752Y-107300780D01*
X165523847Y-107300780D01*
X165619085Y-107348400D01*
X165666704Y-107396019D01*
X165714323Y-107491257D01*
X165714323Y-107586495D01*
X165666704Y-107729352D01*
X165095276Y-108300780D01*
X165714323Y-108300780D01*
X166047657Y-107300780D02*
X166666704Y-107300780D01*
X166333371Y-107681733D01*
X166476228Y-107681733D01*
X166571466Y-107729352D01*
X166619085Y-107776971D01*
X166666704Y-107872209D01*
X166666704Y-108110304D01*
X166619085Y-108205542D01*
X166571466Y-108253161D01*
X166476228Y-108300780D01*
X166190514Y-108300780D01*
X166095276Y-108253161D01*
X166047657Y-108205542D01*
%TO.C,U1*%
X139750895Y-107775080D02*
X139750895Y-108584604D01*
X139798514Y-108679842D01*
X139846133Y-108727461D01*
X139941371Y-108775080D01*
X140131847Y-108775080D01*
X140227085Y-108727461D01*
X140274704Y-108679842D01*
X140322323Y-108584604D01*
X140322323Y-107775080D01*
X141322323Y-108775080D02*
X140750895Y-108775080D01*
X141036609Y-108775080D02*
X141036609Y-107775080D01*
X140941371Y-107917938D01*
X140846133Y-108013176D01*
X140750895Y-108060795D01*
%TO.C,U2*%
X177927095Y-107326180D02*
X177927095Y-108135704D01*
X177974714Y-108230942D01*
X178022333Y-108278561D01*
X178117571Y-108326180D01*
X178308047Y-108326180D01*
X178403285Y-108278561D01*
X178450904Y-108230942D01*
X178498523Y-108135704D01*
X178498523Y-107326180D01*
X178927095Y-107421419D02*
X178974714Y-107373800D01*
X179069952Y-107326180D01*
X179308047Y-107326180D01*
X179403285Y-107373800D01*
X179450904Y-107421419D01*
X179498523Y-107516657D01*
X179498523Y-107611895D01*
X179450904Y-107754752D01*
X178879476Y-108326180D01*
X179498523Y-108326180D01*
%TO.C,U3*%
X158724695Y-92721180D02*
X158724695Y-93530704D01*
X158772314Y-93625942D01*
X158819933Y-93673561D01*
X158915171Y-93721180D01*
X159105647Y-93721180D01*
X159200885Y-93673561D01*
X159248504Y-93625942D01*
X159296123Y-93530704D01*
X159296123Y-92721180D01*
X159677076Y-92721180D02*
X160296123Y-92721180D01*
X159962790Y-93102133D01*
X160105647Y-93102133D01*
X160200885Y-93149752D01*
X160248504Y-93197371D01*
X160296123Y-93292609D01*
X160296123Y-93530704D01*
X160248504Y-93625942D01*
X160200885Y-93673561D01*
X160105647Y-93721180D01*
X159819933Y-93721180D01*
X159724695Y-93673561D01*
X159677076Y-93625942D01*
%TO.C,Y1*%
X173234409Y-99213990D02*
X173234409Y-99690180D01*
X172901076Y-98690180D02*
X173234409Y-99213990D01*
X173567742Y-98690180D01*
X174424885Y-99690180D02*
X173853457Y-99690180D01*
X174139171Y-99690180D02*
X174139171Y-98690180D01*
X174043933Y-98833038D01*
X173948695Y-98928276D01*
X173853457Y-98975895D01*
%TO.C,Q3*%
X146700761Y-91754619D02*
X146605523Y-91707000D01*
X146510285Y-91611761D01*
X146367428Y-91468904D01*
X146272190Y-91421285D01*
X146176952Y-91421285D01*
X146224571Y-91659380D02*
X146129333Y-91611761D01*
X146034095Y-91516523D01*
X145986476Y-91326047D01*
X145986476Y-90992714D01*
X146034095Y-90802238D01*
X146129333Y-90707000D01*
X146224571Y-90659380D01*
X146415047Y-90659380D01*
X146510285Y-90707000D01*
X146605523Y-90802238D01*
X146653142Y-90992714D01*
X146653142Y-91326047D01*
X146605523Y-91516523D01*
X146510285Y-91611761D01*
X146415047Y-91659380D01*
X146224571Y-91659380D01*
X146986476Y-90659380D02*
X147605523Y-90659380D01*
X147272190Y-91040333D01*
X147415047Y-91040333D01*
X147510285Y-91087952D01*
X147557904Y-91135571D01*
X147605523Y-91230809D01*
X147605523Y-91468904D01*
X147557904Y-91564142D01*
X147510285Y-91611761D01*
X147415047Y-91659380D01*
X147129333Y-91659380D01*
X147034095Y-91611761D01*
X146986476Y-91564142D01*
%TO.C,R24*%
X150972780Y-91651057D02*
X150496590Y-91984390D01*
X150972780Y-92222485D02*
X149972780Y-92222485D01*
X149972780Y-91841533D01*
X150020400Y-91746295D01*
X150068019Y-91698676D01*
X150163257Y-91651057D01*
X150306114Y-91651057D01*
X150401352Y-91698676D01*
X150448971Y-91746295D01*
X150496590Y-91841533D01*
X150496590Y-92222485D01*
X150068019Y-91270104D02*
X150020400Y-91222485D01*
X149972780Y-91127247D01*
X149972780Y-90889152D01*
X150020400Y-90793914D01*
X150068019Y-90746295D01*
X150163257Y-90698676D01*
X150258495Y-90698676D01*
X150401352Y-90746295D01*
X150972780Y-91317723D01*
X150972780Y-90698676D01*
X150306114Y-89841533D02*
X150972780Y-89841533D01*
X149925161Y-90079628D02*
X150639447Y-90317723D01*
X150639447Y-89698676D01*
%TO.C,R25*%
X149728180Y-91727257D02*
X149251990Y-92060590D01*
X149728180Y-92298685D02*
X148728180Y-92298685D01*
X148728180Y-91917733D01*
X148775800Y-91822495D01*
X148823419Y-91774876D01*
X148918657Y-91727257D01*
X149061514Y-91727257D01*
X149156752Y-91774876D01*
X149204371Y-91822495D01*
X149251990Y-91917733D01*
X149251990Y-92298685D01*
X148823419Y-91346304D02*
X148775800Y-91298685D01*
X148728180Y-91203447D01*
X148728180Y-90965352D01*
X148775800Y-90870114D01*
X148823419Y-90822495D01*
X148918657Y-90774876D01*
X149013895Y-90774876D01*
X149156752Y-90822495D01*
X149728180Y-91393923D01*
X149728180Y-90774876D01*
X148728180Y-89870114D02*
X148728180Y-90346304D01*
X149204371Y-90393923D01*
X149156752Y-90346304D01*
X149109133Y-90251066D01*
X149109133Y-90012971D01*
X149156752Y-89917733D01*
X149204371Y-89870114D01*
X149299609Y-89822495D01*
X149537704Y-89822495D01*
X149632942Y-89870114D01*
X149680561Y-89917733D01*
X149728180Y-90012971D01*
X149728180Y-90251066D01*
X149680561Y-90346304D01*
X149632942Y-90393923D01*
%TO.C,C19*%
X174845742Y-93727542D02*
X174798123Y-93775161D01*
X174655266Y-93822780D01*
X174560028Y-93822780D01*
X174417171Y-93775161D01*
X174321933Y-93679923D01*
X174274314Y-93584685D01*
X174226695Y-93394209D01*
X174226695Y-93251352D01*
X174274314Y-93060876D01*
X174321933Y-92965638D01*
X174417171Y-92870400D01*
X174560028Y-92822780D01*
X174655266Y-92822780D01*
X174798123Y-92870400D01*
X174845742Y-92918019D01*
X175798123Y-93822780D02*
X175226695Y-93822780D01*
X175512409Y-93822780D02*
X175512409Y-92822780D01*
X175417171Y-92965638D01*
X175321933Y-93060876D01*
X175226695Y-93108495D01*
X176274314Y-93822780D02*
X176464790Y-93822780D01*
X176560028Y-93775161D01*
X176607647Y-93727542D01*
X176702885Y-93584685D01*
X176750504Y-93394209D01*
X176750504Y-93013257D01*
X176702885Y-92918019D01*
X176655266Y-92870400D01*
X176560028Y-92822780D01*
X176369552Y-92822780D01*
X176274314Y-92870400D01*
X176226695Y-92918019D01*
X176179076Y-93013257D01*
X176179076Y-93251352D01*
X176226695Y-93346590D01*
X176274314Y-93394209D01*
X176369552Y-93441828D01*
X176560028Y-93441828D01*
X176655266Y-93394209D01*
X176702885Y-93346590D01*
X176750504Y-93251352D01*
%TO.C,C20*%
X164660342Y-104065342D02*
X164612723Y-104112961D01*
X164469866Y-104160580D01*
X164374628Y-104160580D01*
X164231771Y-104112961D01*
X164136533Y-104017723D01*
X164088914Y-103922485D01*
X164041295Y-103732009D01*
X164041295Y-103589152D01*
X164088914Y-103398676D01*
X164136533Y-103303438D01*
X164231771Y-103208200D01*
X164374628Y-103160580D01*
X164469866Y-103160580D01*
X164612723Y-103208200D01*
X164660342Y-103255819D01*
X165041295Y-103255819D02*
X165088914Y-103208200D01*
X165184152Y-103160580D01*
X165422247Y-103160580D01*
X165517485Y-103208200D01*
X165565104Y-103255819D01*
X165612723Y-103351057D01*
X165612723Y-103446295D01*
X165565104Y-103589152D01*
X164993676Y-104160580D01*
X165612723Y-104160580D01*
X166231771Y-103160580D02*
X166327009Y-103160580D01*
X166422247Y-103208200D01*
X166469866Y-103255819D01*
X166517485Y-103351057D01*
X166565104Y-103541533D01*
X166565104Y-103779628D01*
X166517485Y-103970104D01*
X166469866Y-104065342D01*
X166422247Y-104112961D01*
X166327009Y-104160580D01*
X166231771Y-104160580D01*
X166136533Y-104112961D01*
X166088914Y-104065342D01*
X166041295Y-103970104D01*
X165993676Y-103779628D01*
X165993676Y-103541533D01*
X166041295Y-103351057D01*
X166088914Y-103255819D01*
X166136533Y-103208200D01*
X166231771Y-103160580D01*
%TD*%
M02*
