%TF.GenerationSoftware,KiCad,Pcbnew,(5.1.6)-1*%
%TF.CreationDate,2020-08-12T13:20:57+08:00*%
%TF.ProjectId,sl_v2,736c5f76-322e-46b6-9963-61645f706362,rev?*%
%TF.SameCoordinates,Original*%
%TF.FileFunction,Legend,Bot*%
%TF.FilePolarity,Positive*%
%FSLAX46Y46*%
G04 Gerber Fmt 4.6, Leading zero omitted, Abs format (unit mm)*
G04 Created by KiCad (PCBNEW (5.1.6)-1) date 2020-08-12 13:20:57*
%MOMM*%
%LPD*%
G01*
G04 APERTURE LIST*
%ADD10C,0.150000*%
%ADD11C,0.120000*%
G04 APERTURE END LIST*
D10*
X132867304Y-106510200D02*
X132962542Y-106462580D01*
X133105400Y-106462580D01*
X133248257Y-106510200D01*
X133343495Y-106605438D01*
X133391114Y-106700676D01*
X133438733Y-106891152D01*
X133438733Y-107034009D01*
X133391114Y-107224485D01*
X133343495Y-107319723D01*
X133248257Y-107414961D01*
X133105400Y-107462580D01*
X133010161Y-107462580D01*
X132867304Y-107414961D01*
X132819685Y-107367342D01*
X132819685Y-107034009D01*
X133010161Y-107034009D01*
X132391114Y-107462580D02*
X132391114Y-106462580D01*
X131819685Y-107462580D01*
X131819685Y-106462580D01*
X131343495Y-107462580D02*
X131343495Y-106462580D01*
X131105400Y-106462580D01*
X130962542Y-106510200D01*
X130867304Y-106605438D01*
X130819685Y-106700676D01*
X130772066Y-106891152D01*
X130772066Y-107034009D01*
X130819685Y-107224485D01*
X130867304Y-107319723D01*
X130962542Y-107414961D01*
X131105400Y-107462580D01*
X131343495Y-107462580D01*
X131889476Y-104049580D02*
X132365666Y-104049580D01*
X132413285Y-104525771D01*
X132365666Y-104478152D01*
X132270428Y-104430533D01*
X132032333Y-104430533D01*
X131937095Y-104478152D01*
X131889476Y-104525771D01*
X131841857Y-104621009D01*
X131841857Y-104859104D01*
X131889476Y-104954342D01*
X131937095Y-105001961D01*
X132032333Y-105049580D01*
X132270428Y-105049580D01*
X132365666Y-105001961D01*
X132413285Y-104954342D01*
X131556142Y-104049580D02*
X131222809Y-105049580D01*
X130889476Y-104049580D01*
X133810190Y-101433380D02*
X133191142Y-101433380D01*
X133524476Y-101814333D01*
X133381619Y-101814333D01*
X133286380Y-101861952D01*
X133238761Y-101909571D01*
X133191142Y-102004809D01*
X133191142Y-102242904D01*
X133238761Y-102338142D01*
X133286380Y-102385761D01*
X133381619Y-102433380D01*
X133667333Y-102433380D01*
X133762571Y-102385761D01*
X133810190Y-102338142D01*
X132762571Y-102338142D02*
X132714952Y-102385761D01*
X132762571Y-102433380D01*
X132810190Y-102385761D01*
X132762571Y-102338142D01*
X132762571Y-102433380D01*
X132381619Y-101433380D02*
X131762571Y-101433380D01*
X132095904Y-101814333D01*
X131953047Y-101814333D01*
X131857809Y-101861952D01*
X131810190Y-101909571D01*
X131762571Y-102004809D01*
X131762571Y-102242904D01*
X131810190Y-102338142D01*
X131857809Y-102385761D01*
X131953047Y-102433380D01*
X132238761Y-102433380D01*
X132334000Y-102385761D01*
X132381619Y-102338142D01*
X131476857Y-101433380D02*
X131143523Y-102433380D01*
X130810190Y-101433380D01*
X133978447Y-98918780D02*
X133311780Y-98918780D01*
X133740352Y-99918780D01*
X132930828Y-99823542D02*
X132883209Y-99871161D01*
X132930828Y-99918780D01*
X132978447Y-99871161D01*
X132930828Y-99823542D01*
X132930828Y-99918780D01*
X131978447Y-98918780D02*
X132454638Y-98918780D01*
X132502257Y-99394971D01*
X132454638Y-99347352D01*
X132359400Y-99299733D01*
X132121304Y-99299733D01*
X132026066Y-99347352D01*
X131978447Y-99394971D01*
X131930828Y-99490209D01*
X131930828Y-99728304D01*
X131978447Y-99823542D01*
X132026066Y-99871161D01*
X132121304Y-99918780D01*
X132359400Y-99918780D01*
X132454638Y-99871161D01*
X132502257Y-99823542D01*
X131502257Y-99918780D02*
X131502257Y-98918780D01*
X131168923Y-99633066D01*
X130835590Y-98918780D01*
X130835590Y-99918780D01*
X131814866Y-97232742D02*
X131862485Y-97280361D01*
X132005342Y-97327980D01*
X132100580Y-97327980D01*
X132243438Y-97280361D01*
X132338676Y-97185123D01*
X132386295Y-97089885D01*
X132433914Y-96899409D01*
X132433914Y-96756552D01*
X132386295Y-96566076D01*
X132338676Y-96470838D01*
X132243438Y-96375600D01*
X132100580Y-96327980D01*
X132005342Y-96327980D01*
X131862485Y-96375600D01*
X131814866Y-96423219D01*
X131481533Y-96327980D02*
X130862485Y-96327980D01*
X131195819Y-96708933D01*
X131052961Y-96708933D01*
X130957723Y-96756552D01*
X130910104Y-96804171D01*
X130862485Y-96899409D01*
X130862485Y-97137504D01*
X130910104Y-97232742D01*
X130957723Y-97280361D01*
X131052961Y-97327980D01*
X131338676Y-97327980D01*
X131433914Y-97280361D01*
X131481533Y-97232742D01*
X131789466Y-94616542D02*
X131837085Y-94664161D01*
X131979942Y-94711780D01*
X132075180Y-94711780D01*
X132218038Y-94664161D01*
X132313276Y-94568923D01*
X132360895Y-94473685D01*
X132408514Y-94283209D01*
X132408514Y-94140352D01*
X132360895Y-93949876D01*
X132313276Y-93854638D01*
X132218038Y-93759400D01*
X132075180Y-93711780D01*
X131979942Y-93711780D01*
X131837085Y-93759400D01*
X131789466Y-93807019D01*
X131408514Y-93807019D02*
X131360895Y-93759400D01*
X131265657Y-93711780D01*
X131027561Y-93711780D01*
X130932323Y-93759400D01*
X130884704Y-93807019D01*
X130837085Y-93902257D01*
X130837085Y-93997495D01*
X130884704Y-94140352D01*
X131456133Y-94711780D01*
X130837085Y-94711780D01*
X131662466Y-92254342D02*
X131710085Y-92301961D01*
X131852942Y-92349580D01*
X131948180Y-92349580D01*
X132091038Y-92301961D01*
X132186276Y-92206723D01*
X132233895Y-92111485D01*
X132281514Y-91921009D01*
X132281514Y-91778152D01*
X132233895Y-91587676D01*
X132186276Y-91492438D01*
X132091038Y-91397200D01*
X131948180Y-91349580D01*
X131852942Y-91349580D01*
X131710085Y-91397200D01*
X131662466Y-91444819D01*
X130710085Y-92349580D02*
X131281514Y-92349580D01*
X130995800Y-92349580D02*
X130995800Y-91349580D01*
X131091038Y-91492438D01*
X131186276Y-91587676D01*
X131281514Y-91635295D01*
X131840266Y-89663542D02*
X131887885Y-89711161D01*
X132030742Y-89758780D01*
X132125980Y-89758780D01*
X132268838Y-89711161D01*
X132364076Y-89615923D01*
X132411695Y-89520685D01*
X132459314Y-89330209D01*
X132459314Y-89187352D01*
X132411695Y-88996876D01*
X132364076Y-88901638D01*
X132268838Y-88806400D01*
X132125980Y-88758780D01*
X132030742Y-88758780D01*
X131887885Y-88806400D01*
X131840266Y-88854019D01*
X131221219Y-88758780D02*
X131125980Y-88758780D01*
X131030742Y-88806400D01*
X130983123Y-88854019D01*
X130935504Y-88949257D01*
X130887885Y-89139733D01*
X130887885Y-89377828D01*
X130935504Y-89568304D01*
X130983123Y-89663542D01*
X131030742Y-89711161D01*
X131125980Y-89758780D01*
X131221219Y-89758780D01*
X131316457Y-89711161D01*
X131364076Y-89663542D01*
X131411695Y-89568304D01*
X131459314Y-89377828D01*
X131459314Y-89139733D01*
X131411695Y-88949257D01*
X131364076Y-88854019D01*
X131316457Y-88806400D01*
X131221219Y-88758780D01*
D11*
%TO.C,J2*%
X125349000Y-87884000D02*
X125349000Y-108204000D01*
X125349000Y-108204000D02*
X130429000Y-108204000D01*
X130429000Y-108204000D02*
X130429000Y-87884000D01*
X130429000Y-87884000D02*
X125349000Y-87884000D01*
%TD*%
M02*
