%TF.GenerationSoftware,KiCad,Pcbnew,(5.1.6)-1*%
%TF.CreationDate,2020-08-12T13:20:56+08:00*%
%TF.ProjectId,sl_v2,736c5f76-322e-46b6-9963-61645f706362,rev?*%
%TF.SameCoordinates,Original*%
%TF.FileFunction,Copper,L3,Inr*%
%TF.FilePolarity,Positive*%
%FSLAX46Y46*%
G04 Gerber Fmt 4.6, Leading zero omitted, Abs format (unit mm)*
G04 Created by KiCad (PCBNEW (5.1.6)-1) date 2020-08-12 13:20:56*
%MOMM*%
%LPD*%
G01*
G04 APERTURE LIST*
%TA.AperFunction,ViaPad*%
%ADD10O,1.600000X1.000000*%
%TD*%
%TA.AperFunction,ViaPad*%
%ADD11O,2.100000X1.000000*%
%TD*%
%TA.AperFunction,ViaPad*%
%ADD12C,0.800000*%
%TD*%
%TA.AperFunction,ViaPad*%
%ADD13C,0.600000*%
%TD*%
%TA.AperFunction,Conductor*%
%ADD14C,0.254000*%
%TD*%
G04 APERTURE END LIST*
D10*
%TO.N,GND*%
%TO.C,J1*%
X188883000Y-93724000D03*
X188883000Y-102364000D03*
D11*
X184703000Y-102364000D03*
X184703000Y-93724000D03*
%TD*%
D12*
%TO.N,/+3.3V_FTOUT*%
X141732000Y-92456000D03*
X140462000Y-87630000D03*
X155448000Y-100330000D03*
X153543000Y-99695000D03*
X162687000Y-99822000D03*
X176784000Y-99060000D03*
X174498000Y-94615000D03*
X180213000Y-103886000D03*
X169291000Y-103759000D03*
D13*
%TO.N,GND*%
X146735800Y-87553800D03*
X143408400Y-92770800D03*
X137769600Y-92481400D03*
X159004000Y-100380800D03*
X156489400Y-102616000D03*
X155321000Y-104063800D03*
X163982400Y-102539800D03*
X145415000Y-104698800D03*
X145440400Y-106603800D03*
X144043400Y-104902000D03*
X135940800Y-104876600D03*
X134797800Y-106273600D03*
X127914400Y-108483400D03*
X170078400Y-95402400D03*
X166979600Y-98552000D03*
X166979600Y-98552000D03*
X166674800Y-100050600D03*
X162687000Y-94615000D03*
X174371000Y-93370400D03*
X174421800Y-95656400D03*
X174066200Y-97967800D03*
X176707800Y-97942400D03*
X177850800Y-99466400D03*
X177698400Y-95656400D03*
X182422800Y-94742000D03*
X182170000Y-101294000D03*
X178790600Y-101930200D03*
X180213000Y-105079800D03*
X178181000Y-107518200D03*
X162991800Y-105867200D03*
X160426400Y-105765600D03*
D12*
X170891200Y-101981000D03*
%TO.N,/+3.3V_VCCIO*%
X160782000Y-92202000D03*
X166624000Y-95123000D03*
X165481000Y-99949000D03*
%TO.N,/+3.3V_ROM*%
X166141400Y-106070400D03*
X166116000Y-107772200D03*
X174625000Y-103886000D03*
X170230800Y-109143800D03*
%TO.N,Net-(C16-Pad1)*%
X151688800Y-103505000D03*
X155346400Y-106476800D03*
D13*
%TO.N,/7.5M_CLK*%
X158521400Y-97790000D03*
%TO.N,/C3*%
X157696201Y-95240000D03*
%TO.N,/C2*%
X158470600Y-94615000D03*
%TO.N,/C1*%
X158496000Y-93726000D03*
%TO.N,/C0*%
X157937200Y-92684600D03*
%TO.N,/5V_OUT_EN*%
X152500384Y-98677784D03*
X155397200Y-105232200D03*
%TO.N,/I2C_CONNECT*%
X151587200Y-92684600D03*
X151587200Y-88036400D03*
D12*
X161569400Y-96088200D03*
%TD*%
D14*
%TO.N,/+3.3V_ROM*%
G36*
X176642069Y-110009000D02*
G01*
X165709600Y-110009000D01*
X165709600Y-105436192D01*
X173023491Y-105511593D01*
X173048291Y-105509409D01*
X173072189Y-105502427D01*
X173094265Y-105490918D01*
X173113672Y-105475324D01*
X173129664Y-105456242D01*
X173141625Y-105434408D01*
X173149098Y-105410659D01*
X173151800Y-105384600D01*
X173151800Y-103886000D01*
X176582039Y-103886000D01*
X176642069Y-110009000D01*
G37*
X176642069Y-110009000D02*
X165709600Y-110009000D01*
X165709600Y-105436192D01*
X173023491Y-105511593D01*
X173048291Y-105509409D01*
X173072189Y-105502427D01*
X173094265Y-105490918D01*
X173113672Y-105475324D01*
X173129664Y-105456242D01*
X173141625Y-105434408D01*
X173149098Y-105410659D01*
X173151800Y-105384600D01*
X173151800Y-103886000D01*
X176582039Y-103886000D01*
X176642069Y-110009000D01*
%TO.N,/+3.3V_VCCIO*%
G36*
X168402000Y-101219000D02*
G01*
X164973000Y-101219000D01*
X164973000Y-99958511D01*
X165739800Y-99958511D01*
X165739800Y-100142689D01*
X165775732Y-100323329D01*
X165846214Y-100493489D01*
X165948538Y-100646628D01*
X166078772Y-100776862D01*
X166231911Y-100879186D01*
X166402071Y-100949668D01*
X166582711Y-100985600D01*
X166766889Y-100985600D01*
X166947529Y-100949668D01*
X167117689Y-100879186D01*
X167270828Y-100776862D01*
X167401062Y-100646628D01*
X167503386Y-100493489D01*
X167573868Y-100323329D01*
X167609800Y-100142689D01*
X167609800Y-99958511D01*
X167573868Y-99777871D01*
X167503386Y-99607711D01*
X167401062Y-99454572D01*
X167355022Y-99408532D01*
X167422489Y-99380586D01*
X167575628Y-99278262D01*
X167705862Y-99148028D01*
X167808186Y-98994889D01*
X167878668Y-98824729D01*
X167914600Y-98644089D01*
X167914600Y-98459911D01*
X167878668Y-98279271D01*
X167808186Y-98109111D01*
X167705862Y-97955972D01*
X167575628Y-97825738D01*
X167422489Y-97723414D01*
X167252329Y-97652932D01*
X167071689Y-97617000D01*
X166887511Y-97617000D01*
X166706871Y-97652932D01*
X166536711Y-97723414D01*
X166383572Y-97825738D01*
X166253338Y-97955972D01*
X166151014Y-98109111D01*
X166080532Y-98279271D01*
X166044600Y-98459911D01*
X166044600Y-98644089D01*
X166080532Y-98824729D01*
X166151014Y-98994889D01*
X166253338Y-99148028D01*
X166299378Y-99194068D01*
X166231911Y-99222014D01*
X166078772Y-99324338D01*
X165948538Y-99454572D01*
X165846214Y-99607711D01*
X165775732Y-99777871D01*
X165739800Y-99958511D01*
X164973000Y-99958511D01*
X164973000Y-97536000D01*
X164970560Y-97511224D01*
X164963333Y-97487399D01*
X164951597Y-97465443D01*
X164935803Y-97446197D01*
X164916557Y-97430403D01*
X164894601Y-97418667D01*
X164870776Y-97411440D01*
X164846000Y-97409000D01*
X160147000Y-97409000D01*
X160147000Y-95986261D01*
X160534400Y-95986261D01*
X160534400Y-96190139D01*
X160574174Y-96390098D01*
X160652195Y-96578456D01*
X160765463Y-96747974D01*
X160909626Y-96892137D01*
X161079144Y-97005405D01*
X161267502Y-97083426D01*
X161467461Y-97123200D01*
X161671339Y-97123200D01*
X161871298Y-97083426D01*
X162059656Y-97005405D01*
X162229174Y-96892137D01*
X162373337Y-96747974D01*
X162486605Y-96578456D01*
X162564626Y-96390098D01*
X162604400Y-96190139D01*
X162604400Y-95986261D01*
X162564626Y-95786302D01*
X162486605Y-95597944D01*
X162433058Y-95517805D01*
X162594911Y-95550000D01*
X162779089Y-95550000D01*
X162959729Y-95514068D01*
X163129889Y-95443586D01*
X163283028Y-95341262D01*
X163413262Y-95211028D01*
X163515586Y-95057889D01*
X163586068Y-94887729D01*
X163622000Y-94707089D01*
X163622000Y-94522911D01*
X163586068Y-94342271D01*
X163515586Y-94172111D01*
X163413262Y-94018972D01*
X163283028Y-93888738D01*
X163129889Y-93786414D01*
X162959729Y-93715932D01*
X162779089Y-93680000D01*
X162594911Y-93680000D01*
X162414271Y-93715932D01*
X162244111Y-93786414D01*
X162090972Y-93888738D01*
X161960738Y-94018972D01*
X161858414Y-94172111D01*
X161787932Y-94342271D01*
X161752000Y-94522911D01*
X161752000Y-94707089D01*
X161787932Y-94887729D01*
X161858414Y-95057889D01*
X161885898Y-95099021D01*
X161871298Y-95092974D01*
X161671339Y-95053200D01*
X161467461Y-95053200D01*
X161267502Y-95092974D01*
X161079144Y-95170995D01*
X160909626Y-95284263D01*
X160765463Y-95428426D01*
X160652195Y-95597944D01*
X160574174Y-95786302D01*
X160534400Y-95986261D01*
X160147000Y-95986261D01*
X160147000Y-90805000D01*
X168402000Y-90805000D01*
X168402000Y-101219000D01*
G37*
X168402000Y-101219000D02*
X164973000Y-101219000D01*
X164973000Y-99958511D01*
X165739800Y-99958511D01*
X165739800Y-100142689D01*
X165775732Y-100323329D01*
X165846214Y-100493489D01*
X165948538Y-100646628D01*
X166078772Y-100776862D01*
X166231911Y-100879186D01*
X166402071Y-100949668D01*
X166582711Y-100985600D01*
X166766889Y-100985600D01*
X166947529Y-100949668D01*
X167117689Y-100879186D01*
X167270828Y-100776862D01*
X167401062Y-100646628D01*
X167503386Y-100493489D01*
X167573868Y-100323329D01*
X167609800Y-100142689D01*
X167609800Y-99958511D01*
X167573868Y-99777871D01*
X167503386Y-99607711D01*
X167401062Y-99454572D01*
X167355022Y-99408532D01*
X167422489Y-99380586D01*
X167575628Y-99278262D01*
X167705862Y-99148028D01*
X167808186Y-98994889D01*
X167878668Y-98824729D01*
X167914600Y-98644089D01*
X167914600Y-98459911D01*
X167878668Y-98279271D01*
X167808186Y-98109111D01*
X167705862Y-97955972D01*
X167575628Y-97825738D01*
X167422489Y-97723414D01*
X167252329Y-97652932D01*
X167071689Y-97617000D01*
X166887511Y-97617000D01*
X166706871Y-97652932D01*
X166536711Y-97723414D01*
X166383572Y-97825738D01*
X166253338Y-97955972D01*
X166151014Y-98109111D01*
X166080532Y-98279271D01*
X166044600Y-98459911D01*
X166044600Y-98644089D01*
X166080532Y-98824729D01*
X166151014Y-98994889D01*
X166253338Y-99148028D01*
X166299378Y-99194068D01*
X166231911Y-99222014D01*
X166078772Y-99324338D01*
X165948538Y-99454572D01*
X165846214Y-99607711D01*
X165775732Y-99777871D01*
X165739800Y-99958511D01*
X164973000Y-99958511D01*
X164973000Y-97536000D01*
X164970560Y-97511224D01*
X164963333Y-97487399D01*
X164951597Y-97465443D01*
X164935803Y-97446197D01*
X164916557Y-97430403D01*
X164894601Y-97418667D01*
X164870776Y-97411440D01*
X164846000Y-97409000D01*
X160147000Y-97409000D01*
X160147000Y-95986261D01*
X160534400Y-95986261D01*
X160534400Y-96190139D01*
X160574174Y-96390098D01*
X160652195Y-96578456D01*
X160765463Y-96747974D01*
X160909626Y-96892137D01*
X161079144Y-97005405D01*
X161267502Y-97083426D01*
X161467461Y-97123200D01*
X161671339Y-97123200D01*
X161871298Y-97083426D01*
X162059656Y-97005405D01*
X162229174Y-96892137D01*
X162373337Y-96747974D01*
X162486605Y-96578456D01*
X162564626Y-96390098D01*
X162604400Y-96190139D01*
X162604400Y-95986261D01*
X162564626Y-95786302D01*
X162486605Y-95597944D01*
X162433058Y-95517805D01*
X162594911Y-95550000D01*
X162779089Y-95550000D01*
X162959729Y-95514068D01*
X163129889Y-95443586D01*
X163283028Y-95341262D01*
X163413262Y-95211028D01*
X163515586Y-95057889D01*
X163586068Y-94887729D01*
X163622000Y-94707089D01*
X163622000Y-94522911D01*
X163586068Y-94342271D01*
X163515586Y-94172111D01*
X163413262Y-94018972D01*
X163283028Y-93888738D01*
X163129889Y-93786414D01*
X162959729Y-93715932D01*
X162779089Y-93680000D01*
X162594911Y-93680000D01*
X162414271Y-93715932D01*
X162244111Y-93786414D01*
X162090972Y-93888738D01*
X161960738Y-94018972D01*
X161858414Y-94172111D01*
X161787932Y-94342271D01*
X161752000Y-94522911D01*
X161752000Y-94707089D01*
X161787932Y-94887729D01*
X161858414Y-95057889D01*
X161885898Y-95099021D01*
X161871298Y-95092974D01*
X161671339Y-95053200D01*
X161467461Y-95053200D01*
X161267502Y-95092974D01*
X161079144Y-95170995D01*
X160909626Y-95284263D01*
X160765463Y-95428426D01*
X160652195Y-95597944D01*
X160574174Y-95786302D01*
X160534400Y-95986261D01*
X160147000Y-95986261D01*
X160147000Y-90805000D01*
X168402000Y-90805000D01*
X168402000Y-101219000D01*
%TO.N,/+3.3V_FTOUT*%
G36*
X190908000Y-110009000D02*
G01*
X177404105Y-110009000D01*
X177384498Y-108009106D01*
X177454738Y-108114228D01*
X177584972Y-108244462D01*
X177738111Y-108346786D01*
X177908271Y-108417268D01*
X178088911Y-108453200D01*
X178273089Y-108453200D01*
X178453729Y-108417268D01*
X178623889Y-108346786D01*
X178777028Y-108244462D01*
X178907262Y-108114228D01*
X179009586Y-107961089D01*
X179080068Y-107790929D01*
X179116000Y-107610289D01*
X179116000Y-107426111D01*
X179080068Y-107245471D01*
X179009586Y-107075311D01*
X178907262Y-106922172D01*
X178777028Y-106791938D01*
X178623889Y-106689614D01*
X178453729Y-106619132D01*
X178273089Y-106583200D01*
X178088911Y-106583200D01*
X177908271Y-106619132D01*
X177738111Y-106689614D01*
X177584972Y-106791938D01*
X177454738Y-106922172D01*
X177375011Y-107041492D01*
X177354877Y-104987711D01*
X179278000Y-104987711D01*
X179278000Y-105171889D01*
X179313932Y-105352529D01*
X179384414Y-105522689D01*
X179486738Y-105675828D01*
X179616972Y-105806062D01*
X179770111Y-105908386D01*
X179940271Y-105978868D01*
X180120911Y-106014800D01*
X180305089Y-106014800D01*
X180485729Y-105978868D01*
X180655889Y-105908386D01*
X180809028Y-105806062D01*
X180939262Y-105675828D01*
X181041586Y-105522689D01*
X181112068Y-105352529D01*
X181148000Y-105171889D01*
X181148000Y-104987711D01*
X181112068Y-104807071D01*
X181041586Y-104636911D01*
X180939262Y-104483772D01*
X180809028Y-104353538D01*
X180655889Y-104251214D01*
X180485729Y-104180732D01*
X180305089Y-104144800D01*
X180120911Y-104144800D01*
X179940271Y-104180732D01*
X179770111Y-104251214D01*
X179616972Y-104353538D01*
X179486738Y-104483772D01*
X179384414Y-104636911D01*
X179313932Y-104807071D01*
X179278000Y-104987711D01*
X177354877Y-104987711D01*
X177342769Y-103752775D01*
X177330599Y-103635118D01*
X177294464Y-103515996D01*
X177235783Y-103406213D01*
X177156813Y-103309987D01*
X177060587Y-103231017D01*
X176950804Y-103172336D01*
X176831682Y-103136201D01*
X176707800Y-103124000D01*
X175326711Y-103124000D01*
X175284774Y-103082063D01*
X175115256Y-102968795D01*
X174926898Y-102890774D01*
X174726939Y-102851000D01*
X174523061Y-102851000D01*
X174323102Y-102890774D01*
X174134744Y-102968795D01*
X173965226Y-103082063D01*
X173923289Y-103124000D01*
X173024800Y-103124000D01*
X172900918Y-103136201D01*
X172781796Y-103172336D01*
X172672013Y-103231017D01*
X172575787Y-103309987D01*
X172496817Y-103406213D01*
X172438136Y-103515996D01*
X172402001Y-103635118D01*
X172389800Y-103759000D01*
X172389800Y-104743020D01*
X165639946Y-104673434D01*
X165509518Y-104685601D01*
X165390396Y-104721736D01*
X165280613Y-104780417D01*
X165184387Y-104859387D01*
X165133587Y-104910187D01*
X165054617Y-105006413D01*
X164995936Y-105116196D01*
X164959801Y-105235318D01*
X164947600Y-105359200D01*
X164947600Y-110009000D01*
X126338000Y-110009000D01*
X126338000Y-108391311D01*
X126979400Y-108391311D01*
X126979400Y-108575489D01*
X127015332Y-108756129D01*
X127085814Y-108926289D01*
X127188138Y-109079428D01*
X127318372Y-109209662D01*
X127471511Y-109311986D01*
X127641671Y-109382468D01*
X127822311Y-109418400D01*
X128006489Y-109418400D01*
X128187129Y-109382468D01*
X128357289Y-109311986D01*
X128510428Y-109209662D01*
X128640662Y-109079428D01*
X128742986Y-108926289D01*
X128813468Y-108756129D01*
X128849400Y-108575489D01*
X128849400Y-108391311D01*
X128813468Y-108210671D01*
X128742986Y-108040511D01*
X128640662Y-107887372D01*
X128510428Y-107757138D01*
X128357289Y-107654814D01*
X128187129Y-107584332D01*
X128006489Y-107548400D01*
X127822311Y-107548400D01*
X127641671Y-107584332D01*
X127471511Y-107654814D01*
X127318372Y-107757138D01*
X127188138Y-107887372D01*
X127085814Y-108040511D01*
X127015332Y-108210671D01*
X126979400Y-108391311D01*
X126338000Y-108391311D01*
X126338000Y-106181511D01*
X133862800Y-106181511D01*
X133862800Y-106365689D01*
X133898732Y-106546329D01*
X133969214Y-106716489D01*
X134071538Y-106869628D01*
X134201772Y-106999862D01*
X134354911Y-107102186D01*
X134525071Y-107172668D01*
X134705711Y-107208600D01*
X134889889Y-107208600D01*
X135070529Y-107172668D01*
X135240689Y-107102186D01*
X135393828Y-106999862D01*
X135524062Y-106869628D01*
X135626386Y-106716489D01*
X135696868Y-106546329D01*
X135703754Y-106511711D01*
X144505400Y-106511711D01*
X144505400Y-106695889D01*
X144541332Y-106876529D01*
X144611814Y-107046689D01*
X144714138Y-107199828D01*
X144844372Y-107330062D01*
X144997511Y-107432386D01*
X145167671Y-107502868D01*
X145348311Y-107538800D01*
X145532489Y-107538800D01*
X145713129Y-107502868D01*
X145883289Y-107432386D01*
X146036428Y-107330062D01*
X146166662Y-107199828D01*
X146268986Y-107046689D01*
X146339468Y-106876529D01*
X146375400Y-106695889D01*
X146375400Y-106511711D01*
X146348179Y-106374861D01*
X154311400Y-106374861D01*
X154311400Y-106578739D01*
X154351174Y-106778698D01*
X154429195Y-106967056D01*
X154542463Y-107136574D01*
X154686626Y-107280737D01*
X154856144Y-107394005D01*
X155044502Y-107472026D01*
X155244461Y-107511800D01*
X155448339Y-107511800D01*
X155648298Y-107472026D01*
X155836656Y-107394005D01*
X156006174Y-107280737D01*
X156150337Y-107136574D01*
X156263605Y-106967056D01*
X156341626Y-106778698D01*
X156381400Y-106578739D01*
X156381400Y-106374861D01*
X156341626Y-106174902D01*
X156263605Y-105986544D01*
X156150337Y-105817026D01*
X156138713Y-105805402D01*
X156225786Y-105675089D01*
X156226439Y-105673511D01*
X159491400Y-105673511D01*
X159491400Y-105857689D01*
X159527332Y-106038329D01*
X159597814Y-106208489D01*
X159700138Y-106361628D01*
X159830372Y-106491862D01*
X159983511Y-106594186D01*
X160153671Y-106664668D01*
X160334311Y-106700600D01*
X160518489Y-106700600D01*
X160699129Y-106664668D01*
X160869289Y-106594186D01*
X161022428Y-106491862D01*
X161152662Y-106361628D01*
X161254986Y-106208489D01*
X161325468Y-106038329D01*
X161361400Y-105857689D01*
X161361400Y-105775111D01*
X162056800Y-105775111D01*
X162056800Y-105959289D01*
X162092732Y-106139929D01*
X162163214Y-106310089D01*
X162265538Y-106463228D01*
X162395772Y-106593462D01*
X162548911Y-106695786D01*
X162719071Y-106766268D01*
X162899711Y-106802200D01*
X163083889Y-106802200D01*
X163264529Y-106766268D01*
X163434689Y-106695786D01*
X163587828Y-106593462D01*
X163718062Y-106463228D01*
X163820386Y-106310089D01*
X163890868Y-106139929D01*
X163926800Y-105959289D01*
X163926800Y-105775111D01*
X163890868Y-105594471D01*
X163820386Y-105424311D01*
X163718062Y-105271172D01*
X163587828Y-105140938D01*
X163434689Y-105038614D01*
X163264529Y-104968132D01*
X163083889Y-104932200D01*
X162899711Y-104932200D01*
X162719071Y-104968132D01*
X162548911Y-105038614D01*
X162395772Y-105140938D01*
X162265538Y-105271172D01*
X162163214Y-105424311D01*
X162092732Y-105594471D01*
X162056800Y-105775111D01*
X161361400Y-105775111D01*
X161361400Y-105673511D01*
X161325468Y-105492871D01*
X161254986Y-105322711D01*
X161152662Y-105169572D01*
X161022428Y-105039338D01*
X160869289Y-104937014D01*
X160699129Y-104866532D01*
X160518489Y-104830600D01*
X160334311Y-104830600D01*
X160153671Y-104866532D01*
X159983511Y-104937014D01*
X159830372Y-105039338D01*
X159700138Y-105169572D01*
X159597814Y-105322711D01*
X159527332Y-105492871D01*
X159491400Y-105673511D01*
X156226439Y-105673511D01*
X156296268Y-105504929D01*
X156332200Y-105324289D01*
X156332200Y-105140111D01*
X156296268Y-104959471D01*
X156225786Y-104789311D01*
X156123462Y-104636172D01*
X156087259Y-104599969D01*
X156149586Y-104506689D01*
X156220068Y-104336529D01*
X156256000Y-104155889D01*
X156256000Y-103971711D01*
X156220068Y-103791071D01*
X156149586Y-103620911D01*
X156047262Y-103467772D01*
X155978900Y-103399410D01*
X156046511Y-103444586D01*
X156216671Y-103515068D01*
X156397311Y-103551000D01*
X156581489Y-103551000D01*
X156762129Y-103515068D01*
X156932289Y-103444586D01*
X157085428Y-103342262D01*
X157215662Y-103212028D01*
X157317986Y-103058889D01*
X157388468Y-102888729D01*
X157424400Y-102708089D01*
X157424400Y-102523911D01*
X157388468Y-102343271D01*
X157317986Y-102173111D01*
X157215662Y-102019972D01*
X157085428Y-101889738D01*
X156932289Y-101787414D01*
X156762129Y-101716932D01*
X156581489Y-101681000D01*
X156397311Y-101681000D01*
X156216671Y-101716932D01*
X156046511Y-101787414D01*
X155893372Y-101889738D01*
X155763138Y-102019972D01*
X155660814Y-102173111D01*
X155590332Y-102343271D01*
X155554400Y-102523911D01*
X155554400Y-102708089D01*
X155590332Y-102888729D01*
X155660814Y-103058889D01*
X155763138Y-103212028D01*
X155831500Y-103280390D01*
X155763889Y-103235214D01*
X155593729Y-103164732D01*
X155413089Y-103128800D01*
X155228911Y-103128800D01*
X155048271Y-103164732D01*
X154878111Y-103235214D01*
X154724972Y-103337538D01*
X154594738Y-103467772D01*
X154492414Y-103620911D01*
X154421932Y-103791071D01*
X154386000Y-103971711D01*
X154386000Y-104155889D01*
X154421932Y-104336529D01*
X154492414Y-104506689D01*
X154594738Y-104659828D01*
X154630941Y-104696031D01*
X154568614Y-104789311D01*
X154498132Y-104959471D01*
X154462200Y-105140111D01*
X154462200Y-105324289D01*
X154498132Y-105504929D01*
X154568614Y-105675089D01*
X154614991Y-105744498D01*
X154542463Y-105817026D01*
X154429195Y-105986544D01*
X154351174Y-106174902D01*
X154311400Y-106374861D01*
X146348179Y-106374861D01*
X146339468Y-106331071D01*
X146268986Y-106160911D01*
X146166662Y-106007772D01*
X146036428Y-105877538D01*
X145883289Y-105775214D01*
X145713129Y-105704732D01*
X145532489Y-105668800D01*
X145348311Y-105668800D01*
X145167671Y-105704732D01*
X144997511Y-105775214D01*
X144844372Y-105877538D01*
X144714138Y-106007772D01*
X144611814Y-106160911D01*
X144541332Y-106331071D01*
X144505400Y-106511711D01*
X135703754Y-106511711D01*
X135732800Y-106365689D01*
X135732800Y-106181511D01*
X135696868Y-106000871D01*
X135626386Y-105830711D01*
X135559581Y-105730730D01*
X135668071Y-105775668D01*
X135848711Y-105811600D01*
X136032889Y-105811600D01*
X136213529Y-105775668D01*
X136383689Y-105705186D01*
X136536828Y-105602862D01*
X136667062Y-105472628D01*
X136769386Y-105319489D01*
X136839868Y-105149329D01*
X136875800Y-104968689D01*
X136875800Y-104809911D01*
X143108400Y-104809911D01*
X143108400Y-104994089D01*
X143144332Y-105174729D01*
X143214814Y-105344889D01*
X143317138Y-105498028D01*
X143447372Y-105628262D01*
X143600511Y-105730586D01*
X143770671Y-105801068D01*
X143951311Y-105837000D01*
X144135489Y-105837000D01*
X144316129Y-105801068D01*
X144486289Y-105730586D01*
X144639428Y-105628262D01*
X144769662Y-105498028D01*
X144818639Y-105424729D01*
X144818972Y-105425062D01*
X144972111Y-105527386D01*
X145142271Y-105597868D01*
X145322911Y-105633800D01*
X145507089Y-105633800D01*
X145687729Y-105597868D01*
X145857889Y-105527386D01*
X146011028Y-105425062D01*
X146141262Y-105294828D01*
X146243586Y-105141689D01*
X146314068Y-104971529D01*
X146350000Y-104790889D01*
X146350000Y-104606711D01*
X146314068Y-104426071D01*
X146243586Y-104255911D01*
X146141262Y-104102772D01*
X146011028Y-103972538D01*
X145857889Y-103870214D01*
X145687729Y-103799732D01*
X145507089Y-103763800D01*
X145322911Y-103763800D01*
X145142271Y-103799732D01*
X144972111Y-103870214D01*
X144818972Y-103972538D01*
X144688738Y-104102772D01*
X144639761Y-104176071D01*
X144639428Y-104175738D01*
X144486289Y-104073414D01*
X144316129Y-104002932D01*
X144135489Y-103967000D01*
X143951311Y-103967000D01*
X143770671Y-104002932D01*
X143600511Y-104073414D01*
X143447372Y-104175738D01*
X143317138Y-104305972D01*
X143214814Y-104459111D01*
X143144332Y-104629271D01*
X143108400Y-104809911D01*
X136875800Y-104809911D01*
X136875800Y-104784511D01*
X136839868Y-104603871D01*
X136769386Y-104433711D01*
X136667062Y-104280572D01*
X136536828Y-104150338D01*
X136383689Y-104048014D01*
X136213529Y-103977532D01*
X136032889Y-103941600D01*
X135848711Y-103941600D01*
X135668071Y-103977532D01*
X135497911Y-104048014D01*
X135344772Y-104150338D01*
X135214538Y-104280572D01*
X135112214Y-104433711D01*
X135041732Y-104603871D01*
X135005800Y-104784511D01*
X135005800Y-104968689D01*
X135041732Y-105149329D01*
X135112214Y-105319489D01*
X135179019Y-105419470D01*
X135070529Y-105374532D01*
X134889889Y-105338600D01*
X134705711Y-105338600D01*
X134525071Y-105374532D01*
X134354911Y-105445014D01*
X134201772Y-105547338D01*
X134071538Y-105677572D01*
X133969214Y-105830711D01*
X133898732Y-106000871D01*
X133862800Y-106181511D01*
X126338000Y-106181511D01*
X126338000Y-103403061D01*
X150653800Y-103403061D01*
X150653800Y-103606939D01*
X150693574Y-103806898D01*
X150771595Y-103995256D01*
X150884863Y-104164774D01*
X151029026Y-104308937D01*
X151198544Y-104422205D01*
X151386902Y-104500226D01*
X151586861Y-104540000D01*
X151790739Y-104540000D01*
X151990698Y-104500226D01*
X152179056Y-104422205D01*
X152348574Y-104308937D01*
X152492737Y-104164774D01*
X152606005Y-103995256D01*
X152684026Y-103806898D01*
X152723800Y-103606939D01*
X152723800Y-103403061D01*
X152684026Y-103203102D01*
X152606005Y-103014744D01*
X152492737Y-102845226D01*
X152348574Y-102701063D01*
X152179056Y-102587795D01*
X151990698Y-102509774D01*
X151790739Y-102470000D01*
X151586861Y-102470000D01*
X151386902Y-102509774D01*
X151198544Y-102587795D01*
X151029026Y-102701063D01*
X150884863Y-102845226D01*
X150771595Y-103014744D01*
X150693574Y-103203102D01*
X150653800Y-103403061D01*
X126338000Y-103403061D01*
X126338000Y-100288711D01*
X158069000Y-100288711D01*
X158069000Y-100472889D01*
X158104932Y-100653529D01*
X158175414Y-100823689D01*
X158277738Y-100976828D01*
X158407972Y-101107062D01*
X158561111Y-101209386D01*
X158731271Y-101279868D01*
X158911911Y-101315800D01*
X159096089Y-101315800D01*
X159276729Y-101279868D01*
X159446889Y-101209386D01*
X159600028Y-101107062D01*
X159730262Y-100976828D01*
X159832586Y-100823689D01*
X159903068Y-100653529D01*
X159939000Y-100472889D01*
X159939000Y-100288711D01*
X159903068Y-100108071D01*
X159832586Y-99937911D01*
X159730262Y-99784772D01*
X159600028Y-99654538D01*
X159446889Y-99552214D01*
X159276729Y-99481732D01*
X159096089Y-99445800D01*
X158911911Y-99445800D01*
X158731271Y-99481732D01*
X158561111Y-99552214D01*
X158407972Y-99654538D01*
X158277738Y-99784772D01*
X158175414Y-99937911D01*
X158104932Y-100108071D01*
X158069000Y-100288711D01*
X126338000Y-100288711D01*
X126338000Y-98585695D01*
X151565384Y-98585695D01*
X151565384Y-98769873D01*
X151601316Y-98950513D01*
X151671798Y-99120673D01*
X151774122Y-99273812D01*
X151904356Y-99404046D01*
X152057495Y-99506370D01*
X152227655Y-99576852D01*
X152408295Y-99612784D01*
X152592473Y-99612784D01*
X152773113Y-99576852D01*
X152943273Y-99506370D01*
X153096412Y-99404046D01*
X153226646Y-99273812D01*
X153328970Y-99120673D01*
X153399452Y-98950513D01*
X153435384Y-98769873D01*
X153435384Y-98585695D01*
X153399452Y-98405055D01*
X153328970Y-98234895D01*
X153226646Y-98081756D01*
X153096412Y-97951522D01*
X152943273Y-97849198D01*
X152773113Y-97778716D01*
X152592473Y-97742784D01*
X152408295Y-97742784D01*
X152227655Y-97778716D01*
X152057495Y-97849198D01*
X151904356Y-97951522D01*
X151774122Y-98081756D01*
X151671798Y-98234895D01*
X151601316Y-98405055D01*
X151565384Y-98585695D01*
X126338000Y-98585695D01*
X126338000Y-95147911D01*
X156761201Y-95147911D01*
X156761201Y-95332089D01*
X156797133Y-95512729D01*
X156867615Y-95682889D01*
X156969939Y-95836028D01*
X157100173Y-95966262D01*
X157253312Y-96068586D01*
X157423472Y-96139068D01*
X157604112Y-96175000D01*
X157788290Y-96175000D01*
X157968930Y-96139068D01*
X158139090Y-96068586D01*
X158292229Y-95966262D01*
X158422463Y-95836028D01*
X158524787Y-95682889D01*
X158581370Y-95546284D01*
X158743329Y-95514068D01*
X158913489Y-95443586D01*
X159066628Y-95341262D01*
X159196862Y-95211028D01*
X159299186Y-95057889D01*
X159369668Y-94887729D01*
X159385000Y-94810651D01*
X159385000Y-97431643D01*
X159349986Y-97347111D01*
X159247662Y-97193972D01*
X159117428Y-97063738D01*
X158964289Y-96961414D01*
X158794129Y-96890932D01*
X158613489Y-96855000D01*
X158429311Y-96855000D01*
X158248671Y-96890932D01*
X158078511Y-96961414D01*
X157925372Y-97063738D01*
X157795138Y-97193972D01*
X157692814Y-97347111D01*
X157622332Y-97517271D01*
X157586400Y-97697911D01*
X157586400Y-97882089D01*
X157622332Y-98062729D01*
X157692814Y-98232889D01*
X157795138Y-98386028D01*
X157925372Y-98516262D01*
X158078511Y-98618586D01*
X158248671Y-98689068D01*
X158429311Y-98725000D01*
X158613489Y-98725000D01*
X158794129Y-98689068D01*
X158964289Y-98618586D01*
X159117428Y-98516262D01*
X159247662Y-98386028D01*
X159349986Y-98232889D01*
X159420468Y-98062729D01*
X159456400Y-97882089D01*
X159456400Y-97822153D01*
X159492017Y-97888787D01*
X159570987Y-97985013D01*
X159667213Y-98063983D01*
X159776996Y-98122664D01*
X159896118Y-98158799D01*
X160020000Y-98171000D01*
X164211000Y-98171000D01*
X164211000Y-101346000D01*
X164223201Y-101469882D01*
X164259336Y-101589004D01*
X164296044Y-101657680D01*
X164255129Y-101640732D01*
X164074489Y-101604800D01*
X163890311Y-101604800D01*
X163709671Y-101640732D01*
X163539511Y-101711214D01*
X163386372Y-101813538D01*
X163256138Y-101943772D01*
X163153814Y-102096911D01*
X163083332Y-102267071D01*
X163047400Y-102447711D01*
X163047400Y-102631889D01*
X163083332Y-102812529D01*
X163153814Y-102982689D01*
X163256138Y-103135828D01*
X163386372Y-103266062D01*
X163539511Y-103368386D01*
X163709671Y-103438868D01*
X163890311Y-103474800D01*
X164074489Y-103474800D01*
X164255129Y-103438868D01*
X164425289Y-103368386D01*
X164578428Y-103266062D01*
X164708662Y-103135828D01*
X164810986Y-102982689D01*
X164881468Y-102812529D01*
X164917400Y-102631889D01*
X164917400Y-102447711D01*
X164881468Y-102267071D01*
X164810986Y-102096911D01*
X164725615Y-101969143D01*
X164846000Y-101981000D01*
X168529000Y-101981000D01*
X168652882Y-101968799D01*
X168772004Y-101932664D01*
X168872286Y-101879061D01*
X169856200Y-101879061D01*
X169856200Y-102082939D01*
X169895974Y-102282898D01*
X169973995Y-102471256D01*
X170087263Y-102640774D01*
X170231426Y-102784937D01*
X170400944Y-102898205D01*
X170589302Y-102976226D01*
X170789261Y-103016000D01*
X170993139Y-103016000D01*
X171193098Y-102976226D01*
X171381456Y-102898205D01*
X171550974Y-102784937D01*
X171695137Y-102640774D01*
X171808405Y-102471256D01*
X171886426Y-102282898D01*
X171926200Y-102082939D01*
X171926200Y-101879061D01*
X171918055Y-101838111D01*
X177855600Y-101838111D01*
X177855600Y-102022289D01*
X177891532Y-102202929D01*
X177962014Y-102373089D01*
X178064338Y-102526228D01*
X178194572Y-102656462D01*
X178347711Y-102758786D01*
X178517871Y-102829268D01*
X178698511Y-102865200D01*
X178882689Y-102865200D01*
X179063329Y-102829268D01*
X179233489Y-102758786D01*
X179386628Y-102656462D01*
X179516862Y-102526228D01*
X179619186Y-102373089D01*
X179622950Y-102364000D01*
X183012509Y-102364000D01*
X183034423Y-102586499D01*
X183099324Y-102800447D01*
X183204716Y-102997623D01*
X183346551Y-103170449D01*
X183519377Y-103312284D01*
X183716553Y-103417676D01*
X183930501Y-103482577D01*
X184097248Y-103499000D01*
X185308752Y-103499000D01*
X185475499Y-103482577D01*
X185689447Y-103417676D01*
X185886623Y-103312284D01*
X186059449Y-103170449D01*
X186201284Y-102997623D01*
X186306676Y-102800447D01*
X186371577Y-102586499D01*
X186393491Y-102364000D01*
X187442509Y-102364000D01*
X187464423Y-102586499D01*
X187529324Y-102800447D01*
X187634716Y-102997623D01*
X187776551Y-103170449D01*
X187949377Y-103312284D01*
X188146553Y-103417676D01*
X188360501Y-103482577D01*
X188527248Y-103499000D01*
X189238752Y-103499000D01*
X189405499Y-103482577D01*
X189619447Y-103417676D01*
X189816623Y-103312284D01*
X189989449Y-103170449D01*
X190131284Y-102997623D01*
X190236676Y-102800447D01*
X190301577Y-102586499D01*
X190323491Y-102364000D01*
X190301577Y-102141501D01*
X190236676Y-101927553D01*
X190131284Y-101730377D01*
X189989449Y-101557551D01*
X189816623Y-101415716D01*
X189619447Y-101310324D01*
X189405499Y-101245423D01*
X189238752Y-101229000D01*
X188527248Y-101229000D01*
X188360501Y-101245423D01*
X188146553Y-101310324D01*
X187949377Y-101415716D01*
X187776551Y-101557551D01*
X187634716Y-101730377D01*
X187529324Y-101927553D01*
X187464423Y-102141501D01*
X187442509Y-102364000D01*
X186393491Y-102364000D01*
X186371577Y-102141501D01*
X186306676Y-101927553D01*
X186201284Y-101730377D01*
X186059449Y-101557551D01*
X186002285Y-101510638D01*
X186083741Y-101388731D01*
X186156108Y-101214022D01*
X186193000Y-101028552D01*
X186193000Y-100839448D01*
X186156108Y-100653978D01*
X186083741Y-100479269D01*
X185978681Y-100322036D01*
X185844964Y-100188319D01*
X185687731Y-100083259D01*
X185513022Y-100010892D01*
X185327552Y-99974000D01*
X185138448Y-99974000D01*
X184952978Y-100010892D01*
X184778269Y-100083259D01*
X184621036Y-100188319D01*
X184487319Y-100322036D01*
X184382259Y-100479269D01*
X184309892Y-100653978D01*
X184273000Y-100839448D01*
X184273000Y-101028552D01*
X184309892Y-101214022D01*
X184316096Y-101229000D01*
X184097248Y-101229000D01*
X183930501Y-101245423D01*
X183716553Y-101310324D01*
X183519377Y-101415716D01*
X183346551Y-101557551D01*
X183204716Y-101730377D01*
X183099324Y-101927553D01*
X183034423Y-102141501D01*
X183012509Y-102364000D01*
X179622950Y-102364000D01*
X179689668Y-102202929D01*
X179725600Y-102022289D01*
X179725600Y-101838111D01*
X179689668Y-101657471D01*
X179619186Y-101487311D01*
X179516862Y-101334172D01*
X179386628Y-101203938D01*
X179383595Y-101201911D01*
X181235000Y-101201911D01*
X181235000Y-101386089D01*
X181270932Y-101566729D01*
X181341414Y-101736889D01*
X181443738Y-101890028D01*
X181573972Y-102020262D01*
X181727111Y-102122586D01*
X181897271Y-102193068D01*
X182077911Y-102229000D01*
X182262089Y-102229000D01*
X182442729Y-102193068D01*
X182612889Y-102122586D01*
X182766028Y-102020262D01*
X182896262Y-101890028D01*
X182998586Y-101736889D01*
X183069068Y-101566729D01*
X183105000Y-101386089D01*
X183105000Y-101201911D01*
X183069068Y-101021271D01*
X182998586Y-100851111D01*
X182896262Y-100697972D01*
X182766028Y-100567738D01*
X182612889Y-100465414D01*
X182442729Y-100394932D01*
X182262089Y-100359000D01*
X182077911Y-100359000D01*
X181897271Y-100394932D01*
X181727111Y-100465414D01*
X181573972Y-100567738D01*
X181443738Y-100697972D01*
X181341414Y-100851111D01*
X181270932Y-101021271D01*
X181235000Y-101201911D01*
X179383595Y-101201911D01*
X179233489Y-101101614D01*
X179063329Y-101031132D01*
X178882689Y-100995200D01*
X178698511Y-100995200D01*
X178517871Y-101031132D01*
X178347711Y-101101614D01*
X178194572Y-101203938D01*
X178064338Y-101334172D01*
X177962014Y-101487311D01*
X177891532Y-101657471D01*
X177855600Y-101838111D01*
X171918055Y-101838111D01*
X171886426Y-101679102D01*
X171808405Y-101490744D01*
X171695137Y-101321226D01*
X171550974Y-101177063D01*
X171381456Y-101063795D01*
X171193098Y-100985774D01*
X170993139Y-100946000D01*
X170789261Y-100946000D01*
X170589302Y-100985774D01*
X170400944Y-101063795D01*
X170231426Y-101177063D01*
X170087263Y-101321226D01*
X169973995Y-101490744D01*
X169895974Y-101679102D01*
X169856200Y-101879061D01*
X168872286Y-101879061D01*
X168881787Y-101873983D01*
X168978013Y-101795013D01*
X169056983Y-101698787D01*
X169115664Y-101589004D01*
X169151799Y-101469882D01*
X169164000Y-101346000D01*
X169164000Y-99374311D01*
X176915800Y-99374311D01*
X176915800Y-99558489D01*
X176951732Y-99739129D01*
X177022214Y-99909289D01*
X177124538Y-100062428D01*
X177254772Y-100192662D01*
X177407911Y-100294986D01*
X177578071Y-100365468D01*
X177758711Y-100401400D01*
X177942889Y-100401400D01*
X178123529Y-100365468D01*
X178293689Y-100294986D01*
X178446828Y-100192662D01*
X178577062Y-100062428D01*
X178679386Y-99909289D01*
X178749868Y-99739129D01*
X178785800Y-99558489D01*
X178785800Y-99374311D01*
X178749868Y-99193671D01*
X178679386Y-99023511D01*
X178577062Y-98870372D01*
X178446828Y-98740138D01*
X178293689Y-98637814D01*
X178123529Y-98567332D01*
X177942889Y-98531400D01*
X177758711Y-98531400D01*
X177578071Y-98567332D01*
X177407911Y-98637814D01*
X177254772Y-98740138D01*
X177124538Y-98870372D01*
X177022214Y-99023511D01*
X176951732Y-99193671D01*
X176915800Y-99374311D01*
X169164000Y-99374311D01*
X169164000Y-97875711D01*
X173131200Y-97875711D01*
X173131200Y-98059889D01*
X173167132Y-98240529D01*
X173237614Y-98410689D01*
X173339938Y-98563828D01*
X173470172Y-98694062D01*
X173623311Y-98796386D01*
X173793471Y-98866868D01*
X173974111Y-98902800D01*
X174158289Y-98902800D01*
X174338929Y-98866868D01*
X174509089Y-98796386D01*
X174662228Y-98694062D01*
X174792462Y-98563828D01*
X174894786Y-98410689D01*
X174965268Y-98240529D01*
X175001200Y-98059889D01*
X175001200Y-97875711D01*
X174996148Y-97850311D01*
X175772800Y-97850311D01*
X175772800Y-98034489D01*
X175808732Y-98215129D01*
X175879214Y-98385289D01*
X175981538Y-98538428D01*
X176111772Y-98668662D01*
X176264911Y-98770986D01*
X176435071Y-98841468D01*
X176615711Y-98877400D01*
X176799889Y-98877400D01*
X176980529Y-98841468D01*
X177150689Y-98770986D01*
X177303828Y-98668662D01*
X177434062Y-98538428D01*
X177536386Y-98385289D01*
X177606868Y-98215129D01*
X177642800Y-98034489D01*
X177642800Y-97850311D01*
X177606868Y-97669671D01*
X177536386Y-97499511D01*
X177434062Y-97346372D01*
X177303828Y-97216138D01*
X177150689Y-97113814D01*
X176980529Y-97043332D01*
X176799889Y-97007400D01*
X176615711Y-97007400D01*
X176435071Y-97043332D01*
X176264911Y-97113814D01*
X176111772Y-97216138D01*
X175981538Y-97346372D01*
X175879214Y-97499511D01*
X175808732Y-97669671D01*
X175772800Y-97850311D01*
X174996148Y-97850311D01*
X174965268Y-97695071D01*
X174894786Y-97524911D01*
X174792462Y-97371772D01*
X174662228Y-97241538D01*
X174509089Y-97139214D01*
X174338929Y-97068732D01*
X174158289Y-97032800D01*
X173974111Y-97032800D01*
X173793471Y-97068732D01*
X173623311Y-97139214D01*
X173470172Y-97241538D01*
X173339938Y-97371772D01*
X173237614Y-97524911D01*
X173167132Y-97695071D01*
X173131200Y-97875711D01*
X169164000Y-97875711D01*
X169164000Y-95598051D01*
X169179332Y-95675129D01*
X169249814Y-95845289D01*
X169352138Y-95998428D01*
X169482372Y-96128662D01*
X169635511Y-96230986D01*
X169805671Y-96301468D01*
X169986311Y-96337400D01*
X170170489Y-96337400D01*
X170351129Y-96301468D01*
X170521289Y-96230986D01*
X170674428Y-96128662D01*
X170804662Y-95998428D01*
X170906986Y-95845289D01*
X170977468Y-95675129D01*
X170999511Y-95564311D01*
X173486800Y-95564311D01*
X173486800Y-95748489D01*
X173522732Y-95929129D01*
X173593214Y-96099289D01*
X173695538Y-96252428D01*
X173825772Y-96382662D01*
X173978911Y-96484986D01*
X174149071Y-96555468D01*
X174329711Y-96591400D01*
X174513889Y-96591400D01*
X174694529Y-96555468D01*
X174864689Y-96484986D01*
X175017828Y-96382662D01*
X175148062Y-96252428D01*
X175250386Y-96099289D01*
X175320868Y-95929129D01*
X175356800Y-95748489D01*
X175356800Y-95564311D01*
X176763400Y-95564311D01*
X176763400Y-95748489D01*
X176799332Y-95929129D01*
X176869814Y-96099289D01*
X176972138Y-96252428D01*
X177102372Y-96382662D01*
X177255511Y-96484986D01*
X177425671Y-96555468D01*
X177606311Y-96591400D01*
X177790489Y-96591400D01*
X177971129Y-96555468D01*
X178141289Y-96484986D01*
X178294428Y-96382662D01*
X178424662Y-96252428D01*
X178526986Y-96099289D01*
X178597468Y-95929129D01*
X178633400Y-95748489D01*
X178633400Y-95564311D01*
X178597468Y-95383671D01*
X178526986Y-95213511D01*
X178424662Y-95060372D01*
X178294428Y-94930138D01*
X178141289Y-94827814D01*
X177971129Y-94757332D01*
X177790489Y-94721400D01*
X177606311Y-94721400D01*
X177425671Y-94757332D01*
X177255511Y-94827814D01*
X177102372Y-94930138D01*
X176972138Y-95060372D01*
X176869814Y-95213511D01*
X176799332Y-95383671D01*
X176763400Y-95564311D01*
X175356800Y-95564311D01*
X175320868Y-95383671D01*
X175250386Y-95213511D01*
X175148062Y-95060372D01*
X175017828Y-94930138D01*
X174864689Y-94827814D01*
X174694529Y-94757332D01*
X174513889Y-94721400D01*
X174329711Y-94721400D01*
X174149071Y-94757332D01*
X173978911Y-94827814D01*
X173825772Y-94930138D01*
X173695538Y-95060372D01*
X173593214Y-95213511D01*
X173522732Y-95383671D01*
X173486800Y-95564311D01*
X170999511Y-95564311D01*
X171013400Y-95494489D01*
X171013400Y-95310311D01*
X170977468Y-95129671D01*
X170906986Y-94959511D01*
X170804662Y-94806372D01*
X170674428Y-94676138D01*
X170635177Y-94649911D01*
X181487800Y-94649911D01*
X181487800Y-94834089D01*
X181523732Y-95014729D01*
X181594214Y-95184889D01*
X181696538Y-95338028D01*
X181826772Y-95468262D01*
X181979911Y-95570586D01*
X182150071Y-95641068D01*
X182330711Y-95677000D01*
X182514889Y-95677000D01*
X182695529Y-95641068D01*
X182865689Y-95570586D01*
X183018828Y-95468262D01*
X183149062Y-95338028D01*
X183251386Y-95184889D01*
X183321868Y-95014729D01*
X183357800Y-94834089D01*
X183357800Y-94649911D01*
X183330034Y-94510323D01*
X183346551Y-94530449D01*
X183519377Y-94672284D01*
X183716553Y-94777676D01*
X183930501Y-94842577D01*
X184097248Y-94859000D01*
X184316096Y-94859000D01*
X184309892Y-94873978D01*
X184273000Y-95059448D01*
X184273000Y-95248552D01*
X184309892Y-95434022D01*
X184382259Y-95608731D01*
X184487319Y-95765964D01*
X184621036Y-95899681D01*
X184778269Y-96004741D01*
X184952978Y-96077108D01*
X185138448Y-96114000D01*
X185327552Y-96114000D01*
X185513022Y-96077108D01*
X185687731Y-96004741D01*
X185844964Y-95899681D01*
X185978681Y-95765964D01*
X186083741Y-95608731D01*
X186156108Y-95434022D01*
X186193000Y-95248552D01*
X186193000Y-95059448D01*
X186156108Y-94873978D01*
X186083741Y-94699269D01*
X186002285Y-94577362D01*
X186059449Y-94530449D01*
X186201284Y-94357623D01*
X186306676Y-94160447D01*
X186371577Y-93946499D01*
X186393491Y-93724000D01*
X187442509Y-93724000D01*
X187464423Y-93946499D01*
X187529324Y-94160447D01*
X187634716Y-94357623D01*
X187776551Y-94530449D01*
X187949377Y-94672284D01*
X188146553Y-94777676D01*
X188360501Y-94842577D01*
X188527248Y-94859000D01*
X189238752Y-94859000D01*
X189405499Y-94842577D01*
X189619447Y-94777676D01*
X189816623Y-94672284D01*
X189989449Y-94530449D01*
X190131284Y-94357623D01*
X190236676Y-94160447D01*
X190301577Y-93946499D01*
X190323491Y-93724000D01*
X190301577Y-93501501D01*
X190236676Y-93287553D01*
X190131284Y-93090377D01*
X189989449Y-92917551D01*
X189816623Y-92775716D01*
X189619447Y-92670324D01*
X189405499Y-92605423D01*
X189238752Y-92589000D01*
X188527248Y-92589000D01*
X188360501Y-92605423D01*
X188146553Y-92670324D01*
X187949377Y-92775716D01*
X187776551Y-92917551D01*
X187634716Y-93090377D01*
X187529324Y-93287553D01*
X187464423Y-93501501D01*
X187442509Y-93724000D01*
X186393491Y-93724000D01*
X186371577Y-93501501D01*
X186306676Y-93287553D01*
X186201284Y-93090377D01*
X186059449Y-92917551D01*
X185886623Y-92775716D01*
X185689447Y-92670324D01*
X185475499Y-92605423D01*
X185308752Y-92589000D01*
X184097248Y-92589000D01*
X183930501Y-92605423D01*
X183716553Y-92670324D01*
X183519377Y-92775716D01*
X183346551Y-92917551D01*
X183204716Y-93090377D01*
X183099324Y-93287553D01*
X183034423Y-93501501D01*
X183012509Y-93724000D01*
X183034423Y-93946499D01*
X183071363Y-94068273D01*
X183018828Y-94015738D01*
X182865689Y-93913414D01*
X182695529Y-93842932D01*
X182514889Y-93807000D01*
X182330711Y-93807000D01*
X182150071Y-93842932D01*
X181979911Y-93913414D01*
X181826772Y-94015738D01*
X181696538Y-94145972D01*
X181594214Y-94299111D01*
X181523732Y-94469271D01*
X181487800Y-94649911D01*
X170635177Y-94649911D01*
X170521289Y-94573814D01*
X170351129Y-94503332D01*
X170170489Y-94467400D01*
X169986311Y-94467400D01*
X169805671Y-94503332D01*
X169635511Y-94573814D01*
X169482372Y-94676138D01*
X169352138Y-94806372D01*
X169249814Y-94959511D01*
X169179332Y-95129671D01*
X169164000Y-95206749D01*
X169164000Y-93278311D01*
X173436000Y-93278311D01*
X173436000Y-93462489D01*
X173471932Y-93643129D01*
X173542414Y-93813289D01*
X173644738Y-93966428D01*
X173774972Y-94096662D01*
X173928111Y-94198986D01*
X174098271Y-94269468D01*
X174278911Y-94305400D01*
X174463089Y-94305400D01*
X174643729Y-94269468D01*
X174813889Y-94198986D01*
X174967028Y-94096662D01*
X175097262Y-93966428D01*
X175199586Y-93813289D01*
X175270068Y-93643129D01*
X175306000Y-93462489D01*
X175306000Y-93278311D01*
X175270068Y-93097671D01*
X175199586Y-92927511D01*
X175097262Y-92774372D01*
X174967028Y-92644138D01*
X174813889Y-92541814D01*
X174643729Y-92471332D01*
X174463089Y-92435400D01*
X174278911Y-92435400D01*
X174098271Y-92471332D01*
X173928111Y-92541814D01*
X173774972Y-92644138D01*
X173644738Y-92774372D01*
X173542414Y-92927511D01*
X173471932Y-93097671D01*
X173436000Y-93278311D01*
X169164000Y-93278311D01*
X169164000Y-90678000D01*
X169151799Y-90554118D01*
X169115664Y-90434996D01*
X169056983Y-90325213D01*
X168978013Y-90228987D01*
X168881787Y-90150017D01*
X168772004Y-90091336D01*
X168652882Y-90055201D01*
X168529000Y-90043000D01*
X160020000Y-90043000D01*
X159896118Y-90055201D01*
X159776996Y-90091336D01*
X159667213Y-90150017D01*
X159570987Y-90228987D01*
X159492017Y-90325213D01*
X159433336Y-90434996D01*
X159397201Y-90554118D01*
X159385000Y-90678000D01*
X159385000Y-93428964D01*
X159324586Y-93283111D01*
X159222262Y-93129972D01*
X159092028Y-92999738D01*
X158938889Y-92897414D01*
X158855090Y-92862704D01*
X158872200Y-92776689D01*
X158872200Y-92592511D01*
X158836268Y-92411871D01*
X158765786Y-92241711D01*
X158663462Y-92088572D01*
X158533228Y-91958338D01*
X158380089Y-91856014D01*
X158209929Y-91785532D01*
X158029289Y-91749600D01*
X157845111Y-91749600D01*
X157664471Y-91785532D01*
X157494311Y-91856014D01*
X157341172Y-91958338D01*
X157210938Y-92088572D01*
X157108614Y-92241711D01*
X157038132Y-92411871D01*
X157002200Y-92592511D01*
X157002200Y-92776689D01*
X157038132Y-92957329D01*
X157108614Y-93127489D01*
X157210938Y-93280628D01*
X157341172Y-93410862D01*
X157494311Y-93513186D01*
X157578110Y-93547896D01*
X157561000Y-93633911D01*
X157561000Y-93818089D01*
X157596932Y-93998729D01*
X157658518Y-94147411D01*
X157642014Y-94172111D01*
X157585431Y-94308716D01*
X157423472Y-94340932D01*
X157253312Y-94411414D01*
X157100173Y-94513738D01*
X156969939Y-94643972D01*
X156867615Y-94797111D01*
X156797133Y-94967271D01*
X156761201Y-95147911D01*
X126338000Y-95147911D01*
X126338000Y-92389311D01*
X136834600Y-92389311D01*
X136834600Y-92573489D01*
X136870532Y-92754129D01*
X136941014Y-92924289D01*
X137043338Y-93077428D01*
X137173572Y-93207662D01*
X137326711Y-93309986D01*
X137496871Y-93380468D01*
X137677511Y-93416400D01*
X137861689Y-93416400D01*
X138042329Y-93380468D01*
X138212489Y-93309986D01*
X138365628Y-93207662D01*
X138495862Y-93077428D01*
X138598186Y-92924289D01*
X138668668Y-92754129D01*
X138683669Y-92678711D01*
X142473400Y-92678711D01*
X142473400Y-92862889D01*
X142509332Y-93043529D01*
X142579814Y-93213689D01*
X142682138Y-93366828D01*
X142812372Y-93497062D01*
X142965511Y-93599386D01*
X143135671Y-93669868D01*
X143316311Y-93705800D01*
X143500489Y-93705800D01*
X143681129Y-93669868D01*
X143851289Y-93599386D01*
X144004428Y-93497062D01*
X144134662Y-93366828D01*
X144236986Y-93213689D01*
X144307468Y-93043529D01*
X144343400Y-92862889D01*
X144343400Y-92678711D01*
X144326254Y-92592511D01*
X150652200Y-92592511D01*
X150652200Y-92776689D01*
X150688132Y-92957329D01*
X150758614Y-93127489D01*
X150860938Y-93280628D01*
X150991172Y-93410862D01*
X151144311Y-93513186D01*
X151314471Y-93583668D01*
X151495111Y-93619600D01*
X151679289Y-93619600D01*
X151859929Y-93583668D01*
X152030089Y-93513186D01*
X152183228Y-93410862D01*
X152313462Y-93280628D01*
X152415786Y-93127489D01*
X152486268Y-92957329D01*
X152522200Y-92776689D01*
X152522200Y-92592511D01*
X152486268Y-92411871D01*
X152415786Y-92241711D01*
X152313462Y-92088572D01*
X152183228Y-91958338D01*
X152030089Y-91856014D01*
X151859929Y-91785532D01*
X151679289Y-91749600D01*
X151495111Y-91749600D01*
X151314471Y-91785532D01*
X151144311Y-91856014D01*
X150991172Y-91958338D01*
X150860938Y-92088572D01*
X150758614Y-92241711D01*
X150688132Y-92411871D01*
X150652200Y-92592511D01*
X144326254Y-92592511D01*
X144307468Y-92498071D01*
X144236986Y-92327911D01*
X144134662Y-92174772D01*
X144004428Y-92044538D01*
X143851289Y-91942214D01*
X143681129Y-91871732D01*
X143500489Y-91835800D01*
X143316311Y-91835800D01*
X143135671Y-91871732D01*
X142965511Y-91942214D01*
X142812372Y-92044538D01*
X142682138Y-92174772D01*
X142579814Y-92327911D01*
X142509332Y-92498071D01*
X142473400Y-92678711D01*
X138683669Y-92678711D01*
X138704600Y-92573489D01*
X138704600Y-92389311D01*
X138668668Y-92208671D01*
X138598186Y-92038511D01*
X138495862Y-91885372D01*
X138365628Y-91755138D01*
X138212489Y-91652814D01*
X138042329Y-91582332D01*
X137861689Y-91546400D01*
X137677511Y-91546400D01*
X137496871Y-91582332D01*
X137326711Y-91652814D01*
X137173572Y-91755138D01*
X137043338Y-91885372D01*
X136941014Y-92038511D01*
X136870532Y-92208671D01*
X136834600Y-92389311D01*
X126338000Y-92389311D01*
X126338000Y-87461711D01*
X145800800Y-87461711D01*
X145800800Y-87645889D01*
X145836732Y-87826529D01*
X145907214Y-87996689D01*
X146009538Y-88149828D01*
X146139772Y-88280062D01*
X146292911Y-88382386D01*
X146463071Y-88452868D01*
X146643711Y-88488800D01*
X146827889Y-88488800D01*
X147008529Y-88452868D01*
X147178689Y-88382386D01*
X147331828Y-88280062D01*
X147462062Y-88149828D01*
X147564386Y-87996689D01*
X147586081Y-87944311D01*
X150652200Y-87944311D01*
X150652200Y-88128489D01*
X150688132Y-88309129D01*
X150758614Y-88479289D01*
X150860938Y-88632428D01*
X150991172Y-88762662D01*
X151144311Y-88864986D01*
X151314471Y-88935468D01*
X151495111Y-88971400D01*
X151679289Y-88971400D01*
X151859929Y-88935468D01*
X152030089Y-88864986D01*
X152183228Y-88762662D01*
X152313462Y-88632428D01*
X152415786Y-88479289D01*
X152486268Y-88309129D01*
X152522200Y-88128489D01*
X152522200Y-87944311D01*
X152486268Y-87763671D01*
X152415786Y-87593511D01*
X152313462Y-87440372D01*
X152183228Y-87310138D01*
X152030089Y-87207814D01*
X151859929Y-87137332D01*
X151679289Y-87101400D01*
X151495111Y-87101400D01*
X151314471Y-87137332D01*
X151144311Y-87207814D01*
X150991172Y-87310138D01*
X150860938Y-87440372D01*
X150758614Y-87593511D01*
X150688132Y-87763671D01*
X150652200Y-87944311D01*
X147586081Y-87944311D01*
X147634868Y-87826529D01*
X147670800Y-87645889D01*
X147670800Y-87461711D01*
X147634868Y-87281071D01*
X147564386Y-87110911D01*
X147462062Y-86957772D01*
X147331828Y-86827538D01*
X147178689Y-86725214D01*
X147008529Y-86654732D01*
X146827889Y-86618800D01*
X146643711Y-86618800D01*
X146463071Y-86654732D01*
X146292911Y-86725214D01*
X146139772Y-86827538D01*
X146009538Y-86957772D01*
X145907214Y-87110911D01*
X145836732Y-87281071D01*
X145800800Y-87461711D01*
X126338000Y-87461711D01*
X126338000Y-86079000D01*
X190908001Y-86079000D01*
X190908000Y-110009000D01*
G37*
X190908000Y-110009000D02*
X177404105Y-110009000D01*
X177384498Y-108009106D01*
X177454738Y-108114228D01*
X177584972Y-108244462D01*
X177738111Y-108346786D01*
X177908271Y-108417268D01*
X178088911Y-108453200D01*
X178273089Y-108453200D01*
X178453729Y-108417268D01*
X178623889Y-108346786D01*
X178777028Y-108244462D01*
X178907262Y-108114228D01*
X179009586Y-107961089D01*
X179080068Y-107790929D01*
X179116000Y-107610289D01*
X179116000Y-107426111D01*
X179080068Y-107245471D01*
X179009586Y-107075311D01*
X178907262Y-106922172D01*
X178777028Y-106791938D01*
X178623889Y-106689614D01*
X178453729Y-106619132D01*
X178273089Y-106583200D01*
X178088911Y-106583200D01*
X177908271Y-106619132D01*
X177738111Y-106689614D01*
X177584972Y-106791938D01*
X177454738Y-106922172D01*
X177375011Y-107041492D01*
X177354877Y-104987711D01*
X179278000Y-104987711D01*
X179278000Y-105171889D01*
X179313932Y-105352529D01*
X179384414Y-105522689D01*
X179486738Y-105675828D01*
X179616972Y-105806062D01*
X179770111Y-105908386D01*
X179940271Y-105978868D01*
X180120911Y-106014800D01*
X180305089Y-106014800D01*
X180485729Y-105978868D01*
X180655889Y-105908386D01*
X180809028Y-105806062D01*
X180939262Y-105675828D01*
X181041586Y-105522689D01*
X181112068Y-105352529D01*
X181148000Y-105171889D01*
X181148000Y-104987711D01*
X181112068Y-104807071D01*
X181041586Y-104636911D01*
X180939262Y-104483772D01*
X180809028Y-104353538D01*
X180655889Y-104251214D01*
X180485729Y-104180732D01*
X180305089Y-104144800D01*
X180120911Y-104144800D01*
X179940271Y-104180732D01*
X179770111Y-104251214D01*
X179616972Y-104353538D01*
X179486738Y-104483772D01*
X179384414Y-104636911D01*
X179313932Y-104807071D01*
X179278000Y-104987711D01*
X177354877Y-104987711D01*
X177342769Y-103752775D01*
X177330599Y-103635118D01*
X177294464Y-103515996D01*
X177235783Y-103406213D01*
X177156813Y-103309987D01*
X177060587Y-103231017D01*
X176950804Y-103172336D01*
X176831682Y-103136201D01*
X176707800Y-103124000D01*
X175326711Y-103124000D01*
X175284774Y-103082063D01*
X175115256Y-102968795D01*
X174926898Y-102890774D01*
X174726939Y-102851000D01*
X174523061Y-102851000D01*
X174323102Y-102890774D01*
X174134744Y-102968795D01*
X173965226Y-103082063D01*
X173923289Y-103124000D01*
X173024800Y-103124000D01*
X172900918Y-103136201D01*
X172781796Y-103172336D01*
X172672013Y-103231017D01*
X172575787Y-103309987D01*
X172496817Y-103406213D01*
X172438136Y-103515996D01*
X172402001Y-103635118D01*
X172389800Y-103759000D01*
X172389800Y-104743020D01*
X165639946Y-104673434D01*
X165509518Y-104685601D01*
X165390396Y-104721736D01*
X165280613Y-104780417D01*
X165184387Y-104859387D01*
X165133587Y-104910187D01*
X165054617Y-105006413D01*
X164995936Y-105116196D01*
X164959801Y-105235318D01*
X164947600Y-105359200D01*
X164947600Y-110009000D01*
X126338000Y-110009000D01*
X126338000Y-108391311D01*
X126979400Y-108391311D01*
X126979400Y-108575489D01*
X127015332Y-108756129D01*
X127085814Y-108926289D01*
X127188138Y-109079428D01*
X127318372Y-109209662D01*
X127471511Y-109311986D01*
X127641671Y-109382468D01*
X127822311Y-109418400D01*
X128006489Y-109418400D01*
X128187129Y-109382468D01*
X128357289Y-109311986D01*
X128510428Y-109209662D01*
X128640662Y-109079428D01*
X128742986Y-108926289D01*
X128813468Y-108756129D01*
X128849400Y-108575489D01*
X128849400Y-108391311D01*
X128813468Y-108210671D01*
X128742986Y-108040511D01*
X128640662Y-107887372D01*
X128510428Y-107757138D01*
X128357289Y-107654814D01*
X128187129Y-107584332D01*
X128006489Y-107548400D01*
X127822311Y-107548400D01*
X127641671Y-107584332D01*
X127471511Y-107654814D01*
X127318372Y-107757138D01*
X127188138Y-107887372D01*
X127085814Y-108040511D01*
X127015332Y-108210671D01*
X126979400Y-108391311D01*
X126338000Y-108391311D01*
X126338000Y-106181511D01*
X133862800Y-106181511D01*
X133862800Y-106365689D01*
X133898732Y-106546329D01*
X133969214Y-106716489D01*
X134071538Y-106869628D01*
X134201772Y-106999862D01*
X134354911Y-107102186D01*
X134525071Y-107172668D01*
X134705711Y-107208600D01*
X134889889Y-107208600D01*
X135070529Y-107172668D01*
X135240689Y-107102186D01*
X135393828Y-106999862D01*
X135524062Y-106869628D01*
X135626386Y-106716489D01*
X135696868Y-106546329D01*
X135703754Y-106511711D01*
X144505400Y-106511711D01*
X144505400Y-106695889D01*
X144541332Y-106876529D01*
X144611814Y-107046689D01*
X144714138Y-107199828D01*
X144844372Y-107330062D01*
X144997511Y-107432386D01*
X145167671Y-107502868D01*
X145348311Y-107538800D01*
X145532489Y-107538800D01*
X145713129Y-107502868D01*
X145883289Y-107432386D01*
X146036428Y-107330062D01*
X146166662Y-107199828D01*
X146268986Y-107046689D01*
X146339468Y-106876529D01*
X146375400Y-106695889D01*
X146375400Y-106511711D01*
X146348179Y-106374861D01*
X154311400Y-106374861D01*
X154311400Y-106578739D01*
X154351174Y-106778698D01*
X154429195Y-106967056D01*
X154542463Y-107136574D01*
X154686626Y-107280737D01*
X154856144Y-107394005D01*
X155044502Y-107472026D01*
X155244461Y-107511800D01*
X155448339Y-107511800D01*
X155648298Y-107472026D01*
X155836656Y-107394005D01*
X156006174Y-107280737D01*
X156150337Y-107136574D01*
X156263605Y-106967056D01*
X156341626Y-106778698D01*
X156381400Y-106578739D01*
X156381400Y-106374861D01*
X156341626Y-106174902D01*
X156263605Y-105986544D01*
X156150337Y-105817026D01*
X156138713Y-105805402D01*
X156225786Y-105675089D01*
X156226439Y-105673511D01*
X159491400Y-105673511D01*
X159491400Y-105857689D01*
X159527332Y-106038329D01*
X159597814Y-106208489D01*
X159700138Y-106361628D01*
X159830372Y-106491862D01*
X159983511Y-106594186D01*
X160153671Y-106664668D01*
X160334311Y-106700600D01*
X160518489Y-106700600D01*
X160699129Y-106664668D01*
X160869289Y-106594186D01*
X161022428Y-106491862D01*
X161152662Y-106361628D01*
X161254986Y-106208489D01*
X161325468Y-106038329D01*
X161361400Y-105857689D01*
X161361400Y-105775111D01*
X162056800Y-105775111D01*
X162056800Y-105959289D01*
X162092732Y-106139929D01*
X162163214Y-106310089D01*
X162265538Y-106463228D01*
X162395772Y-106593462D01*
X162548911Y-106695786D01*
X162719071Y-106766268D01*
X162899711Y-106802200D01*
X163083889Y-106802200D01*
X163264529Y-106766268D01*
X163434689Y-106695786D01*
X163587828Y-106593462D01*
X163718062Y-106463228D01*
X163820386Y-106310089D01*
X163890868Y-106139929D01*
X163926800Y-105959289D01*
X163926800Y-105775111D01*
X163890868Y-105594471D01*
X163820386Y-105424311D01*
X163718062Y-105271172D01*
X163587828Y-105140938D01*
X163434689Y-105038614D01*
X163264529Y-104968132D01*
X163083889Y-104932200D01*
X162899711Y-104932200D01*
X162719071Y-104968132D01*
X162548911Y-105038614D01*
X162395772Y-105140938D01*
X162265538Y-105271172D01*
X162163214Y-105424311D01*
X162092732Y-105594471D01*
X162056800Y-105775111D01*
X161361400Y-105775111D01*
X161361400Y-105673511D01*
X161325468Y-105492871D01*
X161254986Y-105322711D01*
X161152662Y-105169572D01*
X161022428Y-105039338D01*
X160869289Y-104937014D01*
X160699129Y-104866532D01*
X160518489Y-104830600D01*
X160334311Y-104830600D01*
X160153671Y-104866532D01*
X159983511Y-104937014D01*
X159830372Y-105039338D01*
X159700138Y-105169572D01*
X159597814Y-105322711D01*
X159527332Y-105492871D01*
X159491400Y-105673511D01*
X156226439Y-105673511D01*
X156296268Y-105504929D01*
X156332200Y-105324289D01*
X156332200Y-105140111D01*
X156296268Y-104959471D01*
X156225786Y-104789311D01*
X156123462Y-104636172D01*
X156087259Y-104599969D01*
X156149586Y-104506689D01*
X156220068Y-104336529D01*
X156256000Y-104155889D01*
X156256000Y-103971711D01*
X156220068Y-103791071D01*
X156149586Y-103620911D01*
X156047262Y-103467772D01*
X155978900Y-103399410D01*
X156046511Y-103444586D01*
X156216671Y-103515068D01*
X156397311Y-103551000D01*
X156581489Y-103551000D01*
X156762129Y-103515068D01*
X156932289Y-103444586D01*
X157085428Y-103342262D01*
X157215662Y-103212028D01*
X157317986Y-103058889D01*
X157388468Y-102888729D01*
X157424400Y-102708089D01*
X157424400Y-102523911D01*
X157388468Y-102343271D01*
X157317986Y-102173111D01*
X157215662Y-102019972D01*
X157085428Y-101889738D01*
X156932289Y-101787414D01*
X156762129Y-101716932D01*
X156581489Y-101681000D01*
X156397311Y-101681000D01*
X156216671Y-101716932D01*
X156046511Y-101787414D01*
X155893372Y-101889738D01*
X155763138Y-102019972D01*
X155660814Y-102173111D01*
X155590332Y-102343271D01*
X155554400Y-102523911D01*
X155554400Y-102708089D01*
X155590332Y-102888729D01*
X155660814Y-103058889D01*
X155763138Y-103212028D01*
X155831500Y-103280390D01*
X155763889Y-103235214D01*
X155593729Y-103164732D01*
X155413089Y-103128800D01*
X155228911Y-103128800D01*
X155048271Y-103164732D01*
X154878111Y-103235214D01*
X154724972Y-103337538D01*
X154594738Y-103467772D01*
X154492414Y-103620911D01*
X154421932Y-103791071D01*
X154386000Y-103971711D01*
X154386000Y-104155889D01*
X154421932Y-104336529D01*
X154492414Y-104506689D01*
X154594738Y-104659828D01*
X154630941Y-104696031D01*
X154568614Y-104789311D01*
X154498132Y-104959471D01*
X154462200Y-105140111D01*
X154462200Y-105324289D01*
X154498132Y-105504929D01*
X154568614Y-105675089D01*
X154614991Y-105744498D01*
X154542463Y-105817026D01*
X154429195Y-105986544D01*
X154351174Y-106174902D01*
X154311400Y-106374861D01*
X146348179Y-106374861D01*
X146339468Y-106331071D01*
X146268986Y-106160911D01*
X146166662Y-106007772D01*
X146036428Y-105877538D01*
X145883289Y-105775214D01*
X145713129Y-105704732D01*
X145532489Y-105668800D01*
X145348311Y-105668800D01*
X145167671Y-105704732D01*
X144997511Y-105775214D01*
X144844372Y-105877538D01*
X144714138Y-106007772D01*
X144611814Y-106160911D01*
X144541332Y-106331071D01*
X144505400Y-106511711D01*
X135703754Y-106511711D01*
X135732800Y-106365689D01*
X135732800Y-106181511D01*
X135696868Y-106000871D01*
X135626386Y-105830711D01*
X135559581Y-105730730D01*
X135668071Y-105775668D01*
X135848711Y-105811600D01*
X136032889Y-105811600D01*
X136213529Y-105775668D01*
X136383689Y-105705186D01*
X136536828Y-105602862D01*
X136667062Y-105472628D01*
X136769386Y-105319489D01*
X136839868Y-105149329D01*
X136875800Y-104968689D01*
X136875800Y-104809911D01*
X143108400Y-104809911D01*
X143108400Y-104994089D01*
X143144332Y-105174729D01*
X143214814Y-105344889D01*
X143317138Y-105498028D01*
X143447372Y-105628262D01*
X143600511Y-105730586D01*
X143770671Y-105801068D01*
X143951311Y-105837000D01*
X144135489Y-105837000D01*
X144316129Y-105801068D01*
X144486289Y-105730586D01*
X144639428Y-105628262D01*
X144769662Y-105498028D01*
X144818639Y-105424729D01*
X144818972Y-105425062D01*
X144972111Y-105527386D01*
X145142271Y-105597868D01*
X145322911Y-105633800D01*
X145507089Y-105633800D01*
X145687729Y-105597868D01*
X145857889Y-105527386D01*
X146011028Y-105425062D01*
X146141262Y-105294828D01*
X146243586Y-105141689D01*
X146314068Y-104971529D01*
X146350000Y-104790889D01*
X146350000Y-104606711D01*
X146314068Y-104426071D01*
X146243586Y-104255911D01*
X146141262Y-104102772D01*
X146011028Y-103972538D01*
X145857889Y-103870214D01*
X145687729Y-103799732D01*
X145507089Y-103763800D01*
X145322911Y-103763800D01*
X145142271Y-103799732D01*
X144972111Y-103870214D01*
X144818972Y-103972538D01*
X144688738Y-104102772D01*
X144639761Y-104176071D01*
X144639428Y-104175738D01*
X144486289Y-104073414D01*
X144316129Y-104002932D01*
X144135489Y-103967000D01*
X143951311Y-103967000D01*
X143770671Y-104002932D01*
X143600511Y-104073414D01*
X143447372Y-104175738D01*
X143317138Y-104305972D01*
X143214814Y-104459111D01*
X143144332Y-104629271D01*
X143108400Y-104809911D01*
X136875800Y-104809911D01*
X136875800Y-104784511D01*
X136839868Y-104603871D01*
X136769386Y-104433711D01*
X136667062Y-104280572D01*
X136536828Y-104150338D01*
X136383689Y-104048014D01*
X136213529Y-103977532D01*
X136032889Y-103941600D01*
X135848711Y-103941600D01*
X135668071Y-103977532D01*
X135497911Y-104048014D01*
X135344772Y-104150338D01*
X135214538Y-104280572D01*
X135112214Y-104433711D01*
X135041732Y-104603871D01*
X135005800Y-104784511D01*
X135005800Y-104968689D01*
X135041732Y-105149329D01*
X135112214Y-105319489D01*
X135179019Y-105419470D01*
X135070529Y-105374532D01*
X134889889Y-105338600D01*
X134705711Y-105338600D01*
X134525071Y-105374532D01*
X134354911Y-105445014D01*
X134201772Y-105547338D01*
X134071538Y-105677572D01*
X133969214Y-105830711D01*
X133898732Y-106000871D01*
X133862800Y-106181511D01*
X126338000Y-106181511D01*
X126338000Y-103403061D01*
X150653800Y-103403061D01*
X150653800Y-103606939D01*
X150693574Y-103806898D01*
X150771595Y-103995256D01*
X150884863Y-104164774D01*
X151029026Y-104308937D01*
X151198544Y-104422205D01*
X151386902Y-104500226D01*
X151586861Y-104540000D01*
X151790739Y-104540000D01*
X151990698Y-104500226D01*
X152179056Y-104422205D01*
X152348574Y-104308937D01*
X152492737Y-104164774D01*
X152606005Y-103995256D01*
X152684026Y-103806898D01*
X152723800Y-103606939D01*
X152723800Y-103403061D01*
X152684026Y-103203102D01*
X152606005Y-103014744D01*
X152492737Y-102845226D01*
X152348574Y-102701063D01*
X152179056Y-102587795D01*
X151990698Y-102509774D01*
X151790739Y-102470000D01*
X151586861Y-102470000D01*
X151386902Y-102509774D01*
X151198544Y-102587795D01*
X151029026Y-102701063D01*
X150884863Y-102845226D01*
X150771595Y-103014744D01*
X150693574Y-103203102D01*
X150653800Y-103403061D01*
X126338000Y-103403061D01*
X126338000Y-100288711D01*
X158069000Y-100288711D01*
X158069000Y-100472889D01*
X158104932Y-100653529D01*
X158175414Y-100823689D01*
X158277738Y-100976828D01*
X158407972Y-101107062D01*
X158561111Y-101209386D01*
X158731271Y-101279868D01*
X158911911Y-101315800D01*
X159096089Y-101315800D01*
X159276729Y-101279868D01*
X159446889Y-101209386D01*
X159600028Y-101107062D01*
X159730262Y-100976828D01*
X159832586Y-100823689D01*
X159903068Y-100653529D01*
X159939000Y-100472889D01*
X159939000Y-100288711D01*
X159903068Y-100108071D01*
X159832586Y-99937911D01*
X159730262Y-99784772D01*
X159600028Y-99654538D01*
X159446889Y-99552214D01*
X159276729Y-99481732D01*
X159096089Y-99445800D01*
X158911911Y-99445800D01*
X158731271Y-99481732D01*
X158561111Y-99552214D01*
X158407972Y-99654538D01*
X158277738Y-99784772D01*
X158175414Y-99937911D01*
X158104932Y-100108071D01*
X158069000Y-100288711D01*
X126338000Y-100288711D01*
X126338000Y-98585695D01*
X151565384Y-98585695D01*
X151565384Y-98769873D01*
X151601316Y-98950513D01*
X151671798Y-99120673D01*
X151774122Y-99273812D01*
X151904356Y-99404046D01*
X152057495Y-99506370D01*
X152227655Y-99576852D01*
X152408295Y-99612784D01*
X152592473Y-99612784D01*
X152773113Y-99576852D01*
X152943273Y-99506370D01*
X153096412Y-99404046D01*
X153226646Y-99273812D01*
X153328970Y-99120673D01*
X153399452Y-98950513D01*
X153435384Y-98769873D01*
X153435384Y-98585695D01*
X153399452Y-98405055D01*
X153328970Y-98234895D01*
X153226646Y-98081756D01*
X153096412Y-97951522D01*
X152943273Y-97849198D01*
X152773113Y-97778716D01*
X152592473Y-97742784D01*
X152408295Y-97742784D01*
X152227655Y-97778716D01*
X152057495Y-97849198D01*
X151904356Y-97951522D01*
X151774122Y-98081756D01*
X151671798Y-98234895D01*
X151601316Y-98405055D01*
X151565384Y-98585695D01*
X126338000Y-98585695D01*
X126338000Y-95147911D01*
X156761201Y-95147911D01*
X156761201Y-95332089D01*
X156797133Y-95512729D01*
X156867615Y-95682889D01*
X156969939Y-95836028D01*
X157100173Y-95966262D01*
X157253312Y-96068586D01*
X157423472Y-96139068D01*
X157604112Y-96175000D01*
X157788290Y-96175000D01*
X157968930Y-96139068D01*
X158139090Y-96068586D01*
X158292229Y-95966262D01*
X158422463Y-95836028D01*
X158524787Y-95682889D01*
X158581370Y-95546284D01*
X158743329Y-95514068D01*
X158913489Y-95443586D01*
X159066628Y-95341262D01*
X159196862Y-95211028D01*
X159299186Y-95057889D01*
X159369668Y-94887729D01*
X159385000Y-94810651D01*
X159385000Y-97431643D01*
X159349986Y-97347111D01*
X159247662Y-97193972D01*
X159117428Y-97063738D01*
X158964289Y-96961414D01*
X158794129Y-96890932D01*
X158613489Y-96855000D01*
X158429311Y-96855000D01*
X158248671Y-96890932D01*
X158078511Y-96961414D01*
X157925372Y-97063738D01*
X157795138Y-97193972D01*
X157692814Y-97347111D01*
X157622332Y-97517271D01*
X157586400Y-97697911D01*
X157586400Y-97882089D01*
X157622332Y-98062729D01*
X157692814Y-98232889D01*
X157795138Y-98386028D01*
X157925372Y-98516262D01*
X158078511Y-98618586D01*
X158248671Y-98689068D01*
X158429311Y-98725000D01*
X158613489Y-98725000D01*
X158794129Y-98689068D01*
X158964289Y-98618586D01*
X159117428Y-98516262D01*
X159247662Y-98386028D01*
X159349986Y-98232889D01*
X159420468Y-98062729D01*
X159456400Y-97882089D01*
X159456400Y-97822153D01*
X159492017Y-97888787D01*
X159570987Y-97985013D01*
X159667213Y-98063983D01*
X159776996Y-98122664D01*
X159896118Y-98158799D01*
X160020000Y-98171000D01*
X164211000Y-98171000D01*
X164211000Y-101346000D01*
X164223201Y-101469882D01*
X164259336Y-101589004D01*
X164296044Y-101657680D01*
X164255129Y-101640732D01*
X164074489Y-101604800D01*
X163890311Y-101604800D01*
X163709671Y-101640732D01*
X163539511Y-101711214D01*
X163386372Y-101813538D01*
X163256138Y-101943772D01*
X163153814Y-102096911D01*
X163083332Y-102267071D01*
X163047400Y-102447711D01*
X163047400Y-102631889D01*
X163083332Y-102812529D01*
X163153814Y-102982689D01*
X163256138Y-103135828D01*
X163386372Y-103266062D01*
X163539511Y-103368386D01*
X163709671Y-103438868D01*
X163890311Y-103474800D01*
X164074489Y-103474800D01*
X164255129Y-103438868D01*
X164425289Y-103368386D01*
X164578428Y-103266062D01*
X164708662Y-103135828D01*
X164810986Y-102982689D01*
X164881468Y-102812529D01*
X164917400Y-102631889D01*
X164917400Y-102447711D01*
X164881468Y-102267071D01*
X164810986Y-102096911D01*
X164725615Y-101969143D01*
X164846000Y-101981000D01*
X168529000Y-101981000D01*
X168652882Y-101968799D01*
X168772004Y-101932664D01*
X168872286Y-101879061D01*
X169856200Y-101879061D01*
X169856200Y-102082939D01*
X169895974Y-102282898D01*
X169973995Y-102471256D01*
X170087263Y-102640774D01*
X170231426Y-102784937D01*
X170400944Y-102898205D01*
X170589302Y-102976226D01*
X170789261Y-103016000D01*
X170993139Y-103016000D01*
X171193098Y-102976226D01*
X171381456Y-102898205D01*
X171550974Y-102784937D01*
X171695137Y-102640774D01*
X171808405Y-102471256D01*
X171886426Y-102282898D01*
X171926200Y-102082939D01*
X171926200Y-101879061D01*
X171918055Y-101838111D01*
X177855600Y-101838111D01*
X177855600Y-102022289D01*
X177891532Y-102202929D01*
X177962014Y-102373089D01*
X178064338Y-102526228D01*
X178194572Y-102656462D01*
X178347711Y-102758786D01*
X178517871Y-102829268D01*
X178698511Y-102865200D01*
X178882689Y-102865200D01*
X179063329Y-102829268D01*
X179233489Y-102758786D01*
X179386628Y-102656462D01*
X179516862Y-102526228D01*
X179619186Y-102373089D01*
X179622950Y-102364000D01*
X183012509Y-102364000D01*
X183034423Y-102586499D01*
X183099324Y-102800447D01*
X183204716Y-102997623D01*
X183346551Y-103170449D01*
X183519377Y-103312284D01*
X183716553Y-103417676D01*
X183930501Y-103482577D01*
X184097248Y-103499000D01*
X185308752Y-103499000D01*
X185475499Y-103482577D01*
X185689447Y-103417676D01*
X185886623Y-103312284D01*
X186059449Y-103170449D01*
X186201284Y-102997623D01*
X186306676Y-102800447D01*
X186371577Y-102586499D01*
X186393491Y-102364000D01*
X187442509Y-102364000D01*
X187464423Y-102586499D01*
X187529324Y-102800447D01*
X187634716Y-102997623D01*
X187776551Y-103170449D01*
X187949377Y-103312284D01*
X188146553Y-103417676D01*
X188360501Y-103482577D01*
X188527248Y-103499000D01*
X189238752Y-103499000D01*
X189405499Y-103482577D01*
X189619447Y-103417676D01*
X189816623Y-103312284D01*
X189989449Y-103170449D01*
X190131284Y-102997623D01*
X190236676Y-102800447D01*
X190301577Y-102586499D01*
X190323491Y-102364000D01*
X190301577Y-102141501D01*
X190236676Y-101927553D01*
X190131284Y-101730377D01*
X189989449Y-101557551D01*
X189816623Y-101415716D01*
X189619447Y-101310324D01*
X189405499Y-101245423D01*
X189238752Y-101229000D01*
X188527248Y-101229000D01*
X188360501Y-101245423D01*
X188146553Y-101310324D01*
X187949377Y-101415716D01*
X187776551Y-101557551D01*
X187634716Y-101730377D01*
X187529324Y-101927553D01*
X187464423Y-102141501D01*
X187442509Y-102364000D01*
X186393491Y-102364000D01*
X186371577Y-102141501D01*
X186306676Y-101927553D01*
X186201284Y-101730377D01*
X186059449Y-101557551D01*
X186002285Y-101510638D01*
X186083741Y-101388731D01*
X186156108Y-101214022D01*
X186193000Y-101028552D01*
X186193000Y-100839448D01*
X186156108Y-100653978D01*
X186083741Y-100479269D01*
X185978681Y-100322036D01*
X185844964Y-100188319D01*
X185687731Y-100083259D01*
X185513022Y-100010892D01*
X185327552Y-99974000D01*
X185138448Y-99974000D01*
X184952978Y-100010892D01*
X184778269Y-100083259D01*
X184621036Y-100188319D01*
X184487319Y-100322036D01*
X184382259Y-100479269D01*
X184309892Y-100653978D01*
X184273000Y-100839448D01*
X184273000Y-101028552D01*
X184309892Y-101214022D01*
X184316096Y-101229000D01*
X184097248Y-101229000D01*
X183930501Y-101245423D01*
X183716553Y-101310324D01*
X183519377Y-101415716D01*
X183346551Y-101557551D01*
X183204716Y-101730377D01*
X183099324Y-101927553D01*
X183034423Y-102141501D01*
X183012509Y-102364000D01*
X179622950Y-102364000D01*
X179689668Y-102202929D01*
X179725600Y-102022289D01*
X179725600Y-101838111D01*
X179689668Y-101657471D01*
X179619186Y-101487311D01*
X179516862Y-101334172D01*
X179386628Y-101203938D01*
X179383595Y-101201911D01*
X181235000Y-101201911D01*
X181235000Y-101386089D01*
X181270932Y-101566729D01*
X181341414Y-101736889D01*
X181443738Y-101890028D01*
X181573972Y-102020262D01*
X181727111Y-102122586D01*
X181897271Y-102193068D01*
X182077911Y-102229000D01*
X182262089Y-102229000D01*
X182442729Y-102193068D01*
X182612889Y-102122586D01*
X182766028Y-102020262D01*
X182896262Y-101890028D01*
X182998586Y-101736889D01*
X183069068Y-101566729D01*
X183105000Y-101386089D01*
X183105000Y-101201911D01*
X183069068Y-101021271D01*
X182998586Y-100851111D01*
X182896262Y-100697972D01*
X182766028Y-100567738D01*
X182612889Y-100465414D01*
X182442729Y-100394932D01*
X182262089Y-100359000D01*
X182077911Y-100359000D01*
X181897271Y-100394932D01*
X181727111Y-100465414D01*
X181573972Y-100567738D01*
X181443738Y-100697972D01*
X181341414Y-100851111D01*
X181270932Y-101021271D01*
X181235000Y-101201911D01*
X179383595Y-101201911D01*
X179233489Y-101101614D01*
X179063329Y-101031132D01*
X178882689Y-100995200D01*
X178698511Y-100995200D01*
X178517871Y-101031132D01*
X178347711Y-101101614D01*
X178194572Y-101203938D01*
X178064338Y-101334172D01*
X177962014Y-101487311D01*
X177891532Y-101657471D01*
X177855600Y-101838111D01*
X171918055Y-101838111D01*
X171886426Y-101679102D01*
X171808405Y-101490744D01*
X171695137Y-101321226D01*
X171550974Y-101177063D01*
X171381456Y-101063795D01*
X171193098Y-100985774D01*
X170993139Y-100946000D01*
X170789261Y-100946000D01*
X170589302Y-100985774D01*
X170400944Y-101063795D01*
X170231426Y-101177063D01*
X170087263Y-101321226D01*
X169973995Y-101490744D01*
X169895974Y-101679102D01*
X169856200Y-101879061D01*
X168872286Y-101879061D01*
X168881787Y-101873983D01*
X168978013Y-101795013D01*
X169056983Y-101698787D01*
X169115664Y-101589004D01*
X169151799Y-101469882D01*
X169164000Y-101346000D01*
X169164000Y-99374311D01*
X176915800Y-99374311D01*
X176915800Y-99558489D01*
X176951732Y-99739129D01*
X177022214Y-99909289D01*
X177124538Y-100062428D01*
X177254772Y-100192662D01*
X177407911Y-100294986D01*
X177578071Y-100365468D01*
X177758711Y-100401400D01*
X177942889Y-100401400D01*
X178123529Y-100365468D01*
X178293689Y-100294986D01*
X178446828Y-100192662D01*
X178577062Y-100062428D01*
X178679386Y-99909289D01*
X178749868Y-99739129D01*
X178785800Y-99558489D01*
X178785800Y-99374311D01*
X178749868Y-99193671D01*
X178679386Y-99023511D01*
X178577062Y-98870372D01*
X178446828Y-98740138D01*
X178293689Y-98637814D01*
X178123529Y-98567332D01*
X177942889Y-98531400D01*
X177758711Y-98531400D01*
X177578071Y-98567332D01*
X177407911Y-98637814D01*
X177254772Y-98740138D01*
X177124538Y-98870372D01*
X177022214Y-99023511D01*
X176951732Y-99193671D01*
X176915800Y-99374311D01*
X169164000Y-99374311D01*
X169164000Y-97875711D01*
X173131200Y-97875711D01*
X173131200Y-98059889D01*
X173167132Y-98240529D01*
X173237614Y-98410689D01*
X173339938Y-98563828D01*
X173470172Y-98694062D01*
X173623311Y-98796386D01*
X173793471Y-98866868D01*
X173974111Y-98902800D01*
X174158289Y-98902800D01*
X174338929Y-98866868D01*
X174509089Y-98796386D01*
X174662228Y-98694062D01*
X174792462Y-98563828D01*
X174894786Y-98410689D01*
X174965268Y-98240529D01*
X175001200Y-98059889D01*
X175001200Y-97875711D01*
X174996148Y-97850311D01*
X175772800Y-97850311D01*
X175772800Y-98034489D01*
X175808732Y-98215129D01*
X175879214Y-98385289D01*
X175981538Y-98538428D01*
X176111772Y-98668662D01*
X176264911Y-98770986D01*
X176435071Y-98841468D01*
X176615711Y-98877400D01*
X176799889Y-98877400D01*
X176980529Y-98841468D01*
X177150689Y-98770986D01*
X177303828Y-98668662D01*
X177434062Y-98538428D01*
X177536386Y-98385289D01*
X177606868Y-98215129D01*
X177642800Y-98034489D01*
X177642800Y-97850311D01*
X177606868Y-97669671D01*
X177536386Y-97499511D01*
X177434062Y-97346372D01*
X177303828Y-97216138D01*
X177150689Y-97113814D01*
X176980529Y-97043332D01*
X176799889Y-97007400D01*
X176615711Y-97007400D01*
X176435071Y-97043332D01*
X176264911Y-97113814D01*
X176111772Y-97216138D01*
X175981538Y-97346372D01*
X175879214Y-97499511D01*
X175808732Y-97669671D01*
X175772800Y-97850311D01*
X174996148Y-97850311D01*
X174965268Y-97695071D01*
X174894786Y-97524911D01*
X174792462Y-97371772D01*
X174662228Y-97241538D01*
X174509089Y-97139214D01*
X174338929Y-97068732D01*
X174158289Y-97032800D01*
X173974111Y-97032800D01*
X173793471Y-97068732D01*
X173623311Y-97139214D01*
X173470172Y-97241538D01*
X173339938Y-97371772D01*
X173237614Y-97524911D01*
X173167132Y-97695071D01*
X173131200Y-97875711D01*
X169164000Y-97875711D01*
X169164000Y-95598051D01*
X169179332Y-95675129D01*
X169249814Y-95845289D01*
X169352138Y-95998428D01*
X169482372Y-96128662D01*
X169635511Y-96230986D01*
X169805671Y-96301468D01*
X169986311Y-96337400D01*
X170170489Y-96337400D01*
X170351129Y-96301468D01*
X170521289Y-96230986D01*
X170674428Y-96128662D01*
X170804662Y-95998428D01*
X170906986Y-95845289D01*
X170977468Y-95675129D01*
X170999511Y-95564311D01*
X173486800Y-95564311D01*
X173486800Y-95748489D01*
X173522732Y-95929129D01*
X173593214Y-96099289D01*
X173695538Y-96252428D01*
X173825772Y-96382662D01*
X173978911Y-96484986D01*
X174149071Y-96555468D01*
X174329711Y-96591400D01*
X174513889Y-96591400D01*
X174694529Y-96555468D01*
X174864689Y-96484986D01*
X175017828Y-96382662D01*
X175148062Y-96252428D01*
X175250386Y-96099289D01*
X175320868Y-95929129D01*
X175356800Y-95748489D01*
X175356800Y-95564311D01*
X176763400Y-95564311D01*
X176763400Y-95748489D01*
X176799332Y-95929129D01*
X176869814Y-96099289D01*
X176972138Y-96252428D01*
X177102372Y-96382662D01*
X177255511Y-96484986D01*
X177425671Y-96555468D01*
X177606311Y-96591400D01*
X177790489Y-96591400D01*
X177971129Y-96555468D01*
X178141289Y-96484986D01*
X178294428Y-96382662D01*
X178424662Y-96252428D01*
X178526986Y-96099289D01*
X178597468Y-95929129D01*
X178633400Y-95748489D01*
X178633400Y-95564311D01*
X178597468Y-95383671D01*
X178526986Y-95213511D01*
X178424662Y-95060372D01*
X178294428Y-94930138D01*
X178141289Y-94827814D01*
X177971129Y-94757332D01*
X177790489Y-94721400D01*
X177606311Y-94721400D01*
X177425671Y-94757332D01*
X177255511Y-94827814D01*
X177102372Y-94930138D01*
X176972138Y-95060372D01*
X176869814Y-95213511D01*
X176799332Y-95383671D01*
X176763400Y-95564311D01*
X175356800Y-95564311D01*
X175320868Y-95383671D01*
X175250386Y-95213511D01*
X175148062Y-95060372D01*
X175017828Y-94930138D01*
X174864689Y-94827814D01*
X174694529Y-94757332D01*
X174513889Y-94721400D01*
X174329711Y-94721400D01*
X174149071Y-94757332D01*
X173978911Y-94827814D01*
X173825772Y-94930138D01*
X173695538Y-95060372D01*
X173593214Y-95213511D01*
X173522732Y-95383671D01*
X173486800Y-95564311D01*
X170999511Y-95564311D01*
X171013400Y-95494489D01*
X171013400Y-95310311D01*
X170977468Y-95129671D01*
X170906986Y-94959511D01*
X170804662Y-94806372D01*
X170674428Y-94676138D01*
X170635177Y-94649911D01*
X181487800Y-94649911D01*
X181487800Y-94834089D01*
X181523732Y-95014729D01*
X181594214Y-95184889D01*
X181696538Y-95338028D01*
X181826772Y-95468262D01*
X181979911Y-95570586D01*
X182150071Y-95641068D01*
X182330711Y-95677000D01*
X182514889Y-95677000D01*
X182695529Y-95641068D01*
X182865689Y-95570586D01*
X183018828Y-95468262D01*
X183149062Y-95338028D01*
X183251386Y-95184889D01*
X183321868Y-95014729D01*
X183357800Y-94834089D01*
X183357800Y-94649911D01*
X183330034Y-94510323D01*
X183346551Y-94530449D01*
X183519377Y-94672284D01*
X183716553Y-94777676D01*
X183930501Y-94842577D01*
X184097248Y-94859000D01*
X184316096Y-94859000D01*
X184309892Y-94873978D01*
X184273000Y-95059448D01*
X184273000Y-95248552D01*
X184309892Y-95434022D01*
X184382259Y-95608731D01*
X184487319Y-95765964D01*
X184621036Y-95899681D01*
X184778269Y-96004741D01*
X184952978Y-96077108D01*
X185138448Y-96114000D01*
X185327552Y-96114000D01*
X185513022Y-96077108D01*
X185687731Y-96004741D01*
X185844964Y-95899681D01*
X185978681Y-95765964D01*
X186083741Y-95608731D01*
X186156108Y-95434022D01*
X186193000Y-95248552D01*
X186193000Y-95059448D01*
X186156108Y-94873978D01*
X186083741Y-94699269D01*
X186002285Y-94577362D01*
X186059449Y-94530449D01*
X186201284Y-94357623D01*
X186306676Y-94160447D01*
X186371577Y-93946499D01*
X186393491Y-93724000D01*
X187442509Y-93724000D01*
X187464423Y-93946499D01*
X187529324Y-94160447D01*
X187634716Y-94357623D01*
X187776551Y-94530449D01*
X187949377Y-94672284D01*
X188146553Y-94777676D01*
X188360501Y-94842577D01*
X188527248Y-94859000D01*
X189238752Y-94859000D01*
X189405499Y-94842577D01*
X189619447Y-94777676D01*
X189816623Y-94672284D01*
X189989449Y-94530449D01*
X190131284Y-94357623D01*
X190236676Y-94160447D01*
X190301577Y-93946499D01*
X190323491Y-93724000D01*
X190301577Y-93501501D01*
X190236676Y-93287553D01*
X190131284Y-93090377D01*
X189989449Y-92917551D01*
X189816623Y-92775716D01*
X189619447Y-92670324D01*
X189405499Y-92605423D01*
X189238752Y-92589000D01*
X188527248Y-92589000D01*
X188360501Y-92605423D01*
X188146553Y-92670324D01*
X187949377Y-92775716D01*
X187776551Y-92917551D01*
X187634716Y-93090377D01*
X187529324Y-93287553D01*
X187464423Y-93501501D01*
X187442509Y-93724000D01*
X186393491Y-93724000D01*
X186371577Y-93501501D01*
X186306676Y-93287553D01*
X186201284Y-93090377D01*
X186059449Y-92917551D01*
X185886623Y-92775716D01*
X185689447Y-92670324D01*
X185475499Y-92605423D01*
X185308752Y-92589000D01*
X184097248Y-92589000D01*
X183930501Y-92605423D01*
X183716553Y-92670324D01*
X183519377Y-92775716D01*
X183346551Y-92917551D01*
X183204716Y-93090377D01*
X183099324Y-93287553D01*
X183034423Y-93501501D01*
X183012509Y-93724000D01*
X183034423Y-93946499D01*
X183071363Y-94068273D01*
X183018828Y-94015738D01*
X182865689Y-93913414D01*
X182695529Y-93842932D01*
X182514889Y-93807000D01*
X182330711Y-93807000D01*
X182150071Y-93842932D01*
X181979911Y-93913414D01*
X181826772Y-94015738D01*
X181696538Y-94145972D01*
X181594214Y-94299111D01*
X181523732Y-94469271D01*
X181487800Y-94649911D01*
X170635177Y-94649911D01*
X170521289Y-94573814D01*
X170351129Y-94503332D01*
X170170489Y-94467400D01*
X169986311Y-94467400D01*
X169805671Y-94503332D01*
X169635511Y-94573814D01*
X169482372Y-94676138D01*
X169352138Y-94806372D01*
X169249814Y-94959511D01*
X169179332Y-95129671D01*
X169164000Y-95206749D01*
X169164000Y-93278311D01*
X173436000Y-93278311D01*
X173436000Y-93462489D01*
X173471932Y-93643129D01*
X173542414Y-93813289D01*
X173644738Y-93966428D01*
X173774972Y-94096662D01*
X173928111Y-94198986D01*
X174098271Y-94269468D01*
X174278911Y-94305400D01*
X174463089Y-94305400D01*
X174643729Y-94269468D01*
X174813889Y-94198986D01*
X174967028Y-94096662D01*
X175097262Y-93966428D01*
X175199586Y-93813289D01*
X175270068Y-93643129D01*
X175306000Y-93462489D01*
X175306000Y-93278311D01*
X175270068Y-93097671D01*
X175199586Y-92927511D01*
X175097262Y-92774372D01*
X174967028Y-92644138D01*
X174813889Y-92541814D01*
X174643729Y-92471332D01*
X174463089Y-92435400D01*
X174278911Y-92435400D01*
X174098271Y-92471332D01*
X173928111Y-92541814D01*
X173774972Y-92644138D01*
X173644738Y-92774372D01*
X173542414Y-92927511D01*
X173471932Y-93097671D01*
X173436000Y-93278311D01*
X169164000Y-93278311D01*
X169164000Y-90678000D01*
X169151799Y-90554118D01*
X169115664Y-90434996D01*
X169056983Y-90325213D01*
X168978013Y-90228987D01*
X168881787Y-90150017D01*
X168772004Y-90091336D01*
X168652882Y-90055201D01*
X168529000Y-90043000D01*
X160020000Y-90043000D01*
X159896118Y-90055201D01*
X159776996Y-90091336D01*
X159667213Y-90150017D01*
X159570987Y-90228987D01*
X159492017Y-90325213D01*
X159433336Y-90434996D01*
X159397201Y-90554118D01*
X159385000Y-90678000D01*
X159385000Y-93428964D01*
X159324586Y-93283111D01*
X159222262Y-93129972D01*
X159092028Y-92999738D01*
X158938889Y-92897414D01*
X158855090Y-92862704D01*
X158872200Y-92776689D01*
X158872200Y-92592511D01*
X158836268Y-92411871D01*
X158765786Y-92241711D01*
X158663462Y-92088572D01*
X158533228Y-91958338D01*
X158380089Y-91856014D01*
X158209929Y-91785532D01*
X158029289Y-91749600D01*
X157845111Y-91749600D01*
X157664471Y-91785532D01*
X157494311Y-91856014D01*
X157341172Y-91958338D01*
X157210938Y-92088572D01*
X157108614Y-92241711D01*
X157038132Y-92411871D01*
X157002200Y-92592511D01*
X157002200Y-92776689D01*
X157038132Y-92957329D01*
X157108614Y-93127489D01*
X157210938Y-93280628D01*
X157341172Y-93410862D01*
X157494311Y-93513186D01*
X157578110Y-93547896D01*
X157561000Y-93633911D01*
X157561000Y-93818089D01*
X157596932Y-93998729D01*
X157658518Y-94147411D01*
X157642014Y-94172111D01*
X157585431Y-94308716D01*
X157423472Y-94340932D01*
X157253312Y-94411414D01*
X157100173Y-94513738D01*
X156969939Y-94643972D01*
X156867615Y-94797111D01*
X156797133Y-94967271D01*
X156761201Y-95147911D01*
X126338000Y-95147911D01*
X126338000Y-92389311D01*
X136834600Y-92389311D01*
X136834600Y-92573489D01*
X136870532Y-92754129D01*
X136941014Y-92924289D01*
X137043338Y-93077428D01*
X137173572Y-93207662D01*
X137326711Y-93309986D01*
X137496871Y-93380468D01*
X137677511Y-93416400D01*
X137861689Y-93416400D01*
X138042329Y-93380468D01*
X138212489Y-93309986D01*
X138365628Y-93207662D01*
X138495862Y-93077428D01*
X138598186Y-92924289D01*
X138668668Y-92754129D01*
X138683669Y-92678711D01*
X142473400Y-92678711D01*
X142473400Y-92862889D01*
X142509332Y-93043529D01*
X142579814Y-93213689D01*
X142682138Y-93366828D01*
X142812372Y-93497062D01*
X142965511Y-93599386D01*
X143135671Y-93669868D01*
X143316311Y-93705800D01*
X143500489Y-93705800D01*
X143681129Y-93669868D01*
X143851289Y-93599386D01*
X144004428Y-93497062D01*
X144134662Y-93366828D01*
X144236986Y-93213689D01*
X144307468Y-93043529D01*
X144343400Y-92862889D01*
X144343400Y-92678711D01*
X144326254Y-92592511D01*
X150652200Y-92592511D01*
X150652200Y-92776689D01*
X150688132Y-92957329D01*
X150758614Y-93127489D01*
X150860938Y-93280628D01*
X150991172Y-93410862D01*
X151144311Y-93513186D01*
X151314471Y-93583668D01*
X151495111Y-93619600D01*
X151679289Y-93619600D01*
X151859929Y-93583668D01*
X152030089Y-93513186D01*
X152183228Y-93410862D01*
X152313462Y-93280628D01*
X152415786Y-93127489D01*
X152486268Y-92957329D01*
X152522200Y-92776689D01*
X152522200Y-92592511D01*
X152486268Y-92411871D01*
X152415786Y-92241711D01*
X152313462Y-92088572D01*
X152183228Y-91958338D01*
X152030089Y-91856014D01*
X151859929Y-91785532D01*
X151679289Y-91749600D01*
X151495111Y-91749600D01*
X151314471Y-91785532D01*
X151144311Y-91856014D01*
X150991172Y-91958338D01*
X150860938Y-92088572D01*
X150758614Y-92241711D01*
X150688132Y-92411871D01*
X150652200Y-92592511D01*
X144326254Y-92592511D01*
X144307468Y-92498071D01*
X144236986Y-92327911D01*
X144134662Y-92174772D01*
X144004428Y-92044538D01*
X143851289Y-91942214D01*
X143681129Y-91871732D01*
X143500489Y-91835800D01*
X143316311Y-91835800D01*
X143135671Y-91871732D01*
X142965511Y-91942214D01*
X142812372Y-92044538D01*
X142682138Y-92174772D01*
X142579814Y-92327911D01*
X142509332Y-92498071D01*
X142473400Y-92678711D01*
X138683669Y-92678711D01*
X138704600Y-92573489D01*
X138704600Y-92389311D01*
X138668668Y-92208671D01*
X138598186Y-92038511D01*
X138495862Y-91885372D01*
X138365628Y-91755138D01*
X138212489Y-91652814D01*
X138042329Y-91582332D01*
X137861689Y-91546400D01*
X137677511Y-91546400D01*
X137496871Y-91582332D01*
X137326711Y-91652814D01*
X137173572Y-91755138D01*
X137043338Y-91885372D01*
X136941014Y-92038511D01*
X136870532Y-92208671D01*
X136834600Y-92389311D01*
X126338000Y-92389311D01*
X126338000Y-87461711D01*
X145800800Y-87461711D01*
X145800800Y-87645889D01*
X145836732Y-87826529D01*
X145907214Y-87996689D01*
X146009538Y-88149828D01*
X146139772Y-88280062D01*
X146292911Y-88382386D01*
X146463071Y-88452868D01*
X146643711Y-88488800D01*
X146827889Y-88488800D01*
X147008529Y-88452868D01*
X147178689Y-88382386D01*
X147331828Y-88280062D01*
X147462062Y-88149828D01*
X147564386Y-87996689D01*
X147586081Y-87944311D01*
X150652200Y-87944311D01*
X150652200Y-88128489D01*
X150688132Y-88309129D01*
X150758614Y-88479289D01*
X150860938Y-88632428D01*
X150991172Y-88762662D01*
X151144311Y-88864986D01*
X151314471Y-88935468D01*
X151495111Y-88971400D01*
X151679289Y-88971400D01*
X151859929Y-88935468D01*
X152030089Y-88864986D01*
X152183228Y-88762662D01*
X152313462Y-88632428D01*
X152415786Y-88479289D01*
X152486268Y-88309129D01*
X152522200Y-88128489D01*
X152522200Y-87944311D01*
X152486268Y-87763671D01*
X152415786Y-87593511D01*
X152313462Y-87440372D01*
X152183228Y-87310138D01*
X152030089Y-87207814D01*
X151859929Y-87137332D01*
X151679289Y-87101400D01*
X151495111Y-87101400D01*
X151314471Y-87137332D01*
X151144311Y-87207814D01*
X150991172Y-87310138D01*
X150860938Y-87440372D01*
X150758614Y-87593511D01*
X150688132Y-87763671D01*
X150652200Y-87944311D01*
X147586081Y-87944311D01*
X147634868Y-87826529D01*
X147670800Y-87645889D01*
X147670800Y-87461711D01*
X147634868Y-87281071D01*
X147564386Y-87110911D01*
X147462062Y-86957772D01*
X147331828Y-86827538D01*
X147178689Y-86725214D01*
X147008529Y-86654732D01*
X146827889Y-86618800D01*
X146643711Y-86618800D01*
X146463071Y-86654732D01*
X146292911Y-86725214D01*
X146139772Y-86827538D01*
X146009538Y-86957772D01*
X145907214Y-87110911D01*
X145836732Y-87281071D01*
X145800800Y-87461711D01*
X126338000Y-87461711D01*
X126338000Y-86079000D01*
X190908001Y-86079000D01*
X190908000Y-110009000D01*
%TD*%
M02*
