%TF.GenerationSoftware,KiCad,Pcbnew,(5.1.6)-1*%
%TF.CreationDate,2020-08-12T13:20:57+08:00*%
%TF.ProjectId,sl_v2,736c5f76-322e-46b6-9963-61645f706362,rev?*%
%TF.SameCoordinates,Original*%
%TF.FileFunction,Soldermask,Top*%
%TF.FilePolarity,Negative*%
%FSLAX46Y46*%
G04 Gerber Fmt 4.6, Leading zero omitted, Abs format (unit mm)*
G04 Created by KiCad (PCBNEW (5.1.6)-1) date 2020-08-12 13:20:57*
%MOMM*%
%LPD*%
G01*
G04 APERTURE LIST*
%ADD10R,4.100000X1.500000*%
%ADD11R,0.750000X0.500000*%
%ADD12O,1.700000X1.100000*%
%ADD13C,0.750000*%
%ADD14O,2.200000X1.100000*%
%ADD15R,1.550000X0.400000*%
%ADD16R,1.550000X0.700000*%
%ADD17R,1.000000X0.900000*%
%ADD18R,1.320000X0.750000*%
%ADD19R,1.160000X0.750000*%
%ADD20R,1.100000X1.000000*%
G04 APERTURE END LIST*
D10*
%TO.C,J2*%
X127889000Y-89154000D03*
X127889000Y-91694000D03*
X127889000Y-94234000D03*
X127889000Y-96774000D03*
X127889000Y-99314000D03*
X127889000Y-101854000D03*
X127889000Y-104394000D03*
X127889000Y-106934000D03*
%TD*%
%TO.C,C2*%
G36*
G01*
X143101750Y-105659100D02*
X143664250Y-105659100D01*
G75*
G02*
X143908000Y-105902850I0J-243750D01*
G01*
X143908000Y-106390350D01*
G75*
G02*
X143664250Y-106634100I-243750J0D01*
G01*
X143101750Y-106634100D01*
G75*
G02*
X142858000Y-106390350I0J243750D01*
G01*
X142858000Y-105902850D01*
G75*
G02*
X143101750Y-105659100I243750J0D01*
G01*
G37*
G36*
G01*
X143101750Y-107234100D02*
X143664250Y-107234100D01*
G75*
G02*
X143908000Y-107477850I0J-243750D01*
G01*
X143908000Y-107965350D01*
G75*
G02*
X143664250Y-108209100I-243750J0D01*
G01*
X143101750Y-108209100D01*
G75*
G02*
X142858000Y-107965350I0J243750D01*
G01*
X142858000Y-107477850D01*
G75*
G02*
X143101750Y-107234100I243750J0D01*
G01*
G37*
%TD*%
%TO.C,R15*%
G36*
G01*
X174053200Y-108920900D02*
X174053200Y-109315900D01*
G75*
G02*
X173880700Y-109488400I-172500J0D01*
G01*
X173535700Y-109488400D01*
G75*
G02*
X173363200Y-109315900I0J172500D01*
G01*
X173363200Y-108920900D01*
G75*
G02*
X173535700Y-108748400I172500J0D01*
G01*
X173880700Y-108748400D01*
G75*
G02*
X174053200Y-108920900I0J-172500D01*
G01*
G37*
G36*
G01*
X175023200Y-108920900D02*
X175023200Y-109315900D01*
G75*
G02*
X174850700Y-109488400I-172500J0D01*
G01*
X174505700Y-109488400D01*
G75*
G02*
X174333200Y-109315900I0J172500D01*
G01*
X174333200Y-108920900D01*
G75*
G02*
X174505700Y-108748400I172500J0D01*
G01*
X174850700Y-108748400D01*
G75*
G02*
X175023200Y-108920900I0J-172500D01*
G01*
G37*
%TD*%
%TO.C,R22*%
G36*
G01*
X168523200Y-106152300D02*
X168523200Y-106547300D01*
G75*
G02*
X168350700Y-106719800I-172500J0D01*
G01*
X168005700Y-106719800D01*
G75*
G02*
X167833200Y-106547300I0J172500D01*
G01*
X167833200Y-106152300D01*
G75*
G02*
X168005700Y-105979800I172500J0D01*
G01*
X168350700Y-105979800D01*
G75*
G02*
X168523200Y-106152300I0J-172500D01*
G01*
G37*
G36*
G01*
X167553200Y-106152300D02*
X167553200Y-106547300D01*
G75*
G02*
X167380700Y-106719800I-172500J0D01*
G01*
X167035700Y-106719800D01*
G75*
G02*
X166863200Y-106547300I0J172500D01*
G01*
X166863200Y-106152300D01*
G75*
G02*
X167035700Y-105979800I172500J0D01*
G01*
X167380700Y-105979800D01*
G75*
G02*
X167553200Y-106152300I0J-172500D01*
G01*
G37*
%TD*%
%TO.C,C10*%
G36*
G01*
X160711500Y-103538600D02*
X161106500Y-103538600D01*
G75*
G02*
X161279000Y-103711100I0J-172500D01*
G01*
X161279000Y-104056100D01*
G75*
G02*
X161106500Y-104228600I-172500J0D01*
G01*
X160711500Y-104228600D01*
G75*
G02*
X160539000Y-104056100I0J172500D01*
G01*
X160539000Y-103711100D01*
G75*
G02*
X160711500Y-103538600I172500J0D01*
G01*
G37*
G36*
G01*
X160711500Y-104508600D02*
X161106500Y-104508600D01*
G75*
G02*
X161279000Y-104681100I0J-172500D01*
G01*
X161279000Y-105026100D01*
G75*
G02*
X161106500Y-105198600I-172500J0D01*
G01*
X160711500Y-105198600D01*
G75*
G02*
X160539000Y-105026100I0J172500D01*
G01*
X160539000Y-104681100D01*
G75*
G02*
X160711500Y-104508600I172500J0D01*
G01*
G37*
%TD*%
D11*
%TO.C,U4*%
X136794200Y-93177600D03*
X136794200Y-94477600D03*
X136794200Y-93827600D03*
X138694200Y-94477600D03*
X138694200Y-93177600D03*
%TD*%
%TO.C,L3*%
G36*
G01*
X140548200Y-92995100D02*
X140548200Y-93390100D01*
G75*
G02*
X140375700Y-93562600I-172500J0D01*
G01*
X140030700Y-93562600D01*
G75*
G02*
X139858200Y-93390100I0J172500D01*
G01*
X139858200Y-92995100D01*
G75*
G02*
X140030700Y-92822600I172500J0D01*
G01*
X140375700Y-92822600D01*
G75*
G02*
X140548200Y-92995100I0J-172500D01*
G01*
G37*
G36*
G01*
X141518200Y-92995100D02*
X141518200Y-93390100D01*
G75*
G02*
X141345700Y-93562600I-172500J0D01*
G01*
X141000700Y-93562600D01*
G75*
G02*
X140828200Y-93390100I0J172500D01*
G01*
X140828200Y-92995100D01*
G75*
G02*
X141000700Y-92822600I172500J0D01*
G01*
X141345700Y-92822600D01*
G75*
G02*
X141518200Y-92995100I0J-172500D01*
G01*
G37*
%TD*%
%TO.C,C15*%
G36*
G01*
X140828200Y-94660100D02*
X140828200Y-94265100D01*
G75*
G02*
X141000700Y-94092600I172500J0D01*
G01*
X141345700Y-94092600D01*
G75*
G02*
X141518200Y-94265100I0J-172500D01*
G01*
X141518200Y-94660100D01*
G75*
G02*
X141345700Y-94832600I-172500J0D01*
G01*
X141000700Y-94832600D01*
G75*
G02*
X140828200Y-94660100I0J172500D01*
G01*
G37*
G36*
G01*
X139858200Y-94660100D02*
X139858200Y-94265100D01*
G75*
G02*
X140030700Y-94092600I172500J0D01*
G01*
X140375700Y-94092600D01*
G75*
G02*
X140548200Y-94265100I0J-172500D01*
G01*
X140548200Y-94660100D01*
G75*
G02*
X140375700Y-94832600I-172500J0D01*
G01*
X140030700Y-94832600D01*
G75*
G02*
X139858200Y-94660100I0J172500D01*
G01*
G37*
%TD*%
%TO.C,C1*%
G36*
G01*
X144240900Y-88691000D02*
X143845900Y-88691000D01*
G75*
G02*
X143673400Y-88518500I0J172500D01*
G01*
X143673400Y-88173500D01*
G75*
G02*
X143845900Y-88001000I172500J0D01*
G01*
X144240900Y-88001000D01*
G75*
G02*
X144413400Y-88173500I0J-172500D01*
G01*
X144413400Y-88518500D01*
G75*
G02*
X144240900Y-88691000I-172500J0D01*
G01*
G37*
G36*
G01*
X144240900Y-87721000D02*
X143845900Y-87721000D01*
G75*
G02*
X143673400Y-87548500I0J172500D01*
G01*
X143673400Y-87203500D01*
G75*
G02*
X143845900Y-87031000I172500J0D01*
G01*
X144240900Y-87031000D01*
G75*
G02*
X144413400Y-87203500I0J-172500D01*
G01*
X144413400Y-87548500D01*
G75*
G02*
X144240900Y-87721000I-172500J0D01*
G01*
G37*
%TD*%
%TO.C,C3*%
G36*
G01*
X162574800Y-91217100D02*
X162574800Y-91612100D01*
G75*
G02*
X162402300Y-91784600I-172500J0D01*
G01*
X162057300Y-91784600D01*
G75*
G02*
X161884800Y-91612100I0J172500D01*
G01*
X161884800Y-91217100D01*
G75*
G02*
X162057300Y-91044600I172500J0D01*
G01*
X162402300Y-91044600D01*
G75*
G02*
X162574800Y-91217100I0J-172500D01*
G01*
G37*
G36*
G01*
X161604800Y-91217100D02*
X161604800Y-91612100D01*
G75*
G02*
X161432300Y-91784600I-172500J0D01*
G01*
X161087300Y-91784600D01*
G75*
G02*
X160914800Y-91612100I0J172500D01*
G01*
X160914800Y-91217100D01*
G75*
G02*
X161087300Y-91044600I172500J0D01*
G01*
X161432300Y-91044600D01*
G75*
G02*
X161604800Y-91217100I0J-172500D01*
G01*
G37*
%TD*%
%TO.C,C4*%
G36*
G01*
X137170000Y-103434500D02*
X137170000Y-103829500D01*
G75*
G02*
X136997500Y-104002000I-172500J0D01*
G01*
X136652500Y-104002000D01*
G75*
G02*
X136480000Y-103829500I0J172500D01*
G01*
X136480000Y-103434500D01*
G75*
G02*
X136652500Y-103262000I172500J0D01*
G01*
X136997500Y-103262000D01*
G75*
G02*
X137170000Y-103434500I0J-172500D01*
G01*
G37*
G36*
G01*
X138140000Y-103434500D02*
X138140000Y-103829500D01*
G75*
G02*
X137967500Y-104002000I-172500J0D01*
G01*
X137622500Y-104002000D01*
G75*
G02*
X137450000Y-103829500I0J172500D01*
G01*
X137450000Y-103434500D01*
G75*
G02*
X137622500Y-103262000I172500J0D01*
G01*
X137967500Y-103262000D01*
G75*
G02*
X138140000Y-103434500I0J-172500D01*
G01*
G37*
%TD*%
%TO.C,C5*%
G36*
G01*
X138028500Y-106017750D02*
X138028500Y-106580250D01*
G75*
G02*
X137784750Y-106824000I-243750J0D01*
G01*
X137297250Y-106824000D01*
G75*
G02*
X137053500Y-106580250I0J243750D01*
G01*
X137053500Y-106017750D01*
G75*
G02*
X137297250Y-105774000I243750J0D01*
G01*
X137784750Y-105774000D01*
G75*
G02*
X138028500Y-106017750I0J-243750D01*
G01*
G37*
G36*
G01*
X136453500Y-106017750D02*
X136453500Y-106580250D01*
G75*
G02*
X136209750Y-106824000I-243750J0D01*
G01*
X135722250Y-106824000D01*
G75*
G02*
X135478500Y-106580250I0J243750D01*
G01*
X135478500Y-106017750D01*
G75*
G02*
X135722250Y-105774000I243750J0D01*
G01*
X136209750Y-105774000D01*
G75*
G02*
X136453500Y-106017750I0J-243750D01*
G01*
G37*
%TD*%
%TO.C,C6*%
G36*
G01*
X138140000Y-104704500D02*
X138140000Y-105099500D01*
G75*
G02*
X137967500Y-105272000I-172500J0D01*
G01*
X137622500Y-105272000D01*
G75*
G02*
X137450000Y-105099500I0J172500D01*
G01*
X137450000Y-104704500D01*
G75*
G02*
X137622500Y-104532000I172500J0D01*
G01*
X137967500Y-104532000D01*
G75*
G02*
X138140000Y-104704500I0J-172500D01*
G01*
G37*
G36*
G01*
X137170000Y-104704500D02*
X137170000Y-105099500D01*
G75*
G02*
X136997500Y-105272000I-172500J0D01*
G01*
X136652500Y-105272000D01*
G75*
G02*
X136480000Y-105099500I0J172500D01*
G01*
X136480000Y-104704500D01*
G75*
G02*
X136652500Y-104532000I172500J0D01*
G01*
X136997500Y-104532000D01*
G75*
G02*
X137170000Y-104704500I0J-172500D01*
G01*
G37*
%TD*%
%TO.C,C7*%
G36*
G01*
X176244800Y-97770300D02*
X176244800Y-98165300D01*
G75*
G02*
X176072300Y-98337800I-172500J0D01*
G01*
X175727300Y-98337800D01*
G75*
G02*
X175554800Y-98165300I0J172500D01*
G01*
X175554800Y-97770300D01*
G75*
G02*
X175727300Y-97597800I172500J0D01*
G01*
X176072300Y-97597800D01*
G75*
G02*
X176244800Y-97770300I0J-172500D01*
G01*
G37*
G36*
G01*
X175274800Y-97770300D02*
X175274800Y-98165300D01*
G75*
G02*
X175102300Y-98337800I-172500J0D01*
G01*
X174757300Y-98337800D01*
G75*
G02*
X174584800Y-98165300I0J172500D01*
G01*
X174584800Y-97770300D01*
G75*
G02*
X174757300Y-97597800I172500J0D01*
G01*
X175102300Y-97597800D01*
G75*
G02*
X175274800Y-97770300I0J-172500D01*
G01*
G37*
%TD*%
%TO.C,C8*%
G36*
G01*
X171432800Y-102483300D02*
X171432800Y-102088300D01*
G75*
G02*
X171605300Y-101915800I172500J0D01*
G01*
X171950300Y-101915800D01*
G75*
G02*
X172122800Y-102088300I0J-172500D01*
G01*
X172122800Y-102483300D01*
G75*
G02*
X171950300Y-102655800I-172500J0D01*
G01*
X171605300Y-102655800D01*
G75*
G02*
X171432800Y-102483300I0J172500D01*
G01*
G37*
G36*
G01*
X172402800Y-102483300D02*
X172402800Y-102088300D01*
G75*
G02*
X172575300Y-101915800I172500J0D01*
G01*
X172920300Y-101915800D01*
G75*
G02*
X173092800Y-102088300I0J-172500D01*
G01*
X173092800Y-102483300D01*
G75*
G02*
X172920300Y-102655800I-172500J0D01*
G01*
X172575300Y-102655800D01*
G75*
G02*
X172402800Y-102483300I0J172500D01*
G01*
G37*
%TD*%
%TO.C,C9*%
G36*
G01*
X178099100Y-101233800D02*
X177704100Y-101233800D01*
G75*
G02*
X177531600Y-101061300I0J172500D01*
G01*
X177531600Y-100716300D01*
G75*
G02*
X177704100Y-100543800I172500J0D01*
G01*
X178099100Y-100543800D01*
G75*
G02*
X178271600Y-100716300I0J-172500D01*
G01*
X178271600Y-101061300D01*
G75*
G02*
X178099100Y-101233800I-172500J0D01*
G01*
G37*
G36*
G01*
X178099100Y-102203800D02*
X177704100Y-102203800D01*
G75*
G02*
X177531600Y-102031300I0J172500D01*
G01*
X177531600Y-101686300D01*
G75*
G02*
X177704100Y-101513800I172500J0D01*
G01*
X178099100Y-101513800D01*
G75*
G02*
X178271600Y-101686300I0J-172500D01*
G01*
X178271600Y-102031300D01*
G75*
G02*
X178099100Y-102203800I-172500J0D01*
G01*
G37*
%TD*%
%TO.C,C11*%
G36*
G01*
X159593900Y-103541000D02*
X159988900Y-103541000D01*
G75*
G02*
X160161400Y-103713500I0J-172500D01*
G01*
X160161400Y-104058500D01*
G75*
G02*
X159988900Y-104231000I-172500J0D01*
G01*
X159593900Y-104231000D01*
G75*
G02*
X159421400Y-104058500I0J172500D01*
G01*
X159421400Y-103713500D01*
G75*
G02*
X159593900Y-103541000I172500J0D01*
G01*
G37*
G36*
G01*
X159593900Y-104511000D02*
X159988900Y-104511000D01*
G75*
G02*
X160161400Y-104683500I0J-172500D01*
G01*
X160161400Y-105028500D01*
G75*
G02*
X159988900Y-105201000I-172500J0D01*
G01*
X159593900Y-105201000D01*
G75*
G02*
X159421400Y-105028500I0J172500D01*
G01*
X159421400Y-104683500D01*
G75*
G02*
X159593900Y-104511000I172500J0D01*
G01*
G37*
%TD*%
%TO.C,C12*%
G36*
G01*
X157137400Y-101988000D02*
X157137400Y-101593000D01*
G75*
G02*
X157309900Y-101420500I172500J0D01*
G01*
X157654900Y-101420500D01*
G75*
G02*
X157827400Y-101593000I0J-172500D01*
G01*
X157827400Y-101988000D01*
G75*
G02*
X157654900Y-102160500I-172500J0D01*
G01*
X157309900Y-102160500D01*
G75*
G02*
X157137400Y-101988000I0J172500D01*
G01*
G37*
G36*
G01*
X156167400Y-101988000D02*
X156167400Y-101593000D01*
G75*
G02*
X156339900Y-101420500I172500J0D01*
G01*
X156684900Y-101420500D01*
G75*
G02*
X156857400Y-101593000I0J-172500D01*
G01*
X156857400Y-101988000D01*
G75*
G02*
X156684900Y-102160500I-172500J0D01*
G01*
X156339900Y-102160500D01*
G75*
G02*
X156167400Y-101988000I0J172500D01*
G01*
G37*
%TD*%
%TO.C,C13*%
G36*
G01*
X163138500Y-105175600D02*
X162743500Y-105175600D01*
G75*
G02*
X162571000Y-105003100I0J172500D01*
G01*
X162571000Y-104658100D01*
G75*
G02*
X162743500Y-104485600I172500J0D01*
G01*
X163138500Y-104485600D01*
G75*
G02*
X163311000Y-104658100I0J-172500D01*
G01*
X163311000Y-105003100D01*
G75*
G02*
X163138500Y-105175600I-172500J0D01*
G01*
G37*
G36*
G01*
X163138500Y-104205600D02*
X162743500Y-104205600D01*
G75*
G02*
X162571000Y-104033100I0J172500D01*
G01*
X162571000Y-103688100D01*
G75*
G02*
X162743500Y-103515600I172500J0D01*
G01*
X163138500Y-103515600D01*
G75*
G02*
X163311000Y-103688100I0J-172500D01*
G01*
X163311000Y-104033100D01*
G75*
G02*
X163138500Y-104205600I-172500J0D01*
G01*
G37*
%TD*%
%TO.C,C14*%
G36*
G01*
X178627600Y-104856900D02*
X178627600Y-105251900D01*
G75*
G02*
X178455100Y-105424400I-172500J0D01*
G01*
X178110100Y-105424400D01*
G75*
G02*
X177937600Y-105251900I0J172500D01*
G01*
X177937600Y-104856900D01*
G75*
G02*
X178110100Y-104684400I172500J0D01*
G01*
X178455100Y-104684400D01*
G75*
G02*
X178627600Y-104856900I0J-172500D01*
G01*
G37*
G36*
G01*
X179597600Y-104856900D02*
X179597600Y-105251900D01*
G75*
G02*
X179425100Y-105424400I-172500J0D01*
G01*
X179080100Y-105424400D01*
G75*
G02*
X178907600Y-105251900I0J172500D01*
G01*
X178907600Y-104856900D01*
G75*
G02*
X179080100Y-104684400I172500J0D01*
G01*
X179425100Y-104684400D01*
G75*
G02*
X179597600Y-104856900I0J-172500D01*
G01*
G37*
%TD*%
%TO.C,C16*%
G36*
G01*
X154726200Y-106279300D02*
X154726200Y-106674300D01*
G75*
G02*
X154553700Y-106846800I-172500J0D01*
G01*
X154208700Y-106846800D01*
G75*
G02*
X154036200Y-106674300I0J172500D01*
G01*
X154036200Y-106279300D01*
G75*
G02*
X154208700Y-106106800I172500J0D01*
G01*
X154553700Y-106106800D01*
G75*
G02*
X154726200Y-106279300I0J-172500D01*
G01*
G37*
G36*
G01*
X153756200Y-106279300D02*
X153756200Y-106674300D01*
G75*
G02*
X153583700Y-106846800I-172500J0D01*
G01*
X153238700Y-106846800D01*
G75*
G02*
X153066200Y-106674300I0J172500D01*
G01*
X153066200Y-106279300D01*
G75*
G02*
X153238700Y-106106800I172500J0D01*
G01*
X153583700Y-106106800D01*
G75*
G02*
X153756200Y-106279300I0J-172500D01*
G01*
G37*
%TD*%
%TO.C,C17*%
G36*
G01*
X147025800Y-106775900D02*
X147025800Y-106380900D01*
G75*
G02*
X147198300Y-106208400I172500J0D01*
G01*
X147543300Y-106208400D01*
G75*
G02*
X147715800Y-106380900I0J-172500D01*
G01*
X147715800Y-106775900D01*
G75*
G02*
X147543300Y-106948400I-172500J0D01*
G01*
X147198300Y-106948400D01*
G75*
G02*
X147025800Y-106775900I0J172500D01*
G01*
G37*
G36*
G01*
X146055800Y-106775900D02*
X146055800Y-106380900D01*
G75*
G02*
X146228300Y-106208400I172500J0D01*
G01*
X146573300Y-106208400D01*
G75*
G02*
X146745800Y-106380900I0J-172500D01*
G01*
X146745800Y-106775900D01*
G75*
G02*
X146573300Y-106948400I-172500J0D01*
G01*
X146228300Y-106948400D01*
G75*
G02*
X146055800Y-106775900I0J172500D01*
G01*
G37*
%TD*%
%TO.C,C18*%
G36*
G01*
X172887200Y-95458900D02*
X172887200Y-95853900D01*
G75*
G02*
X172714700Y-96026400I-172500J0D01*
G01*
X172369700Y-96026400D01*
G75*
G02*
X172197200Y-95853900I0J172500D01*
G01*
X172197200Y-95458900D01*
G75*
G02*
X172369700Y-95286400I172500J0D01*
G01*
X172714700Y-95286400D01*
G75*
G02*
X172887200Y-95458900I0J-172500D01*
G01*
G37*
G36*
G01*
X173857200Y-95458900D02*
X173857200Y-95853900D01*
G75*
G02*
X173684700Y-96026400I-172500J0D01*
G01*
X173339700Y-96026400D01*
G75*
G02*
X173167200Y-95853900I0J172500D01*
G01*
X173167200Y-95458900D01*
G75*
G02*
X173339700Y-95286400I172500J0D01*
G01*
X173684700Y-95286400D01*
G75*
G02*
X173857200Y-95458900I0J-172500D01*
G01*
G37*
%TD*%
%TO.C,D1*%
G36*
G01*
X157840700Y-98346950D02*
X157840700Y-98909450D01*
G75*
G02*
X157596950Y-99153200I-243750J0D01*
G01*
X157109450Y-99153200D01*
G75*
G02*
X156865700Y-98909450I0J243750D01*
G01*
X156865700Y-98346950D01*
G75*
G02*
X157109450Y-98103200I243750J0D01*
G01*
X157596950Y-98103200D01*
G75*
G02*
X157840700Y-98346950I0J-243750D01*
G01*
G37*
G36*
G01*
X156265700Y-98346950D02*
X156265700Y-98909450D01*
G75*
G02*
X156021950Y-99153200I-243750J0D01*
G01*
X155534450Y-99153200D01*
G75*
G02*
X155290700Y-98909450I0J243750D01*
G01*
X155290700Y-98346950D01*
G75*
G02*
X155534450Y-98103200I243750J0D01*
G01*
X156021950Y-98103200D01*
G75*
G02*
X156265700Y-98346950I0J-243750D01*
G01*
G37*
%TD*%
%TO.C,F1*%
G36*
G01*
X186289000Y-104608000D02*
X187599000Y-104608000D01*
G75*
G02*
X187869000Y-104878000I0J-270000D01*
G01*
X187869000Y-105688000D01*
G75*
G02*
X187599000Y-105958000I-270000J0D01*
G01*
X186289000Y-105958000D01*
G75*
G02*
X186019000Y-105688000I0J270000D01*
G01*
X186019000Y-104878000D01*
G75*
G02*
X186289000Y-104608000I270000J0D01*
G01*
G37*
G36*
G01*
X186289000Y-107408000D02*
X187599000Y-107408000D01*
G75*
G02*
X187869000Y-107678000I0J-270000D01*
G01*
X187869000Y-108488000D01*
G75*
G02*
X187599000Y-108758000I-270000J0D01*
G01*
X186289000Y-108758000D01*
G75*
G02*
X186019000Y-108488000I0J270000D01*
G01*
X186019000Y-107678000D01*
G75*
G02*
X186289000Y-107408000I270000J0D01*
G01*
G37*
%TD*%
D12*
%TO.C,J1*%
X188883000Y-93724000D03*
D13*
X185233000Y-95154000D03*
D12*
X188883000Y-102364000D03*
D13*
X185233000Y-100934000D03*
D14*
X184703000Y-102364000D03*
X184703000Y-93724000D03*
D15*
X183788000Y-98294000D03*
X183788000Y-96294000D03*
X183788000Y-96794000D03*
X183788000Y-97294000D03*
X183788000Y-97794000D03*
X183788000Y-98794000D03*
X183788000Y-99294000D03*
X183788000Y-99794000D03*
D16*
X183788000Y-94794000D03*
X183788000Y-95594000D03*
X183788000Y-100494000D03*
X183788000Y-101294000D03*
X183788000Y-101294000D03*
X183788000Y-100494000D03*
X183788000Y-95594000D03*
X183788000Y-94794000D03*
%TD*%
%TO.C,L1*%
G36*
G01*
X168523200Y-104704500D02*
X168523200Y-105099500D01*
G75*
G02*
X168350700Y-105272000I-172500J0D01*
G01*
X168005700Y-105272000D01*
G75*
G02*
X167833200Y-105099500I0J172500D01*
G01*
X167833200Y-104704500D01*
G75*
G02*
X168005700Y-104532000I172500J0D01*
G01*
X168350700Y-104532000D01*
G75*
G02*
X168523200Y-104704500I0J-172500D01*
G01*
G37*
G36*
G01*
X167553200Y-104704500D02*
X167553200Y-105099500D01*
G75*
G02*
X167380700Y-105272000I-172500J0D01*
G01*
X167035700Y-105272000D01*
G75*
G02*
X166863200Y-105099500I0J172500D01*
G01*
X166863200Y-104704500D01*
G75*
G02*
X167035700Y-104532000I172500J0D01*
G01*
X167380700Y-104532000D01*
G75*
G02*
X167553200Y-104704500I0J-172500D01*
G01*
G37*
%TD*%
%TO.C,L2*%
G36*
G01*
X176244800Y-98913300D02*
X176244800Y-99308300D01*
G75*
G02*
X176072300Y-99480800I-172500J0D01*
G01*
X175727300Y-99480800D01*
G75*
G02*
X175554800Y-99308300I0J172500D01*
G01*
X175554800Y-98913300D01*
G75*
G02*
X175727300Y-98740800I172500J0D01*
G01*
X176072300Y-98740800D01*
G75*
G02*
X176244800Y-98913300I0J-172500D01*
G01*
G37*
G36*
G01*
X175274800Y-98913300D02*
X175274800Y-99308300D01*
G75*
G02*
X175102300Y-99480800I-172500J0D01*
G01*
X174757300Y-99480800D01*
G75*
G02*
X174584800Y-99308300I0J172500D01*
G01*
X174584800Y-98913300D01*
G75*
G02*
X174757300Y-98740800I172500J0D01*
G01*
X175102300Y-98740800D01*
G75*
G02*
X175274800Y-98913300I0J-172500D01*
G01*
G37*
%TD*%
%TO.C,L4*%
G36*
G01*
X172861800Y-94315900D02*
X172861800Y-94710900D01*
G75*
G02*
X172689300Y-94883400I-172500J0D01*
G01*
X172344300Y-94883400D01*
G75*
G02*
X172171800Y-94710900I0J172500D01*
G01*
X172171800Y-94315900D01*
G75*
G02*
X172344300Y-94143400I172500J0D01*
G01*
X172689300Y-94143400D01*
G75*
G02*
X172861800Y-94315900I0J-172500D01*
G01*
G37*
G36*
G01*
X173831800Y-94315900D02*
X173831800Y-94710900D01*
G75*
G02*
X173659300Y-94883400I-172500J0D01*
G01*
X173314300Y-94883400D01*
G75*
G02*
X173141800Y-94710900I0J172500D01*
G01*
X173141800Y-94315900D01*
G75*
G02*
X173314300Y-94143400I172500J0D01*
G01*
X173659300Y-94143400D01*
G75*
G02*
X173831800Y-94315900I0J-172500D01*
G01*
G37*
%TD*%
D17*
%TO.C,Q1*%
X141452600Y-89611200D03*
X141452600Y-87711200D03*
X139452600Y-88661200D03*
%TD*%
D18*
%TO.C,Q2*%
X149096100Y-104675900D03*
X149096100Y-105625900D03*
X149096100Y-106575900D03*
X151716100Y-106575900D03*
X151716100Y-105625900D03*
X151716100Y-104675900D03*
%TD*%
%TO.C,R1*%
G36*
G01*
X142677500Y-88051800D02*
X143072500Y-88051800D01*
G75*
G02*
X143245000Y-88224300I0J-172500D01*
G01*
X143245000Y-88569300D01*
G75*
G02*
X143072500Y-88741800I-172500J0D01*
G01*
X142677500Y-88741800D01*
G75*
G02*
X142505000Y-88569300I0J172500D01*
G01*
X142505000Y-88224300D01*
G75*
G02*
X142677500Y-88051800I172500J0D01*
G01*
G37*
G36*
G01*
X142677500Y-87081800D02*
X143072500Y-87081800D01*
G75*
G02*
X143245000Y-87254300I0J-172500D01*
G01*
X143245000Y-87599300D01*
G75*
G02*
X143072500Y-87771800I-172500J0D01*
G01*
X142677500Y-87771800D01*
G75*
G02*
X142505000Y-87599300I0J172500D01*
G01*
X142505000Y-87254300D01*
G75*
G02*
X142677500Y-87081800I172500J0D01*
G01*
G37*
%TD*%
%TO.C,R2*%
G36*
G01*
X143058500Y-103541000D02*
X143453500Y-103541000D01*
G75*
G02*
X143626000Y-103713500I0J-172500D01*
G01*
X143626000Y-104058500D01*
G75*
G02*
X143453500Y-104231000I-172500J0D01*
G01*
X143058500Y-104231000D01*
G75*
G02*
X142886000Y-104058500I0J172500D01*
G01*
X142886000Y-103713500D01*
G75*
G02*
X143058500Y-103541000I172500J0D01*
G01*
G37*
G36*
G01*
X143058500Y-104511000D02*
X143453500Y-104511000D01*
G75*
G02*
X143626000Y-104683500I0J-172500D01*
G01*
X143626000Y-105028500D01*
G75*
G02*
X143453500Y-105201000I-172500J0D01*
G01*
X143058500Y-105201000D01*
G75*
G02*
X142886000Y-105028500I0J172500D01*
G01*
X142886000Y-104683500D01*
G75*
G02*
X143058500Y-104511000I172500J0D01*
G01*
G37*
%TD*%
%TO.C,R3*%
G36*
G01*
X144210600Y-89362900D02*
X144210600Y-89757900D01*
G75*
G02*
X144038100Y-89930400I-172500J0D01*
G01*
X143693100Y-89930400D01*
G75*
G02*
X143520600Y-89757900I0J172500D01*
G01*
X143520600Y-89362900D01*
G75*
G02*
X143693100Y-89190400I172500J0D01*
G01*
X144038100Y-89190400D01*
G75*
G02*
X144210600Y-89362900I0J-172500D01*
G01*
G37*
G36*
G01*
X143240600Y-89362900D02*
X143240600Y-89757900D01*
G75*
G02*
X143068100Y-89930400I-172500J0D01*
G01*
X142723100Y-89930400D01*
G75*
G02*
X142550600Y-89757900I0J172500D01*
G01*
X142550600Y-89362900D01*
G75*
G02*
X142723100Y-89190400I172500J0D01*
G01*
X143068100Y-89190400D01*
G75*
G02*
X143240600Y-89362900I0J-172500D01*
G01*
G37*
%TD*%
%TO.C,R4*%
G36*
G01*
X136330000Y-87573500D02*
X136330000Y-87178500D01*
G75*
G02*
X136502500Y-87006000I172500J0D01*
G01*
X136847500Y-87006000D01*
G75*
G02*
X137020000Y-87178500I0J-172500D01*
G01*
X137020000Y-87573500D01*
G75*
G02*
X136847500Y-87746000I-172500J0D01*
G01*
X136502500Y-87746000D01*
G75*
G02*
X136330000Y-87573500I0J172500D01*
G01*
G37*
G36*
G01*
X137300000Y-87573500D02*
X137300000Y-87178500D01*
G75*
G02*
X137472500Y-87006000I172500J0D01*
G01*
X137817500Y-87006000D01*
G75*
G02*
X137990000Y-87178500I0J-172500D01*
G01*
X137990000Y-87573500D01*
G75*
G02*
X137817500Y-87746000I-172500J0D01*
G01*
X137472500Y-87746000D01*
G75*
G02*
X137300000Y-87573500I0J172500D01*
G01*
G37*
%TD*%
%TO.C,R5*%
G36*
G01*
X137323000Y-90113500D02*
X137323000Y-89718500D01*
G75*
G02*
X137495500Y-89546000I172500J0D01*
G01*
X137840500Y-89546000D01*
G75*
G02*
X138013000Y-89718500I0J-172500D01*
G01*
X138013000Y-90113500D01*
G75*
G02*
X137840500Y-90286000I-172500J0D01*
G01*
X137495500Y-90286000D01*
G75*
G02*
X137323000Y-90113500I0J172500D01*
G01*
G37*
G36*
G01*
X136353000Y-90113500D02*
X136353000Y-89718500D01*
G75*
G02*
X136525500Y-89546000I172500J0D01*
G01*
X136870500Y-89546000D01*
G75*
G02*
X137043000Y-89718500I0J-172500D01*
G01*
X137043000Y-90113500D01*
G75*
G02*
X136870500Y-90286000I-172500J0D01*
G01*
X136525500Y-90286000D01*
G75*
G02*
X136353000Y-90113500I0J172500D01*
G01*
G37*
%TD*%
%TO.C,R6*%
G36*
G01*
X178367000Y-99638500D02*
X178367000Y-99243500D01*
G75*
G02*
X178539500Y-99071000I172500J0D01*
G01*
X178884500Y-99071000D01*
G75*
G02*
X179057000Y-99243500I0J-172500D01*
G01*
X179057000Y-99638500D01*
G75*
G02*
X178884500Y-99811000I-172500J0D01*
G01*
X178539500Y-99811000D01*
G75*
G02*
X178367000Y-99638500I0J172500D01*
G01*
G37*
G36*
G01*
X179337000Y-99638500D02*
X179337000Y-99243500D01*
G75*
G02*
X179509500Y-99071000I172500J0D01*
G01*
X179854500Y-99071000D01*
G75*
G02*
X180027000Y-99243500I0J-172500D01*
G01*
X180027000Y-99638500D01*
G75*
G02*
X179854500Y-99811000I-172500J0D01*
G01*
X179509500Y-99811000D01*
G75*
G02*
X179337000Y-99638500I0J172500D01*
G01*
G37*
%TD*%
%TO.C,R7*%
G36*
G01*
X179337000Y-95828500D02*
X179337000Y-95433500D01*
G75*
G02*
X179509500Y-95261000I172500J0D01*
G01*
X179854500Y-95261000D01*
G75*
G02*
X180027000Y-95433500I0J-172500D01*
G01*
X180027000Y-95828500D01*
G75*
G02*
X179854500Y-96001000I-172500J0D01*
G01*
X179509500Y-96001000D01*
G75*
G02*
X179337000Y-95828500I0J172500D01*
G01*
G37*
G36*
G01*
X178367000Y-95828500D02*
X178367000Y-95433500D01*
G75*
G02*
X178539500Y-95261000I172500J0D01*
G01*
X178884500Y-95261000D01*
G75*
G02*
X179057000Y-95433500I0J-172500D01*
G01*
X179057000Y-95828500D01*
G75*
G02*
X178884500Y-96001000I-172500J0D01*
G01*
X178539500Y-96001000D01*
G75*
G02*
X178367000Y-95828500I0J172500D01*
G01*
G37*
%TD*%
%TO.C,R8*%
G36*
G01*
X178367000Y-98368500D02*
X178367000Y-97973500D01*
G75*
G02*
X178539500Y-97801000I172500J0D01*
G01*
X178884500Y-97801000D01*
G75*
G02*
X179057000Y-97973500I0J-172500D01*
G01*
X179057000Y-98368500D01*
G75*
G02*
X178884500Y-98541000I-172500J0D01*
G01*
X178539500Y-98541000D01*
G75*
G02*
X178367000Y-98368500I0J172500D01*
G01*
G37*
G36*
G01*
X179337000Y-98368500D02*
X179337000Y-97973500D01*
G75*
G02*
X179509500Y-97801000I172500J0D01*
G01*
X179854500Y-97801000D01*
G75*
G02*
X180027000Y-97973500I0J-172500D01*
G01*
X180027000Y-98368500D01*
G75*
G02*
X179854500Y-98541000I-172500J0D01*
G01*
X179509500Y-98541000D01*
G75*
G02*
X179337000Y-98368500I0J172500D01*
G01*
G37*
%TD*%
%TO.C,R9*%
G36*
G01*
X179337000Y-97098500D02*
X179337000Y-96703500D01*
G75*
G02*
X179509500Y-96531000I172500J0D01*
G01*
X179854500Y-96531000D01*
G75*
G02*
X180027000Y-96703500I0J-172500D01*
G01*
X180027000Y-97098500D01*
G75*
G02*
X179854500Y-97271000I-172500J0D01*
G01*
X179509500Y-97271000D01*
G75*
G02*
X179337000Y-97098500I0J172500D01*
G01*
G37*
G36*
G01*
X178367000Y-97098500D02*
X178367000Y-96703500D01*
G75*
G02*
X178539500Y-96531000I172500J0D01*
G01*
X178884500Y-96531000D01*
G75*
G02*
X179057000Y-96703500I0J-172500D01*
G01*
X179057000Y-97098500D01*
G75*
G02*
X178884500Y-97271000I-172500J0D01*
G01*
X178539500Y-97271000D01*
G75*
G02*
X178367000Y-97098500I0J172500D01*
G01*
G37*
%TD*%
%TO.C,R10*%
G36*
G01*
X137450000Y-107893500D02*
X137450000Y-107498500D01*
G75*
G02*
X137622500Y-107326000I172500J0D01*
G01*
X137967500Y-107326000D01*
G75*
G02*
X138140000Y-107498500I0J-172500D01*
G01*
X138140000Y-107893500D01*
G75*
G02*
X137967500Y-108066000I-172500J0D01*
G01*
X137622500Y-108066000D01*
G75*
G02*
X137450000Y-107893500I0J172500D01*
G01*
G37*
G36*
G01*
X136480000Y-107893500D02*
X136480000Y-107498500D01*
G75*
G02*
X136652500Y-107326000I172500J0D01*
G01*
X136997500Y-107326000D01*
G75*
G02*
X137170000Y-107498500I0J-172500D01*
G01*
X137170000Y-107893500D01*
G75*
G02*
X136997500Y-108066000I-172500J0D01*
G01*
X136652500Y-108066000D01*
G75*
G02*
X136480000Y-107893500I0J172500D01*
G01*
G37*
%TD*%
%TO.C,R11*%
G36*
G01*
X178902800Y-104108900D02*
X178902800Y-103713900D01*
G75*
G02*
X179075300Y-103541400I172500J0D01*
G01*
X179420300Y-103541400D01*
G75*
G02*
X179592800Y-103713900I0J-172500D01*
G01*
X179592800Y-104108900D01*
G75*
G02*
X179420300Y-104281400I-172500J0D01*
G01*
X179075300Y-104281400D01*
G75*
G02*
X178902800Y-104108900I0J172500D01*
G01*
G37*
G36*
G01*
X177932800Y-104108900D02*
X177932800Y-103713900D01*
G75*
G02*
X178105300Y-103541400I172500J0D01*
G01*
X178450300Y-103541400D01*
G75*
G02*
X178622800Y-103713900I0J-172500D01*
G01*
X178622800Y-104108900D01*
G75*
G02*
X178450300Y-104281400I-172500J0D01*
G01*
X178105300Y-104281400D01*
G75*
G02*
X177932800Y-104108900I0J172500D01*
G01*
G37*
%TD*%
%TO.C,R12*%
G36*
G01*
X156844700Y-100094400D02*
X156844700Y-100489400D01*
G75*
G02*
X156672200Y-100661900I-172500J0D01*
G01*
X156327200Y-100661900D01*
G75*
G02*
X156154700Y-100489400I0J172500D01*
G01*
X156154700Y-100094400D01*
G75*
G02*
X156327200Y-99921900I172500J0D01*
G01*
X156672200Y-99921900D01*
G75*
G02*
X156844700Y-100094400I0J-172500D01*
G01*
G37*
G36*
G01*
X157814700Y-100094400D02*
X157814700Y-100489400D01*
G75*
G02*
X157642200Y-100661900I-172500J0D01*
G01*
X157297200Y-100661900D01*
G75*
G02*
X157124700Y-100489400I0J172500D01*
G01*
X157124700Y-100094400D01*
G75*
G02*
X157297200Y-99921900I172500J0D01*
G01*
X157642200Y-99921900D01*
G75*
G02*
X157814700Y-100094400I0J-172500D01*
G01*
G37*
%TD*%
%TO.C,R13*%
G36*
G01*
X173137000Y-98190700D02*
X173137000Y-97795700D01*
G75*
G02*
X173309500Y-97623200I172500J0D01*
G01*
X173654500Y-97623200D01*
G75*
G02*
X173827000Y-97795700I0J-172500D01*
G01*
X173827000Y-98190700D01*
G75*
G02*
X173654500Y-98363200I-172500J0D01*
G01*
X173309500Y-98363200D01*
G75*
G02*
X173137000Y-98190700I0J172500D01*
G01*
G37*
G36*
G01*
X172167000Y-98190700D02*
X172167000Y-97795700D01*
G75*
G02*
X172339500Y-97623200I172500J0D01*
G01*
X172684500Y-97623200D01*
G75*
G02*
X172857000Y-97795700I0J-172500D01*
G01*
X172857000Y-98190700D01*
G75*
G02*
X172684500Y-98363200I-172500J0D01*
G01*
X172339500Y-98363200D01*
G75*
G02*
X172167000Y-98190700I0J172500D01*
G01*
G37*
%TD*%
%TO.C,R14*%
G36*
G01*
X172293900Y-99832600D02*
X172688900Y-99832600D01*
G75*
G02*
X172861400Y-100005100I0J-172500D01*
G01*
X172861400Y-100350100D01*
G75*
G02*
X172688900Y-100522600I-172500J0D01*
G01*
X172293900Y-100522600D01*
G75*
G02*
X172121400Y-100350100I0J172500D01*
G01*
X172121400Y-100005100D01*
G75*
G02*
X172293900Y-99832600I172500J0D01*
G01*
G37*
G36*
G01*
X172293900Y-100802600D02*
X172688900Y-100802600D01*
G75*
G02*
X172861400Y-100975100I0J-172500D01*
G01*
X172861400Y-101320100D01*
G75*
G02*
X172688900Y-101492600I-172500J0D01*
G01*
X172293900Y-101492600D01*
G75*
G02*
X172121400Y-101320100I0J172500D01*
G01*
X172121400Y-100975100D01*
G75*
G02*
X172293900Y-100802600I172500J0D01*
G01*
G37*
%TD*%
%TO.C,R16*%
G36*
G01*
X171201800Y-109315900D02*
X171201800Y-108920900D01*
G75*
G02*
X171374300Y-108748400I172500J0D01*
G01*
X171719300Y-108748400D01*
G75*
G02*
X171891800Y-108920900I0J-172500D01*
G01*
X171891800Y-109315900D01*
G75*
G02*
X171719300Y-109488400I-172500J0D01*
G01*
X171374300Y-109488400D01*
G75*
G02*
X171201800Y-109315900I0J172500D01*
G01*
G37*
G36*
G01*
X172171800Y-109315900D02*
X172171800Y-108920900D01*
G75*
G02*
X172344300Y-108748400I172500J0D01*
G01*
X172689300Y-108748400D01*
G75*
G02*
X172861800Y-108920900I0J-172500D01*
G01*
X172861800Y-109315900D01*
G75*
G02*
X172689300Y-109488400I-172500J0D01*
G01*
X172344300Y-109488400D01*
G75*
G02*
X172171800Y-109315900I0J172500D01*
G01*
G37*
%TD*%
%TO.C,R17*%
G36*
G01*
X154048900Y-105442400D02*
X154048900Y-105047400D01*
G75*
G02*
X154221400Y-104874900I172500J0D01*
G01*
X154566400Y-104874900D01*
G75*
G02*
X154738900Y-105047400I0J-172500D01*
G01*
X154738900Y-105442400D01*
G75*
G02*
X154566400Y-105614900I-172500J0D01*
G01*
X154221400Y-105614900D01*
G75*
G02*
X154048900Y-105442400I0J172500D01*
G01*
G37*
G36*
G01*
X153078900Y-105442400D02*
X153078900Y-105047400D01*
G75*
G02*
X153251400Y-104874900I172500J0D01*
G01*
X153596400Y-104874900D01*
G75*
G02*
X153768900Y-105047400I0J-172500D01*
G01*
X153768900Y-105442400D01*
G75*
G02*
X153596400Y-105614900I-172500J0D01*
G01*
X153251400Y-105614900D01*
G75*
G02*
X153078900Y-105442400I0J172500D01*
G01*
G37*
%TD*%
%TO.C,R18*%
G36*
G01*
X154715900Y-107422300D02*
X154715900Y-107817300D01*
G75*
G02*
X154543400Y-107989800I-172500J0D01*
G01*
X154198400Y-107989800D01*
G75*
G02*
X154025900Y-107817300I0J172500D01*
G01*
X154025900Y-107422300D01*
G75*
G02*
X154198400Y-107249800I172500J0D01*
G01*
X154543400Y-107249800D01*
G75*
G02*
X154715900Y-107422300I0J-172500D01*
G01*
G37*
G36*
G01*
X153745900Y-107422300D02*
X153745900Y-107817300D01*
G75*
G02*
X153573400Y-107989800I-172500J0D01*
G01*
X153228400Y-107989800D01*
G75*
G02*
X153055900Y-107817300I0J172500D01*
G01*
X153055900Y-107422300D01*
G75*
G02*
X153228400Y-107249800I172500J0D01*
G01*
X153573400Y-107249800D01*
G75*
G02*
X153745900Y-107422300I0J-172500D01*
G01*
G37*
%TD*%
%TO.C,R19*%
G36*
G01*
X154728600Y-103891700D02*
X154728600Y-104286700D01*
G75*
G02*
X154556100Y-104459200I-172500J0D01*
G01*
X154211100Y-104459200D01*
G75*
G02*
X154038600Y-104286700I0J172500D01*
G01*
X154038600Y-103891700D01*
G75*
G02*
X154211100Y-103719200I172500J0D01*
G01*
X154556100Y-103719200D01*
G75*
G02*
X154728600Y-103891700I0J-172500D01*
G01*
G37*
G36*
G01*
X153758600Y-103891700D02*
X153758600Y-104286700D01*
G75*
G02*
X153586100Y-104459200I-172500J0D01*
G01*
X153241100Y-104459200D01*
G75*
G02*
X153068600Y-104286700I0J172500D01*
G01*
X153068600Y-103891700D01*
G75*
G02*
X153241100Y-103719200I172500J0D01*
G01*
X153586100Y-103719200D01*
G75*
G02*
X153758600Y-103891700I0J-172500D01*
G01*
G37*
%TD*%
%TO.C,R20*%
G36*
G01*
X153193200Y-98825700D02*
X153193200Y-98430700D01*
G75*
G02*
X153365700Y-98258200I172500J0D01*
G01*
X153710700Y-98258200D01*
G75*
G02*
X153883200Y-98430700I0J-172500D01*
G01*
X153883200Y-98825700D01*
G75*
G02*
X153710700Y-98998200I-172500J0D01*
G01*
X153365700Y-98998200D01*
G75*
G02*
X153193200Y-98825700I0J172500D01*
G01*
G37*
G36*
G01*
X154163200Y-98825700D02*
X154163200Y-98430700D01*
G75*
G02*
X154335700Y-98258200I172500J0D01*
G01*
X154680700Y-98258200D01*
G75*
G02*
X154853200Y-98430700I0J-172500D01*
G01*
X154853200Y-98825700D01*
G75*
G02*
X154680700Y-98998200I-172500J0D01*
G01*
X154335700Y-98998200D01*
G75*
G02*
X154163200Y-98825700I0J172500D01*
G01*
G37*
%TD*%
%TO.C,R21*%
G36*
G01*
X147025800Y-104883600D02*
X147025800Y-104488600D01*
G75*
G02*
X147198300Y-104316100I172500J0D01*
G01*
X147543300Y-104316100D01*
G75*
G02*
X147715800Y-104488600I0J-172500D01*
G01*
X147715800Y-104883600D01*
G75*
G02*
X147543300Y-105056100I-172500J0D01*
G01*
X147198300Y-105056100D01*
G75*
G02*
X147025800Y-104883600I0J172500D01*
G01*
G37*
G36*
G01*
X146055800Y-104883600D02*
X146055800Y-104488600D01*
G75*
G02*
X146228300Y-104316100I172500J0D01*
G01*
X146573300Y-104316100D01*
G75*
G02*
X146745800Y-104488600I0J-172500D01*
G01*
X146745800Y-104883600D01*
G75*
G02*
X146573300Y-105056100I-172500J0D01*
G01*
X146228300Y-105056100D01*
G75*
G02*
X146055800Y-104883600I0J172500D01*
G01*
G37*
%TD*%
%TO.C,R23*%
G36*
G01*
X166858400Y-107969700D02*
X166858400Y-107574700D01*
G75*
G02*
X167030900Y-107402200I172500J0D01*
G01*
X167375900Y-107402200D01*
G75*
G02*
X167548400Y-107574700I0J-172500D01*
G01*
X167548400Y-107969700D01*
G75*
G02*
X167375900Y-108142200I-172500J0D01*
G01*
X167030900Y-108142200D01*
G75*
G02*
X166858400Y-107969700I0J172500D01*
G01*
G37*
G36*
G01*
X167828400Y-107969700D02*
X167828400Y-107574700D01*
G75*
G02*
X168000900Y-107402200I172500J0D01*
G01*
X168345900Y-107402200D01*
G75*
G02*
X168518400Y-107574700I0J-172500D01*
G01*
X168518400Y-107969700D01*
G75*
G02*
X168345900Y-108142200I-172500J0D01*
G01*
X168000900Y-108142200D01*
G75*
G02*
X167828400Y-107969700I0J172500D01*
G01*
G37*
%TD*%
D19*
%TO.C,U1*%
X141612800Y-106372700D03*
X141612800Y-105422700D03*
X141612800Y-104472700D03*
X139412800Y-104472700D03*
X139412800Y-106372700D03*
%TD*%
%TO.C,U2*%
G36*
G01*
X170247200Y-104035600D02*
X170247200Y-103685600D01*
G75*
G02*
X170422200Y-103510600I175000J0D01*
G01*
X172122200Y-103510600D01*
G75*
G02*
X172297200Y-103685600I0J-175000D01*
G01*
X172297200Y-104035600D01*
G75*
G02*
X172122200Y-104210600I-175000J0D01*
G01*
X170422200Y-104210600D01*
G75*
G02*
X170247200Y-104035600I0J175000D01*
G01*
G37*
G36*
G01*
X170247200Y-105305600D02*
X170247200Y-104955600D01*
G75*
G02*
X170422200Y-104780600I175000J0D01*
G01*
X172122200Y-104780600D01*
G75*
G02*
X172297200Y-104955600I0J-175000D01*
G01*
X172297200Y-105305600D01*
G75*
G02*
X172122200Y-105480600I-175000J0D01*
G01*
X170422200Y-105480600D01*
G75*
G02*
X170247200Y-105305600I0J175000D01*
G01*
G37*
G36*
G01*
X170247200Y-106575600D02*
X170247200Y-106225600D01*
G75*
G02*
X170422200Y-106050600I175000J0D01*
G01*
X172122200Y-106050600D01*
G75*
G02*
X172297200Y-106225600I0J-175000D01*
G01*
X172297200Y-106575600D01*
G75*
G02*
X172122200Y-106750600I-175000J0D01*
G01*
X170422200Y-106750600D01*
G75*
G02*
X170247200Y-106575600I0J175000D01*
G01*
G37*
G36*
G01*
X170247200Y-107845600D02*
X170247200Y-107495600D01*
G75*
G02*
X170422200Y-107320600I175000J0D01*
G01*
X172122200Y-107320600D01*
G75*
G02*
X172297200Y-107495600I0J-175000D01*
G01*
X172297200Y-107845600D01*
G75*
G02*
X172122200Y-108020600I-175000J0D01*
G01*
X170422200Y-108020600D01*
G75*
G02*
X170247200Y-107845600I0J175000D01*
G01*
G37*
G36*
G01*
X175197200Y-107845600D02*
X175197200Y-107495600D01*
G75*
G02*
X175372200Y-107320600I175000J0D01*
G01*
X177072200Y-107320600D01*
G75*
G02*
X177247200Y-107495600I0J-175000D01*
G01*
X177247200Y-107845600D01*
G75*
G02*
X177072200Y-108020600I-175000J0D01*
G01*
X175372200Y-108020600D01*
G75*
G02*
X175197200Y-107845600I0J175000D01*
G01*
G37*
G36*
G01*
X175197200Y-106575600D02*
X175197200Y-106225600D01*
G75*
G02*
X175372200Y-106050600I175000J0D01*
G01*
X177072200Y-106050600D01*
G75*
G02*
X177247200Y-106225600I0J-175000D01*
G01*
X177247200Y-106575600D01*
G75*
G02*
X177072200Y-106750600I-175000J0D01*
G01*
X175372200Y-106750600D01*
G75*
G02*
X175197200Y-106575600I0J175000D01*
G01*
G37*
G36*
G01*
X175197200Y-105305600D02*
X175197200Y-104955600D01*
G75*
G02*
X175372200Y-104780600I175000J0D01*
G01*
X177072200Y-104780600D01*
G75*
G02*
X177247200Y-104955600I0J-175000D01*
G01*
X177247200Y-105305600D01*
G75*
G02*
X177072200Y-105480600I-175000J0D01*
G01*
X175372200Y-105480600D01*
G75*
G02*
X175197200Y-105305600I0J175000D01*
G01*
G37*
G36*
G01*
X175197200Y-104035600D02*
X175197200Y-103685600D01*
G75*
G02*
X175372200Y-103510600I175000J0D01*
G01*
X177072200Y-103510600D01*
G75*
G02*
X177247200Y-103685600I0J-175000D01*
G01*
X177247200Y-104035600D01*
G75*
G02*
X177072200Y-104210600I-175000J0D01*
G01*
X175372200Y-104210600D01*
G75*
G02*
X175197200Y-104035600I0J175000D01*
G01*
G37*
%TD*%
%TO.C,U3*%
G36*
G01*
X169368200Y-99979700D02*
X169368200Y-100179700D01*
G75*
G02*
X169268200Y-100279700I-100000J0D01*
G01*
X167893200Y-100279700D01*
G75*
G02*
X167793200Y-100179700I0J100000D01*
G01*
X167793200Y-99979700D01*
G75*
G02*
X167893200Y-99879700I100000J0D01*
G01*
X169268200Y-99879700D01*
G75*
G02*
X169368200Y-99979700I0J-100000D01*
G01*
G37*
G36*
G01*
X169368200Y-99479700D02*
X169368200Y-99679700D01*
G75*
G02*
X169268200Y-99779700I-100000J0D01*
G01*
X167893200Y-99779700D01*
G75*
G02*
X167793200Y-99679700I0J100000D01*
G01*
X167793200Y-99479700D01*
G75*
G02*
X167893200Y-99379700I100000J0D01*
G01*
X169268200Y-99379700D01*
G75*
G02*
X169368200Y-99479700I0J-100000D01*
G01*
G37*
G36*
G01*
X169368200Y-98979700D02*
X169368200Y-99179700D01*
G75*
G02*
X169268200Y-99279700I-100000J0D01*
G01*
X167893200Y-99279700D01*
G75*
G02*
X167793200Y-99179700I0J100000D01*
G01*
X167793200Y-98979700D01*
G75*
G02*
X167893200Y-98879700I100000J0D01*
G01*
X169268200Y-98879700D01*
G75*
G02*
X169368200Y-98979700I0J-100000D01*
G01*
G37*
G36*
G01*
X169368200Y-98479700D02*
X169368200Y-98679700D01*
G75*
G02*
X169268200Y-98779700I-100000J0D01*
G01*
X167893200Y-98779700D01*
G75*
G02*
X167793200Y-98679700I0J100000D01*
G01*
X167793200Y-98479700D01*
G75*
G02*
X167893200Y-98379700I100000J0D01*
G01*
X169268200Y-98379700D01*
G75*
G02*
X169368200Y-98479700I0J-100000D01*
G01*
G37*
G36*
G01*
X169368200Y-97979700D02*
X169368200Y-98179700D01*
G75*
G02*
X169268200Y-98279700I-100000J0D01*
G01*
X167893200Y-98279700D01*
G75*
G02*
X167793200Y-98179700I0J100000D01*
G01*
X167793200Y-97979700D01*
G75*
G02*
X167893200Y-97879700I100000J0D01*
G01*
X169268200Y-97879700D01*
G75*
G02*
X169368200Y-97979700I0J-100000D01*
G01*
G37*
G36*
G01*
X169368200Y-97479700D02*
X169368200Y-97679700D01*
G75*
G02*
X169268200Y-97779700I-100000J0D01*
G01*
X167893200Y-97779700D01*
G75*
G02*
X167793200Y-97679700I0J100000D01*
G01*
X167793200Y-97479700D01*
G75*
G02*
X167893200Y-97379700I100000J0D01*
G01*
X169268200Y-97379700D01*
G75*
G02*
X169368200Y-97479700I0J-100000D01*
G01*
G37*
G36*
G01*
X169368200Y-96979700D02*
X169368200Y-97179700D01*
G75*
G02*
X169268200Y-97279700I-100000J0D01*
G01*
X167893200Y-97279700D01*
G75*
G02*
X167793200Y-97179700I0J100000D01*
G01*
X167793200Y-96979700D01*
G75*
G02*
X167893200Y-96879700I100000J0D01*
G01*
X169268200Y-96879700D01*
G75*
G02*
X169368200Y-96979700I0J-100000D01*
G01*
G37*
G36*
G01*
X169368200Y-96479700D02*
X169368200Y-96679700D01*
G75*
G02*
X169268200Y-96779700I-100000J0D01*
G01*
X167893200Y-96779700D01*
G75*
G02*
X167793200Y-96679700I0J100000D01*
G01*
X167793200Y-96479700D01*
G75*
G02*
X167893200Y-96379700I100000J0D01*
G01*
X169268200Y-96379700D01*
G75*
G02*
X169368200Y-96479700I0J-100000D01*
G01*
G37*
G36*
G01*
X169368200Y-95979700D02*
X169368200Y-96179700D01*
G75*
G02*
X169268200Y-96279700I-100000J0D01*
G01*
X167893200Y-96279700D01*
G75*
G02*
X167793200Y-96179700I0J100000D01*
G01*
X167793200Y-95979700D01*
G75*
G02*
X167893200Y-95879700I100000J0D01*
G01*
X169268200Y-95879700D01*
G75*
G02*
X169368200Y-95979700I0J-100000D01*
G01*
G37*
G36*
G01*
X169368200Y-95479700D02*
X169368200Y-95679700D01*
G75*
G02*
X169268200Y-95779700I-100000J0D01*
G01*
X167893200Y-95779700D01*
G75*
G02*
X167793200Y-95679700I0J100000D01*
G01*
X167793200Y-95479700D01*
G75*
G02*
X167893200Y-95379700I100000J0D01*
G01*
X169268200Y-95379700D01*
G75*
G02*
X169368200Y-95479700I0J-100000D01*
G01*
G37*
G36*
G01*
X169368200Y-94979700D02*
X169368200Y-95179700D01*
G75*
G02*
X169268200Y-95279700I-100000J0D01*
G01*
X167893200Y-95279700D01*
G75*
G02*
X167793200Y-95179700I0J100000D01*
G01*
X167793200Y-94979700D01*
G75*
G02*
X167893200Y-94879700I100000J0D01*
G01*
X169268200Y-94879700D01*
G75*
G02*
X169368200Y-94979700I0J-100000D01*
G01*
G37*
G36*
G01*
X169368200Y-94479700D02*
X169368200Y-94679700D01*
G75*
G02*
X169268200Y-94779700I-100000J0D01*
G01*
X167893200Y-94779700D01*
G75*
G02*
X167793200Y-94679700I0J100000D01*
G01*
X167793200Y-94479700D01*
G75*
G02*
X167893200Y-94379700I100000J0D01*
G01*
X169268200Y-94379700D01*
G75*
G02*
X169368200Y-94479700I0J-100000D01*
G01*
G37*
G36*
G01*
X167368200Y-92479700D02*
X167368200Y-93854700D01*
G75*
G02*
X167268200Y-93954700I-100000J0D01*
G01*
X167068200Y-93954700D01*
G75*
G02*
X166968200Y-93854700I0J100000D01*
G01*
X166968200Y-92479700D01*
G75*
G02*
X167068200Y-92379700I100000J0D01*
G01*
X167268200Y-92379700D01*
G75*
G02*
X167368200Y-92479700I0J-100000D01*
G01*
G37*
G36*
G01*
X166868200Y-92479700D02*
X166868200Y-93854700D01*
G75*
G02*
X166768200Y-93954700I-100000J0D01*
G01*
X166568200Y-93954700D01*
G75*
G02*
X166468200Y-93854700I0J100000D01*
G01*
X166468200Y-92479700D01*
G75*
G02*
X166568200Y-92379700I100000J0D01*
G01*
X166768200Y-92379700D01*
G75*
G02*
X166868200Y-92479700I0J-100000D01*
G01*
G37*
G36*
G01*
X166368200Y-92479700D02*
X166368200Y-93854700D01*
G75*
G02*
X166268200Y-93954700I-100000J0D01*
G01*
X166068200Y-93954700D01*
G75*
G02*
X165968200Y-93854700I0J100000D01*
G01*
X165968200Y-92479700D01*
G75*
G02*
X166068200Y-92379700I100000J0D01*
G01*
X166268200Y-92379700D01*
G75*
G02*
X166368200Y-92479700I0J-100000D01*
G01*
G37*
G36*
G01*
X165868200Y-92479700D02*
X165868200Y-93854700D01*
G75*
G02*
X165768200Y-93954700I-100000J0D01*
G01*
X165568200Y-93954700D01*
G75*
G02*
X165468200Y-93854700I0J100000D01*
G01*
X165468200Y-92479700D01*
G75*
G02*
X165568200Y-92379700I100000J0D01*
G01*
X165768200Y-92379700D01*
G75*
G02*
X165868200Y-92479700I0J-100000D01*
G01*
G37*
G36*
G01*
X165368200Y-92479700D02*
X165368200Y-93854700D01*
G75*
G02*
X165268200Y-93954700I-100000J0D01*
G01*
X165068200Y-93954700D01*
G75*
G02*
X164968200Y-93854700I0J100000D01*
G01*
X164968200Y-92479700D01*
G75*
G02*
X165068200Y-92379700I100000J0D01*
G01*
X165268200Y-92379700D01*
G75*
G02*
X165368200Y-92479700I0J-100000D01*
G01*
G37*
G36*
G01*
X164868200Y-92479700D02*
X164868200Y-93854700D01*
G75*
G02*
X164768200Y-93954700I-100000J0D01*
G01*
X164568200Y-93954700D01*
G75*
G02*
X164468200Y-93854700I0J100000D01*
G01*
X164468200Y-92479700D01*
G75*
G02*
X164568200Y-92379700I100000J0D01*
G01*
X164768200Y-92379700D01*
G75*
G02*
X164868200Y-92479700I0J-100000D01*
G01*
G37*
G36*
G01*
X164368200Y-92479700D02*
X164368200Y-93854700D01*
G75*
G02*
X164268200Y-93954700I-100000J0D01*
G01*
X164068200Y-93954700D01*
G75*
G02*
X163968200Y-93854700I0J100000D01*
G01*
X163968200Y-92479700D01*
G75*
G02*
X164068200Y-92379700I100000J0D01*
G01*
X164268200Y-92379700D01*
G75*
G02*
X164368200Y-92479700I0J-100000D01*
G01*
G37*
G36*
G01*
X163868200Y-92479700D02*
X163868200Y-93854700D01*
G75*
G02*
X163768200Y-93954700I-100000J0D01*
G01*
X163568200Y-93954700D01*
G75*
G02*
X163468200Y-93854700I0J100000D01*
G01*
X163468200Y-92479700D01*
G75*
G02*
X163568200Y-92379700I100000J0D01*
G01*
X163768200Y-92379700D01*
G75*
G02*
X163868200Y-92479700I0J-100000D01*
G01*
G37*
G36*
G01*
X163368200Y-92479700D02*
X163368200Y-93854700D01*
G75*
G02*
X163268200Y-93954700I-100000J0D01*
G01*
X163068200Y-93954700D01*
G75*
G02*
X162968200Y-93854700I0J100000D01*
G01*
X162968200Y-92479700D01*
G75*
G02*
X163068200Y-92379700I100000J0D01*
G01*
X163268200Y-92379700D01*
G75*
G02*
X163368200Y-92479700I0J-100000D01*
G01*
G37*
G36*
G01*
X162868200Y-92479700D02*
X162868200Y-93854700D01*
G75*
G02*
X162768200Y-93954700I-100000J0D01*
G01*
X162568200Y-93954700D01*
G75*
G02*
X162468200Y-93854700I0J100000D01*
G01*
X162468200Y-92479700D01*
G75*
G02*
X162568200Y-92379700I100000J0D01*
G01*
X162768200Y-92379700D01*
G75*
G02*
X162868200Y-92479700I0J-100000D01*
G01*
G37*
G36*
G01*
X162368200Y-92479700D02*
X162368200Y-93854700D01*
G75*
G02*
X162268200Y-93954700I-100000J0D01*
G01*
X162068200Y-93954700D01*
G75*
G02*
X161968200Y-93854700I0J100000D01*
G01*
X161968200Y-92479700D01*
G75*
G02*
X162068200Y-92379700I100000J0D01*
G01*
X162268200Y-92379700D01*
G75*
G02*
X162368200Y-92479700I0J-100000D01*
G01*
G37*
G36*
G01*
X161868200Y-92479700D02*
X161868200Y-93854700D01*
G75*
G02*
X161768200Y-93954700I-100000J0D01*
G01*
X161568200Y-93954700D01*
G75*
G02*
X161468200Y-93854700I0J100000D01*
G01*
X161468200Y-92479700D01*
G75*
G02*
X161568200Y-92379700I100000J0D01*
G01*
X161768200Y-92379700D01*
G75*
G02*
X161868200Y-92479700I0J-100000D01*
G01*
G37*
G36*
G01*
X161043200Y-94479700D02*
X161043200Y-94679700D01*
G75*
G02*
X160943200Y-94779700I-100000J0D01*
G01*
X159568200Y-94779700D01*
G75*
G02*
X159468200Y-94679700I0J100000D01*
G01*
X159468200Y-94479700D01*
G75*
G02*
X159568200Y-94379700I100000J0D01*
G01*
X160943200Y-94379700D01*
G75*
G02*
X161043200Y-94479700I0J-100000D01*
G01*
G37*
G36*
G01*
X161043200Y-94979700D02*
X161043200Y-95179700D01*
G75*
G02*
X160943200Y-95279700I-100000J0D01*
G01*
X159568200Y-95279700D01*
G75*
G02*
X159468200Y-95179700I0J100000D01*
G01*
X159468200Y-94979700D01*
G75*
G02*
X159568200Y-94879700I100000J0D01*
G01*
X160943200Y-94879700D01*
G75*
G02*
X161043200Y-94979700I0J-100000D01*
G01*
G37*
G36*
G01*
X161043200Y-95479700D02*
X161043200Y-95679700D01*
G75*
G02*
X160943200Y-95779700I-100000J0D01*
G01*
X159568200Y-95779700D01*
G75*
G02*
X159468200Y-95679700I0J100000D01*
G01*
X159468200Y-95479700D01*
G75*
G02*
X159568200Y-95379700I100000J0D01*
G01*
X160943200Y-95379700D01*
G75*
G02*
X161043200Y-95479700I0J-100000D01*
G01*
G37*
G36*
G01*
X161043200Y-95979700D02*
X161043200Y-96179700D01*
G75*
G02*
X160943200Y-96279700I-100000J0D01*
G01*
X159568200Y-96279700D01*
G75*
G02*
X159468200Y-96179700I0J100000D01*
G01*
X159468200Y-95979700D01*
G75*
G02*
X159568200Y-95879700I100000J0D01*
G01*
X160943200Y-95879700D01*
G75*
G02*
X161043200Y-95979700I0J-100000D01*
G01*
G37*
G36*
G01*
X161043200Y-96479700D02*
X161043200Y-96679700D01*
G75*
G02*
X160943200Y-96779700I-100000J0D01*
G01*
X159568200Y-96779700D01*
G75*
G02*
X159468200Y-96679700I0J100000D01*
G01*
X159468200Y-96479700D01*
G75*
G02*
X159568200Y-96379700I100000J0D01*
G01*
X160943200Y-96379700D01*
G75*
G02*
X161043200Y-96479700I0J-100000D01*
G01*
G37*
G36*
G01*
X161043200Y-96979700D02*
X161043200Y-97179700D01*
G75*
G02*
X160943200Y-97279700I-100000J0D01*
G01*
X159568200Y-97279700D01*
G75*
G02*
X159468200Y-97179700I0J100000D01*
G01*
X159468200Y-96979700D01*
G75*
G02*
X159568200Y-96879700I100000J0D01*
G01*
X160943200Y-96879700D01*
G75*
G02*
X161043200Y-96979700I0J-100000D01*
G01*
G37*
G36*
G01*
X161043200Y-97479700D02*
X161043200Y-97679700D01*
G75*
G02*
X160943200Y-97779700I-100000J0D01*
G01*
X159568200Y-97779700D01*
G75*
G02*
X159468200Y-97679700I0J100000D01*
G01*
X159468200Y-97479700D01*
G75*
G02*
X159568200Y-97379700I100000J0D01*
G01*
X160943200Y-97379700D01*
G75*
G02*
X161043200Y-97479700I0J-100000D01*
G01*
G37*
G36*
G01*
X161043200Y-97979700D02*
X161043200Y-98179700D01*
G75*
G02*
X160943200Y-98279700I-100000J0D01*
G01*
X159568200Y-98279700D01*
G75*
G02*
X159468200Y-98179700I0J100000D01*
G01*
X159468200Y-97979700D01*
G75*
G02*
X159568200Y-97879700I100000J0D01*
G01*
X160943200Y-97879700D01*
G75*
G02*
X161043200Y-97979700I0J-100000D01*
G01*
G37*
G36*
G01*
X161043200Y-98479700D02*
X161043200Y-98679700D01*
G75*
G02*
X160943200Y-98779700I-100000J0D01*
G01*
X159568200Y-98779700D01*
G75*
G02*
X159468200Y-98679700I0J100000D01*
G01*
X159468200Y-98479700D01*
G75*
G02*
X159568200Y-98379700I100000J0D01*
G01*
X160943200Y-98379700D01*
G75*
G02*
X161043200Y-98479700I0J-100000D01*
G01*
G37*
G36*
G01*
X161043200Y-98979700D02*
X161043200Y-99179700D01*
G75*
G02*
X160943200Y-99279700I-100000J0D01*
G01*
X159568200Y-99279700D01*
G75*
G02*
X159468200Y-99179700I0J100000D01*
G01*
X159468200Y-98979700D01*
G75*
G02*
X159568200Y-98879700I100000J0D01*
G01*
X160943200Y-98879700D01*
G75*
G02*
X161043200Y-98979700I0J-100000D01*
G01*
G37*
G36*
G01*
X161043200Y-99479700D02*
X161043200Y-99679700D01*
G75*
G02*
X160943200Y-99779700I-100000J0D01*
G01*
X159568200Y-99779700D01*
G75*
G02*
X159468200Y-99679700I0J100000D01*
G01*
X159468200Y-99479700D01*
G75*
G02*
X159568200Y-99379700I100000J0D01*
G01*
X160943200Y-99379700D01*
G75*
G02*
X161043200Y-99479700I0J-100000D01*
G01*
G37*
G36*
G01*
X161043200Y-99979700D02*
X161043200Y-100179700D01*
G75*
G02*
X160943200Y-100279700I-100000J0D01*
G01*
X159568200Y-100279700D01*
G75*
G02*
X159468200Y-100179700I0J100000D01*
G01*
X159468200Y-99979700D01*
G75*
G02*
X159568200Y-99879700I100000J0D01*
G01*
X160943200Y-99879700D01*
G75*
G02*
X161043200Y-99979700I0J-100000D01*
G01*
G37*
G36*
G01*
X161868200Y-100804700D02*
X161868200Y-102179700D01*
G75*
G02*
X161768200Y-102279700I-100000J0D01*
G01*
X161568200Y-102279700D01*
G75*
G02*
X161468200Y-102179700I0J100000D01*
G01*
X161468200Y-100804700D01*
G75*
G02*
X161568200Y-100704700I100000J0D01*
G01*
X161768200Y-100704700D01*
G75*
G02*
X161868200Y-100804700I0J-100000D01*
G01*
G37*
G36*
G01*
X162368200Y-100804700D02*
X162368200Y-102179700D01*
G75*
G02*
X162268200Y-102279700I-100000J0D01*
G01*
X162068200Y-102279700D01*
G75*
G02*
X161968200Y-102179700I0J100000D01*
G01*
X161968200Y-100804700D01*
G75*
G02*
X162068200Y-100704700I100000J0D01*
G01*
X162268200Y-100704700D01*
G75*
G02*
X162368200Y-100804700I0J-100000D01*
G01*
G37*
G36*
G01*
X162868200Y-100804700D02*
X162868200Y-102179700D01*
G75*
G02*
X162768200Y-102279700I-100000J0D01*
G01*
X162568200Y-102279700D01*
G75*
G02*
X162468200Y-102179700I0J100000D01*
G01*
X162468200Y-100804700D01*
G75*
G02*
X162568200Y-100704700I100000J0D01*
G01*
X162768200Y-100704700D01*
G75*
G02*
X162868200Y-100804700I0J-100000D01*
G01*
G37*
G36*
G01*
X163368200Y-100804700D02*
X163368200Y-102179700D01*
G75*
G02*
X163268200Y-102279700I-100000J0D01*
G01*
X163068200Y-102279700D01*
G75*
G02*
X162968200Y-102179700I0J100000D01*
G01*
X162968200Y-100804700D01*
G75*
G02*
X163068200Y-100704700I100000J0D01*
G01*
X163268200Y-100704700D01*
G75*
G02*
X163368200Y-100804700I0J-100000D01*
G01*
G37*
G36*
G01*
X163868200Y-100804700D02*
X163868200Y-102179700D01*
G75*
G02*
X163768200Y-102279700I-100000J0D01*
G01*
X163568200Y-102279700D01*
G75*
G02*
X163468200Y-102179700I0J100000D01*
G01*
X163468200Y-100804700D01*
G75*
G02*
X163568200Y-100704700I100000J0D01*
G01*
X163768200Y-100704700D01*
G75*
G02*
X163868200Y-100804700I0J-100000D01*
G01*
G37*
G36*
G01*
X164368200Y-100804700D02*
X164368200Y-102179700D01*
G75*
G02*
X164268200Y-102279700I-100000J0D01*
G01*
X164068200Y-102279700D01*
G75*
G02*
X163968200Y-102179700I0J100000D01*
G01*
X163968200Y-100804700D01*
G75*
G02*
X164068200Y-100704700I100000J0D01*
G01*
X164268200Y-100704700D01*
G75*
G02*
X164368200Y-100804700I0J-100000D01*
G01*
G37*
G36*
G01*
X164868200Y-100804700D02*
X164868200Y-102179700D01*
G75*
G02*
X164768200Y-102279700I-100000J0D01*
G01*
X164568200Y-102279700D01*
G75*
G02*
X164468200Y-102179700I0J100000D01*
G01*
X164468200Y-100804700D01*
G75*
G02*
X164568200Y-100704700I100000J0D01*
G01*
X164768200Y-100704700D01*
G75*
G02*
X164868200Y-100804700I0J-100000D01*
G01*
G37*
G36*
G01*
X165368200Y-100804700D02*
X165368200Y-102179700D01*
G75*
G02*
X165268200Y-102279700I-100000J0D01*
G01*
X165068200Y-102279700D01*
G75*
G02*
X164968200Y-102179700I0J100000D01*
G01*
X164968200Y-100804700D01*
G75*
G02*
X165068200Y-100704700I100000J0D01*
G01*
X165268200Y-100704700D01*
G75*
G02*
X165368200Y-100804700I0J-100000D01*
G01*
G37*
G36*
G01*
X165868200Y-100804700D02*
X165868200Y-102179700D01*
G75*
G02*
X165768200Y-102279700I-100000J0D01*
G01*
X165568200Y-102279700D01*
G75*
G02*
X165468200Y-102179700I0J100000D01*
G01*
X165468200Y-100804700D01*
G75*
G02*
X165568200Y-100704700I100000J0D01*
G01*
X165768200Y-100704700D01*
G75*
G02*
X165868200Y-100804700I0J-100000D01*
G01*
G37*
G36*
G01*
X166368200Y-100804700D02*
X166368200Y-102179700D01*
G75*
G02*
X166268200Y-102279700I-100000J0D01*
G01*
X166068200Y-102279700D01*
G75*
G02*
X165968200Y-102179700I0J100000D01*
G01*
X165968200Y-100804700D01*
G75*
G02*
X166068200Y-100704700I100000J0D01*
G01*
X166268200Y-100704700D01*
G75*
G02*
X166368200Y-100804700I0J-100000D01*
G01*
G37*
G36*
G01*
X166868200Y-100804700D02*
X166868200Y-102179700D01*
G75*
G02*
X166768200Y-102279700I-100000J0D01*
G01*
X166568200Y-102279700D01*
G75*
G02*
X166468200Y-102179700I0J100000D01*
G01*
X166468200Y-100804700D01*
G75*
G02*
X166568200Y-100704700I100000J0D01*
G01*
X166768200Y-100704700D01*
G75*
G02*
X166868200Y-100804700I0J-100000D01*
G01*
G37*
G36*
G01*
X167368200Y-100804700D02*
X167368200Y-102179700D01*
G75*
G02*
X167268200Y-102279700I-100000J0D01*
G01*
X167068200Y-102279700D01*
G75*
G02*
X166968200Y-102179700I0J100000D01*
G01*
X166968200Y-100804700D01*
G75*
G02*
X167068200Y-100704700I100000J0D01*
G01*
X167268200Y-100704700D01*
G75*
G02*
X167368200Y-100804700I0J-100000D01*
G01*
G37*
%TD*%
D20*
%TO.C,Y1*%
X174227600Y-102083200D03*
X176377600Y-102083200D03*
X176377600Y-100533200D03*
X174227600Y-100533200D03*
%TD*%
D17*
%TO.C,Q3*%
X147796000Y-89657000D03*
X147796000Y-87757000D03*
X145796000Y-88707000D03*
%TD*%
%TO.C,R24*%
G36*
G01*
X150170500Y-87793000D02*
X150565500Y-87793000D01*
G75*
G02*
X150738000Y-87965500I0J-172500D01*
G01*
X150738000Y-88310500D01*
G75*
G02*
X150565500Y-88483000I-172500J0D01*
G01*
X150170500Y-88483000D01*
G75*
G02*
X149998000Y-88310500I0J172500D01*
G01*
X149998000Y-87965500D01*
G75*
G02*
X150170500Y-87793000I172500J0D01*
G01*
G37*
G36*
G01*
X150170500Y-88763000D02*
X150565500Y-88763000D01*
G75*
G02*
X150738000Y-88935500I0J-172500D01*
G01*
X150738000Y-89280500D01*
G75*
G02*
X150565500Y-89453000I-172500J0D01*
G01*
X150170500Y-89453000D01*
G75*
G02*
X149998000Y-89280500I0J172500D01*
G01*
X149998000Y-88935500D01*
G75*
G02*
X150170500Y-88763000I172500J0D01*
G01*
G37*
%TD*%
%TO.C,R25*%
G36*
G01*
X149422500Y-88483000D02*
X149027500Y-88483000D01*
G75*
G02*
X148855000Y-88310500I0J172500D01*
G01*
X148855000Y-87965500D01*
G75*
G02*
X149027500Y-87793000I172500J0D01*
G01*
X149422500Y-87793000D01*
G75*
G02*
X149595000Y-87965500I0J-172500D01*
G01*
X149595000Y-88310500D01*
G75*
G02*
X149422500Y-88483000I-172500J0D01*
G01*
G37*
G36*
G01*
X149422500Y-89453000D02*
X149027500Y-89453000D01*
G75*
G02*
X148855000Y-89280500I0J172500D01*
G01*
X148855000Y-88935500D01*
G75*
G02*
X149027500Y-88763000I172500J0D01*
G01*
X149422500Y-88763000D01*
G75*
G02*
X149595000Y-88935500I0J-172500D01*
G01*
X149595000Y-89280500D01*
G75*
G02*
X149422500Y-89453000I-172500J0D01*
G01*
G37*
%TD*%
%TO.C,C19*%
G36*
G01*
X173829400Y-93172900D02*
X173829400Y-93567900D01*
G75*
G02*
X173656900Y-93740400I-172500J0D01*
G01*
X173311900Y-93740400D01*
G75*
G02*
X173139400Y-93567900I0J172500D01*
G01*
X173139400Y-93172900D01*
G75*
G02*
X173311900Y-93000400I172500J0D01*
G01*
X173656900Y-93000400D01*
G75*
G02*
X173829400Y-93172900I0J-172500D01*
G01*
G37*
G36*
G01*
X172859400Y-93172900D02*
X172859400Y-93567900D01*
G75*
G02*
X172686900Y-93740400I-172500J0D01*
G01*
X172341900Y-93740400D01*
G75*
G02*
X172169400Y-93567900I0J172500D01*
G01*
X172169400Y-93172900D01*
G75*
G02*
X172341900Y-93000400I172500J0D01*
G01*
X172686900Y-93000400D01*
G75*
G02*
X172859400Y-93172900I0J-172500D01*
G01*
G37*
%TD*%
%TO.C,C20*%
G36*
G01*
X168518400Y-103637700D02*
X168518400Y-104032700D01*
G75*
G02*
X168345900Y-104205200I-172500J0D01*
G01*
X168000900Y-104205200D01*
G75*
G02*
X167828400Y-104032700I0J172500D01*
G01*
X167828400Y-103637700D01*
G75*
G02*
X168000900Y-103465200I172500J0D01*
G01*
X168345900Y-103465200D01*
G75*
G02*
X168518400Y-103637700I0J-172500D01*
G01*
G37*
G36*
G01*
X167548400Y-103637700D02*
X167548400Y-104032700D01*
G75*
G02*
X167375900Y-104205200I-172500J0D01*
G01*
X167030900Y-104205200D01*
G75*
G02*
X166858400Y-104032700I0J172500D01*
G01*
X166858400Y-103637700D01*
G75*
G02*
X167030900Y-103465200I172500J0D01*
G01*
X167375900Y-103465200D01*
G75*
G02*
X167548400Y-103637700I0J-172500D01*
G01*
G37*
%TD*%
M02*
