M48
;DRILL file {KiCad 4.0.1-stable} date 25/01/2016 14:41:17
;FORMAT={-:-/ absolute / inch / decimal}
FMAT,2
INCH,TZ
T1C0.012
T2C0.039
%
G90
G05
M72
T1
X6.0875Y-3.9275
X6.109Y-4.0685
X6.127Y-3.462
X6.163Y-3.454
X6.175Y-3.6675
X6.178Y-3.427
X6.178Y-4.095
X6.1825Y-3.82
X6.212Y-3.968
X6.212Y-4.102
X6.2225Y-3.825
X6.287Y-4.103
X6.297Y-3.992
X6.299Y-3.907
X6.314Y-3.651
X6.335Y-3.611
X6.35Y-3.695
X6.35Y-3.7475
X6.3505Y-3.9645
X6.365Y-4.098
X6.388Y-3.767
X6.3925Y-3.595
X6.4175Y-3.845
X6.444Y-4.101
X6.4815Y-3.673
X6.51Y-3.788
X6.519Y-3.496
X6.537Y-3.93
X6.552Y-4.1
X6.5735Y-3.998
X6.586Y-3.447
X6.6015Y-3.967
X6.606Y-3.505
X6.623Y-4.068
X6.66Y-3.603
X6.6745Y-3.396
X6.687Y-3.617
X6.705Y-4.098
X6.717Y-3.604
X6.771Y-3.608
X6.777Y-3.426
X6.778Y-3.657
X6.792Y-3.715
X6.7995Y-3.8285
X6.827Y-3.9325
X6.843Y-3.679
X6.873Y-3.863
X6.8855Y-3.4255
X6.929Y-3.472
X6.933Y-3.395
X6.944Y-3.6105
X6.9845Y-3.4775
X7.047Y-3.768
X7.051Y-3.806
X7.092Y-3.702
X7.105Y-3.613
X7.128Y-3.501
X7.197Y-3.394
T2
X5.9537Y-3.6986
X5.9537Y-3.8362
T2
X5.9832Y-3.5116G85X5.9242Y-3.5116
G05
X5.9832Y-3.984G85X5.9242Y-3.984
G05
T0
M30
