G04 #@! TF.FileFunction,Legend,Top*
%FSLAX46Y46*%
G04 Gerber Fmt 4.6, Leading zero omitted, Abs format (unit mm)*
G04 Created by KiCad (PCBNEW 4.0.1-stable) date 25/01/2016 20:17:01*
%MOMM*%
G01*
G04 APERTURE LIST*
%ADD10C,0.150000*%
%ADD11C,0.200000*%
G04 APERTURE END LIST*
D10*
D11*
X181613286Y-104428857D02*
X181613286Y-103228857D01*
X181899001Y-103228857D01*
X182070429Y-103286000D01*
X182184715Y-103400286D01*
X182241858Y-103514571D01*
X182299001Y-103743143D01*
X182299001Y-103914571D01*
X182241858Y-104143143D01*
X182184715Y-104257429D01*
X182070429Y-104371714D01*
X181899001Y-104428857D01*
X181613286Y-104428857D01*
X183041858Y-103228857D02*
X183156143Y-103228857D01*
X183270429Y-103286000D01*
X183327572Y-103343143D01*
X183384715Y-103457429D01*
X183441858Y-103686000D01*
X183441858Y-103971714D01*
X183384715Y-104200286D01*
X183327572Y-104314571D01*
X183270429Y-104371714D01*
X183156143Y-104428857D01*
X183041858Y-104428857D01*
X182927572Y-104371714D01*
X182870429Y-104314571D01*
X182813286Y-104200286D01*
X182756143Y-103971714D01*
X182756143Y-103686000D01*
X182813286Y-103457429D01*
X182870429Y-103343143D01*
X182927572Y-103286000D01*
X183041858Y-103228857D01*
X181613286Y-102015857D02*
X181613286Y-100815857D01*
X181899001Y-100815857D01*
X182070429Y-100873000D01*
X182184715Y-100987286D01*
X182241858Y-101101571D01*
X182299001Y-101330143D01*
X182299001Y-101501571D01*
X182241858Y-101730143D01*
X182184715Y-101844429D01*
X182070429Y-101958714D01*
X181899001Y-102015857D01*
X181613286Y-102015857D01*
X183441858Y-102015857D02*
X182756143Y-102015857D01*
X183099001Y-102015857D02*
X183099001Y-100815857D01*
X182984715Y-100987286D01*
X182870429Y-101101571D01*
X182756143Y-101158714D01*
X181613286Y-99475857D02*
X181613286Y-98275857D01*
X181899001Y-98275857D01*
X182070429Y-98333000D01*
X182184715Y-98447286D01*
X182241858Y-98561571D01*
X182299001Y-98790143D01*
X182299001Y-98961571D01*
X182241858Y-99190143D01*
X182184715Y-99304429D01*
X182070429Y-99418714D01*
X181899001Y-99475857D01*
X181613286Y-99475857D01*
X182756143Y-98390143D02*
X182813286Y-98333000D01*
X182927572Y-98275857D01*
X183213286Y-98275857D01*
X183327572Y-98333000D01*
X183384715Y-98390143D01*
X183441858Y-98504429D01*
X183441858Y-98618714D01*
X183384715Y-98790143D01*
X182699001Y-99475857D01*
X183441858Y-99475857D01*
X181613286Y-96935857D02*
X181613286Y-95735857D01*
X181899001Y-95735857D01*
X182070429Y-95793000D01*
X182184715Y-95907286D01*
X182241858Y-96021571D01*
X182299001Y-96250143D01*
X182299001Y-96421571D01*
X182241858Y-96650143D01*
X182184715Y-96764429D01*
X182070429Y-96878714D01*
X181899001Y-96935857D01*
X181613286Y-96935857D01*
X182699001Y-95735857D02*
X183441858Y-95735857D01*
X183041858Y-96193000D01*
X183213286Y-96193000D01*
X183327572Y-96250143D01*
X183384715Y-96307286D01*
X183441858Y-96421571D01*
X183441858Y-96707286D01*
X183384715Y-96821571D01*
X183327572Y-96878714D01*
X183213286Y-96935857D01*
X182870429Y-96935857D01*
X182756143Y-96878714D01*
X182699001Y-96821571D01*
X181613286Y-94395857D02*
X181613286Y-93195857D01*
X181899001Y-93195857D01*
X182070429Y-93253000D01*
X182184715Y-93367286D01*
X182241858Y-93481571D01*
X182299001Y-93710143D01*
X182299001Y-93881571D01*
X182241858Y-94110143D01*
X182184715Y-94224429D01*
X182070429Y-94338714D01*
X181899001Y-94395857D01*
X181613286Y-94395857D01*
X183327572Y-93595857D02*
X183327572Y-94395857D01*
X183041858Y-93138714D02*
X182756143Y-93995857D01*
X183499001Y-93995857D01*
X181613286Y-91982857D02*
X181613286Y-90782857D01*
X181899001Y-90782857D01*
X182070429Y-90840000D01*
X182184715Y-90954286D01*
X182241858Y-91068571D01*
X182299001Y-91297143D01*
X182299001Y-91468571D01*
X182241858Y-91697143D01*
X182184715Y-91811429D01*
X182070429Y-91925714D01*
X181899001Y-91982857D01*
X181613286Y-91982857D01*
X183384715Y-90782857D02*
X182813286Y-90782857D01*
X182756143Y-91354286D01*
X182813286Y-91297143D01*
X182927572Y-91240000D01*
X183213286Y-91240000D01*
X183327572Y-91297143D01*
X183384715Y-91354286D01*
X183441858Y-91468571D01*
X183441858Y-91754286D01*
X183384715Y-91868571D01*
X183327572Y-91925714D01*
X183213286Y-91982857D01*
X182927572Y-91982857D01*
X182813286Y-91925714D01*
X182756143Y-91868571D01*
X181613286Y-89442857D02*
X181613286Y-88242857D01*
X181899001Y-88242857D01*
X182070429Y-88300000D01*
X182184715Y-88414286D01*
X182241858Y-88528571D01*
X182299001Y-88757143D01*
X182299001Y-88928571D01*
X182241858Y-89157143D01*
X182184715Y-89271429D01*
X182070429Y-89385714D01*
X181899001Y-89442857D01*
X181613286Y-89442857D01*
X183327572Y-88242857D02*
X183099001Y-88242857D01*
X182984715Y-88300000D01*
X182927572Y-88357143D01*
X182813286Y-88528571D01*
X182756143Y-88757143D01*
X182756143Y-89214286D01*
X182813286Y-89328571D01*
X182870429Y-89385714D01*
X182984715Y-89442857D01*
X183213286Y-89442857D01*
X183327572Y-89385714D01*
X183384715Y-89328571D01*
X183441858Y-89214286D01*
X183441858Y-88928571D01*
X183384715Y-88814286D01*
X183327572Y-88757143D01*
X183213286Y-88700000D01*
X182984715Y-88700000D01*
X182870429Y-88757143D01*
X182813286Y-88814286D01*
X182756143Y-88928571D01*
X181587886Y-87131457D02*
X181587886Y-85931457D01*
X181873601Y-85931457D01*
X182045029Y-85988600D01*
X182159315Y-86102886D01*
X182216458Y-86217171D01*
X182273601Y-86445743D01*
X182273601Y-86617171D01*
X182216458Y-86845743D01*
X182159315Y-86960029D01*
X182045029Y-87074314D01*
X181873601Y-87131457D01*
X181587886Y-87131457D01*
X182673601Y-85931457D02*
X183473601Y-85931457D01*
X182959315Y-87131457D01*
D10*
X155069120Y-102743860D02*
X140972120Y-102743860D01*
X140972120Y-87757860D02*
X155069120Y-87757860D01*
X155069120Y-102743860D02*
X155069120Y-87757860D01*
X140972120Y-102743860D02*
X140972120Y-87757860D01*
X161286000Y-97315000D02*
X160786000Y-97315000D01*
X160786000Y-98265000D02*
X161286000Y-98265000D01*
X172689500Y-87062500D02*
X172689500Y-87562500D01*
X173639500Y-87562500D02*
X173639500Y-87062500D01*
X174086500Y-87062500D02*
X174086500Y-87562500D01*
X175036500Y-87562500D02*
X175036500Y-87062500D01*
X164397500Y-92298500D02*
X163897500Y-92298500D01*
X163897500Y-93248500D02*
X164397500Y-93248500D01*
X163580000Y-97376000D02*
X164080000Y-97376000D01*
X164080000Y-96426000D02*
X163580000Y-96426000D01*
X176944000Y-91571000D02*
X176944000Y-92071000D01*
X177894000Y-92071000D02*
X177894000Y-91571000D01*
X168562000Y-87062500D02*
X168562000Y-87562500D01*
X169512000Y-87562500D02*
X169512000Y-87062500D01*
X165477000Y-103601500D02*
X164977000Y-103601500D01*
X164977000Y-104551500D02*
X165477000Y-104551500D01*
X155798500Y-103191500D02*
X155798500Y-103691500D01*
X156748500Y-103691500D02*
X156748500Y-103191500D01*
X164930000Y-98700500D02*
X163030000Y-98700500D01*
X164930000Y-99800500D02*
X163030000Y-99800500D01*
X164030000Y-99250500D02*
X163580000Y-99250500D01*
X164080000Y-99500500D02*
X164080000Y-99000500D01*
X164080000Y-99250500D02*
X163830000Y-99500500D01*
X163830000Y-99500500D02*
X163830000Y-99000500D01*
X163830000Y-99000500D02*
X164080000Y-99250500D01*
X177208000Y-94085500D02*
X179108000Y-94085500D01*
X177208000Y-92985500D02*
X179108000Y-92985500D01*
X178108000Y-93535500D02*
X178558000Y-93535500D01*
X178058000Y-93285500D02*
X178058000Y-93785500D01*
X178058000Y-93535500D02*
X178308000Y-93285500D01*
X178308000Y-93285500D02*
X178308000Y-93785500D01*
X178308000Y-93785500D02*
X178058000Y-93535500D01*
X160239660Y-101140260D02*
X160191400Y-101140260D01*
X157440680Y-101841300D02*
X157440680Y-101140260D01*
X157440680Y-101140260D02*
X157689600Y-101140260D01*
X160239660Y-101140260D02*
X160440320Y-101140260D01*
X160440320Y-101140260D02*
X160440320Y-101841300D01*
X164113160Y-101140260D02*
X164064900Y-101140260D01*
X161314180Y-101841300D02*
X161314180Y-101140260D01*
X161314180Y-101140260D02*
X161563100Y-101140260D01*
X164113160Y-101140260D02*
X164313820Y-101140260D01*
X164313820Y-101140260D02*
X164313820Y-101841300D01*
X161286000Y-98725500D02*
X160786000Y-98725500D01*
X160786000Y-99775500D02*
X161286000Y-99775500D01*
X178858400Y-92274200D02*
X178858400Y-91774200D01*
X177808400Y-91774200D02*
X177808400Y-92274200D01*
X165718000Y-87189500D02*
X165718000Y-87689500D01*
X166768000Y-87689500D02*
X166768000Y-87189500D01*
X156989000Y-89721500D02*
X156989000Y-89221500D01*
X155939000Y-89221500D02*
X155939000Y-89721500D01*
X177613500Y-95584500D02*
X178113500Y-95584500D01*
X178113500Y-94534500D02*
X177613500Y-94534500D01*
X159127000Y-103551500D02*
X158627000Y-103551500D01*
X158627000Y-104601500D02*
X159127000Y-104601500D01*
X155812000Y-100943600D02*
X155812000Y-101443600D01*
X156862000Y-101443600D02*
X156862000Y-100943600D01*
X175497000Y-87062500D02*
X175497000Y-87562500D01*
X176547000Y-87562500D02*
X176547000Y-87062500D01*
X177944000Y-87562500D02*
X177944000Y-87062500D01*
X176894000Y-87062500D02*
X176894000Y-87562500D01*
X179823600Y-92274200D02*
X179823600Y-91774200D01*
X178773600Y-91774200D02*
X178773600Y-92274200D01*
X177613500Y-96981500D02*
X178113500Y-96981500D01*
X178113500Y-95931500D02*
X177613500Y-95931500D01*
X165807200Y-100490800D02*
X165307200Y-100490800D01*
X165307200Y-101540800D02*
X165807200Y-101540800D01*
X162500500Y-104551500D02*
X163000500Y-104551500D01*
X163000500Y-103601500D02*
X162500500Y-103601500D01*
X172306000Y-87562500D02*
X172306000Y-87062500D01*
X171356000Y-87062500D02*
X171356000Y-87562500D01*
X165807200Y-101811600D02*
X165307200Y-101811600D01*
X165307200Y-102861600D02*
X165807200Y-102861600D01*
X159215000Y-85880500D02*
X159215000Y-86025500D01*
X163365000Y-85880500D02*
X163365000Y-86025500D01*
X163365000Y-91030500D02*
X163365000Y-90885500D01*
X159215000Y-91030500D02*
X159215000Y-90885500D01*
X159215000Y-85880500D02*
X163365000Y-85880500D01*
X159215000Y-91030500D02*
X163365000Y-91030500D01*
X159215000Y-86025500D02*
X157815000Y-86025500D01*
X169629000Y-102189000D02*
X169329000Y-102189000D01*
X169329000Y-102189000D02*
X169329000Y-101889000D01*
X167429000Y-103089000D02*
X169629000Y-103089000D01*
X169629000Y-103089000D02*
X169629000Y-101889000D01*
X169629000Y-101889000D02*
X167429000Y-101889000D01*
X167429000Y-101889000D02*
X167429000Y-103089000D01*
X157750000Y-94396000D02*
X159750000Y-94396000D01*
X159750000Y-94396000D02*
X159750000Y-95596000D01*
X159750000Y-95596000D02*
X157750000Y-95596000D01*
X157750000Y-95596000D02*
X157750000Y-94396000D01*
X157750000Y-94396000D02*
X157950000Y-94396000D01*
X161921000Y-92298500D02*
X161421000Y-92298500D01*
X161421000Y-93248500D02*
X161921000Y-93248500D01*
X164080000Y-95156000D02*
X163580000Y-95156000D01*
X163580000Y-96106000D02*
X164080000Y-96106000D01*
X170909000Y-87562500D02*
X170909000Y-87062500D01*
X169959000Y-87062500D02*
X169959000Y-87562500D01*
X185009000Y-84708400D02*
X185009000Y-86258400D01*
X186309000Y-84708400D02*
X185009000Y-84708400D01*
X190500000Y-86131400D02*
X196342000Y-86131400D01*
X196342000Y-86131400D02*
X196342000Y-86385400D01*
X196342000Y-86385400D02*
X190500000Y-86385400D01*
X190500000Y-86385400D02*
X190500000Y-86258400D01*
X190500000Y-86258400D02*
X196342000Y-86258400D01*
X187833000Y-103784400D02*
X187452000Y-103784400D01*
X187833000Y-104292400D02*
X187452000Y-104292400D01*
X187833000Y-86004400D02*
X187452000Y-86004400D01*
X187833000Y-86512400D02*
X187452000Y-86512400D01*
X187833000Y-88544400D02*
X187452000Y-88544400D01*
X187833000Y-89052400D02*
X187452000Y-89052400D01*
X187833000Y-91084400D02*
X187452000Y-91084400D01*
X187833000Y-91592400D02*
X187452000Y-91592400D01*
X187833000Y-101752400D02*
X187452000Y-101752400D01*
X187833000Y-101244400D02*
X187452000Y-101244400D01*
X187833000Y-99212400D02*
X187452000Y-99212400D01*
X187833000Y-98704400D02*
X187452000Y-98704400D01*
X187833000Y-96672400D02*
X187452000Y-96672400D01*
X187833000Y-96164400D02*
X187452000Y-96164400D01*
X187833000Y-94132400D02*
X187452000Y-94132400D01*
X187833000Y-93624400D02*
X187452000Y-93624400D01*
X187833000Y-100228400D02*
X190373000Y-100228400D01*
X187833000Y-100228400D02*
X187833000Y-102768400D01*
X187833000Y-102768400D02*
X190373000Y-102768400D01*
X190373000Y-101244400D02*
X196469000Y-101244400D01*
X196469000Y-101244400D02*
X196469000Y-101752400D01*
X196469000Y-101752400D02*
X190373000Y-101752400D01*
X190373000Y-102768400D02*
X190373000Y-100228400D01*
X190373000Y-105308400D02*
X190373000Y-102768400D01*
X196469000Y-104292400D02*
X190373000Y-104292400D01*
X196469000Y-103784400D02*
X196469000Y-104292400D01*
X190373000Y-103784400D02*
X196469000Y-103784400D01*
X187833000Y-102768400D02*
X187833000Y-105308400D01*
X187833000Y-102768400D02*
X190373000Y-102768400D01*
X187833000Y-105308400D02*
X190373000Y-105308400D01*
X187833000Y-84988400D02*
X190373000Y-84988400D01*
X187833000Y-87528400D02*
X190373000Y-87528400D01*
X187833000Y-87528400D02*
X187833000Y-90068400D01*
X187833000Y-90068400D02*
X190373000Y-90068400D01*
X190373000Y-88544400D02*
X196469000Y-88544400D01*
X196469000Y-88544400D02*
X196469000Y-89052400D01*
X196469000Y-89052400D02*
X190373000Y-89052400D01*
X190373000Y-90068400D02*
X190373000Y-87528400D01*
X190373000Y-87528400D02*
X190373000Y-84988400D01*
X196469000Y-86512400D02*
X190373000Y-86512400D01*
X196469000Y-86004400D02*
X196469000Y-86512400D01*
X190373000Y-86004400D02*
X196469000Y-86004400D01*
X187833000Y-87528400D02*
X190373000Y-87528400D01*
X187833000Y-84988400D02*
X187833000Y-87528400D01*
X187833000Y-95148400D02*
X190373000Y-95148400D01*
X187833000Y-95148400D02*
X187833000Y-97688400D01*
X187833000Y-97688400D02*
X190373000Y-97688400D01*
X190373000Y-96164400D02*
X196469000Y-96164400D01*
X196469000Y-96164400D02*
X196469000Y-96672400D01*
X196469000Y-96672400D02*
X190373000Y-96672400D01*
X190373000Y-97688400D02*
X190373000Y-95148400D01*
X190373000Y-100228400D02*
X190373000Y-97688400D01*
X196469000Y-99212400D02*
X190373000Y-99212400D01*
X196469000Y-98704400D02*
X196469000Y-99212400D01*
X190373000Y-98704400D02*
X196469000Y-98704400D01*
X187833000Y-100228400D02*
X190373000Y-100228400D01*
X187833000Y-97688400D02*
X187833000Y-100228400D01*
X187833000Y-97688400D02*
X190373000Y-97688400D01*
X187833000Y-92608400D02*
X190373000Y-92608400D01*
X187833000Y-92608400D02*
X187833000Y-95148400D01*
X187833000Y-95148400D02*
X190373000Y-95148400D01*
X190373000Y-93624400D02*
X196469000Y-93624400D01*
X196469000Y-93624400D02*
X196469000Y-94132400D01*
X196469000Y-94132400D02*
X190373000Y-94132400D01*
X190373000Y-95148400D02*
X190373000Y-92608400D01*
X190373000Y-92608400D02*
X190373000Y-90068400D01*
X196469000Y-91592400D02*
X190373000Y-91592400D01*
X196469000Y-91084400D02*
X196469000Y-91592400D01*
X190373000Y-91084400D02*
X196469000Y-91084400D01*
X187833000Y-92608400D02*
X190373000Y-92608400D01*
X187833000Y-90068400D02*
X187833000Y-92608400D01*
X187833000Y-90068400D02*
X190373000Y-90068400D01*
X167113800Y-90609000D02*
X167113800Y-91134000D01*
X174363800Y-90609000D02*
X174363800Y-91134000D01*
X174363800Y-97859000D02*
X174363800Y-97334000D01*
X167113800Y-97859000D02*
X167113800Y-97334000D01*
X167113800Y-90609000D02*
X167638800Y-90609000D01*
X167113800Y-97859000D02*
X167638800Y-97859000D01*
X174363800Y-97859000D02*
X173838800Y-97859000D01*
X174363800Y-90609000D02*
X173838800Y-90609000D01*
X167113800Y-91134000D02*
X165738800Y-91134000D01*
X151199924Y-87788705D02*
X151199924Y-86988705D01*
X151504686Y-86988705D01*
X151580877Y-87026800D01*
X151618972Y-87064895D01*
X151657067Y-87141086D01*
X151657067Y-87255371D01*
X151618972Y-87331562D01*
X151580877Y-87369657D01*
X151504686Y-87407752D01*
X151199924Y-87407752D01*
X152418972Y-87788705D02*
X151961829Y-87788705D01*
X152190400Y-87788705D02*
X152190400Y-86988705D01*
X152114210Y-87102990D01*
X152038019Y-87179181D01*
X151961829Y-87217276D01*
X161029667Y-96780314D02*
X160991572Y-96818410D01*
X160877286Y-96856505D01*
X160801096Y-96856505D01*
X160686810Y-96818410D01*
X160610619Y-96742219D01*
X160572524Y-96666029D01*
X160534429Y-96513648D01*
X160534429Y-96399362D01*
X160572524Y-96246981D01*
X160610619Y-96170790D01*
X160686810Y-96094600D01*
X160801096Y-96056505D01*
X160877286Y-96056505D01*
X160991572Y-96094600D01*
X161029667Y-96132695D01*
X161296334Y-96056505D02*
X161791572Y-96056505D01*
X161524905Y-96361267D01*
X161639191Y-96361267D01*
X161715381Y-96399362D01*
X161753477Y-96437457D01*
X161791572Y-96513648D01*
X161791572Y-96704124D01*
X161753477Y-96780314D01*
X161715381Y-96818410D01*
X161639191Y-96856505D01*
X161410619Y-96856505D01*
X161334429Y-96818410D01*
X161296334Y-96780314D01*
X173272467Y-86010714D02*
X173234372Y-86048810D01*
X173120086Y-86086905D01*
X173043896Y-86086905D01*
X172929610Y-86048810D01*
X172853419Y-85972619D01*
X172815324Y-85896429D01*
X172777229Y-85744048D01*
X172777229Y-85629762D01*
X172815324Y-85477381D01*
X172853419Y-85401190D01*
X172929610Y-85325000D01*
X173043896Y-85286905D01*
X173120086Y-85286905D01*
X173234372Y-85325000D01*
X173272467Y-85363095D01*
X173958181Y-85553571D02*
X173958181Y-86086905D01*
X173767705Y-85248810D02*
X173577229Y-85820238D01*
X174072467Y-85820238D01*
X174885314Y-89236533D02*
X174923410Y-89274628D01*
X174961505Y-89388914D01*
X174961505Y-89465104D01*
X174923410Y-89579390D01*
X174847219Y-89655581D01*
X174771029Y-89693676D01*
X174618648Y-89731771D01*
X174504362Y-89731771D01*
X174351981Y-89693676D01*
X174275790Y-89655581D01*
X174199600Y-89579390D01*
X174161505Y-89465104D01*
X174161505Y-89388914D01*
X174199600Y-89274628D01*
X174237695Y-89236533D01*
X174161505Y-88512723D02*
X174161505Y-88893676D01*
X174542457Y-88931771D01*
X174504362Y-88893676D01*
X174466267Y-88817485D01*
X174466267Y-88627009D01*
X174504362Y-88550819D01*
X174542457Y-88512723D01*
X174618648Y-88474628D01*
X174809124Y-88474628D01*
X174885314Y-88512723D01*
X174923410Y-88550819D01*
X174961505Y-88627009D01*
X174961505Y-88817485D01*
X174923410Y-88893676D01*
X174885314Y-88931771D01*
X163874467Y-94011714D02*
X163836372Y-94049810D01*
X163722086Y-94087905D01*
X163645896Y-94087905D01*
X163531610Y-94049810D01*
X163455419Y-93973619D01*
X163417324Y-93897429D01*
X163379229Y-93745048D01*
X163379229Y-93630762D01*
X163417324Y-93478381D01*
X163455419Y-93402190D01*
X163531610Y-93326000D01*
X163645896Y-93287905D01*
X163722086Y-93287905D01*
X163836372Y-93326000D01*
X163874467Y-93364095D01*
X164560181Y-93287905D02*
X164407800Y-93287905D01*
X164331610Y-93326000D01*
X164293515Y-93364095D01*
X164217324Y-93478381D01*
X164179229Y-93630762D01*
X164179229Y-93935524D01*
X164217324Y-94011714D01*
X164255419Y-94049810D01*
X164331610Y-94087905D01*
X164483991Y-94087905D01*
X164560181Y-94049810D01*
X164598277Y-94011714D01*
X164636372Y-93935524D01*
X164636372Y-93745048D01*
X164598277Y-93668857D01*
X164560181Y-93630762D01*
X164483991Y-93592667D01*
X164331610Y-93592667D01*
X164255419Y-93630762D01*
X164217324Y-93668857D01*
X164179229Y-93745048D01*
X163595067Y-98304314D02*
X163556972Y-98342410D01*
X163442686Y-98380505D01*
X163366496Y-98380505D01*
X163252210Y-98342410D01*
X163176019Y-98266219D01*
X163137924Y-98190029D01*
X163099829Y-98037648D01*
X163099829Y-97923362D01*
X163137924Y-97770981D01*
X163176019Y-97694790D01*
X163252210Y-97618600D01*
X163366496Y-97580505D01*
X163442686Y-97580505D01*
X163556972Y-97618600D01*
X163595067Y-97656695D01*
X163861734Y-97580505D02*
X164395067Y-97580505D01*
X164052210Y-98380505D01*
X178847714Y-90252533D02*
X178885810Y-90290628D01*
X178923905Y-90404914D01*
X178923905Y-90481104D01*
X178885810Y-90595390D01*
X178809619Y-90671581D01*
X178733429Y-90709676D01*
X178581048Y-90747771D01*
X178466762Y-90747771D01*
X178314381Y-90709676D01*
X178238190Y-90671581D01*
X178162000Y-90595390D01*
X178123905Y-90481104D01*
X178123905Y-90404914D01*
X178162000Y-90290628D01*
X178200095Y-90252533D01*
X178466762Y-89795390D02*
X178428667Y-89871581D01*
X178390571Y-89909676D01*
X178314381Y-89947771D01*
X178276286Y-89947771D01*
X178200095Y-89909676D01*
X178162000Y-89871581D01*
X178123905Y-89795390D01*
X178123905Y-89643009D01*
X178162000Y-89566819D01*
X178200095Y-89528723D01*
X178276286Y-89490628D01*
X178314381Y-89490628D01*
X178390571Y-89528723D01*
X178428667Y-89566819D01*
X178466762Y-89643009D01*
X178466762Y-89795390D01*
X178504857Y-89871581D01*
X178542952Y-89909676D01*
X178619143Y-89947771D01*
X178771524Y-89947771D01*
X178847714Y-89909676D01*
X178885810Y-89871581D01*
X178923905Y-89795390D01*
X178923905Y-89643009D01*
X178885810Y-89566819D01*
X178847714Y-89528723D01*
X178771524Y-89490628D01*
X178619143Y-89490628D01*
X178542952Y-89528723D01*
X178504857Y-89566819D01*
X178466762Y-89643009D01*
X168776667Y-86061514D02*
X168738572Y-86099610D01*
X168624286Y-86137705D01*
X168548096Y-86137705D01*
X168433810Y-86099610D01*
X168357619Y-86023419D01*
X168319524Y-85947229D01*
X168281429Y-85794848D01*
X168281429Y-85680562D01*
X168319524Y-85528181D01*
X168357619Y-85451990D01*
X168433810Y-85375800D01*
X168548096Y-85337705D01*
X168624286Y-85337705D01*
X168738572Y-85375800D01*
X168776667Y-85413895D01*
X169157619Y-86137705D02*
X169310000Y-86137705D01*
X169386191Y-86099610D01*
X169424286Y-86061514D01*
X169500477Y-85947229D01*
X169538572Y-85794848D01*
X169538572Y-85490086D01*
X169500477Y-85413895D01*
X169462381Y-85375800D01*
X169386191Y-85337705D01*
X169233810Y-85337705D01*
X169157619Y-85375800D01*
X169119524Y-85413895D01*
X169081429Y-85490086D01*
X169081429Y-85680562D01*
X169119524Y-85756752D01*
X169157619Y-85794848D01*
X169233810Y-85832943D01*
X169386191Y-85832943D01*
X169462381Y-85794848D01*
X169500477Y-85756752D01*
X169538572Y-85680562D01*
X174771114Y-104349514D02*
X174733019Y-104387610D01*
X174618733Y-104425705D01*
X174542543Y-104425705D01*
X174428257Y-104387610D01*
X174352066Y-104311419D01*
X174313971Y-104235229D01*
X174275876Y-104082848D01*
X174275876Y-103968562D01*
X174313971Y-103816181D01*
X174352066Y-103739990D01*
X174428257Y-103663800D01*
X174542543Y-103625705D01*
X174618733Y-103625705D01*
X174733019Y-103663800D01*
X174771114Y-103701895D01*
X175533019Y-104425705D02*
X175075876Y-104425705D01*
X175304447Y-104425705D02*
X175304447Y-103625705D01*
X175228257Y-103739990D01*
X175152066Y-103816181D01*
X175075876Y-103854276D01*
X176028257Y-103625705D02*
X176104448Y-103625705D01*
X176180638Y-103663800D01*
X176218733Y-103701895D01*
X176256829Y-103778086D01*
X176294924Y-103930467D01*
X176294924Y-104120943D01*
X176256829Y-104273324D01*
X176218733Y-104349514D01*
X176180638Y-104387610D01*
X176104448Y-104425705D01*
X176028257Y-104425705D01*
X175952067Y-104387610D01*
X175913971Y-104349514D01*
X175875876Y-104273324D01*
X175837781Y-104120943D01*
X175837781Y-103930467D01*
X175875876Y-103778086D01*
X175913971Y-103701895D01*
X175952067Y-103663800D01*
X176028257Y-103625705D01*
X154859214Y-103955786D02*
X154897310Y-103993881D01*
X154935405Y-104108167D01*
X154935405Y-104184357D01*
X154897310Y-104298643D01*
X154821119Y-104374834D01*
X154744929Y-104412929D01*
X154592548Y-104451024D01*
X154478262Y-104451024D01*
X154325881Y-104412929D01*
X154249690Y-104374834D01*
X154173500Y-104298643D01*
X154135405Y-104184357D01*
X154135405Y-104108167D01*
X154173500Y-103993881D01*
X154211595Y-103955786D01*
X154935405Y-103193881D02*
X154935405Y-103651024D01*
X154935405Y-103422453D02*
X154135405Y-103422453D01*
X154249690Y-103498643D01*
X154325881Y-103574834D01*
X154363976Y-103651024D01*
X154935405Y-102431976D02*
X154935405Y-102889119D01*
X154935405Y-102660548D02*
X154135405Y-102660548D01*
X154249690Y-102736738D01*
X154325881Y-102812929D01*
X154363976Y-102889119D01*
X165398524Y-98583705D02*
X165398524Y-97783705D01*
X165589000Y-97783705D01*
X165703286Y-97821800D01*
X165779477Y-97897990D01*
X165817572Y-97974181D01*
X165855667Y-98126562D01*
X165855667Y-98240848D01*
X165817572Y-98393229D01*
X165779477Y-98469419D01*
X165703286Y-98545610D01*
X165589000Y-98583705D01*
X165398524Y-98583705D01*
X166617572Y-98583705D02*
X166160429Y-98583705D01*
X166389000Y-98583705D02*
X166389000Y-97783705D01*
X166312810Y-97897990D01*
X166236619Y-97974181D01*
X166160429Y-98012276D01*
X179800324Y-94164105D02*
X179800324Y-93364105D01*
X179990800Y-93364105D01*
X180105086Y-93402200D01*
X180181277Y-93478390D01*
X180219372Y-93554581D01*
X180257467Y-93706962D01*
X180257467Y-93821248D01*
X180219372Y-93973629D01*
X180181277Y-94049819D01*
X180105086Y-94126010D01*
X179990800Y-94164105D01*
X179800324Y-94164105D01*
X180562229Y-93440295D02*
X180600324Y-93402200D01*
X180676515Y-93364105D01*
X180866991Y-93364105D01*
X180943181Y-93402200D01*
X180981277Y-93440295D01*
X181019372Y-93516486D01*
X181019372Y-93592676D01*
X180981277Y-93706962D01*
X180524134Y-94164105D01*
X181019372Y-94164105D01*
X170230810Y-102673095D02*
X170154619Y-102635000D01*
X170078429Y-102558810D01*
X169964143Y-102444524D01*
X169887952Y-102406429D01*
X169811762Y-102406429D01*
X169849857Y-102596905D02*
X169773667Y-102558810D01*
X169697476Y-102482619D01*
X169659381Y-102330238D01*
X169659381Y-102063571D01*
X169697476Y-101911190D01*
X169773667Y-101835000D01*
X169849857Y-101796905D01*
X170002238Y-101796905D01*
X170078429Y-101835000D01*
X170154619Y-101911190D01*
X170192714Y-102063571D01*
X170192714Y-102330238D01*
X170154619Y-102482619D01*
X170078429Y-102558810D01*
X170002238Y-102596905D01*
X169849857Y-102596905D01*
X170497476Y-101873095D02*
X170535571Y-101835000D01*
X170611762Y-101796905D01*
X170802238Y-101796905D01*
X170878428Y-101835000D01*
X170916524Y-101873095D01*
X170954619Y-101949286D01*
X170954619Y-102025476D01*
X170916524Y-102139762D01*
X170459381Y-102596905D01*
X170954619Y-102596905D01*
X172643810Y-102698495D02*
X172567619Y-102660400D01*
X172491429Y-102584210D01*
X172377143Y-102469924D01*
X172300952Y-102431829D01*
X172224762Y-102431829D01*
X172262857Y-102622305D02*
X172186667Y-102584210D01*
X172110476Y-102508019D01*
X172072381Y-102355638D01*
X172072381Y-102088971D01*
X172110476Y-101936590D01*
X172186667Y-101860400D01*
X172262857Y-101822305D01*
X172415238Y-101822305D01*
X172491429Y-101860400D01*
X172567619Y-101936590D01*
X172605714Y-102088971D01*
X172605714Y-102355638D01*
X172567619Y-102508019D01*
X172491429Y-102584210D01*
X172415238Y-102622305D01*
X172262857Y-102622305D01*
X172872381Y-101822305D02*
X173367619Y-101822305D01*
X173100952Y-102127067D01*
X173215238Y-102127067D01*
X173291428Y-102165162D01*
X173329524Y-102203257D01*
X173367619Y-102279448D01*
X173367619Y-102469924D01*
X173329524Y-102546114D01*
X173291428Y-102584210D01*
X173215238Y-102622305D01*
X172986666Y-102622305D01*
X172910476Y-102584210D01*
X172872381Y-102546114D01*
X160928067Y-100793505D02*
X160661400Y-100412552D01*
X160470924Y-100793505D02*
X160470924Y-99993505D01*
X160775686Y-99993505D01*
X160851877Y-100031600D01*
X160889972Y-100069695D01*
X160928067Y-100145886D01*
X160928067Y-100260171D01*
X160889972Y-100336362D01*
X160851877Y-100374457D01*
X160775686Y-100412552D01*
X160470924Y-100412552D01*
X161689972Y-100793505D02*
X161232829Y-100793505D01*
X161461400Y-100793505D02*
X161461400Y-99993505D01*
X161385210Y-100107790D01*
X161309019Y-100183981D01*
X161232829Y-100222076D01*
X177831705Y-90125533D02*
X177450752Y-90392200D01*
X177831705Y-90582676D02*
X177031705Y-90582676D01*
X177031705Y-90277914D01*
X177069800Y-90201723D01*
X177107895Y-90163628D01*
X177184086Y-90125533D01*
X177298371Y-90125533D01*
X177374562Y-90163628D01*
X177412657Y-90201723D01*
X177450752Y-90277914D01*
X177450752Y-90582676D01*
X177031705Y-89858866D02*
X177031705Y-89363628D01*
X177336467Y-89630295D01*
X177336467Y-89516009D01*
X177374562Y-89439819D01*
X177412657Y-89401723D01*
X177488848Y-89363628D01*
X177679324Y-89363628D01*
X177755514Y-89401723D01*
X177793610Y-89439819D01*
X177831705Y-89516009D01*
X177831705Y-89744581D01*
X177793610Y-89820771D01*
X177755514Y-89858866D01*
X166681105Y-85985333D02*
X166300152Y-86252000D01*
X166681105Y-86442476D02*
X165881105Y-86442476D01*
X165881105Y-86137714D01*
X165919200Y-86061523D01*
X165957295Y-86023428D01*
X166033486Y-85985333D01*
X166147771Y-85985333D01*
X166223962Y-86023428D01*
X166262057Y-86061523D01*
X166300152Y-86137714D01*
X166300152Y-86442476D01*
X166147771Y-85299619D02*
X166681105Y-85299619D01*
X165843010Y-85490095D02*
X166414438Y-85680571D01*
X166414438Y-85185333D01*
X155784505Y-89541333D02*
X155403552Y-89808000D01*
X155784505Y-89998476D02*
X154984505Y-89998476D01*
X154984505Y-89693714D01*
X155022600Y-89617523D01*
X155060695Y-89579428D01*
X155136886Y-89541333D01*
X155251171Y-89541333D01*
X155327362Y-89579428D01*
X155365457Y-89617523D01*
X155403552Y-89693714D01*
X155403552Y-89998476D01*
X154984505Y-88817523D02*
X154984505Y-89198476D01*
X155365457Y-89236571D01*
X155327362Y-89198476D01*
X155289267Y-89122285D01*
X155289267Y-88931809D01*
X155327362Y-88855619D01*
X155365457Y-88817523D01*
X155441648Y-88779428D01*
X155632124Y-88779428D01*
X155708314Y-88817523D01*
X155746410Y-88855619D01*
X155784505Y-88931809D01*
X155784505Y-89122285D01*
X155746410Y-89198476D01*
X155708314Y-89236571D01*
X179368467Y-95510305D02*
X179101800Y-95129352D01*
X178911324Y-95510305D02*
X178911324Y-94710305D01*
X179216086Y-94710305D01*
X179292277Y-94748400D01*
X179330372Y-94786495D01*
X179368467Y-94862686D01*
X179368467Y-94976971D01*
X179330372Y-95053162D01*
X179292277Y-95091257D01*
X179216086Y-95129352D01*
X178911324Y-95129352D01*
X180054181Y-94710305D02*
X179901800Y-94710305D01*
X179825610Y-94748400D01*
X179787515Y-94786495D01*
X179711324Y-94900781D01*
X179673229Y-95053162D01*
X179673229Y-95357924D01*
X179711324Y-95434114D01*
X179749419Y-95472210D01*
X179825610Y-95510305D01*
X179977991Y-95510305D01*
X180054181Y-95472210D01*
X180092277Y-95434114D01*
X180130372Y-95357924D01*
X180130372Y-95167448D01*
X180092277Y-95091257D01*
X180054181Y-95053162D01*
X179977991Y-95015067D01*
X179825610Y-95015067D01*
X179749419Y-95053162D01*
X179711324Y-95091257D01*
X179673229Y-95167448D01*
X170173667Y-104476505D02*
X169907000Y-104095552D01*
X169716524Y-104476505D02*
X169716524Y-103676505D01*
X170021286Y-103676505D01*
X170097477Y-103714600D01*
X170135572Y-103752695D01*
X170173667Y-103828886D01*
X170173667Y-103943171D01*
X170135572Y-104019362D01*
X170097477Y-104057457D01*
X170021286Y-104095552D01*
X169716524Y-104095552D01*
X170440334Y-103676505D02*
X170973667Y-103676505D01*
X170630810Y-104476505D01*
X154898905Y-101326933D02*
X154517952Y-101593600D01*
X154898905Y-101784076D02*
X154098905Y-101784076D01*
X154098905Y-101479314D01*
X154137000Y-101403123D01*
X154175095Y-101365028D01*
X154251286Y-101326933D01*
X154365571Y-101326933D01*
X154441762Y-101365028D01*
X154479857Y-101403123D01*
X154517952Y-101479314D01*
X154517952Y-101784076D01*
X154441762Y-100869790D02*
X154403667Y-100945981D01*
X154365571Y-100984076D01*
X154289381Y-101022171D01*
X154251286Y-101022171D01*
X154175095Y-100984076D01*
X154137000Y-100945981D01*
X154098905Y-100869790D01*
X154098905Y-100717409D01*
X154137000Y-100641219D01*
X154175095Y-100603123D01*
X154251286Y-100565028D01*
X154289381Y-100565028D01*
X154365571Y-100603123D01*
X154403667Y-100641219D01*
X154441762Y-100717409D01*
X154441762Y-100869790D01*
X154479857Y-100945981D01*
X154517952Y-100984076D01*
X154594143Y-101022171D01*
X154746524Y-101022171D01*
X154822714Y-100984076D01*
X154860810Y-100945981D01*
X154898905Y-100869790D01*
X154898905Y-100717409D01*
X154860810Y-100641219D01*
X154822714Y-100603123D01*
X154746524Y-100565028D01*
X154594143Y-100565028D01*
X154517952Y-100603123D01*
X154479857Y-100641219D01*
X154441762Y-100717409D01*
X176383905Y-89134933D02*
X176002952Y-89401600D01*
X176383905Y-89592076D02*
X175583905Y-89592076D01*
X175583905Y-89287314D01*
X175622000Y-89211123D01*
X175660095Y-89173028D01*
X175736286Y-89134933D01*
X175850571Y-89134933D01*
X175926762Y-89173028D01*
X175964857Y-89211123D01*
X176002952Y-89287314D01*
X176002952Y-89592076D01*
X176383905Y-88753981D02*
X176383905Y-88601600D01*
X176345810Y-88525409D01*
X176307714Y-88487314D01*
X176193429Y-88411123D01*
X176041048Y-88373028D01*
X175736286Y-88373028D01*
X175660095Y-88411123D01*
X175622000Y-88449219D01*
X175583905Y-88525409D01*
X175583905Y-88677790D01*
X175622000Y-88753981D01*
X175660095Y-88792076D01*
X175736286Y-88830171D01*
X175926762Y-88830171D01*
X176002952Y-88792076D01*
X176041048Y-88753981D01*
X176079143Y-88677790D01*
X176079143Y-88525409D01*
X176041048Y-88449219D01*
X176002952Y-88411123D01*
X175926762Y-88373028D01*
X178873105Y-87737886D02*
X178492152Y-88004553D01*
X178873105Y-88195029D02*
X178073105Y-88195029D01*
X178073105Y-87890267D01*
X178111200Y-87814076D01*
X178149295Y-87775981D01*
X178225486Y-87737886D01*
X178339771Y-87737886D01*
X178415962Y-87775981D01*
X178454057Y-87814076D01*
X178492152Y-87890267D01*
X178492152Y-88195029D01*
X178873105Y-86975981D02*
X178873105Y-87433124D01*
X178873105Y-87204553D02*
X178073105Y-87204553D01*
X178187390Y-87280743D01*
X178263581Y-87356934D01*
X178301676Y-87433124D01*
X178073105Y-86480743D02*
X178073105Y-86404552D01*
X178111200Y-86328362D01*
X178149295Y-86290267D01*
X178225486Y-86252171D01*
X178377867Y-86214076D01*
X178568343Y-86214076D01*
X178720724Y-86252171D01*
X178796914Y-86290267D01*
X178835010Y-86328362D01*
X178873105Y-86404552D01*
X178873105Y-86480743D01*
X178835010Y-86556933D01*
X178796914Y-86595029D01*
X178720724Y-86633124D01*
X178568343Y-86671219D01*
X178377867Y-86671219D01*
X178225486Y-86633124D01*
X178149295Y-86595029D01*
X178111200Y-86556933D01*
X178073105Y-86480743D01*
X179939905Y-90379486D02*
X179558952Y-90646153D01*
X179939905Y-90836629D02*
X179139905Y-90836629D01*
X179139905Y-90531867D01*
X179178000Y-90455676D01*
X179216095Y-90417581D01*
X179292286Y-90379486D01*
X179406571Y-90379486D01*
X179482762Y-90417581D01*
X179520857Y-90455676D01*
X179558952Y-90531867D01*
X179558952Y-90836629D01*
X179939905Y-89617581D02*
X179939905Y-90074724D01*
X179939905Y-89846153D02*
X179139905Y-89846153D01*
X179254190Y-89922343D01*
X179330381Y-89998534D01*
X179368476Y-90074724D01*
X179216095Y-89312819D02*
X179178000Y-89274724D01*
X179139905Y-89198533D01*
X179139905Y-89008057D01*
X179178000Y-88931867D01*
X179216095Y-88893771D01*
X179292286Y-88855676D01*
X179368476Y-88855676D01*
X179482762Y-88893771D01*
X179939905Y-89350914D01*
X179939905Y-88855676D01*
X179317714Y-96983505D02*
X179051047Y-96602552D01*
X178860571Y-96983505D02*
X178860571Y-96183505D01*
X179165333Y-96183505D01*
X179241524Y-96221600D01*
X179279619Y-96259695D01*
X179317714Y-96335886D01*
X179317714Y-96450171D01*
X179279619Y-96526362D01*
X179241524Y-96564457D01*
X179165333Y-96602552D01*
X178860571Y-96602552D01*
X180079619Y-96983505D02*
X179622476Y-96983505D01*
X179851047Y-96983505D02*
X179851047Y-96183505D01*
X179774857Y-96297790D01*
X179698666Y-96373981D01*
X179622476Y-96412076D01*
X180346286Y-96183505D02*
X180841524Y-96183505D01*
X180574857Y-96488267D01*
X180689143Y-96488267D01*
X180765333Y-96526362D01*
X180803429Y-96564457D01*
X180841524Y-96640648D01*
X180841524Y-96831124D01*
X180803429Y-96907314D01*
X180765333Y-96945410D01*
X180689143Y-96983505D01*
X180460571Y-96983505D01*
X180384381Y-96945410D01*
X180346286Y-96907314D01*
X174796514Y-101352305D02*
X174529847Y-100971352D01*
X174339371Y-101352305D02*
X174339371Y-100552305D01*
X174644133Y-100552305D01*
X174720324Y-100590400D01*
X174758419Y-100628495D01*
X174796514Y-100704686D01*
X174796514Y-100818971D01*
X174758419Y-100895162D01*
X174720324Y-100933257D01*
X174644133Y-100971352D01*
X174339371Y-100971352D01*
X175558419Y-101352305D02*
X175101276Y-101352305D01*
X175329847Y-101352305D02*
X175329847Y-100552305D01*
X175253657Y-100666590D01*
X175177466Y-100742781D01*
X175101276Y-100780876D01*
X176244133Y-100818971D02*
X176244133Y-101352305D01*
X176053657Y-100514210D02*
X175863181Y-101085638D01*
X176358419Y-101085638D01*
X172053314Y-104324114D02*
X172015219Y-104362210D01*
X171900933Y-104400305D01*
X171824743Y-104400305D01*
X171710457Y-104362210D01*
X171634266Y-104286019D01*
X171596171Y-104209829D01*
X171558076Y-104057448D01*
X171558076Y-103943162D01*
X171596171Y-103790781D01*
X171634266Y-103714590D01*
X171710457Y-103638400D01*
X171824743Y-103600305D01*
X171900933Y-103600305D01*
X172015219Y-103638400D01*
X172053314Y-103676495D01*
X172815219Y-104400305D02*
X172358076Y-104400305D01*
X172586647Y-104400305D02*
X172586647Y-103600305D01*
X172510457Y-103714590D01*
X172434266Y-103790781D01*
X172358076Y-103828876D01*
X173500933Y-103866971D02*
X173500933Y-104400305D01*
X173310457Y-103562210D02*
X173119981Y-104133638D01*
X173615219Y-104133638D01*
X171062714Y-86061514D02*
X171024619Y-86099610D01*
X170910333Y-86137705D01*
X170834143Y-86137705D01*
X170719857Y-86099610D01*
X170643666Y-86023419D01*
X170605571Y-85947229D01*
X170567476Y-85794848D01*
X170567476Y-85680562D01*
X170605571Y-85528181D01*
X170643666Y-85451990D01*
X170719857Y-85375800D01*
X170834143Y-85337705D01*
X170910333Y-85337705D01*
X171024619Y-85375800D01*
X171062714Y-85413895D01*
X171824619Y-86137705D02*
X171367476Y-86137705D01*
X171596047Y-86137705D02*
X171596047Y-85337705D01*
X171519857Y-85451990D01*
X171443666Y-85528181D01*
X171367476Y-85566276D01*
X172548429Y-85337705D02*
X172167476Y-85337705D01*
X172129381Y-85718657D01*
X172167476Y-85680562D01*
X172243667Y-85642467D01*
X172434143Y-85642467D01*
X172510333Y-85680562D01*
X172548429Y-85718657D01*
X172586524Y-85794848D01*
X172586524Y-85985324D01*
X172548429Y-86061514D01*
X172510333Y-86099610D01*
X172434143Y-86137705D01*
X172243667Y-86137705D01*
X172167476Y-86099610D01*
X172129381Y-86061514D01*
X174745714Y-102901705D02*
X174479047Y-102520752D01*
X174288571Y-102901705D02*
X174288571Y-102101705D01*
X174593333Y-102101705D01*
X174669524Y-102139800D01*
X174707619Y-102177895D01*
X174745714Y-102254086D01*
X174745714Y-102368371D01*
X174707619Y-102444562D01*
X174669524Y-102482657D01*
X174593333Y-102520752D01*
X174288571Y-102520752D01*
X175507619Y-102901705D02*
X175050476Y-102901705D01*
X175279047Y-102901705D02*
X175279047Y-102101705D01*
X175202857Y-102215990D01*
X175126666Y-102292181D01*
X175050476Y-102330276D01*
X176231429Y-102101705D02*
X175850476Y-102101705D01*
X175812381Y-102482657D01*
X175850476Y-102444562D01*
X175926667Y-102406467D01*
X176117143Y-102406467D01*
X176193333Y-102444562D01*
X176231429Y-102482657D01*
X176269524Y-102558848D01*
X176269524Y-102749324D01*
X176231429Y-102825514D01*
X176193333Y-102863610D01*
X176117143Y-102901705D01*
X175926667Y-102901705D01*
X175850476Y-102863610D01*
X175812381Y-102825514D01*
X156502134Y-96945457D02*
X156235467Y-96945457D01*
X156235467Y-97364505D02*
X156235467Y-96564505D01*
X156616420Y-96564505D01*
X157340229Y-97364505D02*
X156883086Y-97364505D01*
X157111657Y-97364505D02*
X157111657Y-96564505D01*
X157035467Y-96678790D01*
X156959276Y-96754981D01*
X156883086Y-96793076D01*
X155905276Y-85998105D02*
X155905276Y-86645724D01*
X155943371Y-86721914D01*
X155981467Y-86760010D01*
X156057657Y-86798105D01*
X156210038Y-86798105D01*
X156286229Y-86760010D01*
X156324324Y-86721914D01*
X156362419Y-86645724D01*
X156362419Y-85998105D01*
X156705276Y-86074295D02*
X156743371Y-86036200D01*
X156819562Y-85998105D01*
X157010038Y-85998105D01*
X157086228Y-86036200D01*
X157124324Y-86074295D01*
X157162419Y-86150486D01*
X157162419Y-86226676D01*
X157124324Y-86340962D01*
X156667181Y-86798105D01*
X157162419Y-86798105D01*
X167843276Y-100018905D02*
X167843276Y-100666524D01*
X167881371Y-100742714D01*
X167919467Y-100780810D01*
X167995657Y-100818905D01*
X168148038Y-100818905D01*
X168224229Y-100780810D01*
X168262324Y-100742714D01*
X168300419Y-100666524D01*
X168300419Y-100018905D01*
X169024228Y-100285571D02*
X169024228Y-100818905D01*
X168833752Y-99980810D02*
X168643276Y-100552238D01*
X169138514Y-100552238D01*
X158083334Y-91128857D02*
X157816667Y-91128857D01*
X157816667Y-91547905D02*
X157816667Y-90747905D01*
X158197620Y-90747905D01*
X158769048Y-91128857D02*
X158883334Y-91166952D01*
X158921429Y-91205048D01*
X158959524Y-91281238D01*
X158959524Y-91395524D01*
X158921429Y-91471714D01*
X158883334Y-91509810D01*
X158807143Y-91547905D01*
X158502381Y-91547905D01*
X158502381Y-90747905D01*
X158769048Y-90747905D01*
X158845238Y-90786000D01*
X158883334Y-90824095D01*
X158921429Y-90900286D01*
X158921429Y-90976476D01*
X158883334Y-91052667D01*
X158845238Y-91090762D01*
X158769048Y-91128857D01*
X158502381Y-91128857D01*
X159721429Y-91547905D02*
X159264286Y-91547905D01*
X159492857Y-91547905D02*
X159492857Y-90747905D01*
X159416667Y-90862190D01*
X159340476Y-90938381D01*
X159264286Y-90976476D01*
X160851934Y-93872057D02*
X160585267Y-93872057D01*
X160585267Y-94291105D02*
X160585267Y-93491105D01*
X160966220Y-93491105D01*
X161537648Y-93872057D02*
X161651934Y-93910152D01*
X161690029Y-93948248D01*
X161728124Y-94024438D01*
X161728124Y-94138724D01*
X161690029Y-94214914D01*
X161651934Y-94253010D01*
X161575743Y-94291105D01*
X161270981Y-94291105D01*
X161270981Y-93491105D01*
X161537648Y-93491105D01*
X161613838Y-93529200D01*
X161651934Y-93567295D01*
X161690029Y-93643486D01*
X161690029Y-93719676D01*
X161651934Y-93795867D01*
X161613838Y-93833962D01*
X161537648Y-93872057D01*
X161270981Y-93872057D01*
X162032886Y-93567295D02*
X162070981Y-93529200D01*
X162147172Y-93491105D01*
X162337648Y-93491105D01*
X162413838Y-93529200D01*
X162451934Y-93567295D01*
X162490029Y-93643486D01*
X162490029Y-93719676D01*
X162451934Y-93833962D01*
X161994791Y-94291105D01*
X162490029Y-94291105D01*
X163188734Y-94684857D02*
X162922067Y-94684857D01*
X162922067Y-95103905D02*
X162922067Y-94303905D01*
X163303020Y-94303905D01*
X163874448Y-94684857D02*
X163988734Y-94722952D01*
X164026829Y-94761048D01*
X164064924Y-94837238D01*
X164064924Y-94951524D01*
X164026829Y-95027714D01*
X163988734Y-95065810D01*
X163912543Y-95103905D01*
X163607781Y-95103905D01*
X163607781Y-94303905D01*
X163874448Y-94303905D01*
X163950638Y-94342000D01*
X163988734Y-94380095D01*
X164026829Y-94456286D01*
X164026829Y-94532476D01*
X163988734Y-94608667D01*
X163950638Y-94646762D01*
X163874448Y-94684857D01*
X163607781Y-94684857D01*
X164331591Y-94303905D02*
X164826829Y-94303905D01*
X164560162Y-94608667D01*
X164674448Y-94608667D01*
X164750638Y-94646762D01*
X164788734Y-94684857D01*
X164826829Y-94761048D01*
X164826829Y-94951524D01*
X164788734Y-95027714D01*
X164750638Y-95065810D01*
X164674448Y-95103905D01*
X164445876Y-95103905D01*
X164369686Y-95065810D01*
X164331591Y-95027714D01*
X169843534Y-88639657D02*
X169576867Y-88639657D01*
X169576867Y-89058705D02*
X169576867Y-88258705D01*
X169957820Y-88258705D01*
X170529248Y-88639657D02*
X170643534Y-88677752D01*
X170681629Y-88715848D01*
X170719724Y-88792038D01*
X170719724Y-88906324D01*
X170681629Y-88982514D01*
X170643534Y-89020610D01*
X170567343Y-89058705D01*
X170262581Y-89058705D01*
X170262581Y-88258705D01*
X170529248Y-88258705D01*
X170605438Y-88296800D01*
X170643534Y-88334895D01*
X170681629Y-88411086D01*
X170681629Y-88487276D01*
X170643534Y-88563467D01*
X170605438Y-88601562D01*
X170529248Y-88639657D01*
X170262581Y-88639657D01*
X171405438Y-88525371D02*
X171405438Y-89058705D01*
X171214962Y-88220610D02*
X171024486Y-88792038D01*
X171519724Y-88792038D01*
X178327124Y-104400305D02*
X178327124Y-103600305D01*
X178631886Y-103600305D01*
X178708077Y-103638400D01*
X178746172Y-103676495D01*
X178784267Y-103752686D01*
X178784267Y-103866971D01*
X178746172Y-103943162D01*
X178708077Y-103981257D01*
X178631886Y-104019352D01*
X178327124Y-104019352D01*
X179089029Y-103676495D02*
X179127124Y-103638400D01*
X179203315Y-103600305D01*
X179393791Y-103600305D01*
X179469981Y-103638400D01*
X179508077Y-103676495D01*
X179546172Y-103752686D01*
X179546172Y-103828876D01*
X179508077Y-103943162D01*
X179050934Y-104400305D01*
X179546172Y-104400305D01*
X169976895Y-87686381D02*
X169976895Y-88495905D01*
X170024514Y-88591143D01*
X170072133Y-88638762D01*
X170167371Y-88686381D01*
X170357848Y-88686381D01*
X170453086Y-88638762D01*
X170500705Y-88591143D01*
X170548324Y-88495905D01*
X170548324Y-87686381D01*
X171548324Y-88686381D02*
X170976895Y-88686381D01*
X171262609Y-88686381D02*
X171262609Y-87686381D01*
X171167371Y-87829238D01*
X171072133Y-87924476D01*
X170976895Y-87972095D01*
M02*
