G04 #@! TF.FileFunction,Soldermask,Bot*
%FSLAX46Y46*%
G04 Gerber Fmt 4.6, Leading zero omitted, Abs format (unit mm)*
G04 Created by KiCad (PCBNEW 4.0.1-stable) date 25/01/2016 20:42:59*
%MOMM*%
G01*
G04 APERTURE LIST*
%ADD10C,0.150000*%
%ADD11O,4.180000X1.800000*%
%ADD12C,1.200000*%
%ADD13R,0.700000X0.800000*%
%ADD14R,0.800000X0.700000*%
%ADD15R,1.000100X1.000100*%
%ADD16R,0.600000X0.800000*%
%ADD17R,4.010000X1.470000*%
%ADD18R,1.260000X0.850000*%
%ADD19R,0.850000X1.260000*%
%ADD20R,1.500000X1.300000*%
G04 APERTURE END LIST*
D10*
D11*
X151224000Y-101194000D03*
X151224000Y-89194000D03*
D12*
X151224000Y-93944000D03*
X151224000Y-97440000D03*
D13*
X158559500Y-89577000D03*
X158559500Y-88477000D03*
X164020500Y-89577000D03*
X164020500Y-88477000D03*
D14*
X159490500Y-104076500D03*
X158390500Y-104076500D03*
D15*
X159890500Y-102791260D03*
X157990500Y-102791260D03*
X158940500Y-100792280D03*
D16*
X160967000Y-91059000D03*
X161867000Y-91059000D03*
X162300500Y-104076500D03*
X163200500Y-104076500D03*
D13*
X175310800Y-88154600D03*
X175310800Y-87054600D03*
D17*
X186309000Y-104013000D03*
X186309000Y-101473000D03*
X186309000Y-98933000D03*
X186309000Y-96393000D03*
X186309000Y-93853000D03*
X186309000Y-91313000D03*
X186309000Y-88773000D03*
X186309000Y-86233000D03*
D18*
X171620000Y-88135500D03*
X171620000Y-87185500D03*
X171620000Y-86235500D03*
X173820000Y-86235500D03*
X173820000Y-88135500D03*
D19*
X159001500Y-96223000D03*
X158051500Y-96223000D03*
X157101500Y-96223000D03*
X157101500Y-94023000D03*
X159001500Y-94023000D03*
X158051500Y-94023000D03*
D20*
X160140000Y-89532500D03*
X162440000Y-89532500D03*
X162440000Y-87632500D03*
X160140000Y-87632500D03*
M02*
