G04 #@! TF.FileFunction,Legend,Top*
%FSLAX46Y46*%
G04 Gerber Fmt 4.6, Leading zero omitted, Abs format (unit mm)*
G04 Created by KiCad (PCBNEW 4.0.1-stable) date 25/01/2016 21:34:26*
%MOMM*%
G01*
G04 APERTURE LIST*
%ADD10C,0.150000*%
%ADD11C,0.200000*%
G04 APERTURE END LIST*
D10*
D11*
X181613286Y-104428857D02*
X181613286Y-103228857D01*
X181899001Y-103228857D01*
X182070429Y-103286000D01*
X182184715Y-103400286D01*
X182241858Y-103514571D01*
X182299001Y-103743143D01*
X182299001Y-103914571D01*
X182241858Y-104143143D01*
X182184715Y-104257429D01*
X182070429Y-104371714D01*
X181899001Y-104428857D01*
X181613286Y-104428857D01*
X183041858Y-103228857D02*
X183156143Y-103228857D01*
X183270429Y-103286000D01*
X183327572Y-103343143D01*
X183384715Y-103457429D01*
X183441858Y-103686000D01*
X183441858Y-103971714D01*
X183384715Y-104200286D01*
X183327572Y-104314571D01*
X183270429Y-104371714D01*
X183156143Y-104428857D01*
X183041858Y-104428857D01*
X182927572Y-104371714D01*
X182870429Y-104314571D01*
X182813286Y-104200286D01*
X182756143Y-103971714D01*
X182756143Y-103686000D01*
X182813286Y-103457429D01*
X182870429Y-103343143D01*
X182927572Y-103286000D01*
X183041858Y-103228857D01*
X181613286Y-102015857D02*
X181613286Y-100815857D01*
X181899001Y-100815857D01*
X182070429Y-100873000D01*
X182184715Y-100987286D01*
X182241858Y-101101571D01*
X182299001Y-101330143D01*
X182299001Y-101501571D01*
X182241858Y-101730143D01*
X182184715Y-101844429D01*
X182070429Y-101958714D01*
X181899001Y-102015857D01*
X181613286Y-102015857D01*
X183441858Y-102015857D02*
X182756143Y-102015857D01*
X183099001Y-102015857D02*
X183099001Y-100815857D01*
X182984715Y-100987286D01*
X182870429Y-101101571D01*
X182756143Y-101158714D01*
X181613286Y-99475857D02*
X181613286Y-98275857D01*
X181899001Y-98275857D01*
X182070429Y-98333000D01*
X182184715Y-98447286D01*
X182241858Y-98561571D01*
X182299001Y-98790143D01*
X182299001Y-98961571D01*
X182241858Y-99190143D01*
X182184715Y-99304429D01*
X182070429Y-99418714D01*
X181899001Y-99475857D01*
X181613286Y-99475857D01*
X182756143Y-98390143D02*
X182813286Y-98333000D01*
X182927572Y-98275857D01*
X183213286Y-98275857D01*
X183327572Y-98333000D01*
X183384715Y-98390143D01*
X183441858Y-98504429D01*
X183441858Y-98618714D01*
X183384715Y-98790143D01*
X182699001Y-99475857D01*
X183441858Y-99475857D01*
X181613286Y-96935857D02*
X181613286Y-95735857D01*
X181899001Y-95735857D01*
X182070429Y-95793000D01*
X182184715Y-95907286D01*
X182241858Y-96021571D01*
X182299001Y-96250143D01*
X182299001Y-96421571D01*
X182241858Y-96650143D01*
X182184715Y-96764429D01*
X182070429Y-96878714D01*
X181899001Y-96935857D01*
X181613286Y-96935857D01*
X182699001Y-95735857D02*
X183441858Y-95735857D01*
X183041858Y-96193000D01*
X183213286Y-96193000D01*
X183327572Y-96250143D01*
X183384715Y-96307286D01*
X183441858Y-96421571D01*
X183441858Y-96707286D01*
X183384715Y-96821571D01*
X183327572Y-96878714D01*
X183213286Y-96935857D01*
X182870429Y-96935857D01*
X182756143Y-96878714D01*
X182699001Y-96821571D01*
X181613286Y-94395857D02*
X181613286Y-93195857D01*
X181899001Y-93195857D01*
X182070429Y-93253000D01*
X182184715Y-93367286D01*
X182241858Y-93481571D01*
X182299001Y-93710143D01*
X182299001Y-93881571D01*
X182241858Y-94110143D01*
X182184715Y-94224429D01*
X182070429Y-94338714D01*
X181899001Y-94395857D01*
X181613286Y-94395857D01*
X183327572Y-93595857D02*
X183327572Y-94395857D01*
X183041858Y-93138714D02*
X182756143Y-93995857D01*
X183499001Y-93995857D01*
X181613286Y-91982857D02*
X181613286Y-90782857D01*
X181899001Y-90782857D01*
X182070429Y-90840000D01*
X182184715Y-90954286D01*
X182241858Y-91068571D01*
X182299001Y-91297143D01*
X182299001Y-91468571D01*
X182241858Y-91697143D01*
X182184715Y-91811429D01*
X182070429Y-91925714D01*
X181899001Y-91982857D01*
X181613286Y-91982857D01*
X183384715Y-90782857D02*
X182813286Y-90782857D01*
X182756143Y-91354286D01*
X182813286Y-91297143D01*
X182927572Y-91240000D01*
X183213286Y-91240000D01*
X183327572Y-91297143D01*
X183384715Y-91354286D01*
X183441858Y-91468571D01*
X183441858Y-91754286D01*
X183384715Y-91868571D01*
X183327572Y-91925714D01*
X183213286Y-91982857D01*
X182927572Y-91982857D01*
X182813286Y-91925714D01*
X182756143Y-91868571D01*
X181613286Y-89442857D02*
X181613286Y-88242857D01*
X181899001Y-88242857D01*
X182070429Y-88300000D01*
X182184715Y-88414286D01*
X182241858Y-88528571D01*
X182299001Y-88757143D01*
X182299001Y-88928571D01*
X182241858Y-89157143D01*
X182184715Y-89271429D01*
X182070429Y-89385714D01*
X181899001Y-89442857D01*
X181613286Y-89442857D01*
X183327572Y-88242857D02*
X183099001Y-88242857D01*
X182984715Y-88300000D01*
X182927572Y-88357143D01*
X182813286Y-88528571D01*
X182756143Y-88757143D01*
X182756143Y-89214286D01*
X182813286Y-89328571D01*
X182870429Y-89385714D01*
X182984715Y-89442857D01*
X183213286Y-89442857D01*
X183327572Y-89385714D01*
X183384715Y-89328571D01*
X183441858Y-89214286D01*
X183441858Y-88928571D01*
X183384715Y-88814286D01*
X183327572Y-88757143D01*
X183213286Y-88700000D01*
X182984715Y-88700000D01*
X182870429Y-88757143D01*
X182813286Y-88814286D01*
X182756143Y-88928571D01*
X181587886Y-87131457D02*
X181587886Y-85931457D01*
X181873601Y-85931457D01*
X182045029Y-85988600D01*
X182159315Y-86102886D01*
X182216458Y-86217171D01*
X182273601Y-86445743D01*
X182273601Y-86617171D01*
X182216458Y-86845743D01*
X182159315Y-86960029D01*
X182045029Y-87074314D01*
X181873601Y-87131457D01*
X181587886Y-87131457D01*
X182673601Y-85931457D02*
X183473601Y-85931457D01*
X182959315Y-87131457D01*
D10*
X155069120Y-102743860D02*
X140972120Y-102743860D01*
X140972120Y-87757860D02*
X155069120Y-87757860D01*
X155069120Y-102743860D02*
X155069120Y-87757860D01*
X140972120Y-102743860D02*
X140972120Y-87757860D01*
X161286000Y-97315000D02*
X160786000Y-97315000D01*
X160786000Y-98265000D02*
X161286000Y-98265000D01*
X172689500Y-87062500D02*
X172689500Y-87562500D01*
X173639500Y-87562500D02*
X173639500Y-87062500D01*
X174086500Y-87062500D02*
X174086500Y-87562500D01*
X175036500Y-87562500D02*
X175036500Y-87062500D01*
X164397500Y-92298500D02*
X163897500Y-92298500D01*
X163897500Y-93248500D02*
X164397500Y-93248500D01*
X163580000Y-97376000D02*
X164080000Y-97376000D01*
X164080000Y-96426000D02*
X163580000Y-96426000D01*
X176944000Y-91571000D02*
X176944000Y-92071000D01*
X177894000Y-92071000D02*
X177894000Y-91571000D01*
X168562000Y-87062500D02*
X168562000Y-87562500D01*
X169512000Y-87562500D02*
X169512000Y-87062500D01*
X165477000Y-103601500D02*
X164977000Y-103601500D01*
X164977000Y-104551500D02*
X165477000Y-104551500D01*
X155798500Y-103191500D02*
X155798500Y-103691500D01*
X156748500Y-103691500D02*
X156748500Y-103191500D01*
X164930000Y-98700500D02*
X163030000Y-98700500D01*
X164930000Y-99800500D02*
X163030000Y-99800500D01*
X164030000Y-99250500D02*
X163580000Y-99250500D01*
X164080000Y-99500500D02*
X164080000Y-99000500D01*
X164080000Y-99250500D02*
X163830000Y-99500500D01*
X163830000Y-99500500D02*
X163830000Y-99000500D01*
X163830000Y-99000500D02*
X164080000Y-99250500D01*
X177208000Y-94085500D02*
X179108000Y-94085500D01*
X177208000Y-92985500D02*
X179108000Y-92985500D01*
X178108000Y-93535500D02*
X178558000Y-93535500D01*
X178058000Y-93285500D02*
X178058000Y-93785500D01*
X178058000Y-93535500D02*
X178308000Y-93285500D01*
X178308000Y-93285500D02*
X178308000Y-93785500D01*
X178308000Y-93785500D02*
X178058000Y-93535500D01*
X160239660Y-101140260D02*
X160191400Y-101140260D01*
X157440680Y-101841300D02*
X157440680Y-101140260D01*
X157440680Y-101140260D02*
X157689600Y-101140260D01*
X160239660Y-101140260D02*
X160440320Y-101140260D01*
X160440320Y-101140260D02*
X160440320Y-101841300D01*
X164113160Y-101140260D02*
X164064900Y-101140260D01*
X161314180Y-101841300D02*
X161314180Y-101140260D01*
X161314180Y-101140260D02*
X161563100Y-101140260D01*
X164113160Y-101140260D02*
X164313820Y-101140260D01*
X164313820Y-101140260D02*
X164313820Y-101841300D01*
X161286000Y-98725500D02*
X160786000Y-98725500D01*
X160786000Y-99775500D02*
X161286000Y-99775500D01*
X178858400Y-92274200D02*
X178858400Y-91774200D01*
X177808400Y-91774200D02*
X177808400Y-92274200D01*
X165718000Y-87189500D02*
X165718000Y-87689500D01*
X166768000Y-87689500D02*
X166768000Y-87189500D01*
X156989000Y-89721500D02*
X156989000Y-89221500D01*
X155939000Y-89221500D02*
X155939000Y-89721500D01*
X177613500Y-95584500D02*
X178113500Y-95584500D01*
X178113500Y-94534500D02*
X177613500Y-94534500D01*
X159127000Y-103551500D02*
X158627000Y-103551500D01*
X158627000Y-104601500D02*
X159127000Y-104601500D01*
X155812000Y-100943600D02*
X155812000Y-101443600D01*
X156862000Y-101443600D02*
X156862000Y-100943600D01*
X175497000Y-87062500D02*
X175497000Y-87562500D01*
X176547000Y-87562500D02*
X176547000Y-87062500D01*
X177944000Y-87562500D02*
X177944000Y-87062500D01*
X176894000Y-87062500D02*
X176894000Y-87562500D01*
X179823600Y-92274200D02*
X179823600Y-91774200D01*
X178773600Y-91774200D02*
X178773600Y-92274200D01*
X177613500Y-96981500D02*
X178113500Y-96981500D01*
X178113500Y-95931500D02*
X177613500Y-95931500D01*
X165807200Y-100490800D02*
X165307200Y-100490800D01*
X165307200Y-101540800D02*
X165807200Y-101540800D01*
X162500500Y-104551500D02*
X163000500Y-104551500D01*
X163000500Y-103601500D02*
X162500500Y-103601500D01*
X172306000Y-87562500D02*
X172306000Y-87062500D01*
X171356000Y-87062500D02*
X171356000Y-87562500D01*
X165807200Y-101811600D02*
X165307200Y-101811600D01*
X165307200Y-102861600D02*
X165807200Y-102861600D01*
X159215000Y-85880500D02*
X159215000Y-86025500D01*
X163365000Y-85880500D02*
X163365000Y-86025500D01*
X163365000Y-91030500D02*
X163365000Y-90885500D01*
X159215000Y-91030500D02*
X159215000Y-90885500D01*
X159215000Y-85880500D02*
X163365000Y-85880500D01*
X159215000Y-91030500D02*
X163365000Y-91030500D01*
X159215000Y-86025500D02*
X157815000Y-86025500D01*
X169629000Y-102189000D02*
X169329000Y-102189000D01*
X169329000Y-102189000D02*
X169329000Y-101889000D01*
X167429000Y-103089000D02*
X169629000Y-103089000D01*
X169629000Y-103089000D02*
X169629000Y-101889000D01*
X169629000Y-101889000D02*
X167429000Y-101889000D01*
X167429000Y-101889000D02*
X167429000Y-103089000D01*
X157750000Y-94396000D02*
X159750000Y-94396000D01*
X159750000Y-94396000D02*
X159750000Y-95596000D01*
X159750000Y-95596000D02*
X157750000Y-95596000D01*
X157750000Y-95596000D02*
X157750000Y-94396000D01*
X157750000Y-94396000D02*
X157950000Y-94396000D01*
X161921000Y-92298500D02*
X161421000Y-92298500D01*
X161421000Y-93248500D02*
X161921000Y-93248500D01*
X164080000Y-95156000D02*
X163580000Y-95156000D01*
X163580000Y-96106000D02*
X164080000Y-96106000D01*
X170909000Y-87562500D02*
X170909000Y-87062500D01*
X169959000Y-87062500D02*
X169959000Y-87562500D01*
X185009000Y-84708400D02*
X185009000Y-86258400D01*
X186309000Y-84708400D02*
X185009000Y-84708400D01*
X190500000Y-86131400D02*
X196342000Y-86131400D01*
X196342000Y-86131400D02*
X196342000Y-86385400D01*
X196342000Y-86385400D02*
X190500000Y-86385400D01*
X190500000Y-86385400D02*
X190500000Y-86258400D01*
X190500000Y-86258400D02*
X196342000Y-86258400D01*
X187833000Y-103784400D02*
X187452000Y-103784400D01*
X187833000Y-104292400D02*
X187452000Y-104292400D01*
X187833000Y-86004400D02*
X187452000Y-86004400D01*
X187833000Y-86512400D02*
X187452000Y-86512400D01*
X187833000Y-88544400D02*
X187452000Y-88544400D01*
X187833000Y-89052400D02*
X187452000Y-89052400D01*
X187833000Y-91084400D02*
X187452000Y-91084400D01*
X187833000Y-91592400D02*
X187452000Y-91592400D01*
X187833000Y-101752400D02*
X187452000Y-101752400D01*
X187833000Y-101244400D02*
X187452000Y-101244400D01*
X187833000Y-99212400D02*
X187452000Y-99212400D01*
X187833000Y-98704400D02*
X187452000Y-98704400D01*
X187833000Y-96672400D02*
X187452000Y-96672400D01*
X187833000Y-96164400D02*
X187452000Y-96164400D01*
X187833000Y-94132400D02*
X187452000Y-94132400D01*
X187833000Y-93624400D02*
X187452000Y-93624400D01*
X187833000Y-100228400D02*
X190373000Y-100228400D01*
X187833000Y-100228400D02*
X187833000Y-102768400D01*
X187833000Y-102768400D02*
X190373000Y-102768400D01*
X190373000Y-101244400D02*
X196469000Y-101244400D01*
X196469000Y-101244400D02*
X196469000Y-101752400D01*
X196469000Y-101752400D02*
X190373000Y-101752400D01*
X190373000Y-102768400D02*
X190373000Y-100228400D01*
X190373000Y-105308400D02*
X190373000Y-102768400D01*
X196469000Y-104292400D02*
X190373000Y-104292400D01*
X196469000Y-103784400D02*
X196469000Y-104292400D01*
X190373000Y-103784400D02*
X196469000Y-103784400D01*
X187833000Y-102768400D02*
X187833000Y-105308400D01*
X187833000Y-102768400D02*
X190373000Y-102768400D01*
X187833000Y-105308400D02*
X190373000Y-105308400D01*
X187833000Y-84988400D02*
X190373000Y-84988400D01*
X187833000Y-87528400D02*
X190373000Y-87528400D01*
X187833000Y-87528400D02*
X187833000Y-90068400D01*
X187833000Y-90068400D02*
X190373000Y-90068400D01*
X190373000Y-88544400D02*
X196469000Y-88544400D01*
X196469000Y-88544400D02*
X196469000Y-89052400D01*
X196469000Y-89052400D02*
X190373000Y-89052400D01*
X190373000Y-90068400D02*
X190373000Y-87528400D01*
X190373000Y-87528400D02*
X190373000Y-84988400D01*
X196469000Y-86512400D02*
X190373000Y-86512400D01*
X196469000Y-86004400D02*
X196469000Y-86512400D01*
X190373000Y-86004400D02*
X196469000Y-86004400D01*
X187833000Y-87528400D02*
X190373000Y-87528400D01*
X187833000Y-84988400D02*
X187833000Y-87528400D01*
X187833000Y-95148400D02*
X190373000Y-95148400D01*
X187833000Y-95148400D02*
X187833000Y-97688400D01*
X187833000Y-97688400D02*
X190373000Y-97688400D01*
X190373000Y-96164400D02*
X196469000Y-96164400D01*
X196469000Y-96164400D02*
X196469000Y-96672400D01*
X196469000Y-96672400D02*
X190373000Y-96672400D01*
X190373000Y-97688400D02*
X190373000Y-95148400D01*
X190373000Y-100228400D02*
X190373000Y-97688400D01*
X196469000Y-99212400D02*
X190373000Y-99212400D01*
X196469000Y-98704400D02*
X196469000Y-99212400D01*
X190373000Y-98704400D02*
X196469000Y-98704400D01*
X187833000Y-100228400D02*
X190373000Y-100228400D01*
X187833000Y-97688400D02*
X187833000Y-100228400D01*
X187833000Y-97688400D02*
X190373000Y-97688400D01*
X187833000Y-92608400D02*
X190373000Y-92608400D01*
X187833000Y-92608400D02*
X187833000Y-95148400D01*
X187833000Y-95148400D02*
X190373000Y-95148400D01*
X190373000Y-93624400D02*
X196469000Y-93624400D01*
X196469000Y-93624400D02*
X196469000Y-94132400D01*
X196469000Y-94132400D02*
X190373000Y-94132400D01*
X190373000Y-95148400D02*
X190373000Y-92608400D01*
X190373000Y-92608400D02*
X190373000Y-90068400D01*
X196469000Y-91592400D02*
X190373000Y-91592400D01*
X196469000Y-91084400D02*
X196469000Y-91592400D01*
X190373000Y-91084400D02*
X196469000Y-91084400D01*
X187833000Y-92608400D02*
X190373000Y-92608400D01*
X187833000Y-90068400D02*
X187833000Y-92608400D01*
X187833000Y-90068400D02*
X190373000Y-90068400D01*
X167113800Y-90609000D02*
X167113800Y-91134000D01*
X174363800Y-90609000D02*
X174363800Y-91134000D01*
X174363800Y-97859000D02*
X174363800Y-97334000D01*
X167113800Y-97859000D02*
X167113800Y-97334000D01*
X167113800Y-90609000D02*
X167638800Y-90609000D01*
X167113800Y-97859000D02*
X167638800Y-97859000D01*
X174363800Y-97859000D02*
X173838800Y-97859000D01*
X174363800Y-90609000D02*
X173838800Y-90609000D01*
X167113800Y-91134000D02*
X165738800Y-91134000D01*
X151052305Y-87879181D02*
X151052305Y-86879181D01*
X151433258Y-86879181D01*
X151528496Y-86926800D01*
X151576115Y-86974419D01*
X151623734Y-87069657D01*
X151623734Y-87212514D01*
X151576115Y-87307752D01*
X151528496Y-87355371D01*
X151433258Y-87402990D01*
X151052305Y-87402990D01*
X152576115Y-87879181D02*
X152004686Y-87879181D01*
X152290400Y-87879181D02*
X152290400Y-86879181D01*
X152195162Y-87022038D01*
X152099924Y-87117276D01*
X152004686Y-87164895D01*
X160996334Y-96851743D02*
X160948715Y-96899362D01*
X160805858Y-96946981D01*
X160710620Y-96946981D01*
X160567762Y-96899362D01*
X160472524Y-96804124D01*
X160424905Y-96708886D01*
X160377286Y-96518410D01*
X160377286Y-96375552D01*
X160424905Y-96185076D01*
X160472524Y-96089838D01*
X160567762Y-95994600D01*
X160710620Y-95946981D01*
X160805858Y-95946981D01*
X160948715Y-95994600D01*
X160996334Y-96042219D01*
X161329667Y-95946981D02*
X161948715Y-95946981D01*
X161615381Y-96327933D01*
X161758239Y-96327933D01*
X161853477Y-96375552D01*
X161901096Y-96423171D01*
X161948715Y-96518410D01*
X161948715Y-96756505D01*
X161901096Y-96851743D01*
X161853477Y-96899362D01*
X161758239Y-96946981D01*
X161472524Y-96946981D01*
X161377286Y-96899362D01*
X161329667Y-96851743D01*
X173721734Y-86183743D02*
X173674115Y-86231362D01*
X173531258Y-86278981D01*
X173436020Y-86278981D01*
X173293162Y-86231362D01*
X173197924Y-86136124D01*
X173150305Y-86040886D01*
X173102686Y-85850410D01*
X173102686Y-85707552D01*
X173150305Y-85517076D01*
X173197924Y-85421838D01*
X173293162Y-85326600D01*
X173436020Y-85278981D01*
X173531258Y-85278981D01*
X173674115Y-85326600D01*
X173721734Y-85374219D01*
X174578877Y-85612314D02*
X174578877Y-86278981D01*
X174340781Y-85231362D02*
X174102686Y-85945648D01*
X174721734Y-85945648D01*
X174956743Y-89269866D02*
X175004362Y-89317485D01*
X175051981Y-89460342D01*
X175051981Y-89555580D01*
X175004362Y-89698438D01*
X174909124Y-89793676D01*
X174813886Y-89841295D01*
X174623410Y-89888914D01*
X174480552Y-89888914D01*
X174290076Y-89841295D01*
X174194838Y-89793676D01*
X174099600Y-89698438D01*
X174051981Y-89555580D01*
X174051981Y-89460342D01*
X174099600Y-89317485D01*
X174147219Y-89269866D01*
X174051981Y-88365104D02*
X174051981Y-88841295D01*
X174528171Y-88888914D01*
X174480552Y-88841295D01*
X174432933Y-88746057D01*
X174432933Y-88507961D01*
X174480552Y-88412723D01*
X174528171Y-88365104D01*
X174623410Y-88317485D01*
X174861505Y-88317485D01*
X174956743Y-88365104D01*
X175004362Y-88412723D01*
X175051981Y-88507961D01*
X175051981Y-88746057D01*
X175004362Y-88841295D01*
X174956743Y-88888914D01*
X164018934Y-92000343D02*
X163971315Y-92047962D01*
X163828458Y-92095581D01*
X163733220Y-92095581D01*
X163590362Y-92047962D01*
X163495124Y-91952724D01*
X163447505Y-91857486D01*
X163399886Y-91667010D01*
X163399886Y-91524152D01*
X163447505Y-91333676D01*
X163495124Y-91238438D01*
X163590362Y-91143200D01*
X163733220Y-91095581D01*
X163828458Y-91095581D01*
X163971315Y-91143200D01*
X164018934Y-91190819D01*
X164876077Y-91095581D02*
X164685600Y-91095581D01*
X164590362Y-91143200D01*
X164542743Y-91190819D01*
X164447505Y-91333676D01*
X164399886Y-91524152D01*
X164399886Y-91905105D01*
X164447505Y-92000343D01*
X164495124Y-92047962D01*
X164590362Y-92095581D01*
X164780839Y-92095581D01*
X164876077Y-92047962D01*
X164923696Y-92000343D01*
X164971315Y-91905105D01*
X164971315Y-91667010D01*
X164923696Y-91571771D01*
X164876077Y-91524152D01*
X164780839Y-91476533D01*
X164590362Y-91476533D01*
X164495124Y-91524152D01*
X164447505Y-91571771D01*
X164399886Y-91667010D01*
X163561734Y-98375743D02*
X163514115Y-98423362D01*
X163371258Y-98470981D01*
X163276020Y-98470981D01*
X163133162Y-98423362D01*
X163037924Y-98328124D01*
X162990305Y-98232886D01*
X162942686Y-98042410D01*
X162942686Y-97899552D01*
X162990305Y-97709076D01*
X163037924Y-97613838D01*
X163133162Y-97518600D01*
X163276020Y-97470981D01*
X163371258Y-97470981D01*
X163514115Y-97518600D01*
X163561734Y-97566219D01*
X163895067Y-97470981D02*
X164561734Y-97470981D01*
X164133162Y-98470981D01*
X178919143Y-90285866D02*
X178966762Y-90333485D01*
X179014381Y-90476342D01*
X179014381Y-90571580D01*
X178966762Y-90714438D01*
X178871524Y-90809676D01*
X178776286Y-90857295D01*
X178585810Y-90904914D01*
X178442952Y-90904914D01*
X178252476Y-90857295D01*
X178157238Y-90809676D01*
X178062000Y-90714438D01*
X178014381Y-90571580D01*
X178014381Y-90476342D01*
X178062000Y-90333485D01*
X178109619Y-90285866D01*
X178442952Y-89714438D02*
X178395333Y-89809676D01*
X178347714Y-89857295D01*
X178252476Y-89904914D01*
X178204857Y-89904914D01*
X178109619Y-89857295D01*
X178062000Y-89809676D01*
X178014381Y-89714438D01*
X178014381Y-89523961D01*
X178062000Y-89428723D01*
X178109619Y-89381104D01*
X178204857Y-89333485D01*
X178252476Y-89333485D01*
X178347714Y-89381104D01*
X178395333Y-89428723D01*
X178442952Y-89523961D01*
X178442952Y-89714438D01*
X178490571Y-89809676D01*
X178538190Y-89857295D01*
X178633429Y-89904914D01*
X178823905Y-89904914D01*
X178919143Y-89857295D01*
X178966762Y-89809676D01*
X179014381Y-89714438D01*
X179014381Y-89523961D01*
X178966762Y-89428723D01*
X178919143Y-89381104D01*
X178823905Y-89333485D01*
X178633429Y-89333485D01*
X178538190Y-89381104D01*
X178490571Y-89428723D01*
X178442952Y-89523961D01*
X168794134Y-86107543D02*
X168746515Y-86155162D01*
X168603658Y-86202781D01*
X168508420Y-86202781D01*
X168365562Y-86155162D01*
X168270324Y-86059924D01*
X168222705Y-85964686D01*
X168175086Y-85774210D01*
X168175086Y-85631352D01*
X168222705Y-85440876D01*
X168270324Y-85345638D01*
X168365562Y-85250400D01*
X168508420Y-85202781D01*
X168603658Y-85202781D01*
X168746515Y-85250400D01*
X168794134Y-85298019D01*
X169270324Y-86202781D02*
X169460800Y-86202781D01*
X169556039Y-86155162D01*
X169603658Y-86107543D01*
X169698896Y-85964686D01*
X169746515Y-85774210D01*
X169746515Y-85393257D01*
X169698896Y-85298019D01*
X169651277Y-85250400D01*
X169556039Y-85202781D01*
X169365562Y-85202781D01*
X169270324Y-85250400D01*
X169222705Y-85298019D01*
X169175086Y-85393257D01*
X169175086Y-85631352D01*
X169222705Y-85726590D01*
X169270324Y-85774210D01*
X169365562Y-85821829D01*
X169556039Y-85821829D01*
X169651277Y-85774210D01*
X169698896Y-85726590D01*
X169746515Y-85631352D01*
X175023543Y-104395543D02*
X174975924Y-104443162D01*
X174833067Y-104490781D01*
X174737829Y-104490781D01*
X174594971Y-104443162D01*
X174499733Y-104347924D01*
X174452114Y-104252686D01*
X174404495Y-104062210D01*
X174404495Y-103919352D01*
X174452114Y-103728876D01*
X174499733Y-103633638D01*
X174594971Y-103538400D01*
X174737829Y-103490781D01*
X174833067Y-103490781D01*
X174975924Y-103538400D01*
X175023543Y-103586019D01*
X175975924Y-104490781D02*
X175404495Y-104490781D01*
X175690209Y-104490781D02*
X175690209Y-103490781D01*
X175594971Y-103633638D01*
X175499733Y-103728876D01*
X175404495Y-103776495D01*
X176594971Y-103490781D02*
X176690210Y-103490781D01*
X176785448Y-103538400D01*
X176833067Y-103586019D01*
X176880686Y-103681257D01*
X176928305Y-103871733D01*
X176928305Y-104109829D01*
X176880686Y-104300305D01*
X176833067Y-104395543D01*
X176785448Y-104443162D01*
X176690210Y-104490781D01*
X176594971Y-104490781D01*
X176499733Y-104443162D01*
X176452114Y-104395543D01*
X176404495Y-104300305D01*
X176356876Y-104109829D01*
X176356876Y-103871733D01*
X176404495Y-103681257D01*
X176452114Y-103586019D01*
X176499733Y-103538400D01*
X176594971Y-103490781D01*
X155398743Y-104097057D02*
X155446362Y-104144676D01*
X155493981Y-104287533D01*
X155493981Y-104382771D01*
X155446362Y-104525629D01*
X155351124Y-104620867D01*
X155255886Y-104668486D01*
X155065410Y-104716105D01*
X154922552Y-104716105D01*
X154732076Y-104668486D01*
X154636838Y-104620867D01*
X154541600Y-104525629D01*
X154493981Y-104382771D01*
X154493981Y-104287533D01*
X154541600Y-104144676D01*
X154589219Y-104097057D01*
X155493981Y-103144676D02*
X155493981Y-103716105D01*
X155493981Y-103430391D02*
X154493981Y-103430391D01*
X154636838Y-103525629D01*
X154732076Y-103620867D01*
X154779695Y-103716105D01*
X155493981Y-102192295D02*
X155493981Y-102763724D01*
X155493981Y-102478010D02*
X154493981Y-102478010D01*
X154636838Y-102573248D01*
X154732076Y-102668486D01*
X154779695Y-102763724D01*
X165250905Y-98674181D02*
X165250905Y-97674181D01*
X165489000Y-97674181D01*
X165631858Y-97721800D01*
X165727096Y-97817038D01*
X165774715Y-97912276D01*
X165822334Y-98102752D01*
X165822334Y-98245610D01*
X165774715Y-98436086D01*
X165727096Y-98531324D01*
X165631858Y-98626562D01*
X165489000Y-98674181D01*
X165250905Y-98674181D01*
X166774715Y-98674181D02*
X166203286Y-98674181D01*
X166489000Y-98674181D02*
X166489000Y-97674181D01*
X166393762Y-97817038D01*
X166298524Y-97912276D01*
X166203286Y-97959895D01*
X179754305Y-94000581D02*
X179754305Y-93000581D01*
X179992400Y-93000581D01*
X180135258Y-93048200D01*
X180230496Y-93143438D01*
X180278115Y-93238676D01*
X180325734Y-93429152D01*
X180325734Y-93572010D01*
X180278115Y-93762486D01*
X180230496Y-93857724D01*
X180135258Y-93952962D01*
X179992400Y-94000581D01*
X179754305Y-94000581D01*
X180706686Y-93095819D02*
X180754305Y-93048200D01*
X180849543Y-93000581D01*
X181087639Y-93000581D01*
X181182877Y-93048200D01*
X181230496Y-93095819D01*
X181278115Y-93191057D01*
X181278115Y-93286295D01*
X181230496Y-93429152D01*
X180659067Y-94000581D01*
X181278115Y-94000581D01*
X170592762Y-102858819D02*
X170497524Y-102811200D01*
X170402286Y-102715962D01*
X170259429Y-102573105D01*
X170164190Y-102525486D01*
X170068952Y-102525486D01*
X170116571Y-102763581D02*
X170021333Y-102715962D01*
X169926095Y-102620724D01*
X169878476Y-102430248D01*
X169878476Y-102096914D01*
X169926095Y-101906438D01*
X170021333Y-101811200D01*
X170116571Y-101763581D01*
X170307048Y-101763581D01*
X170402286Y-101811200D01*
X170497524Y-101906438D01*
X170545143Y-102096914D01*
X170545143Y-102430248D01*
X170497524Y-102620724D01*
X170402286Y-102715962D01*
X170307048Y-102763581D01*
X170116571Y-102763581D01*
X170926095Y-101858819D02*
X170973714Y-101811200D01*
X171068952Y-101763581D01*
X171307048Y-101763581D01*
X171402286Y-101811200D01*
X171449905Y-101858819D01*
X171497524Y-101954057D01*
X171497524Y-102049295D01*
X171449905Y-102192152D01*
X170878476Y-102763581D01*
X171497524Y-102763581D01*
X173081962Y-102858819D02*
X172986724Y-102811200D01*
X172891486Y-102715962D01*
X172748629Y-102573105D01*
X172653390Y-102525486D01*
X172558152Y-102525486D01*
X172605771Y-102763581D02*
X172510533Y-102715962D01*
X172415295Y-102620724D01*
X172367676Y-102430248D01*
X172367676Y-102096914D01*
X172415295Y-101906438D01*
X172510533Y-101811200D01*
X172605771Y-101763581D01*
X172796248Y-101763581D01*
X172891486Y-101811200D01*
X172986724Y-101906438D01*
X173034343Y-102096914D01*
X173034343Y-102430248D01*
X172986724Y-102620724D01*
X172891486Y-102715962D01*
X172796248Y-102763581D01*
X172605771Y-102763581D01*
X173367676Y-101763581D02*
X173986724Y-101763581D01*
X173653390Y-102144533D01*
X173796248Y-102144533D01*
X173891486Y-102192152D01*
X173939105Y-102239771D01*
X173986724Y-102335010D01*
X173986724Y-102573105D01*
X173939105Y-102668343D01*
X173891486Y-102715962D01*
X173796248Y-102763581D01*
X173510533Y-102763581D01*
X173415295Y-102715962D01*
X173367676Y-102668343D01*
X160894734Y-100883981D02*
X160561400Y-100407790D01*
X160323305Y-100883981D02*
X160323305Y-99883981D01*
X160704258Y-99883981D01*
X160799496Y-99931600D01*
X160847115Y-99979219D01*
X160894734Y-100074457D01*
X160894734Y-100217314D01*
X160847115Y-100312552D01*
X160799496Y-100360171D01*
X160704258Y-100407790D01*
X160323305Y-100407790D01*
X161847115Y-100883981D02*
X161275686Y-100883981D01*
X161561400Y-100883981D02*
X161561400Y-99883981D01*
X161466162Y-100026838D01*
X161370924Y-100122076D01*
X161275686Y-100169695D01*
X177820581Y-90133466D02*
X177344390Y-90466800D01*
X177820581Y-90704895D02*
X176820581Y-90704895D01*
X176820581Y-90323942D01*
X176868200Y-90228704D01*
X176915819Y-90181085D01*
X177011057Y-90133466D01*
X177153914Y-90133466D01*
X177249152Y-90181085D01*
X177296771Y-90228704D01*
X177344390Y-90323942D01*
X177344390Y-90704895D01*
X176820581Y-89800133D02*
X176820581Y-89181085D01*
X177201533Y-89514419D01*
X177201533Y-89371561D01*
X177249152Y-89276323D01*
X177296771Y-89228704D01*
X177392010Y-89181085D01*
X177630105Y-89181085D01*
X177725343Y-89228704D01*
X177772962Y-89276323D01*
X177820581Y-89371561D01*
X177820581Y-89657276D01*
X177772962Y-89752514D01*
X177725343Y-89800133D01*
X166279534Y-86431381D02*
X165946200Y-85955190D01*
X165708105Y-86431381D02*
X165708105Y-85431381D01*
X166089058Y-85431381D01*
X166184296Y-85479000D01*
X166231915Y-85526619D01*
X166279534Y-85621857D01*
X166279534Y-85764714D01*
X166231915Y-85859952D01*
X166184296Y-85907571D01*
X166089058Y-85955190D01*
X165708105Y-85955190D01*
X167136677Y-85764714D02*
X167136677Y-86431381D01*
X166898581Y-85383762D02*
X166660486Y-86098048D01*
X167279534Y-86098048D01*
X155874981Y-89574666D02*
X155398790Y-89908000D01*
X155874981Y-90146095D02*
X154874981Y-90146095D01*
X154874981Y-89765142D01*
X154922600Y-89669904D01*
X154970219Y-89622285D01*
X155065457Y-89574666D01*
X155208314Y-89574666D01*
X155303552Y-89622285D01*
X155351171Y-89669904D01*
X155398790Y-89765142D01*
X155398790Y-90146095D01*
X154874981Y-88669904D02*
X154874981Y-89146095D01*
X155351171Y-89193714D01*
X155303552Y-89146095D01*
X155255933Y-89050857D01*
X155255933Y-88812761D01*
X155303552Y-88717523D01*
X155351171Y-88669904D01*
X155446410Y-88622285D01*
X155684505Y-88622285D01*
X155779743Y-88669904D01*
X155827362Y-88717523D01*
X155874981Y-88812761D01*
X155874981Y-89050857D01*
X155827362Y-89146095D01*
X155779743Y-89193714D01*
X179335134Y-95600781D02*
X179001800Y-95124590D01*
X178763705Y-95600781D02*
X178763705Y-94600781D01*
X179144658Y-94600781D01*
X179239896Y-94648400D01*
X179287515Y-94696019D01*
X179335134Y-94791257D01*
X179335134Y-94934114D01*
X179287515Y-95029352D01*
X179239896Y-95076971D01*
X179144658Y-95124590D01*
X178763705Y-95124590D01*
X180192277Y-94600781D02*
X180001800Y-94600781D01*
X179906562Y-94648400D01*
X179858943Y-94696019D01*
X179763705Y-94838876D01*
X179716086Y-95029352D01*
X179716086Y-95410305D01*
X179763705Y-95505543D01*
X179811324Y-95553162D01*
X179906562Y-95600781D01*
X180097039Y-95600781D01*
X180192277Y-95553162D01*
X180239896Y-95505543D01*
X180287515Y-95410305D01*
X180287515Y-95172210D01*
X180239896Y-95076971D01*
X180192277Y-95029352D01*
X180097039Y-94981733D01*
X179906562Y-94981733D01*
X179811324Y-95029352D01*
X179763705Y-95076971D01*
X179716086Y-95172210D01*
X170368934Y-104566981D02*
X170035600Y-104090790D01*
X169797505Y-104566981D02*
X169797505Y-103566981D01*
X170178458Y-103566981D01*
X170273696Y-103614600D01*
X170321315Y-103662219D01*
X170368934Y-103757457D01*
X170368934Y-103900314D01*
X170321315Y-103995552D01*
X170273696Y-104043171D01*
X170178458Y-104090790D01*
X169797505Y-104090790D01*
X170702267Y-103566981D02*
X171368934Y-103566981D01*
X170940362Y-104566981D01*
X155544781Y-101309466D02*
X155068590Y-101642800D01*
X155544781Y-101880895D02*
X154544781Y-101880895D01*
X154544781Y-101499942D01*
X154592400Y-101404704D01*
X154640019Y-101357085D01*
X154735257Y-101309466D01*
X154878114Y-101309466D01*
X154973352Y-101357085D01*
X155020971Y-101404704D01*
X155068590Y-101499942D01*
X155068590Y-101880895D01*
X154973352Y-100738038D02*
X154925733Y-100833276D01*
X154878114Y-100880895D01*
X154782876Y-100928514D01*
X154735257Y-100928514D01*
X154640019Y-100880895D01*
X154592400Y-100833276D01*
X154544781Y-100738038D01*
X154544781Y-100547561D01*
X154592400Y-100452323D01*
X154640019Y-100404704D01*
X154735257Y-100357085D01*
X154782876Y-100357085D01*
X154878114Y-100404704D01*
X154925733Y-100452323D01*
X154973352Y-100547561D01*
X154973352Y-100738038D01*
X155020971Y-100833276D01*
X155068590Y-100880895D01*
X155163829Y-100928514D01*
X155354305Y-100928514D01*
X155449543Y-100880895D01*
X155497162Y-100833276D01*
X155544781Y-100738038D01*
X155544781Y-100547561D01*
X155497162Y-100452323D01*
X155449543Y-100404704D01*
X155354305Y-100357085D01*
X155163829Y-100357085D01*
X155068590Y-100404704D01*
X155020971Y-100452323D01*
X154973352Y-100547561D01*
X176474381Y-89168266D02*
X175998190Y-89501600D01*
X176474381Y-89739695D02*
X175474381Y-89739695D01*
X175474381Y-89358742D01*
X175522000Y-89263504D01*
X175569619Y-89215885D01*
X175664857Y-89168266D01*
X175807714Y-89168266D01*
X175902952Y-89215885D01*
X175950571Y-89263504D01*
X175998190Y-89358742D01*
X175998190Y-89739695D01*
X176474381Y-88692076D02*
X176474381Y-88501600D01*
X176426762Y-88406361D01*
X176379143Y-88358742D01*
X176236286Y-88263504D01*
X176045810Y-88215885D01*
X175664857Y-88215885D01*
X175569619Y-88263504D01*
X175522000Y-88311123D01*
X175474381Y-88406361D01*
X175474381Y-88596838D01*
X175522000Y-88692076D01*
X175569619Y-88739695D01*
X175664857Y-88787314D01*
X175902952Y-88787314D01*
X175998190Y-88739695D01*
X176045810Y-88692076D01*
X176093429Y-88596838D01*
X176093429Y-88406361D01*
X176045810Y-88311123D01*
X175998190Y-88263504D01*
X175902952Y-88215885D01*
X178963581Y-87866457D02*
X178487390Y-88199791D01*
X178963581Y-88437886D02*
X177963581Y-88437886D01*
X177963581Y-88056933D01*
X178011200Y-87961695D01*
X178058819Y-87914076D01*
X178154057Y-87866457D01*
X178296914Y-87866457D01*
X178392152Y-87914076D01*
X178439771Y-87961695D01*
X178487390Y-88056933D01*
X178487390Y-88437886D01*
X178963581Y-86914076D02*
X178963581Y-87485505D01*
X178963581Y-87199791D02*
X177963581Y-87199791D01*
X178106438Y-87295029D01*
X178201676Y-87390267D01*
X178249295Y-87485505D01*
X177963581Y-86295029D02*
X177963581Y-86199790D01*
X178011200Y-86104552D01*
X178058819Y-86056933D01*
X178154057Y-86009314D01*
X178344533Y-85961695D01*
X178582629Y-85961695D01*
X178773105Y-86009314D01*
X178868343Y-86056933D01*
X178915962Y-86104552D01*
X178963581Y-86199790D01*
X178963581Y-86295029D01*
X178915962Y-86390267D01*
X178868343Y-86437886D01*
X178773105Y-86485505D01*
X178582629Y-86533124D01*
X178344533Y-86533124D01*
X178154057Y-86485505D01*
X178058819Y-86437886D01*
X178011200Y-86390267D01*
X177963581Y-86295029D01*
X180182781Y-90457257D02*
X179706590Y-90790591D01*
X180182781Y-91028686D02*
X179182781Y-91028686D01*
X179182781Y-90647733D01*
X179230400Y-90552495D01*
X179278019Y-90504876D01*
X179373257Y-90457257D01*
X179516114Y-90457257D01*
X179611352Y-90504876D01*
X179658971Y-90552495D01*
X179706590Y-90647733D01*
X179706590Y-91028686D01*
X180182781Y-89504876D02*
X180182781Y-90076305D01*
X180182781Y-89790591D02*
X179182781Y-89790591D01*
X179325638Y-89885829D01*
X179420876Y-89981067D01*
X179468495Y-90076305D01*
X179278019Y-89123924D02*
X179230400Y-89076305D01*
X179182781Y-88981067D01*
X179182781Y-88742971D01*
X179230400Y-88647733D01*
X179278019Y-88600114D01*
X179373257Y-88552495D01*
X179468495Y-88552495D01*
X179611352Y-88600114D01*
X180182781Y-89171543D01*
X180182781Y-88552495D01*
X179265343Y-97073981D02*
X178932009Y-96597790D01*
X178693914Y-97073981D02*
X178693914Y-96073981D01*
X179074867Y-96073981D01*
X179170105Y-96121600D01*
X179217724Y-96169219D01*
X179265343Y-96264457D01*
X179265343Y-96407314D01*
X179217724Y-96502552D01*
X179170105Y-96550171D01*
X179074867Y-96597790D01*
X178693914Y-96597790D01*
X180217724Y-97073981D02*
X179646295Y-97073981D01*
X179932009Y-97073981D02*
X179932009Y-96073981D01*
X179836771Y-96216838D01*
X179741533Y-96312076D01*
X179646295Y-96359695D01*
X180551057Y-96073981D02*
X181170105Y-96073981D01*
X180836771Y-96454933D01*
X180979629Y-96454933D01*
X181074867Y-96502552D01*
X181122486Y-96550171D01*
X181170105Y-96645410D01*
X181170105Y-96883505D01*
X181122486Y-96978743D01*
X181074867Y-97026362D01*
X180979629Y-97073981D01*
X180693914Y-97073981D01*
X180598676Y-97026362D01*
X180551057Y-96978743D01*
X175277543Y-101366581D02*
X174944209Y-100890390D01*
X174706114Y-101366581D02*
X174706114Y-100366581D01*
X175087067Y-100366581D01*
X175182305Y-100414200D01*
X175229924Y-100461819D01*
X175277543Y-100557057D01*
X175277543Y-100699914D01*
X175229924Y-100795152D01*
X175182305Y-100842771D01*
X175087067Y-100890390D01*
X174706114Y-100890390D01*
X176229924Y-101366581D02*
X175658495Y-101366581D01*
X175944209Y-101366581D02*
X175944209Y-100366581D01*
X175848971Y-100509438D01*
X175753733Y-100604676D01*
X175658495Y-100652295D01*
X177087067Y-100699914D02*
X177087067Y-101366581D01*
X176848971Y-100318962D02*
X176610876Y-101033248D01*
X177229924Y-101033248D01*
X172229543Y-104420943D02*
X172181924Y-104468562D01*
X172039067Y-104516181D01*
X171943829Y-104516181D01*
X171800971Y-104468562D01*
X171705733Y-104373324D01*
X171658114Y-104278086D01*
X171610495Y-104087610D01*
X171610495Y-103944752D01*
X171658114Y-103754276D01*
X171705733Y-103659038D01*
X171800971Y-103563800D01*
X171943829Y-103516181D01*
X172039067Y-103516181D01*
X172181924Y-103563800D01*
X172229543Y-103611419D01*
X173181924Y-104516181D02*
X172610495Y-104516181D01*
X172896209Y-104516181D02*
X172896209Y-103516181D01*
X172800971Y-103659038D01*
X172705733Y-103754276D01*
X172610495Y-103801895D01*
X174039067Y-103849514D02*
X174039067Y-104516181D01*
X173800971Y-103468562D02*
X173562876Y-104182848D01*
X174181924Y-104182848D01*
X171061143Y-86132943D02*
X171013524Y-86180562D01*
X170870667Y-86228181D01*
X170775429Y-86228181D01*
X170632571Y-86180562D01*
X170537333Y-86085324D01*
X170489714Y-85990086D01*
X170442095Y-85799610D01*
X170442095Y-85656752D01*
X170489714Y-85466276D01*
X170537333Y-85371038D01*
X170632571Y-85275800D01*
X170775429Y-85228181D01*
X170870667Y-85228181D01*
X171013524Y-85275800D01*
X171061143Y-85323419D01*
X172013524Y-86228181D02*
X171442095Y-86228181D01*
X171727809Y-86228181D02*
X171727809Y-85228181D01*
X171632571Y-85371038D01*
X171537333Y-85466276D01*
X171442095Y-85513895D01*
X172918286Y-85228181D02*
X172442095Y-85228181D01*
X172394476Y-85704371D01*
X172442095Y-85656752D01*
X172537333Y-85609133D01*
X172775429Y-85609133D01*
X172870667Y-85656752D01*
X172918286Y-85704371D01*
X172965905Y-85799610D01*
X172965905Y-86037705D01*
X172918286Y-86132943D01*
X172870667Y-86180562D01*
X172775429Y-86228181D01*
X172537333Y-86228181D01*
X172442095Y-86180562D01*
X172394476Y-86132943D01*
X175125143Y-102865181D02*
X174791809Y-102388990D01*
X174553714Y-102865181D02*
X174553714Y-101865181D01*
X174934667Y-101865181D01*
X175029905Y-101912800D01*
X175077524Y-101960419D01*
X175125143Y-102055657D01*
X175125143Y-102198514D01*
X175077524Y-102293752D01*
X175029905Y-102341371D01*
X174934667Y-102388990D01*
X174553714Y-102388990D01*
X176077524Y-102865181D02*
X175506095Y-102865181D01*
X175791809Y-102865181D02*
X175791809Y-101865181D01*
X175696571Y-102008038D01*
X175601333Y-102103276D01*
X175506095Y-102150895D01*
X176982286Y-101865181D02*
X176506095Y-101865181D01*
X176458476Y-102341371D01*
X176506095Y-102293752D01*
X176601333Y-102246133D01*
X176839429Y-102246133D01*
X176934667Y-102293752D01*
X176982286Y-102341371D01*
X177029905Y-102436610D01*
X177029905Y-102674705D01*
X176982286Y-102769943D01*
X176934667Y-102817562D01*
X176839429Y-102865181D01*
X176601333Y-102865181D01*
X176506095Y-102817562D01*
X176458476Y-102769943D01*
X156435467Y-96931171D02*
X156102133Y-96931171D01*
X156102133Y-97454981D02*
X156102133Y-96454981D01*
X156578324Y-96454981D01*
X157483086Y-97454981D02*
X156911657Y-97454981D01*
X157197371Y-97454981D02*
X157197371Y-96454981D01*
X157102133Y-96597838D01*
X157006895Y-96693076D01*
X156911657Y-96740695D01*
X155752895Y-85888581D02*
X155752895Y-86698105D01*
X155800514Y-86793343D01*
X155848133Y-86840962D01*
X155943371Y-86888581D01*
X156133848Y-86888581D01*
X156229086Y-86840962D01*
X156276705Y-86793343D01*
X156324324Y-86698105D01*
X156324324Y-85888581D01*
X156752895Y-85983819D02*
X156800514Y-85936200D01*
X156895752Y-85888581D01*
X157133848Y-85888581D01*
X157229086Y-85936200D01*
X157276705Y-85983819D01*
X157324324Y-86079057D01*
X157324324Y-86174295D01*
X157276705Y-86317152D01*
X156705276Y-86888581D01*
X157324324Y-86888581D01*
X167690895Y-99909381D02*
X167690895Y-100718905D01*
X167738514Y-100814143D01*
X167786133Y-100861762D01*
X167881371Y-100909381D01*
X168071848Y-100909381D01*
X168167086Y-100861762D01*
X168214705Y-100814143D01*
X168262324Y-100718905D01*
X168262324Y-99909381D01*
X169167086Y-100242714D02*
X169167086Y-100909381D01*
X168928990Y-99861762D02*
X168690895Y-100576048D01*
X169309943Y-100576048D01*
X157942067Y-93502171D02*
X157608733Y-93502171D01*
X157608733Y-94025981D02*
X157608733Y-93025981D01*
X158084924Y-93025981D01*
X158799210Y-93502171D02*
X158942067Y-93549790D01*
X158989686Y-93597410D01*
X159037305Y-93692648D01*
X159037305Y-93835505D01*
X158989686Y-93930743D01*
X158942067Y-93978362D01*
X158846829Y-94025981D01*
X158465876Y-94025981D01*
X158465876Y-93025981D01*
X158799210Y-93025981D01*
X158894448Y-93073600D01*
X158942067Y-93121219D01*
X158989686Y-93216457D01*
X158989686Y-93311695D01*
X158942067Y-93406933D01*
X158894448Y-93454552D01*
X158799210Y-93502171D01*
X158465876Y-93502171D01*
X159989686Y-94025981D02*
X159418257Y-94025981D01*
X159703971Y-94025981D02*
X159703971Y-93025981D01*
X159608733Y-93168838D01*
X159513495Y-93264076D01*
X159418257Y-93311695D01*
X160609067Y-91622571D02*
X160275733Y-91622571D01*
X160275733Y-92146381D02*
X160275733Y-91146381D01*
X160751924Y-91146381D01*
X161466210Y-91622571D02*
X161609067Y-91670190D01*
X161656686Y-91717810D01*
X161704305Y-91813048D01*
X161704305Y-91955905D01*
X161656686Y-92051143D01*
X161609067Y-92098762D01*
X161513829Y-92146381D01*
X161132876Y-92146381D01*
X161132876Y-91146381D01*
X161466210Y-91146381D01*
X161561448Y-91194000D01*
X161609067Y-91241619D01*
X161656686Y-91336857D01*
X161656686Y-91432095D01*
X161609067Y-91527333D01*
X161561448Y-91574952D01*
X161466210Y-91622571D01*
X161132876Y-91622571D01*
X162085257Y-91241619D02*
X162132876Y-91194000D01*
X162228114Y-91146381D01*
X162466210Y-91146381D01*
X162561448Y-91194000D01*
X162609067Y-91241619D01*
X162656686Y-91336857D01*
X162656686Y-91432095D01*
X162609067Y-91574952D01*
X162037638Y-92146381D01*
X162656686Y-92146381D01*
X163047467Y-94467371D02*
X162714133Y-94467371D01*
X162714133Y-94991181D02*
X162714133Y-93991181D01*
X163190324Y-93991181D01*
X163904610Y-94467371D02*
X164047467Y-94514990D01*
X164095086Y-94562610D01*
X164142705Y-94657848D01*
X164142705Y-94800705D01*
X164095086Y-94895943D01*
X164047467Y-94943562D01*
X163952229Y-94991181D01*
X163571276Y-94991181D01*
X163571276Y-93991181D01*
X163904610Y-93991181D01*
X163999848Y-94038800D01*
X164047467Y-94086419D01*
X164095086Y-94181657D01*
X164095086Y-94276895D01*
X164047467Y-94372133D01*
X163999848Y-94419752D01*
X163904610Y-94467371D01*
X163571276Y-94467371D01*
X164476038Y-93991181D02*
X165095086Y-93991181D01*
X164761752Y-94372133D01*
X164904610Y-94372133D01*
X164999848Y-94419752D01*
X165047467Y-94467371D01*
X165095086Y-94562610D01*
X165095086Y-94800705D01*
X165047467Y-94895943D01*
X164999848Y-94943562D01*
X164904610Y-94991181D01*
X164618895Y-94991181D01*
X164523657Y-94943562D01*
X164476038Y-94895943D01*
X169676867Y-88625371D02*
X169343533Y-88625371D01*
X169343533Y-89149181D02*
X169343533Y-88149181D01*
X169819724Y-88149181D01*
X170534010Y-88625371D02*
X170676867Y-88672990D01*
X170724486Y-88720610D01*
X170772105Y-88815848D01*
X170772105Y-88958705D01*
X170724486Y-89053943D01*
X170676867Y-89101562D01*
X170581629Y-89149181D01*
X170200676Y-89149181D01*
X170200676Y-88149181D01*
X170534010Y-88149181D01*
X170629248Y-88196800D01*
X170676867Y-88244419D01*
X170724486Y-88339657D01*
X170724486Y-88434895D01*
X170676867Y-88530133D01*
X170629248Y-88577752D01*
X170534010Y-88625371D01*
X170200676Y-88625371D01*
X171629248Y-88482514D02*
X171629248Y-89149181D01*
X171391152Y-88101562D02*
X171153057Y-88815848D01*
X171772105Y-88815848D01*
X178179505Y-104490781D02*
X178179505Y-103490781D01*
X178560458Y-103490781D01*
X178655696Y-103538400D01*
X178703315Y-103586019D01*
X178750934Y-103681257D01*
X178750934Y-103824114D01*
X178703315Y-103919352D01*
X178655696Y-103966971D01*
X178560458Y-104014590D01*
X178179505Y-104014590D01*
X179131886Y-103586019D02*
X179179505Y-103538400D01*
X179274743Y-103490781D01*
X179512839Y-103490781D01*
X179608077Y-103538400D01*
X179655696Y-103586019D01*
X179703315Y-103681257D01*
X179703315Y-103776495D01*
X179655696Y-103919352D01*
X179084267Y-104490781D01*
X179703315Y-104490781D01*
X165811295Y-89393781D02*
X165811295Y-90203305D01*
X165858914Y-90298543D01*
X165906533Y-90346162D01*
X166001771Y-90393781D01*
X166192248Y-90393781D01*
X166287486Y-90346162D01*
X166335105Y-90298543D01*
X166382724Y-90203305D01*
X166382724Y-89393781D01*
X167382724Y-90393781D02*
X166811295Y-90393781D01*
X167097009Y-90393781D02*
X167097009Y-89393781D01*
X167001771Y-89536638D01*
X166906533Y-89631876D01*
X166811295Y-89679495D01*
M02*
