G04 #@! TF.FileFunction,Soldermask,Top*
%FSLAX46Y46*%
G04 Gerber Fmt 4.6, Leading zero omitted, Abs format (unit mm)*
G04 Created by KiCad (PCBNEW 4.0.1-stable) date 25/01/2016 20:42:59*
%MOMM*%
G01*
G04 APERTURE LIST*
%ADD10C,0.150000*%
%ADD11O,2.690000X1.190000*%
%ADD12O,4.180000X1.800000*%
%ADD13C,1.200000*%
%ADD14R,0.800000X0.700000*%
%ADD15R,0.700000X0.800000*%
%ADD16R,0.997560X0.997560*%
%ADD17R,1.000100X1.000100*%
%ADD18R,0.600000X0.800000*%
%ADD19R,0.800000X0.600000*%
%ADD20R,1.340460X2.229460*%
%ADD21R,1.750000X0.800000*%
%ADD22R,0.606400X0.860400*%
%ADD23R,1.100000X0.600000*%
%ADD24R,4.010000X1.470000*%
%ADD25R,1.500000X0.450000*%
%ADD26R,0.450000X1.500000*%
G04 APERTURE END LIST*
D10*
D11*
X153924000Y-98694200D03*
X153924000Y-96194100D03*
X153924000Y-94194100D03*
X153924000Y-91694000D03*
D12*
X151224000Y-101194000D03*
X151224000Y-89194000D03*
D13*
X151224000Y-93944000D03*
X151224000Y-97440000D03*
D14*
X160486000Y-97790000D03*
X161586000Y-97790000D03*
D15*
X173164500Y-87862500D03*
X173164500Y-86762500D03*
X174561500Y-87862500D03*
X174561500Y-86762500D03*
D14*
X163597500Y-92773500D03*
X164697500Y-92773500D03*
X164380000Y-96901000D03*
X163280000Y-96901000D03*
D15*
X177419000Y-92371000D03*
X177419000Y-91271000D03*
X169037000Y-87862500D03*
X169037000Y-86762500D03*
D14*
X164677000Y-104076500D03*
X165777000Y-104076500D03*
D15*
X156273500Y-103991500D03*
X156273500Y-102891500D03*
D16*
X163080700Y-99250500D03*
X164579300Y-99250500D03*
X179057300Y-93535500D03*
X177558700Y-93535500D03*
D17*
X157990500Y-102791260D03*
X159890500Y-102791260D03*
X158940500Y-100792280D03*
X161864000Y-102791260D03*
X163764000Y-102791260D03*
X162814000Y-100792280D03*
D18*
X160586000Y-99250500D03*
X161486000Y-99250500D03*
D19*
X178333400Y-91574200D03*
X178333400Y-92474200D03*
X166243000Y-87889500D03*
X166243000Y-86989500D03*
X156464000Y-89021500D03*
X156464000Y-89921500D03*
D18*
X178313500Y-95059500D03*
X177413500Y-95059500D03*
X158427000Y-104076500D03*
X159327000Y-104076500D03*
D19*
X156337000Y-101643600D03*
X156337000Y-100743600D03*
X176022000Y-87762500D03*
X176022000Y-86862500D03*
X177419000Y-86862500D03*
X177419000Y-87762500D03*
X179298600Y-91574200D03*
X179298600Y-92474200D03*
D18*
X178313500Y-96456500D03*
X177413500Y-96456500D03*
X165107200Y-101015800D03*
X166007200Y-101015800D03*
D14*
X163300500Y-104076500D03*
X162200500Y-104076500D03*
D15*
X171831000Y-86762500D03*
X171831000Y-87862500D03*
D18*
X165107200Y-102336600D03*
X166007200Y-102336600D03*
D20*
X156657040Y-98742500D03*
X159064960Y-98742500D03*
D21*
X158590000Y-86550500D03*
X158590000Y-87820500D03*
X158590000Y-89090500D03*
X158590000Y-90360500D03*
X163990000Y-90360500D03*
X163990000Y-89090500D03*
X163990000Y-87820500D03*
X163990000Y-86550500D03*
D22*
X169189400Y-101473000D03*
X167868600Y-101473000D03*
X168529000Y-101473000D03*
X167868600Y-103505000D03*
X169189400Y-103505000D03*
D23*
X157900000Y-94596000D03*
X159600000Y-94596000D03*
X159600000Y-95396000D03*
X157900000Y-95396000D03*
D14*
X161121000Y-92773500D03*
X162221000Y-92773500D03*
X163280000Y-95631000D03*
X164380000Y-95631000D03*
D15*
X170434000Y-86762500D03*
X170434000Y-87862500D03*
D24*
X186309000Y-86258400D03*
X186309000Y-88798400D03*
X186309000Y-91338400D03*
X186309000Y-93878400D03*
X186309000Y-96418400D03*
X186309000Y-98958400D03*
X186309000Y-101498400D03*
X186309000Y-104038400D03*
D25*
X166388800Y-91484000D03*
X166388800Y-91984000D03*
X166388800Y-92484000D03*
X166388800Y-92984000D03*
X166388800Y-93484000D03*
X166388800Y-93984000D03*
X166388800Y-94484000D03*
X166388800Y-94984000D03*
X166388800Y-95484000D03*
X166388800Y-95984000D03*
X166388800Y-96484000D03*
X166388800Y-96984000D03*
D26*
X167988800Y-98584000D03*
X168488800Y-98584000D03*
X168988800Y-98584000D03*
X169488800Y-98584000D03*
X169988800Y-98584000D03*
X170488800Y-98584000D03*
X170988800Y-98584000D03*
X171488800Y-98584000D03*
X171988800Y-98584000D03*
X172488800Y-98584000D03*
X172988800Y-98584000D03*
X173488800Y-98584000D03*
D25*
X175088800Y-96984000D03*
X175088800Y-96484000D03*
X175088800Y-95984000D03*
X175088800Y-95484000D03*
X175088800Y-94984000D03*
X175088800Y-94484000D03*
X175088800Y-93984000D03*
X175088800Y-93484000D03*
X175088800Y-92984000D03*
X175088800Y-92484000D03*
X175088800Y-91984000D03*
X175088800Y-91484000D03*
D26*
X173488800Y-89884000D03*
X172988800Y-89884000D03*
X172488800Y-89884000D03*
X171988800Y-89884000D03*
X171488800Y-89884000D03*
X170988800Y-89884000D03*
X170488800Y-89884000D03*
X169988800Y-89884000D03*
X169488800Y-89884000D03*
X168988800Y-89884000D03*
X168488800Y-89884000D03*
X167988800Y-89884000D03*
M02*
