G04 #@! TF.FileFunction,Copper,L1,Top,Signal*
%FSLAX46Y46*%
G04 Gerber Fmt 4.6, Leading zero omitted, Abs format (unit mm)*
G04 Created by KiCad (PCBNEW 4.0.1-stable) date 25/01/2016 20:17:01*
%MOMM*%
G01*
G04 APERTURE LIST*
%ADD10C,0.150000*%
%ADD11O,2.490000X0.990000*%
%ADD12O,3.980000X1.600000*%
%ADD13C,1.000000*%
%ADD14R,0.600000X0.500000*%
%ADD15R,0.500000X0.600000*%
%ADD16R,0.797560X0.797560*%
%ADD17R,0.800100X0.800100*%
%ADD18R,0.400000X0.600000*%
%ADD19R,0.600000X0.400000*%
%ADD20R,1.140460X2.029460*%
%ADD21R,1.550000X0.600000*%
%ADD22R,0.406400X0.660400*%
%ADD23R,0.900000X0.400000*%
%ADD24R,3.810000X1.270000*%
%ADD25R,1.300000X0.250000*%
%ADD26R,0.250000X1.300000*%
%ADD27C,0.600000*%
%ADD28C,0.300000*%
%ADD29C,0.200000*%
%ADD30C,0.375000*%
%ADD31C,0.250000*%
%ADD32C,1.000000*%
%ADD33C,0.500000*%
G04 APERTURE END LIST*
D10*
D11*
X153924000Y-98694200D03*
X153924000Y-96194100D03*
X153924000Y-94194100D03*
X153924000Y-91694000D03*
D12*
X151224000Y-101194000D03*
X151224000Y-89194000D03*
D13*
X151224000Y-93944000D03*
X151224000Y-97440000D03*
D14*
X160486000Y-97790000D03*
X161586000Y-97790000D03*
D15*
X173164500Y-87862500D03*
X173164500Y-86762500D03*
X174561500Y-87862500D03*
X174561500Y-86762500D03*
D14*
X163597500Y-92773500D03*
X164697500Y-92773500D03*
X164380000Y-96901000D03*
X163280000Y-96901000D03*
D15*
X177419000Y-92371000D03*
X177419000Y-91271000D03*
X169037000Y-87862500D03*
X169037000Y-86762500D03*
D14*
X164677000Y-104076500D03*
X165777000Y-104076500D03*
D15*
X156273500Y-103991500D03*
X156273500Y-102891500D03*
D16*
X163080700Y-99250500D03*
X164579300Y-99250500D03*
X179057300Y-93535500D03*
X177558700Y-93535500D03*
D17*
X157990500Y-102791260D03*
X159890500Y-102791260D03*
X158940500Y-100792280D03*
X161864000Y-102791260D03*
X163764000Y-102791260D03*
X162814000Y-100792280D03*
D18*
X160586000Y-99250500D03*
X161486000Y-99250500D03*
D19*
X178333400Y-91574200D03*
X178333400Y-92474200D03*
X166243000Y-87889500D03*
X166243000Y-86989500D03*
X156464000Y-89021500D03*
X156464000Y-89921500D03*
D18*
X178313500Y-95059500D03*
X177413500Y-95059500D03*
X158427000Y-104076500D03*
X159327000Y-104076500D03*
D19*
X156337000Y-101643600D03*
X156337000Y-100743600D03*
X176022000Y-87762500D03*
X176022000Y-86862500D03*
X177419000Y-86862500D03*
X177419000Y-87762500D03*
X179298600Y-91574200D03*
X179298600Y-92474200D03*
D18*
X178313500Y-96456500D03*
X177413500Y-96456500D03*
X165107200Y-101015800D03*
X166007200Y-101015800D03*
D14*
X163300500Y-104076500D03*
X162200500Y-104076500D03*
D15*
X171831000Y-86762500D03*
X171831000Y-87862500D03*
D18*
X165107200Y-102336600D03*
X166007200Y-102336600D03*
D20*
X156657040Y-98742500D03*
X159064960Y-98742500D03*
D21*
X158590000Y-86550500D03*
X158590000Y-87820500D03*
X158590000Y-89090500D03*
X158590000Y-90360500D03*
X163990000Y-90360500D03*
X163990000Y-89090500D03*
X163990000Y-87820500D03*
X163990000Y-86550500D03*
D22*
X169189400Y-101473000D03*
X167868600Y-101473000D03*
X168529000Y-101473000D03*
X167868600Y-103505000D03*
X169189400Y-103505000D03*
D23*
X157900000Y-94596000D03*
X159600000Y-94596000D03*
X159600000Y-95396000D03*
X157900000Y-95396000D03*
D14*
X161121000Y-92773500D03*
X162221000Y-92773500D03*
X163280000Y-95631000D03*
X164380000Y-95631000D03*
D15*
X170434000Y-86762500D03*
X170434000Y-87862500D03*
D24*
X186309000Y-86258400D03*
X186309000Y-88798400D03*
X186309000Y-91338400D03*
X186309000Y-93878400D03*
X186309000Y-96418400D03*
X186309000Y-98958400D03*
X186309000Y-101498400D03*
X186309000Y-104038400D03*
D25*
X166388800Y-91484000D03*
X166388800Y-91984000D03*
X166388800Y-92484000D03*
X166388800Y-92984000D03*
X166388800Y-93484000D03*
X166388800Y-93984000D03*
X166388800Y-94484000D03*
X166388800Y-94984000D03*
X166388800Y-95484000D03*
X166388800Y-95984000D03*
X166388800Y-96484000D03*
X166388800Y-96984000D03*
D26*
X167988800Y-98584000D03*
X168488800Y-98584000D03*
X168988800Y-98584000D03*
X169488800Y-98584000D03*
X169988800Y-98584000D03*
X170488800Y-98584000D03*
X170988800Y-98584000D03*
X171488800Y-98584000D03*
X171988800Y-98584000D03*
X172488800Y-98584000D03*
X172988800Y-98584000D03*
X173488800Y-98584000D03*
D25*
X175088800Y-96984000D03*
X175088800Y-96484000D03*
X175088800Y-95984000D03*
X175088800Y-95484000D03*
X175088800Y-94984000D03*
X175088800Y-94484000D03*
X175088800Y-93984000D03*
X175088800Y-93484000D03*
X175088800Y-92984000D03*
X175088800Y-92484000D03*
X175088800Y-91984000D03*
X175088800Y-91484000D03*
D26*
X173488800Y-89884000D03*
X172988800Y-89884000D03*
X172488800Y-89884000D03*
X171988800Y-89884000D03*
X171488800Y-89884000D03*
X170988800Y-89884000D03*
X170488800Y-89884000D03*
X169988800Y-89884000D03*
X169488800Y-89884000D03*
X168988800Y-89884000D03*
X168488800Y-89884000D03*
X167988800Y-89884000D03*
D27*
X156921200Y-104013000D03*
X159994600Y-99237800D03*
X159689800Y-104216200D03*
X171983400Y-91643200D03*
X165354000Y-96215200D03*
X166420800Y-104140000D03*
X166039800Y-99822000D03*
X173405800Y-99885500D03*
X167678100Y-100761800D03*
X155168600Y-103339900D03*
X158051500Y-97155000D03*
X163004500Y-97663000D03*
X164630100Y-93294200D03*
X176377600Y-91706700D03*
X177406300Y-88328500D03*
X174891700Y-87007700D03*
X172135800Y-87020400D03*
X169532300Y-86258400D03*
X167284400Y-87553800D03*
X165582600Y-88798400D03*
X167792400Y-89027000D03*
X172707300Y-97243900D03*
X154622500Y-99758500D03*
X161290000Y-93853000D03*
X161290000Y-95186500D03*
X156845000Y-93154500D03*
X157035500Y-97028000D03*
X170611800Y-91541600D03*
X155625800Y-87934800D03*
X161302700Y-100698300D03*
X172161200Y-92887800D03*
X163677600Y-104165400D03*
X162255200Y-95681800D03*
X160375600Y-92735400D03*
X169849800Y-91871800D03*
X156540200Y-87731600D03*
X169164000Y-91516200D03*
X156921200Y-87045800D03*
X175996600Y-88188800D03*
X159943800Y-101396800D03*
X160909000Y-91719400D03*
X162369500Y-91313000D03*
X166966900Y-101549200D03*
X170307000Y-104089200D03*
X173812200Y-93446600D03*
X180136800Y-94030800D03*
X180467000Y-91770200D03*
X181051200Y-88925400D03*
X182803800Y-86207600D03*
X176098200Y-86233000D03*
X168224200Y-103327200D03*
X174574200Y-98120200D03*
X172516800Y-94361000D03*
X157784800Y-104190800D03*
X179095400Y-96672400D03*
X161671000Y-104089200D03*
X178993800Y-95707200D03*
X157784800Y-100787200D03*
D10*
X156921200Y-104013000D02*
X156899700Y-103991500D01*
X156273500Y-103991500D02*
X156899700Y-103991500D01*
D28*
X159499300Y-98742500D02*
X159994600Y-99237800D01*
D29*
X159689800Y-104216200D02*
X159327000Y-104234400D01*
X159327000Y-104234400D02*
X159327000Y-104076500D01*
D28*
X159499300Y-98742500D02*
X159064960Y-98742500D01*
D30*
X160586000Y-99250500D02*
X160586000Y-102095760D01*
X160586000Y-102095760D02*
X159890500Y-102791260D01*
D31*
X159327000Y-104076500D02*
X159327000Y-104020200D01*
D28*
X159327000Y-104020200D02*
X159890500Y-103456700D01*
X159890500Y-103456700D02*
X159890500Y-102791260D01*
X171983400Y-91643200D02*
X172001500Y-91625100D01*
X160486000Y-97790000D02*
X160486000Y-98383000D01*
X160586000Y-98483000D02*
X160586000Y-99250500D01*
X160486000Y-98383000D02*
X160586000Y-98483000D01*
D30*
X160586000Y-99250500D02*
X159572960Y-99250500D01*
X159572960Y-99250500D02*
X159064960Y-98742500D01*
D28*
X172001500Y-91625100D02*
X172001500Y-89884000D01*
D31*
X168001500Y-89884000D02*
X168001500Y-89236100D01*
X168001500Y-89236100D02*
X167792400Y-89027000D01*
D29*
X166401500Y-95484000D02*
X166085200Y-95484000D01*
X166085200Y-95484000D02*
X165354000Y-96215200D01*
D30*
X166401500Y-95984000D02*
X165585200Y-95984000D01*
X165585200Y-95984000D02*
X165354000Y-96215200D01*
D31*
X166401500Y-95984000D02*
X166401500Y-96484000D01*
X166401500Y-95484000D02*
X166401500Y-95984000D01*
X166243000Y-103962200D02*
X166420800Y-104140000D01*
X165777000Y-104076500D02*
X166243000Y-103962200D01*
D29*
X172501500Y-98584000D02*
X172501500Y-99222500D01*
X172501500Y-99222500D02*
X173164500Y-99885500D01*
X173164500Y-99885500D02*
X173405800Y-99885500D01*
D31*
X164579300Y-99250500D02*
X165468300Y-99250500D01*
X165468300Y-99250500D02*
X166039800Y-99822000D01*
X173001500Y-99481200D02*
X173405800Y-99885500D01*
X173001500Y-98584000D02*
X172501500Y-98584000D01*
X167868600Y-101473000D02*
X167868600Y-100952300D01*
X167868600Y-100952300D02*
X167678100Y-100761800D01*
X155617000Y-102891500D02*
X155168600Y-103339900D01*
X155617000Y-102891500D02*
X156273500Y-102891500D01*
X163280000Y-96901000D02*
X163280000Y-97387500D01*
X163280000Y-97387500D02*
X163004500Y-97663000D01*
X164697500Y-92773500D02*
X164697500Y-93226800D01*
X164697500Y-93226800D02*
X164630100Y-93294200D01*
X175101500Y-91984000D02*
X176100300Y-91984000D01*
X176100300Y-91984000D02*
X176377600Y-91706700D01*
D30*
X177419000Y-87762500D02*
X177419000Y-88315800D01*
X177419000Y-88315800D02*
X177406300Y-88328500D01*
X173164500Y-86762500D02*
X174561500Y-86762500D01*
X174561500Y-86762500D02*
X174806700Y-87007700D01*
X174806700Y-87007700D02*
X174891700Y-87007700D01*
X172135800Y-87020400D02*
X171954100Y-86762500D01*
X171954100Y-86762500D02*
X171831000Y-86762500D01*
X169037000Y-86762500D02*
X169037000Y-86753700D01*
X169037000Y-86753700D02*
X169532300Y-86258400D01*
X166243000Y-86989500D02*
X166720100Y-86989500D01*
X166720100Y-86989500D02*
X167284400Y-87553800D01*
D29*
X175101500Y-91484000D02*
X175101500Y-91984000D01*
X177419000Y-91271000D02*
X176775200Y-91271000D01*
D31*
X176562200Y-91484000D02*
X175101500Y-91484000D01*
D29*
X176775200Y-91271000D02*
X176562200Y-91484000D01*
D32*
X153924000Y-91694000D02*
X153111200Y-91694000D01*
X153111200Y-91694000D02*
X151224000Y-89806800D01*
X151224000Y-89806800D02*
X151224000Y-89194000D01*
D30*
X156273500Y-102891500D02*
X154885300Y-102891500D01*
X154885300Y-102891500D02*
X153187800Y-101194000D01*
X153187800Y-101194000D02*
X151224000Y-101194000D01*
D31*
X163280000Y-96901000D02*
X163280000Y-97163800D01*
X164579300Y-98463100D02*
X164579300Y-99250500D01*
X163280000Y-97163800D02*
X164579300Y-98463100D01*
X163280000Y-96901000D02*
X162179000Y-96901000D01*
X161586000Y-97494000D02*
X161586000Y-97790000D01*
X162179000Y-96901000D02*
X161586000Y-97494000D01*
D10*
X166401500Y-92984000D02*
X164908000Y-92984000D01*
X164908000Y-92984000D02*
X164697500Y-92773500D01*
D31*
X168501500Y-89884000D02*
X168501500Y-89202700D01*
X168325800Y-89027000D02*
X167792400Y-89027000D01*
X168501500Y-89202700D02*
X168325800Y-89027000D01*
X173001500Y-97538100D02*
X173001500Y-98584000D01*
X172707300Y-97243900D02*
X173001500Y-97538100D01*
X173001500Y-98584000D02*
X173001500Y-99481200D01*
X167309800Y-96984000D02*
X167430000Y-96984000D01*
X173501500Y-97098300D02*
X173387200Y-96984000D01*
X173387200Y-96984000D02*
X172935900Y-96608900D01*
X173501500Y-97098300D02*
X173501500Y-98584000D01*
X167805100Y-96608900D02*
X172935900Y-96608900D01*
X167430000Y-96984000D02*
X167805100Y-96608900D01*
X166401500Y-96984000D02*
X167309800Y-96984000D01*
X167309800Y-96984000D02*
X167430000Y-96984000D01*
X168249600Y-96164400D02*
X167430000Y-96984000D01*
X168249600Y-91490800D02*
X168249600Y-96164400D01*
D10*
X169001500Y-87898000D02*
X169037000Y-87862500D01*
D31*
X169037000Y-87862500D02*
X170434000Y-87862500D01*
X169001500Y-89884000D02*
X169001500Y-90738900D01*
X169001500Y-90738900D02*
X168249600Y-91490800D01*
X169001500Y-89884000D02*
X169001500Y-87898000D01*
D33*
X153924000Y-98694200D02*
X153924000Y-99060000D01*
X153924000Y-99060000D02*
X154622500Y-99758500D01*
D32*
X153924000Y-98694200D02*
X156608740Y-98694200D01*
X156608740Y-98694200D02*
X156657040Y-98742500D01*
D29*
X159600000Y-94596000D02*
X164103000Y-94596000D01*
X164215000Y-94484000D02*
X166401500Y-94484000D01*
X164103000Y-94596000D02*
X164215000Y-94484000D01*
X159600000Y-95396000D02*
X161080500Y-95396000D01*
X164207000Y-93984000D02*
X166401500Y-93984000D01*
X164084000Y-94107000D02*
X164207000Y-93984000D01*
X161544000Y-94107000D02*
X164084000Y-94107000D01*
X161290000Y-93853000D02*
X161544000Y-94107000D01*
X161080500Y-95396000D02*
X161290000Y-95186500D01*
D10*
X157900000Y-94596000D02*
X157524500Y-94596000D01*
X157524500Y-94596000D02*
X156845000Y-93916500D01*
X156845000Y-93916500D02*
X156845000Y-93154500D01*
D28*
X153924000Y-94194100D02*
X155598600Y-94194100D01*
X156953000Y-94596000D02*
X157900000Y-94596000D01*
X156552900Y-94195900D02*
X156953000Y-94596000D01*
X155600400Y-94195900D02*
X156552900Y-94195900D01*
X155598600Y-94194100D02*
X155600400Y-94195900D01*
D10*
X157900000Y-95396000D02*
X157397500Y-95396000D01*
X157035500Y-95758000D02*
X157035500Y-97028000D01*
X157397500Y-95396000D02*
X157035500Y-95758000D01*
D28*
X153924000Y-96194100D02*
X156091400Y-96194100D01*
X156889500Y-95396000D02*
X157900000Y-95396000D01*
X156091400Y-96194100D02*
X156889500Y-95396000D01*
D10*
X170501500Y-91431300D02*
X170611800Y-91541600D01*
X170501500Y-91431300D02*
X170501500Y-89884000D01*
D31*
X158590000Y-89090500D02*
X156781500Y-89090500D01*
X156781500Y-89090500D02*
X155625800Y-87934800D01*
D10*
X158590000Y-89090500D02*
X157645100Y-89090500D01*
X158590000Y-89090500D02*
X156533000Y-89090500D01*
X156533000Y-89090500D02*
X156464000Y-89021500D01*
D31*
X158590000Y-90360500D02*
X156903000Y-90360500D01*
X156903000Y-90360500D02*
X156464000Y-89921500D01*
X166243000Y-87889500D02*
X166243000Y-89789000D01*
X167374000Y-93484000D02*
X166401500Y-93484000D01*
X167665400Y-93192600D02*
X167374000Y-93484000D01*
X167665400Y-91211400D02*
X167665400Y-93192600D01*
X166243000Y-89789000D02*
X167665400Y-91211400D01*
D29*
X178333400Y-92474200D02*
X177522200Y-92474200D01*
X177522200Y-92474200D02*
X177419000Y-92371000D01*
X177419000Y-92371000D02*
X176742000Y-92371000D01*
X176742000Y-92371000D02*
X176629000Y-92484000D01*
X176629000Y-92484000D02*
X175101500Y-92484000D01*
D31*
X163990000Y-86550500D02*
X164782500Y-86550500D01*
X170434000Y-86283800D02*
X170434000Y-86762500D01*
X169824400Y-85674200D02*
X170434000Y-86283800D01*
X165658800Y-85674200D02*
X169824400Y-85674200D01*
X164782500Y-86550500D02*
X165658800Y-85674200D01*
X168910000Y-102730300D02*
X168973500Y-102730300D01*
X169189400Y-102946200D02*
X169189400Y-103505000D01*
X168973500Y-102730300D02*
X169189400Y-102946200D01*
X163764000Y-103606600D02*
X163764000Y-103613000D01*
X163764000Y-103613000D02*
X163300500Y-104076500D01*
X164677000Y-104076500D02*
X163766500Y-104076500D01*
X163766500Y-104076500D02*
X163677600Y-104165400D01*
X164677000Y-104076500D02*
X163300500Y-104076500D01*
D10*
X166243000Y-103225600D02*
X166319200Y-103225600D01*
D31*
X165430200Y-103225600D02*
X166243000Y-103225600D01*
X167132000Y-102730300D02*
X168910000Y-102730300D01*
X168910000Y-102730300D02*
X168917912Y-102730300D01*
X165430200Y-103225600D02*
X164677000Y-103978800D01*
X166814500Y-102730300D02*
X167132000Y-102730300D01*
X166319200Y-103225600D02*
X166814500Y-102730300D01*
X161328100Y-101206300D02*
X161328100Y-100723700D01*
X162433000Y-101688900D02*
X161810700Y-101688900D01*
X161810700Y-101688900D02*
X161328100Y-101206300D01*
X163535360Y-102791260D02*
X162433000Y-101688900D01*
D29*
X161328100Y-100723700D02*
X161302700Y-100698300D01*
D31*
X172796200Y-92252800D02*
X172796200Y-91236800D01*
X172161200Y-92887800D02*
X172796200Y-92252800D01*
D29*
X163764000Y-102791260D02*
X163535360Y-102791260D01*
D31*
X178333400Y-90551000D02*
X178333400Y-91574200D01*
X177952400Y-90170000D02*
X178333400Y-90551000D01*
X174828200Y-90170000D02*
X177952400Y-90170000D01*
X179298600Y-91574200D02*
X178333400Y-91574200D01*
D30*
X163554500Y-104042300D02*
X163677600Y-104165400D01*
D28*
X163990000Y-86550500D02*
X160794700Y-86550500D01*
X160070800Y-92430600D02*
X160375600Y-92735400D01*
X160070800Y-90703400D02*
X160070800Y-92430600D01*
X160070800Y-90703400D02*
X160070800Y-90703400D01*
X160070800Y-87274400D02*
X160070800Y-90703400D01*
X160794700Y-86550500D02*
X160070800Y-87274400D01*
X163280000Y-95631000D02*
X162306000Y-95631000D01*
X162306000Y-95631000D02*
X162255200Y-95681800D01*
X160413700Y-92773500D02*
X161121000Y-92773500D01*
X160375600Y-92735400D02*
X160413700Y-92773500D01*
D10*
X164677000Y-104076500D02*
X164677000Y-103978800D01*
D31*
X163764000Y-103606600D02*
X163764000Y-102791260D01*
X170434000Y-86762500D02*
X170731000Y-86762500D01*
X170731000Y-86762500D02*
X171831000Y-87862500D01*
X172501500Y-88533000D02*
X171831000Y-87862500D01*
D29*
X174345600Y-90627200D02*
X174371000Y-90627200D01*
D31*
X172501500Y-90942100D02*
X172720000Y-91160600D01*
X172720000Y-91160600D02*
X173812200Y-91160600D01*
X173812200Y-91160600D02*
X174345600Y-90627200D01*
X174371000Y-90627200D02*
X174828200Y-90170000D01*
X172501500Y-89884000D02*
X172501500Y-90942100D01*
X172501500Y-89884000D02*
X172501500Y-88533000D01*
D10*
X170001500Y-89884000D02*
X170001500Y-91720100D01*
X170001500Y-91720100D02*
X169849800Y-91871800D01*
D31*
X158590000Y-87820500D02*
X156629100Y-87820500D01*
D10*
X156629100Y-87820500D02*
X156540200Y-87731600D01*
X156679900Y-87922100D02*
X156540200Y-87731600D01*
X158590000Y-87820500D02*
X158127700Y-87871300D01*
X169501500Y-91178700D02*
X169501500Y-89884000D01*
X169164000Y-91516200D02*
X169501500Y-91178700D01*
D31*
X157238700Y-86550500D02*
X157137100Y-86550500D01*
X158590000Y-86550500D02*
X157238700Y-86550500D01*
X156921200Y-86766400D02*
X156921200Y-87045800D01*
X157137100Y-86550500D02*
X156921200Y-86766400D01*
D10*
X157010100Y-87160100D02*
X157010100Y-87134700D01*
X157010100Y-87134700D02*
X156921200Y-87045800D01*
X157010100Y-87160100D02*
X156972000Y-87122000D01*
D31*
X176022000Y-88163400D02*
X176022000Y-87762500D01*
X175996600Y-88188800D02*
X176022000Y-88163400D01*
X159339280Y-100792280D02*
X159943800Y-101396800D01*
D10*
X158940500Y-100792280D02*
X159339280Y-100792280D01*
X161264600Y-90741500D02*
X161175700Y-90741500D01*
X160909000Y-91008200D02*
X160909000Y-91719400D01*
X161175700Y-90741500D02*
X160909000Y-91008200D01*
X166401500Y-91484000D02*
X163493000Y-91484000D01*
X162750500Y-90741500D02*
X161264600Y-90741500D01*
X161264600Y-90741500D02*
X161226500Y-90741500D01*
X163493000Y-91484000D02*
X162750500Y-90741500D01*
X165512500Y-91806200D02*
X165512500Y-91827100D01*
X162862700Y-91806200D02*
X162369500Y-91313000D01*
X165512500Y-91806200D02*
X162862700Y-91806200D01*
X165669400Y-91984000D02*
X166401500Y-91984000D01*
X165512500Y-91827100D02*
X165669400Y-91984000D01*
D31*
X163597500Y-92773500D02*
X162221000Y-92773500D01*
X166401500Y-92484000D02*
X165509000Y-92484000D01*
X164169000Y-92202000D02*
X163597500Y-92773500D01*
X165227000Y-92202000D02*
X164169000Y-92202000D01*
X165509000Y-92484000D02*
X165227000Y-92202000D01*
X166401500Y-94984000D02*
X165594600Y-94984000D01*
X164947600Y-95631000D02*
X164380000Y-95631000D01*
X165594600Y-94984000D02*
X164947600Y-95631000D01*
X164380000Y-95631000D02*
X164380000Y-96901000D01*
D30*
X161486000Y-99250500D02*
X163080700Y-99250500D01*
D10*
X177558700Y-93535500D02*
X177076100Y-93535500D01*
X176524600Y-92984000D02*
X175101500Y-92984000D01*
X177076100Y-93535500D02*
X176524600Y-92984000D01*
X178875765Y-101117400D02*
X179044600Y-101117400D01*
X173228000Y-101117400D02*
X178875765Y-101117400D01*
X179044600Y-101117400D02*
X181914800Y-98247200D01*
X181914800Y-88874600D02*
X181914800Y-87909400D01*
X184327800Y-86233000D02*
X186309000Y-86233000D01*
D31*
X183591200Y-86233000D02*
X184327800Y-86233000D01*
D10*
X181914800Y-87909400D02*
X183591200Y-86233000D01*
X181914800Y-98247200D02*
X181914800Y-88874600D01*
X181914800Y-88874600D02*
X181914800Y-88849200D01*
X172313600Y-100203000D02*
X173228000Y-101117400D01*
X171501500Y-98584000D02*
X171501500Y-99390900D01*
X172313600Y-100203000D02*
X172313600Y-100203000D01*
X171501500Y-99390900D02*
X172313600Y-100203000D01*
X171001500Y-98584000D02*
X171001500Y-99424300D01*
X171001500Y-99424300D02*
X171780200Y-100203000D01*
D31*
X184073800Y-88773000D02*
X186309000Y-88773000D01*
D10*
X182219600Y-90627200D02*
X184073800Y-88773000D01*
X182219600Y-98450400D02*
X182219600Y-90627200D01*
X179146200Y-101523800D02*
X182219600Y-98450400D01*
X173101000Y-101523800D02*
X179146200Y-101523800D01*
X171780200Y-100203000D02*
X173101000Y-101523800D01*
X171780200Y-100203000D02*
X171780200Y-100203000D01*
X170501500Y-98584000D02*
X170501500Y-99711700D01*
X170501500Y-99711700D02*
X171323000Y-100533200D01*
D31*
X182727600Y-93014800D02*
X184429400Y-91313000D01*
D10*
X182727600Y-98653600D02*
X182727600Y-93014800D01*
X179425600Y-101955600D02*
X182727600Y-98653600D01*
X172745400Y-101955600D02*
X179425600Y-101955600D01*
X171323000Y-100533200D02*
X172745400Y-101955600D01*
X171323000Y-100533200D02*
X171323000Y-100533200D01*
X184429400Y-91313000D02*
X186309000Y-91313000D01*
X170484800Y-100507800D02*
X170484800Y-100507800D01*
X170001500Y-100024500D02*
X170484800Y-100507800D01*
X170001500Y-98584000D02*
X170001500Y-100024500D01*
X170484800Y-100507800D02*
X172364400Y-102387400D01*
D31*
X184175400Y-93853000D02*
X186309000Y-93853000D01*
X183235600Y-94792800D02*
X184175400Y-93853000D01*
D10*
X183235600Y-98729800D02*
X183235600Y-94792800D01*
X179578000Y-102387400D02*
X183235600Y-98729800D01*
X172364400Y-102387400D02*
X179578000Y-102387400D01*
X169506900Y-100139500D02*
X169506900Y-98589400D01*
X169506900Y-98589400D02*
X169501500Y-98584000D01*
X170078400Y-100711000D02*
X169506900Y-100139500D01*
X170078400Y-100716644D02*
X170078400Y-100711000D01*
X179755800Y-102870000D02*
X183692800Y-98933000D01*
X172237400Y-102870000D02*
X179755800Y-102870000D01*
X170078400Y-100711000D02*
X172237400Y-102870000D01*
X183692800Y-98933000D02*
X183692800Y-96901000D01*
D31*
X183692800Y-96901000D02*
X184200800Y-96393000D01*
X186309000Y-96393000D02*
X184200800Y-96393000D01*
D10*
X169001500Y-98584000D02*
X169001500Y-97665600D01*
X169001500Y-97665600D02*
X168770300Y-97434400D01*
X169001500Y-98584000D02*
X169001500Y-100065900D01*
X169001500Y-100065900D02*
X169189400Y-100253800D01*
X179933600Y-103251000D02*
X180111400Y-103251000D01*
X171831000Y-103251000D02*
X179933600Y-103251000D01*
D31*
X180111400Y-103251000D02*
X184429400Y-98933000D01*
D10*
X184429400Y-98933000D02*
X186309000Y-98933000D01*
X171831000Y-103251000D02*
X171729400Y-103251000D01*
X169951400Y-101473000D02*
X169189400Y-101473000D01*
X171729400Y-103251000D02*
X169951400Y-101473000D01*
X171805600Y-103251000D02*
X171831000Y-103251000D01*
X166446200Y-101015800D02*
X166007200Y-101015800D01*
X166624000Y-100838000D02*
X166446200Y-101015800D01*
X166624000Y-100152200D02*
X166624000Y-100838000D01*
X167398700Y-99377500D02*
X166624000Y-100152200D01*
X167398700Y-97751900D02*
X167398700Y-99377500D01*
X167716200Y-97434400D02*
X167398700Y-97751900D01*
X168770300Y-97434400D02*
X167716200Y-97434400D01*
X184658000Y-98933000D02*
X186309000Y-98933000D01*
X169189400Y-101473000D02*
X169189400Y-101396800D01*
X169189400Y-100253800D02*
X169189400Y-101473000D01*
X168501500Y-98584000D02*
X168501500Y-100277100D01*
X169799000Y-102311200D02*
X171094400Y-103606600D01*
X168540793Y-101814997D02*
X168540793Y-101814993D01*
X169037000Y-102311200D02*
X168540793Y-101814993D01*
X169799000Y-102311200D02*
X169037000Y-102311200D01*
X180543200Y-103606600D02*
X180568600Y-103581200D01*
X171094400Y-103606600D02*
X180543200Y-103606600D01*
D31*
X182676800Y-101473000D02*
X186309000Y-101473000D01*
D10*
X180568600Y-103581200D02*
X182676800Y-101473000D01*
X168529000Y-101473000D02*
X168540793Y-101814997D01*
X168540793Y-101814997D02*
X168541700Y-101841300D01*
X168529000Y-101473000D02*
X168541700Y-101892100D01*
X168541700Y-101892100D02*
X168071800Y-102336600D01*
X168071800Y-102336600D02*
X166007200Y-102336600D01*
X168567100Y-100342700D02*
X168567100Y-101434900D01*
X168567100Y-101434900D02*
X168529000Y-101473000D01*
X168501500Y-100277100D02*
X168567100Y-100342700D01*
X168001500Y-98584000D02*
X168001500Y-99562100D01*
X168001500Y-99562100D02*
X167538400Y-100025200D01*
X167081200Y-100482400D02*
X167081200Y-101434900D01*
X167081200Y-101434900D02*
X166966900Y-101549200D01*
X167538400Y-100025200D02*
X167081200Y-100482400D01*
X167538400Y-100025200D02*
X167538400Y-100025200D01*
X167132000Y-100431600D02*
X167081200Y-100482400D01*
D31*
X170307000Y-104089200D02*
X186232800Y-104089200D01*
D10*
X186232800Y-104089200D02*
X186309000Y-104013000D01*
X170307000Y-104089200D02*
X170408600Y-104190800D01*
X173849600Y-93484000D02*
X175101500Y-93484000D01*
X173812200Y-93446600D02*
X173849600Y-93484000D01*
X180150200Y-97443771D02*
X180151558Y-96647000D01*
X175943200Y-95984000D02*
X176352200Y-96393000D01*
X176352200Y-96393000D02*
X176352200Y-96393000D01*
X176352200Y-96393000D02*
X177622200Y-97663000D01*
X177622200Y-97663000D02*
X179425600Y-97663000D01*
X179425600Y-97663000D02*
X179959000Y-97663000D01*
X179959000Y-97663000D02*
X180150200Y-97443771D01*
X175101500Y-95984000D02*
X175943200Y-95984000D01*
X180136800Y-96139000D02*
X180136800Y-94030800D01*
X180151558Y-96647000D02*
X180136800Y-96139000D01*
X179628800Y-98069400D02*
X180340000Y-98069400D01*
X175101500Y-96484000D02*
X175935200Y-96484000D01*
X177520600Y-98069400D02*
X179628800Y-98069400D01*
X175935200Y-96484000D02*
X177520600Y-98069400D01*
X180721000Y-92024200D02*
X180467000Y-91770200D01*
X180721000Y-97688400D02*
X180721000Y-92024200D01*
X180340000Y-98069400D02*
X180721000Y-97688400D01*
X180695600Y-91821000D02*
X180644800Y-91770200D01*
X180644800Y-91770200D02*
X180467000Y-91770200D01*
X180035200Y-98602800D02*
X177419000Y-98602800D01*
X181059279Y-97985121D02*
X180441600Y-98602800D01*
X180441600Y-98602800D02*
X180035200Y-98602800D01*
X181059279Y-97903429D02*
X181051200Y-88925400D01*
X181059279Y-97903429D02*
X181059279Y-97985121D01*
X175774800Y-96984000D02*
X175101500Y-96984000D01*
X175895000Y-97104200D02*
X175774800Y-96984000D01*
X175895000Y-97078800D02*
X175895000Y-97104200D01*
X177419000Y-98602800D02*
X175895000Y-97078800D01*
X175101500Y-96984000D02*
X175597000Y-96984000D01*
X172720000Y-100050600D02*
X173278800Y-100609400D01*
X172001500Y-99332100D02*
X172720000Y-100050600D01*
X172720000Y-100050600D02*
X172720000Y-100050600D01*
X172001500Y-98584000D02*
X172001500Y-99332100D01*
X178861357Y-100609400D02*
X178976586Y-100609400D01*
X173278800Y-100609400D02*
X178861357Y-100609400D01*
X178976586Y-100609400D02*
X181610000Y-97975986D01*
X181610000Y-87655400D02*
X181610000Y-87401400D01*
X181610000Y-87401400D02*
X182803800Y-86207600D01*
X181610000Y-97975986D02*
X181610000Y-87655400D01*
X181610000Y-87655400D02*
X181610000Y-87630000D01*
X177413500Y-95059500D02*
X177413500Y-94990500D01*
X177413500Y-94990500D02*
X176407000Y-93984000D01*
X176407000Y-93984000D02*
X175101500Y-93984000D01*
D31*
X177419000Y-86862500D02*
X176022000Y-86862500D01*
X176022000Y-86309200D02*
X176022000Y-86862500D01*
D10*
X176098200Y-86233000D02*
X176022000Y-86309200D01*
X175101500Y-94484000D02*
X176145000Y-94484000D01*
X176860200Y-95903200D02*
X177413500Y-96456500D01*
X176860200Y-95199200D02*
X176860200Y-95903200D01*
X176145000Y-94484000D02*
X176860200Y-95199200D01*
X173990000Y-95834200D02*
X173990000Y-97510600D01*
X173990000Y-95631000D02*
X173990000Y-95834200D01*
X175101500Y-95484000D02*
X174137000Y-95484000D01*
X174137000Y-95484000D02*
X173990000Y-95631000D01*
X173990000Y-97510600D02*
X174040800Y-97561400D01*
X168224200Y-103327200D02*
X168046400Y-103505000D01*
X174574200Y-98094800D02*
X174574200Y-98120200D01*
X174040800Y-97561400D02*
X174574200Y-98094800D01*
X168046400Y-103505000D02*
X167868600Y-103505000D01*
X175101500Y-94984000D02*
X173139800Y-94984000D01*
X173139800Y-94984000D02*
X172516800Y-94361000D01*
X172708000Y-94552200D02*
X172516800Y-94361000D01*
X165107200Y-101015800D02*
X165107200Y-102336600D01*
X165107200Y-101015800D02*
X163037520Y-101015800D01*
X163037520Y-101015800D02*
X162814000Y-100792280D01*
X162986720Y-100965000D02*
X162814000Y-100792280D01*
X157022800Y-101828600D02*
X157027840Y-101828600D01*
X157027840Y-101828600D02*
X157990500Y-102791260D01*
X157784800Y-104190800D02*
X158312700Y-104190800D01*
X158312700Y-104190800D02*
X158427000Y-104076500D01*
X156837800Y-101643600D02*
X156337000Y-101643600D01*
X157099000Y-101904800D02*
X157022800Y-101828600D01*
X157022800Y-101828600D02*
X156837800Y-101643600D01*
X157990500Y-102791260D02*
X157990500Y-103640000D01*
X157990500Y-103640000D02*
X158427000Y-104076500D01*
X178879500Y-96456500D02*
X179095400Y-96672400D01*
X178879500Y-96456500D02*
X178313500Y-96456500D01*
D30*
X161671000Y-104089200D02*
X161683700Y-104076500D01*
X161683700Y-104076500D02*
X162200500Y-104076500D01*
D10*
X161864000Y-102791260D02*
X161864000Y-103740000D01*
X161864000Y-103740000D02*
X162200500Y-104076500D01*
X178313500Y-95059500D02*
X178993800Y-95046800D01*
X178993800Y-95707200D02*
X178993800Y-95046800D01*
X156337000Y-100743600D02*
X156674400Y-100743600D01*
X156718000Y-100787200D02*
X157784800Y-100787200D01*
X156674400Y-100743600D02*
X156718000Y-100787200D01*
X173001500Y-88025500D02*
X173164500Y-87862500D01*
D31*
X173001500Y-89884000D02*
X173001500Y-88025500D01*
X173501500Y-89884000D02*
X173501500Y-88956700D01*
X173501500Y-88956700D02*
X174561500Y-87896700D01*
D10*
X174561500Y-87896700D02*
X174561500Y-87862500D01*
D29*
X179298600Y-92474200D02*
X179298600Y-93294200D01*
X179298600Y-93294200D02*
X179057300Y-93535500D01*
D10*
X179057300Y-93535500D02*
X178937500Y-93535500D01*
X178816000Y-93599000D02*
X178866800Y-93535500D01*
G36*
X167334033Y-103835200D02*
X167356695Y-103955638D01*
X167427874Y-104066253D01*
X167536480Y-104140460D01*
X167665400Y-104166567D01*
X168071800Y-104166567D01*
X168192238Y-104143905D01*
X168302853Y-104072726D01*
X168377060Y-103964120D01*
X168382326Y-103938114D01*
X168577771Y-103857358D01*
X168654833Y-103780430D01*
X168654833Y-103835200D01*
X168677495Y-103955638D01*
X168748674Y-104066253D01*
X168857280Y-104140460D01*
X168986200Y-104166567D01*
X169392600Y-104166567D01*
X169513038Y-104143905D01*
X169623653Y-104072726D01*
X169682089Y-103987202D01*
X169681892Y-104212975D01*
X169776842Y-104442771D01*
X169952504Y-104618740D01*
X169976249Y-104628600D01*
X166196932Y-104628600D01*
X166261097Y-104602022D01*
X166352521Y-104510598D01*
X166402000Y-104391147D01*
X166402000Y-104207750D01*
X166320750Y-104126500D01*
X165827000Y-104126500D01*
X165827000Y-104146500D01*
X165727000Y-104146500D01*
X165727000Y-104126500D01*
X165707000Y-104126500D01*
X165707000Y-104026500D01*
X165727000Y-104026500D01*
X165727000Y-104006500D01*
X165827000Y-104006500D01*
X165827000Y-104026500D01*
X166320750Y-104026500D01*
X166402000Y-103945250D01*
X166402000Y-103761853D01*
X166362689Y-103666950D01*
X166491407Y-103641346D01*
X166637398Y-103543798D01*
X167000896Y-103180300D01*
X167334033Y-103180300D01*
X167334033Y-103835200D01*
X167334033Y-103835200D01*
G37*
X167334033Y-103835200D02*
X167356695Y-103955638D01*
X167427874Y-104066253D01*
X167536480Y-104140460D01*
X167665400Y-104166567D01*
X168071800Y-104166567D01*
X168192238Y-104143905D01*
X168302853Y-104072726D01*
X168377060Y-103964120D01*
X168382326Y-103938114D01*
X168577771Y-103857358D01*
X168654833Y-103780430D01*
X168654833Y-103835200D01*
X168677495Y-103955638D01*
X168748674Y-104066253D01*
X168857280Y-104140460D01*
X168986200Y-104166567D01*
X169392600Y-104166567D01*
X169513038Y-104143905D01*
X169623653Y-104072726D01*
X169682089Y-103987202D01*
X169681892Y-104212975D01*
X169776842Y-104442771D01*
X169952504Y-104618740D01*
X169976249Y-104628600D01*
X166196932Y-104628600D01*
X166261097Y-104602022D01*
X166352521Y-104510598D01*
X166402000Y-104391147D01*
X166402000Y-104207750D01*
X166320750Y-104126500D01*
X165827000Y-104126500D01*
X165827000Y-104146500D01*
X165727000Y-104146500D01*
X165727000Y-104126500D01*
X165707000Y-104126500D01*
X165707000Y-104026500D01*
X165727000Y-104026500D01*
X165727000Y-104006500D01*
X165827000Y-104006500D01*
X165827000Y-104026500D01*
X166320750Y-104026500D01*
X166402000Y-103945250D01*
X166402000Y-103761853D01*
X166362689Y-103666950D01*
X166491407Y-103641346D01*
X166637398Y-103543798D01*
X167000896Y-103180300D01*
X167334033Y-103180300D01*
X167334033Y-103835200D01*
G36*
X164775371Y-85921233D02*
X164765000Y-85919133D01*
X163215000Y-85919133D01*
X163094562Y-85941795D01*
X162983947Y-86012974D01*
X162941225Y-86075500D01*
X160794700Y-86075500D01*
X160612925Y-86111657D01*
X160458824Y-86214624D01*
X159734924Y-86938524D01*
X159631957Y-87092625D01*
X159595800Y-87274400D01*
X159595800Y-87284851D01*
X159493920Y-87215240D01*
X159365000Y-87189133D01*
X157815000Y-87189133D01*
X157694562Y-87211795D01*
X157583947Y-87282974D01*
X157524143Y-87370500D01*
X157463112Y-87370500D01*
X157546091Y-87170666D01*
X157546211Y-87032969D01*
X157577474Y-87081553D01*
X157686080Y-87155760D01*
X157815000Y-87181867D01*
X159365000Y-87181867D01*
X159485438Y-87159205D01*
X159596053Y-87088026D01*
X159670260Y-86979420D01*
X159696367Y-86850500D01*
X159696367Y-86250500D01*
X159673705Y-86130062D01*
X159602526Y-86019447D01*
X159493920Y-85945240D01*
X159365000Y-85919133D01*
X157815000Y-85919133D01*
X157694562Y-85941795D01*
X157583947Y-86012974D01*
X157524143Y-86100500D01*
X157137100Y-86100500D01*
X156964892Y-86134754D01*
X156855871Y-86207600D01*
X156818902Y-86232302D01*
X156603002Y-86448202D01*
X156538531Y-86544690D01*
X156391660Y-86691304D01*
X156296309Y-86920934D01*
X156296104Y-87156208D01*
X156186629Y-87201442D01*
X156010660Y-87377104D01*
X155993483Y-87418470D01*
X155980296Y-87405260D01*
X155750666Y-87309909D01*
X155502025Y-87309692D01*
X155272229Y-87404642D01*
X155096260Y-87580304D01*
X155000909Y-87809934D01*
X155000692Y-88058575D01*
X155095642Y-88288371D01*
X155271304Y-88464340D01*
X155500934Y-88559691D01*
X155614394Y-88559790D01*
X155839954Y-88785350D01*
X155832633Y-88821500D01*
X155832633Y-89221500D01*
X155855295Y-89341938D01*
X155926474Y-89452553D01*
X155953296Y-89470880D01*
X155932947Y-89483974D01*
X155858740Y-89592580D01*
X155832633Y-89721500D01*
X155832633Y-90121500D01*
X155855295Y-90241938D01*
X155926474Y-90352553D01*
X156035080Y-90426760D01*
X156164000Y-90452867D01*
X156358971Y-90452867D01*
X156584802Y-90678698D01*
X156730792Y-90776246D01*
X156903000Y-90810500D01*
X157525318Y-90810500D01*
X157577474Y-90891553D01*
X157686080Y-90965760D01*
X157815000Y-90991867D01*
X159365000Y-90991867D01*
X159485438Y-90969205D01*
X159595800Y-90898189D01*
X159595800Y-92430600D01*
X159631957Y-92612375D01*
X159734924Y-92766476D01*
X159750559Y-92782111D01*
X159750492Y-92859175D01*
X159845442Y-93088971D01*
X160021104Y-93264940D01*
X160250734Y-93360291D01*
X160499375Y-93360508D01*
X160648416Y-93298926D01*
X160692080Y-93328760D01*
X160821000Y-93354867D01*
X160904348Y-93354867D01*
X160760460Y-93498504D01*
X160665109Y-93728134D01*
X160664892Y-93976775D01*
X160745144Y-94171000D01*
X160291421Y-94171000D01*
X160287526Y-94164947D01*
X160178920Y-94090740D01*
X160050000Y-94064633D01*
X159150000Y-94064633D01*
X159029562Y-94087295D01*
X158918947Y-94158474D01*
X158844740Y-94267080D01*
X158818633Y-94396000D01*
X158818633Y-94796000D01*
X158841295Y-94916438D01*
X158892887Y-94996614D01*
X158844740Y-95067080D01*
X158818633Y-95196000D01*
X158818633Y-95596000D01*
X158841295Y-95716438D01*
X158912474Y-95827053D01*
X159021080Y-95901260D01*
X159150000Y-95927367D01*
X160050000Y-95927367D01*
X160170438Y-95904705D01*
X160281053Y-95833526D01*
X160289612Y-95821000D01*
X161080500Y-95821000D01*
X161153369Y-95806506D01*
X161165134Y-95811391D01*
X161413775Y-95811608D01*
X161630165Y-95722197D01*
X161630092Y-95805575D01*
X161725042Y-96035371D01*
X161900704Y-96211340D01*
X162130334Y-96306691D01*
X162378975Y-96306908D01*
X162608771Y-96211958D01*
X162714914Y-96106000D01*
X162738579Y-96106000D01*
X162742474Y-96112053D01*
X162851080Y-96186260D01*
X162980000Y-96212367D01*
X163580000Y-96212367D01*
X163700438Y-96189705D01*
X163811053Y-96118526D01*
X163829380Y-96091704D01*
X163842474Y-96112053D01*
X163930000Y-96171857D01*
X163930000Y-96361318D01*
X163848947Y-96413474D01*
X163829928Y-96441309D01*
X163764097Y-96375478D01*
X163644646Y-96326000D01*
X163411250Y-96326000D01*
X163330000Y-96407250D01*
X163330000Y-96851000D01*
X163350000Y-96851000D01*
X163350000Y-96951000D01*
X163330000Y-96951000D01*
X163330000Y-97394750D01*
X163411250Y-97476000D01*
X163644646Y-97476000D01*
X163764097Y-97426522D01*
X163829198Y-97361421D01*
X163842474Y-97382053D01*
X163951080Y-97456260D01*
X164080000Y-97482367D01*
X164680000Y-97482367D01*
X164800438Y-97459705D01*
X164911053Y-97388526D01*
X164985260Y-97279920D01*
X165011367Y-97151000D01*
X165011367Y-96651000D01*
X164988705Y-96530562D01*
X164917526Y-96419947D01*
X164830000Y-96360143D01*
X164830000Y-96170682D01*
X164911053Y-96118526D01*
X164913291Y-96115250D01*
X165413800Y-96115250D01*
X165413800Y-96173647D01*
X165438799Y-96234000D01*
X165413800Y-96294353D01*
X165413800Y-96352750D01*
X165495050Y-96434000D01*
X166338800Y-96434000D01*
X166338800Y-96034000D01*
X165495050Y-96034000D01*
X165413800Y-96115250D01*
X164913291Y-96115250D01*
X164936693Y-96081000D01*
X164947600Y-96081000D01*
X165119808Y-96046746D01*
X165265798Y-95949198D01*
X165413800Y-95801196D01*
X165413800Y-95852750D01*
X165495050Y-95934000D01*
X166338800Y-95934000D01*
X166338800Y-95534000D01*
X166438800Y-95534000D01*
X166438800Y-95934000D01*
X167282550Y-95934000D01*
X167363800Y-95852750D01*
X167363800Y-95794353D01*
X167338801Y-95734000D01*
X167363800Y-95673647D01*
X167363800Y-95615250D01*
X167282550Y-95534000D01*
X166438800Y-95534000D01*
X166338800Y-95534000D01*
X166318800Y-95534000D01*
X166318800Y-95440367D01*
X167038800Y-95440367D01*
X167072638Y-95434000D01*
X167282550Y-95434000D01*
X167363800Y-95352750D01*
X167363800Y-95294353D01*
X167341797Y-95241233D01*
X167344060Y-95237920D01*
X167370167Y-95109000D01*
X167370167Y-94859000D01*
X167347505Y-94738562D01*
X167344786Y-94734336D01*
X167370167Y-94609000D01*
X167370167Y-94359000D01*
X167347505Y-94238562D01*
X167344786Y-94234336D01*
X167370167Y-94109000D01*
X167370167Y-93934000D01*
X167374000Y-93934000D01*
X167546208Y-93899746D01*
X167692198Y-93802198D01*
X167799600Y-93694796D01*
X167799600Y-95978004D01*
X167343606Y-96433998D01*
X167282552Y-96433998D01*
X167363800Y-96352750D01*
X167363800Y-96294353D01*
X167338801Y-96234000D01*
X167363800Y-96173647D01*
X167363800Y-96115250D01*
X167282550Y-96034000D01*
X166438800Y-96034000D01*
X166438800Y-96434000D01*
X166458800Y-96434000D01*
X166458800Y-96527633D01*
X165738800Y-96527633D01*
X165704962Y-96534000D01*
X165495050Y-96534000D01*
X165413800Y-96615250D01*
X165413800Y-96673647D01*
X165435803Y-96726767D01*
X165433540Y-96730080D01*
X165407433Y-96859000D01*
X165407433Y-97109000D01*
X165430095Y-97229438D01*
X165501274Y-97340053D01*
X165609880Y-97414260D01*
X165738800Y-97440367D01*
X167038800Y-97440367D01*
X167072638Y-97434000D01*
X167150914Y-97434000D01*
X167115857Y-97469057D01*
X167029148Y-97598826D01*
X167016383Y-97663000D01*
X166998700Y-97751900D01*
X166998700Y-99211814D01*
X166341157Y-99869357D01*
X166254448Y-99999126D01*
X166254448Y-99999127D01*
X166224000Y-100152200D01*
X166224000Y-100387835D01*
X166207200Y-100384433D01*
X165807200Y-100384433D01*
X165686762Y-100407095D01*
X165576147Y-100478274D01*
X165557820Y-100505096D01*
X165544726Y-100484747D01*
X165436120Y-100410540D01*
X165307200Y-100384433D01*
X164907200Y-100384433D01*
X164786762Y-100407095D01*
X164676147Y-100478274D01*
X164601940Y-100586880D01*
X164596084Y-100615800D01*
X163545417Y-100615800D01*
X163545417Y-100392230D01*
X163522755Y-100271792D01*
X163451576Y-100161177D01*
X163342970Y-100086970D01*
X163214050Y-100060863D01*
X162413950Y-100060863D01*
X162293512Y-100083525D01*
X162182897Y-100154704D01*
X162108690Y-100263310D01*
X162082583Y-100392230D01*
X162082583Y-101192330D01*
X162091346Y-101238900D01*
X161997096Y-101238900D01*
X161821607Y-101063411D01*
X161832240Y-101052796D01*
X161927591Y-100823166D01*
X161927808Y-100574525D01*
X161832858Y-100344729D01*
X161657196Y-100168760D01*
X161427566Y-100073409D01*
X161178925Y-100073192D01*
X161098500Y-100106423D01*
X161098500Y-99815734D01*
X161157080Y-99855760D01*
X161286000Y-99881867D01*
X161686000Y-99881867D01*
X161806438Y-99859205D01*
X161917053Y-99788026D01*
X161934152Y-99763000D01*
X162371951Y-99763000D01*
X162373215Y-99769718D01*
X162444394Y-99880333D01*
X162553000Y-99954540D01*
X162681920Y-99980647D01*
X163479480Y-99980647D01*
X163599918Y-99957985D01*
X163710533Y-99886806D01*
X163784740Y-99778200D01*
X163810847Y-99649280D01*
X163810847Y-99381750D01*
X163855520Y-99381750D01*
X163855520Y-99713927D01*
X163904999Y-99833378D01*
X163996423Y-99924802D01*
X164115874Y-99974280D01*
X164448050Y-99974280D01*
X164529300Y-99893030D01*
X164529300Y-99300500D01*
X164629300Y-99300500D01*
X164629300Y-99893030D01*
X164710550Y-99974280D01*
X165042726Y-99974280D01*
X165162177Y-99924802D01*
X165253601Y-99833378D01*
X165303080Y-99713927D01*
X165303080Y-99381750D01*
X165221830Y-99300500D01*
X164629300Y-99300500D01*
X164529300Y-99300500D01*
X163936770Y-99300500D01*
X163855520Y-99381750D01*
X163810847Y-99381750D01*
X163810847Y-98851720D01*
X163798683Y-98787073D01*
X163855520Y-98787073D01*
X163855520Y-99119250D01*
X163936770Y-99200500D01*
X164529300Y-99200500D01*
X164529300Y-98607970D01*
X164629300Y-98607970D01*
X164629300Y-99200500D01*
X165221830Y-99200500D01*
X165303080Y-99119250D01*
X165303080Y-98787073D01*
X165253601Y-98667622D01*
X165162177Y-98576198D01*
X165042726Y-98526720D01*
X164710550Y-98526720D01*
X164629300Y-98607970D01*
X164529300Y-98607970D01*
X164448050Y-98526720D01*
X164115874Y-98526720D01*
X163996423Y-98576198D01*
X163904999Y-98667622D01*
X163855520Y-98787073D01*
X163798683Y-98787073D01*
X163788185Y-98731282D01*
X163717006Y-98620667D01*
X163608400Y-98546460D01*
X163479480Y-98520353D01*
X162681920Y-98520353D01*
X162561482Y-98543015D01*
X162450867Y-98614194D01*
X162376660Y-98722800D01*
X162373582Y-98738000D01*
X161935465Y-98738000D01*
X161923526Y-98719447D01*
X161814920Y-98645240D01*
X161686000Y-98619133D01*
X161286000Y-98619133D01*
X161165562Y-98641795D01*
X161061000Y-98709079D01*
X161061000Y-98483000D01*
X161024843Y-98301225D01*
X161011427Y-98281146D01*
X161017053Y-98277526D01*
X161036072Y-98249691D01*
X161101903Y-98315522D01*
X161221354Y-98365000D01*
X161454750Y-98365000D01*
X161536000Y-98283750D01*
X161536000Y-97840000D01*
X161636000Y-97840000D01*
X161636000Y-98283750D01*
X161717250Y-98365000D01*
X161950646Y-98365000D01*
X162070097Y-98315522D01*
X162161521Y-98224098D01*
X162211000Y-98104647D01*
X162211000Y-97921250D01*
X162129750Y-97840000D01*
X161636000Y-97840000D01*
X161536000Y-97840000D01*
X161516000Y-97840000D01*
X161516000Y-97740000D01*
X161536000Y-97740000D01*
X161536000Y-97296250D01*
X161636000Y-97296250D01*
X161636000Y-97740000D01*
X162129750Y-97740000D01*
X162211000Y-97658750D01*
X162211000Y-97475353D01*
X162161521Y-97355902D01*
X162070097Y-97264478D01*
X161950646Y-97215000D01*
X161717250Y-97215000D01*
X161636000Y-97296250D01*
X161536000Y-97296250D01*
X161454750Y-97215000D01*
X161221354Y-97215000D01*
X161101903Y-97264478D01*
X161036802Y-97329579D01*
X161023526Y-97308947D01*
X160914920Y-97234740D01*
X160786000Y-97208633D01*
X160186000Y-97208633D01*
X160065562Y-97231295D01*
X159954947Y-97302474D01*
X159880740Y-97411080D01*
X159864531Y-97491124D01*
X159764110Y-97422510D01*
X159635190Y-97396403D01*
X158494730Y-97396403D01*
X158374292Y-97419065D01*
X158263677Y-97490244D01*
X158189470Y-97598850D01*
X158163363Y-97727770D01*
X158163363Y-99757230D01*
X158186025Y-99877668D01*
X158257204Y-99988283D01*
X158365810Y-100062490D01*
X158445760Y-100078680D01*
X158420012Y-100083525D01*
X158309397Y-100154704D01*
X158235190Y-100263310D01*
X158219969Y-100338474D01*
X158139296Y-100257660D01*
X157909666Y-100162309D01*
X157661025Y-100162092D01*
X157431229Y-100257042D01*
X157300844Y-100387200D01*
X156922564Y-100387200D01*
X156874526Y-100312547D01*
X156765920Y-100238340D01*
X156637000Y-100212233D01*
X156037000Y-100212233D01*
X155916562Y-100234895D01*
X155805947Y-100306074D01*
X155731740Y-100414680D01*
X155705633Y-100543600D01*
X155705633Y-100943600D01*
X155728295Y-101064038D01*
X155799474Y-101174653D01*
X155826296Y-101192980D01*
X155805947Y-101206074D01*
X155731740Y-101314680D01*
X155705633Y-101443600D01*
X155705633Y-101843600D01*
X155728295Y-101964038D01*
X155799474Y-102074653D01*
X155908080Y-102148860D01*
X156037000Y-102174967D01*
X156637000Y-102174967D01*
X156757438Y-102152305D01*
X156771664Y-102143150D01*
X156816157Y-102187643D01*
X156831346Y-102197792D01*
X157259083Y-102625529D01*
X157259083Y-103191310D01*
X157281745Y-103311748D01*
X157352924Y-103422363D01*
X157461530Y-103496570D01*
X157590450Y-103522677D01*
X157590500Y-103522677D01*
X157590500Y-103594832D01*
X157446337Y-103654399D01*
X157275696Y-103483460D01*
X157046066Y-103388109D01*
X156797425Y-103387892D01*
X156779194Y-103395425D01*
X156799022Y-103375597D01*
X156848500Y-103256146D01*
X156848500Y-103022750D01*
X156767250Y-102941500D01*
X156323500Y-102941500D01*
X156323500Y-102961500D01*
X156223500Y-102961500D01*
X156223500Y-102941500D01*
X155779750Y-102941500D01*
X155698500Y-103022750D01*
X155698500Y-103256146D01*
X155747978Y-103375597D01*
X155813079Y-103440698D01*
X155792447Y-103453974D01*
X155718240Y-103562580D01*
X155692133Y-103691500D01*
X155692133Y-104291500D01*
X155714795Y-104411938D01*
X155785974Y-104522553D01*
X155894580Y-104596760D01*
X156023500Y-104622867D01*
X156523500Y-104622867D01*
X156643938Y-104600205D01*
X156668113Y-104584649D01*
X156773959Y-104628600D01*
X153538032Y-104628600D01*
X151734002Y-104269756D01*
X150235925Y-103268773D01*
X149740191Y-102526854D01*
X155698500Y-102526854D01*
X155698500Y-102760250D01*
X155779750Y-102841500D01*
X156223500Y-102841500D01*
X156223500Y-102347750D01*
X156323500Y-102347750D01*
X156323500Y-102841500D01*
X156767250Y-102841500D01*
X156848500Y-102760250D01*
X156848500Y-102526854D01*
X156799022Y-102407403D01*
X156707598Y-102315979D01*
X156588147Y-102266500D01*
X156404750Y-102266500D01*
X156323500Y-102347750D01*
X156223500Y-102347750D01*
X156142250Y-102266500D01*
X155958853Y-102266500D01*
X155839402Y-102315979D01*
X155747978Y-102407403D01*
X155698500Y-102526854D01*
X149740191Y-102526854D01*
X149506262Y-102176756D01*
X149557287Y-102214230D01*
X149984000Y-102319000D01*
X151174000Y-102319000D01*
X151174000Y-101244000D01*
X151274000Y-101244000D01*
X151274000Y-102319000D01*
X152464000Y-102319000D01*
X152890713Y-102214230D01*
X153244851Y-101954139D01*
X153472499Y-101578324D01*
X153516229Y-101419199D01*
X153456552Y-101244000D01*
X151274000Y-101244000D01*
X151174000Y-101244000D01*
X151154000Y-101244000D01*
X151154000Y-101144000D01*
X151174000Y-101144000D01*
X151174000Y-100069000D01*
X151274000Y-100069000D01*
X151274000Y-101144000D01*
X153456552Y-101144000D01*
X153516229Y-100968801D01*
X153472499Y-100809676D01*
X153244851Y-100433861D01*
X152890713Y-100173770D01*
X152464000Y-100069000D01*
X151274000Y-100069000D01*
X151174000Y-100069000D01*
X149984000Y-100069000D01*
X149557287Y-100173770D01*
X149203149Y-100433861D01*
X149026905Y-100724816D01*
X148876100Y-99966668D01*
X148876100Y-97603383D01*
X150398857Y-97603383D01*
X150524191Y-97906715D01*
X150756065Y-98138993D01*
X151059177Y-98264857D01*
X151387383Y-98265143D01*
X151690715Y-98139809D01*
X151922993Y-97907935D01*
X152048857Y-97604823D01*
X152049143Y-97276617D01*
X151923809Y-96973285D01*
X151691935Y-96741007D01*
X151388823Y-96615143D01*
X151060617Y-96614857D01*
X150757285Y-96740191D01*
X150525007Y-96972065D01*
X150399143Y-97275177D01*
X150398857Y-97603383D01*
X148876100Y-97603383D01*
X148876100Y-94107383D01*
X150398857Y-94107383D01*
X150524191Y-94410715D01*
X150756065Y-94642993D01*
X151059177Y-94768857D01*
X151387383Y-94769143D01*
X151690715Y-94643809D01*
X151922993Y-94411935D01*
X152013446Y-94194100D01*
X152323242Y-94194100D01*
X152385661Y-94507900D01*
X152563414Y-94773928D01*
X152829442Y-94951681D01*
X153143242Y-95014100D01*
X154704758Y-95014100D01*
X155018558Y-94951681D01*
X155284586Y-94773928D01*
X155354629Y-94669100D01*
X155591346Y-94669100D01*
X155600400Y-94670901D01*
X155600405Y-94670900D01*
X156356148Y-94670900D01*
X156617124Y-94931876D01*
X156681342Y-94974785D01*
X156574572Y-95046127D01*
X156553624Y-95060124D01*
X155894648Y-95719100D01*
X155354629Y-95719100D01*
X155284586Y-95614272D01*
X155018558Y-95436519D01*
X154704758Y-95374100D01*
X153143242Y-95374100D01*
X152829442Y-95436519D01*
X152563414Y-95614272D01*
X152385661Y-95880300D01*
X152323242Y-96194100D01*
X152385661Y-96507900D01*
X152563414Y-96773928D01*
X152829442Y-96951681D01*
X153143242Y-97014100D01*
X154704758Y-97014100D01*
X155018558Y-96951681D01*
X155284586Y-96773928D01*
X155354629Y-96669100D01*
X156091400Y-96669100D01*
X156273175Y-96632943D01*
X156427276Y-96529976D01*
X156635500Y-96321752D01*
X156635500Y-96544190D01*
X156505960Y-96673504D01*
X156410609Y-96903134D01*
X156410392Y-97151775D01*
X156505342Y-97381571D01*
X156520148Y-97396403D01*
X156086810Y-97396403D01*
X155966372Y-97419065D01*
X155855757Y-97490244D01*
X155781550Y-97598850D01*
X155755443Y-97727770D01*
X155755443Y-97869200D01*
X153924000Y-97869200D01*
X153898863Y-97874200D01*
X153143242Y-97874200D01*
X152829442Y-97936619D01*
X152563414Y-98114372D01*
X152385661Y-98380400D01*
X152323242Y-98694200D01*
X152385661Y-99008000D01*
X152563414Y-99274028D01*
X152829442Y-99451781D01*
X153143242Y-99514200D01*
X153565028Y-99514200D01*
X154042661Y-99991834D01*
X154092342Y-100112071D01*
X154268004Y-100288040D01*
X154497634Y-100383391D01*
X154746275Y-100383608D01*
X154976071Y-100288658D01*
X155152040Y-100112996D01*
X155247391Y-99883366D01*
X155247608Y-99634725D01*
X155199874Y-99519200D01*
X155755443Y-99519200D01*
X155755443Y-99757230D01*
X155778105Y-99877668D01*
X155849284Y-99988283D01*
X155957890Y-100062490D01*
X156086810Y-100088597D01*
X157227270Y-100088597D01*
X157347708Y-100065935D01*
X157458323Y-99994756D01*
X157532530Y-99886150D01*
X157558637Y-99757230D01*
X157558637Y-97727770D01*
X157535975Y-97607332D01*
X157464796Y-97496717D01*
X157456380Y-97490967D01*
X157565040Y-97382496D01*
X157660391Y-97152866D01*
X157660496Y-97032250D01*
X162655000Y-97032250D01*
X162655000Y-97215647D01*
X162704479Y-97335098D01*
X162795903Y-97426522D01*
X162915354Y-97476000D01*
X163148750Y-97476000D01*
X163230000Y-97394750D01*
X163230000Y-96951000D01*
X162736250Y-96951000D01*
X162655000Y-97032250D01*
X157660496Y-97032250D01*
X157660608Y-96904225D01*
X157565658Y-96674429D01*
X157477736Y-96586353D01*
X162655000Y-96586353D01*
X162655000Y-96769750D01*
X162736250Y-96851000D01*
X163230000Y-96851000D01*
X163230000Y-96407250D01*
X163148750Y-96326000D01*
X162915354Y-96326000D01*
X162795903Y-96375478D01*
X162704479Y-96466902D01*
X162655000Y-96586353D01*
X157477736Y-96586353D01*
X157435500Y-96544044D01*
X157435500Y-95924431D01*
X157450000Y-95927367D01*
X158350000Y-95927367D01*
X158470438Y-95904705D01*
X158581053Y-95833526D01*
X158655260Y-95724920D01*
X158681367Y-95596000D01*
X158681367Y-95196000D01*
X158658705Y-95075562D01*
X158607113Y-94995386D01*
X158655260Y-94924920D01*
X158681367Y-94796000D01*
X158681367Y-94396000D01*
X158658705Y-94275562D01*
X158587526Y-94164947D01*
X158478920Y-94090740D01*
X158350000Y-94064633D01*
X157558819Y-94064633D01*
X157245000Y-93750814D01*
X157245000Y-93638310D01*
X157374540Y-93508996D01*
X157469891Y-93279366D01*
X157470108Y-93030725D01*
X157375158Y-92800929D01*
X157199496Y-92624960D01*
X156969866Y-92529609D01*
X156721225Y-92529392D01*
X156491429Y-92624342D01*
X156315460Y-92800004D01*
X156220109Y-93029634D01*
X156219892Y-93278275D01*
X156314842Y-93508071D01*
X156445000Y-93638456D01*
X156445000Y-93720900D01*
X155607649Y-93720900D01*
X155598600Y-93719100D01*
X155354629Y-93719100D01*
X155284586Y-93614272D01*
X155018558Y-93436519D01*
X154704758Y-93374100D01*
X153143242Y-93374100D01*
X152829442Y-93436519D01*
X152563414Y-93614272D01*
X152385661Y-93880300D01*
X152323242Y-94194100D01*
X152013446Y-94194100D01*
X152048857Y-94108823D01*
X152049143Y-93780617D01*
X151923809Y-93477285D01*
X151691935Y-93245007D01*
X151388823Y-93119143D01*
X151060617Y-93118857D01*
X150757285Y-93244191D01*
X150525007Y-93476065D01*
X150399143Y-93779177D01*
X150398857Y-94107383D01*
X148876100Y-94107383D01*
X148876100Y-91871422D01*
X152373424Y-91871422D01*
X152397285Y-91961606D01*
X152558817Y-92238472D01*
X152814006Y-92432447D01*
X153124000Y-92514000D01*
X153874000Y-92514000D01*
X153874000Y-91744000D01*
X153974000Y-91744000D01*
X153974000Y-92514000D01*
X154724000Y-92514000D01*
X155033994Y-92432447D01*
X155289183Y-92238472D01*
X155450715Y-91961606D01*
X155474576Y-91871422D01*
X155411056Y-91744000D01*
X153974000Y-91744000D01*
X153874000Y-91744000D01*
X152436944Y-91744000D01*
X152373424Y-91871422D01*
X148876100Y-91871422D01*
X148876100Y-91516578D01*
X152373424Y-91516578D01*
X152436944Y-91644000D01*
X153874000Y-91644000D01*
X153874000Y-90874000D01*
X153974000Y-90874000D01*
X153974000Y-91644000D01*
X155411056Y-91644000D01*
X155474576Y-91516578D01*
X155450715Y-91426394D01*
X155289183Y-91149528D01*
X155033994Y-90955553D01*
X154724000Y-90874000D01*
X153974000Y-90874000D01*
X153874000Y-90874000D01*
X153124000Y-90874000D01*
X152814006Y-90955553D01*
X152558817Y-91149528D01*
X152397285Y-91426394D01*
X152373424Y-91516578D01*
X148876100Y-91516578D01*
X148876100Y-90040532D01*
X148971172Y-89562572D01*
X148975501Y-89578324D01*
X149203149Y-89954139D01*
X149557287Y-90214230D01*
X149984000Y-90319000D01*
X151174000Y-90319000D01*
X151174000Y-89244000D01*
X151274000Y-89244000D01*
X151274000Y-90319000D01*
X152464000Y-90319000D01*
X152890713Y-90214230D01*
X153244851Y-89954139D01*
X153472499Y-89578324D01*
X153516229Y-89419199D01*
X153456552Y-89244000D01*
X151274000Y-89244000D01*
X151174000Y-89244000D01*
X151154000Y-89244000D01*
X151154000Y-89144000D01*
X151174000Y-89144000D01*
X151174000Y-88069000D01*
X151274000Y-88069000D01*
X151274000Y-89144000D01*
X153456552Y-89144000D01*
X153516229Y-88968801D01*
X153472499Y-88809676D01*
X153244851Y-88433861D01*
X152890713Y-88173770D01*
X152464000Y-88069000D01*
X151274000Y-88069000D01*
X151174000Y-88069000D01*
X149984000Y-88069000D01*
X149557287Y-88173770D01*
X149203149Y-88433861D01*
X149192038Y-88452204D01*
X149234944Y-88236502D01*
X150235925Y-86738427D01*
X151734002Y-85737444D01*
X153538032Y-85378600D01*
X165318004Y-85378600D01*
X164775371Y-85921233D01*
X164775371Y-85921233D01*
G37*
X164775371Y-85921233D02*
X164765000Y-85919133D01*
X163215000Y-85919133D01*
X163094562Y-85941795D01*
X162983947Y-86012974D01*
X162941225Y-86075500D01*
X160794700Y-86075500D01*
X160612925Y-86111657D01*
X160458824Y-86214624D01*
X159734924Y-86938524D01*
X159631957Y-87092625D01*
X159595800Y-87274400D01*
X159595800Y-87284851D01*
X159493920Y-87215240D01*
X159365000Y-87189133D01*
X157815000Y-87189133D01*
X157694562Y-87211795D01*
X157583947Y-87282974D01*
X157524143Y-87370500D01*
X157463112Y-87370500D01*
X157546091Y-87170666D01*
X157546211Y-87032969D01*
X157577474Y-87081553D01*
X157686080Y-87155760D01*
X157815000Y-87181867D01*
X159365000Y-87181867D01*
X159485438Y-87159205D01*
X159596053Y-87088026D01*
X159670260Y-86979420D01*
X159696367Y-86850500D01*
X159696367Y-86250500D01*
X159673705Y-86130062D01*
X159602526Y-86019447D01*
X159493920Y-85945240D01*
X159365000Y-85919133D01*
X157815000Y-85919133D01*
X157694562Y-85941795D01*
X157583947Y-86012974D01*
X157524143Y-86100500D01*
X157137100Y-86100500D01*
X156964892Y-86134754D01*
X156855871Y-86207600D01*
X156818902Y-86232302D01*
X156603002Y-86448202D01*
X156538531Y-86544690D01*
X156391660Y-86691304D01*
X156296309Y-86920934D01*
X156296104Y-87156208D01*
X156186629Y-87201442D01*
X156010660Y-87377104D01*
X155993483Y-87418470D01*
X155980296Y-87405260D01*
X155750666Y-87309909D01*
X155502025Y-87309692D01*
X155272229Y-87404642D01*
X155096260Y-87580304D01*
X155000909Y-87809934D01*
X155000692Y-88058575D01*
X155095642Y-88288371D01*
X155271304Y-88464340D01*
X155500934Y-88559691D01*
X155614394Y-88559790D01*
X155839954Y-88785350D01*
X155832633Y-88821500D01*
X155832633Y-89221500D01*
X155855295Y-89341938D01*
X155926474Y-89452553D01*
X155953296Y-89470880D01*
X155932947Y-89483974D01*
X155858740Y-89592580D01*
X155832633Y-89721500D01*
X155832633Y-90121500D01*
X155855295Y-90241938D01*
X155926474Y-90352553D01*
X156035080Y-90426760D01*
X156164000Y-90452867D01*
X156358971Y-90452867D01*
X156584802Y-90678698D01*
X156730792Y-90776246D01*
X156903000Y-90810500D01*
X157525318Y-90810500D01*
X157577474Y-90891553D01*
X157686080Y-90965760D01*
X157815000Y-90991867D01*
X159365000Y-90991867D01*
X159485438Y-90969205D01*
X159595800Y-90898189D01*
X159595800Y-92430600D01*
X159631957Y-92612375D01*
X159734924Y-92766476D01*
X159750559Y-92782111D01*
X159750492Y-92859175D01*
X159845442Y-93088971D01*
X160021104Y-93264940D01*
X160250734Y-93360291D01*
X160499375Y-93360508D01*
X160648416Y-93298926D01*
X160692080Y-93328760D01*
X160821000Y-93354867D01*
X160904348Y-93354867D01*
X160760460Y-93498504D01*
X160665109Y-93728134D01*
X160664892Y-93976775D01*
X160745144Y-94171000D01*
X160291421Y-94171000D01*
X160287526Y-94164947D01*
X160178920Y-94090740D01*
X160050000Y-94064633D01*
X159150000Y-94064633D01*
X159029562Y-94087295D01*
X158918947Y-94158474D01*
X158844740Y-94267080D01*
X158818633Y-94396000D01*
X158818633Y-94796000D01*
X158841295Y-94916438D01*
X158892887Y-94996614D01*
X158844740Y-95067080D01*
X158818633Y-95196000D01*
X158818633Y-95596000D01*
X158841295Y-95716438D01*
X158912474Y-95827053D01*
X159021080Y-95901260D01*
X159150000Y-95927367D01*
X160050000Y-95927367D01*
X160170438Y-95904705D01*
X160281053Y-95833526D01*
X160289612Y-95821000D01*
X161080500Y-95821000D01*
X161153369Y-95806506D01*
X161165134Y-95811391D01*
X161413775Y-95811608D01*
X161630165Y-95722197D01*
X161630092Y-95805575D01*
X161725042Y-96035371D01*
X161900704Y-96211340D01*
X162130334Y-96306691D01*
X162378975Y-96306908D01*
X162608771Y-96211958D01*
X162714914Y-96106000D01*
X162738579Y-96106000D01*
X162742474Y-96112053D01*
X162851080Y-96186260D01*
X162980000Y-96212367D01*
X163580000Y-96212367D01*
X163700438Y-96189705D01*
X163811053Y-96118526D01*
X163829380Y-96091704D01*
X163842474Y-96112053D01*
X163930000Y-96171857D01*
X163930000Y-96361318D01*
X163848947Y-96413474D01*
X163829928Y-96441309D01*
X163764097Y-96375478D01*
X163644646Y-96326000D01*
X163411250Y-96326000D01*
X163330000Y-96407250D01*
X163330000Y-96851000D01*
X163350000Y-96851000D01*
X163350000Y-96951000D01*
X163330000Y-96951000D01*
X163330000Y-97394750D01*
X163411250Y-97476000D01*
X163644646Y-97476000D01*
X163764097Y-97426522D01*
X163829198Y-97361421D01*
X163842474Y-97382053D01*
X163951080Y-97456260D01*
X164080000Y-97482367D01*
X164680000Y-97482367D01*
X164800438Y-97459705D01*
X164911053Y-97388526D01*
X164985260Y-97279920D01*
X165011367Y-97151000D01*
X165011367Y-96651000D01*
X164988705Y-96530562D01*
X164917526Y-96419947D01*
X164830000Y-96360143D01*
X164830000Y-96170682D01*
X164911053Y-96118526D01*
X164913291Y-96115250D01*
X165413800Y-96115250D01*
X165413800Y-96173647D01*
X165438799Y-96234000D01*
X165413800Y-96294353D01*
X165413800Y-96352750D01*
X165495050Y-96434000D01*
X166338800Y-96434000D01*
X166338800Y-96034000D01*
X165495050Y-96034000D01*
X165413800Y-96115250D01*
X164913291Y-96115250D01*
X164936693Y-96081000D01*
X164947600Y-96081000D01*
X165119808Y-96046746D01*
X165265798Y-95949198D01*
X165413800Y-95801196D01*
X165413800Y-95852750D01*
X165495050Y-95934000D01*
X166338800Y-95934000D01*
X166338800Y-95534000D01*
X166438800Y-95534000D01*
X166438800Y-95934000D01*
X167282550Y-95934000D01*
X167363800Y-95852750D01*
X167363800Y-95794353D01*
X167338801Y-95734000D01*
X167363800Y-95673647D01*
X167363800Y-95615250D01*
X167282550Y-95534000D01*
X166438800Y-95534000D01*
X166338800Y-95534000D01*
X166318800Y-95534000D01*
X166318800Y-95440367D01*
X167038800Y-95440367D01*
X167072638Y-95434000D01*
X167282550Y-95434000D01*
X167363800Y-95352750D01*
X167363800Y-95294353D01*
X167341797Y-95241233D01*
X167344060Y-95237920D01*
X167370167Y-95109000D01*
X167370167Y-94859000D01*
X167347505Y-94738562D01*
X167344786Y-94734336D01*
X167370167Y-94609000D01*
X167370167Y-94359000D01*
X167347505Y-94238562D01*
X167344786Y-94234336D01*
X167370167Y-94109000D01*
X167370167Y-93934000D01*
X167374000Y-93934000D01*
X167546208Y-93899746D01*
X167692198Y-93802198D01*
X167799600Y-93694796D01*
X167799600Y-95978004D01*
X167343606Y-96433998D01*
X167282552Y-96433998D01*
X167363800Y-96352750D01*
X167363800Y-96294353D01*
X167338801Y-96234000D01*
X167363800Y-96173647D01*
X167363800Y-96115250D01*
X167282550Y-96034000D01*
X166438800Y-96034000D01*
X166438800Y-96434000D01*
X166458800Y-96434000D01*
X166458800Y-96527633D01*
X165738800Y-96527633D01*
X165704962Y-96534000D01*
X165495050Y-96534000D01*
X165413800Y-96615250D01*
X165413800Y-96673647D01*
X165435803Y-96726767D01*
X165433540Y-96730080D01*
X165407433Y-96859000D01*
X165407433Y-97109000D01*
X165430095Y-97229438D01*
X165501274Y-97340053D01*
X165609880Y-97414260D01*
X165738800Y-97440367D01*
X167038800Y-97440367D01*
X167072638Y-97434000D01*
X167150914Y-97434000D01*
X167115857Y-97469057D01*
X167029148Y-97598826D01*
X167016383Y-97663000D01*
X166998700Y-97751900D01*
X166998700Y-99211814D01*
X166341157Y-99869357D01*
X166254448Y-99999126D01*
X166254448Y-99999127D01*
X166224000Y-100152200D01*
X166224000Y-100387835D01*
X166207200Y-100384433D01*
X165807200Y-100384433D01*
X165686762Y-100407095D01*
X165576147Y-100478274D01*
X165557820Y-100505096D01*
X165544726Y-100484747D01*
X165436120Y-100410540D01*
X165307200Y-100384433D01*
X164907200Y-100384433D01*
X164786762Y-100407095D01*
X164676147Y-100478274D01*
X164601940Y-100586880D01*
X164596084Y-100615800D01*
X163545417Y-100615800D01*
X163545417Y-100392230D01*
X163522755Y-100271792D01*
X163451576Y-100161177D01*
X163342970Y-100086970D01*
X163214050Y-100060863D01*
X162413950Y-100060863D01*
X162293512Y-100083525D01*
X162182897Y-100154704D01*
X162108690Y-100263310D01*
X162082583Y-100392230D01*
X162082583Y-101192330D01*
X162091346Y-101238900D01*
X161997096Y-101238900D01*
X161821607Y-101063411D01*
X161832240Y-101052796D01*
X161927591Y-100823166D01*
X161927808Y-100574525D01*
X161832858Y-100344729D01*
X161657196Y-100168760D01*
X161427566Y-100073409D01*
X161178925Y-100073192D01*
X161098500Y-100106423D01*
X161098500Y-99815734D01*
X161157080Y-99855760D01*
X161286000Y-99881867D01*
X161686000Y-99881867D01*
X161806438Y-99859205D01*
X161917053Y-99788026D01*
X161934152Y-99763000D01*
X162371951Y-99763000D01*
X162373215Y-99769718D01*
X162444394Y-99880333D01*
X162553000Y-99954540D01*
X162681920Y-99980647D01*
X163479480Y-99980647D01*
X163599918Y-99957985D01*
X163710533Y-99886806D01*
X163784740Y-99778200D01*
X163810847Y-99649280D01*
X163810847Y-99381750D01*
X163855520Y-99381750D01*
X163855520Y-99713927D01*
X163904999Y-99833378D01*
X163996423Y-99924802D01*
X164115874Y-99974280D01*
X164448050Y-99974280D01*
X164529300Y-99893030D01*
X164529300Y-99300500D01*
X164629300Y-99300500D01*
X164629300Y-99893030D01*
X164710550Y-99974280D01*
X165042726Y-99974280D01*
X165162177Y-99924802D01*
X165253601Y-99833378D01*
X165303080Y-99713927D01*
X165303080Y-99381750D01*
X165221830Y-99300500D01*
X164629300Y-99300500D01*
X164529300Y-99300500D01*
X163936770Y-99300500D01*
X163855520Y-99381750D01*
X163810847Y-99381750D01*
X163810847Y-98851720D01*
X163798683Y-98787073D01*
X163855520Y-98787073D01*
X163855520Y-99119250D01*
X163936770Y-99200500D01*
X164529300Y-99200500D01*
X164529300Y-98607970D01*
X164629300Y-98607970D01*
X164629300Y-99200500D01*
X165221830Y-99200500D01*
X165303080Y-99119250D01*
X165303080Y-98787073D01*
X165253601Y-98667622D01*
X165162177Y-98576198D01*
X165042726Y-98526720D01*
X164710550Y-98526720D01*
X164629300Y-98607970D01*
X164529300Y-98607970D01*
X164448050Y-98526720D01*
X164115874Y-98526720D01*
X163996423Y-98576198D01*
X163904999Y-98667622D01*
X163855520Y-98787073D01*
X163798683Y-98787073D01*
X163788185Y-98731282D01*
X163717006Y-98620667D01*
X163608400Y-98546460D01*
X163479480Y-98520353D01*
X162681920Y-98520353D01*
X162561482Y-98543015D01*
X162450867Y-98614194D01*
X162376660Y-98722800D01*
X162373582Y-98738000D01*
X161935465Y-98738000D01*
X161923526Y-98719447D01*
X161814920Y-98645240D01*
X161686000Y-98619133D01*
X161286000Y-98619133D01*
X161165562Y-98641795D01*
X161061000Y-98709079D01*
X161061000Y-98483000D01*
X161024843Y-98301225D01*
X161011427Y-98281146D01*
X161017053Y-98277526D01*
X161036072Y-98249691D01*
X161101903Y-98315522D01*
X161221354Y-98365000D01*
X161454750Y-98365000D01*
X161536000Y-98283750D01*
X161536000Y-97840000D01*
X161636000Y-97840000D01*
X161636000Y-98283750D01*
X161717250Y-98365000D01*
X161950646Y-98365000D01*
X162070097Y-98315522D01*
X162161521Y-98224098D01*
X162211000Y-98104647D01*
X162211000Y-97921250D01*
X162129750Y-97840000D01*
X161636000Y-97840000D01*
X161536000Y-97840000D01*
X161516000Y-97840000D01*
X161516000Y-97740000D01*
X161536000Y-97740000D01*
X161536000Y-97296250D01*
X161636000Y-97296250D01*
X161636000Y-97740000D01*
X162129750Y-97740000D01*
X162211000Y-97658750D01*
X162211000Y-97475353D01*
X162161521Y-97355902D01*
X162070097Y-97264478D01*
X161950646Y-97215000D01*
X161717250Y-97215000D01*
X161636000Y-97296250D01*
X161536000Y-97296250D01*
X161454750Y-97215000D01*
X161221354Y-97215000D01*
X161101903Y-97264478D01*
X161036802Y-97329579D01*
X161023526Y-97308947D01*
X160914920Y-97234740D01*
X160786000Y-97208633D01*
X160186000Y-97208633D01*
X160065562Y-97231295D01*
X159954947Y-97302474D01*
X159880740Y-97411080D01*
X159864531Y-97491124D01*
X159764110Y-97422510D01*
X159635190Y-97396403D01*
X158494730Y-97396403D01*
X158374292Y-97419065D01*
X158263677Y-97490244D01*
X158189470Y-97598850D01*
X158163363Y-97727770D01*
X158163363Y-99757230D01*
X158186025Y-99877668D01*
X158257204Y-99988283D01*
X158365810Y-100062490D01*
X158445760Y-100078680D01*
X158420012Y-100083525D01*
X158309397Y-100154704D01*
X158235190Y-100263310D01*
X158219969Y-100338474D01*
X158139296Y-100257660D01*
X157909666Y-100162309D01*
X157661025Y-100162092D01*
X157431229Y-100257042D01*
X157300844Y-100387200D01*
X156922564Y-100387200D01*
X156874526Y-100312547D01*
X156765920Y-100238340D01*
X156637000Y-100212233D01*
X156037000Y-100212233D01*
X155916562Y-100234895D01*
X155805947Y-100306074D01*
X155731740Y-100414680D01*
X155705633Y-100543600D01*
X155705633Y-100943600D01*
X155728295Y-101064038D01*
X155799474Y-101174653D01*
X155826296Y-101192980D01*
X155805947Y-101206074D01*
X155731740Y-101314680D01*
X155705633Y-101443600D01*
X155705633Y-101843600D01*
X155728295Y-101964038D01*
X155799474Y-102074653D01*
X155908080Y-102148860D01*
X156037000Y-102174967D01*
X156637000Y-102174967D01*
X156757438Y-102152305D01*
X156771664Y-102143150D01*
X156816157Y-102187643D01*
X156831346Y-102197792D01*
X157259083Y-102625529D01*
X157259083Y-103191310D01*
X157281745Y-103311748D01*
X157352924Y-103422363D01*
X157461530Y-103496570D01*
X157590450Y-103522677D01*
X157590500Y-103522677D01*
X157590500Y-103594832D01*
X157446337Y-103654399D01*
X157275696Y-103483460D01*
X157046066Y-103388109D01*
X156797425Y-103387892D01*
X156779194Y-103395425D01*
X156799022Y-103375597D01*
X156848500Y-103256146D01*
X156848500Y-103022750D01*
X156767250Y-102941500D01*
X156323500Y-102941500D01*
X156323500Y-102961500D01*
X156223500Y-102961500D01*
X156223500Y-102941500D01*
X155779750Y-102941500D01*
X155698500Y-103022750D01*
X155698500Y-103256146D01*
X155747978Y-103375597D01*
X155813079Y-103440698D01*
X155792447Y-103453974D01*
X155718240Y-103562580D01*
X155692133Y-103691500D01*
X155692133Y-104291500D01*
X155714795Y-104411938D01*
X155785974Y-104522553D01*
X155894580Y-104596760D01*
X156023500Y-104622867D01*
X156523500Y-104622867D01*
X156643938Y-104600205D01*
X156668113Y-104584649D01*
X156773959Y-104628600D01*
X153538032Y-104628600D01*
X151734002Y-104269756D01*
X150235925Y-103268773D01*
X149740191Y-102526854D01*
X155698500Y-102526854D01*
X155698500Y-102760250D01*
X155779750Y-102841500D01*
X156223500Y-102841500D01*
X156223500Y-102347750D01*
X156323500Y-102347750D01*
X156323500Y-102841500D01*
X156767250Y-102841500D01*
X156848500Y-102760250D01*
X156848500Y-102526854D01*
X156799022Y-102407403D01*
X156707598Y-102315979D01*
X156588147Y-102266500D01*
X156404750Y-102266500D01*
X156323500Y-102347750D01*
X156223500Y-102347750D01*
X156142250Y-102266500D01*
X155958853Y-102266500D01*
X155839402Y-102315979D01*
X155747978Y-102407403D01*
X155698500Y-102526854D01*
X149740191Y-102526854D01*
X149506262Y-102176756D01*
X149557287Y-102214230D01*
X149984000Y-102319000D01*
X151174000Y-102319000D01*
X151174000Y-101244000D01*
X151274000Y-101244000D01*
X151274000Y-102319000D01*
X152464000Y-102319000D01*
X152890713Y-102214230D01*
X153244851Y-101954139D01*
X153472499Y-101578324D01*
X153516229Y-101419199D01*
X153456552Y-101244000D01*
X151274000Y-101244000D01*
X151174000Y-101244000D01*
X151154000Y-101244000D01*
X151154000Y-101144000D01*
X151174000Y-101144000D01*
X151174000Y-100069000D01*
X151274000Y-100069000D01*
X151274000Y-101144000D01*
X153456552Y-101144000D01*
X153516229Y-100968801D01*
X153472499Y-100809676D01*
X153244851Y-100433861D01*
X152890713Y-100173770D01*
X152464000Y-100069000D01*
X151274000Y-100069000D01*
X151174000Y-100069000D01*
X149984000Y-100069000D01*
X149557287Y-100173770D01*
X149203149Y-100433861D01*
X149026905Y-100724816D01*
X148876100Y-99966668D01*
X148876100Y-97603383D01*
X150398857Y-97603383D01*
X150524191Y-97906715D01*
X150756065Y-98138993D01*
X151059177Y-98264857D01*
X151387383Y-98265143D01*
X151690715Y-98139809D01*
X151922993Y-97907935D01*
X152048857Y-97604823D01*
X152049143Y-97276617D01*
X151923809Y-96973285D01*
X151691935Y-96741007D01*
X151388823Y-96615143D01*
X151060617Y-96614857D01*
X150757285Y-96740191D01*
X150525007Y-96972065D01*
X150399143Y-97275177D01*
X150398857Y-97603383D01*
X148876100Y-97603383D01*
X148876100Y-94107383D01*
X150398857Y-94107383D01*
X150524191Y-94410715D01*
X150756065Y-94642993D01*
X151059177Y-94768857D01*
X151387383Y-94769143D01*
X151690715Y-94643809D01*
X151922993Y-94411935D01*
X152013446Y-94194100D01*
X152323242Y-94194100D01*
X152385661Y-94507900D01*
X152563414Y-94773928D01*
X152829442Y-94951681D01*
X153143242Y-95014100D01*
X154704758Y-95014100D01*
X155018558Y-94951681D01*
X155284586Y-94773928D01*
X155354629Y-94669100D01*
X155591346Y-94669100D01*
X155600400Y-94670901D01*
X155600405Y-94670900D01*
X156356148Y-94670900D01*
X156617124Y-94931876D01*
X156681342Y-94974785D01*
X156574572Y-95046127D01*
X156553624Y-95060124D01*
X155894648Y-95719100D01*
X155354629Y-95719100D01*
X155284586Y-95614272D01*
X155018558Y-95436519D01*
X154704758Y-95374100D01*
X153143242Y-95374100D01*
X152829442Y-95436519D01*
X152563414Y-95614272D01*
X152385661Y-95880300D01*
X152323242Y-96194100D01*
X152385661Y-96507900D01*
X152563414Y-96773928D01*
X152829442Y-96951681D01*
X153143242Y-97014100D01*
X154704758Y-97014100D01*
X155018558Y-96951681D01*
X155284586Y-96773928D01*
X155354629Y-96669100D01*
X156091400Y-96669100D01*
X156273175Y-96632943D01*
X156427276Y-96529976D01*
X156635500Y-96321752D01*
X156635500Y-96544190D01*
X156505960Y-96673504D01*
X156410609Y-96903134D01*
X156410392Y-97151775D01*
X156505342Y-97381571D01*
X156520148Y-97396403D01*
X156086810Y-97396403D01*
X155966372Y-97419065D01*
X155855757Y-97490244D01*
X155781550Y-97598850D01*
X155755443Y-97727770D01*
X155755443Y-97869200D01*
X153924000Y-97869200D01*
X153898863Y-97874200D01*
X153143242Y-97874200D01*
X152829442Y-97936619D01*
X152563414Y-98114372D01*
X152385661Y-98380400D01*
X152323242Y-98694200D01*
X152385661Y-99008000D01*
X152563414Y-99274028D01*
X152829442Y-99451781D01*
X153143242Y-99514200D01*
X153565028Y-99514200D01*
X154042661Y-99991834D01*
X154092342Y-100112071D01*
X154268004Y-100288040D01*
X154497634Y-100383391D01*
X154746275Y-100383608D01*
X154976071Y-100288658D01*
X155152040Y-100112996D01*
X155247391Y-99883366D01*
X155247608Y-99634725D01*
X155199874Y-99519200D01*
X155755443Y-99519200D01*
X155755443Y-99757230D01*
X155778105Y-99877668D01*
X155849284Y-99988283D01*
X155957890Y-100062490D01*
X156086810Y-100088597D01*
X157227270Y-100088597D01*
X157347708Y-100065935D01*
X157458323Y-99994756D01*
X157532530Y-99886150D01*
X157558637Y-99757230D01*
X157558637Y-97727770D01*
X157535975Y-97607332D01*
X157464796Y-97496717D01*
X157456380Y-97490967D01*
X157565040Y-97382496D01*
X157660391Y-97152866D01*
X157660496Y-97032250D01*
X162655000Y-97032250D01*
X162655000Y-97215647D01*
X162704479Y-97335098D01*
X162795903Y-97426522D01*
X162915354Y-97476000D01*
X163148750Y-97476000D01*
X163230000Y-97394750D01*
X163230000Y-96951000D01*
X162736250Y-96951000D01*
X162655000Y-97032250D01*
X157660496Y-97032250D01*
X157660608Y-96904225D01*
X157565658Y-96674429D01*
X157477736Y-96586353D01*
X162655000Y-96586353D01*
X162655000Y-96769750D01*
X162736250Y-96851000D01*
X163230000Y-96851000D01*
X163230000Y-96407250D01*
X163148750Y-96326000D01*
X162915354Y-96326000D01*
X162795903Y-96375478D01*
X162704479Y-96466902D01*
X162655000Y-96586353D01*
X157477736Y-96586353D01*
X157435500Y-96544044D01*
X157435500Y-95924431D01*
X157450000Y-95927367D01*
X158350000Y-95927367D01*
X158470438Y-95904705D01*
X158581053Y-95833526D01*
X158655260Y-95724920D01*
X158681367Y-95596000D01*
X158681367Y-95196000D01*
X158658705Y-95075562D01*
X158607113Y-94995386D01*
X158655260Y-94924920D01*
X158681367Y-94796000D01*
X158681367Y-94396000D01*
X158658705Y-94275562D01*
X158587526Y-94164947D01*
X158478920Y-94090740D01*
X158350000Y-94064633D01*
X157558819Y-94064633D01*
X157245000Y-93750814D01*
X157245000Y-93638310D01*
X157374540Y-93508996D01*
X157469891Y-93279366D01*
X157470108Y-93030725D01*
X157375158Y-92800929D01*
X157199496Y-92624960D01*
X156969866Y-92529609D01*
X156721225Y-92529392D01*
X156491429Y-92624342D01*
X156315460Y-92800004D01*
X156220109Y-93029634D01*
X156219892Y-93278275D01*
X156314842Y-93508071D01*
X156445000Y-93638456D01*
X156445000Y-93720900D01*
X155607649Y-93720900D01*
X155598600Y-93719100D01*
X155354629Y-93719100D01*
X155284586Y-93614272D01*
X155018558Y-93436519D01*
X154704758Y-93374100D01*
X153143242Y-93374100D01*
X152829442Y-93436519D01*
X152563414Y-93614272D01*
X152385661Y-93880300D01*
X152323242Y-94194100D01*
X152013446Y-94194100D01*
X152048857Y-94108823D01*
X152049143Y-93780617D01*
X151923809Y-93477285D01*
X151691935Y-93245007D01*
X151388823Y-93119143D01*
X151060617Y-93118857D01*
X150757285Y-93244191D01*
X150525007Y-93476065D01*
X150399143Y-93779177D01*
X150398857Y-94107383D01*
X148876100Y-94107383D01*
X148876100Y-91871422D01*
X152373424Y-91871422D01*
X152397285Y-91961606D01*
X152558817Y-92238472D01*
X152814006Y-92432447D01*
X153124000Y-92514000D01*
X153874000Y-92514000D01*
X153874000Y-91744000D01*
X153974000Y-91744000D01*
X153974000Y-92514000D01*
X154724000Y-92514000D01*
X155033994Y-92432447D01*
X155289183Y-92238472D01*
X155450715Y-91961606D01*
X155474576Y-91871422D01*
X155411056Y-91744000D01*
X153974000Y-91744000D01*
X153874000Y-91744000D01*
X152436944Y-91744000D01*
X152373424Y-91871422D01*
X148876100Y-91871422D01*
X148876100Y-91516578D01*
X152373424Y-91516578D01*
X152436944Y-91644000D01*
X153874000Y-91644000D01*
X153874000Y-90874000D01*
X153974000Y-90874000D01*
X153974000Y-91644000D01*
X155411056Y-91644000D01*
X155474576Y-91516578D01*
X155450715Y-91426394D01*
X155289183Y-91149528D01*
X155033994Y-90955553D01*
X154724000Y-90874000D01*
X153974000Y-90874000D01*
X153874000Y-90874000D01*
X153124000Y-90874000D01*
X152814006Y-90955553D01*
X152558817Y-91149528D01*
X152397285Y-91426394D01*
X152373424Y-91516578D01*
X148876100Y-91516578D01*
X148876100Y-90040532D01*
X148971172Y-89562572D01*
X148975501Y-89578324D01*
X149203149Y-89954139D01*
X149557287Y-90214230D01*
X149984000Y-90319000D01*
X151174000Y-90319000D01*
X151174000Y-89244000D01*
X151274000Y-89244000D01*
X151274000Y-90319000D01*
X152464000Y-90319000D01*
X152890713Y-90214230D01*
X153244851Y-89954139D01*
X153472499Y-89578324D01*
X153516229Y-89419199D01*
X153456552Y-89244000D01*
X151274000Y-89244000D01*
X151174000Y-89244000D01*
X151154000Y-89244000D01*
X151154000Y-89144000D01*
X151174000Y-89144000D01*
X151174000Y-88069000D01*
X151274000Y-88069000D01*
X151274000Y-89144000D01*
X153456552Y-89144000D01*
X153516229Y-88968801D01*
X153472499Y-88809676D01*
X153244851Y-88433861D01*
X152890713Y-88173770D01*
X152464000Y-88069000D01*
X151274000Y-88069000D01*
X151174000Y-88069000D01*
X149984000Y-88069000D01*
X149557287Y-88173770D01*
X149203149Y-88433861D01*
X149192038Y-88452204D01*
X149234944Y-88236502D01*
X150235925Y-86738427D01*
X151734002Y-85737444D01*
X153538032Y-85378600D01*
X165318004Y-85378600D01*
X164775371Y-85921233D01*
G36*
X168101500Y-100277100D02*
X168131948Y-100430174D01*
X168167100Y-100482783D01*
X168167100Y-100830497D01*
X168136446Y-100817800D01*
X167999850Y-100817800D01*
X167918600Y-100899050D01*
X167918600Y-101423000D01*
X167938600Y-101423000D01*
X167938600Y-101523000D01*
X167918600Y-101523000D01*
X167918600Y-101543000D01*
X167818600Y-101543000D01*
X167818600Y-101523000D01*
X167798600Y-101523000D01*
X167798600Y-101423000D01*
X167818600Y-101423000D01*
X167818600Y-100899050D01*
X167737350Y-100817800D01*
X167600754Y-100817800D01*
X167481303Y-100867278D01*
X167481200Y-100867381D01*
X167481200Y-100648086D01*
X167821240Y-100308045D01*
X167821243Y-100308043D01*
X168101500Y-100027785D01*
X168101500Y-100277100D01*
X168101500Y-100277100D01*
G37*
X168101500Y-100277100D02*
X168131948Y-100430174D01*
X168167100Y-100482783D01*
X168167100Y-100830497D01*
X168136446Y-100817800D01*
X167999850Y-100817800D01*
X167918600Y-100899050D01*
X167918600Y-101423000D01*
X167938600Y-101423000D01*
X167938600Y-101523000D01*
X167918600Y-101523000D01*
X167918600Y-101543000D01*
X167818600Y-101543000D01*
X167818600Y-101523000D01*
X167798600Y-101523000D01*
X167798600Y-101423000D01*
X167818600Y-101423000D01*
X167818600Y-100899050D01*
X167737350Y-100817800D01*
X167600754Y-100817800D01*
X167481303Y-100867278D01*
X167481200Y-100867381D01*
X167481200Y-100648086D01*
X167821240Y-100308045D01*
X167821243Y-100308043D01*
X168101500Y-100027785D01*
X168101500Y-100277100D01*
G36*
X173051500Y-97290123D02*
X173051500Y-97677550D01*
X173038800Y-97690250D01*
X173038800Y-97902559D01*
X173032433Y-97934000D01*
X173032433Y-99234000D01*
X173038800Y-99267838D01*
X173038800Y-99477750D01*
X173120050Y-99559000D01*
X173178447Y-99559000D01*
X173231567Y-99536997D01*
X173234880Y-99539260D01*
X173363800Y-99565367D01*
X173613800Y-99565367D01*
X173734238Y-99542705D01*
X173844853Y-99471526D01*
X173919060Y-99362920D01*
X173945167Y-99234000D01*
X173945167Y-98615838D01*
X173951500Y-98584000D01*
X173951500Y-98249803D01*
X174044042Y-98473771D01*
X174219704Y-98649740D01*
X174449334Y-98745091D01*
X174697975Y-98745308D01*
X174927771Y-98650358D01*
X175103740Y-98474696D01*
X175199091Y-98245066D01*
X175199308Y-97996425D01*
X175104358Y-97766629D01*
X174928696Y-97590660D01*
X174699066Y-97495309D01*
X174540256Y-97495170D01*
X174485453Y-97440367D01*
X175690881Y-97440367D01*
X177136155Y-98885640D01*
X177136157Y-98885643D01*
X177265927Y-98972352D01*
X177419000Y-99002800D01*
X180017500Y-99002800D01*
X178810900Y-100209400D01*
X173444485Y-100209400D01*
X173002843Y-99767757D01*
X173002840Y-99767755D01*
X172790502Y-99555416D01*
X172799153Y-99559000D01*
X172857550Y-99559000D01*
X172938800Y-99477750D01*
X172938800Y-98634000D01*
X172538800Y-98634000D01*
X172538800Y-98654000D01*
X172445167Y-98654000D01*
X172445167Y-97934000D01*
X172438800Y-97900162D01*
X172438800Y-97690250D01*
X172538800Y-97690250D01*
X172538800Y-98534000D01*
X172938800Y-98534000D01*
X172938800Y-97690250D01*
X172857550Y-97609000D01*
X172799153Y-97609000D01*
X172738800Y-97633999D01*
X172678447Y-97609000D01*
X172620050Y-97609000D01*
X172538800Y-97690250D01*
X172438800Y-97690250D01*
X172357550Y-97609000D01*
X172299153Y-97609000D01*
X172246033Y-97631003D01*
X172242720Y-97628740D01*
X172113800Y-97602633D01*
X171863800Y-97602633D01*
X171743362Y-97625295D01*
X171739136Y-97628014D01*
X171613800Y-97602633D01*
X171363800Y-97602633D01*
X171243362Y-97625295D01*
X171239136Y-97628014D01*
X171113800Y-97602633D01*
X170863800Y-97602633D01*
X170743362Y-97625295D01*
X170739136Y-97628014D01*
X170613800Y-97602633D01*
X170363800Y-97602633D01*
X170243362Y-97625295D01*
X170239136Y-97628014D01*
X170113800Y-97602633D01*
X169863800Y-97602633D01*
X169743362Y-97625295D01*
X169739136Y-97628014D01*
X169613800Y-97602633D01*
X169388975Y-97602633D01*
X169371052Y-97512526D01*
X169284343Y-97382757D01*
X169053143Y-97151557D01*
X168923374Y-97064848D01*
X168893471Y-97058900D01*
X172773305Y-97058900D01*
X173051500Y-97290123D01*
X173051500Y-97290123D01*
G37*
X173051500Y-97290123D02*
X173051500Y-97677550D01*
X173038800Y-97690250D01*
X173038800Y-97902559D01*
X173032433Y-97934000D01*
X173032433Y-99234000D01*
X173038800Y-99267838D01*
X173038800Y-99477750D01*
X173120050Y-99559000D01*
X173178447Y-99559000D01*
X173231567Y-99536997D01*
X173234880Y-99539260D01*
X173363800Y-99565367D01*
X173613800Y-99565367D01*
X173734238Y-99542705D01*
X173844853Y-99471526D01*
X173919060Y-99362920D01*
X173945167Y-99234000D01*
X173945167Y-98615838D01*
X173951500Y-98584000D01*
X173951500Y-98249803D01*
X174044042Y-98473771D01*
X174219704Y-98649740D01*
X174449334Y-98745091D01*
X174697975Y-98745308D01*
X174927771Y-98650358D01*
X175103740Y-98474696D01*
X175199091Y-98245066D01*
X175199308Y-97996425D01*
X175104358Y-97766629D01*
X174928696Y-97590660D01*
X174699066Y-97495309D01*
X174540256Y-97495170D01*
X174485453Y-97440367D01*
X175690881Y-97440367D01*
X177136155Y-98885640D01*
X177136157Y-98885643D01*
X177265927Y-98972352D01*
X177419000Y-99002800D01*
X180017500Y-99002800D01*
X178810900Y-100209400D01*
X173444485Y-100209400D01*
X173002843Y-99767757D01*
X173002840Y-99767755D01*
X172790502Y-99555416D01*
X172799153Y-99559000D01*
X172857550Y-99559000D01*
X172938800Y-99477750D01*
X172938800Y-98634000D01*
X172538800Y-98634000D01*
X172538800Y-98654000D01*
X172445167Y-98654000D01*
X172445167Y-97934000D01*
X172438800Y-97900162D01*
X172438800Y-97690250D01*
X172538800Y-97690250D01*
X172538800Y-98534000D01*
X172938800Y-98534000D01*
X172938800Y-97690250D01*
X172857550Y-97609000D01*
X172799153Y-97609000D01*
X172738800Y-97633999D01*
X172678447Y-97609000D01*
X172620050Y-97609000D01*
X172538800Y-97690250D01*
X172438800Y-97690250D01*
X172357550Y-97609000D01*
X172299153Y-97609000D01*
X172246033Y-97631003D01*
X172242720Y-97628740D01*
X172113800Y-97602633D01*
X171863800Y-97602633D01*
X171743362Y-97625295D01*
X171739136Y-97628014D01*
X171613800Y-97602633D01*
X171363800Y-97602633D01*
X171243362Y-97625295D01*
X171239136Y-97628014D01*
X171113800Y-97602633D01*
X170863800Y-97602633D01*
X170743362Y-97625295D01*
X170739136Y-97628014D01*
X170613800Y-97602633D01*
X170363800Y-97602633D01*
X170243362Y-97625295D01*
X170239136Y-97628014D01*
X170113800Y-97602633D01*
X169863800Y-97602633D01*
X169743362Y-97625295D01*
X169739136Y-97628014D01*
X169613800Y-97602633D01*
X169388975Y-97602633D01*
X169371052Y-97512526D01*
X169284343Y-97382757D01*
X169053143Y-97151557D01*
X168923374Y-97064848D01*
X168893471Y-97058900D01*
X172773305Y-97058900D01*
X173051500Y-97290123D01*
G36*
X171249633Y-87917529D02*
X171249633Y-88162500D01*
X171272295Y-88282938D01*
X171343474Y-88393553D01*
X171452080Y-88467760D01*
X171581000Y-88493867D01*
X171825971Y-88493867D01*
X172051500Y-88719396D01*
X172051500Y-88902633D01*
X171863800Y-88902633D01*
X171743362Y-88925295D01*
X171739136Y-88928014D01*
X171613800Y-88902633D01*
X171363800Y-88902633D01*
X171243362Y-88925295D01*
X171233346Y-88931740D01*
X171178447Y-88909000D01*
X171120050Y-88909000D01*
X171038800Y-88990250D01*
X171038800Y-89202559D01*
X171032433Y-89234000D01*
X171032433Y-90534000D01*
X171038800Y-90567838D01*
X171038800Y-90777750D01*
X171120050Y-90859000D01*
X171178447Y-90859000D01*
X171231567Y-90836997D01*
X171234880Y-90839260D01*
X171363800Y-90865367D01*
X171526500Y-90865367D01*
X171526500Y-91216191D01*
X171453860Y-91288704D01*
X171358509Y-91518334D01*
X171358292Y-91766975D01*
X171453242Y-91996771D01*
X171628904Y-92172740D01*
X171858534Y-92268091D01*
X172024009Y-92268235D01*
X171807629Y-92357642D01*
X171631660Y-92533304D01*
X171536309Y-92762934D01*
X171536092Y-93011575D01*
X171631042Y-93241371D01*
X171806704Y-93417340D01*
X172036334Y-93512691D01*
X172284975Y-93512908D01*
X172514771Y-93417958D01*
X172690740Y-93242296D01*
X172786091Y-93012666D01*
X172786190Y-92899206D01*
X173114398Y-92570998D01*
X173211947Y-92425007D01*
X173246200Y-92252800D01*
X173246200Y-91610600D01*
X173812200Y-91610600D01*
X173984408Y-91576346D01*
X174113800Y-91489888D01*
X174113800Y-91534002D01*
X174195048Y-91534002D01*
X174113800Y-91615250D01*
X174113800Y-91673647D01*
X174138799Y-91734000D01*
X174113800Y-91794353D01*
X174113800Y-91852750D01*
X174195050Y-91934000D01*
X175038800Y-91934000D01*
X175038800Y-91534000D01*
X175138800Y-91534000D01*
X175138800Y-91934000D01*
X175982550Y-91934000D01*
X176063800Y-91852750D01*
X176063800Y-91794353D01*
X176038801Y-91734000D01*
X176063800Y-91673647D01*
X176063800Y-91615250D01*
X175982550Y-91534000D01*
X175138800Y-91534000D01*
X175038800Y-91534000D01*
X175018800Y-91534000D01*
X175018800Y-91434000D01*
X175038800Y-91434000D01*
X175038800Y-91115250D01*
X175138800Y-91115250D01*
X175138800Y-91434000D01*
X175982550Y-91434000D01*
X176063800Y-91352750D01*
X176063800Y-91294353D01*
X176014321Y-91174902D01*
X175922897Y-91083478D01*
X175803446Y-91034000D01*
X175220050Y-91034000D01*
X175138800Y-91115250D01*
X175038800Y-91115250D01*
X174957550Y-91034000D01*
X174575196Y-91034000D01*
X174612651Y-90996545D01*
X174689198Y-90945398D01*
X174728242Y-90906354D01*
X176844000Y-90906354D01*
X176844000Y-91139750D01*
X176925250Y-91221000D01*
X177369000Y-91221000D01*
X177369000Y-90727250D01*
X177287750Y-90646000D01*
X177104353Y-90646000D01*
X176984902Y-90695479D01*
X176893478Y-90786903D01*
X176844000Y-90906354D01*
X174728242Y-90906354D01*
X175014596Y-90620000D01*
X177766004Y-90620000D01*
X177833270Y-90687266D01*
X177733647Y-90646000D01*
X177550250Y-90646000D01*
X177469000Y-90727250D01*
X177469000Y-91221000D01*
X177489000Y-91221000D01*
X177489000Y-91321000D01*
X177469000Y-91321000D01*
X177469000Y-91341000D01*
X177369000Y-91341000D01*
X177369000Y-91321000D01*
X176925250Y-91321000D01*
X176844000Y-91402250D01*
X176844000Y-91635646D01*
X176893478Y-91755097D01*
X176958579Y-91820198D01*
X176937947Y-91833474D01*
X176863740Y-91942080D01*
X176862946Y-91946000D01*
X176742000Y-91946000D01*
X176606343Y-91972984D01*
X176579359Y-91978351D01*
X176458661Y-92059000D01*
X176007550Y-92059000D01*
X175982550Y-92034000D01*
X175770241Y-92034000D01*
X175738800Y-92027633D01*
X174438800Y-92027633D01*
X174404962Y-92034000D01*
X174195050Y-92034000D01*
X174113800Y-92115250D01*
X174113800Y-92173647D01*
X174135803Y-92226767D01*
X174133540Y-92230080D01*
X174107433Y-92359000D01*
X174107433Y-92609000D01*
X174130095Y-92729438D01*
X174132814Y-92733664D01*
X174107433Y-92859000D01*
X174107433Y-92892452D01*
X173937066Y-92821709D01*
X173688425Y-92821492D01*
X173458629Y-92916442D01*
X173282660Y-93092104D01*
X173187309Y-93321734D01*
X173187092Y-93570375D01*
X173282042Y-93800171D01*
X173457704Y-93976140D01*
X173687334Y-94071491D01*
X173935975Y-94071708D01*
X174107433Y-94000863D01*
X174107433Y-94109000D01*
X174130095Y-94229438D01*
X174132814Y-94233664D01*
X174107433Y-94359000D01*
X174107433Y-94584000D01*
X173305486Y-94584000D01*
X173141748Y-94420262D01*
X173141908Y-94237225D01*
X173046958Y-94007429D01*
X172871296Y-93831460D01*
X172641666Y-93736109D01*
X172393025Y-93735892D01*
X172163229Y-93830842D01*
X171987260Y-94006504D01*
X171891909Y-94236134D01*
X171891692Y-94484775D01*
X171986642Y-94714571D01*
X172162304Y-94890540D01*
X172391934Y-94985891D01*
X172576166Y-94986052D01*
X172856957Y-95266843D01*
X172986726Y-95353552D01*
X173139800Y-95384000D01*
X173683207Y-95384000D01*
X173620448Y-95477926D01*
X173604393Y-95558640D01*
X173590000Y-95631000D01*
X173590000Y-96567417D01*
X173223538Y-96262830D01*
X173164220Y-96230647D01*
X173108108Y-96193154D01*
X173087593Y-96189073D01*
X173069207Y-96179098D01*
X173002086Y-96172065D01*
X172935900Y-96158900D01*
X168699600Y-96158900D01*
X168699600Y-91935644D01*
X168809504Y-92045740D01*
X169039134Y-92141091D01*
X169284907Y-92141305D01*
X169319642Y-92225371D01*
X169495304Y-92401340D01*
X169724934Y-92496691D01*
X169973575Y-92496908D01*
X170203371Y-92401958D01*
X170379340Y-92226296D01*
X170416344Y-92137180D01*
X170486934Y-92166491D01*
X170735575Y-92166708D01*
X170965371Y-92071758D01*
X171141340Y-91896096D01*
X171236691Y-91666466D01*
X171236908Y-91417825D01*
X171141958Y-91188029D01*
X170966296Y-91012060D01*
X170901500Y-90985154D01*
X170901500Y-90815050D01*
X170938800Y-90777750D01*
X170938800Y-90565441D01*
X170945167Y-90534000D01*
X170945167Y-89234000D01*
X170938800Y-89200162D01*
X170938800Y-88990250D01*
X170857550Y-88909000D01*
X170799153Y-88909000D01*
X170746033Y-88931003D01*
X170742720Y-88928740D01*
X170613800Y-88902633D01*
X170363800Y-88902633D01*
X170243362Y-88925295D01*
X170239136Y-88928014D01*
X170113800Y-88902633D01*
X169863800Y-88902633D01*
X169743362Y-88925295D01*
X169739136Y-88928014D01*
X169613800Y-88902633D01*
X169451500Y-88902633D01*
X169451500Y-88442852D01*
X169518053Y-88400026D01*
X169577857Y-88312500D01*
X169894318Y-88312500D01*
X169946474Y-88393553D01*
X170055080Y-88467760D01*
X170184000Y-88493867D01*
X170684000Y-88493867D01*
X170804438Y-88471205D01*
X170915053Y-88400026D01*
X170989260Y-88291420D01*
X171015367Y-88162500D01*
X171015367Y-87683263D01*
X171249633Y-87917529D01*
X171249633Y-87917529D01*
G37*
X171249633Y-87917529D02*
X171249633Y-88162500D01*
X171272295Y-88282938D01*
X171343474Y-88393553D01*
X171452080Y-88467760D01*
X171581000Y-88493867D01*
X171825971Y-88493867D01*
X172051500Y-88719396D01*
X172051500Y-88902633D01*
X171863800Y-88902633D01*
X171743362Y-88925295D01*
X171739136Y-88928014D01*
X171613800Y-88902633D01*
X171363800Y-88902633D01*
X171243362Y-88925295D01*
X171233346Y-88931740D01*
X171178447Y-88909000D01*
X171120050Y-88909000D01*
X171038800Y-88990250D01*
X171038800Y-89202559D01*
X171032433Y-89234000D01*
X171032433Y-90534000D01*
X171038800Y-90567838D01*
X171038800Y-90777750D01*
X171120050Y-90859000D01*
X171178447Y-90859000D01*
X171231567Y-90836997D01*
X171234880Y-90839260D01*
X171363800Y-90865367D01*
X171526500Y-90865367D01*
X171526500Y-91216191D01*
X171453860Y-91288704D01*
X171358509Y-91518334D01*
X171358292Y-91766975D01*
X171453242Y-91996771D01*
X171628904Y-92172740D01*
X171858534Y-92268091D01*
X172024009Y-92268235D01*
X171807629Y-92357642D01*
X171631660Y-92533304D01*
X171536309Y-92762934D01*
X171536092Y-93011575D01*
X171631042Y-93241371D01*
X171806704Y-93417340D01*
X172036334Y-93512691D01*
X172284975Y-93512908D01*
X172514771Y-93417958D01*
X172690740Y-93242296D01*
X172786091Y-93012666D01*
X172786190Y-92899206D01*
X173114398Y-92570998D01*
X173211947Y-92425007D01*
X173246200Y-92252800D01*
X173246200Y-91610600D01*
X173812200Y-91610600D01*
X173984408Y-91576346D01*
X174113800Y-91489888D01*
X174113800Y-91534002D01*
X174195048Y-91534002D01*
X174113800Y-91615250D01*
X174113800Y-91673647D01*
X174138799Y-91734000D01*
X174113800Y-91794353D01*
X174113800Y-91852750D01*
X174195050Y-91934000D01*
X175038800Y-91934000D01*
X175038800Y-91534000D01*
X175138800Y-91534000D01*
X175138800Y-91934000D01*
X175982550Y-91934000D01*
X176063800Y-91852750D01*
X176063800Y-91794353D01*
X176038801Y-91734000D01*
X176063800Y-91673647D01*
X176063800Y-91615250D01*
X175982550Y-91534000D01*
X175138800Y-91534000D01*
X175038800Y-91534000D01*
X175018800Y-91534000D01*
X175018800Y-91434000D01*
X175038800Y-91434000D01*
X175038800Y-91115250D01*
X175138800Y-91115250D01*
X175138800Y-91434000D01*
X175982550Y-91434000D01*
X176063800Y-91352750D01*
X176063800Y-91294353D01*
X176014321Y-91174902D01*
X175922897Y-91083478D01*
X175803446Y-91034000D01*
X175220050Y-91034000D01*
X175138800Y-91115250D01*
X175038800Y-91115250D01*
X174957550Y-91034000D01*
X174575196Y-91034000D01*
X174612651Y-90996545D01*
X174689198Y-90945398D01*
X174728242Y-90906354D01*
X176844000Y-90906354D01*
X176844000Y-91139750D01*
X176925250Y-91221000D01*
X177369000Y-91221000D01*
X177369000Y-90727250D01*
X177287750Y-90646000D01*
X177104353Y-90646000D01*
X176984902Y-90695479D01*
X176893478Y-90786903D01*
X176844000Y-90906354D01*
X174728242Y-90906354D01*
X175014596Y-90620000D01*
X177766004Y-90620000D01*
X177833270Y-90687266D01*
X177733647Y-90646000D01*
X177550250Y-90646000D01*
X177469000Y-90727250D01*
X177469000Y-91221000D01*
X177489000Y-91221000D01*
X177489000Y-91321000D01*
X177469000Y-91321000D01*
X177469000Y-91341000D01*
X177369000Y-91341000D01*
X177369000Y-91321000D01*
X176925250Y-91321000D01*
X176844000Y-91402250D01*
X176844000Y-91635646D01*
X176893478Y-91755097D01*
X176958579Y-91820198D01*
X176937947Y-91833474D01*
X176863740Y-91942080D01*
X176862946Y-91946000D01*
X176742000Y-91946000D01*
X176606343Y-91972984D01*
X176579359Y-91978351D01*
X176458661Y-92059000D01*
X176007550Y-92059000D01*
X175982550Y-92034000D01*
X175770241Y-92034000D01*
X175738800Y-92027633D01*
X174438800Y-92027633D01*
X174404962Y-92034000D01*
X174195050Y-92034000D01*
X174113800Y-92115250D01*
X174113800Y-92173647D01*
X174135803Y-92226767D01*
X174133540Y-92230080D01*
X174107433Y-92359000D01*
X174107433Y-92609000D01*
X174130095Y-92729438D01*
X174132814Y-92733664D01*
X174107433Y-92859000D01*
X174107433Y-92892452D01*
X173937066Y-92821709D01*
X173688425Y-92821492D01*
X173458629Y-92916442D01*
X173282660Y-93092104D01*
X173187309Y-93321734D01*
X173187092Y-93570375D01*
X173282042Y-93800171D01*
X173457704Y-93976140D01*
X173687334Y-94071491D01*
X173935975Y-94071708D01*
X174107433Y-94000863D01*
X174107433Y-94109000D01*
X174130095Y-94229438D01*
X174132814Y-94233664D01*
X174107433Y-94359000D01*
X174107433Y-94584000D01*
X173305486Y-94584000D01*
X173141748Y-94420262D01*
X173141908Y-94237225D01*
X173046958Y-94007429D01*
X172871296Y-93831460D01*
X172641666Y-93736109D01*
X172393025Y-93735892D01*
X172163229Y-93830842D01*
X171987260Y-94006504D01*
X171891909Y-94236134D01*
X171891692Y-94484775D01*
X171986642Y-94714571D01*
X172162304Y-94890540D01*
X172391934Y-94985891D01*
X172576166Y-94986052D01*
X172856957Y-95266843D01*
X172986726Y-95353552D01*
X173139800Y-95384000D01*
X173683207Y-95384000D01*
X173620448Y-95477926D01*
X173604393Y-95558640D01*
X173590000Y-95631000D01*
X173590000Y-96567417D01*
X173223538Y-96262830D01*
X173164220Y-96230647D01*
X173108108Y-96193154D01*
X173087593Y-96189073D01*
X173069207Y-96179098D01*
X173002086Y-96172065D01*
X172935900Y-96158900D01*
X168699600Y-96158900D01*
X168699600Y-91935644D01*
X168809504Y-92045740D01*
X169039134Y-92141091D01*
X169284907Y-92141305D01*
X169319642Y-92225371D01*
X169495304Y-92401340D01*
X169724934Y-92496691D01*
X169973575Y-92496908D01*
X170203371Y-92401958D01*
X170379340Y-92226296D01*
X170416344Y-92137180D01*
X170486934Y-92166491D01*
X170735575Y-92166708D01*
X170965371Y-92071758D01*
X171141340Y-91896096D01*
X171236691Y-91666466D01*
X171236908Y-91417825D01*
X171141958Y-91188029D01*
X170966296Y-91012060D01*
X170901500Y-90985154D01*
X170901500Y-90815050D01*
X170938800Y-90777750D01*
X170938800Y-90565441D01*
X170945167Y-90534000D01*
X170945167Y-89234000D01*
X170938800Y-89200162D01*
X170938800Y-88990250D01*
X170857550Y-88909000D01*
X170799153Y-88909000D01*
X170746033Y-88931003D01*
X170742720Y-88928740D01*
X170613800Y-88902633D01*
X170363800Y-88902633D01*
X170243362Y-88925295D01*
X170239136Y-88928014D01*
X170113800Y-88902633D01*
X169863800Y-88902633D01*
X169743362Y-88925295D01*
X169739136Y-88928014D01*
X169613800Y-88902633D01*
X169451500Y-88902633D01*
X169451500Y-88442852D01*
X169518053Y-88400026D01*
X169577857Y-88312500D01*
X169894318Y-88312500D01*
X169946474Y-88393553D01*
X170055080Y-88467760D01*
X170184000Y-88493867D01*
X170684000Y-88493867D01*
X170804438Y-88471205D01*
X170915053Y-88400026D01*
X170989260Y-88291420D01*
X171015367Y-88162500D01*
X171015367Y-87683263D01*
X171249633Y-87917529D01*
G36*
X164747500Y-92723500D02*
X164767500Y-92723500D01*
X164767500Y-92823500D01*
X164747500Y-92823500D01*
X164747500Y-93267250D01*
X164828750Y-93348500D01*
X165062146Y-93348500D01*
X165181597Y-93299022D01*
X165273021Y-93207598D01*
X165322500Y-93088147D01*
X165322500Y-92904750D01*
X165278640Y-92860890D01*
X165336792Y-92899746D01*
X165491586Y-92930536D01*
X165495050Y-92934000D01*
X165707359Y-92934000D01*
X165738800Y-92940367D01*
X166458800Y-92940367D01*
X166458800Y-93027633D01*
X165738800Y-93027633D01*
X165704962Y-93034000D01*
X165495050Y-93034000D01*
X165413800Y-93115250D01*
X165413800Y-93173647D01*
X165435803Y-93226767D01*
X165433540Y-93230080D01*
X165407433Y-93359000D01*
X165407433Y-93559000D01*
X164207000Y-93559000D01*
X164044360Y-93591351D01*
X164009793Y-93614448D01*
X163908694Y-93682000D01*
X161895595Y-93682000D01*
X161820158Y-93499429D01*
X161644496Y-93323460D01*
X161590118Y-93300880D01*
X161652053Y-93261026D01*
X161670380Y-93234204D01*
X161683474Y-93254553D01*
X161792080Y-93328760D01*
X161921000Y-93354867D01*
X162521000Y-93354867D01*
X162641438Y-93332205D01*
X162752053Y-93261026D01*
X162777693Y-93223500D01*
X163039992Y-93223500D01*
X163059974Y-93254553D01*
X163168580Y-93328760D01*
X163297500Y-93354867D01*
X163897500Y-93354867D01*
X164017938Y-93332205D01*
X164128553Y-93261026D01*
X164147572Y-93233191D01*
X164213403Y-93299022D01*
X164332854Y-93348500D01*
X164566250Y-93348500D01*
X164647500Y-93267250D01*
X164647500Y-92823500D01*
X164627500Y-92823500D01*
X164627500Y-92723500D01*
X164647500Y-92723500D01*
X164647500Y-92703500D01*
X164747500Y-92703500D01*
X164747500Y-92723500D01*
X164747500Y-92723500D01*
G37*
X164747500Y-92723500D02*
X164767500Y-92723500D01*
X164767500Y-92823500D01*
X164747500Y-92823500D01*
X164747500Y-93267250D01*
X164828750Y-93348500D01*
X165062146Y-93348500D01*
X165181597Y-93299022D01*
X165273021Y-93207598D01*
X165322500Y-93088147D01*
X165322500Y-92904750D01*
X165278640Y-92860890D01*
X165336792Y-92899746D01*
X165491586Y-92930536D01*
X165495050Y-92934000D01*
X165707359Y-92934000D01*
X165738800Y-92940367D01*
X166458800Y-92940367D01*
X166458800Y-93027633D01*
X165738800Y-93027633D01*
X165704962Y-93034000D01*
X165495050Y-93034000D01*
X165413800Y-93115250D01*
X165413800Y-93173647D01*
X165435803Y-93226767D01*
X165433540Y-93230080D01*
X165407433Y-93359000D01*
X165407433Y-93559000D01*
X164207000Y-93559000D01*
X164044360Y-93591351D01*
X164009793Y-93614448D01*
X163908694Y-93682000D01*
X161895595Y-93682000D01*
X161820158Y-93499429D01*
X161644496Y-93323460D01*
X161590118Y-93300880D01*
X161652053Y-93261026D01*
X161670380Y-93234204D01*
X161683474Y-93254553D01*
X161792080Y-93328760D01*
X161921000Y-93354867D01*
X162521000Y-93354867D01*
X162641438Y-93332205D01*
X162752053Y-93261026D01*
X162777693Y-93223500D01*
X163039992Y-93223500D01*
X163059974Y-93254553D01*
X163168580Y-93328760D01*
X163297500Y-93354867D01*
X163897500Y-93354867D01*
X164017938Y-93332205D01*
X164128553Y-93261026D01*
X164147572Y-93233191D01*
X164213403Y-93299022D01*
X164332854Y-93348500D01*
X164566250Y-93348500D01*
X164647500Y-93267250D01*
X164647500Y-92823500D01*
X164627500Y-92823500D01*
X164627500Y-92723500D01*
X164647500Y-92723500D01*
X164647500Y-92703500D01*
X164747500Y-92703500D01*
X164747500Y-92723500D01*
G36*
X184172947Y-85385874D02*
X184098740Y-85494480D01*
X184072633Y-85623400D01*
X184072633Y-85783000D01*
X183591200Y-85783000D01*
X183418992Y-85817254D01*
X183340448Y-85869736D01*
X183333958Y-85854029D01*
X183158296Y-85678060D01*
X182928666Y-85582709D01*
X182680025Y-85582492D01*
X182450229Y-85677442D01*
X182274260Y-85853104D01*
X182178909Y-86082734D01*
X182178748Y-86266966D01*
X181327157Y-87118557D01*
X181240448Y-87248326D01*
X181218606Y-87358133D01*
X181210000Y-87401400D01*
X181210000Y-88314600D01*
X181176066Y-88300509D01*
X180927425Y-88300292D01*
X180697629Y-88395242D01*
X180521660Y-88570904D01*
X180426309Y-88800534D01*
X180426092Y-89049175D01*
X180521042Y-89278971D01*
X180651636Y-89409793D01*
X180653220Y-91170786D01*
X180591866Y-91145309D01*
X180343225Y-91145092D01*
X180113429Y-91240042D01*
X179937460Y-91415704D01*
X179929967Y-91433749D01*
X179929967Y-91374200D01*
X179907305Y-91253762D01*
X179836126Y-91143147D01*
X179727520Y-91068940D01*
X179598600Y-91042833D01*
X178998600Y-91042833D01*
X178878162Y-91065495D01*
X178815908Y-91105555D01*
X178783400Y-91083343D01*
X178783400Y-90551000D01*
X178749146Y-90378792D01*
X178651598Y-90232802D01*
X178270598Y-89851802D01*
X178124608Y-89754254D01*
X177952400Y-89720000D01*
X174828200Y-89720000D01*
X174655992Y-89754254D01*
X174510002Y-89851802D01*
X174103951Y-90257853D01*
X174027402Y-90309002D01*
X173945167Y-90391237D01*
X173945167Y-89915838D01*
X173951500Y-89884000D01*
X173951500Y-89143096D01*
X174600729Y-88493867D01*
X174811500Y-88493867D01*
X174931938Y-88471205D01*
X175042553Y-88400026D01*
X175102305Y-88312575D01*
X175371492Y-88312575D01*
X175466442Y-88542371D01*
X175642104Y-88718340D01*
X175871734Y-88813691D01*
X176120375Y-88813908D01*
X176350171Y-88718958D01*
X176526140Y-88543296D01*
X176621491Y-88313666D01*
X176621678Y-88099590D01*
X176627260Y-88091420D01*
X176653367Y-87962500D01*
X176653367Y-87893750D01*
X176794000Y-87893750D01*
X176794000Y-88027146D01*
X176843478Y-88146597D01*
X176934902Y-88238021D01*
X177054353Y-88287500D01*
X177287750Y-88287500D01*
X177369000Y-88206250D01*
X177369000Y-87812500D01*
X177469000Y-87812500D01*
X177469000Y-88206250D01*
X177550250Y-88287500D01*
X177783647Y-88287500D01*
X177903098Y-88238021D01*
X177994522Y-88146597D01*
X178044000Y-88027146D01*
X178044000Y-87893750D01*
X177962750Y-87812500D01*
X177469000Y-87812500D01*
X177369000Y-87812500D01*
X176875250Y-87812500D01*
X176794000Y-87893750D01*
X176653367Y-87893750D01*
X176653367Y-87562500D01*
X176630705Y-87442062D01*
X176559526Y-87331447D01*
X176532704Y-87313120D01*
X176533668Y-87312500D01*
X176909204Y-87312500D01*
X176909309Y-87312572D01*
X176843478Y-87378403D01*
X176794000Y-87497854D01*
X176794000Y-87631250D01*
X176875250Y-87712500D01*
X177369000Y-87712500D01*
X177369000Y-87692500D01*
X177469000Y-87692500D01*
X177469000Y-87712500D01*
X177962750Y-87712500D01*
X178044000Y-87631250D01*
X178044000Y-87497854D01*
X177994522Y-87378403D01*
X177929421Y-87313302D01*
X177950053Y-87300026D01*
X178024260Y-87191420D01*
X178050367Y-87062500D01*
X178050367Y-86662500D01*
X178027705Y-86542062D01*
X177956526Y-86431447D01*
X177847920Y-86357240D01*
X177719000Y-86331133D01*
X177119000Y-86331133D01*
X176998562Y-86353795D01*
X176907332Y-86412500D01*
X176700405Y-86412500D01*
X176723091Y-86357866D01*
X176723308Y-86109225D01*
X176628358Y-85879429D01*
X176452696Y-85703460D01*
X176223066Y-85608109D01*
X175974425Y-85607892D01*
X175744629Y-85702842D01*
X175568660Y-85878504D01*
X175473309Y-86108134D01*
X175473092Y-86356775D01*
X175499103Y-86419726D01*
X175490947Y-86424974D01*
X175416740Y-86533580D01*
X175390633Y-86662500D01*
X175390633Y-87062500D01*
X175413295Y-87182938D01*
X175484474Y-87293553D01*
X175511296Y-87311880D01*
X175490947Y-87324974D01*
X175416740Y-87433580D01*
X175390633Y-87562500D01*
X175390633Y-87962500D01*
X175397866Y-88000941D01*
X175371709Y-88063934D01*
X175371492Y-88312575D01*
X175102305Y-88312575D01*
X175116760Y-88291420D01*
X175142867Y-88162500D01*
X175142867Y-87562500D01*
X175120205Y-87442062D01*
X175049026Y-87331447D01*
X175021191Y-87312428D01*
X175087022Y-87246597D01*
X175136500Y-87127146D01*
X175136500Y-86893750D01*
X175055250Y-86812500D01*
X174611500Y-86812500D01*
X174611500Y-86832500D01*
X174511500Y-86832500D01*
X174511500Y-86812500D01*
X174067750Y-86812500D01*
X173986500Y-86893750D01*
X173986500Y-87127146D01*
X174035978Y-87246597D01*
X174101079Y-87311698D01*
X174080447Y-87324974D01*
X174006240Y-87433580D01*
X173980133Y-87562500D01*
X173980133Y-87841671D01*
X173745867Y-88075937D01*
X173745867Y-87562500D01*
X173723205Y-87442062D01*
X173652026Y-87331447D01*
X173624191Y-87312428D01*
X173690022Y-87246597D01*
X173739500Y-87127146D01*
X173739500Y-86893750D01*
X173658250Y-86812500D01*
X173214500Y-86812500D01*
X173214500Y-86832500D01*
X173114500Y-86832500D01*
X173114500Y-86812500D01*
X172670750Y-86812500D01*
X172589500Y-86893750D01*
X172589500Y-87127146D01*
X172638978Y-87246597D01*
X172704079Y-87311698D01*
X172683447Y-87324974D01*
X172609240Y-87433580D01*
X172583133Y-87562500D01*
X172583133Y-87866469D01*
X172564590Y-87959694D01*
X172412367Y-87807471D01*
X172412367Y-87562500D01*
X172389705Y-87442062D01*
X172318526Y-87331447D01*
X172290691Y-87312428D01*
X172356522Y-87246597D01*
X172406000Y-87127146D01*
X172406000Y-86893750D01*
X172324750Y-86812500D01*
X171881000Y-86812500D01*
X171881000Y-86832500D01*
X171781000Y-86832500D01*
X171781000Y-86812500D01*
X171761000Y-86812500D01*
X171761000Y-86712500D01*
X171781000Y-86712500D01*
X171781000Y-86218750D01*
X171881000Y-86218750D01*
X171881000Y-86712500D01*
X172324750Y-86712500D01*
X172406000Y-86631250D01*
X172406000Y-86397854D01*
X172589500Y-86397854D01*
X172589500Y-86631250D01*
X172670750Y-86712500D01*
X173114500Y-86712500D01*
X173114500Y-86218750D01*
X173214500Y-86218750D01*
X173214500Y-86712500D01*
X173658250Y-86712500D01*
X173739500Y-86631250D01*
X173739500Y-86397854D01*
X173986500Y-86397854D01*
X173986500Y-86631250D01*
X174067750Y-86712500D01*
X174511500Y-86712500D01*
X174511500Y-86218750D01*
X174611500Y-86218750D01*
X174611500Y-86712500D01*
X175055250Y-86712500D01*
X175136500Y-86631250D01*
X175136500Y-86397854D01*
X175087022Y-86278403D01*
X174995598Y-86186979D01*
X174876147Y-86137500D01*
X174692750Y-86137500D01*
X174611500Y-86218750D01*
X174511500Y-86218750D01*
X174430250Y-86137500D01*
X174246853Y-86137500D01*
X174127402Y-86186979D01*
X174035978Y-86278403D01*
X173986500Y-86397854D01*
X173739500Y-86397854D01*
X173690022Y-86278403D01*
X173598598Y-86186979D01*
X173479147Y-86137500D01*
X173295750Y-86137500D01*
X173214500Y-86218750D01*
X173114500Y-86218750D01*
X173033250Y-86137500D01*
X172849853Y-86137500D01*
X172730402Y-86186979D01*
X172638978Y-86278403D01*
X172589500Y-86397854D01*
X172406000Y-86397854D01*
X172356522Y-86278403D01*
X172265098Y-86186979D01*
X172145647Y-86137500D01*
X171962250Y-86137500D01*
X171881000Y-86218750D01*
X171781000Y-86218750D01*
X171699750Y-86137500D01*
X171516353Y-86137500D01*
X171396902Y-86186979D01*
X171305478Y-86278403D01*
X171256000Y-86397854D01*
X171256000Y-86631250D01*
X171337248Y-86712498D01*
X171317394Y-86712498D01*
X171049198Y-86444302D01*
X171006585Y-86415829D01*
X170992705Y-86342062D01*
X170921526Y-86231447D01*
X170866047Y-86193540D01*
X170849747Y-86111593D01*
X170752198Y-85965602D01*
X170165196Y-85378600D01*
X184184251Y-85378600D01*
X184172947Y-85385874D01*
X184172947Y-85385874D01*
G37*
X184172947Y-85385874D02*
X184098740Y-85494480D01*
X184072633Y-85623400D01*
X184072633Y-85783000D01*
X183591200Y-85783000D01*
X183418992Y-85817254D01*
X183340448Y-85869736D01*
X183333958Y-85854029D01*
X183158296Y-85678060D01*
X182928666Y-85582709D01*
X182680025Y-85582492D01*
X182450229Y-85677442D01*
X182274260Y-85853104D01*
X182178909Y-86082734D01*
X182178748Y-86266966D01*
X181327157Y-87118557D01*
X181240448Y-87248326D01*
X181218606Y-87358133D01*
X181210000Y-87401400D01*
X181210000Y-88314600D01*
X181176066Y-88300509D01*
X180927425Y-88300292D01*
X180697629Y-88395242D01*
X180521660Y-88570904D01*
X180426309Y-88800534D01*
X180426092Y-89049175D01*
X180521042Y-89278971D01*
X180651636Y-89409793D01*
X180653220Y-91170786D01*
X180591866Y-91145309D01*
X180343225Y-91145092D01*
X180113429Y-91240042D01*
X179937460Y-91415704D01*
X179929967Y-91433749D01*
X179929967Y-91374200D01*
X179907305Y-91253762D01*
X179836126Y-91143147D01*
X179727520Y-91068940D01*
X179598600Y-91042833D01*
X178998600Y-91042833D01*
X178878162Y-91065495D01*
X178815908Y-91105555D01*
X178783400Y-91083343D01*
X178783400Y-90551000D01*
X178749146Y-90378792D01*
X178651598Y-90232802D01*
X178270598Y-89851802D01*
X178124608Y-89754254D01*
X177952400Y-89720000D01*
X174828200Y-89720000D01*
X174655992Y-89754254D01*
X174510002Y-89851802D01*
X174103951Y-90257853D01*
X174027402Y-90309002D01*
X173945167Y-90391237D01*
X173945167Y-89915838D01*
X173951500Y-89884000D01*
X173951500Y-89143096D01*
X174600729Y-88493867D01*
X174811500Y-88493867D01*
X174931938Y-88471205D01*
X175042553Y-88400026D01*
X175102305Y-88312575D01*
X175371492Y-88312575D01*
X175466442Y-88542371D01*
X175642104Y-88718340D01*
X175871734Y-88813691D01*
X176120375Y-88813908D01*
X176350171Y-88718958D01*
X176526140Y-88543296D01*
X176621491Y-88313666D01*
X176621678Y-88099590D01*
X176627260Y-88091420D01*
X176653367Y-87962500D01*
X176653367Y-87893750D01*
X176794000Y-87893750D01*
X176794000Y-88027146D01*
X176843478Y-88146597D01*
X176934902Y-88238021D01*
X177054353Y-88287500D01*
X177287750Y-88287500D01*
X177369000Y-88206250D01*
X177369000Y-87812500D01*
X177469000Y-87812500D01*
X177469000Y-88206250D01*
X177550250Y-88287500D01*
X177783647Y-88287500D01*
X177903098Y-88238021D01*
X177994522Y-88146597D01*
X178044000Y-88027146D01*
X178044000Y-87893750D01*
X177962750Y-87812500D01*
X177469000Y-87812500D01*
X177369000Y-87812500D01*
X176875250Y-87812500D01*
X176794000Y-87893750D01*
X176653367Y-87893750D01*
X176653367Y-87562500D01*
X176630705Y-87442062D01*
X176559526Y-87331447D01*
X176532704Y-87313120D01*
X176533668Y-87312500D01*
X176909204Y-87312500D01*
X176909309Y-87312572D01*
X176843478Y-87378403D01*
X176794000Y-87497854D01*
X176794000Y-87631250D01*
X176875250Y-87712500D01*
X177369000Y-87712500D01*
X177369000Y-87692500D01*
X177469000Y-87692500D01*
X177469000Y-87712500D01*
X177962750Y-87712500D01*
X178044000Y-87631250D01*
X178044000Y-87497854D01*
X177994522Y-87378403D01*
X177929421Y-87313302D01*
X177950053Y-87300026D01*
X178024260Y-87191420D01*
X178050367Y-87062500D01*
X178050367Y-86662500D01*
X178027705Y-86542062D01*
X177956526Y-86431447D01*
X177847920Y-86357240D01*
X177719000Y-86331133D01*
X177119000Y-86331133D01*
X176998562Y-86353795D01*
X176907332Y-86412500D01*
X176700405Y-86412500D01*
X176723091Y-86357866D01*
X176723308Y-86109225D01*
X176628358Y-85879429D01*
X176452696Y-85703460D01*
X176223066Y-85608109D01*
X175974425Y-85607892D01*
X175744629Y-85702842D01*
X175568660Y-85878504D01*
X175473309Y-86108134D01*
X175473092Y-86356775D01*
X175499103Y-86419726D01*
X175490947Y-86424974D01*
X175416740Y-86533580D01*
X175390633Y-86662500D01*
X175390633Y-87062500D01*
X175413295Y-87182938D01*
X175484474Y-87293553D01*
X175511296Y-87311880D01*
X175490947Y-87324974D01*
X175416740Y-87433580D01*
X175390633Y-87562500D01*
X175390633Y-87962500D01*
X175397866Y-88000941D01*
X175371709Y-88063934D01*
X175371492Y-88312575D01*
X175102305Y-88312575D01*
X175116760Y-88291420D01*
X175142867Y-88162500D01*
X175142867Y-87562500D01*
X175120205Y-87442062D01*
X175049026Y-87331447D01*
X175021191Y-87312428D01*
X175087022Y-87246597D01*
X175136500Y-87127146D01*
X175136500Y-86893750D01*
X175055250Y-86812500D01*
X174611500Y-86812500D01*
X174611500Y-86832500D01*
X174511500Y-86832500D01*
X174511500Y-86812500D01*
X174067750Y-86812500D01*
X173986500Y-86893750D01*
X173986500Y-87127146D01*
X174035978Y-87246597D01*
X174101079Y-87311698D01*
X174080447Y-87324974D01*
X174006240Y-87433580D01*
X173980133Y-87562500D01*
X173980133Y-87841671D01*
X173745867Y-88075937D01*
X173745867Y-87562500D01*
X173723205Y-87442062D01*
X173652026Y-87331447D01*
X173624191Y-87312428D01*
X173690022Y-87246597D01*
X173739500Y-87127146D01*
X173739500Y-86893750D01*
X173658250Y-86812500D01*
X173214500Y-86812500D01*
X173214500Y-86832500D01*
X173114500Y-86832500D01*
X173114500Y-86812500D01*
X172670750Y-86812500D01*
X172589500Y-86893750D01*
X172589500Y-87127146D01*
X172638978Y-87246597D01*
X172704079Y-87311698D01*
X172683447Y-87324974D01*
X172609240Y-87433580D01*
X172583133Y-87562500D01*
X172583133Y-87866469D01*
X172564590Y-87959694D01*
X172412367Y-87807471D01*
X172412367Y-87562500D01*
X172389705Y-87442062D01*
X172318526Y-87331447D01*
X172290691Y-87312428D01*
X172356522Y-87246597D01*
X172406000Y-87127146D01*
X172406000Y-86893750D01*
X172324750Y-86812500D01*
X171881000Y-86812500D01*
X171881000Y-86832500D01*
X171781000Y-86832500D01*
X171781000Y-86812500D01*
X171761000Y-86812500D01*
X171761000Y-86712500D01*
X171781000Y-86712500D01*
X171781000Y-86218750D01*
X171881000Y-86218750D01*
X171881000Y-86712500D01*
X172324750Y-86712500D01*
X172406000Y-86631250D01*
X172406000Y-86397854D01*
X172589500Y-86397854D01*
X172589500Y-86631250D01*
X172670750Y-86712500D01*
X173114500Y-86712500D01*
X173114500Y-86218750D01*
X173214500Y-86218750D01*
X173214500Y-86712500D01*
X173658250Y-86712500D01*
X173739500Y-86631250D01*
X173739500Y-86397854D01*
X173986500Y-86397854D01*
X173986500Y-86631250D01*
X174067750Y-86712500D01*
X174511500Y-86712500D01*
X174511500Y-86218750D01*
X174611500Y-86218750D01*
X174611500Y-86712500D01*
X175055250Y-86712500D01*
X175136500Y-86631250D01*
X175136500Y-86397854D01*
X175087022Y-86278403D01*
X174995598Y-86186979D01*
X174876147Y-86137500D01*
X174692750Y-86137500D01*
X174611500Y-86218750D01*
X174511500Y-86218750D01*
X174430250Y-86137500D01*
X174246853Y-86137500D01*
X174127402Y-86186979D01*
X174035978Y-86278403D01*
X173986500Y-86397854D01*
X173739500Y-86397854D01*
X173690022Y-86278403D01*
X173598598Y-86186979D01*
X173479147Y-86137500D01*
X173295750Y-86137500D01*
X173214500Y-86218750D01*
X173114500Y-86218750D01*
X173033250Y-86137500D01*
X172849853Y-86137500D01*
X172730402Y-86186979D01*
X172638978Y-86278403D01*
X172589500Y-86397854D01*
X172406000Y-86397854D01*
X172356522Y-86278403D01*
X172265098Y-86186979D01*
X172145647Y-86137500D01*
X171962250Y-86137500D01*
X171881000Y-86218750D01*
X171781000Y-86218750D01*
X171699750Y-86137500D01*
X171516353Y-86137500D01*
X171396902Y-86186979D01*
X171305478Y-86278403D01*
X171256000Y-86397854D01*
X171256000Y-86631250D01*
X171337248Y-86712498D01*
X171317394Y-86712498D01*
X171049198Y-86444302D01*
X171006585Y-86415829D01*
X170992705Y-86342062D01*
X170921526Y-86231447D01*
X170866047Y-86193540D01*
X170849747Y-86111593D01*
X170752198Y-85965602D01*
X170165196Y-85378600D01*
X184184251Y-85378600D01*
X184172947Y-85385874D01*
G36*
X169873460Y-86359656D02*
X169852633Y-86462500D01*
X169852633Y-87062500D01*
X169875295Y-87182938D01*
X169946474Y-87293553D01*
X169973296Y-87311880D01*
X169952947Y-87324974D01*
X169893143Y-87412500D01*
X169576682Y-87412500D01*
X169524526Y-87331447D01*
X169496691Y-87312428D01*
X169562522Y-87246597D01*
X169612000Y-87127146D01*
X169612000Y-86893750D01*
X169530750Y-86812500D01*
X169087000Y-86812500D01*
X169087000Y-86832500D01*
X168987000Y-86832500D01*
X168987000Y-86812500D01*
X168543250Y-86812500D01*
X168462000Y-86893750D01*
X168462000Y-87127146D01*
X168511478Y-87246597D01*
X168576579Y-87311698D01*
X168555947Y-87324974D01*
X168481740Y-87433580D01*
X168455633Y-87562500D01*
X168455633Y-88162500D01*
X168478295Y-88282938D01*
X168549474Y-88393553D01*
X168551500Y-88394937D01*
X168551500Y-88977550D01*
X168538800Y-88990250D01*
X168538800Y-89202559D01*
X168532433Y-89234000D01*
X168532433Y-89954000D01*
X168438800Y-89954000D01*
X168438800Y-89934000D01*
X168038800Y-89934000D01*
X168038800Y-90777750D01*
X168120050Y-90859000D01*
X168178447Y-90859000D01*
X168238800Y-90834001D01*
X168260864Y-90843140D01*
X168074603Y-91029401D01*
X167983598Y-90893202D01*
X167903473Y-90813077D01*
X167938800Y-90777750D01*
X167938800Y-89934000D01*
X167620050Y-89934000D01*
X167538800Y-90015250D01*
X167538800Y-90448404D01*
X166693000Y-89602604D01*
X166693000Y-89169354D01*
X167538800Y-89169354D01*
X167538800Y-89752750D01*
X167620050Y-89834000D01*
X167938800Y-89834000D01*
X167938800Y-88990250D01*
X168038800Y-88990250D01*
X168038800Y-89834000D01*
X168438800Y-89834000D01*
X168438800Y-88990250D01*
X168357550Y-88909000D01*
X168299153Y-88909000D01*
X168238800Y-88933999D01*
X168178447Y-88909000D01*
X168120050Y-88909000D01*
X168038800Y-88990250D01*
X167938800Y-88990250D01*
X167857550Y-88909000D01*
X167799153Y-88909000D01*
X167679702Y-88958479D01*
X167588278Y-89049903D01*
X167538800Y-89169354D01*
X166693000Y-89169354D01*
X166693000Y-88379182D01*
X166774053Y-88327026D01*
X166848260Y-88218420D01*
X166874367Y-88089500D01*
X166874367Y-87689500D01*
X166851705Y-87569062D01*
X166780526Y-87458447D01*
X166752691Y-87439428D01*
X166818522Y-87373597D01*
X166868000Y-87254146D01*
X166868000Y-87120750D01*
X166786750Y-87039500D01*
X166293000Y-87039500D01*
X166293000Y-87059500D01*
X166193000Y-87059500D01*
X166193000Y-87039500D01*
X165699250Y-87039500D01*
X165618000Y-87120750D01*
X165618000Y-87254146D01*
X165667478Y-87373597D01*
X165732579Y-87438698D01*
X165711947Y-87451974D01*
X165637740Y-87560580D01*
X165611633Y-87689500D01*
X165611633Y-88089500D01*
X165634295Y-88209938D01*
X165705474Y-88320553D01*
X165793000Y-88380357D01*
X165793000Y-89789000D01*
X165827254Y-89961208D01*
X165893599Y-90060500D01*
X165924802Y-90107198D01*
X166845237Y-91027633D01*
X165738800Y-91027633D01*
X165618362Y-91050295D01*
X165565983Y-91084000D01*
X163658685Y-91084000D01*
X163560185Y-90985500D01*
X163858750Y-90985500D01*
X163940000Y-90904250D01*
X163940000Y-90410500D01*
X164040000Y-90410500D01*
X164040000Y-90904250D01*
X164121250Y-90985500D01*
X164829646Y-90985500D01*
X164949097Y-90936022D01*
X165040521Y-90844598D01*
X165090000Y-90725147D01*
X165090000Y-90491750D01*
X165008750Y-90410500D01*
X164040000Y-90410500D01*
X163940000Y-90410500D01*
X162971250Y-90410500D01*
X162967253Y-90414497D01*
X162903574Y-90371948D01*
X162750500Y-90341500D01*
X161175705Y-90341500D01*
X161175700Y-90341499D01*
X161022626Y-90371948D01*
X160892857Y-90458657D01*
X160626157Y-90725357D01*
X160545800Y-90845620D01*
X160545800Y-89995853D01*
X162890000Y-89995853D01*
X162890000Y-90229250D01*
X162971250Y-90310500D01*
X163940000Y-90310500D01*
X163940000Y-89816750D01*
X164040000Y-89816750D01*
X164040000Y-90310500D01*
X165008750Y-90310500D01*
X165090000Y-90229250D01*
X165090000Y-89995853D01*
X165040521Y-89876402D01*
X164949097Y-89784978D01*
X164829646Y-89735500D01*
X164121250Y-89735500D01*
X164040000Y-89816750D01*
X163940000Y-89816750D01*
X163858750Y-89735500D01*
X163150354Y-89735500D01*
X163030903Y-89784978D01*
X162939479Y-89876402D01*
X162890000Y-89995853D01*
X160545800Y-89995853D01*
X160545800Y-88790500D01*
X162883633Y-88790500D01*
X162883633Y-89390500D01*
X162906295Y-89510938D01*
X162977474Y-89621553D01*
X163086080Y-89695760D01*
X163215000Y-89721867D01*
X164765000Y-89721867D01*
X164885438Y-89699205D01*
X164996053Y-89628026D01*
X165070260Y-89519420D01*
X165096367Y-89390500D01*
X165096367Y-88790500D01*
X165073705Y-88670062D01*
X165002526Y-88559447D01*
X164893920Y-88485240D01*
X164765000Y-88459133D01*
X163215000Y-88459133D01*
X163094562Y-88481795D01*
X162983947Y-88552974D01*
X162909740Y-88661580D01*
X162883633Y-88790500D01*
X160545800Y-88790500D01*
X160545800Y-87520500D01*
X162883633Y-87520500D01*
X162883633Y-88120500D01*
X162906295Y-88240938D01*
X162977474Y-88351553D01*
X163086080Y-88425760D01*
X163215000Y-88451867D01*
X164765000Y-88451867D01*
X164885438Y-88429205D01*
X164996053Y-88358026D01*
X165070260Y-88249420D01*
X165096367Y-88120500D01*
X165096367Y-87520500D01*
X165073705Y-87400062D01*
X165002526Y-87289447D01*
X164893920Y-87215240D01*
X164765000Y-87189133D01*
X163215000Y-87189133D01*
X163094562Y-87211795D01*
X162983947Y-87282974D01*
X162909740Y-87391580D01*
X162883633Y-87520500D01*
X160545800Y-87520500D01*
X160545800Y-87471152D01*
X160991452Y-87025500D01*
X162941405Y-87025500D01*
X162977474Y-87081553D01*
X163086080Y-87155760D01*
X163215000Y-87181867D01*
X164765000Y-87181867D01*
X164885438Y-87159205D01*
X164996053Y-87088026D01*
X165070260Y-86979420D01*
X165091427Y-86874892D01*
X165100698Y-86868698D01*
X165244542Y-86724854D01*
X165618000Y-86724854D01*
X165618000Y-86858250D01*
X165699250Y-86939500D01*
X166193000Y-86939500D01*
X166193000Y-86545750D01*
X166293000Y-86545750D01*
X166293000Y-86939500D01*
X166786750Y-86939500D01*
X166868000Y-86858250D01*
X166868000Y-86724854D01*
X166818522Y-86605403D01*
X166727098Y-86513979D01*
X166607647Y-86464500D01*
X166374250Y-86464500D01*
X166293000Y-86545750D01*
X166193000Y-86545750D01*
X166111750Y-86464500D01*
X165878353Y-86464500D01*
X165758902Y-86513979D01*
X165667478Y-86605403D01*
X165618000Y-86724854D01*
X165244542Y-86724854D01*
X165571542Y-86397854D01*
X168462000Y-86397854D01*
X168462000Y-86631250D01*
X168543250Y-86712500D01*
X168987000Y-86712500D01*
X168987000Y-86218750D01*
X169087000Y-86218750D01*
X169087000Y-86712500D01*
X169530750Y-86712500D01*
X169612000Y-86631250D01*
X169612000Y-86397854D01*
X169562522Y-86278403D01*
X169471098Y-86186979D01*
X169351647Y-86137500D01*
X169168250Y-86137500D01*
X169087000Y-86218750D01*
X168987000Y-86218750D01*
X168905750Y-86137500D01*
X168722353Y-86137500D01*
X168602902Y-86186979D01*
X168511478Y-86278403D01*
X168462000Y-86397854D01*
X165571542Y-86397854D01*
X165845196Y-86124200D01*
X169638004Y-86124200D01*
X169873460Y-86359656D01*
X169873460Y-86359656D01*
G37*
X169873460Y-86359656D02*
X169852633Y-86462500D01*
X169852633Y-87062500D01*
X169875295Y-87182938D01*
X169946474Y-87293553D01*
X169973296Y-87311880D01*
X169952947Y-87324974D01*
X169893143Y-87412500D01*
X169576682Y-87412500D01*
X169524526Y-87331447D01*
X169496691Y-87312428D01*
X169562522Y-87246597D01*
X169612000Y-87127146D01*
X169612000Y-86893750D01*
X169530750Y-86812500D01*
X169087000Y-86812500D01*
X169087000Y-86832500D01*
X168987000Y-86832500D01*
X168987000Y-86812500D01*
X168543250Y-86812500D01*
X168462000Y-86893750D01*
X168462000Y-87127146D01*
X168511478Y-87246597D01*
X168576579Y-87311698D01*
X168555947Y-87324974D01*
X168481740Y-87433580D01*
X168455633Y-87562500D01*
X168455633Y-88162500D01*
X168478295Y-88282938D01*
X168549474Y-88393553D01*
X168551500Y-88394937D01*
X168551500Y-88977550D01*
X168538800Y-88990250D01*
X168538800Y-89202559D01*
X168532433Y-89234000D01*
X168532433Y-89954000D01*
X168438800Y-89954000D01*
X168438800Y-89934000D01*
X168038800Y-89934000D01*
X168038800Y-90777750D01*
X168120050Y-90859000D01*
X168178447Y-90859000D01*
X168238800Y-90834001D01*
X168260864Y-90843140D01*
X168074603Y-91029401D01*
X167983598Y-90893202D01*
X167903473Y-90813077D01*
X167938800Y-90777750D01*
X167938800Y-89934000D01*
X167620050Y-89934000D01*
X167538800Y-90015250D01*
X167538800Y-90448404D01*
X166693000Y-89602604D01*
X166693000Y-89169354D01*
X167538800Y-89169354D01*
X167538800Y-89752750D01*
X167620050Y-89834000D01*
X167938800Y-89834000D01*
X167938800Y-88990250D01*
X168038800Y-88990250D01*
X168038800Y-89834000D01*
X168438800Y-89834000D01*
X168438800Y-88990250D01*
X168357550Y-88909000D01*
X168299153Y-88909000D01*
X168238800Y-88933999D01*
X168178447Y-88909000D01*
X168120050Y-88909000D01*
X168038800Y-88990250D01*
X167938800Y-88990250D01*
X167857550Y-88909000D01*
X167799153Y-88909000D01*
X167679702Y-88958479D01*
X167588278Y-89049903D01*
X167538800Y-89169354D01*
X166693000Y-89169354D01*
X166693000Y-88379182D01*
X166774053Y-88327026D01*
X166848260Y-88218420D01*
X166874367Y-88089500D01*
X166874367Y-87689500D01*
X166851705Y-87569062D01*
X166780526Y-87458447D01*
X166752691Y-87439428D01*
X166818522Y-87373597D01*
X166868000Y-87254146D01*
X166868000Y-87120750D01*
X166786750Y-87039500D01*
X166293000Y-87039500D01*
X166293000Y-87059500D01*
X166193000Y-87059500D01*
X166193000Y-87039500D01*
X165699250Y-87039500D01*
X165618000Y-87120750D01*
X165618000Y-87254146D01*
X165667478Y-87373597D01*
X165732579Y-87438698D01*
X165711947Y-87451974D01*
X165637740Y-87560580D01*
X165611633Y-87689500D01*
X165611633Y-88089500D01*
X165634295Y-88209938D01*
X165705474Y-88320553D01*
X165793000Y-88380357D01*
X165793000Y-89789000D01*
X165827254Y-89961208D01*
X165893599Y-90060500D01*
X165924802Y-90107198D01*
X166845237Y-91027633D01*
X165738800Y-91027633D01*
X165618362Y-91050295D01*
X165565983Y-91084000D01*
X163658685Y-91084000D01*
X163560185Y-90985500D01*
X163858750Y-90985500D01*
X163940000Y-90904250D01*
X163940000Y-90410500D01*
X164040000Y-90410500D01*
X164040000Y-90904250D01*
X164121250Y-90985500D01*
X164829646Y-90985500D01*
X164949097Y-90936022D01*
X165040521Y-90844598D01*
X165090000Y-90725147D01*
X165090000Y-90491750D01*
X165008750Y-90410500D01*
X164040000Y-90410500D01*
X163940000Y-90410500D01*
X162971250Y-90410500D01*
X162967253Y-90414497D01*
X162903574Y-90371948D01*
X162750500Y-90341500D01*
X161175705Y-90341500D01*
X161175700Y-90341499D01*
X161022626Y-90371948D01*
X160892857Y-90458657D01*
X160626157Y-90725357D01*
X160545800Y-90845620D01*
X160545800Y-89995853D01*
X162890000Y-89995853D01*
X162890000Y-90229250D01*
X162971250Y-90310500D01*
X163940000Y-90310500D01*
X163940000Y-89816750D01*
X164040000Y-89816750D01*
X164040000Y-90310500D01*
X165008750Y-90310500D01*
X165090000Y-90229250D01*
X165090000Y-89995853D01*
X165040521Y-89876402D01*
X164949097Y-89784978D01*
X164829646Y-89735500D01*
X164121250Y-89735500D01*
X164040000Y-89816750D01*
X163940000Y-89816750D01*
X163858750Y-89735500D01*
X163150354Y-89735500D01*
X163030903Y-89784978D01*
X162939479Y-89876402D01*
X162890000Y-89995853D01*
X160545800Y-89995853D01*
X160545800Y-88790500D01*
X162883633Y-88790500D01*
X162883633Y-89390500D01*
X162906295Y-89510938D01*
X162977474Y-89621553D01*
X163086080Y-89695760D01*
X163215000Y-89721867D01*
X164765000Y-89721867D01*
X164885438Y-89699205D01*
X164996053Y-89628026D01*
X165070260Y-89519420D01*
X165096367Y-89390500D01*
X165096367Y-88790500D01*
X165073705Y-88670062D01*
X165002526Y-88559447D01*
X164893920Y-88485240D01*
X164765000Y-88459133D01*
X163215000Y-88459133D01*
X163094562Y-88481795D01*
X162983947Y-88552974D01*
X162909740Y-88661580D01*
X162883633Y-88790500D01*
X160545800Y-88790500D01*
X160545800Y-87520500D01*
X162883633Y-87520500D01*
X162883633Y-88120500D01*
X162906295Y-88240938D01*
X162977474Y-88351553D01*
X163086080Y-88425760D01*
X163215000Y-88451867D01*
X164765000Y-88451867D01*
X164885438Y-88429205D01*
X164996053Y-88358026D01*
X165070260Y-88249420D01*
X165096367Y-88120500D01*
X165096367Y-87520500D01*
X165073705Y-87400062D01*
X165002526Y-87289447D01*
X164893920Y-87215240D01*
X164765000Y-87189133D01*
X163215000Y-87189133D01*
X163094562Y-87211795D01*
X162983947Y-87282974D01*
X162909740Y-87391580D01*
X162883633Y-87520500D01*
X160545800Y-87520500D01*
X160545800Y-87471152D01*
X160991452Y-87025500D01*
X162941405Y-87025500D01*
X162977474Y-87081553D01*
X163086080Y-87155760D01*
X163215000Y-87181867D01*
X164765000Y-87181867D01*
X164885438Y-87159205D01*
X164996053Y-87088026D01*
X165070260Y-86979420D01*
X165091427Y-86874892D01*
X165100698Y-86868698D01*
X165244542Y-86724854D01*
X165618000Y-86724854D01*
X165618000Y-86858250D01*
X165699250Y-86939500D01*
X166193000Y-86939500D01*
X166193000Y-86545750D01*
X166293000Y-86545750D01*
X166293000Y-86939500D01*
X166786750Y-86939500D01*
X166868000Y-86858250D01*
X166868000Y-86724854D01*
X166818522Y-86605403D01*
X166727098Y-86513979D01*
X166607647Y-86464500D01*
X166374250Y-86464500D01*
X166293000Y-86545750D01*
X166193000Y-86545750D01*
X166111750Y-86464500D01*
X165878353Y-86464500D01*
X165758902Y-86513979D01*
X165667478Y-86605403D01*
X165618000Y-86724854D01*
X165244542Y-86724854D01*
X165571542Y-86397854D01*
X168462000Y-86397854D01*
X168462000Y-86631250D01*
X168543250Y-86712500D01*
X168987000Y-86712500D01*
X168987000Y-86218750D01*
X169087000Y-86218750D01*
X169087000Y-86712500D01*
X169530750Y-86712500D01*
X169612000Y-86631250D01*
X169612000Y-86397854D01*
X169562522Y-86278403D01*
X169471098Y-86186979D01*
X169351647Y-86137500D01*
X169168250Y-86137500D01*
X169087000Y-86218750D01*
X168987000Y-86218750D01*
X168905750Y-86137500D01*
X168722353Y-86137500D01*
X168602902Y-86186979D01*
X168511478Y-86278403D01*
X168462000Y-86397854D01*
X165571542Y-86397854D01*
X165845196Y-86124200D01*
X169638004Y-86124200D01*
X169873460Y-86359656D01*
M02*
