G04 #@! TF.FileFunction,Copper,L2,Bot,Signal*
%FSLAX46Y46*%
G04 Gerber Fmt 4.6, Leading zero omitted, Abs format (unit mm)*
G04 Created by KiCad (PCBNEW 4.0.1-stable) date 25/01/2016 20:17:01*
%MOMM*%
G01*
G04 APERTURE LIST*
%ADD10C,0.150000*%
%ADD11O,3.980000X1.600000*%
%ADD12C,1.000000*%
%ADD13R,0.500000X0.600000*%
%ADD14R,0.600000X0.500000*%
%ADD15R,0.800100X0.800100*%
%ADD16R,0.400000X0.600000*%
%ADD17R,3.810000X1.270000*%
%ADD18R,1.060000X0.650000*%
%ADD19R,0.650000X1.060000*%
%ADD20R,1.300000X1.100000*%
%ADD21C,0.600000*%
%ADD22C,0.300000*%
%ADD23C,0.200000*%
%ADD24C,0.375000*%
%ADD25C,0.250000*%
G04 APERTURE END LIST*
D10*
D11*
X151224000Y-101194000D03*
X151224000Y-89194000D03*
D12*
X151224000Y-93944000D03*
X151224000Y-97440000D03*
D13*
X158559500Y-89577000D03*
X158559500Y-88477000D03*
X164020500Y-89577000D03*
X164020500Y-88477000D03*
D14*
X159490500Y-104076500D03*
X158390500Y-104076500D03*
D15*
X159890500Y-102791260D03*
X157990500Y-102791260D03*
X158940500Y-100792280D03*
D16*
X160967000Y-91059000D03*
X161867000Y-91059000D03*
X162300500Y-104076500D03*
X163200500Y-104076500D03*
D13*
X175310800Y-88154600D03*
X175310800Y-87054600D03*
D17*
X186309000Y-104013000D03*
X186309000Y-101473000D03*
X186309000Y-98933000D03*
X186309000Y-96393000D03*
X186309000Y-93853000D03*
X186309000Y-91313000D03*
X186309000Y-88773000D03*
X186309000Y-86233000D03*
D18*
X171620000Y-88135500D03*
X171620000Y-87185500D03*
X171620000Y-86235500D03*
X173820000Y-86235500D03*
X173820000Y-88135500D03*
D19*
X159001500Y-96223000D03*
X158051500Y-96223000D03*
X157101500Y-96223000D03*
X157101500Y-94023000D03*
X159001500Y-94023000D03*
X158051500Y-94023000D03*
D20*
X160140000Y-89532500D03*
X162440000Y-89532500D03*
X162440000Y-87632500D03*
X160140000Y-87632500D03*
D21*
X156921200Y-104013000D03*
X159994600Y-99237800D03*
X159689800Y-104216200D03*
X171983400Y-91643200D03*
X165354000Y-96215200D03*
X166420800Y-104140000D03*
X166039800Y-99822000D03*
X173405800Y-99885500D03*
X167678100Y-100761800D03*
X155168600Y-103339900D03*
X158051500Y-97155000D03*
X163004500Y-97663000D03*
X164630100Y-93294200D03*
X176377600Y-91706700D03*
X177406300Y-88328500D03*
X174891700Y-87007700D03*
X172135800Y-87020400D03*
X169532300Y-86258400D03*
X167284400Y-87553800D03*
X165582600Y-88798400D03*
X167792400Y-89027000D03*
X172707300Y-97243900D03*
X154622500Y-99758500D03*
X161290000Y-93853000D03*
X161290000Y-95186500D03*
X156845000Y-93154500D03*
X157035500Y-97028000D03*
X170611800Y-91541600D03*
X155625800Y-87934800D03*
X161302700Y-100698300D03*
X172161200Y-92887800D03*
X163677600Y-104165400D03*
X162255200Y-95681800D03*
X160375600Y-92735400D03*
X169849800Y-91871800D03*
X156540200Y-87731600D03*
X169164000Y-91516200D03*
X156921200Y-87045800D03*
X175996600Y-88188800D03*
X159943800Y-101396800D03*
X160909000Y-91719400D03*
X162369500Y-91313000D03*
X166966900Y-101549200D03*
X170307000Y-104089200D03*
X173812200Y-93446600D03*
X180136800Y-94030800D03*
X180467000Y-91770200D03*
X181051200Y-88925400D03*
X182803800Y-86207600D03*
X176098200Y-86233000D03*
X168224200Y-103327200D03*
X174574200Y-98120200D03*
X172516800Y-94361000D03*
X157784800Y-104190800D03*
X179095400Y-96672400D03*
X161671000Y-104089200D03*
X178993800Y-95707200D03*
X157784800Y-100787200D03*
D22*
X170268900Y-92379800D02*
X170268900Y-92417899D01*
X170281600Y-92379800D02*
X170307000Y-92354400D01*
X170307000Y-92354400D02*
X171272200Y-92354400D01*
X171983400Y-91643200D02*
X171272200Y-92354400D01*
X170268900Y-92379800D02*
X170281600Y-92379800D01*
X163448999Y-99237800D02*
X159994600Y-99237800D01*
X170268900Y-92417899D02*
X163448999Y-99237800D01*
D10*
X157429200Y-103505000D02*
X158919000Y-103505000D01*
X157429200Y-103505000D02*
X156921200Y-104013000D01*
X158919000Y-103505000D02*
X159490500Y-104076500D01*
D22*
X160375600Y-99237800D02*
X159994600Y-99237800D01*
D23*
X159490500Y-104076500D02*
X159592100Y-104118500D01*
X159592100Y-104118500D02*
X159689800Y-104216200D01*
D10*
X159490500Y-104076500D02*
X159592100Y-104009100D01*
D22*
X171620000Y-88135500D02*
X171620000Y-88155600D01*
X171620000Y-88155600D02*
X171983400Y-88519000D01*
X171983400Y-88519000D02*
X171983400Y-91643200D01*
D24*
X165354000Y-96215200D02*
X165379400Y-96215200D01*
D25*
X166433500Y-100761800D02*
X166484300Y-100761800D01*
X166484300Y-100761800D02*
X169989500Y-97256600D01*
X166370000Y-102222300D02*
X166382700Y-102222300D01*
X166204900Y-102057200D02*
X166204900Y-100990400D01*
X166370000Y-102222300D02*
X166204900Y-102057200D01*
X166446200Y-104114600D02*
X166420800Y-104140000D01*
X166446200Y-102285800D02*
X166446200Y-104114600D01*
X166382700Y-102222300D02*
X166446200Y-102285800D01*
X166204900Y-99987100D02*
X166204900Y-100990400D01*
X166039800Y-99822000D02*
X166204900Y-99987100D01*
X166433500Y-100761800D02*
X167678100Y-100761800D01*
X166204900Y-100990400D02*
X166433500Y-100761800D01*
X173405800Y-99885500D02*
X173431200Y-99910900D01*
X173431200Y-99910900D02*
X173469300Y-99910900D01*
X167678100Y-100761800D02*
X167690800Y-100761800D01*
X157990500Y-102791260D02*
X155717240Y-102791260D01*
X155717240Y-102791260D02*
X155168600Y-103339900D01*
X158051500Y-96223000D02*
X158051500Y-97155000D01*
D24*
X174891700Y-87007700D02*
X174938600Y-87054600D01*
X174938600Y-87054600D02*
X175310800Y-87054600D01*
X171620000Y-87185500D02*
X172021500Y-87134700D01*
X172021500Y-87134700D02*
X172135800Y-87020400D01*
X164020500Y-88477000D02*
X165261200Y-88477000D01*
X165261200Y-88477000D02*
X165582600Y-88798400D01*
X160140000Y-87632500D02*
X159026900Y-87632500D01*
X158559500Y-88099900D02*
X158559500Y-88477000D01*
X159026900Y-87632500D02*
X158559500Y-88099900D01*
X164020500Y-88477000D02*
X164020500Y-88112600D01*
X163540400Y-87632500D02*
X162440000Y-87632500D01*
X164020500Y-88112600D02*
X163540400Y-87632500D01*
X162440000Y-87632500D02*
X160140000Y-87632500D01*
D25*
X167792400Y-89027000D02*
X167779700Y-89014300D01*
X167779700Y-89014300D02*
X167779700Y-88976200D01*
X169989500Y-97256600D02*
X172694600Y-97256600D01*
X172694600Y-97256600D02*
X172707300Y-97243900D01*
X172745400Y-97282000D02*
X172707300Y-97243900D01*
D22*
X158051500Y-92735400D02*
X158051500Y-94023000D01*
X157518100Y-92202000D02*
X158051500Y-92735400D01*
X155625800Y-92202000D02*
X157518100Y-92202000D01*
X154660600Y-93167200D02*
X155625800Y-92202000D01*
X154660600Y-99720400D02*
X154660600Y-93167200D01*
X154622500Y-99758500D02*
X154660600Y-99720400D01*
D23*
X161290000Y-95186500D02*
X161290000Y-93853000D01*
D10*
X157101500Y-93411000D02*
X157101500Y-94023000D01*
X156845000Y-93154500D02*
X157101500Y-93411000D01*
X157101500Y-96962000D02*
X157101500Y-96223000D01*
X157035500Y-97028000D02*
X157101500Y-96962000D01*
X167843200Y-85902800D02*
X167884236Y-85902800D01*
X170586400Y-88604964D02*
X170586400Y-91084400D01*
X170586400Y-91516200D02*
X170586400Y-91084400D01*
X170611800Y-91541600D02*
X170586400Y-91516200D01*
X167884236Y-85902800D02*
X170586400Y-88604964D01*
X165176200Y-85902800D02*
X165328600Y-85902800D01*
X158115000Y-85902800D02*
X165176200Y-85902800D01*
X165328600Y-85902800D02*
X167843200Y-85902800D01*
X165328600Y-85902800D02*
X165328600Y-85902800D01*
X156083000Y-85902800D02*
X155651200Y-86334600D01*
X155651200Y-86334600D02*
X155651200Y-87960200D01*
X155651200Y-87960200D02*
X155625800Y-87934800D01*
X158115000Y-85902800D02*
X156083000Y-85902800D01*
D25*
X170446530Y-92900242D02*
X172148758Y-92900242D01*
D23*
X172148758Y-92900242D02*
X172161200Y-92887800D01*
X161302700Y-100698300D02*
X161293495Y-100710819D01*
D25*
X161293495Y-100710819D02*
X162582822Y-100711101D01*
X162582822Y-100711101D02*
X170446530Y-92900242D01*
X172135800Y-92862400D02*
X172161200Y-92887800D01*
D24*
X163677600Y-104165400D02*
X163403700Y-104120100D01*
X163403700Y-104120100D02*
X163200500Y-104076500D01*
D22*
X162255200Y-95681800D02*
X162153600Y-95580200D01*
X162153600Y-95580200D02*
X162153600Y-93573600D01*
X162153600Y-93573600D02*
X161315400Y-92735400D01*
X161315400Y-92735400D02*
X160375600Y-92735400D01*
D10*
X170053000Y-91668600D02*
X170053000Y-91135200D01*
X169849800Y-91871800D02*
X170053000Y-91668600D01*
X156616400Y-86283800D02*
X156591000Y-86283800D01*
X156591000Y-86283800D02*
X156311600Y-86563200D01*
X156311600Y-86563200D02*
X156311600Y-87503000D01*
X156311600Y-87503000D02*
X156540200Y-87731600D01*
X157848305Y-86283800D02*
X156616400Y-86283800D01*
X157848305Y-86283800D02*
X165023800Y-86283800D01*
X156514800Y-87807800D02*
X156438600Y-87655400D01*
X165049200Y-86283800D02*
X165049200Y-86283800D01*
X165049200Y-86283800D02*
X167767000Y-86283800D01*
X167767000Y-86283800D02*
X170053000Y-88569800D01*
X170053000Y-88569800D02*
X170053000Y-91135200D01*
X165023800Y-86283800D02*
X165023800Y-86283800D01*
X165023800Y-86283800D02*
X165049200Y-86283800D01*
X169468800Y-91135200D02*
X169468800Y-91211400D01*
X169468800Y-91211400D02*
X169164000Y-91516200D01*
X169468800Y-88456235D02*
X169468800Y-91135200D01*
X169468800Y-91135200D02*
X169468800Y-91186000D01*
X167672611Y-86639400D02*
X169468800Y-88456235D01*
X157556200Y-86639400D02*
X157327600Y-86639400D01*
X157327600Y-86639400D02*
X156921200Y-87045800D01*
X164719000Y-86639400D02*
X164693600Y-86639400D01*
X157429200Y-86639400D02*
X157556200Y-86639400D01*
X157556200Y-86639400D02*
X164693600Y-86639400D01*
X157048200Y-86918800D02*
X156921200Y-87045800D01*
X164719000Y-86639400D02*
X164719000Y-86639400D01*
X156921200Y-87045800D02*
X156921200Y-86969600D01*
X164719000Y-86639400D02*
X167672611Y-86639400D01*
X156921200Y-87045800D02*
X156921200Y-86995000D01*
D25*
X186309000Y-98933000D02*
X184302400Y-98933000D01*
X173820000Y-90136800D02*
X173820000Y-88135500D01*
X173151800Y-90805000D02*
X173820000Y-90136800D01*
X173151800Y-93853000D02*
X173151800Y-90805000D01*
X173558200Y-94259400D02*
X173151800Y-93853000D01*
X179057622Y-94259400D02*
X173558200Y-94259400D01*
X183731222Y-98933000D02*
X179057622Y-94259400D01*
X184302400Y-98933000D02*
X183731222Y-98933000D01*
X184302400Y-98933000D02*
X184302400Y-98933000D01*
D10*
X186309000Y-98933000D02*
X184581800Y-98933000D01*
X184581800Y-98933000D02*
X184581800Y-98933000D01*
D25*
X175310800Y-88154600D02*
X175962400Y-88154600D01*
X175962400Y-88154600D02*
X175996600Y-88188800D01*
X173820000Y-88135500D02*
X175291700Y-88135500D01*
X175291700Y-88135500D02*
X175310800Y-88154600D01*
X159943800Y-101396800D02*
X159994600Y-101396800D01*
X183718200Y-101473000D02*
X186309000Y-101473000D01*
X182600600Y-100355400D02*
X183718200Y-101473000D01*
X182600600Y-98462778D02*
X182600600Y-100355400D01*
X179108422Y-94970600D02*
X182600600Y-98462778D01*
X168935400Y-94970600D02*
X179108422Y-94970600D01*
X162229800Y-101676200D02*
X168935400Y-94970600D01*
X160274000Y-101676200D02*
X162229800Y-101676200D01*
X159994600Y-101396800D02*
X160274000Y-101676200D01*
D10*
X160909000Y-91719400D02*
X160909000Y-91059000D01*
X160909000Y-91059000D02*
X160967000Y-91059000D01*
D22*
X160140000Y-89532500D02*
X158604000Y-89532500D01*
X158604000Y-89532500D02*
X158559500Y-89577000D01*
X160967000Y-91059000D02*
X160782000Y-91059000D01*
X160782000Y-91059000D02*
X160140000Y-90417000D01*
X160140000Y-90417000D02*
X160140000Y-89532500D01*
D10*
X162369500Y-91313000D02*
X162115500Y-91059000D01*
X161867000Y-91059000D02*
X162115500Y-91059000D01*
D22*
X162440000Y-89532500D02*
X163976000Y-89532500D01*
X163976000Y-89532500D02*
X164020500Y-89577000D01*
X162440000Y-89532500D02*
X162440000Y-90486000D01*
X162440000Y-90486000D02*
X161867000Y-91059000D01*
D10*
X170027600Y-104368600D02*
X170307000Y-104089200D01*
X166928800Y-103555800D02*
X167741600Y-104368600D01*
X166928800Y-101492756D02*
X166928800Y-103555800D01*
X166966900Y-101549200D02*
X166928800Y-101492756D01*
X167741600Y-104368600D02*
X170027600Y-104368600D01*
D25*
X186309000Y-96393000D02*
X183134000Y-96393000D01*
D10*
X178739800Y-93446600D02*
X173812200Y-93446600D01*
X179019200Y-93726000D02*
X178739800Y-93446600D01*
X179019200Y-93726000D02*
X179019200Y-93726000D01*
X181686200Y-96393000D02*
X179019200Y-93726000D01*
X183134000Y-96393000D02*
X181686200Y-96393000D01*
X183134000Y-96393000D02*
X183134000Y-96393000D01*
D25*
X180314600Y-93853000D02*
X186309000Y-93853000D01*
D10*
X180136800Y-94030800D02*
X180314600Y-93853000D01*
X182575027Y-91287770D02*
X180949430Y-91287770D01*
X180949430Y-91287770D02*
X180467000Y-91770200D01*
X182549800Y-91287600D02*
X182575027Y-91287770D01*
D25*
X182575027Y-91287770D02*
X186309000Y-91313000D01*
X186309000Y-88773000D02*
X181229000Y-88747600D01*
D10*
X181051200Y-88925400D02*
X181229000Y-88747600D01*
X182803800Y-86207600D02*
X182829200Y-86233000D01*
D25*
X182829200Y-86233000D02*
X186309000Y-86233000D01*
D10*
X173820000Y-86235500D02*
X176095700Y-86235500D01*
X176095700Y-86235500D02*
X176098200Y-86233000D01*
X174548800Y-98145600D02*
X174574200Y-98120200D01*
X168205059Y-99666052D02*
X168224200Y-103327200D01*
X169824671Y-98145600D02*
X168205059Y-99666052D01*
X169824671Y-98145600D02*
X174548800Y-98145600D01*
X172821600Y-86791800D02*
X172821600Y-90347800D01*
X172821600Y-86791800D02*
X172265300Y-86235500D01*
X171620000Y-86235500D02*
X172265300Y-86235500D01*
X172696934Y-90472466D02*
X172696934Y-93598589D01*
X172821600Y-90347800D02*
X172696934Y-90472466D01*
X172696934Y-93598589D02*
X172696934Y-94180866D01*
X172696934Y-94180866D02*
X172516800Y-94361000D01*
X172695057Y-93701074D02*
X172696934Y-93598589D01*
D23*
X157784800Y-104190800D02*
X157949900Y-104076500D01*
X157949900Y-104076500D02*
X158390500Y-104076500D01*
D10*
X179095400Y-96672400D02*
X168427400Y-96672400D01*
X162300500Y-104076500D02*
X162300500Y-102799300D01*
X168427400Y-96672400D02*
X162300500Y-102799300D01*
D24*
X162300500Y-104076500D02*
X161683700Y-104076500D01*
X161683700Y-104076500D02*
X161671000Y-104089200D01*
D10*
X168732200Y-95783400D02*
X178917600Y-95783400D01*
X168732200Y-95783400D02*
X161925000Y-102590600D01*
X161925000Y-102590600D02*
X161518600Y-102590600D01*
X178917600Y-95783400D02*
X178993800Y-95707200D01*
X160091160Y-102590600D02*
X161518600Y-102590600D01*
X161518600Y-102590600D02*
X161823400Y-102590600D01*
X160091160Y-102590600D02*
X159890500Y-102791260D01*
X157789880Y-100792280D02*
X158940500Y-100792280D01*
X157784800Y-100787200D02*
X157789880Y-100792280D01*
G36*
X182150600Y-98649174D02*
X182150600Y-100355400D01*
X182184854Y-100527608D01*
X182256082Y-100634208D01*
X182282402Y-100673598D01*
X183400002Y-101791198D01*
X183545992Y-101888746D01*
X183718200Y-101923000D01*
X184072633Y-101923000D01*
X184072633Y-102108000D01*
X184095295Y-102228438D01*
X184166474Y-102339053D01*
X184275080Y-102413260D01*
X184404000Y-102439367D01*
X188126100Y-102439367D01*
X188126100Y-103053000D01*
X186440250Y-103053000D01*
X186359000Y-103134250D01*
X186359000Y-103963000D01*
X186379000Y-103963000D01*
X186379000Y-104063000D01*
X186359000Y-104063000D01*
X186359000Y-104083000D01*
X186259000Y-104083000D01*
X186259000Y-104063000D01*
X184160250Y-104063000D01*
X184079000Y-104144250D01*
X184079000Y-104628600D01*
X170638204Y-104628600D01*
X170660571Y-104619358D01*
X170836540Y-104443696D01*
X170931891Y-104214066D01*
X170932108Y-103965425D01*
X170837158Y-103735629D01*
X170661496Y-103559660D01*
X170431866Y-103464309D01*
X170183225Y-103464092D01*
X169953429Y-103559042D01*
X169777460Y-103734704D01*
X169682109Y-103964334D01*
X169682105Y-103968600D01*
X167907286Y-103968600D01*
X167389661Y-103450975D01*
X167599092Y-103450975D01*
X167694042Y-103680771D01*
X167869704Y-103856740D01*
X168099334Y-103952091D01*
X168347975Y-103952308D01*
X168577771Y-103857358D01*
X168753740Y-103681696D01*
X168849091Y-103452066D01*
X168849212Y-103313353D01*
X184079000Y-103313353D01*
X184079000Y-103881750D01*
X184160250Y-103963000D01*
X186259000Y-103963000D01*
X186259000Y-103134250D01*
X186177750Y-103053000D01*
X184339354Y-103053000D01*
X184219903Y-103102478D01*
X184128479Y-103193902D01*
X184079000Y-103313353D01*
X168849212Y-103313353D01*
X168849308Y-103203425D01*
X168754358Y-102973629D01*
X168621662Y-102840702D01*
X168605966Y-99838332D01*
X169983006Y-98545600D01*
X174115746Y-98545600D01*
X174219704Y-98649740D01*
X174449334Y-98745091D01*
X174697975Y-98745308D01*
X174927771Y-98650358D01*
X175103740Y-98474696D01*
X175199091Y-98245066D01*
X175199308Y-97996425D01*
X175104358Y-97766629D01*
X174928696Y-97590660D01*
X174699066Y-97495309D01*
X174450425Y-97495092D01*
X174220629Y-97590042D01*
X174064799Y-97745600D01*
X169824671Y-97745600D01*
X169754212Y-97759615D01*
X169683337Y-97771401D01*
X169677891Y-97774796D01*
X169671598Y-97776048D01*
X169611866Y-97815960D01*
X169550896Y-97853971D01*
X167931285Y-99374423D01*
X167926938Y-99380504D01*
X167920741Y-99384692D01*
X167881703Y-99443783D01*
X167840523Y-99501390D01*
X167838833Y-99508675D01*
X167834712Y-99514913D01*
X167821259Y-99584443D01*
X167805258Y-99653427D01*
X167806484Y-99660802D01*
X167805064Y-99668143D01*
X167821678Y-102845908D01*
X167694660Y-102972704D01*
X167599309Y-103202334D01*
X167599092Y-103450975D01*
X167389661Y-103450975D01*
X167328800Y-103390114D01*
X167328800Y-102071044D01*
X167496440Y-101903696D01*
X167591791Y-101674066D01*
X167592008Y-101425425D01*
X167497058Y-101195629D01*
X167321396Y-101019660D01*
X167091766Y-100924309D01*
X166843125Y-100924092D01*
X166613329Y-101019042D01*
X166437360Y-101194704D01*
X166342009Y-101424334D01*
X166341792Y-101672975D01*
X166436742Y-101902771D01*
X166528800Y-101994990D01*
X166528800Y-103555800D01*
X166559248Y-103708874D01*
X166645957Y-103838643D01*
X167435914Y-104628600D01*
X164098246Y-104628600D01*
X164207140Y-104519896D01*
X164302491Y-104290266D01*
X164302708Y-104041625D01*
X164207758Y-103811829D01*
X164032096Y-103635860D01*
X163802466Y-103540509D01*
X163630579Y-103540359D01*
X163529420Y-103471240D01*
X163400500Y-103445133D01*
X163000500Y-103445133D01*
X162880062Y-103467795D01*
X162769447Y-103538974D01*
X162751120Y-103565796D01*
X162738026Y-103545447D01*
X162700500Y-103519807D01*
X162700500Y-102964986D01*
X168593086Y-97072400D01*
X178611590Y-97072400D01*
X178740904Y-97201940D01*
X178970534Y-97297291D01*
X179219175Y-97297508D01*
X179448971Y-97202558D01*
X179624940Y-97026896D01*
X179720291Y-96797266D01*
X179720508Y-96548625D01*
X179625558Y-96318829D01*
X179449896Y-96142860D01*
X179444344Y-96140554D01*
X179523340Y-96061696D01*
X179535012Y-96033586D01*
X182150600Y-98649174D01*
X182150600Y-98649174D01*
G37*
X182150600Y-98649174D02*
X182150600Y-100355400D01*
X182184854Y-100527608D01*
X182256082Y-100634208D01*
X182282402Y-100673598D01*
X183400002Y-101791198D01*
X183545992Y-101888746D01*
X183718200Y-101923000D01*
X184072633Y-101923000D01*
X184072633Y-102108000D01*
X184095295Y-102228438D01*
X184166474Y-102339053D01*
X184275080Y-102413260D01*
X184404000Y-102439367D01*
X188126100Y-102439367D01*
X188126100Y-103053000D01*
X186440250Y-103053000D01*
X186359000Y-103134250D01*
X186359000Y-103963000D01*
X186379000Y-103963000D01*
X186379000Y-104063000D01*
X186359000Y-104063000D01*
X186359000Y-104083000D01*
X186259000Y-104083000D01*
X186259000Y-104063000D01*
X184160250Y-104063000D01*
X184079000Y-104144250D01*
X184079000Y-104628600D01*
X170638204Y-104628600D01*
X170660571Y-104619358D01*
X170836540Y-104443696D01*
X170931891Y-104214066D01*
X170932108Y-103965425D01*
X170837158Y-103735629D01*
X170661496Y-103559660D01*
X170431866Y-103464309D01*
X170183225Y-103464092D01*
X169953429Y-103559042D01*
X169777460Y-103734704D01*
X169682109Y-103964334D01*
X169682105Y-103968600D01*
X167907286Y-103968600D01*
X167389661Y-103450975D01*
X167599092Y-103450975D01*
X167694042Y-103680771D01*
X167869704Y-103856740D01*
X168099334Y-103952091D01*
X168347975Y-103952308D01*
X168577771Y-103857358D01*
X168753740Y-103681696D01*
X168849091Y-103452066D01*
X168849212Y-103313353D01*
X184079000Y-103313353D01*
X184079000Y-103881750D01*
X184160250Y-103963000D01*
X186259000Y-103963000D01*
X186259000Y-103134250D01*
X186177750Y-103053000D01*
X184339354Y-103053000D01*
X184219903Y-103102478D01*
X184128479Y-103193902D01*
X184079000Y-103313353D01*
X168849212Y-103313353D01*
X168849308Y-103203425D01*
X168754358Y-102973629D01*
X168621662Y-102840702D01*
X168605966Y-99838332D01*
X169983006Y-98545600D01*
X174115746Y-98545600D01*
X174219704Y-98649740D01*
X174449334Y-98745091D01*
X174697975Y-98745308D01*
X174927771Y-98650358D01*
X175103740Y-98474696D01*
X175199091Y-98245066D01*
X175199308Y-97996425D01*
X175104358Y-97766629D01*
X174928696Y-97590660D01*
X174699066Y-97495309D01*
X174450425Y-97495092D01*
X174220629Y-97590042D01*
X174064799Y-97745600D01*
X169824671Y-97745600D01*
X169754212Y-97759615D01*
X169683337Y-97771401D01*
X169677891Y-97774796D01*
X169671598Y-97776048D01*
X169611866Y-97815960D01*
X169550896Y-97853971D01*
X167931285Y-99374423D01*
X167926938Y-99380504D01*
X167920741Y-99384692D01*
X167881703Y-99443783D01*
X167840523Y-99501390D01*
X167838833Y-99508675D01*
X167834712Y-99514913D01*
X167821259Y-99584443D01*
X167805258Y-99653427D01*
X167806484Y-99660802D01*
X167805064Y-99668143D01*
X167821678Y-102845908D01*
X167694660Y-102972704D01*
X167599309Y-103202334D01*
X167599092Y-103450975D01*
X167389661Y-103450975D01*
X167328800Y-103390114D01*
X167328800Y-102071044D01*
X167496440Y-101903696D01*
X167591791Y-101674066D01*
X167592008Y-101425425D01*
X167497058Y-101195629D01*
X167321396Y-101019660D01*
X167091766Y-100924309D01*
X166843125Y-100924092D01*
X166613329Y-101019042D01*
X166437360Y-101194704D01*
X166342009Y-101424334D01*
X166341792Y-101672975D01*
X166436742Y-101902771D01*
X166528800Y-101994990D01*
X166528800Y-103555800D01*
X166559248Y-103708874D01*
X166645957Y-103838643D01*
X167435914Y-104628600D01*
X164098246Y-104628600D01*
X164207140Y-104519896D01*
X164302491Y-104290266D01*
X164302708Y-104041625D01*
X164207758Y-103811829D01*
X164032096Y-103635860D01*
X163802466Y-103540509D01*
X163630579Y-103540359D01*
X163529420Y-103471240D01*
X163400500Y-103445133D01*
X163000500Y-103445133D01*
X162880062Y-103467795D01*
X162769447Y-103538974D01*
X162751120Y-103565796D01*
X162738026Y-103545447D01*
X162700500Y-103519807D01*
X162700500Y-102964986D01*
X168593086Y-97072400D01*
X178611590Y-97072400D01*
X178740904Y-97201940D01*
X178970534Y-97297291D01*
X179219175Y-97297508D01*
X179448971Y-97202558D01*
X179624940Y-97026896D01*
X179720291Y-96797266D01*
X179720508Y-96548625D01*
X179625558Y-96318829D01*
X179449896Y-96142860D01*
X179444344Y-96140554D01*
X179523340Y-96061696D01*
X179535012Y-96033586D01*
X182150600Y-98649174D01*
G36*
X184098740Y-85469080D02*
X184072633Y-85598000D01*
X184072633Y-85783000D01*
X183263053Y-85783000D01*
X183158296Y-85678060D01*
X182928666Y-85582709D01*
X182680025Y-85582492D01*
X182450229Y-85677442D01*
X182274260Y-85853104D01*
X182178909Y-86082734D01*
X182178692Y-86331375D01*
X182273642Y-86561171D01*
X182449304Y-86737140D01*
X182678934Y-86832491D01*
X182927575Y-86832708D01*
X183157371Y-86737758D01*
X183212225Y-86683000D01*
X184072633Y-86683000D01*
X184072633Y-86868000D01*
X184095295Y-86988438D01*
X184166474Y-87099053D01*
X184275080Y-87173260D01*
X184404000Y-87199367D01*
X188126100Y-87199367D01*
X188126100Y-87806633D01*
X184404000Y-87806633D01*
X184283562Y-87829295D01*
X184172947Y-87900474D01*
X184098740Y-88009080D01*
X184072633Y-88138000D01*
X184072633Y-88311813D01*
X181231250Y-88297606D01*
X181188853Y-88305819D01*
X181176066Y-88300509D01*
X180927425Y-88300292D01*
X180697629Y-88395242D01*
X180521660Y-88570904D01*
X180426309Y-88800534D01*
X180426092Y-89049175D01*
X180521042Y-89278971D01*
X180696704Y-89454940D01*
X180926334Y-89550291D01*
X181174975Y-89550508D01*
X181404771Y-89455558D01*
X181580740Y-89279896D01*
X181614111Y-89199531D01*
X184072633Y-89211823D01*
X184072633Y-89408000D01*
X184095295Y-89528438D01*
X184166474Y-89639053D01*
X184275080Y-89713260D01*
X184404000Y-89739367D01*
X188126100Y-89739367D01*
X188126100Y-90346633D01*
X184404000Y-90346633D01*
X184283562Y-90369295D01*
X184172947Y-90440474D01*
X184098740Y-90549080D01*
X184072633Y-90678000D01*
X184072633Y-90847879D01*
X182578068Y-90837780D01*
X182405632Y-90870870D01*
X182379966Y-90887770D01*
X180949430Y-90887770D01*
X180796356Y-90918218D01*
X180666587Y-91004927D01*
X180526262Y-91145252D01*
X180343225Y-91145092D01*
X180113429Y-91240042D01*
X179937460Y-91415704D01*
X179842109Y-91645334D01*
X179841892Y-91893975D01*
X179936842Y-92123771D01*
X180112504Y-92299740D01*
X180342134Y-92395091D01*
X180590775Y-92395308D01*
X180820571Y-92300358D01*
X180996540Y-92124696D01*
X181091891Y-91895066D01*
X181092052Y-91710834D01*
X181115116Y-91687770D01*
X182378520Y-91687770D01*
X182400014Y-91702343D01*
X182571986Y-91737760D01*
X184072633Y-91747900D01*
X184072633Y-91948000D01*
X184095295Y-92068438D01*
X184166474Y-92179053D01*
X184275080Y-92253260D01*
X184404000Y-92279367D01*
X188126100Y-92279367D01*
X188126100Y-92886633D01*
X184404000Y-92886633D01*
X184283562Y-92909295D01*
X184172947Y-92980474D01*
X184098740Y-93089080D01*
X184072633Y-93218000D01*
X184072633Y-93403000D01*
X180314600Y-93403000D01*
X180274074Y-93411061D01*
X180261666Y-93405909D01*
X180013025Y-93405692D01*
X179783229Y-93500642D01*
X179607260Y-93676304D01*
X179586114Y-93727228D01*
X179022643Y-93163757D01*
X178892874Y-93077048D01*
X178739800Y-93046600D01*
X174296010Y-93046600D01*
X174166696Y-92917060D01*
X173937066Y-92821709D01*
X173688425Y-92821492D01*
X173601800Y-92857285D01*
X173601800Y-90991396D01*
X174138198Y-90454998D01*
X174235747Y-90309007D01*
X174270000Y-90136800D01*
X174270000Y-88791867D01*
X174350000Y-88791867D01*
X174470438Y-88769205D01*
X174581053Y-88698026D01*
X174655260Y-88589420D01*
X174656054Y-88585500D01*
X174758827Y-88585500D01*
X174823274Y-88685653D01*
X174931880Y-88759860D01*
X175060800Y-88785967D01*
X175560800Y-88785967D01*
X175681238Y-88763305D01*
X175708360Y-88745852D01*
X175871734Y-88813691D01*
X176120375Y-88813908D01*
X176350171Y-88718958D01*
X176526140Y-88543296D01*
X176621491Y-88313666D01*
X176621708Y-88065025D01*
X176526758Y-87835229D01*
X176351096Y-87659260D01*
X176121466Y-87563909D01*
X175872825Y-87563692D01*
X175771811Y-87605430D01*
X175770491Y-87604528D01*
X175836322Y-87538697D01*
X175885800Y-87419246D01*
X175885800Y-87185850D01*
X175804550Y-87104600D01*
X175360800Y-87104600D01*
X175360800Y-87124600D01*
X175260800Y-87124600D01*
X175260800Y-87104600D01*
X174817050Y-87104600D01*
X174735800Y-87185850D01*
X174735800Y-87419246D01*
X174785278Y-87538697D01*
X174850379Y-87603798D01*
X174829747Y-87617074D01*
X174782994Y-87685500D01*
X174655769Y-87685500D01*
X174587526Y-87579447D01*
X174478920Y-87505240D01*
X174350000Y-87479133D01*
X173290000Y-87479133D01*
X173221600Y-87492003D01*
X173221600Y-86878016D01*
X173290000Y-86891867D01*
X174350000Y-86891867D01*
X174470438Y-86869205D01*
X174581053Y-86798026D01*
X174655260Y-86689420D01*
X174666179Y-86635500D01*
X174758355Y-86635500D01*
X174735800Y-86689954D01*
X174735800Y-86923350D01*
X174817050Y-87004600D01*
X175260800Y-87004600D01*
X175260800Y-86984600D01*
X175360800Y-86984600D01*
X175360800Y-87004600D01*
X175804550Y-87004600D01*
X175885800Y-86923350D01*
X175885800Y-86821544D01*
X175973334Y-86857891D01*
X176221975Y-86858108D01*
X176451771Y-86763158D01*
X176627740Y-86587496D01*
X176723091Y-86357866D01*
X176723308Y-86109225D01*
X176628358Y-85879429D01*
X176452696Y-85703460D01*
X176223066Y-85608109D01*
X175974425Y-85607892D01*
X175744629Y-85702842D01*
X175611739Y-85835500D01*
X174667255Y-85835500D01*
X174658705Y-85790062D01*
X174587526Y-85679447D01*
X174478920Y-85605240D01*
X174350000Y-85579133D01*
X173290000Y-85579133D01*
X173169562Y-85601795D01*
X173058947Y-85672974D01*
X172984740Y-85781580D01*
X172958633Y-85910500D01*
X172958633Y-86363147D01*
X172548143Y-85952657D01*
X172480837Y-85907685D01*
X172458705Y-85790062D01*
X172387526Y-85679447D01*
X172278920Y-85605240D01*
X172150000Y-85579133D01*
X171090000Y-85579133D01*
X170969562Y-85601795D01*
X170858947Y-85672974D01*
X170784740Y-85781580D01*
X170758633Y-85910500D01*
X170758633Y-86560500D01*
X170781295Y-86680938D01*
X170800340Y-86710535D01*
X170765000Y-86795853D01*
X170765000Y-87054250D01*
X170846250Y-87135500D01*
X171570000Y-87135500D01*
X171570000Y-87115500D01*
X171670000Y-87115500D01*
X171670000Y-87135500D01*
X171690000Y-87135500D01*
X171690000Y-87235500D01*
X171670000Y-87235500D01*
X171670000Y-87255500D01*
X171570000Y-87255500D01*
X171570000Y-87235500D01*
X170846250Y-87235500D01*
X170765000Y-87316750D01*
X170765000Y-87575147D01*
X170799898Y-87659396D01*
X170784740Y-87681580D01*
X170758633Y-87810500D01*
X170758633Y-88211511D01*
X168167079Y-85619957D01*
X168037310Y-85533248D01*
X167884236Y-85502800D01*
X156083000Y-85502800D01*
X155929927Y-85533248D01*
X155800157Y-85619957D01*
X155800155Y-85619960D01*
X155368357Y-86051757D01*
X155281648Y-86181526D01*
X155261305Y-86283800D01*
X155251200Y-86334600D01*
X155251200Y-87425634D01*
X155096260Y-87580304D01*
X155000909Y-87809934D01*
X155000692Y-88058575D01*
X155095642Y-88288371D01*
X155271304Y-88464340D01*
X155500934Y-88559691D01*
X155749575Y-88559908D01*
X155979371Y-88464958D01*
X156155340Y-88289296D01*
X156172517Y-88247930D01*
X156185704Y-88261140D01*
X156415334Y-88356491D01*
X156663975Y-88356708D01*
X156893771Y-88261758D01*
X157043436Y-88112354D01*
X157984500Y-88112354D01*
X157984500Y-88345750D01*
X158065750Y-88427000D01*
X158509500Y-88427000D01*
X158509500Y-87933250D01*
X158609500Y-87933250D01*
X158609500Y-88427000D01*
X159053250Y-88427000D01*
X159134500Y-88345750D01*
X159134500Y-88112354D01*
X159085022Y-87992903D01*
X158993598Y-87901479D01*
X158874147Y-87852000D01*
X158690750Y-87852000D01*
X158609500Y-87933250D01*
X158509500Y-87933250D01*
X158428250Y-87852000D01*
X158244853Y-87852000D01*
X158125402Y-87901479D01*
X158033978Y-87992903D01*
X157984500Y-88112354D01*
X157043436Y-88112354D01*
X157069740Y-88086096D01*
X157165091Y-87856466D01*
X157165171Y-87763750D01*
X159165000Y-87763750D01*
X159165000Y-88247147D01*
X159214479Y-88366598D01*
X159305903Y-88458022D01*
X159425354Y-88507500D01*
X160008750Y-88507500D01*
X160090000Y-88426250D01*
X160090000Y-87682500D01*
X160190000Y-87682500D01*
X160190000Y-88426250D01*
X160271250Y-88507500D01*
X160854646Y-88507500D01*
X160974097Y-88458022D01*
X161065521Y-88366598D01*
X161115000Y-88247147D01*
X161115000Y-87763750D01*
X161465000Y-87763750D01*
X161465000Y-88247147D01*
X161514479Y-88366598D01*
X161605903Y-88458022D01*
X161725354Y-88507500D01*
X162308750Y-88507500D01*
X162390000Y-88426250D01*
X162390000Y-87682500D01*
X162490000Y-87682500D01*
X162490000Y-88426250D01*
X162571250Y-88507500D01*
X163154646Y-88507500D01*
X163274097Y-88458022D01*
X163365521Y-88366598D01*
X163415000Y-88247147D01*
X163415000Y-88112354D01*
X163445500Y-88112354D01*
X163445500Y-88345750D01*
X163526750Y-88427000D01*
X163970500Y-88427000D01*
X163970500Y-87933250D01*
X164070500Y-87933250D01*
X164070500Y-88427000D01*
X164514250Y-88427000D01*
X164595500Y-88345750D01*
X164595500Y-88112354D01*
X164546022Y-87992903D01*
X164454598Y-87901479D01*
X164335147Y-87852000D01*
X164151750Y-87852000D01*
X164070500Y-87933250D01*
X163970500Y-87933250D01*
X163889250Y-87852000D01*
X163705853Y-87852000D01*
X163586402Y-87901479D01*
X163494978Y-87992903D01*
X163445500Y-88112354D01*
X163415000Y-88112354D01*
X163415000Y-87763750D01*
X163333750Y-87682500D01*
X162490000Y-87682500D01*
X162390000Y-87682500D01*
X161546250Y-87682500D01*
X161465000Y-87763750D01*
X161115000Y-87763750D01*
X161033750Y-87682500D01*
X160190000Y-87682500D01*
X160090000Y-87682500D01*
X159246250Y-87682500D01*
X159165000Y-87763750D01*
X157165171Y-87763750D01*
X157165296Y-87621192D01*
X157274771Y-87575958D01*
X157450740Y-87400296D01*
X157546091Y-87170666D01*
X157546206Y-87039400D01*
X159165000Y-87039400D01*
X159165000Y-87501250D01*
X159246250Y-87582500D01*
X160090000Y-87582500D01*
X160090000Y-87562500D01*
X160190000Y-87562500D01*
X160190000Y-87582500D01*
X161033750Y-87582500D01*
X161115000Y-87501250D01*
X161115000Y-87039400D01*
X161465000Y-87039400D01*
X161465000Y-87501250D01*
X161546250Y-87582500D01*
X162390000Y-87582500D01*
X162390000Y-87562500D01*
X162490000Y-87562500D01*
X162490000Y-87582500D01*
X163333750Y-87582500D01*
X163415000Y-87501250D01*
X163415000Y-87039400D01*
X167505585Y-87039400D01*
X169068800Y-88620584D01*
X169068800Y-90891117D01*
X169040225Y-90891092D01*
X168810429Y-90986042D01*
X168634460Y-91161704D01*
X168539109Y-91391334D01*
X168538892Y-91639975D01*
X168633842Y-91869771D01*
X168809504Y-92045740D01*
X169039134Y-92141091D01*
X169284907Y-92141305D01*
X169319642Y-92225371D01*
X169495304Y-92401340D01*
X169578968Y-92436080D01*
X163252247Y-98762800D01*
X160403541Y-98762800D01*
X160349096Y-98708260D01*
X160119466Y-98612909D01*
X159870825Y-98612692D01*
X159641029Y-98707642D01*
X159465060Y-98883304D01*
X159369709Y-99112934D01*
X159369492Y-99361575D01*
X159464442Y-99591371D01*
X159640104Y-99767340D01*
X159869734Y-99862691D01*
X160118375Y-99862908D01*
X160348171Y-99767958D01*
X160403425Y-99712800D01*
X162949325Y-99712800D01*
X162397355Y-100261060D01*
X161749194Y-100260919D01*
X161657196Y-100168760D01*
X161427566Y-100073409D01*
X161178925Y-100073192D01*
X160949129Y-100168142D01*
X160773160Y-100343804D01*
X160677809Y-100573434D01*
X160677592Y-100822075D01*
X160772542Y-101051871D01*
X160946567Y-101226200D01*
X160549560Y-101226200D01*
X160473958Y-101043229D01*
X160298296Y-100867260D01*
X160068666Y-100771909D01*
X159820025Y-100771692D01*
X159671917Y-100832889D01*
X159671917Y-100392230D01*
X159649255Y-100271792D01*
X159578076Y-100161177D01*
X159469470Y-100086970D01*
X159340550Y-100060863D01*
X158540450Y-100060863D01*
X158420012Y-100083525D01*
X158309397Y-100154704D01*
X158235190Y-100263310D01*
X158219969Y-100338474D01*
X158139296Y-100257660D01*
X157909666Y-100162309D01*
X157661025Y-100162092D01*
X157431229Y-100257042D01*
X157255260Y-100432704D01*
X157159909Y-100662334D01*
X157159692Y-100910975D01*
X157254642Y-101140771D01*
X157430304Y-101316740D01*
X157659934Y-101412091D01*
X157908575Y-101412308D01*
X158138371Y-101317358D01*
X158217707Y-101238161D01*
X158231745Y-101312768D01*
X158302924Y-101423383D01*
X158411530Y-101497590D01*
X158540450Y-101523697D01*
X159319982Y-101523697D01*
X159413642Y-101750371D01*
X159589304Y-101926340D01*
X159818934Y-102021691D01*
X159996881Y-102021846D01*
X160053747Y-102059843D01*
X159490450Y-102059843D01*
X159370012Y-102082505D01*
X159259397Y-102153684D01*
X159185190Y-102262290D01*
X159159083Y-102391210D01*
X159159083Y-103191310D01*
X159159573Y-103193913D01*
X159072074Y-103135448D01*
X158919000Y-103105000D01*
X158715550Y-103105000D01*
X158715550Y-102922510D01*
X158634300Y-102841260D01*
X158040500Y-102841260D01*
X158040500Y-102861260D01*
X157940500Y-102861260D01*
X157940500Y-102841260D01*
X157346700Y-102841260D01*
X157265450Y-102922510D01*
X157265450Y-103142582D01*
X157146357Y-103222157D01*
X157146355Y-103222160D01*
X156980463Y-103388052D01*
X156797425Y-103387892D01*
X156567629Y-103482842D01*
X156391660Y-103658504D01*
X156296309Y-103888134D01*
X156296092Y-104136775D01*
X156391042Y-104366571D01*
X156566704Y-104542540D01*
X156773959Y-104628600D01*
X153538032Y-104628600D01*
X151734002Y-104269756D01*
X150235925Y-103268773D01*
X149606360Y-102326563D01*
X157265450Y-102326563D01*
X157265450Y-102660010D01*
X157346700Y-102741260D01*
X157940500Y-102741260D01*
X157940500Y-102147460D01*
X158040500Y-102147460D01*
X158040500Y-102741260D01*
X158634300Y-102741260D01*
X158715550Y-102660010D01*
X158715550Y-102326563D01*
X158666071Y-102207112D01*
X158574647Y-102115688D01*
X158455196Y-102066210D01*
X158121750Y-102066210D01*
X158040500Y-102147460D01*
X157940500Y-102147460D01*
X157859250Y-102066210D01*
X157525804Y-102066210D01*
X157406353Y-102115688D01*
X157314929Y-102207112D01*
X157265450Y-102326563D01*
X149606360Y-102326563D01*
X149506262Y-102176756D01*
X149557287Y-102214230D01*
X149984000Y-102319000D01*
X151174000Y-102319000D01*
X151174000Y-101244000D01*
X151274000Y-101244000D01*
X151274000Y-102319000D01*
X152464000Y-102319000D01*
X152890713Y-102214230D01*
X153244851Y-101954139D01*
X153472499Y-101578324D01*
X153516229Y-101419199D01*
X153456552Y-101244000D01*
X151274000Y-101244000D01*
X151174000Y-101244000D01*
X151154000Y-101244000D01*
X151154000Y-101144000D01*
X151174000Y-101144000D01*
X151174000Y-100069000D01*
X151274000Y-100069000D01*
X151274000Y-101144000D01*
X153456552Y-101144000D01*
X153516229Y-100968801D01*
X153472499Y-100809676D01*
X153244851Y-100433861D01*
X152890713Y-100173770D01*
X152464000Y-100069000D01*
X151274000Y-100069000D01*
X151174000Y-100069000D01*
X149984000Y-100069000D01*
X149557287Y-100173770D01*
X149203149Y-100433861D01*
X149026905Y-100724816D01*
X148876100Y-99966668D01*
X148876100Y-99882275D01*
X153997392Y-99882275D01*
X154092342Y-100112071D01*
X154268004Y-100288040D01*
X154497634Y-100383391D01*
X154746275Y-100383608D01*
X154976071Y-100288658D01*
X155152040Y-100112996D01*
X155247391Y-99883366D01*
X155247608Y-99634725D01*
X155152658Y-99404929D01*
X155135600Y-99387841D01*
X155135600Y-97151775D01*
X156410392Y-97151775D01*
X156505342Y-97381571D01*
X156681004Y-97557540D01*
X156910634Y-97652891D01*
X157159275Y-97653108D01*
X157389071Y-97558158D01*
X157565040Y-97382496D01*
X157660391Y-97152866D01*
X157660457Y-97077422D01*
X157661853Y-97078000D01*
X157920250Y-97078000D01*
X158001500Y-96996750D01*
X158001500Y-96273000D01*
X157981500Y-96273000D01*
X157981500Y-96173000D01*
X158001500Y-96173000D01*
X158001500Y-95449250D01*
X158101500Y-95449250D01*
X158101500Y-96173000D01*
X158121500Y-96173000D01*
X158121500Y-96273000D01*
X158101500Y-96273000D01*
X158101500Y-96996750D01*
X158182750Y-97078000D01*
X158441147Y-97078000D01*
X158525396Y-97043102D01*
X158547580Y-97058260D01*
X158676500Y-97084367D01*
X159326500Y-97084367D01*
X159446938Y-97061705D01*
X159557553Y-96990526D01*
X159631760Y-96881920D01*
X159657867Y-96753000D01*
X159657867Y-95693000D01*
X159635205Y-95572562D01*
X159564026Y-95461947D01*
X159455420Y-95387740D01*
X159326500Y-95361633D01*
X158676500Y-95361633D01*
X158556062Y-95384295D01*
X158526465Y-95403340D01*
X158441147Y-95368000D01*
X158182750Y-95368000D01*
X158101500Y-95449250D01*
X158001500Y-95449250D01*
X157920250Y-95368000D01*
X157661853Y-95368000D01*
X157577604Y-95402898D01*
X157555420Y-95387740D01*
X157426500Y-95361633D01*
X156776500Y-95361633D01*
X156656062Y-95384295D01*
X156545447Y-95455474D01*
X156471240Y-95564080D01*
X156445133Y-95693000D01*
X156445133Y-96753000D01*
X156453807Y-96799101D01*
X156410609Y-96903134D01*
X156410392Y-97151775D01*
X155135600Y-97151775D01*
X155135600Y-93363952D01*
X155822552Y-92677000D01*
X156438679Y-92677000D01*
X156315460Y-92800004D01*
X156220109Y-93029634D01*
X156219892Y-93278275D01*
X156314842Y-93508071D01*
X156445133Y-93638590D01*
X156445133Y-94553000D01*
X156467795Y-94673438D01*
X156538974Y-94784053D01*
X156647580Y-94858260D01*
X156776500Y-94884367D01*
X157426500Y-94884367D01*
X157546938Y-94861705D01*
X157575615Y-94843252D01*
X157597580Y-94858260D01*
X157726500Y-94884367D01*
X158376500Y-94884367D01*
X158496938Y-94861705D01*
X158525615Y-94843252D01*
X158547580Y-94858260D01*
X158676500Y-94884367D01*
X159326500Y-94884367D01*
X159446938Y-94861705D01*
X159557553Y-94790526D01*
X159631760Y-94681920D01*
X159657867Y-94553000D01*
X159657867Y-93493000D01*
X159635205Y-93372562D01*
X159564026Y-93261947D01*
X159455420Y-93187740D01*
X159326500Y-93161633D01*
X158676500Y-93161633D01*
X158556062Y-93184295D01*
X158527385Y-93202748D01*
X158526500Y-93202143D01*
X158526500Y-92735405D01*
X158526501Y-92735400D01*
X158490344Y-92553626D01*
X158444152Y-92484496D01*
X158387376Y-92399524D01*
X158387373Y-92399522D01*
X157853976Y-91866124D01*
X157699875Y-91763157D01*
X157518100Y-91727000D01*
X155625800Y-91727000D01*
X155444025Y-91763157D01*
X155351508Y-91824975D01*
X155289924Y-91866124D01*
X154324724Y-92831324D01*
X154221757Y-92985425D01*
X154185600Y-93167200D01*
X154185600Y-99311526D01*
X154092960Y-99404004D01*
X153997609Y-99633634D01*
X153997392Y-99882275D01*
X148876100Y-99882275D01*
X148876100Y-97603383D01*
X150398857Y-97603383D01*
X150524191Y-97906715D01*
X150756065Y-98138993D01*
X151059177Y-98264857D01*
X151387383Y-98265143D01*
X151690715Y-98139809D01*
X151922993Y-97907935D01*
X152048857Y-97604823D01*
X152049143Y-97276617D01*
X151923809Y-96973285D01*
X151691935Y-96741007D01*
X151388823Y-96615143D01*
X151060617Y-96614857D01*
X150757285Y-96740191D01*
X150525007Y-96972065D01*
X150399143Y-97275177D01*
X150398857Y-97603383D01*
X148876100Y-97603383D01*
X148876100Y-94107383D01*
X150398857Y-94107383D01*
X150524191Y-94410715D01*
X150756065Y-94642993D01*
X151059177Y-94768857D01*
X151387383Y-94769143D01*
X151690715Y-94643809D01*
X151922993Y-94411935D01*
X152048857Y-94108823D01*
X152049143Y-93780617D01*
X151923809Y-93477285D01*
X151691935Y-93245007D01*
X151388823Y-93119143D01*
X151060617Y-93118857D01*
X150757285Y-93244191D01*
X150525007Y-93476065D01*
X150399143Y-93779177D01*
X150398857Y-94107383D01*
X148876100Y-94107383D01*
X148876100Y-90040532D01*
X148971172Y-89562572D01*
X148975501Y-89578324D01*
X149203149Y-89954139D01*
X149557287Y-90214230D01*
X149984000Y-90319000D01*
X151174000Y-90319000D01*
X151174000Y-89244000D01*
X151274000Y-89244000D01*
X151274000Y-90319000D01*
X152464000Y-90319000D01*
X152890713Y-90214230D01*
X153244851Y-89954139D01*
X153472499Y-89578324D01*
X153516229Y-89419199D01*
X153467793Y-89277000D01*
X157978133Y-89277000D01*
X157978133Y-89877000D01*
X158000795Y-89997438D01*
X158071974Y-90108053D01*
X158180580Y-90182260D01*
X158309500Y-90208367D01*
X158809500Y-90208367D01*
X158929938Y-90185705D01*
X159040553Y-90114526D01*
X159113680Y-90007500D01*
X159158633Y-90007500D01*
X159158633Y-90082500D01*
X159181295Y-90202938D01*
X159252474Y-90313553D01*
X159361080Y-90387760D01*
X159490000Y-90413867D01*
X159665000Y-90413867D01*
X159665000Y-90417000D01*
X159701157Y-90598775D01*
X159804124Y-90752876D01*
X160397822Y-91346574D01*
X160379460Y-91364904D01*
X160284109Y-91594534D01*
X160283892Y-91843175D01*
X160378842Y-92072971D01*
X160416241Y-92110435D01*
X160251825Y-92110292D01*
X160022029Y-92205242D01*
X159846060Y-92380904D01*
X159750709Y-92610534D01*
X159750492Y-92859175D01*
X159845442Y-93088971D01*
X160021104Y-93264940D01*
X160250734Y-93360291D01*
X160499375Y-93360508D01*
X160729171Y-93265558D01*
X160784425Y-93210400D01*
X161118648Y-93210400D01*
X161144936Y-93236688D01*
X160936429Y-93322842D01*
X160760460Y-93498504D01*
X160665109Y-93728134D01*
X160664892Y-93976775D01*
X160759842Y-94206571D01*
X160865000Y-94311913D01*
X160865000Y-94727646D01*
X160760460Y-94832004D01*
X160665109Y-95061634D01*
X160664892Y-95310275D01*
X160759842Y-95540071D01*
X160935504Y-95716040D01*
X161165134Y-95811391D01*
X161413775Y-95811608D01*
X161630165Y-95722197D01*
X161630092Y-95805575D01*
X161725042Y-96035371D01*
X161900704Y-96211340D01*
X162130334Y-96306691D01*
X162378975Y-96306908D01*
X162608771Y-96211958D01*
X162784740Y-96036296D01*
X162880091Y-95806666D01*
X162880308Y-95558025D01*
X162785358Y-95328229D01*
X162628600Y-95171197D01*
X162628600Y-93573605D01*
X162628601Y-93573600D01*
X162592443Y-93391826D01*
X162592443Y-93391825D01*
X162489476Y-93237724D01*
X161651276Y-92399524D01*
X161497175Y-92296557D01*
X161315400Y-92260400D01*
X161236331Y-92260400D01*
X161262571Y-92249558D01*
X161438540Y-92073896D01*
X161533891Y-91844266D01*
X161534051Y-91661507D01*
X161538080Y-91664260D01*
X161667000Y-91690367D01*
X161863096Y-91690367D01*
X162015004Y-91842540D01*
X162244634Y-91937891D01*
X162493275Y-91938108D01*
X162723071Y-91843158D01*
X162899040Y-91667496D01*
X162994391Y-91437866D01*
X162994608Y-91189225D01*
X162899658Y-90959429D01*
X162769104Y-90828647D01*
X162775873Y-90821878D01*
X162775876Y-90821876D01*
X162878843Y-90667775D01*
X162915000Y-90486000D01*
X162915000Y-90413867D01*
X163090000Y-90413867D01*
X163210438Y-90391205D01*
X163321053Y-90320026D01*
X163395260Y-90211420D01*
X163421367Y-90082500D01*
X163421367Y-90007500D01*
X163468270Y-90007500D01*
X163532974Y-90108053D01*
X163641580Y-90182260D01*
X163770500Y-90208367D01*
X164270500Y-90208367D01*
X164390938Y-90185705D01*
X164501553Y-90114526D01*
X164575760Y-90005920D01*
X164601867Y-89877000D01*
X164601867Y-89277000D01*
X164579205Y-89156562D01*
X164508026Y-89045947D01*
X164480191Y-89026928D01*
X164546022Y-88961097D01*
X164595500Y-88841646D01*
X164595500Y-88608250D01*
X164514250Y-88527000D01*
X164070500Y-88527000D01*
X164070500Y-88547000D01*
X163970500Y-88547000D01*
X163970500Y-88527000D01*
X163526750Y-88527000D01*
X163445500Y-88608250D01*
X163445500Y-88841646D01*
X163494978Y-88961097D01*
X163560079Y-89026198D01*
X163539447Y-89039474D01*
X163527130Y-89057500D01*
X163421367Y-89057500D01*
X163421367Y-88982500D01*
X163398705Y-88862062D01*
X163327526Y-88751447D01*
X163218920Y-88677240D01*
X163090000Y-88651133D01*
X161790000Y-88651133D01*
X161669562Y-88673795D01*
X161558947Y-88744974D01*
X161484740Y-88853580D01*
X161458633Y-88982500D01*
X161458633Y-90082500D01*
X161481295Y-90202938D01*
X161552474Y-90313553D01*
X161661080Y-90387760D01*
X161790000Y-90413867D01*
X161840382Y-90413867D01*
X161826616Y-90427633D01*
X161667000Y-90427633D01*
X161546562Y-90450295D01*
X161435947Y-90521474D01*
X161417620Y-90548296D01*
X161404526Y-90527947D01*
X161295920Y-90453740D01*
X161167000Y-90427633D01*
X160822385Y-90427633D01*
X160805670Y-90410918D01*
X160910438Y-90391205D01*
X161021053Y-90320026D01*
X161095260Y-90211420D01*
X161121367Y-90082500D01*
X161121367Y-88982500D01*
X161098705Y-88862062D01*
X161027526Y-88751447D01*
X160918920Y-88677240D01*
X160790000Y-88651133D01*
X159490000Y-88651133D01*
X159369562Y-88673795D01*
X159258947Y-88744974D01*
X159184740Y-88853580D01*
X159158633Y-88982500D01*
X159158633Y-89057500D01*
X159054460Y-89057500D01*
X159047026Y-89045947D01*
X159019191Y-89026928D01*
X159085022Y-88961097D01*
X159134500Y-88841646D01*
X159134500Y-88608250D01*
X159053250Y-88527000D01*
X158609500Y-88527000D01*
X158609500Y-88547000D01*
X158509500Y-88547000D01*
X158509500Y-88527000D01*
X158065750Y-88527000D01*
X157984500Y-88608250D01*
X157984500Y-88841646D01*
X158033978Y-88961097D01*
X158099079Y-89026198D01*
X158078447Y-89039474D01*
X158004240Y-89148080D01*
X157978133Y-89277000D01*
X153467793Y-89277000D01*
X153456552Y-89244000D01*
X151274000Y-89244000D01*
X151174000Y-89244000D01*
X151154000Y-89244000D01*
X151154000Y-89144000D01*
X151174000Y-89144000D01*
X151174000Y-88069000D01*
X151274000Y-88069000D01*
X151274000Y-89144000D01*
X153456552Y-89144000D01*
X153516229Y-88968801D01*
X153472499Y-88809676D01*
X153244851Y-88433861D01*
X152890713Y-88173770D01*
X152464000Y-88069000D01*
X151274000Y-88069000D01*
X151174000Y-88069000D01*
X149984000Y-88069000D01*
X149557287Y-88173770D01*
X149203149Y-88433861D01*
X149192038Y-88452204D01*
X149234944Y-88236502D01*
X150235925Y-86738427D01*
X151734002Y-85737444D01*
X153538032Y-85378600D01*
X184160562Y-85378600D01*
X184098740Y-85469080D01*
X184098740Y-85469080D01*
G37*
X184098740Y-85469080D02*
X184072633Y-85598000D01*
X184072633Y-85783000D01*
X183263053Y-85783000D01*
X183158296Y-85678060D01*
X182928666Y-85582709D01*
X182680025Y-85582492D01*
X182450229Y-85677442D01*
X182274260Y-85853104D01*
X182178909Y-86082734D01*
X182178692Y-86331375D01*
X182273642Y-86561171D01*
X182449304Y-86737140D01*
X182678934Y-86832491D01*
X182927575Y-86832708D01*
X183157371Y-86737758D01*
X183212225Y-86683000D01*
X184072633Y-86683000D01*
X184072633Y-86868000D01*
X184095295Y-86988438D01*
X184166474Y-87099053D01*
X184275080Y-87173260D01*
X184404000Y-87199367D01*
X188126100Y-87199367D01*
X188126100Y-87806633D01*
X184404000Y-87806633D01*
X184283562Y-87829295D01*
X184172947Y-87900474D01*
X184098740Y-88009080D01*
X184072633Y-88138000D01*
X184072633Y-88311813D01*
X181231250Y-88297606D01*
X181188853Y-88305819D01*
X181176066Y-88300509D01*
X180927425Y-88300292D01*
X180697629Y-88395242D01*
X180521660Y-88570904D01*
X180426309Y-88800534D01*
X180426092Y-89049175D01*
X180521042Y-89278971D01*
X180696704Y-89454940D01*
X180926334Y-89550291D01*
X181174975Y-89550508D01*
X181404771Y-89455558D01*
X181580740Y-89279896D01*
X181614111Y-89199531D01*
X184072633Y-89211823D01*
X184072633Y-89408000D01*
X184095295Y-89528438D01*
X184166474Y-89639053D01*
X184275080Y-89713260D01*
X184404000Y-89739367D01*
X188126100Y-89739367D01*
X188126100Y-90346633D01*
X184404000Y-90346633D01*
X184283562Y-90369295D01*
X184172947Y-90440474D01*
X184098740Y-90549080D01*
X184072633Y-90678000D01*
X184072633Y-90847879D01*
X182578068Y-90837780D01*
X182405632Y-90870870D01*
X182379966Y-90887770D01*
X180949430Y-90887770D01*
X180796356Y-90918218D01*
X180666587Y-91004927D01*
X180526262Y-91145252D01*
X180343225Y-91145092D01*
X180113429Y-91240042D01*
X179937460Y-91415704D01*
X179842109Y-91645334D01*
X179841892Y-91893975D01*
X179936842Y-92123771D01*
X180112504Y-92299740D01*
X180342134Y-92395091D01*
X180590775Y-92395308D01*
X180820571Y-92300358D01*
X180996540Y-92124696D01*
X181091891Y-91895066D01*
X181092052Y-91710834D01*
X181115116Y-91687770D01*
X182378520Y-91687770D01*
X182400014Y-91702343D01*
X182571986Y-91737760D01*
X184072633Y-91747900D01*
X184072633Y-91948000D01*
X184095295Y-92068438D01*
X184166474Y-92179053D01*
X184275080Y-92253260D01*
X184404000Y-92279367D01*
X188126100Y-92279367D01*
X188126100Y-92886633D01*
X184404000Y-92886633D01*
X184283562Y-92909295D01*
X184172947Y-92980474D01*
X184098740Y-93089080D01*
X184072633Y-93218000D01*
X184072633Y-93403000D01*
X180314600Y-93403000D01*
X180274074Y-93411061D01*
X180261666Y-93405909D01*
X180013025Y-93405692D01*
X179783229Y-93500642D01*
X179607260Y-93676304D01*
X179586114Y-93727228D01*
X179022643Y-93163757D01*
X178892874Y-93077048D01*
X178739800Y-93046600D01*
X174296010Y-93046600D01*
X174166696Y-92917060D01*
X173937066Y-92821709D01*
X173688425Y-92821492D01*
X173601800Y-92857285D01*
X173601800Y-90991396D01*
X174138198Y-90454998D01*
X174235747Y-90309007D01*
X174270000Y-90136800D01*
X174270000Y-88791867D01*
X174350000Y-88791867D01*
X174470438Y-88769205D01*
X174581053Y-88698026D01*
X174655260Y-88589420D01*
X174656054Y-88585500D01*
X174758827Y-88585500D01*
X174823274Y-88685653D01*
X174931880Y-88759860D01*
X175060800Y-88785967D01*
X175560800Y-88785967D01*
X175681238Y-88763305D01*
X175708360Y-88745852D01*
X175871734Y-88813691D01*
X176120375Y-88813908D01*
X176350171Y-88718958D01*
X176526140Y-88543296D01*
X176621491Y-88313666D01*
X176621708Y-88065025D01*
X176526758Y-87835229D01*
X176351096Y-87659260D01*
X176121466Y-87563909D01*
X175872825Y-87563692D01*
X175771811Y-87605430D01*
X175770491Y-87604528D01*
X175836322Y-87538697D01*
X175885800Y-87419246D01*
X175885800Y-87185850D01*
X175804550Y-87104600D01*
X175360800Y-87104600D01*
X175360800Y-87124600D01*
X175260800Y-87124600D01*
X175260800Y-87104600D01*
X174817050Y-87104600D01*
X174735800Y-87185850D01*
X174735800Y-87419246D01*
X174785278Y-87538697D01*
X174850379Y-87603798D01*
X174829747Y-87617074D01*
X174782994Y-87685500D01*
X174655769Y-87685500D01*
X174587526Y-87579447D01*
X174478920Y-87505240D01*
X174350000Y-87479133D01*
X173290000Y-87479133D01*
X173221600Y-87492003D01*
X173221600Y-86878016D01*
X173290000Y-86891867D01*
X174350000Y-86891867D01*
X174470438Y-86869205D01*
X174581053Y-86798026D01*
X174655260Y-86689420D01*
X174666179Y-86635500D01*
X174758355Y-86635500D01*
X174735800Y-86689954D01*
X174735800Y-86923350D01*
X174817050Y-87004600D01*
X175260800Y-87004600D01*
X175260800Y-86984600D01*
X175360800Y-86984600D01*
X175360800Y-87004600D01*
X175804550Y-87004600D01*
X175885800Y-86923350D01*
X175885800Y-86821544D01*
X175973334Y-86857891D01*
X176221975Y-86858108D01*
X176451771Y-86763158D01*
X176627740Y-86587496D01*
X176723091Y-86357866D01*
X176723308Y-86109225D01*
X176628358Y-85879429D01*
X176452696Y-85703460D01*
X176223066Y-85608109D01*
X175974425Y-85607892D01*
X175744629Y-85702842D01*
X175611739Y-85835500D01*
X174667255Y-85835500D01*
X174658705Y-85790062D01*
X174587526Y-85679447D01*
X174478920Y-85605240D01*
X174350000Y-85579133D01*
X173290000Y-85579133D01*
X173169562Y-85601795D01*
X173058947Y-85672974D01*
X172984740Y-85781580D01*
X172958633Y-85910500D01*
X172958633Y-86363147D01*
X172548143Y-85952657D01*
X172480837Y-85907685D01*
X172458705Y-85790062D01*
X172387526Y-85679447D01*
X172278920Y-85605240D01*
X172150000Y-85579133D01*
X171090000Y-85579133D01*
X170969562Y-85601795D01*
X170858947Y-85672974D01*
X170784740Y-85781580D01*
X170758633Y-85910500D01*
X170758633Y-86560500D01*
X170781295Y-86680938D01*
X170800340Y-86710535D01*
X170765000Y-86795853D01*
X170765000Y-87054250D01*
X170846250Y-87135500D01*
X171570000Y-87135500D01*
X171570000Y-87115500D01*
X171670000Y-87115500D01*
X171670000Y-87135500D01*
X171690000Y-87135500D01*
X171690000Y-87235500D01*
X171670000Y-87235500D01*
X171670000Y-87255500D01*
X171570000Y-87255500D01*
X171570000Y-87235500D01*
X170846250Y-87235500D01*
X170765000Y-87316750D01*
X170765000Y-87575147D01*
X170799898Y-87659396D01*
X170784740Y-87681580D01*
X170758633Y-87810500D01*
X170758633Y-88211511D01*
X168167079Y-85619957D01*
X168037310Y-85533248D01*
X167884236Y-85502800D01*
X156083000Y-85502800D01*
X155929927Y-85533248D01*
X155800157Y-85619957D01*
X155800155Y-85619960D01*
X155368357Y-86051757D01*
X155281648Y-86181526D01*
X155261305Y-86283800D01*
X155251200Y-86334600D01*
X155251200Y-87425634D01*
X155096260Y-87580304D01*
X155000909Y-87809934D01*
X155000692Y-88058575D01*
X155095642Y-88288371D01*
X155271304Y-88464340D01*
X155500934Y-88559691D01*
X155749575Y-88559908D01*
X155979371Y-88464958D01*
X156155340Y-88289296D01*
X156172517Y-88247930D01*
X156185704Y-88261140D01*
X156415334Y-88356491D01*
X156663975Y-88356708D01*
X156893771Y-88261758D01*
X157043436Y-88112354D01*
X157984500Y-88112354D01*
X157984500Y-88345750D01*
X158065750Y-88427000D01*
X158509500Y-88427000D01*
X158509500Y-87933250D01*
X158609500Y-87933250D01*
X158609500Y-88427000D01*
X159053250Y-88427000D01*
X159134500Y-88345750D01*
X159134500Y-88112354D01*
X159085022Y-87992903D01*
X158993598Y-87901479D01*
X158874147Y-87852000D01*
X158690750Y-87852000D01*
X158609500Y-87933250D01*
X158509500Y-87933250D01*
X158428250Y-87852000D01*
X158244853Y-87852000D01*
X158125402Y-87901479D01*
X158033978Y-87992903D01*
X157984500Y-88112354D01*
X157043436Y-88112354D01*
X157069740Y-88086096D01*
X157165091Y-87856466D01*
X157165171Y-87763750D01*
X159165000Y-87763750D01*
X159165000Y-88247147D01*
X159214479Y-88366598D01*
X159305903Y-88458022D01*
X159425354Y-88507500D01*
X160008750Y-88507500D01*
X160090000Y-88426250D01*
X160090000Y-87682500D01*
X160190000Y-87682500D01*
X160190000Y-88426250D01*
X160271250Y-88507500D01*
X160854646Y-88507500D01*
X160974097Y-88458022D01*
X161065521Y-88366598D01*
X161115000Y-88247147D01*
X161115000Y-87763750D01*
X161465000Y-87763750D01*
X161465000Y-88247147D01*
X161514479Y-88366598D01*
X161605903Y-88458022D01*
X161725354Y-88507500D01*
X162308750Y-88507500D01*
X162390000Y-88426250D01*
X162390000Y-87682500D01*
X162490000Y-87682500D01*
X162490000Y-88426250D01*
X162571250Y-88507500D01*
X163154646Y-88507500D01*
X163274097Y-88458022D01*
X163365521Y-88366598D01*
X163415000Y-88247147D01*
X163415000Y-88112354D01*
X163445500Y-88112354D01*
X163445500Y-88345750D01*
X163526750Y-88427000D01*
X163970500Y-88427000D01*
X163970500Y-87933250D01*
X164070500Y-87933250D01*
X164070500Y-88427000D01*
X164514250Y-88427000D01*
X164595500Y-88345750D01*
X164595500Y-88112354D01*
X164546022Y-87992903D01*
X164454598Y-87901479D01*
X164335147Y-87852000D01*
X164151750Y-87852000D01*
X164070500Y-87933250D01*
X163970500Y-87933250D01*
X163889250Y-87852000D01*
X163705853Y-87852000D01*
X163586402Y-87901479D01*
X163494978Y-87992903D01*
X163445500Y-88112354D01*
X163415000Y-88112354D01*
X163415000Y-87763750D01*
X163333750Y-87682500D01*
X162490000Y-87682500D01*
X162390000Y-87682500D01*
X161546250Y-87682500D01*
X161465000Y-87763750D01*
X161115000Y-87763750D01*
X161033750Y-87682500D01*
X160190000Y-87682500D01*
X160090000Y-87682500D01*
X159246250Y-87682500D01*
X159165000Y-87763750D01*
X157165171Y-87763750D01*
X157165296Y-87621192D01*
X157274771Y-87575958D01*
X157450740Y-87400296D01*
X157546091Y-87170666D01*
X157546206Y-87039400D01*
X159165000Y-87039400D01*
X159165000Y-87501250D01*
X159246250Y-87582500D01*
X160090000Y-87582500D01*
X160090000Y-87562500D01*
X160190000Y-87562500D01*
X160190000Y-87582500D01*
X161033750Y-87582500D01*
X161115000Y-87501250D01*
X161115000Y-87039400D01*
X161465000Y-87039400D01*
X161465000Y-87501250D01*
X161546250Y-87582500D01*
X162390000Y-87582500D01*
X162390000Y-87562500D01*
X162490000Y-87562500D01*
X162490000Y-87582500D01*
X163333750Y-87582500D01*
X163415000Y-87501250D01*
X163415000Y-87039400D01*
X167505585Y-87039400D01*
X169068800Y-88620584D01*
X169068800Y-90891117D01*
X169040225Y-90891092D01*
X168810429Y-90986042D01*
X168634460Y-91161704D01*
X168539109Y-91391334D01*
X168538892Y-91639975D01*
X168633842Y-91869771D01*
X168809504Y-92045740D01*
X169039134Y-92141091D01*
X169284907Y-92141305D01*
X169319642Y-92225371D01*
X169495304Y-92401340D01*
X169578968Y-92436080D01*
X163252247Y-98762800D01*
X160403541Y-98762800D01*
X160349096Y-98708260D01*
X160119466Y-98612909D01*
X159870825Y-98612692D01*
X159641029Y-98707642D01*
X159465060Y-98883304D01*
X159369709Y-99112934D01*
X159369492Y-99361575D01*
X159464442Y-99591371D01*
X159640104Y-99767340D01*
X159869734Y-99862691D01*
X160118375Y-99862908D01*
X160348171Y-99767958D01*
X160403425Y-99712800D01*
X162949325Y-99712800D01*
X162397355Y-100261060D01*
X161749194Y-100260919D01*
X161657196Y-100168760D01*
X161427566Y-100073409D01*
X161178925Y-100073192D01*
X160949129Y-100168142D01*
X160773160Y-100343804D01*
X160677809Y-100573434D01*
X160677592Y-100822075D01*
X160772542Y-101051871D01*
X160946567Y-101226200D01*
X160549560Y-101226200D01*
X160473958Y-101043229D01*
X160298296Y-100867260D01*
X160068666Y-100771909D01*
X159820025Y-100771692D01*
X159671917Y-100832889D01*
X159671917Y-100392230D01*
X159649255Y-100271792D01*
X159578076Y-100161177D01*
X159469470Y-100086970D01*
X159340550Y-100060863D01*
X158540450Y-100060863D01*
X158420012Y-100083525D01*
X158309397Y-100154704D01*
X158235190Y-100263310D01*
X158219969Y-100338474D01*
X158139296Y-100257660D01*
X157909666Y-100162309D01*
X157661025Y-100162092D01*
X157431229Y-100257042D01*
X157255260Y-100432704D01*
X157159909Y-100662334D01*
X157159692Y-100910975D01*
X157254642Y-101140771D01*
X157430304Y-101316740D01*
X157659934Y-101412091D01*
X157908575Y-101412308D01*
X158138371Y-101317358D01*
X158217707Y-101238161D01*
X158231745Y-101312768D01*
X158302924Y-101423383D01*
X158411530Y-101497590D01*
X158540450Y-101523697D01*
X159319982Y-101523697D01*
X159413642Y-101750371D01*
X159589304Y-101926340D01*
X159818934Y-102021691D01*
X159996881Y-102021846D01*
X160053747Y-102059843D01*
X159490450Y-102059843D01*
X159370012Y-102082505D01*
X159259397Y-102153684D01*
X159185190Y-102262290D01*
X159159083Y-102391210D01*
X159159083Y-103191310D01*
X159159573Y-103193913D01*
X159072074Y-103135448D01*
X158919000Y-103105000D01*
X158715550Y-103105000D01*
X158715550Y-102922510D01*
X158634300Y-102841260D01*
X158040500Y-102841260D01*
X158040500Y-102861260D01*
X157940500Y-102861260D01*
X157940500Y-102841260D01*
X157346700Y-102841260D01*
X157265450Y-102922510D01*
X157265450Y-103142582D01*
X157146357Y-103222157D01*
X157146355Y-103222160D01*
X156980463Y-103388052D01*
X156797425Y-103387892D01*
X156567629Y-103482842D01*
X156391660Y-103658504D01*
X156296309Y-103888134D01*
X156296092Y-104136775D01*
X156391042Y-104366571D01*
X156566704Y-104542540D01*
X156773959Y-104628600D01*
X153538032Y-104628600D01*
X151734002Y-104269756D01*
X150235925Y-103268773D01*
X149606360Y-102326563D01*
X157265450Y-102326563D01*
X157265450Y-102660010D01*
X157346700Y-102741260D01*
X157940500Y-102741260D01*
X157940500Y-102147460D01*
X158040500Y-102147460D01*
X158040500Y-102741260D01*
X158634300Y-102741260D01*
X158715550Y-102660010D01*
X158715550Y-102326563D01*
X158666071Y-102207112D01*
X158574647Y-102115688D01*
X158455196Y-102066210D01*
X158121750Y-102066210D01*
X158040500Y-102147460D01*
X157940500Y-102147460D01*
X157859250Y-102066210D01*
X157525804Y-102066210D01*
X157406353Y-102115688D01*
X157314929Y-102207112D01*
X157265450Y-102326563D01*
X149606360Y-102326563D01*
X149506262Y-102176756D01*
X149557287Y-102214230D01*
X149984000Y-102319000D01*
X151174000Y-102319000D01*
X151174000Y-101244000D01*
X151274000Y-101244000D01*
X151274000Y-102319000D01*
X152464000Y-102319000D01*
X152890713Y-102214230D01*
X153244851Y-101954139D01*
X153472499Y-101578324D01*
X153516229Y-101419199D01*
X153456552Y-101244000D01*
X151274000Y-101244000D01*
X151174000Y-101244000D01*
X151154000Y-101244000D01*
X151154000Y-101144000D01*
X151174000Y-101144000D01*
X151174000Y-100069000D01*
X151274000Y-100069000D01*
X151274000Y-101144000D01*
X153456552Y-101144000D01*
X153516229Y-100968801D01*
X153472499Y-100809676D01*
X153244851Y-100433861D01*
X152890713Y-100173770D01*
X152464000Y-100069000D01*
X151274000Y-100069000D01*
X151174000Y-100069000D01*
X149984000Y-100069000D01*
X149557287Y-100173770D01*
X149203149Y-100433861D01*
X149026905Y-100724816D01*
X148876100Y-99966668D01*
X148876100Y-99882275D01*
X153997392Y-99882275D01*
X154092342Y-100112071D01*
X154268004Y-100288040D01*
X154497634Y-100383391D01*
X154746275Y-100383608D01*
X154976071Y-100288658D01*
X155152040Y-100112996D01*
X155247391Y-99883366D01*
X155247608Y-99634725D01*
X155152658Y-99404929D01*
X155135600Y-99387841D01*
X155135600Y-97151775D01*
X156410392Y-97151775D01*
X156505342Y-97381571D01*
X156681004Y-97557540D01*
X156910634Y-97652891D01*
X157159275Y-97653108D01*
X157389071Y-97558158D01*
X157565040Y-97382496D01*
X157660391Y-97152866D01*
X157660457Y-97077422D01*
X157661853Y-97078000D01*
X157920250Y-97078000D01*
X158001500Y-96996750D01*
X158001500Y-96273000D01*
X157981500Y-96273000D01*
X157981500Y-96173000D01*
X158001500Y-96173000D01*
X158001500Y-95449250D01*
X158101500Y-95449250D01*
X158101500Y-96173000D01*
X158121500Y-96173000D01*
X158121500Y-96273000D01*
X158101500Y-96273000D01*
X158101500Y-96996750D01*
X158182750Y-97078000D01*
X158441147Y-97078000D01*
X158525396Y-97043102D01*
X158547580Y-97058260D01*
X158676500Y-97084367D01*
X159326500Y-97084367D01*
X159446938Y-97061705D01*
X159557553Y-96990526D01*
X159631760Y-96881920D01*
X159657867Y-96753000D01*
X159657867Y-95693000D01*
X159635205Y-95572562D01*
X159564026Y-95461947D01*
X159455420Y-95387740D01*
X159326500Y-95361633D01*
X158676500Y-95361633D01*
X158556062Y-95384295D01*
X158526465Y-95403340D01*
X158441147Y-95368000D01*
X158182750Y-95368000D01*
X158101500Y-95449250D01*
X158001500Y-95449250D01*
X157920250Y-95368000D01*
X157661853Y-95368000D01*
X157577604Y-95402898D01*
X157555420Y-95387740D01*
X157426500Y-95361633D01*
X156776500Y-95361633D01*
X156656062Y-95384295D01*
X156545447Y-95455474D01*
X156471240Y-95564080D01*
X156445133Y-95693000D01*
X156445133Y-96753000D01*
X156453807Y-96799101D01*
X156410609Y-96903134D01*
X156410392Y-97151775D01*
X155135600Y-97151775D01*
X155135600Y-93363952D01*
X155822552Y-92677000D01*
X156438679Y-92677000D01*
X156315460Y-92800004D01*
X156220109Y-93029634D01*
X156219892Y-93278275D01*
X156314842Y-93508071D01*
X156445133Y-93638590D01*
X156445133Y-94553000D01*
X156467795Y-94673438D01*
X156538974Y-94784053D01*
X156647580Y-94858260D01*
X156776500Y-94884367D01*
X157426500Y-94884367D01*
X157546938Y-94861705D01*
X157575615Y-94843252D01*
X157597580Y-94858260D01*
X157726500Y-94884367D01*
X158376500Y-94884367D01*
X158496938Y-94861705D01*
X158525615Y-94843252D01*
X158547580Y-94858260D01*
X158676500Y-94884367D01*
X159326500Y-94884367D01*
X159446938Y-94861705D01*
X159557553Y-94790526D01*
X159631760Y-94681920D01*
X159657867Y-94553000D01*
X159657867Y-93493000D01*
X159635205Y-93372562D01*
X159564026Y-93261947D01*
X159455420Y-93187740D01*
X159326500Y-93161633D01*
X158676500Y-93161633D01*
X158556062Y-93184295D01*
X158527385Y-93202748D01*
X158526500Y-93202143D01*
X158526500Y-92735405D01*
X158526501Y-92735400D01*
X158490344Y-92553626D01*
X158444152Y-92484496D01*
X158387376Y-92399524D01*
X158387373Y-92399522D01*
X157853976Y-91866124D01*
X157699875Y-91763157D01*
X157518100Y-91727000D01*
X155625800Y-91727000D01*
X155444025Y-91763157D01*
X155351508Y-91824975D01*
X155289924Y-91866124D01*
X154324724Y-92831324D01*
X154221757Y-92985425D01*
X154185600Y-93167200D01*
X154185600Y-99311526D01*
X154092960Y-99404004D01*
X153997609Y-99633634D01*
X153997392Y-99882275D01*
X148876100Y-99882275D01*
X148876100Y-97603383D01*
X150398857Y-97603383D01*
X150524191Y-97906715D01*
X150756065Y-98138993D01*
X151059177Y-98264857D01*
X151387383Y-98265143D01*
X151690715Y-98139809D01*
X151922993Y-97907935D01*
X152048857Y-97604823D01*
X152049143Y-97276617D01*
X151923809Y-96973285D01*
X151691935Y-96741007D01*
X151388823Y-96615143D01*
X151060617Y-96614857D01*
X150757285Y-96740191D01*
X150525007Y-96972065D01*
X150399143Y-97275177D01*
X150398857Y-97603383D01*
X148876100Y-97603383D01*
X148876100Y-94107383D01*
X150398857Y-94107383D01*
X150524191Y-94410715D01*
X150756065Y-94642993D01*
X151059177Y-94768857D01*
X151387383Y-94769143D01*
X151690715Y-94643809D01*
X151922993Y-94411935D01*
X152048857Y-94108823D01*
X152049143Y-93780617D01*
X151923809Y-93477285D01*
X151691935Y-93245007D01*
X151388823Y-93119143D01*
X151060617Y-93118857D01*
X150757285Y-93244191D01*
X150525007Y-93476065D01*
X150399143Y-93779177D01*
X150398857Y-94107383D01*
X148876100Y-94107383D01*
X148876100Y-90040532D01*
X148971172Y-89562572D01*
X148975501Y-89578324D01*
X149203149Y-89954139D01*
X149557287Y-90214230D01*
X149984000Y-90319000D01*
X151174000Y-90319000D01*
X151174000Y-89244000D01*
X151274000Y-89244000D01*
X151274000Y-90319000D01*
X152464000Y-90319000D01*
X152890713Y-90214230D01*
X153244851Y-89954139D01*
X153472499Y-89578324D01*
X153516229Y-89419199D01*
X153467793Y-89277000D01*
X157978133Y-89277000D01*
X157978133Y-89877000D01*
X158000795Y-89997438D01*
X158071974Y-90108053D01*
X158180580Y-90182260D01*
X158309500Y-90208367D01*
X158809500Y-90208367D01*
X158929938Y-90185705D01*
X159040553Y-90114526D01*
X159113680Y-90007500D01*
X159158633Y-90007500D01*
X159158633Y-90082500D01*
X159181295Y-90202938D01*
X159252474Y-90313553D01*
X159361080Y-90387760D01*
X159490000Y-90413867D01*
X159665000Y-90413867D01*
X159665000Y-90417000D01*
X159701157Y-90598775D01*
X159804124Y-90752876D01*
X160397822Y-91346574D01*
X160379460Y-91364904D01*
X160284109Y-91594534D01*
X160283892Y-91843175D01*
X160378842Y-92072971D01*
X160416241Y-92110435D01*
X160251825Y-92110292D01*
X160022029Y-92205242D01*
X159846060Y-92380904D01*
X159750709Y-92610534D01*
X159750492Y-92859175D01*
X159845442Y-93088971D01*
X160021104Y-93264940D01*
X160250734Y-93360291D01*
X160499375Y-93360508D01*
X160729171Y-93265558D01*
X160784425Y-93210400D01*
X161118648Y-93210400D01*
X161144936Y-93236688D01*
X160936429Y-93322842D01*
X160760460Y-93498504D01*
X160665109Y-93728134D01*
X160664892Y-93976775D01*
X160759842Y-94206571D01*
X160865000Y-94311913D01*
X160865000Y-94727646D01*
X160760460Y-94832004D01*
X160665109Y-95061634D01*
X160664892Y-95310275D01*
X160759842Y-95540071D01*
X160935504Y-95716040D01*
X161165134Y-95811391D01*
X161413775Y-95811608D01*
X161630165Y-95722197D01*
X161630092Y-95805575D01*
X161725042Y-96035371D01*
X161900704Y-96211340D01*
X162130334Y-96306691D01*
X162378975Y-96306908D01*
X162608771Y-96211958D01*
X162784740Y-96036296D01*
X162880091Y-95806666D01*
X162880308Y-95558025D01*
X162785358Y-95328229D01*
X162628600Y-95171197D01*
X162628600Y-93573605D01*
X162628601Y-93573600D01*
X162592443Y-93391826D01*
X162592443Y-93391825D01*
X162489476Y-93237724D01*
X161651276Y-92399524D01*
X161497175Y-92296557D01*
X161315400Y-92260400D01*
X161236331Y-92260400D01*
X161262571Y-92249558D01*
X161438540Y-92073896D01*
X161533891Y-91844266D01*
X161534051Y-91661507D01*
X161538080Y-91664260D01*
X161667000Y-91690367D01*
X161863096Y-91690367D01*
X162015004Y-91842540D01*
X162244634Y-91937891D01*
X162493275Y-91938108D01*
X162723071Y-91843158D01*
X162899040Y-91667496D01*
X162994391Y-91437866D01*
X162994608Y-91189225D01*
X162899658Y-90959429D01*
X162769104Y-90828647D01*
X162775873Y-90821878D01*
X162775876Y-90821876D01*
X162878843Y-90667775D01*
X162915000Y-90486000D01*
X162915000Y-90413867D01*
X163090000Y-90413867D01*
X163210438Y-90391205D01*
X163321053Y-90320026D01*
X163395260Y-90211420D01*
X163421367Y-90082500D01*
X163421367Y-90007500D01*
X163468270Y-90007500D01*
X163532974Y-90108053D01*
X163641580Y-90182260D01*
X163770500Y-90208367D01*
X164270500Y-90208367D01*
X164390938Y-90185705D01*
X164501553Y-90114526D01*
X164575760Y-90005920D01*
X164601867Y-89877000D01*
X164601867Y-89277000D01*
X164579205Y-89156562D01*
X164508026Y-89045947D01*
X164480191Y-89026928D01*
X164546022Y-88961097D01*
X164595500Y-88841646D01*
X164595500Y-88608250D01*
X164514250Y-88527000D01*
X164070500Y-88527000D01*
X164070500Y-88547000D01*
X163970500Y-88547000D01*
X163970500Y-88527000D01*
X163526750Y-88527000D01*
X163445500Y-88608250D01*
X163445500Y-88841646D01*
X163494978Y-88961097D01*
X163560079Y-89026198D01*
X163539447Y-89039474D01*
X163527130Y-89057500D01*
X163421367Y-89057500D01*
X163421367Y-88982500D01*
X163398705Y-88862062D01*
X163327526Y-88751447D01*
X163218920Y-88677240D01*
X163090000Y-88651133D01*
X161790000Y-88651133D01*
X161669562Y-88673795D01*
X161558947Y-88744974D01*
X161484740Y-88853580D01*
X161458633Y-88982500D01*
X161458633Y-90082500D01*
X161481295Y-90202938D01*
X161552474Y-90313553D01*
X161661080Y-90387760D01*
X161790000Y-90413867D01*
X161840382Y-90413867D01*
X161826616Y-90427633D01*
X161667000Y-90427633D01*
X161546562Y-90450295D01*
X161435947Y-90521474D01*
X161417620Y-90548296D01*
X161404526Y-90527947D01*
X161295920Y-90453740D01*
X161167000Y-90427633D01*
X160822385Y-90427633D01*
X160805670Y-90410918D01*
X160910438Y-90391205D01*
X161021053Y-90320026D01*
X161095260Y-90211420D01*
X161121367Y-90082500D01*
X161121367Y-88982500D01*
X161098705Y-88862062D01*
X161027526Y-88751447D01*
X160918920Y-88677240D01*
X160790000Y-88651133D01*
X159490000Y-88651133D01*
X159369562Y-88673795D01*
X159258947Y-88744974D01*
X159184740Y-88853580D01*
X159158633Y-88982500D01*
X159158633Y-89057500D01*
X159054460Y-89057500D01*
X159047026Y-89045947D01*
X159019191Y-89026928D01*
X159085022Y-88961097D01*
X159134500Y-88841646D01*
X159134500Y-88608250D01*
X159053250Y-88527000D01*
X158609500Y-88527000D01*
X158609500Y-88547000D01*
X158509500Y-88547000D01*
X158509500Y-88527000D01*
X158065750Y-88527000D01*
X157984500Y-88608250D01*
X157984500Y-88841646D01*
X158033978Y-88961097D01*
X158099079Y-89026198D01*
X158078447Y-89039474D01*
X158004240Y-89148080D01*
X157978133Y-89277000D01*
X153467793Y-89277000D01*
X153456552Y-89244000D01*
X151274000Y-89244000D01*
X151174000Y-89244000D01*
X151154000Y-89244000D01*
X151154000Y-89144000D01*
X151174000Y-89144000D01*
X151174000Y-88069000D01*
X151274000Y-88069000D01*
X151274000Y-89144000D01*
X153456552Y-89144000D01*
X153516229Y-88968801D01*
X153472499Y-88809676D01*
X153244851Y-88433861D01*
X152890713Y-88173770D01*
X152464000Y-88069000D01*
X151274000Y-88069000D01*
X151174000Y-88069000D01*
X149984000Y-88069000D01*
X149557287Y-88173770D01*
X149203149Y-88433861D01*
X149192038Y-88452204D01*
X149234944Y-88236502D01*
X150235925Y-86738427D01*
X151734002Y-85737444D01*
X153538032Y-85378600D01*
X184160562Y-85378600D01*
X184098740Y-85469080D01*
M02*
