G04 #@! TF.FileFunction,Legend,Bot*
%FSLAX46Y46*%
G04 Gerber Fmt 4.6, Leading zero omitted, Abs format (unit mm)*
G04 Created by KiCad (PCBNEW 4.0.1-stable) date 25/01/2016 21:34:26*
%MOMM*%
G01*
G04 APERTURE LIST*
%ADD10C,0.150000*%
%ADD11C,0.200000*%
%ADD12C,0.010000*%
G04 APERTURE END LIST*
D10*
D11*
X182571999Y-86661571D02*
X182629142Y-86718714D01*
X182800571Y-86775857D01*
X182914857Y-86775857D01*
X183086285Y-86718714D01*
X183200571Y-86604429D01*
X183257714Y-86490143D01*
X183314857Y-86261571D01*
X183314857Y-86090143D01*
X183257714Y-85861571D01*
X183200571Y-85747286D01*
X183086285Y-85633000D01*
X182914857Y-85575857D01*
X182800571Y-85575857D01*
X182629142Y-85633000D01*
X182571999Y-85690143D01*
X181829142Y-85575857D02*
X181714857Y-85575857D01*
X181600571Y-85633000D01*
X181543428Y-85690143D01*
X181486285Y-85804429D01*
X181429142Y-86033000D01*
X181429142Y-86318714D01*
X181486285Y-86547286D01*
X181543428Y-86661571D01*
X181600571Y-86718714D01*
X181714857Y-86775857D01*
X181829142Y-86775857D01*
X181943428Y-86718714D01*
X182000571Y-86661571D01*
X182057714Y-86547286D01*
X182114857Y-86318714D01*
X182114857Y-86033000D01*
X182057714Y-85804429D01*
X182000571Y-85690143D01*
X181943428Y-85633000D01*
X181829142Y-85575857D01*
X182571999Y-89328571D02*
X182629142Y-89385714D01*
X182800571Y-89442857D01*
X182914857Y-89442857D01*
X183086285Y-89385714D01*
X183200571Y-89271429D01*
X183257714Y-89157143D01*
X183314857Y-88928571D01*
X183314857Y-88757143D01*
X183257714Y-88528571D01*
X183200571Y-88414286D01*
X183086285Y-88300000D01*
X182914857Y-88242857D01*
X182800571Y-88242857D01*
X182629142Y-88300000D01*
X182571999Y-88357143D01*
X181429142Y-89442857D02*
X182114857Y-89442857D01*
X181771999Y-89442857D02*
X181771999Y-88242857D01*
X181886285Y-88414286D01*
X182000571Y-88528571D01*
X182114857Y-88585714D01*
X182571999Y-91741571D02*
X182629142Y-91798714D01*
X182800571Y-91855857D01*
X182914857Y-91855857D01*
X183086285Y-91798714D01*
X183200571Y-91684429D01*
X183257714Y-91570143D01*
X183314857Y-91341571D01*
X183314857Y-91170143D01*
X183257714Y-90941571D01*
X183200571Y-90827286D01*
X183086285Y-90713000D01*
X182914857Y-90655857D01*
X182800571Y-90655857D01*
X182629142Y-90713000D01*
X182571999Y-90770143D01*
X182114857Y-90770143D02*
X182057714Y-90713000D01*
X181943428Y-90655857D01*
X181657714Y-90655857D01*
X181543428Y-90713000D01*
X181486285Y-90770143D01*
X181429142Y-90884429D01*
X181429142Y-90998714D01*
X181486285Y-91170143D01*
X182171999Y-91855857D01*
X181429142Y-91855857D01*
X182571999Y-94281571D02*
X182629142Y-94338714D01*
X182800571Y-94395857D01*
X182914857Y-94395857D01*
X183086285Y-94338714D01*
X183200571Y-94224429D01*
X183257714Y-94110143D01*
X183314857Y-93881571D01*
X183314857Y-93710143D01*
X183257714Y-93481571D01*
X183200571Y-93367286D01*
X183086285Y-93253000D01*
X182914857Y-93195857D01*
X182800571Y-93195857D01*
X182629142Y-93253000D01*
X182571999Y-93310143D01*
X182171999Y-93195857D02*
X181429142Y-93195857D01*
X181829142Y-93653000D01*
X181657714Y-93653000D01*
X181543428Y-93710143D01*
X181486285Y-93767286D01*
X181429142Y-93881571D01*
X181429142Y-94167286D01*
X181486285Y-94281571D01*
X181543428Y-94338714D01*
X181657714Y-94395857D01*
X182000571Y-94395857D01*
X182114857Y-94338714D01*
X182171999Y-94281571D01*
X182832285Y-96694571D02*
X182889428Y-96751714D01*
X183060857Y-96808857D01*
X183175143Y-96808857D01*
X183346571Y-96751714D01*
X183460857Y-96637429D01*
X183518000Y-96523143D01*
X183575143Y-96294571D01*
X183575143Y-96123143D01*
X183518000Y-95894571D01*
X183460857Y-95780286D01*
X183346571Y-95666000D01*
X183175143Y-95608857D01*
X183060857Y-95608857D01*
X182889428Y-95666000D01*
X182832285Y-95723143D01*
X181746571Y-96808857D02*
X182318000Y-96808857D01*
X182318000Y-95608857D01*
X181346571Y-96808857D02*
X181346571Y-95608857D01*
X180660856Y-96808857D02*
X181175142Y-96123143D01*
X180660856Y-95608857D02*
X181346571Y-96294571D01*
X183660857Y-98891714D02*
X182746571Y-98891714D01*
X183203714Y-99348857D02*
X183203714Y-98434571D01*
X182289428Y-98148857D02*
X181546571Y-98148857D01*
X181946571Y-98606000D01*
X181775143Y-98606000D01*
X181660857Y-98663143D01*
X181603714Y-98720286D01*
X181546571Y-98834571D01*
X181546571Y-99120286D01*
X181603714Y-99234571D01*
X181660857Y-99291714D01*
X181775143Y-99348857D01*
X182118000Y-99348857D01*
X182232286Y-99291714D01*
X182289428Y-99234571D01*
X181203714Y-98148857D02*
X180803714Y-99348857D01*
X180403714Y-98148857D01*
X183660857Y-101558714D02*
X182746571Y-101558714D01*
X183203714Y-102015857D02*
X183203714Y-101101571D01*
X181603714Y-100815857D02*
X182175143Y-100815857D01*
X182232286Y-101387286D01*
X182175143Y-101330143D01*
X182060857Y-101273000D01*
X181775143Y-101273000D01*
X181660857Y-101330143D01*
X181603714Y-101387286D01*
X181546571Y-101501571D01*
X181546571Y-101787286D01*
X181603714Y-101901571D01*
X181660857Y-101958714D01*
X181775143Y-102015857D01*
X182060857Y-102015857D01*
X182175143Y-101958714D01*
X182232286Y-101901571D01*
X181203714Y-100815857D02*
X180803714Y-102015857D01*
X180403714Y-100815857D01*
X182905285Y-103286000D02*
X183019571Y-103228857D01*
X183191000Y-103228857D01*
X183362428Y-103286000D01*
X183476714Y-103400286D01*
X183533857Y-103514571D01*
X183591000Y-103743143D01*
X183591000Y-103914571D01*
X183533857Y-104143143D01*
X183476714Y-104257429D01*
X183362428Y-104371714D01*
X183191000Y-104428857D01*
X183076714Y-104428857D01*
X182905285Y-104371714D01*
X182848142Y-104314571D01*
X182848142Y-103914571D01*
X183076714Y-103914571D01*
X182333857Y-104428857D02*
X182333857Y-103228857D01*
X181648142Y-104428857D01*
X181648142Y-103228857D01*
X181076714Y-104428857D02*
X181076714Y-103228857D01*
X180790999Y-103228857D01*
X180619571Y-103286000D01*
X180505285Y-103400286D01*
X180448142Y-103514571D01*
X180390999Y-103743143D01*
X180390999Y-103914571D01*
X180448142Y-104143143D01*
X180505285Y-104257429D01*
X180619571Y-104371714D01*
X180790999Y-104428857D01*
X181076714Y-104428857D01*
D10*
X159034500Y-88777000D02*
X159034500Y-89277000D01*
X158084500Y-89277000D02*
X158084500Y-88777000D01*
X164495500Y-88777000D02*
X164495500Y-89277000D01*
X163545500Y-89277000D02*
X163545500Y-88777000D01*
X158690500Y-103601500D02*
X159190500Y-103601500D01*
X159190500Y-104551500D02*
X158690500Y-104551500D01*
X157641340Y-101140260D02*
X157689600Y-101140260D01*
X160440320Y-101841300D02*
X160440320Y-101140260D01*
X160440320Y-101140260D02*
X160191400Y-101140260D01*
X157641340Y-101140260D02*
X157440680Y-101140260D01*
X157440680Y-101140260D02*
X157440680Y-101841300D01*
X161667000Y-91584000D02*
X161167000Y-91584000D01*
X161167000Y-90534000D02*
X161667000Y-90534000D01*
X163000500Y-104601500D02*
X162500500Y-104601500D01*
X162500500Y-103551500D02*
X163000500Y-103551500D01*
X175785800Y-87354600D02*
X175785800Y-87854600D01*
X174835800Y-87854600D02*
X174835800Y-87354600D01*
X185009000Y-105563000D02*
X185009000Y-104013000D01*
X186309000Y-105563000D02*
X185009000Y-105563000D01*
X190500000Y-104140000D02*
X196342000Y-104140000D01*
X196342000Y-104140000D02*
X196342000Y-103886000D01*
X196342000Y-103886000D02*
X190500000Y-103886000D01*
X190500000Y-103886000D02*
X190500000Y-104013000D01*
X190500000Y-104013000D02*
X196342000Y-104013000D01*
X187833000Y-86487000D02*
X187452000Y-86487000D01*
X187833000Y-85979000D02*
X187452000Y-85979000D01*
X187833000Y-104267000D02*
X187452000Y-104267000D01*
X187833000Y-103759000D02*
X187452000Y-103759000D01*
X187833000Y-101727000D02*
X187452000Y-101727000D01*
X187833000Y-101219000D02*
X187452000Y-101219000D01*
X187833000Y-99187000D02*
X187452000Y-99187000D01*
X187833000Y-98679000D02*
X187452000Y-98679000D01*
X187833000Y-88519000D02*
X187452000Y-88519000D01*
X187833000Y-89027000D02*
X187452000Y-89027000D01*
X187833000Y-91059000D02*
X187452000Y-91059000D01*
X187833000Y-91567000D02*
X187452000Y-91567000D01*
X187833000Y-93599000D02*
X187452000Y-93599000D01*
X187833000Y-94107000D02*
X187452000Y-94107000D01*
X187833000Y-96139000D02*
X187452000Y-96139000D01*
X187833000Y-96647000D02*
X187452000Y-96647000D01*
X187833000Y-90043000D02*
X190373000Y-90043000D01*
X187833000Y-90043000D02*
X187833000Y-87503000D01*
X187833000Y-87503000D02*
X190373000Y-87503000D01*
X190373000Y-89027000D02*
X196469000Y-89027000D01*
X196469000Y-89027000D02*
X196469000Y-88519000D01*
X196469000Y-88519000D02*
X190373000Y-88519000D01*
X190373000Y-87503000D02*
X190373000Y-90043000D01*
X190373000Y-84963000D02*
X190373000Y-87503000D01*
X196469000Y-85979000D02*
X190373000Y-85979000D01*
X196469000Y-86487000D02*
X196469000Y-85979000D01*
X190373000Y-86487000D02*
X196469000Y-86487000D01*
X187833000Y-87503000D02*
X187833000Y-84963000D01*
X187833000Y-87503000D02*
X190373000Y-87503000D01*
X187833000Y-84963000D02*
X190373000Y-84963000D01*
X187833000Y-105283000D02*
X190373000Y-105283000D01*
X187833000Y-102743000D02*
X190373000Y-102743000D01*
X187833000Y-102743000D02*
X187833000Y-100203000D01*
X187833000Y-100203000D02*
X190373000Y-100203000D01*
X190373000Y-101727000D02*
X196469000Y-101727000D01*
X196469000Y-101727000D02*
X196469000Y-101219000D01*
X196469000Y-101219000D02*
X190373000Y-101219000D01*
X190373000Y-100203000D02*
X190373000Y-102743000D01*
X190373000Y-102743000D02*
X190373000Y-105283000D01*
X196469000Y-103759000D02*
X190373000Y-103759000D01*
X196469000Y-104267000D02*
X196469000Y-103759000D01*
X190373000Y-104267000D02*
X196469000Y-104267000D01*
X187833000Y-102743000D02*
X190373000Y-102743000D01*
X187833000Y-105283000D02*
X187833000Y-102743000D01*
X187833000Y-95123000D02*
X190373000Y-95123000D01*
X187833000Y-95123000D02*
X187833000Y-92583000D01*
X187833000Y-92583000D02*
X190373000Y-92583000D01*
X190373000Y-94107000D02*
X196469000Y-94107000D01*
X196469000Y-94107000D02*
X196469000Y-93599000D01*
X196469000Y-93599000D02*
X190373000Y-93599000D01*
X190373000Y-92583000D02*
X190373000Y-95123000D01*
X190373000Y-90043000D02*
X190373000Y-92583000D01*
X196469000Y-91059000D02*
X190373000Y-91059000D01*
X196469000Y-91567000D02*
X196469000Y-91059000D01*
X190373000Y-91567000D02*
X196469000Y-91567000D01*
X187833000Y-90043000D02*
X190373000Y-90043000D01*
X187833000Y-92583000D02*
X187833000Y-90043000D01*
X187833000Y-92583000D02*
X190373000Y-92583000D01*
X187833000Y-97663000D02*
X190373000Y-97663000D01*
X187833000Y-97663000D02*
X187833000Y-95123000D01*
X187833000Y-95123000D02*
X190373000Y-95123000D01*
X190373000Y-96647000D02*
X196469000Y-96647000D01*
X196469000Y-96647000D02*
X196469000Y-96139000D01*
X196469000Y-96139000D02*
X190373000Y-96139000D01*
X190373000Y-95123000D02*
X190373000Y-97663000D01*
X190373000Y-97663000D02*
X190373000Y-100203000D01*
X196469000Y-98679000D02*
X190373000Y-98679000D01*
X196469000Y-99187000D02*
X196469000Y-98679000D01*
X190373000Y-99187000D02*
X196469000Y-99187000D01*
X187833000Y-97663000D02*
X190373000Y-97663000D01*
X187833000Y-100203000D02*
X187833000Y-97663000D01*
X187833000Y-100203000D02*
X190373000Y-100203000D01*
X172520000Y-88885500D02*
G75*
G03X172520000Y-88885500I-100000J0D01*
G01*
X172970000Y-88635500D02*
X172470000Y-88635500D01*
X172970000Y-85735500D02*
X172970000Y-88635500D01*
X172470000Y-85735500D02*
X172970000Y-85735500D01*
X172470000Y-88635500D02*
X172470000Y-85735500D01*
X159851500Y-95523000D02*
G75*
G03X159851500Y-95523000I-100000J0D01*
G01*
X159501500Y-94873000D02*
X159501500Y-95373000D01*
X156601500Y-94873000D02*
X159501500Y-94873000D01*
X156601500Y-95373000D02*
X156601500Y-94873000D01*
X159501500Y-95373000D02*
X156601500Y-95373000D01*
X159690000Y-89882500D02*
X162890000Y-89882500D01*
X162890000Y-89882500D02*
X162890000Y-87282500D01*
X162890000Y-87282500D02*
X159690000Y-87282500D01*
X159690000Y-87282500D02*
X159690000Y-89882500D01*
D12*
G36*
X169570400Y-89763600D02*
X167572266Y-89763600D01*
X167131289Y-89764434D01*
X166722336Y-89766811D01*
X166356500Y-89770547D01*
X166044869Y-89775457D01*
X165798536Y-89781356D01*
X165628590Y-89788060D01*
X165546121Y-89795383D01*
X165540266Y-89797467D01*
X165532806Y-89854101D01*
X165525915Y-90001244D01*
X165519778Y-90227805D01*
X165514579Y-90522693D01*
X165510504Y-90874819D01*
X165507737Y-91273090D01*
X165506463Y-91706418D01*
X165506400Y-91829467D01*
X165506400Y-93167200D01*
X166166800Y-93167200D01*
X166166800Y-90424000D01*
X168910000Y-90424000D01*
X168910000Y-93167200D01*
X166166800Y-93167200D01*
X165506400Y-93167200D01*
X165506400Y-93827600D01*
X169570400Y-93827600D01*
X169570400Y-89763600D01*
X169570400Y-89763600D01*
G37*
X169570400Y-89763600D02*
X167572266Y-89763600D01*
X167131289Y-89764434D01*
X166722336Y-89766811D01*
X166356500Y-89770547D01*
X166044869Y-89775457D01*
X165798536Y-89781356D01*
X165628590Y-89788060D01*
X165546121Y-89795383D01*
X165540266Y-89797467D01*
X165532806Y-89854101D01*
X165525915Y-90001244D01*
X165519778Y-90227805D01*
X165514579Y-90522693D01*
X165510504Y-90874819D01*
X165507737Y-91273090D01*
X165506463Y-91706418D01*
X165506400Y-91829467D01*
X165506400Y-93167200D01*
X166166800Y-93167200D01*
X166166800Y-90424000D01*
X168910000Y-90424000D01*
X168910000Y-93167200D01*
X166166800Y-93167200D01*
X165506400Y-93167200D01*
X165506400Y-93827600D01*
X169570400Y-93827600D01*
X169570400Y-89763600D01*
G36*
X170395900Y-104078925D02*
X170713400Y-104063800D01*
X170728754Y-103797100D01*
X170744109Y-103530400D01*
X171190690Y-103530400D01*
X171221400Y-104063800D01*
X171831000Y-104063800D01*
X171846354Y-103797100D01*
X171861709Y-103530400D01*
X172364400Y-103530400D01*
X172364400Y-104091600D01*
X174117000Y-104063800D01*
X174144856Y-102362000D01*
X175260000Y-102362000D01*
X175260000Y-101139576D01*
X174066200Y-101168200D01*
X174035490Y-101701600D01*
X172974000Y-101701600D01*
X172974000Y-101249471D01*
X173266100Y-101234236D01*
X173558200Y-101219000D01*
X173573465Y-100954866D01*
X173588731Y-100690732D01*
X173852865Y-100675466D01*
X174117000Y-100660200D01*
X174117000Y-98882200D01*
X173507400Y-98882200D01*
X173493471Y-99733100D01*
X173479543Y-100584000D01*
X172974000Y-100584000D01*
X172974000Y-97843257D01*
X173824900Y-97829329D01*
X174675800Y-97815400D01*
X174690163Y-97243900D01*
X174704527Y-96672400D01*
X175209200Y-96672400D01*
X175209200Y-97180400D01*
X177546000Y-97180400D01*
X177546000Y-94996000D01*
X179171600Y-94996000D01*
X179171600Y-95453200D01*
X178054000Y-95453200D01*
X178054000Y-96113600D01*
X179171600Y-96113600D01*
X179171600Y-96621600D01*
X178054000Y-96621600D01*
X178054000Y-97180400D01*
X177546000Y-97180400D01*
X175209200Y-97180400D01*
X175209200Y-97840800D01*
X176326800Y-97840800D01*
X176326800Y-98958400D01*
X176885600Y-98958400D01*
X176885600Y-99517200D01*
X178663600Y-99517200D01*
X178663600Y-98958400D01*
X179171600Y-98958400D01*
X179171600Y-99517200D01*
X179504224Y-99517201D01*
X179836848Y-99517201D01*
X179821724Y-99199701D01*
X179806600Y-98882200D01*
X179542465Y-98866935D01*
X179278331Y-98851669D01*
X179263065Y-98587535D01*
X179247800Y-98323400D01*
X178612800Y-98293152D01*
X178612800Y-98856800D01*
X176990637Y-98856800D01*
X176976218Y-98310700D01*
X176961800Y-97764600D01*
X176695100Y-97749246D01*
X176428400Y-97733891D01*
X176428400Y-97231200D01*
X177439329Y-97231200D01*
X177454564Y-97523300D01*
X177469800Y-97815400D01*
X178658434Y-97843980D01*
X178689000Y-97256600D01*
X179262097Y-97242222D01*
X179835195Y-97227843D01*
X179820897Y-96632622D01*
X179806600Y-96037400D01*
X179539900Y-96022046D01*
X179273200Y-96006691D01*
X179273200Y-95560110D01*
X179806600Y-95529400D01*
X179806600Y-93192600D01*
X178930300Y-93178701D01*
X178054000Y-93164801D01*
X178054000Y-94335600D01*
X178663600Y-94335600D01*
X178663600Y-93827600D01*
X179171600Y-93827600D01*
X179171600Y-94335600D01*
X178663600Y-94335600D01*
X178054000Y-94335600D01*
X177546000Y-94335600D01*
X177546000Y-92710000D01*
X178104800Y-92710000D01*
X178104800Y-92151200D01*
X179166290Y-92151200D01*
X179197000Y-92684600D01*
X179806600Y-92684600D01*
X179835224Y-91490800D01*
X179273200Y-91490800D01*
X179273200Y-90937071D01*
X178981100Y-90921836D01*
X178689000Y-90906600D01*
X178673585Y-90666990D01*
X178658171Y-90427379D01*
X179232385Y-90412990D01*
X179806600Y-90398600D01*
X179806600Y-89789000D01*
X176352200Y-89789000D01*
X176321490Y-90322400D01*
X175214270Y-90322400D01*
X175183800Y-90906600D01*
X174145760Y-90935518D01*
X174117000Y-89789000D01*
X172096762Y-89775717D01*
X170076524Y-89762433D01*
X170090162Y-90944117D01*
X170102920Y-92049600D01*
X171297600Y-92049600D01*
X171297600Y-90424000D01*
X171754800Y-90424000D01*
X171754800Y-92049600D01*
X171297600Y-92049600D01*
X170102920Y-92049600D01*
X170103800Y-92125800D01*
X170632068Y-92156332D01*
X170658195Y-92608400D01*
X172415200Y-92608400D01*
X172415200Y-91541600D01*
X174040800Y-91541600D01*
X174040800Y-92049600D01*
X174701200Y-92049600D01*
X174701200Y-91541600D01*
X175768000Y-91541600D01*
X175768000Y-92049600D01*
X176428400Y-92049600D01*
X176428400Y-90424000D01*
X176885600Y-90424000D01*
X176885600Y-91490800D01*
X177546000Y-91490800D01*
X177546000Y-90424000D01*
X178054000Y-90424000D01*
X178054000Y-91490800D01*
X177546000Y-91490800D01*
X176885600Y-91490800D01*
X176885600Y-92049600D01*
X176428400Y-92049600D01*
X175768000Y-92049600D01*
X174701200Y-92049600D01*
X174040800Y-92049600D01*
X173482000Y-92049600D01*
X173482000Y-92608400D01*
X174142400Y-92608400D01*
X174142400Y-92151200D01*
X174599600Y-92151200D01*
X174599600Y-92608400D01*
X174142400Y-92608400D01*
X173482000Y-92608400D01*
X173482000Y-93167200D01*
X172974000Y-93167200D01*
X172974000Y-92608400D01*
X172415200Y-92608400D01*
X170658195Y-92608400D01*
X170662600Y-92684600D01*
X171754800Y-92713438D01*
X171754800Y-93163763D01*
X171208700Y-93178182D01*
X170662600Y-93192600D01*
X170647364Y-93484700D01*
X170632129Y-93776800D01*
X170078400Y-93776800D01*
X170078400Y-94386400D01*
X170738800Y-94386400D01*
X170738800Y-93827600D01*
X171856400Y-93827600D01*
X171856400Y-93268800D01*
X172923200Y-93268800D01*
X172923200Y-93827600D01*
X174142400Y-93827600D01*
X174142400Y-93268800D01*
X174599600Y-93268800D01*
X174599600Y-94335600D01*
X175260000Y-94335600D01*
X175260000Y-92710000D01*
X176885600Y-92710000D01*
X176885600Y-94335600D01*
X175260000Y-94335600D01*
X174599600Y-94335600D01*
X172918351Y-94335600D01*
X172933475Y-94653100D01*
X172948600Y-94970600D01*
X173492103Y-94984993D01*
X174035607Y-94999385D01*
X174050903Y-95264393D01*
X174066200Y-95529400D01*
X174675800Y-95529400D01*
X174691154Y-95262700D01*
X174706509Y-94996000D01*
X175209200Y-94996000D01*
X175209200Y-96008673D01*
X175076829Y-96012000D01*
X175818800Y-96012000D01*
X175818800Y-94996000D01*
X176321490Y-94996000D01*
X176352200Y-95529400D01*
X176885600Y-95560110D01*
X176885600Y-96012000D01*
X175818800Y-96012000D01*
X175076829Y-96012000D01*
X174637700Y-96023037D01*
X174066200Y-96037400D01*
X174050912Y-96331249D01*
X174035807Y-96621600D01*
X175260000Y-96621600D01*
X175260000Y-96113600D01*
X175768000Y-96113600D01*
X175768000Y-96621600D01*
X175260000Y-96621600D01*
X174035807Y-96621600D01*
X174035625Y-96625098D01*
X173517512Y-96610649D01*
X172999400Y-96596200D01*
X172984164Y-96304100D01*
X172968929Y-96012000D01*
X172415200Y-96012000D01*
X172415200Y-94894400D01*
X171856400Y-94894400D01*
X171856400Y-94335600D01*
X171191151Y-94335600D01*
X171206275Y-94653100D01*
X171221400Y-94970600D01*
X171754800Y-95001310D01*
X171754800Y-95447891D01*
X171488100Y-95463246D01*
X171221400Y-95478600D01*
X171221400Y-96088200D01*
X171754800Y-96118910D01*
X171754800Y-96621600D01*
X171249335Y-96621600D01*
X170743870Y-96621601D01*
X170728635Y-96329500D01*
X170713400Y-96037400D01*
X170129200Y-96006930D01*
X170129200Y-95559871D01*
X170421300Y-95544636D01*
X170713400Y-95529400D01*
X170713400Y-94919800D01*
X170078400Y-94889552D01*
X170078400Y-95453200D01*
X168458109Y-95453200D01*
X168442754Y-95186500D01*
X168427400Y-94919800D01*
X168163265Y-94904535D01*
X167899131Y-94889269D01*
X167883865Y-94625135D01*
X167868600Y-94361000D01*
X166674800Y-94332376D01*
X166674800Y-95453200D01*
X166166800Y-95453200D01*
X166166799Y-95171376D01*
X166166799Y-94889552D01*
X165849299Y-94904676D01*
X165531800Y-94919800D01*
X165531800Y-95529400D01*
X166060068Y-95559932D01*
X166090600Y-96088200D01*
X166408099Y-96103325D01*
X166725599Y-96118449D01*
X166725599Y-95836625D01*
X166725600Y-95554800D01*
X167233600Y-95554800D01*
X167233600Y-96113600D01*
X167792400Y-96113600D01*
X167792400Y-96621600D01*
X169011600Y-96621600D01*
X169011600Y-96113600D01*
X170078400Y-96113600D01*
X170078400Y-96672400D01*
X170637200Y-96672400D01*
X170637200Y-97739200D01*
X171856400Y-97739200D01*
X171856400Y-96672400D01*
X172364400Y-96672400D01*
X172364400Y-97231200D01*
X172923200Y-97231200D01*
X172923200Y-97739200D01*
X171856400Y-97739200D01*
X170637200Y-97739200D01*
X170129200Y-97739200D01*
X170129200Y-97180400D01*
X169570400Y-97180400D01*
X169570400Y-96621600D01*
X169011600Y-96621600D01*
X167792400Y-96621600D01*
X167792400Y-96672400D01*
X168910000Y-96672400D01*
X168910000Y-97180400D01*
X168351200Y-97180400D01*
X168351200Y-97739200D01*
X169011600Y-97739200D01*
X169011600Y-97225634D01*
X169494200Y-97256600D01*
X169525166Y-97739200D01*
X169011600Y-97739200D01*
X168351200Y-97739200D01*
X167792400Y-97739200D01*
X167792400Y-98017629D01*
X167792399Y-98296057D01*
X166662099Y-98309729D01*
X165531800Y-98323400D01*
X165517479Y-98921241D01*
X165503159Y-99519081D01*
X166685879Y-99505441D01*
X167868600Y-99491800D01*
X167883018Y-98945700D01*
X167897437Y-98399600D01*
X168345890Y-98399600D01*
X168376600Y-98933000D01*
X168904868Y-98963532D01*
X168935400Y-99491800D01*
X169255388Y-99506989D01*
X169575377Y-99522178D01*
X169560188Y-99202189D01*
X169545000Y-98882200D01*
X169278300Y-98866846D01*
X169011600Y-98851491D01*
X169011600Y-98399600D01*
X169570400Y-98399600D01*
X169570400Y-97840800D01*
X170078400Y-97840800D01*
X170078400Y-99522049D01*
X170395900Y-99506925D01*
X170713400Y-99491800D01*
X170727818Y-98945700D01*
X170742237Y-98399600D01*
X171194392Y-98399600D01*
X171198771Y-98856800D01*
X171856400Y-98856800D01*
X171856400Y-98399600D01*
X172364400Y-98399600D01*
X172364400Y-98856800D01*
X171856400Y-98856800D01*
X171198771Y-98856800D01*
X171215316Y-100584000D01*
X171856400Y-100584000D01*
X171856400Y-99517200D01*
X172364400Y-99517200D01*
X172364400Y-100584000D01*
X171856400Y-100584000D01*
X171215316Y-100584000D01*
X171220669Y-101142800D01*
X172415200Y-101142800D01*
X172415200Y-100685600D01*
X172923200Y-100685600D01*
X172923200Y-101142800D01*
X172415200Y-101142800D01*
X171220669Y-101142800D01*
X171221400Y-101219000D01*
X171754800Y-101249710D01*
X171754800Y-101701600D01*
X170744109Y-101701600D01*
X170728754Y-101434900D01*
X170713400Y-101168200D01*
X170078400Y-101137952D01*
X170078400Y-102870000D01*
X171856400Y-102870000D01*
X171856400Y-101803200D01*
X172364400Y-101803200D01*
X172364400Y-102362000D01*
X172923200Y-102362000D01*
X172923200Y-102870000D01*
X171856400Y-102870000D01*
X170078400Y-102870000D01*
X170078400Y-102920800D01*
X170637200Y-102920800D01*
X170637200Y-103428800D01*
X172974000Y-103428800D01*
X172974000Y-103208667D01*
X172981205Y-103066115D01*
X172999293Y-102970431D01*
X173007866Y-102954667D01*
X173075523Y-102933845D01*
X173205035Y-102921907D01*
X173261866Y-102920800D01*
X173482000Y-102920800D01*
X173482000Y-103428800D01*
X172974000Y-103428800D01*
X170637200Y-103428800D01*
X170078400Y-103428800D01*
X170078400Y-104094049D01*
X170395900Y-104078925D01*
X170395900Y-104078925D01*
G37*
X170395900Y-104078925D02*
X170713400Y-104063800D01*
X170728754Y-103797100D01*
X170744109Y-103530400D01*
X171190690Y-103530400D01*
X171221400Y-104063800D01*
X171831000Y-104063800D01*
X171846354Y-103797100D01*
X171861709Y-103530400D01*
X172364400Y-103530400D01*
X172364400Y-104091600D01*
X174117000Y-104063800D01*
X174144856Y-102362000D01*
X175260000Y-102362000D01*
X175260000Y-101139576D01*
X174066200Y-101168200D01*
X174035490Y-101701600D01*
X172974000Y-101701600D01*
X172974000Y-101249471D01*
X173266100Y-101234236D01*
X173558200Y-101219000D01*
X173573465Y-100954866D01*
X173588731Y-100690732D01*
X173852865Y-100675466D01*
X174117000Y-100660200D01*
X174117000Y-98882200D01*
X173507400Y-98882200D01*
X173493471Y-99733100D01*
X173479543Y-100584000D01*
X172974000Y-100584000D01*
X172974000Y-97843257D01*
X173824900Y-97829329D01*
X174675800Y-97815400D01*
X174690163Y-97243900D01*
X174704527Y-96672400D01*
X175209200Y-96672400D01*
X175209200Y-97180400D01*
X177546000Y-97180400D01*
X177546000Y-94996000D01*
X179171600Y-94996000D01*
X179171600Y-95453200D01*
X178054000Y-95453200D01*
X178054000Y-96113600D01*
X179171600Y-96113600D01*
X179171600Y-96621600D01*
X178054000Y-96621600D01*
X178054000Y-97180400D01*
X177546000Y-97180400D01*
X175209200Y-97180400D01*
X175209200Y-97840800D01*
X176326800Y-97840800D01*
X176326800Y-98958400D01*
X176885600Y-98958400D01*
X176885600Y-99517200D01*
X178663600Y-99517200D01*
X178663600Y-98958400D01*
X179171600Y-98958400D01*
X179171600Y-99517200D01*
X179504224Y-99517201D01*
X179836848Y-99517201D01*
X179821724Y-99199701D01*
X179806600Y-98882200D01*
X179542465Y-98866935D01*
X179278331Y-98851669D01*
X179263065Y-98587535D01*
X179247800Y-98323400D01*
X178612800Y-98293152D01*
X178612800Y-98856800D01*
X176990637Y-98856800D01*
X176976218Y-98310700D01*
X176961800Y-97764600D01*
X176695100Y-97749246D01*
X176428400Y-97733891D01*
X176428400Y-97231200D01*
X177439329Y-97231200D01*
X177454564Y-97523300D01*
X177469800Y-97815400D01*
X178658434Y-97843980D01*
X178689000Y-97256600D01*
X179262097Y-97242222D01*
X179835195Y-97227843D01*
X179820897Y-96632622D01*
X179806600Y-96037400D01*
X179539900Y-96022046D01*
X179273200Y-96006691D01*
X179273200Y-95560110D01*
X179806600Y-95529400D01*
X179806600Y-93192600D01*
X178930300Y-93178701D01*
X178054000Y-93164801D01*
X178054000Y-94335600D01*
X178663600Y-94335600D01*
X178663600Y-93827600D01*
X179171600Y-93827600D01*
X179171600Y-94335600D01*
X178663600Y-94335600D01*
X178054000Y-94335600D01*
X177546000Y-94335600D01*
X177546000Y-92710000D01*
X178104800Y-92710000D01*
X178104800Y-92151200D01*
X179166290Y-92151200D01*
X179197000Y-92684600D01*
X179806600Y-92684600D01*
X179835224Y-91490800D01*
X179273200Y-91490800D01*
X179273200Y-90937071D01*
X178981100Y-90921836D01*
X178689000Y-90906600D01*
X178673585Y-90666990D01*
X178658171Y-90427379D01*
X179232385Y-90412990D01*
X179806600Y-90398600D01*
X179806600Y-89789000D01*
X176352200Y-89789000D01*
X176321490Y-90322400D01*
X175214270Y-90322400D01*
X175183800Y-90906600D01*
X174145760Y-90935518D01*
X174117000Y-89789000D01*
X172096762Y-89775717D01*
X170076524Y-89762433D01*
X170090162Y-90944117D01*
X170102920Y-92049600D01*
X171297600Y-92049600D01*
X171297600Y-90424000D01*
X171754800Y-90424000D01*
X171754800Y-92049600D01*
X171297600Y-92049600D01*
X170102920Y-92049600D01*
X170103800Y-92125800D01*
X170632068Y-92156332D01*
X170658195Y-92608400D01*
X172415200Y-92608400D01*
X172415200Y-91541600D01*
X174040800Y-91541600D01*
X174040800Y-92049600D01*
X174701200Y-92049600D01*
X174701200Y-91541600D01*
X175768000Y-91541600D01*
X175768000Y-92049600D01*
X176428400Y-92049600D01*
X176428400Y-90424000D01*
X176885600Y-90424000D01*
X176885600Y-91490800D01*
X177546000Y-91490800D01*
X177546000Y-90424000D01*
X178054000Y-90424000D01*
X178054000Y-91490800D01*
X177546000Y-91490800D01*
X176885600Y-91490800D01*
X176885600Y-92049600D01*
X176428400Y-92049600D01*
X175768000Y-92049600D01*
X174701200Y-92049600D01*
X174040800Y-92049600D01*
X173482000Y-92049600D01*
X173482000Y-92608400D01*
X174142400Y-92608400D01*
X174142400Y-92151200D01*
X174599600Y-92151200D01*
X174599600Y-92608400D01*
X174142400Y-92608400D01*
X173482000Y-92608400D01*
X173482000Y-93167200D01*
X172974000Y-93167200D01*
X172974000Y-92608400D01*
X172415200Y-92608400D01*
X170658195Y-92608400D01*
X170662600Y-92684600D01*
X171754800Y-92713438D01*
X171754800Y-93163763D01*
X171208700Y-93178182D01*
X170662600Y-93192600D01*
X170647364Y-93484700D01*
X170632129Y-93776800D01*
X170078400Y-93776800D01*
X170078400Y-94386400D01*
X170738800Y-94386400D01*
X170738800Y-93827600D01*
X171856400Y-93827600D01*
X171856400Y-93268800D01*
X172923200Y-93268800D01*
X172923200Y-93827600D01*
X174142400Y-93827600D01*
X174142400Y-93268800D01*
X174599600Y-93268800D01*
X174599600Y-94335600D01*
X175260000Y-94335600D01*
X175260000Y-92710000D01*
X176885600Y-92710000D01*
X176885600Y-94335600D01*
X175260000Y-94335600D01*
X174599600Y-94335600D01*
X172918351Y-94335600D01*
X172933475Y-94653100D01*
X172948600Y-94970600D01*
X173492103Y-94984993D01*
X174035607Y-94999385D01*
X174050903Y-95264393D01*
X174066200Y-95529400D01*
X174675800Y-95529400D01*
X174691154Y-95262700D01*
X174706509Y-94996000D01*
X175209200Y-94996000D01*
X175209200Y-96008673D01*
X175076829Y-96012000D01*
X175818800Y-96012000D01*
X175818800Y-94996000D01*
X176321490Y-94996000D01*
X176352200Y-95529400D01*
X176885600Y-95560110D01*
X176885600Y-96012000D01*
X175818800Y-96012000D01*
X175076829Y-96012000D01*
X174637700Y-96023037D01*
X174066200Y-96037400D01*
X174050912Y-96331249D01*
X174035807Y-96621600D01*
X175260000Y-96621600D01*
X175260000Y-96113600D01*
X175768000Y-96113600D01*
X175768000Y-96621600D01*
X175260000Y-96621600D01*
X174035807Y-96621600D01*
X174035625Y-96625098D01*
X173517512Y-96610649D01*
X172999400Y-96596200D01*
X172984164Y-96304100D01*
X172968929Y-96012000D01*
X172415200Y-96012000D01*
X172415200Y-94894400D01*
X171856400Y-94894400D01*
X171856400Y-94335600D01*
X171191151Y-94335600D01*
X171206275Y-94653100D01*
X171221400Y-94970600D01*
X171754800Y-95001310D01*
X171754800Y-95447891D01*
X171488100Y-95463246D01*
X171221400Y-95478600D01*
X171221400Y-96088200D01*
X171754800Y-96118910D01*
X171754800Y-96621600D01*
X171249335Y-96621600D01*
X170743870Y-96621601D01*
X170728635Y-96329500D01*
X170713400Y-96037400D01*
X170129200Y-96006930D01*
X170129200Y-95559871D01*
X170421300Y-95544636D01*
X170713400Y-95529400D01*
X170713400Y-94919800D01*
X170078400Y-94889552D01*
X170078400Y-95453200D01*
X168458109Y-95453200D01*
X168442754Y-95186500D01*
X168427400Y-94919800D01*
X168163265Y-94904535D01*
X167899131Y-94889269D01*
X167883865Y-94625135D01*
X167868600Y-94361000D01*
X166674800Y-94332376D01*
X166674800Y-95453200D01*
X166166800Y-95453200D01*
X166166799Y-95171376D01*
X166166799Y-94889552D01*
X165849299Y-94904676D01*
X165531800Y-94919800D01*
X165531800Y-95529400D01*
X166060068Y-95559932D01*
X166090600Y-96088200D01*
X166408099Y-96103325D01*
X166725599Y-96118449D01*
X166725599Y-95836625D01*
X166725600Y-95554800D01*
X167233600Y-95554800D01*
X167233600Y-96113600D01*
X167792400Y-96113600D01*
X167792400Y-96621600D01*
X169011600Y-96621600D01*
X169011600Y-96113600D01*
X170078400Y-96113600D01*
X170078400Y-96672400D01*
X170637200Y-96672400D01*
X170637200Y-97739200D01*
X171856400Y-97739200D01*
X171856400Y-96672400D01*
X172364400Y-96672400D01*
X172364400Y-97231200D01*
X172923200Y-97231200D01*
X172923200Y-97739200D01*
X171856400Y-97739200D01*
X170637200Y-97739200D01*
X170129200Y-97739200D01*
X170129200Y-97180400D01*
X169570400Y-97180400D01*
X169570400Y-96621600D01*
X169011600Y-96621600D01*
X167792400Y-96621600D01*
X167792400Y-96672400D01*
X168910000Y-96672400D01*
X168910000Y-97180400D01*
X168351200Y-97180400D01*
X168351200Y-97739200D01*
X169011600Y-97739200D01*
X169011600Y-97225634D01*
X169494200Y-97256600D01*
X169525166Y-97739200D01*
X169011600Y-97739200D01*
X168351200Y-97739200D01*
X167792400Y-97739200D01*
X167792400Y-98017629D01*
X167792399Y-98296057D01*
X166662099Y-98309729D01*
X165531800Y-98323400D01*
X165517479Y-98921241D01*
X165503159Y-99519081D01*
X166685879Y-99505441D01*
X167868600Y-99491800D01*
X167883018Y-98945700D01*
X167897437Y-98399600D01*
X168345890Y-98399600D01*
X168376600Y-98933000D01*
X168904868Y-98963532D01*
X168935400Y-99491800D01*
X169255388Y-99506989D01*
X169575377Y-99522178D01*
X169560188Y-99202189D01*
X169545000Y-98882200D01*
X169278300Y-98866846D01*
X169011600Y-98851491D01*
X169011600Y-98399600D01*
X169570400Y-98399600D01*
X169570400Y-97840800D01*
X170078400Y-97840800D01*
X170078400Y-99522049D01*
X170395900Y-99506925D01*
X170713400Y-99491800D01*
X170727818Y-98945700D01*
X170742237Y-98399600D01*
X171194392Y-98399600D01*
X171198771Y-98856800D01*
X171856400Y-98856800D01*
X171856400Y-98399600D01*
X172364400Y-98399600D01*
X172364400Y-98856800D01*
X171856400Y-98856800D01*
X171198771Y-98856800D01*
X171215316Y-100584000D01*
X171856400Y-100584000D01*
X171856400Y-99517200D01*
X172364400Y-99517200D01*
X172364400Y-100584000D01*
X171856400Y-100584000D01*
X171215316Y-100584000D01*
X171220669Y-101142800D01*
X172415200Y-101142800D01*
X172415200Y-100685600D01*
X172923200Y-100685600D01*
X172923200Y-101142800D01*
X172415200Y-101142800D01*
X171220669Y-101142800D01*
X171221400Y-101219000D01*
X171754800Y-101249710D01*
X171754800Y-101701600D01*
X170744109Y-101701600D01*
X170728754Y-101434900D01*
X170713400Y-101168200D01*
X170078400Y-101137952D01*
X170078400Y-102870000D01*
X171856400Y-102870000D01*
X171856400Y-101803200D01*
X172364400Y-101803200D01*
X172364400Y-102362000D01*
X172923200Y-102362000D01*
X172923200Y-102870000D01*
X171856400Y-102870000D01*
X170078400Y-102870000D01*
X170078400Y-102920800D01*
X170637200Y-102920800D01*
X170637200Y-103428800D01*
X172974000Y-103428800D01*
X172974000Y-103208667D01*
X172981205Y-103066115D01*
X172999293Y-102970431D01*
X173007866Y-102954667D01*
X173075523Y-102933845D01*
X173205035Y-102921907D01*
X173261866Y-102920800D01*
X173482000Y-102920800D01*
X173482000Y-103428800D01*
X172974000Y-103428800D01*
X170637200Y-103428800D01*
X170078400Y-103428800D01*
X170078400Y-104094049D01*
X170395900Y-104078925D01*
G36*
X169575248Y-94335600D02*
X169266429Y-94335600D01*
X169067534Y-94345247D01*
X168958121Y-94375633D01*
X168930767Y-94405555D01*
X168917951Y-94495307D01*
X168916113Y-94642948D01*
X168919661Y-94723055D01*
X168935400Y-94970600D01*
X169545000Y-94970600D01*
X169575248Y-94335600D01*
X169575248Y-94335600D01*
G37*
X169575248Y-94335600D02*
X169266429Y-94335600D01*
X169067534Y-94345247D01*
X168958121Y-94375633D01*
X168930767Y-94405555D01*
X168917951Y-94495307D01*
X168916113Y-94642948D01*
X168919661Y-94723055D01*
X168935400Y-94970600D01*
X169545000Y-94970600D01*
X169575248Y-94335600D01*
G36*
X166730670Y-97231200D02*
X167284400Y-97231200D01*
X167284400Y-96621600D01*
X166674800Y-96621600D01*
X166674800Y-97180400D01*
X166166800Y-97180400D01*
X166166800Y-96621600D01*
X165503175Y-96621600D01*
X165517487Y-97218500D01*
X165531800Y-97815400D01*
X166700200Y-97815400D01*
X166730670Y-97231200D01*
X166730670Y-97231200D01*
G37*
X166730670Y-97231200D02*
X167284400Y-97231200D01*
X167284400Y-96621600D01*
X166674800Y-96621600D01*
X166674800Y-97180400D01*
X166166800Y-97180400D01*
X166166800Y-96621600D01*
X165503175Y-96621600D01*
X165517487Y-97218500D01*
X165531800Y-97815400D01*
X166700200Y-97815400D01*
X166730670Y-97231200D01*
G36*
X175248963Y-100088700D02*
X175263327Y-99517200D01*
X175818800Y-99517200D01*
X175818800Y-98298000D01*
X175233005Y-98298000D01*
X174956464Y-98301573D01*
X174769958Y-98313093D01*
X174662145Y-98333761D01*
X174622382Y-98362702D01*
X174615724Y-98430613D01*
X174610987Y-98584461D01*
X174608317Y-98808601D01*
X174607862Y-99087386D01*
X174609769Y-99405170D01*
X174611277Y-99543802D01*
X174625000Y-100660200D01*
X175234600Y-100660200D01*
X175248963Y-100088700D01*
X175248963Y-100088700D01*
G37*
X175248963Y-100088700D02*
X175263327Y-99517200D01*
X175818800Y-99517200D01*
X175818800Y-98298000D01*
X175233005Y-98298000D01*
X174956464Y-98301573D01*
X174769958Y-98313093D01*
X174662145Y-98333761D01*
X174622382Y-98362702D01*
X174615724Y-98430613D01*
X174610987Y-98584461D01*
X174608317Y-98808601D01*
X174607862Y-99087386D01*
X174609769Y-99405170D01*
X174611277Y-99543802D01*
X174625000Y-100660200D01*
X175234600Y-100660200D01*
X175248963Y-100088700D01*
G36*
X169570400Y-100025200D02*
X165505234Y-100025200D01*
X165527622Y-103428800D01*
X166166800Y-103428800D01*
X166166800Y-100685600D01*
X168910000Y-100685600D01*
X168910000Y-103428800D01*
X166166800Y-103428800D01*
X165527622Y-103428800D01*
X165531800Y-104063800D01*
X169570400Y-104090366D01*
X169570400Y-100025200D01*
X169570400Y-100025200D01*
G37*
X169570400Y-100025200D02*
X165505234Y-100025200D01*
X165527622Y-103428800D01*
X166166800Y-103428800D01*
X166166800Y-100685600D01*
X168910000Y-100685600D01*
X168910000Y-103428800D01*
X166166800Y-103428800D01*
X165527622Y-103428800D01*
X165531800Y-104063800D01*
X169570400Y-104090366D01*
X169570400Y-100025200D01*
G36*
X170713400Y-100050600D02*
X170393411Y-100035412D01*
X170073422Y-100020223D01*
X170088611Y-100340212D01*
X170103800Y-100660200D01*
X170713400Y-100660200D01*
X170713400Y-100050600D01*
X170713400Y-100050600D01*
G37*
X170713400Y-100050600D02*
X170393411Y-100035412D01*
X170073422Y-100020223D01*
X170088611Y-100340212D01*
X170103800Y-100660200D01*
X170713400Y-100660200D01*
X170713400Y-100050600D01*
G36*
X179806600Y-104063800D02*
X179819882Y-102044500D01*
X179833165Y-100025200D01*
X175768000Y-100025200D01*
X175768000Y-103428800D01*
X176428400Y-103428800D01*
X176428400Y-100685600D01*
X179171600Y-100685600D01*
X179171600Y-103428800D01*
X176428400Y-103428800D01*
X175768000Y-103428800D01*
X175768000Y-104090366D01*
X179806600Y-104063800D01*
X179806600Y-104063800D01*
G37*
X179806600Y-104063800D02*
X179819882Y-102044500D01*
X179833165Y-100025200D01*
X175768000Y-100025200D01*
X175768000Y-103428800D01*
X176428400Y-103428800D01*
X176428400Y-100685600D01*
X179171600Y-100685600D01*
X179171600Y-103428800D01*
X176428400Y-103428800D01*
X175768000Y-103428800D01*
X175768000Y-104090366D01*
X179806600Y-104063800D01*
G36*
X175260000Y-103428800D02*
X174953605Y-103428800D01*
X174755286Y-103438615D01*
X174646643Y-103469478D01*
X174620367Y-103498755D01*
X174607551Y-103588507D01*
X174605713Y-103736148D01*
X174609261Y-103816255D01*
X174625000Y-104063800D01*
X174942500Y-104078925D01*
X175260000Y-104094049D01*
X175260000Y-103428800D01*
X175260000Y-103428800D01*
G37*
X175260000Y-103428800D02*
X174953605Y-103428800D01*
X174755286Y-103438615D01*
X174646643Y-103469478D01*
X174620367Y-103498755D01*
X174607551Y-103588507D01*
X174605713Y-103736148D01*
X174609261Y-103816255D01*
X174625000Y-104063800D01*
X174942500Y-104078925D01*
X175260000Y-104094049D01*
X175260000Y-103428800D01*
G36*
X168427400Y-92684600D02*
X168441299Y-91808300D01*
X168455199Y-90932000D01*
X166674800Y-90932000D01*
X166674800Y-92712400D01*
X168427400Y-92684600D01*
X168427400Y-92684600D01*
G37*
X168427400Y-92684600D02*
X168441299Y-91808300D01*
X168455199Y-90932000D01*
X166674800Y-90932000D01*
X166674800Y-92712400D01*
X168427400Y-92684600D01*
G36*
X176085500Y-93817325D02*
X176403000Y-93802200D01*
X176403000Y-93192600D01*
X176121583Y-93177684D01*
X175960160Y-93175488D01*
X175842402Y-93185623D01*
X175804083Y-93198851D01*
X175784656Y-93265593D01*
X175771556Y-93401173D01*
X175768000Y-93533691D01*
X175768000Y-93832449D01*
X176085500Y-93817325D01*
X176085500Y-93817325D01*
G37*
X176085500Y-93817325D02*
X176403000Y-93802200D01*
X176403000Y-93192600D01*
X176121583Y-93177684D01*
X175960160Y-93175488D01*
X175842402Y-93185623D01*
X175804083Y-93198851D01*
X175784656Y-93265593D01*
X175771556Y-93401173D01*
X175768000Y-93533691D01*
X175768000Y-93832449D01*
X176085500Y-93817325D01*
G36*
X168441299Y-102044500D02*
X168427400Y-101168200D01*
X167551100Y-101154301D01*
X166674800Y-101140401D01*
X166674800Y-102920800D01*
X168455199Y-102920800D01*
X168441299Y-102044500D01*
X168441299Y-102044500D01*
G37*
X168441299Y-102044500D02*
X168427400Y-101168200D01*
X167551100Y-101154301D01*
X166674800Y-101140401D01*
X166674800Y-102920800D01*
X168455199Y-102920800D01*
X168441299Y-102044500D01*
G36*
X178663600Y-101142800D02*
X177808466Y-101142800D01*
X177523448Y-101144719D01*
X177274610Y-101150032D01*
X177079414Y-101158074D01*
X176955323Y-101168179D01*
X176919466Y-101176667D01*
X176908254Y-101236329D01*
X176898610Y-101380124D01*
X176891198Y-101590591D01*
X176886683Y-101850267D01*
X176885600Y-102065667D01*
X176885600Y-102920800D01*
X178663600Y-102920800D01*
X178663600Y-101142800D01*
X178663600Y-101142800D01*
G37*
X178663600Y-101142800D02*
X177808466Y-101142800D01*
X177523448Y-101144719D01*
X177274610Y-101150032D01*
X177079414Y-101158074D01*
X176955323Y-101168179D01*
X176919466Y-101176667D01*
X176908254Y-101236329D01*
X176898610Y-101380124D01*
X176891198Y-101590591D01*
X176886683Y-101850267D01*
X176885600Y-102065667D01*
X176885600Y-102920800D01*
X178663600Y-102920800D01*
X178663600Y-101142800D01*
D10*
X157710143Y-88733334D02*
X157757762Y-88685715D01*
X157805381Y-88542858D01*
X157805381Y-88447620D01*
X157757762Y-88304762D01*
X157662524Y-88209524D01*
X157567286Y-88161905D01*
X157376810Y-88114286D01*
X157233952Y-88114286D01*
X157043476Y-88161905D01*
X156948238Y-88209524D01*
X156853000Y-88304762D01*
X156805381Y-88447620D01*
X156805381Y-88542858D01*
X156853000Y-88685715D01*
X156900619Y-88733334D01*
X157805381Y-89685715D02*
X157805381Y-89114286D01*
X157805381Y-89400000D02*
X156805381Y-89400000D01*
X156948238Y-89304762D01*
X157043476Y-89209524D01*
X157091095Y-89114286D01*
X165558743Y-88580934D02*
X165606362Y-88533315D01*
X165653981Y-88390458D01*
X165653981Y-88295220D01*
X165606362Y-88152362D01*
X165511124Y-88057124D01*
X165415886Y-88009505D01*
X165225410Y-87961886D01*
X165082552Y-87961886D01*
X164892076Y-88009505D01*
X164796838Y-88057124D01*
X164701600Y-88152362D01*
X164653981Y-88295220D01*
X164653981Y-88390458D01*
X164701600Y-88533315D01*
X164749219Y-88580934D01*
X164749219Y-88961886D02*
X164701600Y-89009505D01*
X164653981Y-89104743D01*
X164653981Y-89342839D01*
X164701600Y-89438077D01*
X164749219Y-89485696D01*
X164844457Y-89533315D01*
X164939695Y-89533315D01*
X165082552Y-89485696D01*
X165653981Y-88914267D01*
X165653981Y-89533315D01*
X156979857Y-104420943D02*
X157027476Y-104468562D01*
X157170333Y-104516181D01*
X157265571Y-104516181D01*
X157408429Y-104468562D01*
X157503667Y-104373324D01*
X157551286Y-104278086D01*
X157598905Y-104087610D01*
X157598905Y-103944752D01*
X157551286Y-103754276D01*
X157503667Y-103659038D01*
X157408429Y-103563800D01*
X157265571Y-103516181D01*
X157170333Y-103516181D01*
X157027476Y-103563800D01*
X156979857Y-103611419D01*
X156027476Y-104516181D02*
X156598905Y-104516181D01*
X156313191Y-104516181D02*
X156313191Y-103516181D01*
X156408429Y-103659038D01*
X156503667Y-103754276D01*
X156598905Y-103801895D01*
X155646524Y-103611419D02*
X155598905Y-103563800D01*
X155503667Y-103516181D01*
X155265571Y-103516181D01*
X155170333Y-103563800D01*
X155122714Y-103611419D01*
X155075095Y-103706657D01*
X155075095Y-103801895D01*
X155122714Y-103944752D01*
X155694143Y-104516181D01*
X155075095Y-104516181D01*
X156330638Y-103011219D02*
X156425876Y-102963600D01*
X156521114Y-102868362D01*
X156663971Y-102725505D01*
X156759210Y-102677886D01*
X156854448Y-102677886D01*
X156806829Y-102915981D02*
X156902067Y-102868362D01*
X156997305Y-102773124D01*
X157044924Y-102582648D01*
X157044924Y-102249314D01*
X156997305Y-102058838D01*
X156902067Y-101963600D01*
X156806829Y-101915981D01*
X156616352Y-101915981D01*
X156521114Y-101963600D01*
X156425876Y-102058838D01*
X156378257Y-102249314D01*
X156378257Y-102582648D01*
X156425876Y-102773124D01*
X156521114Y-102868362D01*
X156616352Y-102915981D01*
X156806829Y-102915981D01*
X155425876Y-102915981D02*
X155997305Y-102915981D01*
X155711591Y-102915981D02*
X155711591Y-101915981D01*
X155806829Y-102058838D01*
X155902067Y-102154076D01*
X155997305Y-102201695D01*
X161710666Y-92806781D02*
X162044000Y-92330590D01*
X162282095Y-92806781D02*
X162282095Y-91806781D01*
X161901142Y-91806781D01*
X161805904Y-91854400D01*
X161758285Y-91902019D01*
X161710666Y-91997257D01*
X161710666Y-92140114D01*
X161758285Y-92235352D01*
X161805904Y-92282971D01*
X161901142Y-92330590D01*
X162282095Y-92330590D01*
X161329714Y-91902019D02*
X161282095Y-91854400D01*
X161186857Y-91806781D01*
X160948761Y-91806781D01*
X160853523Y-91854400D01*
X160805904Y-91902019D01*
X160758285Y-91997257D01*
X160758285Y-92092495D01*
X160805904Y-92235352D01*
X161377333Y-92806781D01*
X160758285Y-92806781D01*
X163507657Y-103119181D02*
X163840991Y-102642990D01*
X164079086Y-103119181D02*
X164079086Y-102119181D01*
X163698133Y-102119181D01*
X163602895Y-102166800D01*
X163555276Y-102214419D01*
X163507657Y-102309657D01*
X163507657Y-102452514D01*
X163555276Y-102547752D01*
X163602895Y-102595371D01*
X163698133Y-102642990D01*
X164079086Y-102642990D01*
X162555276Y-103119181D02*
X163126705Y-103119181D01*
X162840991Y-103119181D02*
X162840991Y-102119181D01*
X162936229Y-102262038D01*
X163031467Y-102357276D01*
X163126705Y-102404895D01*
X161602895Y-103119181D02*
X162174324Y-103119181D01*
X161888610Y-103119181D02*
X161888610Y-102119181D01*
X161983848Y-102262038D01*
X162079086Y-102357276D01*
X162174324Y-102404895D01*
X177445943Y-86987143D02*
X177493562Y-86939524D01*
X177541181Y-86796667D01*
X177541181Y-86701429D01*
X177493562Y-86558571D01*
X177398324Y-86463333D01*
X177303086Y-86415714D01*
X177112610Y-86368095D01*
X176969752Y-86368095D01*
X176779276Y-86415714D01*
X176684038Y-86463333D01*
X176588800Y-86558571D01*
X176541181Y-86701429D01*
X176541181Y-86796667D01*
X176588800Y-86939524D01*
X176636419Y-86987143D01*
X177541181Y-87939524D02*
X177541181Y-87368095D01*
X177541181Y-87653809D02*
X176541181Y-87653809D01*
X176684038Y-87558571D01*
X176779276Y-87463333D01*
X176826895Y-87368095D01*
X176541181Y-88272857D02*
X176541181Y-88891905D01*
X176922133Y-88558571D01*
X176922133Y-88701429D01*
X176969752Y-88796667D01*
X177017371Y-88844286D01*
X177112610Y-88891905D01*
X177350705Y-88891905D01*
X177445943Y-88844286D01*
X177493562Y-88796667D01*
X177541181Y-88701429D01*
X177541181Y-88415714D01*
X177493562Y-88320476D01*
X177445943Y-88272857D01*
X179547781Y-85418705D02*
X178547781Y-85418705D01*
X178547781Y-85799658D01*
X178595400Y-85894896D01*
X178643019Y-85942515D01*
X178738257Y-85990134D01*
X178881114Y-85990134D01*
X178976352Y-85942515D01*
X179023971Y-85894896D01*
X179071590Y-85799658D01*
X179071590Y-85418705D01*
X178547781Y-86323467D02*
X178547781Y-86942515D01*
X178928733Y-86609181D01*
X178928733Y-86752039D01*
X178976352Y-86847277D01*
X179023971Y-86894896D01*
X179119210Y-86942515D01*
X179357305Y-86942515D01*
X179452543Y-86894896D01*
X179500162Y-86847277D01*
X179547781Y-86752039D01*
X179547781Y-86466324D01*
X179500162Y-86371086D01*
X179452543Y-86323467D01*
X170586305Y-86879181D02*
X170586305Y-87688705D01*
X170538686Y-87783943D01*
X170491067Y-87831562D01*
X170395829Y-87879181D01*
X170205352Y-87879181D01*
X170110114Y-87831562D01*
X170062495Y-87783943D01*
X170014876Y-87688705D01*
X170014876Y-86879181D01*
X169633924Y-86879181D02*
X169014876Y-86879181D01*
X169348210Y-87260133D01*
X169205352Y-87260133D01*
X169110114Y-87307752D01*
X169062495Y-87355371D01*
X169014876Y-87450610D01*
X169014876Y-87688705D01*
X169062495Y-87783943D01*
X169110114Y-87831562D01*
X169205352Y-87879181D01*
X169491067Y-87879181D01*
X169586305Y-87831562D01*
X169633924Y-87783943D01*
X156336905Y-94448381D02*
X156336905Y-95257905D01*
X156289286Y-95353143D01*
X156241667Y-95400762D01*
X156146429Y-95448381D01*
X155955952Y-95448381D01*
X155860714Y-95400762D01*
X155813095Y-95353143D01*
X155765476Y-95257905D01*
X155765476Y-94448381D01*
X154813095Y-94448381D02*
X155289286Y-94448381D01*
X155336905Y-94924571D01*
X155289286Y-94876952D01*
X155194048Y-94829333D01*
X154955952Y-94829333D01*
X154860714Y-94876952D01*
X154813095Y-94924571D01*
X154765476Y-95019810D01*
X154765476Y-95257905D01*
X154813095Y-95353143D01*
X154860714Y-95400762D01*
X154955952Y-95448381D01*
X155194048Y-95448381D01*
X155289286Y-95400762D01*
X155336905Y-95353143D01*
X161972524Y-85685381D02*
X161305857Y-86685381D01*
X161305857Y-85685381D02*
X161972524Y-86685381D01*
X160401095Y-86685381D02*
X160972524Y-86685381D01*
X160686810Y-86685381D02*
X160686810Y-85685381D01*
X160782048Y-85828238D01*
X160877286Y-85923476D01*
X160972524Y-85971095D01*
M02*
